<svg width="32" height="40" viewBox="0 0 32 40" fill="none" xmlns="http://www.w3.org/2000/svg">
<path d="M1.33337 5.33333V34.6667C1.33337 35.6391 1.71968 36.5718 2.40732 37.2594C3.09495 37.947 4.02758 38.3333 5.00004 38.3333H27C27.9725 38.3333 28.9051 37.947 29.5928 37.2594C30.2804 36.5718 30.6667 35.6391 30.6667 34.6667V13.2937C30.6666 12.8052 30.569 12.3217 30.3795 11.8714C30.1899 11.4212 29.9124 11.0134 29.563 10.672L21.423 2.71167C20.738 2.04187 19.8181 1.66679 18.86 1.66667H5.00004C4.02758 1.66667 3.09495 2.05298 2.40732 2.74061C1.71968 3.42824 1.33337 4.36087 1.33337 5.33333Z" stroke="#0DBCDA" stroke-width="2" stroke-linecap="round" stroke-linejoin="round"/>
<path d="M19.6667 1.66667V9C19.6667 9.97246 20.0531 10.9051 20.7407 11.5927C21.4283 12.2804 22.361 12.6667 23.3334 12.6667H30.6667" stroke="#0DBCDA" stroke-width="2" stroke-linejoin="round"/>
</svg>
