<svg width="15" height="20" viewBox="0 0 15 20" fill="none" xmlns="http://www.w3.org/2000/svg">
<path d="M0.536006 19.8875C0.697771 19.9716 0.879397 20.0101 1.06139 19.9989C1.24338 19.9876 1.41886 19.927 1.56901 19.8235L14.569 10.8235C14.7018 10.7315 14.8104 10.6086 14.8854 10.4654C14.9604 10.3223 14.9995 10.1631 14.9995 10.0015C14.9995 9.83989 14.9604 9.68069 14.8854 9.53753C14.8104 9.39438 14.7018 9.27152 14.569 9.17949L1.56901 0.179492C1.41915 0.0749467 1.24346 0.0135505 1.0611 0.00199721C0.878744 -0.00955605 0.696714 0.0291771 0.534858 0.113974C0.373002 0.19877 0.237532 0.326375 0.143218 0.482877C0.0489047 0.639379 -0.000633163 0.81877 6.10981e-06 1.00149V19.0015C-2.39712e-05 19.184 0.0499091 19.3631 0.144393 19.5193C0.238878 19.6755 0.374308 19.8028 0.536006 19.8875ZM2.00001 2.91049L12.243 10.0015L2.00001 17.0925V2.91049Z" fill="#0DBCDA"/>
</svg>
