<svg xmlns="http://www.w3.org/2000/svg" version="1.1" xmlns:xlink="http://www.w3.org/1999/xlink" xmlns:svgjs="http://svgjs.dev/svgjs" width="1920" height="4000" preserveAspectRatio="none" viewBox="0 0 1920 4000"><g mask="url(&quot;#SvgjsMask1577&quot;)" fill="none"><rect width="1920" height="4000" x="0" y="0" fill="url(&quot;#SvgjsLinearGradient1578&quot;)"></rect><path d="M22.93 180.19L87.88 217.69L87.88 292.69L22.93 330.19L-42.02 292.69L-42.02 217.69zM87.88 292.69L152.84 330.19L152.84 405.19L87.88 442.69L22.93 405.19L22.93 330.19zM22.93 630.19L87.88 667.69L87.88 742.69L22.93 780.19L-42.02 742.69L-42.02 667.69zM22.93 855.19L87.88 892.69L87.88 967.69L22.93 1005.19L-42.02 967.69L-42.02 892.69zM87.88 1417.69L152.84 1455.19L152.84 1530.19L87.88 1567.69L22.93 1530.19L22.93 1455.19zM22.93 1530.19L87.88 1567.69L87.88 1642.69L22.93 1680.19L-42.02 1642.69L-42.02 1567.69zM22.93 1980.19L87.88 2017.69L87.88 2092.69L22.93 2130.19L-42.02 2092.69L-42.02 2017.69zM87.88 2092.69L152.84 2130.19L152.84 2205.19L87.88 2242.69L22.93 2205.19L22.93 2130.19zM22.93 2205.19L87.88 2242.69L87.88 2317.69L22.93 2355.19L-42.02 2317.69L-42.02 2242.69zM87.88 3217.69L152.84 3255.19L152.84 3330.19L87.88 3367.69L22.93 3330.19L22.93 3255.19zM22.93 3330.19L87.88 3367.69L87.88 3442.69L22.93 3480.19L-42.02 3442.69L-42.02 3367.69zM87.88 3442.69L152.84 3480.19L152.84 3555.19L87.88 3592.69L22.93 3555.19L22.93 3480.19zM217.79 517.69L282.75 555.19L282.75 630.19L217.79 667.69L152.84 630.19L152.84 555.19zM152.84 630.19L217.79 667.69L217.79 742.69L152.84 780.19L87.88 742.69L87.88 667.69zM217.79 742.69L282.75 780.19L282.75 855.19L217.79 892.69L152.84 855.19L152.84 780.19zM152.84 1530.19L217.79 1567.69L217.79 1642.69L152.84 1680.19L87.88 1642.69L87.88 1567.69zM152.84 1980.19L217.79 2017.69L217.79 2092.69L152.84 2130.19L87.88 2092.69L87.88 2017.69zM217.79 2542.69L282.75 2580.19L282.75 2655.19L217.79 2692.69L152.84 2655.19L152.84 2580.19zM152.84 2655.19L217.79 2692.69L217.79 2767.69L152.84 2805.19L87.88 2767.69L87.88 2692.69zM152.84 3105.19L217.79 3142.69L217.79 3217.69L152.84 3255.19L87.88 3217.69L87.88 3142.69zM152.84 3330.19L217.79 3367.69L217.79 3442.69L152.84 3480.19L87.88 3442.69L87.88 3367.69zM347.7 67.69L412.65 105.19L412.65 180.19L347.7 217.69L282.75 180.19L282.75 105.19zM282.75 405.19L347.7 442.69L347.7 517.69L282.75 555.19L217.79 517.69L217.79 442.69zM347.7 1417.69L412.65 1455.19L412.65 1530.19L347.7 1567.69L282.75 1530.19L282.75 1455.19zM282.75 2655.19L347.7 2692.69L347.7 2767.69L282.75 2805.19L217.79 2767.69L217.79 2692.69zM282.75 3330.19L347.7 3367.69L347.7 3442.69L282.75 3480.19L217.79 3442.69L217.79 3367.69zM347.7 3667.69L412.65 3705.19L412.65 3780.19L347.7 3817.69L282.75 3780.19L282.75 3705.19zM347.7 3892.69L412.65 3930.19L412.65 4005.19L347.7 4042.69L282.75 4005.19L282.75 3930.19zM477.61 292.69L542.56 330.19L542.56 405.19L477.61 442.69L412.65 405.19L412.65 330.19zM412.65 1080.19L477.61 1117.69L477.61 1192.69L412.65 1230.19L347.7 1192.69L347.7 1117.69zM477.61 1642.69L542.56 1680.19L542.56 1755.19L477.61 1792.69L412.65 1755.19L412.65 1680.19zM412.65 1755.19L477.61 1792.69L477.61 1867.69L412.65 1905.19L347.7 1867.69L347.7 1792.69zM412.65 3330.19L477.61 3367.69L477.61 3442.69L412.65 3480.19L347.7 3442.69L347.7 3367.69zM477.61 3442.69L542.56 3480.19L542.56 3555.19L477.61 3592.69L412.65 3555.19L412.65 3480.19zM412.65 3780.19L477.61 3817.69L477.61 3892.69L412.65 3930.19L347.7 3892.69L347.7 3817.69zM542.56 405.19L607.51 442.69L607.51 517.69L542.56 555.19L477.61 517.69L477.61 442.69zM607.51 742.69L672.47 780.19L672.47 855.19L607.51 892.69L542.56 855.19L542.56 780.19zM542.56 1530.19L607.51 1567.69L607.51 1642.69L542.56 1680.19L477.61 1642.69L477.61 1567.69zM607.51 2092.69L672.47 2130.19L672.47 2205.19L607.51 2242.69L542.56 2205.19L542.56 2130.19zM542.56 2430.19L607.51 2467.69L607.51 2542.69L542.56 2580.19L477.61 2542.69L477.61 2467.69zM542.56 2655.19L607.51 2692.69L607.51 2767.69L542.56 2805.19L477.61 2767.69L477.61 2692.69zM607.51 3667.69L672.47 3705.19L672.47 3780.19L607.51 3817.69L542.56 3780.19L542.56 3705.19zM737.42 67.69L802.38 105.19L802.38 180.19L737.42 217.69L672.47 180.19L672.47 105.19zM737.42 292.69L802.38 330.19L802.38 405.19L737.42 442.69L672.47 405.19L672.47 330.19zM672.47 405.19L737.42 442.69L737.42 517.69L672.47 555.19L607.51 517.69L607.51 442.69zM737.42 1192.69L802.38 1230.19L802.38 1305.19L737.42 1342.69L672.47 1305.19L672.47 1230.19zM672.47 1980.19L737.42 2017.69L737.42 2092.69L672.47 2130.19L607.51 2092.69L607.51 2017.69zM672.47 2655.19L737.42 2692.69L737.42 2767.69L672.47 2805.19L607.51 2767.69L607.51 2692.69zM672.47 2880.19L737.42 2917.69L737.42 2992.69L672.47 3030.19L607.51 2992.69L607.51 2917.69zM737.42 2992.69L802.38 3030.19L802.38 3105.19L737.42 3142.69L672.47 3105.19L672.47 3030.19zM737.42 3217.69L802.38 3255.19L802.38 3330.19L737.42 3367.69L672.47 3330.19L672.47 3255.19zM672.47 3330.19L737.42 3367.69L737.42 3442.69L672.47 3480.19L607.51 3442.69L607.51 3367.69zM672.47 3780.19L737.42 3817.69L737.42 3892.69L672.47 3930.19L607.51 3892.69L607.51 3817.69zM802.37 -44.81L867.33 -7.31L867.33 67.69L802.37 105.19L737.42 67.69L737.42 -7.31zM802.37 180.19L867.33 217.69L867.33 292.69L802.37 330.19L737.42 292.69L737.42 217.69zM867.33 292.69L932.28 330.19L932.28 405.19L867.33 442.69L802.37 405.19L802.37 330.19zM867.33 517.69L932.28 555.19L932.28 630.19L867.33 667.69L802.37 630.19L802.37 555.19zM802.37 1080.19L867.33 1117.69L867.33 1192.69L802.37 1230.19L737.42 1192.69L737.42 1117.69zM867.33 1417.69L932.28 1455.19L932.28 1530.19L867.33 1567.69L802.37 1530.19L802.37 1455.19zM802.37 1530.19L867.33 1567.69L867.33 1642.69L802.37 1680.19L737.42 1642.69L737.42 1567.69zM867.33 2317.69L932.28 2355.19L932.28 2430.19L867.33 2467.69L802.37 2430.19L802.37 2355.19zM867.33 2767.69L932.28 2805.19L932.28 2880.19L867.33 2917.69L802.37 2880.19L802.37 2805.19zM802.37 2880.19L867.33 2917.69L867.33 2992.69L802.37 3030.19L737.42 2992.69L737.42 2917.69zM802.37 3105.19L867.33 3142.69L867.33 3217.69L802.37 3255.19L737.42 3217.69L737.42 3142.69zM867.33 3217.69L932.28 3255.19L932.28 3330.19L867.33 3367.69L802.37 3330.19L802.37 3255.19zM867.33 3667.69L932.28 3705.19L932.28 3780.19L867.33 3817.69L802.37 3780.19L802.37 3705.19zM997.24 67.69L1062.19 105.19L1062.19 180.19L997.24 217.69L932.28 180.19L932.28 105.19zM932.28 180.19L997.24 217.69L997.24 292.69L932.28 330.19L867.33 292.69L867.33 217.69zM932.28 405.19L997.24 442.69L997.24 517.69L932.28 555.19L867.33 517.69L867.33 442.69zM997.24 967.69L1062.19 1005.19L1062.19 1080.19L997.24 1117.69L932.28 1080.19L932.28 1005.19zM932.28 1305.19L997.24 1342.69L997.24 1417.69L932.28 1455.19L867.33 1417.69L867.33 1342.69zM932.28 1530.19L997.24 1567.69L997.24 1642.69L932.28 1680.19L867.33 1642.69L867.33 1567.69zM932.28 2205.19L997.24 2242.69L997.24 2317.69L932.28 2355.19L867.33 2317.69L867.33 2242.69zM932.28 3105.19L997.24 3142.69L997.24 3217.69L932.28 3255.19L867.33 3217.69L867.33 3142.69zM997.24 3442.69L1062.19 3480.19L1062.19 3555.19L997.24 3592.69L932.28 3555.19L932.28 3480.19zM932.28 4005.19L997.24 4042.69L997.24 4117.69L932.28 4155.19L867.33 4117.69L867.33 4042.69zM1062.19 180.19L1127.14 217.69L1127.14 292.69L1062.19 330.19L997.24 292.69L997.24 217.69zM1127.14 517.69L1192.1 555.19L1192.1 630.19L1127.14 667.69L1062.19 630.19L1062.19 555.19zM1062.19 630.19L1127.14 667.69L1127.14 742.69L1062.19 780.19L997.24 742.69L997.24 667.69zM1062.19 855.19L1127.14 892.69L1127.14 967.69L1062.19 1005.19L997.24 967.69L997.24 892.69zM1127.14 967.69L1192.1 1005.19L1192.1 1080.19L1127.14 1117.69L1062.19 1080.19L1062.19 1005.19zM1062.19 1080.19L1127.14 1117.69L1127.14 1192.69L1062.19 1230.19L997.24 1192.69L997.24 1117.69zM1062.19 1530.19L1127.14 1567.69L1127.14 1642.69L1062.19 1680.19L997.24 1642.69L997.24 1567.69zM1127.14 2092.69L1192.1 2130.19L1192.1 2205.19L1127.14 2242.69L1062.19 2205.19L1062.19 2130.19zM1062.19 2205.19L1127.14 2242.69L1127.14 2317.69L1062.19 2355.19L997.24 2317.69L997.24 2242.69zM1062.19 2430.19L1127.14 2467.69L1127.14 2542.69L1062.19 2580.19L997.24 2542.69L997.24 2467.69zM1062.19 2655.19L1127.14 2692.69L1127.14 2767.69L1062.19 2805.19L997.24 2767.69L997.24 2692.69zM1127.14 2767.69L1192.1 2805.19L1192.1 2880.19L1127.14 2917.69L1062.19 2880.19L1062.19 2805.19zM1062.19 3555.19L1127.14 3592.69L1127.14 3667.69L1062.19 3705.19L997.24 3667.69L997.24 3592.69zM1127.14 3667.69L1192.1 3705.19L1192.1 3780.19L1127.14 3817.69L1062.19 3780.19L1062.19 3705.19zM1062.19 4005.19L1127.14 4042.69L1127.14 4117.69L1062.19 4155.19L997.24 4117.69L997.24 4042.69zM1192.1 180.19L1257.05 217.69L1257.05 292.69L1192.1 330.19L1127.14 292.69L1127.14 217.69zM1192.1 855.19L1257.05 892.69L1257.05 967.69L1192.1 1005.19L1127.14 967.69L1127.14 892.69zM1257.05 1642.69L1322 1680.19L1322 1755.19L1257.05 1792.69L1192.1 1755.19L1192.1 1680.19zM1192.1 1980.19L1257.05 2017.69L1257.05 2092.69L1192.1 2130.19L1127.14 2092.69L1127.14 2017.69zM1257.05 2317.69L1322 2355.19L1322 2430.19L1257.05 2467.69L1192.1 2430.19L1192.1 2355.19zM1192.1 2430.19L1257.05 2467.69L1257.05 2542.69L1192.1 2580.19L1127.14 2542.69L1127.14 2467.69zM1192.1 3105.19L1257.05 3142.69L1257.05 3217.69L1192.1 3255.19L1127.14 3217.69L1127.14 3142.69zM1192.1 3330.19L1257.05 3367.69L1257.05 3442.69L1192.1 3480.19L1127.14 3442.69L1127.14 3367.69zM1257.05 3442.69L1322 3480.19L1322 3555.19L1257.05 3592.69L1192.1 3555.19L1192.1 3480.19zM1192.1 3555.19L1257.05 3592.69L1257.05 3667.69L1192.1 3705.19L1127.14 3667.69L1127.14 3592.69zM1257.05 3667.69L1322 3705.19L1322 3780.19L1257.05 3817.69L1192.1 3780.19L1192.1 3705.19zM1192.1 3780.19L1257.05 3817.69L1257.05 3892.69L1192.1 3930.19L1127.14 3892.69L1127.14 3817.69zM1322.01 -44.81L1386.96 -7.31L1386.96 67.69L1322.01 105.19L1257.05 67.69L1257.05 -7.31zM1386.96 517.69L1451.91 555.19L1451.91 630.19L1386.96 667.69L1322.01 630.19L1322.01 555.19zM1322.01 2205.19L1386.96 2242.69L1386.96 2317.69L1322.01 2355.19L1257.05 2317.69L1257.05 2242.69zM1386.96 2317.69L1451.91 2355.19L1451.91 2430.19L1386.96 2467.69L1322.01 2430.19L1322.01 2355.19zM1322.01 2430.19L1386.96 2467.69L1386.96 2542.69L1322.01 2580.19L1257.05 2542.69L1257.05 2467.69zM1386.96 2542.69L1451.91 2580.19L1451.91 2655.19L1386.96 2692.69L1322.01 2655.19L1322.01 2580.19zM1322.01 2655.19L1386.96 2692.69L1386.96 2767.69L1322.01 2805.19L1257.05 2767.69L1257.05 2692.69zM1386.96 2992.69L1451.91 3030.19L1451.91 3105.19L1386.96 3142.69L1322.01 3105.19L1322.01 3030.19zM1322.01 3105.19L1386.96 3142.69L1386.96 3217.69L1322.01 3255.19L1257.05 3217.69L1257.05 3142.69zM1322.01 3780.19L1386.96 3817.69L1386.96 3892.69L1322.01 3930.19L1257.05 3892.69L1257.05 3817.69zM1516.87 292.69L1581.82 330.19L1581.82 405.19L1516.87 442.69L1451.91 405.19L1451.91 330.19zM1516.87 742.69L1581.82 780.19L1581.82 855.19L1516.87 892.69L1451.91 855.19L1451.91 780.19zM1516.87 967.69L1581.82 1005.19L1581.82 1080.19L1516.87 1117.69L1451.91 1080.19L1451.91 1005.19zM1516.87 1192.69L1581.82 1230.19L1581.82 1305.19L1516.87 1342.69L1451.91 1305.19L1451.91 1230.19zM1451.91 1980.19L1516.87 2017.69L1516.87 2092.69L1451.91 2130.19L1386.96 2092.69L1386.96 2017.69zM1451.91 2205.19L1516.87 2242.69L1516.87 2317.69L1451.91 2355.19L1386.96 2317.69L1386.96 2242.69zM1451.91 2430.19L1516.87 2467.69L1516.87 2542.69L1451.91 2580.19L1386.96 2542.69L1386.96 2467.69zM1451.91 4005.19L1516.87 4042.69L1516.87 4117.69L1451.91 4155.19L1386.96 4117.69L1386.96 4042.69zM1646.77 292.69L1711.73 330.19L1711.73 405.19L1646.77 442.69L1581.82 405.19L1581.82 330.19zM1581.82 630.19L1646.77 667.69L1646.77 742.69L1581.82 780.19L1516.87 742.69L1516.87 667.69zM1646.77 742.69L1711.73 780.19L1711.73 855.19L1646.77 892.69L1581.82 855.19L1581.82 780.19zM1581.82 1080.19L1646.77 1117.69L1646.77 1192.69L1581.82 1230.19L1516.87 1192.69L1516.87 1117.69zM1581.82 2880.19L1646.77 2917.69L1646.77 2992.69L1581.82 3030.19L1516.87 2992.69L1516.87 2917.69zM1581.82 3105.19L1646.77 3142.69L1646.77 3217.69L1581.82 3255.19L1516.87 3217.69L1516.87 3142.69zM1581.82 3330.19L1646.77 3367.69L1646.77 3442.69L1581.82 3480.19L1516.87 3442.69L1516.87 3367.69zM1646.77 3442.69L1711.73 3480.19L1711.73 3555.19L1646.77 3592.69L1581.82 3555.19L1581.82 3480.19zM1646.77 3892.69L1711.73 3930.19L1711.73 4005.19L1646.77 4042.69L1581.82 4005.19L1581.82 3930.19zM1711.73 -44.81L1776.68 -7.31L1776.68 67.69L1711.73 105.19L1646.77 67.69L1646.77 -7.31zM1776.68 967.69L1841.63 1005.19L1841.63 1080.19L1776.68 1117.69L1711.73 1080.19L1711.73 1005.19zM1776.68 1417.69L1841.63 1455.19L1841.63 1530.19L1776.68 1567.69L1711.73 1530.19L1711.73 1455.19zM1776.68 1642.69L1841.63 1680.19L1841.63 1755.19L1776.68 1792.69L1711.73 1755.19L1711.73 1680.19zM1711.73 1755.19L1776.68 1792.69L1776.68 1867.69L1711.73 1905.19L1646.77 1867.69L1646.77 1792.69zM1776.68 2317.69L1841.63 2355.19L1841.63 2430.19L1776.68 2467.69L1711.73 2430.19L1711.73 2355.19zM1711.73 3105.19L1776.68 3142.69L1776.68 3217.69L1711.73 3255.19L1646.77 3217.69L1646.77 3142.69zM1776.68 3442.69L1841.63 3480.19L1841.63 3555.19L1776.68 3592.69L1711.73 3555.19L1711.73 3480.19zM1711.73 3780.19L1776.68 3817.69L1776.68 3892.69L1711.73 3930.19L1646.77 3892.69L1646.77 3817.69zM1841.63 -44.81L1906.59 -7.31L1906.59 67.69L1841.63 105.19L1776.68 67.69L1776.68 -7.31zM1906.59 1417.69L1971.54 1455.19L1971.54 1530.19L1906.59 1567.69L1841.63 1530.19L1841.63 1455.19zM1841.63 1980.19L1906.59 2017.69L1906.59 2092.69L1841.63 2130.19L1776.68 2092.69L1776.68 2017.69zM1841.63 2205.19L1906.59 2242.69L1906.59 2317.69L1841.63 2355.19L1776.68 2317.69L1776.68 2242.69zM1841.63 2430.19L1906.59 2467.69L1906.59 2542.69L1841.63 2580.19L1776.68 2542.69L1776.68 2467.69zM1906.59 2992.69L1971.54 3030.19L1971.54 3105.19L1906.59 3142.69L1841.63 3105.19L1841.63 3030.19zM1906.59 3217.69L1971.54 3255.19L1971.54 3330.19L1906.59 3367.69L1841.63 3330.19L1841.63 3255.19zM1906.59 3442.69L1971.54 3480.19L1971.54 3555.19L1906.59 3592.69L1841.63 3555.19L1841.63 3480.19zM1906.59 3892.69L1971.54 3930.19L1971.54 4005.19L1906.59 4042.69L1841.63 4005.19L1841.63 3930.19z" stroke="url(&quot;#SvgjsLinearGradient1579&quot;)" stroke-width="2"></path><path d="M15.43 180.19 a7.5 7.5 0 1 0 15 0 a7.5 7.5 0 1 0 -15 0zM80.38 217.69 a7.5 7.5 0 1 0 15 0 a7.5 7.5 0 1 0 -15 0zM80.38 292.69 a7.5 7.5 0 1 0 15 0 a7.5 7.5 0 1 0 -15 0zM15.43 330.19 a7.5 7.5 0 1 0 15 0 a7.5 7.5 0 1 0 -15 0zM-49.52 292.69 a7.5 7.5 0 1 0 15 0 a7.5 7.5 0 1 0 -15 0zM-49.52 217.69 a7.5 7.5 0 1 0 15 0 a7.5 7.5 0 1 0 -15 0zM145.34 330.19 a7.5 7.5 0 1 0 15 0 a7.5 7.5 0 1 0 -15 0zM145.34 405.19 a7.5 7.5 0 1 0 15 0 a7.5 7.5 0 1 0 -15 0zM80.38 442.69 a7.5 7.5 0 1 0 15 0 a7.5 7.5 0 1 0 -15 0zM15.43 405.19 a7.5 7.5 0 1 0 15 0 a7.5 7.5 0 1 0 -15 0zM15.43 630.19 a7.5 7.5 0 1 0 15 0 a7.5 7.5 0 1 0 -15 0zM80.38 667.69 a7.5 7.5 0 1 0 15 0 a7.5 7.5 0 1 0 -15 0zM80.38 742.69 a7.5 7.5 0 1 0 15 0 a7.5 7.5 0 1 0 -15 0zM15.43 780.19 a7.5 7.5 0 1 0 15 0 a7.5 7.5 0 1 0 -15 0zM-49.52 742.69 a7.5 7.5 0 1 0 15 0 a7.5 7.5 0 1 0 -15 0zM-49.52 667.69 a7.5 7.5 0 1 0 15 0 a7.5 7.5 0 1 0 -15 0zM15.43 855.19 a7.5 7.5 0 1 0 15 0 a7.5 7.5 0 1 0 -15 0zM80.38 892.69 a7.5 7.5 0 1 0 15 0 a7.5 7.5 0 1 0 -15 0zM80.38 967.69 a7.5 7.5 0 1 0 15 0 a7.5 7.5 0 1 0 -15 0zM15.43 1005.19 a7.5 7.5 0 1 0 15 0 a7.5 7.5 0 1 0 -15 0zM-49.52 967.69 a7.5 7.5 0 1 0 15 0 a7.5 7.5 0 1 0 -15 0zM-49.52 892.69 a7.5 7.5 0 1 0 15 0 a7.5 7.5 0 1 0 -15 0zM80.38 1417.69 a7.5 7.5 0 1 0 15 0 a7.5 7.5 0 1 0 -15 0zM145.34 1455.19 a7.5 7.5 0 1 0 15 0 a7.5 7.5 0 1 0 -15 0zM145.34 1530.19 a7.5 7.5 0 1 0 15 0 a7.5 7.5 0 1 0 -15 0zM80.38 1567.69 a7.5 7.5 0 1 0 15 0 a7.5 7.5 0 1 0 -15 0zM15.43 1530.19 a7.5 7.5 0 1 0 15 0 a7.5 7.5 0 1 0 -15 0zM15.43 1455.19 a7.5 7.5 0 1 0 15 0 a7.5 7.5 0 1 0 -15 0zM80.38 1642.69 a7.5 7.5 0 1 0 15 0 a7.5 7.5 0 1 0 -15 0zM15.43 1680.19 a7.5 7.5 0 1 0 15 0 a7.5 7.5 0 1 0 -15 0zM-49.52 1642.69 a7.5 7.5 0 1 0 15 0 a7.5 7.5 0 1 0 -15 0zM-49.52 1567.69 a7.5 7.5 0 1 0 15 0 a7.5 7.5 0 1 0 -15 0zM15.43 1980.19 a7.5 7.5 0 1 0 15 0 a7.5 7.5 0 1 0 -15 0zM80.38 2017.69 a7.5 7.5 0 1 0 15 0 a7.5 7.5 0 1 0 -15 0zM80.38 2092.69 a7.5 7.5 0 1 0 15 0 a7.5 7.5 0 1 0 -15 0zM15.43 2130.19 a7.5 7.5 0 1 0 15 0 a7.5 7.5 0 1 0 -15 0zM-49.52 2092.69 a7.5 7.5 0 1 0 15 0 a7.5 7.5 0 1 0 -15 0zM-49.52 2017.69 a7.5 7.5 0 1 0 15 0 a7.5 7.5 0 1 0 -15 0zM145.34 2130.19 a7.5 7.5 0 1 0 15 0 a7.5 7.5 0 1 0 -15 0zM145.34 2205.19 a7.5 7.5 0 1 0 15 0 a7.5 7.5 0 1 0 -15 0zM80.38 2242.69 a7.5 7.5 0 1 0 15 0 a7.5 7.5 0 1 0 -15 0zM15.43 2205.19 a7.5 7.5 0 1 0 15 0 a7.5 7.5 0 1 0 -15 0zM80.38 2317.69 a7.5 7.5 0 1 0 15 0 a7.5 7.5 0 1 0 -15 0zM15.43 2355.19 a7.5 7.5 0 1 0 15 0 a7.5 7.5 0 1 0 -15 0zM-49.52 2317.69 a7.5 7.5 0 1 0 15 0 a7.5 7.5 0 1 0 -15 0zM-49.52 2242.69 a7.5 7.5 0 1 0 15 0 a7.5 7.5 0 1 0 -15 0zM80.38 3217.69 a7.5 7.5 0 1 0 15 0 a7.5 7.5 0 1 0 -15 0zM145.34 3255.19 a7.5 7.5 0 1 0 15 0 a7.5 7.5 0 1 0 -15 0zM145.34 3330.19 a7.5 7.5 0 1 0 15 0 a7.5 7.5 0 1 0 -15 0zM80.38 3367.69 a7.5 7.5 0 1 0 15 0 a7.5 7.5 0 1 0 -15 0zM15.43 3330.19 a7.5 7.5 0 1 0 15 0 a7.5 7.5 0 1 0 -15 0zM15.43 3255.19 a7.5 7.5 0 1 0 15 0 a7.5 7.5 0 1 0 -15 0zM80.38 3442.69 a7.5 7.5 0 1 0 15 0 a7.5 7.5 0 1 0 -15 0zM15.43 3480.19 a7.5 7.5 0 1 0 15 0 a7.5 7.5 0 1 0 -15 0zM-49.52 3442.69 a7.5 7.5 0 1 0 15 0 a7.5 7.5 0 1 0 -15 0zM-49.52 3367.69 a7.5 7.5 0 1 0 15 0 a7.5 7.5 0 1 0 -15 0zM145.34 3480.19 a7.5 7.5 0 1 0 15 0 a7.5 7.5 0 1 0 -15 0zM145.34 3555.19 a7.5 7.5 0 1 0 15 0 a7.5 7.5 0 1 0 -15 0zM80.38 3592.69 a7.5 7.5 0 1 0 15 0 a7.5 7.5 0 1 0 -15 0zM15.43 3555.19 a7.5 7.5 0 1 0 15 0 a7.5 7.5 0 1 0 -15 0zM210.29 517.69 a7.5 7.5 0 1 0 15 0 a7.5 7.5 0 1 0 -15 0zM275.25 555.19 a7.5 7.5 0 1 0 15 0 a7.5 7.5 0 1 0 -15 0zM275.25 630.19 a7.5 7.5 0 1 0 15 0 a7.5 7.5 0 1 0 -15 0zM210.29 667.69 a7.5 7.5 0 1 0 15 0 a7.5 7.5 0 1 0 -15 0zM145.34 630.19 a7.5 7.5 0 1 0 15 0 a7.5 7.5 0 1 0 -15 0zM145.34 555.19 a7.5 7.5 0 1 0 15 0 a7.5 7.5 0 1 0 -15 0zM210.29 742.69 a7.5 7.5 0 1 0 15 0 a7.5 7.5 0 1 0 -15 0zM145.34 780.19 a7.5 7.5 0 1 0 15 0 a7.5 7.5 0 1 0 -15 0zM275.25 780.19 a7.5 7.5 0 1 0 15 0 a7.5 7.5 0 1 0 -15 0zM275.25 855.19 a7.5 7.5 0 1 0 15 0 a7.5 7.5 0 1 0 -15 0zM210.29 892.69 a7.5 7.5 0 1 0 15 0 a7.5 7.5 0 1 0 -15 0zM145.34 855.19 a7.5 7.5 0 1 0 15 0 a7.5 7.5 0 1 0 -15 0zM210.29 1567.69 a7.5 7.5 0 1 0 15 0 a7.5 7.5 0 1 0 -15 0zM210.29 1642.69 a7.5 7.5 0 1 0 15 0 a7.5 7.5 0 1 0 -15 0zM145.34 1680.19 a7.5 7.5 0 1 0 15 0 a7.5 7.5 0 1 0 -15 0zM145.34 1980.19 a7.5 7.5 0 1 0 15 0 a7.5 7.5 0 1 0 -15 0zM210.29 2017.69 a7.5 7.5 0 1 0 15 0 a7.5 7.5 0 1 0 -15 0zM210.29 2092.69 a7.5 7.5 0 1 0 15 0 a7.5 7.5 0 1 0 -15 0zM210.29 2542.69 a7.5 7.5 0 1 0 15 0 a7.5 7.5 0 1 0 -15 0zM275.25 2580.19 a7.5 7.5 0 1 0 15 0 a7.5 7.5 0 1 0 -15 0zM275.25 2655.19 a7.5 7.5 0 1 0 15 0 a7.5 7.5 0 1 0 -15 0zM210.29 2692.69 a7.5 7.5 0 1 0 15 0 a7.5 7.5 0 1 0 -15 0zM145.34 2655.19 a7.5 7.5 0 1 0 15 0 a7.5 7.5 0 1 0 -15 0zM145.34 2580.19 a7.5 7.5 0 1 0 15 0 a7.5 7.5 0 1 0 -15 0zM210.29 2767.69 a7.5 7.5 0 1 0 15 0 a7.5 7.5 0 1 0 -15 0zM145.34 2805.19 a7.5 7.5 0 1 0 15 0 a7.5 7.5 0 1 0 -15 0zM80.38 2767.69 a7.5 7.5 0 1 0 15 0 a7.5 7.5 0 1 0 -15 0zM80.38 2692.69 a7.5 7.5 0 1 0 15 0 a7.5 7.5 0 1 0 -15 0zM145.34 3105.19 a7.5 7.5 0 1 0 15 0 a7.5 7.5 0 1 0 -15 0zM210.29 3142.69 a7.5 7.5 0 1 0 15 0 a7.5 7.5 0 1 0 -15 0zM210.29 3217.69 a7.5 7.5 0 1 0 15 0 a7.5 7.5 0 1 0 -15 0zM80.38 3142.69 a7.5 7.5 0 1 0 15 0 a7.5 7.5 0 1 0 -15 0zM210.29 3367.69 a7.5 7.5 0 1 0 15 0 a7.5 7.5 0 1 0 -15 0zM210.29 3442.69 a7.5 7.5 0 1 0 15 0 a7.5 7.5 0 1 0 -15 0zM340.2 67.69 a7.5 7.5 0 1 0 15 0 a7.5 7.5 0 1 0 -15 0zM405.15 105.19 a7.5 7.5 0 1 0 15 0 a7.5 7.5 0 1 0 -15 0zM405.15 180.19 a7.5 7.5 0 1 0 15 0 a7.5 7.5 0 1 0 -15 0zM340.2 217.69 a7.5 7.5 0 1 0 15 0 a7.5 7.5 0 1 0 -15 0zM275.25 180.19 a7.5 7.5 0 1 0 15 0 a7.5 7.5 0 1 0 -15 0zM275.25 105.19 a7.5 7.5 0 1 0 15 0 a7.5 7.5 0 1 0 -15 0zM275.25 405.19 a7.5 7.5 0 1 0 15 0 a7.5 7.5 0 1 0 -15 0zM340.2 442.69 a7.5 7.5 0 1 0 15 0 a7.5 7.5 0 1 0 -15 0zM340.2 517.69 a7.5 7.5 0 1 0 15 0 a7.5 7.5 0 1 0 -15 0zM210.29 442.69 a7.5 7.5 0 1 0 15 0 a7.5 7.5 0 1 0 -15 0zM340.2 1417.69 a7.5 7.5 0 1 0 15 0 a7.5 7.5 0 1 0 -15 0zM405.15 1455.19 a7.5 7.5 0 1 0 15 0 a7.5 7.5 0 1 0 -15 0zM405.15 1530.19 a7.5 7.5 0 1 0 15 0 a7.5 7.5 0 1 0 -15 0zM340.2 1567.69 a7.5 7.5 0 1 0 15 0 a7.5 7.5 0 1 0 -15 0zM275.25 1530.19 a7.5 7.5 0 1 0 15 0 a7.5 7.5 0 1 0 -15 0zM275.25 1455.19 a7.5 7.5 0 1 0 15 0 a7.5 7.5 0 1 0 -15 0zM340.2 2692.69 a7.5 7.5 0 1 0 15 0 a7.5 7.5 0 1 0 -15 0zM340.2 2767.69 a7.5 7.5 0 1 0 15 0 a7.5 7.5 0 1 0 -15 0zM275.25 2805.19 a7.5 7.5 0 1 0 15 0 a7.5 7.5 0 1 0 -15 0zM275.25 3330.19 a7.5 7.5 0 1 0 15 0 a7.5 7.5 0 1 0 -15 0zM340.2 3367.69 a7.5 7.5 0 1 0 15 0 a7.5 7.5 0 1 0 -15 0zM340.2 3442.69 a7.5 7.5 0 1 0 15 0 a7.5 7.5 0 1 0 -15 0zM275.25 3480.19 a7.5 7.5 0 1 0 15 0 a7.5 7.5 0 1 0 -15 0zM340.2 3667.69 a7.5 7.5 0 1 0 15 0 a7.5 7.5 0 1 0 -15 0zM405.15 3705.19 a7.5 7.5 0 1 0 15 0 a7.5 7.5 0 1 0 -15 0zM405.15 3780.19 a7.5 7.5 0 1 0 15 0 a7.5 7.5 0 1 0 -15 0zM340.2 3817.69 a7.5 7.5 0 1 0 15 0 a7.5 7.5 0 1 0 -15 0zM275.25 3780.19 a7.5 7.5 0 1 0 15 0 a7.5 7.5 0 1 0 -15 0zM275.25 3705.19 a7.5 7.5 0 1 0 15 0 a7.5 7.5 0 1 0 -15 0zM340.2 3892.69 a7.5 7.5 0 1 0 15 0 a7.5 7.5 0 1 0 -15 0zM405.15 3930.19 a7.5 7.5 0 1 0 15 0 a7.5 7.5 0 1 0 -15 0zM405.15 4005.19 a7.5 7.5 0 1 0 15 0 a7.5 7.5 0 1 0 -15 0zM340.2 4042.69 a7.5 7.5 0 1 0 15 0 a7.5 7.5 0 1 0 -15 0zM275.25 4005.19 a7.5 7.5 0 1 0 15 0 a7.5 7.5 0 1 0 -15 0zM275.25 3930.19 a7.5 7.5 0 1 0 15 0 a7.5 7.5 0 1 0 -15 0zM470.11 292.69 a7.5 7.5 0 1 0 15 0 a7.5 7.5 0 1 0 -15 0zM535.06 330.19 a7.5 7.5 0 1 0 15 0 a7.5 7.5 0 1 0 -15 0zM535.06 405.19 a7.5 7.5 0 1 0 15 0 a7.5 7.5 0 1 0 -15 0zM470.11 442.69 a7.5 7.5 0 1 0 15 0 a7.5 7.5 0 1 0 -15 0zM405.15 405.19 a7.5 7.5 0 1 0 15 0 a7.5 7.5 0 1 0 -15 0zM405.15 330.19 a7.5 7.5 0 1 0 15 0 a7.5 7.5 0 1 0 -15 0zM405.15 1080.19 a7.5 7.5 0 1 0 15 0 a7.5 7.5 0 1 0 -15 0zM470.11 1117.69 a7.5 7.5 0 1 0 15 0 a7.5 7.5 0 1 0 -15 0zM470.11 1192.69 a7.5 7.5 0 1 0 15 0 a7.5 7.5 0 1 0 -15 0zM405.15 1230.19 a7.5 7.5 0 1 0 15 0 a7.5 7.5 0 1 0 -15 0zM340.2 1192.69 a7.5 7.5 0 1 0 15 0 a7.5 7.5 0 1 0 -15 0zM340.2 1117.69 a7.5 7.5 0 1 0 15 0 a7.5 7.5 0 1 0 -15 0zM470.11 1642.69 a7.5 7.5 0 1 0 15 0 a7.5 7.5 0 1 0 -15 0zM535.06 1680.19 a7.5 7.5 0 1 0 15 0 a7.5 7.5 0 1 0 -15 0zM535.06 1755.19 a7.5 7.5 0 1 0 15 0 a7.5 7.5 0 1 0 -15 0zM470.11 1792.69 a7.5 7.5 0 1 0 15 0 a7.5 7.5 0 1 0 -15 0zM405.15 1755.19 a7.5 7.5 0 1 0 15 0 a7.5 7.5 0 1 0 -15 0zM405.15 1680.19 a7.5 7.5 0 1 0 15 0 a7.5 7.5 0 1 0 -15 0zM470.11 1867.69 a7.5 7.5 0 1 0 15 0 a7.5 7.5 0 1 0 -15 0zM405.15 1905.19 a7.5 7.5 0 1 0 15 0 a7.5 7.5 0 1 0 -15 0zM340.2 1867.69 a7.5 7.5 0 1 0 15 0 a7.5 7.5 0 1 0 -15 0zM340.2 1792.69 a7.5 7.5 0 1 0 15 0 a7.5 7.5 0 1 0 -15 0zM405.15 3330.19 a7.5 7.5 0 1 0 15 0 a7.5 7.5 0 1 0 -15 0zM470.11 3367.69 a7.5 7.5 0 1 0 15 0 a7.5 7.5 0 1 0 -15 0zM470.11 3442.69 a7.5 7.5 0 1 0 15 0 a7.5 7.5 0 1 0 -15 0zM405.15 3480.19 a7.5 7.5 0 1 0 15 0 a7.5 7.5 0 1 0 -15 0zM535.06 3480.19 a7.5 7.5 0 1 0 15 0 a7.5 7.5 0 1 0 -15 0zM535.06 3555.19 a7.5 7.5 0 1 0 15 0 a7.5 7.5 0 1 0 -15 0zM470.11 3592.69 a7.5 7.5 0 1 0 15 0 a7.5 7.5 0 1 0 -15 0zM405.15 3555.19 a7.5 7.5 0 1 0 15 0 a7.5 7.5 0 1 0 -15 0zM470.11 3817.69 a7.5 7.5 0 1 0 15 0 a7.5 7.5 0 1 0 -15 0zM470.11 3892.69 a7.5 7.5 0 1 0 15 0 a7.5 7.5 0 1 0 -15 0zM600.01 442.69 a7.5 7.5 0 1 0 15 0 a7.5 7.5 0 1 0 -15 0zM600.01 517.69 a7.5 7.5 0 1 0 15 0 a7.5 7.5 0 1 0 -15 0zM535.06 555.19 a7.5 7.5 0 1 0 15 0 a7.5 7.5 0 1 0 -15 0zM470.11 517.69 a7.5 7.5 0 1 0 15 0 a7.5 7.5 0 1 0 -15 0zM600.01 742.69 a7.5 7.5 0 1 0 15 0 a7.5 7.5 0 1 0 -15 0zM664.97 780.19 a7.5 7.5 0 1 0 15 0 a7.5 7.5 0 1 0 -15 0zM664.97 855.19 a7.5 7.5 0 1 0 15 0 a7.5 7.5 0 1 0 -15 0zM600.01 892.69 a7.5 7.5 0 1 0 15 0 a7.5 7.5 0 1 0 -15 0zM535.06 855.19 a7.5 7.5 0 1 0 15 0 a7.5 7.5 0 1 0 -15 0zM535.06 780.19 a7.5 7.5 0 1 0 15 0 a7.5 7.5 0 1 0 -15 0zM535.06 1530.19 a7.5 7.5 0 1 0 15 0 a7.5 7.5 0 1 0 -15 0zM600.01 1567.69 a7.5 7.5 0 1 0 15 0 a7.5 7.5 0 1 0 -15 0zM600.01 1642.69 a7.5 7.5 0 1 0 15 0 a7.5 7.5 0 1 0 -15 0zM470.11 1567.69 a7.5 7.5 0 1 0 15 0 a7.5 7.5 0 1 0 -15 0zM600.01 2092.69 a7.5 7.5 0 1 0 15 0 a7.5 7.5 0 1 0 -15 0zM664.97 2130.19 a7.5 7.5 0 1 0 15 0 a7.5 7.5 0 1 0 -15 0zM664.97 2205.19 a7.5 7.5 0 1 0 15 0 a7.5 7.5 0 1 0 -15 0zM600.01 2242.69 a7.5 7.5 0 1 0 15 0 a7.5 7.5 0 1 0 -15 0zM535.06 2205.19 a7.5 7.5 0 1 0 15 0 a7.5 7.5 0 1 0 -15 0zM535.06 2130.19 a7.5 7.5 0 1 0 15 0 a7.5 7.5 0 1 0 -15 0zM535.06 2430.19 a7.5 7.5 0 1 0 15 0 a7.5 7.5 0 1 0 -15 0zM600.01 2467.69 a7.5 7.5 0 1 0 15 0 a7.5 7.5 0 1 0 -15 0zM600.01 2542.69 a7.5 7.5 0 1 0 15 0 a7.5 7.5 0 1 0 -15 0zM535.06 2580.19 a7.5 7.5 0 1 0 15 0 a7.5 7.5 0 1 0 -15 0zM470.11 2542.69 a7.5 7.5 0 1 0 15 0 a7.5 7.5 0 1 0 -15 0zM470.11 2467.69 a7.5 7.5 0 1 0 15 0 a7.5 7.5 0 1 0 -15 0zM535.06 2655.19 a7.5 7.5 0 1 0 15 0 a7.5 7.5 0 1 0 -15 0zM600.01 2692.69 a7.5 7.5 0 1 0 15 0 a7.5 7.5 0 1 0 -15 0zM600.01 2767.69 a7.5 7.5 0 1 0 15 0 a7.5 7.5 0 1 0 -15 0zM535.06 2805.19 a7.5 7.5 0 1 0 15 0 a7.5 7.5 0 1 0 -15 0zM470.11 2767.69 a7.5 7.5 0 1 0 15 0 a7.5 7.5 0 1 0 -15 0zM470.11 2692.69 a7.5 7.5 0 1 0 15 0 a7.5 7.5 0 1 0 -15 0zM600.01 3667.69 a7.5 7.5 0 1 0 15 0 a7.5 7.5 0 1 0 -15 0zM664.97 3705.19 a7.5 7.5 0 1 0 15 0 a7.5 7.5 0 1 0 -15 0zM664.97 3780.19 a7.5 7.5 0 1 0 15 0 a7.5 7.5 0 1 0 -15 0zM600.01 3817.69 a7.5 7.5 0 1 0 15 0 a7.5 7.5 0 1 0 -15 0zM535.06 3780.19 a7.5 7.5 0 1 0 15 0 a7.5 7.5 0 1 0 -15 0zM535.06 3705.19 a7.5 7.5 0 1 0 15 0 a7.5 7.5 0 1 0 -15 0zM729.92 67.69 a7.5 7.5 0 1 0 15 0 a7.5 7.5 0 1 0 -15 0zM794.88 105.19 a7.5 7.5 0 1 0 15 0 a7.5 7.5 0 1 0 -15 0zM794.88 180.19 a7.5 7.5 0 1 0 15 0 a7.5 7.5 0 1 0 -15 0zM729.92 217.69 a7.5 7.5 0 1 0 15 0 a7.5 7.5 0 1 0 -15 0zM664.97 180.19 a7.5 7.5 0 1 0 15 0 a7.5 7.5 0 1 0 -15 0zM664.97 105.19 a7.5 7.5 0 1 0 15 0 a7.5 7.5 0 1 0 -15 0zM729.92 292.69 a7.5 7.5 0 1 0 15 0 a7.5 7.5 0 1 0 -15 0zM794.88 330.19 a7.5 7.5 0 1 0 15 0 a7.5 7.5 0 1 0 -15 0zM794.88 405.19 a7.5 7.5 0 1 0 15 0 a7.5 7.5 0 1 0 -15 0zM729.92 442.69 a7.5 7.5 0 1 0 15 0 a7.5 7.5 0 1 0 -15 0zM664.97 405.19 a7.5 7.5 0 1 0 15 0 a7.5 7.5 0 1 0 -15 0zM664.97 330.19 a7.5 7.5 0 1 0 15 0 a7.5 7.5 0 1 0 -15 0zM729.92 517.69 a7.5 7.5 0 1 0 15 0 a7.5 7.5 0 1 0 -15 0zM664.97 555.19 a7.5 7.5 0 1 0 15 0 a7.5 7.5 0 1 0 -15 0zM729.92 1192.69 a7.5 7.5 0 1 0 15 0 a7.5 7.5 0 1 0 -15 0zM794.88 1230.19 a7.5 7.5 0 1 0 15 0 a7.5 7.5 0 1 0 -15 0zM794.88 1305.19 a7.5 7.5 0 1 0 15 0 a7.5 7.5 0 1 0 -15 0zM729.92 1342.69 a7.5 7.5 0 1 0 15 0 a7.5 7.5 0 1 0 -15 0zM664.97 1305.19 a7.5 7.5 0 1 0 15 0 a7.5 7.5 0 1 0 -15 0zM664.97 1230.19 a7.5 7.5 0 1 0 15 0 a7.5 7.5 0 1 0 -15 0zM664.97 1980.19 a7.5 7.5 0 1 0 15 0 a7.5 7.5 0 1 0 -15 0zM729.92 2017.69 a7.5 7.5 0 1 0 15 0 a7.5 7.5 0 1 0 -15 0zM729.92 2092.69 a7.5 7.5 0 1 0 15 0 a7.5 7.5 0 1 0 -15 0zM600.01 2017.69 a7.5 7.5 0 1 0 15 0 a7.5 7.5 0 1 0 -15 0zM664.97 2655.19 a7.5 7.5 0 1 0 15 0 a7.5 7.5 0 1 0 -15 0zM729.92 2692.69 a7.5 7.5 0 1 0 15 0 a7.5 7.5 0 1 0 -15 0zM729.92 2767.69 a7.5 7.5 0 1 0 15 0 a7.5 7.5 0 1 0 -15 0zM664.97 2805.19 a7.5 7.5 0 1 0 15 0 a7.5 7.5 0 1 0 -15 0zM664.97 2880.19 a7.5 7.5 0 1 0 15 0 a7.5 7.5 0 1 0 -15 0zM729.92 2917.69 a7.5 7.5 0 1 0 15 0 a7.5 7.5 0 1 0 -15 0zM729.92 2992.69 a7.5 7.5 0 1 0 15 0 a7.5 7.5 0 1 0 -15 0zM664.97 3030.19 a7.5 7.5 0 1 0 15 0 a7.5 7.5 0 1 0 -15 0zM600.01 2992.69 a7.5 7.5 0 1 0 15 0 a7.5 7.5 0 1 0 -15 0zM600.01 2917.69 a7.5 7.5 0 1 0 15 0 a7.5 7.5 0 1 0 -15 0zM794.88 3030.19 a7.5 7.5 0 1 0 15 0 a7.5 7.5 0 1 0 -15 0zM794.88 3105.19 a7.5 7.5 0 1 0 15 0 a7.5 7.5 0 1 0 -15 0zM729.92 3142.69 a7.5 7.5 0 1 0 15 0 a7.5 7.5 0 1 0 -15 0zM664.97 3105.19 a7.5 7.5 0 1 0 15 0 a7.5 7.5 0 1 0 -15 0zM729.92 3217.69 a7.5 7.5 0 1 0 15 0 a7.5 7.5 0 1 0 -15 0zM794.88 3255.19 a7.5 7.5 0 1 0 15 0 a7.5 7.5 0 1 0 -15 0zM794.88 3330.19 a7.5 7.5 0 1 0 15 0 a7.5 7.5 0 1 0 -15 0zM729.92 3367.69 a7.5 7.5 0 1 0 15 0 a7.5 7.5 0 1 0 -15 0zM664.97 3330.19 a7.5 7.5 0 1 0 15 0 a7.5 7.5 0 1 0 -15 0zM664.97 3255.19 a7.5 7.5 0 1 0 15 0 a7.5 7.5 0 1 0 -15 0zM729.92 3442.69 a7.5 7.5 0 1 0 15 0 a7.5 7.5 0 1 0 -15 0zM664.97 3480.19 a7.5 7.5 0 1 0 15 0 a7.5 7.5 0 1 0 -15 0zM600.01 3442.69 a7.5 7.5 0 1 0 15 0 a7.5 7.5 0 1 0 -15 0zM600.01 3367.69 a7.5 7.5 0 1 0 15 0 a7.5 7.5 0 1 0 -15 0zM729.92 3817.69 a7.5 7.5 0 1 0 15 0 a7.5 7.5 0 1 0 -15 0zM729.92 3892.69 a7.5 7.5 0 1 0 15 0 a7.5 7.5 0 1 0 -15 0zM664.97 3930.19 a7.5 7.5 0 1 0 15 0 a7.5 7.5 0 1 0 -15 0zM600.01 3892.69 a7.5 7.5 0 1 0 15 0 a7.5 7.5 0 1 0 -15 0zM794.87 -44.81 a7.5 7.5 0 1 0 15 0 a7.5 7.5 0 1 0 -15 0zM859.83 -7.31 a7.5 7.5 0 1 0 15 0 a7.5 7.5 0 1 0 -15 0zM859.83 67.69 a7.5 7.5 0 1 0 15 0 a7.5 7.5 0 1 0 -15 0zM794.87 105.19 a7.5 7.5 0 1 0 15 0 a7.5 7.5 0 1 0 -15 0zM729.92 -7.31 a7.5 7.5 0 1 0 15 0 a7.5 7.5 0 1 0 -15 0zM794.87 180.19 a7.5 7.5 0 1 0 15 0 a7.5 7.5 0 1 0 -15 0zM859.83 217.69 a7.5 7.5 0 1 0 15 0 a7.5 7.5 0 1 0 -15 0zM859.83 292.69 a7.5 7.5 0 1 0 15 0 a7.5 7.5 0 1 0 -15 0zM794.87 330.19 a7.5 7.5 0 1 0 15 0 a7.5 7.5 0 1 0 -15 0zM924.78 330.19 a7.5 7.5 0 1 0 15 0 a7.5 7.5 0 1 0 -15 0zM924.78 405.19 a7.5 7.5 0 1 0 15 0 a7.5 7.5 0 1 0 -15 0zM859.83 442.69 a7.5 7.5 0 1 0 15 0 a7.5 7.5 0 1 0 -15 0zM794.87 405.19 a7.5 7.5 0 1 0 15 0 a7.5 7.5 0 1 0 -15 0zM859.83 517.69 a7.5 7.5 0 1 0 15 0 a7.5 7.5 0 1 0 -15 0zM924.78 555.19 a7.5 7.5 0 1 0 15 0 a7.5 7.5 0 1 0 -15 0zM924.78 630.19 a7.5 7.5 0 1 0 15 0 a7.5 7.5 0 1 0 -15 0zM859.83 667.69 a7.5 7.5 0 1 0 15 0 a7.5 7.5 0 1 0 -15 0zM794.87 630.19 a7.5 7.5 0 1 0 15 0 a7.5 7.5 0 1 0 -15 0zM794.87 555.19 a7.5 7.5 0 1 0 15 0 a7.5 7.5 0 1 0 -15 0zM794.87 1080.19 a7.5 7.5 0 1 0 15 0 a7.5 7.5 0 1 0 -15 0zM859.83 1117.69 a7.5 7.5 0 1 0 15 0 a7.5 7.5 0 1 0 -15 0zM859.83 1192.69 a7.5 7.5 0 1 0 15 0 a7.5 7.5 0 1 0 -15 0zM794.87 1230.19 a7.5 7.5 0 1 0 15 0 a7.5 7.5 0 1 0 -15 0zM729.92 1117.69 a7.5 7.5 0 1 0 15 0 a7.5 7.5 0 1 0 -15 0zM859.83 1417.69 a7.5 7.5 0 1 0 15 0 a7.5 7.5 0 1 0 -15 0zM924.78 1455.19 a7.5 7.5 0 1 0 15 0 a7.5 7.5 0 1 0 -15 0zM924.78 1530.19 a7.5 7.5 0 1 0 15 0 a7.5 7.5 0 1 0 -15 0zM859.83 1567.69 a7.5 7.5 0 1 0 15 0 a7.5 7.5 0 1 0 -15 0zM794.87 1530.19 a7.5 7.5 0 1 0 15 0 a7.5 7.5 0 1 0 -15 0zM794.87 1455.19 a7.5 7.5 0 1 0 15 0 a7.5 7.5 0 1 0 -15 0zM859.83 1642.69 a7.5 7.5 0 1 0 15 0 a7.5 7.5 0 1 0 -15 0zM794.87 1680.19 a7.5 7.5 0 1 0 15 0 a7.5 7.5 0 1 0 -15 0zM729.92 1642.69 a7.5 7.5 0 1 0 15 0 a7.5 7.5 0 1 0 -15 0zM729.92 1567.69 a7.5 7.5 0 1 0 15 0 a7.5 7.5 0 1 0 -15 0zM859.83 2317.69 a7.5 7.5 0 1 0 15 0 a7.5 7.5 0 1 0 -15 0zM924.78 2355.19 a7.5 7.5 0 1 0 15 0 a7.5 7.5 0 1 0 -15 0zM924.78 2430.19 a7.5 7.5 0 1 0 15 0 a7.5 7.5 0 1 0 -15 0zM859.83 2467.69 a7.5 7.5 0 1 0 15 0 a7.5 7.5 0 1 0 -15 0zM794.87 2430.19 a7.5 7.5 0 1 0 15 0 a7.5 7.5 0 1 0 -15 0zM794.87 2355.19 a7.5 7.5 0 1 0 15 0 a7.5 7.5 0 1 0 -15 0zM859.83 2767.69 a7.5 7.5 0 1 0 15 0 a7.5 7.5 0 1 0 -15 0zM924.78 2805.19 a7.5 7.5 0 1 0 15 0 a7.5 7.5 0 1 0 -15 0zM924.78 2880.19 a7.5 7.5 0 1 0 15 0 a7.5 7.5 0 1 0 -15 0zM859.83 2917.69 a7.5 7.5 0 1 0 15 0 a7.5 7.5 0 1 0 -15 0zM794.87 2880.19 a7.5 7.5 0 1 0 15 0 a7.5 7.5 0 1 0 -15 0zM794.87 2805.19 a7.5 7.5 0 1 0 15 0 a7.5 7.5 0 1 0 -15 0zM859.83 2992.69 a7.5 7.5 0 1 0 15 0 a7.5 7.5 0 1 0 -15 0zM794.87 3030.19 a7.5 7.5 0 1 0 15 0 a7.5 7.5 0 1 0 -15 0zM794.87 3105.19 a7.5 7.5 0 1 0 15 0 a7.5 7.5 0 1 0 -15 0zM859.83 3142.69 a7.5 7.5 0 1 0 15 0 a7.5 7.5 0 1 0 -15 0zM859.83 3217.69 a7.5 7.5 0 1 0 15 0 a7.5 7.5 0 1 0 -15 0zM794.87 3255.19 a7.5 7.5 0 1 0 15 0 a7.5 7.5 0 1 0 -15 0zM924.78 3255.19 a7.5 7.5 0 1 0 15 0 a7.5 7.5 0 1 0 -15 0zM924.78 3330.19 a7.5 7.5 0 1 0 15 0 a7.5 7.5 0 1 0 -15 0zM859.83 3367.69 a7.5 7.5 0 1 0 15 0 a7.5 7.5 0 1 0 -15 0zM794.87 3330.19 a7.5 7.5 0 1 0 15 0 a7.5 7.5 0 1 0 -15 0zM859.83 3667.69 a7.5 7.5 0 1 0 15 0 a7.5 7.5 0 1 0 -15 0zM924.78 3705.19 a7.5 7.5 0 1 0 15 0 a7.5 7.5 0 1 0 -15 0zM924.78 3780.19 a7.5 7.5 0 1 0 15 0 a7.5 7.5 0 1 0 -15 0zM859.83 3817.69 a7.5 7.5 0 1 0 15 0 a7.5 7.5 0 1 0 -15 0zM794.87 3780.19 a7.5 7.5 0 1 0 15 0 a7.5 7.5 0 1 0 -15 0zM794.87 3705.19 a7.5 7.5 0 1 0 15 0 a7.5 7.5 0 1 0 -15 0zM989.74 67.69 a7.5 7.5 0 1 0 15 0 a7.5 7.5 0 1 0 -15 0zM1054.69 105.19 a7.5 7.5 0 1 0 15 0 a7.5 7.5 0 1 0 -15 0zM1054.69 180.19 a7.5 7.5 0 1 0 15 0 a7.5 7.5 0 1 0 -15 0zM989.74 217.69 a7.5 7.5 0 1 0 15 0 a7.5 7.5 0 1 0 -15 0zM924.78 180.19 a7.5 7.5 0 1 0 15 0 a7.5 7.5 0 1 0 -15 0zM924.78 105.19 a7.5 7.5 0 1 0 15 0 a7.5 7.5 0 1 0 -15 0zM989.74 292.69 a7.5 7.5 0 1 0 15 0 a7.5 7.5 0 1 0 -15 0zM989.74 442.69 a7.5 7.5 0 1 0 15 0 a7.5 7.5 0 1 0 -15 0zM989.74 517.69 a7.5 7.5 0 1 0 15 0 a7.5 7.5 0 1 0 -15 0zM989.74 967.69 a7.5 7.5 0 1 0 15 0 a7.5 7.5 0 1 0 -15 0zM1054.69 1005.19 a7.5 7.5 0 1 0 15 0 a7.5 7.5 0 1 0 -15 0zM1054.69 1080.19 a7.5 7.5 0 1 0 15 0 a7.5 7.5 0 1 0 -15 0zM989.74 1117.69 a7.5 7.5 0 1 0 15 0 a7.5 7.5 0 1 0 -15 0zM924.78 1080.19 a7.5 7.5 0 1 0 15 0 a7.5 7.5 0 1 0 -15 0zM924.78 1005.19 a7.5 7.5 0 1 0 15 0 a7.5 7.5 0 1 0 -15 0zM924.78 1305.19 a7.5 7.5 0 1 0 15 0 a7.5 7.5 0 1 0 -15 0zM989.74 1342.69 a7.5 7.5 0 1 0 15 0 a7.5 7.5 0 1 0 -15 0zM989.74 1417.69 a7.5 7.5 0 1 0 15 0 a7.5 7.5 0 1 0 -15 0zM859.83 1342.69 a7.5 7.5 0 1 0 15 0 a7.5 7.5 0 1 0 -15 0zM989.74 1567.69 a7.5 7.5 0 1 0 15 0 a7.5 7.5 0 1 0 -15 0zM989.74 1642.69 a7.5 7.5 0 1 0 15 0 a7.5 7.5 0 1 0 -15 0zM924.78 1680.19 a7.5 7.5 0 1 0 15 0 a7.5 7.5 0 1 0 -15 0zM924.78 2205.19 a7.5 7.5 0 1 0 15 0 a7.5 7.5 0 1 0 -15 0zM989.74 2242.69 a7.5 7.5 0 1 0 15 0 a7.5 7.5 0 1 0 -15 0zM989.74 2317.69 a7.5 7.5 0 1 0 15 0 a7.5 7.5 0 1 0 -15 0zM859.83 2242.69 a7.5 7.5 0 1 0 15 0 a7.5 7.5 0 1 0 -15 0zM924.78 3105.19 a7.5 7.5 0 1 0 15 0 a7.5 7.5 0 1 0 -15 0zM989.74 3142.69 a7.5 7.5 0 1 0 15 0 a7.5 7.5 0 1 0 -15 0zM989.74 3217.69 a7.5 7.5 0 1 0 15 0 a7.5 7.5 0 1 0 -15 0zM989.74 3442.69 a7.5 7.5 0 1 0 15 0 a7.5 7.5 0 1 0 -15 0zM1054.69 3480.19 a7.5 7.5 0 1 0 15 0 a7.5 7.5 0 1 0 -15 0zM1054.69 3555.19 a7.5 7.5 0 1 0 15 0 a7.5 7.5 0 1 0 -15 0zM989.74 3592.69 a7.5 7.5 0 1 0 15 0 a7.5 7.5 0 1 0 -15 0zM924.78 3555.19 a7.5 7.5 0 1 0 15 0 a7.5 7.5 0 1 0 -15 0zM924.78 3480.19 a7.5 7.5 0 1 0 15 0 a7.5 7.5 0 1 0 -15 0zM924.78 4005.19 a7.5 7.5 0 1 0 15 0 a7.5 7.5 0 1 0 -15 0zM989.74 4042.69 a7.5 7.5 0 1 0 15 0 a7.5 7.5 0 1 0 -15 0zM989.74 4117.69 a7.5 7.5 0 1 0 15 0 a7.5 7.5 0 1 0 -15 0zM924.78 4155.19 a7.5 7.5 0 1 0 15 0 a7.5 7.5 0 1 0 -15 0zM859.83 4117.69 a7.5 7.5 0 1 0 15 0 a7.5 7.5 0 1 0 -15 0zM859.83 4042.69 a7.5 7.5 0 1 0 15 0 a7.5 7.5 0 1 0 -15 0zM1119.64 217.69 a7.5 7.5 0 1 0 15 0 a7.5 7.5 0 1 0 -15 0zM1119.64 292.69 a7.5 7.5 0 1 0 15 0 a7.5 7.5 0 1 0 -15 0zM1054.69 330.19 a7.5 7.5 0 1 0 15 0 a7.5 7.5 0 1 0 -15 0zM1119.64 517.69 a7.5 7.5 0 1 0 15 0 a7.5 7.5 0 1 0 -15 0zM1184.6 555.19 a7.5 7.5 0 1 0 15 0 a7.5 7.5 0 1 0 -15 0zM1184.6 630.19 a7.5 7.5 0 1 0 15 0 a7.5 7.5 0 1 0 -15 0zM1119.64 667.69 a7.5 7.5 0 1 0 15 0 a7.5 7.5 0 1 0 -15 0zM1054.69 630.19 a7.5 7.5 0 1 0 15 0 a7.5 7.5 0 1 0 -15 0zM1054.69 555.19 a7.5 7.5 0 1 0 15 0 a7.5 7.5 0 1 0 -15 0zM1119.64 742.69 a7.5 7.5 0 1 0 15 0 a7.5 7.5 0 1 0 -15 0zM1054.69 780.19 a7.5 7.5 0 1 0 15 0 a7.5 7.5 0 1 0 -15 0zM989.74 742.69 a7.5 7.5 0 1 0 15 0 a7.5 7.5 0 1 0 -15 0zM989.74 667.69 a7.5 7.5 0 1 0 15 0 a7.5 7.5 0 1 0 -15 0zM1054.69 855.19 a7.5 7.5 0 1 0 15 0 a7.5 7.5 0 1 0 -15 0zM1119.64 892.69 a7.5 7.5 0 1 0 15 0 a7.5 7.5 0 1 0 -15 0zM1119.64 967.69 a7.5 7.5 0 1 0 15 0 a7.5 7.5 0 1 0 -15 0zM989.74 892.69 a7.5 7.5 0 1 0 15 0 a7.5 7.5 0 1 0 -15 0zM1184.6 1005.19 a7.5 7.5 0 1 0 15 0 a7.5 7.5 0 1 0 -15 0zM1184.6 1080.19 a7.5 7.5 0 1 0 15 0 a7.5 7.5 0 1 0 -15 0zM1119.64 1117.69 a7.5 7.5 0 1 0 15 0 a7.5 7.5 0 1 0 -15 0zM1119.64 1192.69 a7.5 7.5 0 1 0 15 0 a7.5 7.5 0 1 0 -15 0zM1054.69 1230.19 a7.5 7.5 0 1 0 15 0 a7.5 7.5 0 1 0 -15 0zM989.74 1192.69 a7.5 7.5 0 1 0 15 0 a7.5 7.5 0 1 0 -15 0zM1054.69 1530.19 a7.5 7.5 0 1 0 15 0 a7.5 7.5 0 1 0 -15 0zM1119.64 1567.69 a7.5 7.5 0 1 0 15 0 a7.5 7.5 0 1 0 -15 0zM1119.64 1642.69 a7.5 7.5 0 1 0 15 0 a7.5 7.5 0 1 0 -15 0zM1054.69 1680.19 a7.5 7.5 0 1 0 15 0 a7.5 7.5 0 1 0 -15 0zM1119.64 2092.69 a7.5 7.5 0 1 0 15 0 a7.5 7.5 0 1 0 -15 0zM1184.6 2130.19 a7.5 7.5 0 1 0 15 0 a7.5 7.5 0 1 0 -15 0zM1184.6 2205.19 a7.5 7.5 0 1 0 15 0 a7.5 7.5 0 1 0 -15 0zM1119.64 2242.69 a7.5 7.5 0 1 0 15 0 a7.5 7.5 0 1 0 -15 0zM1054.69 2205.19 a7.5 7.5 0 1 0 15 0 a7.5 7.5 0 1 0 -15 0zM1054.69 2130.19 a7.5 7.5 0 1 0 15 0 a7.5 7.5 0 1 0 -15 0zM1119.64 2317.69 a7.5 7.5 0 1 0 15 0 a7.5 7.5 0 1 0 -15 0zM1054.69 2355.19 a7.5 7.5 0 1 0 15 0 a7.5 7.5 0 1 0 -15 0zM1054.69 2430.19 a7.5 7.5 0 1 0 15 0 a7.5 7.5 0 1 0 -15 0zM1119.64 2467.69 a7.5 7.5 0 1 0 15 0 a7.5 7.5 0 1 0 -15 0zM1119.64 2542.69 a7.5 7.5 0 1 0 15 0 a7.5 7.5 0 1 0 -15 0zM1054.69 2580.19 a7.5 7.5 0 1 0 15 0 a7.5 7.5 0 1 0 -15 0zM989.74 2542.69 a7.5 7.5 0 1 0 15 0 a7.5 7.5 0 1 0 -15 0zM989.74 2467.69 a7.5 7.5 0 1 0 15 0 a7.5 7.5 0 1 0 -15 0zM1054.69 2655.19 a7.5 7.5 0 1 0 15 0 a7.5 7.5 0 1 0 -15 0zM1119.64 2692.69 a7.5 7.5 0 1 0 15 0 a7.5 7.5 0 1 0 -15 0zM1119.64 2767.69 a7.5 7.5 0 1 0 15 0 a7.5 7.5 0 1 0 -15 0zM1054.69 2805.19 a7.5 7.5 0 1 0 15 0 a7.5 7.5 0 1 0 -15 0zM989.74 2767.69 a7.5 7.5 0 1 0 15 0 a7.5 7.5 0 1 0 -15 0zM989.74 2692.69 a7.5 7.5 0 1 0 15 0 a7.5 7.5 0 1 0 -15 0zM1184.6 2805.19 a7.5 7.5 0 1 0 15 0 a7.5 7.5 0 1 0 -15 0zM1184.6 2880.19 a7.5 7.5 0 1 0 15 0 a7.5 7.5 0 1 0 -15 0zM1119.64 2917.69 a7.5 7.5 0 1 0 15 0 a7.5 7.5 0 1 0 -15 0zM1054.69 2880.19 a7.5 7.5 0 1 0 15 0 a7.5 7.5 0 1 0 -15 0zM1119.64 3592.69 a7.5 7.5 0 1 0 15 0 a7.5 7.5 0 1 0 -15 0zM1119.64 3667.69 a7.5 7.5 0 1 0 15 0 a7.5 7.5 0 1 0 -15 0zM1054.69 3705.19 a7.5 7.5 0 1 0 15 0 a7.5 7.5 0 1 0 -15 0zM989.74 3667.69 a7.5 7.5 0 1 0 15 0 a7.5 7.5 0 1 0 -15 0zM1184.6 3705.19 a7.5 7.5 0 1 0 15 0 a7.5 7.5 0 1 0 -15 0zM1184.6 3780.19 a7.5 7.5 0 1 0 15 0 a7.5 7.5 0 1 0 -15 0zM1119.64 3817.69 a7.5 7.5 0 1 0 15 0 a7.5 7.5 0 1 0 -15 0zM1054.69 3780.19 a7.5 7.5 0 1 0 15 0 a7.5 7.5 0 1 0 -15 0zM1054.69 4005.19 a7.5 7.5 0 1 0 15 0 a7.5 7.5 0 1 0 -15 0zM1119.64 4042.69 a7.5 7.5 0 1 0 15 0 a7.5 7.5 0 1 0 -15 0zM1119.64 4117.69 a7.5 7.5 0 1 0 15 0 a7.5 7.5 0 1 0 -15 0zM1054.69 4155.19 a7.5 7.5 0 1 0 15 0 a7.5 7.5 0 1 0 -15 0zM1184.6 180.19 a7.5 7.5 0 1 0 15 0 a7.5 7.5 0 1 0 -15 0zM1249.55 217.69 a7.5 7.5 0 1 0 15 0 a7.5 7.5 0 1 0 -15 0zM1249.55 292.69 a7.5 7.5 0 1 0 15 0 a7.5 7.5 0 1 0 -15 0zM1184.6 330.19 a7.5 7.5 0 1 0 15 0 a7.5 7.5 0 1 0 -15 0zM1184.6 855.19 a7.5 7.5 0 1 0 15 0 a7.5 7.5 0 1 0 -15 0zM1249.55 892.69 a7.5 7.5 0 1 0 15 0 a7.5 7.5 0 1 0 -15 0zM1249.55 967.69 a7.5 7.5 0 1 0 15 0 a7.5 7.5 0 1 0 -15 0zM1249.55 1642.69 a7.5 7.5 0 1 0 15 0 a7.5 7.5 0 1 0 -15 0zM1314.5 1680.19 a7.5 7.5 0 1 0 15 0 a7.5 7.5 0 1 0 -15 0zM1314.5 1755.19 a7.5 7.5 0 1 0 15 0 a7.5 7.5 0 1 0 -15 0zM1249.55 1792.69 a7.5 7.5 0 1 0 15 0 a7.5 7.5 0 1 0 -15 0zM1184.6 1755.19 a7.5 7.5 0 1 0 15 0 a7.5 7.5 0 1 0 -15 0zM1184.6 1680.19 a7.5 7.5 0 1 0 15 0 a7.5 7.5 0 1 0 -15 0zM1184.6 1980.19 a7.5 7.5 0 1 0 15 0 a7.5 7.5 0 1 0 -15 0zM1249.55 2017.69 a7.5 7.5 0 1 0 15 0 a7.5 7.5 0 1 0 -15 0zM1249.55 2092.69 a7.5 7.5 0 1 0 15 0 a7.5 7.5 0 1 0 -15 0zM1119.64 2017.69 a7.5 7.5 0 1 0 15 0 a7.5 7.5 0 1 0 -15 0zM1249.55 2317.69 a7.5 7.5 0 1 0 15 0 a7.5 7.5 0 1 0 -15 0zM1314.5 2355.19 a7.5 7.5 0 1 0 15 0 a7.5 7.5 0 1 0 -15 0zM1314.5 2430.19 a7.5 7.5 0 1 0 15 0 a7.5 7.5 0 1 0 -15 0zM1249.55 2467.69 a7.5 7.5 0 1 0 15 0 a7.5 7.5 0 1 0 -15 0zM1184.6 2430.19 a7.5 7.5 0 1 0 15 0 a7.5 7.5 0 1 0 -15 0zM1184.6 2355.19 a7.5 7.5 0 1 0 15 0 a7.5 7.5 0 1 0 -15 0zM1249.55 2542.69 a7.5 7.5 0 1 0 15 0 a7.5 7.5 0 1 0 -15 0zM1184.6 2580.19 a7.5 7.5 0 1 0 15 0 a7.5 7.5 0 1 0 -15 0zM1184.6 3105.19 a7.5 7.5 0 1 0 15 0 a7.5 7.5 0 1 0 -15 0zM1249.55 3142.69 a7.5 7.5 0 1 0 15 0 a7.5 7.5 0 1 0 -15 0zM1249.55 3217.69 a7.5 7.5 0 1 0 15 0 a7.5 7.5 0 1 0 -15 0zM1184.6 3255.19 a7.5 7.5 0 1 0 15 0 a7.5 7.5 0 1 0 -15 0zM1119.64 3217.69 a7.5 7.5 0 1 0 15 0 a7.5 7.5 0 1 0 -15 0zM1119.64 3142.69 a7.5 7.5 0 1 0 15 0 a7.5 7.5 0 1 0 -15 0zM1184.6 3330.19 a7.5 7.5 0 1 0 15 0 a7.5 7.5 0 1 0 -15 0zM1249.55 3367.69 a7.5 7.5 0 1 0 15 0 a7.5 7.5 0 1 0 -15 0zM1249.55 3442.69 a7.5 7.5 0 1 0 15 0 a7.5 7.5 0 1 0 -15 0zM1184.6 3480.19 a7.5 7.5 0 1 0 15 0 a7.5 7.5 0 1 0 -15 0zM1119.64 3442.69 a7.5 7.5 0 1 0 15 0 a7.5 7.5 0 1 0 -15 0zM1119.64 3367.69 a7.5 7.5 0 1 0 15 0 a7.5 7.5 0 1 0 -15 0zM1314.5 3480.19 a7.5 7.5 0 1 0 15 0 a7.5 7.5 0 1 0 -15 0zM1314.5 3555.19 a7.5 7.5 0 1 0 15 0 a7.5 7.5 0 1 0 -15 0zM1249.55 3592.69 a7.5 7.5 0 1 0 15 0 a7.5 7.5 0 1 0 -15 0zM1184.6 3555.19 a7.5 7.5 0 1 0 15 0 a7.5 7.5 0 1 0 -15 0zM1249.55 3667.69 a7.5 7.5 0 1 0 15 0 a7.5 7.5 0 1 0 -15 0zM1314.5 3705.19 a7.5 7.5 0 1 0 15 0 a7.5 7.5 0 1 0 -15 0zM1314.5 3780.19 a7.5 7.5 0 1 0 15 0 a7.5 7.5 0 1 0 -15 0zM1249.55 3817.69 a7.5 7.5 0 1 0 15 0 a7.5 7.5 0 1 0 -15 0zM1249.55 3892.69 a7.5 7.5 0 1 0 15 0 a7.5 7.5 0 1 0 -15 0zM1184.6 3930.19 a7.5 7.5 0 1 0 15 0 a7.5 7.5 0 1 0 -15 0zM1119.64 3892.69 a7.5 7.5 0 1 0 15 0 a7.5 7.5 0 1 0 -15 0zM1314.51 -44.81 a7.5 7.5 0 1 0 15 0 a7.5 7.5 0 1 0 -15 0zM1379.46 -7.31 a7.5 7.5 0 1 0 15 0 a7.5 7.5 0 1 0 -15 0zM1379.46 67.69 a7.5 7.5 0 1 0 15 0 a7.5 7.5 0 1 0 -15 0zM1314.51 105.19 a7.5 7.5 0 1 0 15 0 a7.5 7.5 0 1 0 -15 0zM1249.55 67.69 a7.5 7.5 0 1 0 15 0 a7.5 7.5 0 1 0 -15 0zM1249.55 -7.31 a7.5 7.5 0 1 0 15 0 a7.5 7.5 0 1 0 -15 0zM1379.46 517.69 a7.5 7.5 0 1 0 15 0 a7.5 7.5 0 1 0 -15 0zM1444.41 555.19 a7.5 7.5 0 1 0 15 0 a7.5 7.5 0 1 0 -15 0zM1444.41 630.19 a7.5 7.5 0 1 0 15 0 a7.5 7.5 0 1 0 -15 0zM1379.46 667.69 a7.5 7.5 0 1 0 15 0 a7.5 7.5 0 1 0 -15 0zM1314.51 630.19 a7.5 7.5 0 1 0 15 0 a7.5 7.5 0 1 0 -15 0zM1314.51 555.19 a7.5 7.5 0 1 0 15 0 a7.5 7.5 0 1 0 -15 0zM1314.51 2205.19 a7.5 7.5 0 1 0 15 0 a7.5 7.5 0 1 0 -15 0zM1379.46 2242.69 a7.5 7.5 0 1 0 15 0 a7.5 7.5 0 1 0 -15 0zM1379.46 2317.69 a7.5 7.5 0 1 0 15 0 a7.5 7.5 0 1 0 -15 0zM1314.51 2355.19 a7.5 7.5 0 1 0 15 0 a7.5 7.5 0 1 0 -15 0zM1249.55 2242.69 a7.5 7.5 0 1 0 15 0 a7.5 7.5 0 1 0 -15 0zM1444.41 2355.19 a7.5 7.5 0 1 0 15 0 a7.5 7.5 0 1 0 -15 0zM1444.41 2430.19 a7.5 7.5 0 1 0 15 0 a7.5 7.5 0 1 0 -15 0zM1379.46 2467.69 a7.5 7.5 0 1 0 15 0 a7.5 7.5 0 1 0 -15 0zM1314.51 2430.19 a7.5 7.5 0 1 0 15 0 a7.5 7.5 0 1 0 -15 0zM1379.46 2542.69 a7.5 7.5 0 1 0 15 0 a7.5 7.5 0 1 0 -15 0zM1314.51 2580.19 a7.5 7.5 0 1 0 15 0 a7.5 7.5 0 1 0 -15 0zM1444.41 2580.19 a7.5 7.5 0 1 0 15 0 a7.5 7.5 0 1 0 -15 0zM1444.41 2655.19 a7.5 7.5 0 1 0 15 0 a7.5 7.5 0 1 0 -15 0zM1379.46 2692.69 a7.5 7.5 0 1 0 15 0 a7.5 7.5 0 1 0 -15 0zM1314.51 2655.19 a7.5 7.5 0 1 0 15 0 a7.5 7.5 0 1 0 -15 0zM1379.46 2767.69 a7.5 7.5 0 1 0 15 0 a7.5 7.5 0 1 0 -15 0zM1314.51 2805.19 a7.5 7.5 0 1 0 15 0 a7.5 7.5 0 1 0 -15 0zM1249.55 2767.69 a7.5 7.5 0 1 0 15 0 a7.5 7.5 0 1 0 -15 0zM1249.55 2692.69 a7.5 7.5 0 1 0 15 0 a7.5 7.5 0 1 0 -15 0zM1379.46 2992.69 a7.5 7.5 0 1 0 15 0 a7.5 7.5 0 1 0 -15 0zM1444.41 3030.19 a7.5 7.5 0 1 0 15 0 a7.5 7.5 0 1 0 -15 0zM1444.41 3105.19 a7.5 7.5 0 1 0 15 0 a7.5 7.5 0 1 0 -15 0zM1379.46 3142.69 a7.5 7.5 0 1 0 15 0 a7.5 7.5 0 1 0 -15 0zM1314.51 3105.19 a7.5 7.5 0 1 0 15 0 a7.5 7.5 0 1 0 -15 0zM1314.51 3030.19 a7.5 7.5 0 1 0 15 0 a7.5 7.5 0 1 0 -15 0zM1379.46 3217.69 a7.5 7.5 0 1 0 15 0 a7.5 7.5 0 1 0 -15 0zM1314.51 3255.19 a7.5 7.5 0 1 0 15 0 a7.5 7.5 0 1 0 -15 0zM1314.51 3780.19 a7.5 7.5 0 1 0 15 0 a7.5 7.5 0 1 0 -15 0zM1379.46 3817.69 a7.5 7.5 0 1 0 15 0 a7.5 7.5 0 1 0 -15 0zM1379.46 3892.69 a7.5 7.5 0 1 0 15 0 a7.5 7.5 0 1 0 -15 0zM1314.51 3930.19 a7.5 7.5 0 1 0 15 0 a7.5 7.5 0 1 0 -15 0zM1509.37 292.69 a7.5 7.5 0 1 0 15 0 a7.5 7.5 0 1 0 -15 0zM1574.32 330.19 a7.5 7.5 0 1 0 15 0 a7.5 7.5 0 1 0 -15 0zM1574.32 405.19 a7.5 7.5 0 1 0 15 0 a7.5 7.5 0 1 0 -15 0zM1509.37 442.69 a7.5 7.5 0 1 0 15 0 a7.5 7.5 0 1 0 -15 0zM1444.41 405.19 a7.5 7.5 0 1 0 15 0 a7.5 7.5 0 1 0 -15 0zM1444.41 330.19 a7.5 7.5 0 1 0 15 0 a7.5 7.5 0 1 0 -15 0zM1509.37 742.69 a7.5 7.5 0 1 0 15 0 a7.5 7.5 0 1 0 -15 0zM1574.32 780.19 a7.5 7.5 0 1 0 15 0 a7.5 7.5 0 1 0 -15 0zM1574.32 855.19 a7.5 7.5 0 1 0 15 0 a7.5 7.5 0 1 0 -15 0zM1509.37 892.69 a7.5 7.5 0 1 0 15 0 a7.5 7.5 0 1 0 -15 0zM1444.41 855.19 a7.5 7.5 0 1 0 15 0 a7.5 7.5 0 1 0 -15 0zM1444.41 780.19 a7.5 7.5 0 1 0 15 0 a7.5 7.5 0 1 0 -15 0zM1509.37 967.69 a7.5 7.5 0 1 0 15 0 a7.5 7.5 0 1 0 -15 0zM1574.32 1005.19 a7.5 7.5 0 1 0 15 0 a7.5 7.5 0 1 0 -15 0zM1574.32 1080.19 a7.5 7.5 0 1 0 15 0 a7.5 7.5 0 1 0 -15 0zM1509.37 1117.69 a7.5 7.5 0 1 0 15 0 a7.5 7.5 0 1 0 -15 0zM1444.41 1080.19 a7.5 7.5 0 1 0 15 0 a7.5 7.5 0 1 0 -15 0zM1444.41 1005.19 a7.5 7.5 0 1 0 15 0 a7.5 7.5 0 1 0 -15 0zM1509.37 1192.69 a7.5 7.5 0 1 0 15 0 a7.5 7.5 0 1 0 -15 0zM1574.32 1230.19 a7.5 7.5 0 1 0 15 0 a7.5 7.5 0 1 0 -15 0zM1574.32 1305.19 a7.5 7.5 0 1 0 15 0 a7.5 7.5 0 1 0 -15 0zM1509.37 1342.69 a7.5 7.5 0 1 0 15 0 a7.5 7.5 0 1 0 -15 0zM1444.41 1305.19 a7.5 7.5 0 1 0 15 0 a7.5 7.5 0 1 0 -15 0zM1444.41 1230.19 a7.5 7.5 0 1 0 15 0 a7.5 7.5 0 1 0 -15 0zM1444.41 1980.19 a7.5 7.5 0 1 0 15 0 a7.5 7.5 0 1 0 -15 0zM1509.37 2017.69 a7.5 7.5 0 1 0 15 0 a7.5 7.5 0 1 0 -15 0zM1509.37 2092.69 a7.5 7.5 0 1 0 15 0 a7.5 7.5 0 1 0 -15 0zM1444.41 2130.19 a7.5 7.5 0 1 0 15 0 a7.5 7.5 0 1 0 -15 0zM1379.46 2092.69 a7.5 7.5 0 1 0 15 0 a7.5 7.5 0 1 0 -15 0zM1379.46 2017.69 a7.5 7.5 0 1 0 15 0 a7.5 7.5 0 1 0 -15 0zM1444.41 2205.19 a7.5 7.5 0 1 0 15 0 a7.5 7.5 0 1 0 -15 0zM1509.37 2242.69 a7.5 7.5 0 1 0 15 0 a7.5 7.5 0 1 0 -15 0zM1509.37 2317.69 a7.5 7.5 0 1 0 15 0 a7.5 7.5 0 1 0 -15 0zM1509.37 2467.69 a7.5 7.5 0 1 0 15 0 a7.5 7.5 0 1 0 -15 0zM1509.37 2542.69 a7.5 7.5 0 1 0 15 0 a7.5 7.5 0 1 0 -15 0zM1444.41 4005.19 a7.5 7.5 0 1 0 15 0 a7.5 7.5 0 1 0 -15 0zM1509.37 4042.69 a7.5 7.5 0 1 0 15 0 a7.5 7.5 0 1 0 -15 0zM1509.37 4117.69 a7.5 7.5 0 1 0 15 0 a7.5 7.5 0 1 0 -15 0zM1444.41 4155.19 a7.5 7.5 0 1 0 15 0 a7.5 7.5 0 1 0 -15 0zM1379.46 4117.69 a7.5 7.5 0 1 0 15 0 a7.5 7.5 0 1 0 -15 0zM1379.46 4042.69 a7.5 7.5 0 1 0 15 0 a7.5 7.5 0 1 0 -15 0zM1639.27 292.69 a7.5 7.5 0 1 0 15 0 a7.5 7.5 0 1 0 -15 0zM1704.23 330.19 a7.5 7.5 0 1 0 15 0 a7.5 7.5 0 1 0 -15 0zM1704.23 405.19 a7.5 7.5 0 1 0 15 0 a7.5 7.5 0 1 0 -15 0zM1639.27 442.69 a7.5 7.5 0 1 0 15 0 a7.5 7.5 0 1 0 -15 0zM1574.32 630.19 a7.5 7.5 0 1 0 15 0 a7.5 7.5 0 1 0 -15 0zM1639.27 667.69 a7.5 7.5 0 1 0 15 0 a7.5 7.5 0 1 0 -15 0zM1639.27 742.69 a7.5 7.5 0 1 0 15 0 a7.5 7.5 0 1 0 -15 0zM1509.37 667.69 a7.5 7.5 0 1 0 15 0 a7.5 7.5 0 1 0 -15 0zM1704.23 780.19 a7.5 7.5 0 1 0 15 0 a7.5 7.5 0 1 0 -15 0zM1704.23 855.19 a7.5 7.5 0 1 0 15 0 a7.5 7.5 0 1 0 -15 0zM1639.27 892.69 a7.5 7.5 0 1 0 15 0 a7.5 7.5 0 1 0 -15 0zM1639.27 1117.69 a7.5 7.5 0 1 0 15 0 a7.5 7.5 0 1 0 -15 0zM1639.27 1192.69 a7.5 7.5 0 1 0 15 0 a7.5 7.5 0 1 0 -15 0zM1574.32 2880.19 a7.5 7.5 0 1 0 15 0 a7.5 7.5 0 1 0 -15 0zM1639.27 2917.69 a7.5 7.5 0 1 0 15 0 a7.5 7.5 0 1 0 -15 0zM1639.27 2992.69 a7.5 7.5 0 1 0 15 0 a7.5 7.5 0 1 0 -15 0zM1574.32 3030.19 a7.5 7.5 0 1 0 15 0 a7.5 7.5 0 1 0 -15 0zM1509.37 2992.69 a7.5 7.5 0 1 0 15 0 a7.5 7.5 0 1 0 -15 0zM1509.37 2917.69 a7.5 7.5 0 1 0 15 0 a7.5 7.5 0 1 0 -15 0zM1574.32 3105.19 a7.5 7.5 0 1 0 15 0 a7.5 7.5 0 1 0 -15 0zM1639.27 3142.69 a7.5 7.5 0 1 0 15 0 a7.5 7.5 0 1 0 -15 0zM1639.27 3217.69 a7.5 7.5 0 1 0 15 0 a7.5 7.5 0 1 0 -15 0zM1574.32 3255.19 a7.5 7.5 0 1 0 15 0 a7.5 7.5 0 1 0 -15 0zM1509.37 3217.69 a7.5 7.5 0 1 0 15 0 a7.5 7.5 0 1 0 -15 0zM1509.37 3142.69 a7.5 7.5 0 1 0 15 0 a7.5 7.5 0 1 0 -15 0zM1574.32 3330.19 a7.5 7.5 0 1 0 15 0 a7.5 7.5 0 1 0 -15 0zM1639.27 3367.69 a7.5 7.5 0 1 0 15 0 a7.5 7.5 0 1 0 -15 0zM1639.27 3442.69 a7.5 7.5 0 1 0 15 0 a7.5 7.5 0 1 0 -15 0zM1574.32 3480.19 a7.5 7.5 0 1 0 15 0 a7.5 7.5 0 1 0 -15 0zM1509.37 3442.69 a7.5 7.5 0 1 0 15 0 a7.5 7.5 0 1 0 -15 0zM1509.37 3367.69 a7.5 7.5 0 1 0 15 0 a7.5 7.5 0 1 0 -15 0zM1704.23 3480.19 a7.5 7.5 0 1 0 15 0 a7.5 7.5 0 1 0 -15 0zM1704.23 3555.19 a7.5 7.5 0 1 0 15 0 a7.5 7.5 0 1 0 -15 0zM1639.27 3592.69 a7.5 7.5 0 1 0 15 0 a7.5 7.5 0 1 0 -15 0zM1574.32 3555.19 a7.5 7.5 0 1 0 15 0 a7.5 7.5 0 1 0 -15 0zM1639.27 3892.69 a7.5 7.5 0 1 0 15 0 a7.5 7.5 0 1 0 -15 0zM1704.23 3930.19 a7.5 7.5 0 1 0 15 0 a7.5 7.5 0 1 0 -15 0zM1704.23 4005.19 a7.5 7.5 0 1 0 15 0 a7.5 7.5 0 1 0 -15 0zM1639.27 4042.69 a7.5 7.5 0 1 0 15 0 a7.5 7.5 0 1 0 -15 0zM1574.32 4005.19 a7.5 7.5 0 1 0 15 0 a7.5 7.5 0 1 0 -15 0zM1574.32 3930.19 a7.5 7.5 0 1 0 15 0 a7.5 7.5 0 1 0 -15 0zM1704.23 -44.81 a7.5 7.5 0 1 0 15 0 a7.5 7.5 0 1 0 -15 0zM1769.18 -7.31 a7.5 7.5 0 1 0 15 0 a7.5 7.5 0 1 0 -15 0zM1769.18 67.69 a7.5 7.5 0 1 0 15 0 a7.5 7.5 0 1 0 -15 0zM1704.23 105.19 a7.5 7.5 0 1 0 15 0 a7.5 7.5 0 1 0 -15 0zM1639.27 67.69 a7.5 7.5 0 1 0 15 0 a7.5 7.5 0 1 0 -15 0zM1639.27 -7.31 a7.5 7.5 0 1 0 15 0 a7.5 7.5 0 1 0 -15 0zM1769.18 967.69 a7.5 7.5 0 1 0 15 0 a7.5 7.5 0 1 0 -15 0zM1834.13 1005.19 a7.5 7.5 0 1 0 15 0 a7.5 7.5 0 1 0 -15 0zM1834.13 1080.19 a7.5 7.5 0 1 0 15 0 a7.5 7.5 0 1 0 -15 0zM1769.18 1117.69 a7.5 7.5 0 1 0 15 0 a7.5 7.5 0 1 0 -15 0zM1704.23 1080.19 a7.5 7.5 0 1 0 15 0 a7.5 7.5 0 1 0 -15 0zM1704.23 1005.19 a7.5 7.5 0 1 0 15 0 a7.5 7.5 0 1 0 -15 0zM1769.18 1417.69 a7.5 7.5 0 1 0 15 0 a7.5 7.5 0 1 0 -15 0zM1834.13 1455.19 a7.5 7.5 0 1 0 15 0 a7.5 7.5 0 1 0 -15 0zM1834.13 1530.19 a7.5 7.5 0 1 0 15 0 a7.5 7.5 0 1 0 -15 0zM1769.18 1567.69 a7.5 7.5 0 1 0 15 0 a7.5 7.5 0 1 0 -15 0zM1704.23 1530.19 a7.5 7.5 0 1 0 15 0 a7.5 7.5 0 1 0 -15 0zM1704.23 1455.19 a7.5 7.5 0 1 0 15 0 a7.5 7.5 0 1 0 -15 0zM1769.18 1642.69 a7.5 7.5 0 1 0 15 0 a7.5 7.5 0 1 0 -15 0zM1834.13 1680.19 a7.5 7.5 0 1 0 15 0 a7.5 7.5 0 1 0 -15 0zM1834.13 1755.19 a7.5 7.5 0 1 0 15 0 a7.5 7.5 0 1 0 -15 0zM1769.18 1792.69 a7.5 7.5 0 1 0 15 0 a7.5 7.5 0 1 0 -15 0zM1704.23 1755.19 a7.5 7.5 0 1 0 15 0 a7.5 7.5 0 1 0 -15 0zM1704.23 1680.19 a7.5 7.5 0 1 0 15 0 a7.5 7.5 0 1 0 -15 0zM1769.18 1867.69 a7.5 7.5 0 1 0 15 0 a7.5 7.5 0 1 0 -15 0zM1704.23 1905.19 a7.5 7.5 0 1 0 15 0 a7.5 7.5 0 1 0 -15 0zM1639.27 1867.69 a7.5 7.5 0 1 0 15 0 a7.5 7.5 0 1 0 -15 0zM1639.27 1792.69 a7.5 7.5 0 1 0 15 0 a7.5 7.5 0 1 0 -15 0zM1769.18 2317.69 a7.5 7.5 0 1 0 15 0 a7.5 7.5 0 1 0 -15 0zM1834.13 2355.19 a7.5 7.5 0 1 0 15 0 a7.5 7.5 0 1 0 -15 0zM1834.13 2430.19 a7.5 7.5 0 1 0 15 0 a7.5 7.5 0 1 0 -15 0zM1769.18 2467.69 a7.5 7.5 0 1 0 15 0 a7.5 7.5 0 1 0 -15 0zM1704.23 2430.19 a7.5 7.5 0 1 0 15 0 a7.5 7.5 0 1 0 -15 0zM1704.23 2355.19 a7.5 7.5 0 1 0 15 0 a7.5 7.5 0 1 0 -15 0zM1704.23 3105.19 a7.5 7.5 0 1 0 15 0 a7.5 7.5 0 1 0 -15 0zM1769.18 3142.69 a7.5 7.5 0 1 0 15 0 a7.5 7.5 0 1 0 -15 0zM1769.18 3217.69 a7.5 7.5 0 1 0 15 0 a7.5 7.5 0 1 0 -15 0zM1704.23 3255.19 a7.5 7.5 0 1 0 15 0 a7.5 7.5 0 1 0 -15 0zM1769.18 3442.69 a7.5 7.5 0 1 0 15 0 a7.5 7.5 0 1 0 -15 0zM1834.13 3480.19 a7.5 7.5 0 1 0 15 0 a7.5 7.5 0 1 0 -15 0zM1834.13 3555.19 a7.5 7.5 0 1 0 15 0 a7.5 7.5 0 1 0 -15 0zM1769.18 3592.69 a7.5 7.5 0 1 0 15 0 a7.5 7.5 0 1 0 -15 0zM1704.23 3780.19 a7.5 7.5 0 1 0 15 0 a7.5 7.5 0 1 0 -15 0zM1769.18 3817.69 a7.5 7.5 0 1 0 15 0 a7.5 7.5 0 1 0 -15 0zM1769.18 3892.69 a7.5 7.5 0 1 0 15 0 a7.5 7.5 0 1 0 -15 0zM1639.27 3817.69 a7.5 7.5 0 1 0 15 0 a7.5 7.5 0 1 0 -15 0zM1834.13 -44.81 a7.5 7.5 0 1 0 15 0 a7.5 7.5 0 1 0 -15 0zM1899.09 -7.31 a7.5 7.5 0 1 0 15 0 a7.5 7.5 0 1 0 -15 0zM1899.09 67.69 a7.5 7.5 0 1 0 15 0 a7.5 7.5 0 1 0 -15 0zM1834.13 105.19 a7.5 7.5 0 1 0 15 0 a7.5 7.5 0 1 0 -15 0zM1899.09 1417.69 a7.5 7.5 0 1 0 15 0 a7.5 7.5 0 1 0 -15 0zM1964.04 1455.19 a7.5 7.5 0 1 0 15 0 a7.5 7.5 0 1 0 -15 0zM1964.04 1530.19 a7.5 7.5 0 1 0 15 0 a7.5 7.5 0 1 0 -15 0zM1899.09 1567.69 a7.5 7.5 0 1 0 15 0 a7.5 7.5 0 1 0 -15 0zM1834.13 1980.19 a7.5 7.5 0 1 0 15 0 a7.5 7.5 0 1 0 -15 0zM1899.09 2017.69 a7.5 7.5 0 1 0 15 0 a7.5 7.5 0 1 0 -15 0zM1899.09 2092.69 a7.5 7.5 0 1 0 15 0 a7.5 7.5 0 1 0 -15 0zM1834.13 2130.19 a7.5 7.5 0 1 0 15 0 a7.5 7.5 0 1 0 -15 0zM1769.18 2092.69 a7.5 7.5 0 1 0 15 0 a7.5 7.5 0 1 0 -15 0zM1769.18 2017.69 a7.5 7.5 0 1 0 15 0 a7.5 7.5 0 1 0 -15 0zM1834.13 2205.19 a7.5 7.5 0 1 0 15 0 a7.5 7.5 0 1 0 -15 0zM1899.09 2242.69 a7.5 7.5 0 1 0 15 0 a7.5 7.5 0 1 0 -15 0zM1899.09 2317.69 a7.5 7.5 0 1 0 15 0 a7.5 7.5 0 1 0 -15 0zM1769.18 2242.69 a7.5 7.5 0 1 0 15 0 a7.5 7.5 0 1 0 -15 0zM1899.09 2467.69 a7.5 7.5 0 1 0 15 0 a7.5 7.5 0 1 0 -15 0zM1899.09 2542.69 a7.5 7.5 0 1 0 15 0 a7.5 7.5 0 1 0 -15 0zM1834.13 2580.19 a7.5 7.5 0 1 0 15 0 a7.5 7.5 0 1 0 -15 0zM1769.18 2542.69 a7.5 7.5 0 1 0 15 0 a7.5 7.5 0 1 0 -15 0zM1899.09 2992.69 a7.5 7.5 0 1 0 15 0 a7.5 7.5 0 1 0 -15 0zM1964.04 3030.19 a7.5 7.5 0 1 0 15 0 a7.5 7.5 0 1 0 -15 0zM1964.04 3105.19 a7.5 7.5 0 1 0 15 0 a7.5 7.5 0 1 0 -15 0zM1899.09 3142.69 a7.5 7.5 0 1 0 15 0 a7.5 7.5 0 1 0 -15 0zM1834.13 3105.19 a7.5 7.5 0 1 0 15 0 a7.5 7.5 0 1 0 -15 0zM1834.13 3030.19 a7.5 7.5 0 1 0 15 0 a7.5 7.5 0 1 0 -15 0zM1899.09 3217.69 a7.5 7.5 0 1 0 15 0 a7.5 7.5 0 1 0 -15 0zM1964.04 3255.19 a7.5 7.5 0 1 0 15 0 a7.5 7.5 0 1 0 -15 0zM1964.04 3330.19 a7.5 7.5 0 1 0 15 0 a7.5 7.5 0 1 0 -15 0zM1899.09 3367.69 a7.5 7.5 0 1 0 15 0 a7.5 7.5 0 1 0 -15 0zM1834.13 3330.19 a7.5 7.5 0 1 0 15 0 a7.5 7.5 0 1 0 -15 0zM1834.13 3255.19 a7.5 7.5 0 1 0 15 0 a7.5 7.5 0 1 0 -15 0zM1899.09 3442.69 a7.5 7.5 0 1 0 15 0 a7.5 7.5 0 1 0 -15 0zM1964.04 3480.19 a7.5 7.5 0 1 0 15 0 a7.5 7.5 0 1 0 -15 0zM1964.04 3555.19 a7.5 7.5 0 1 0 15 0 a7.5 7.5 0 1 0 -15 0zM1899.09 3592.69 a7.5 7.5 0 1 0 15 0 a7.5 7.5 0 1 0 -15 0zM1899.09 3892.69 a7.5 7.5 0 1 0 15 0 a7.5 7.5 0 1 0 -15 0zM1964.04 3930.19 a7.5 7.5 0 1 0 15 0 a7.5 7.5 0 1 0 -15 0zM1964.04 4005.19 a7.5 7.5 0 1 0 15 0 a7.5 7.5 0 1 0 -15 0zM1899.09 4042.69 a7.5 7.5 0 1 0 15 0 a7.5 7.5 0 1 0 -15 0zM1834.13 4005.19 a7.5 7.5 0 1 0 15 0 a7.5 7.5 0 1 0 -15 0zM1834.13 3930.19 a7.5 7.5 0 1 0 15 0 a7.5 7.5 0 1 0 -15 0z" fill="url(&quot;#SvgjsLinearGradient1579&quot;)"></path><path d="M105.39 276.39L159.95 307.89L159.95 370.89L105.39 402.39L50.83 370.89L50.83 307.89zM50.83 937.89L105.39 969.39L105.39 1032.39L50.83 1063.89L-3.73 1032.39L-3.73 969.39zM105.39 1032.39L159.95 1063.89L159.95 1126.89L105.39 1158.39L50.83 1126.89L50.83 1063.89zM105.39 1977.39L159.95 2008.89L159.95 2071.89L105.39 2103.39L50.83 2071.89L50.83 2008.89zM50.83 2071.89L105.39 2103.39L105.39 2166.39L50.83 2197.89L-3.73 2166.39L-3.73 2103.39zM105.39 3111.39L159.95 3142.89L159.95 3205.89L105.39 3237.39L50.83 3205.89L50.83 3142.89zM105.39 3489.39L159.95 3520.89L159.95 3583.89L105.39 3615.39L50.83 3583.89L50.83 3520.89zM50.83 3772.89L105.39 3804.39L105.39 3867.39L50.83 3898.89L-3.73 3867.39L-3.73 3804.39zM214.51 87.39L269.07 118.89L269.07 181.89L214.51 213.39L159.95 181.89L159.95 118.89zM214.51 276.39L269.07 307.89L269.07 370.89L214.51 402.39L159.95 370.89L159.95 307.89zM159.95 2071.89L214.51 2103.39L214.51 2166.39L159.95 2197.89L105.39 2166.39L105.39 2103.39zM214.51 2733.39L269.07 2764.89L269.07 2827.89L214.51 2859.39L159.95 2827.89L159.95 2764.89zM214.51 3111.39L269.07 3142.89L269.07 3205.89L214.51 3237.39L159.95 3205.89L159.95 3142.89zM214.51 3300.39L269.07 3331.89L269.07 3394.89L214.51 3426.39L159.95 3394.89L159.95 3331.89zM269.07 748.89L323.64 780.39L323.64 843.39L269.07 874.89L214.51 843.39L214.51 780.39zM323.64 1221.39L378.2 1252.89L378.2 1315.89L323.64 1347.39L269.07 1315.89L269.07 1252.89zM269.07 1693.89L323.64 1725.39L323.64 1788.39L269.07 1819.89L214.51 1788.39L214.51 1725.39zM269.07 2827.89L323.64 2859.39L323.64 2922.39L269.07 2953.89L214.51 2922.39L214.51 2859.39zM323.64 3300.39L378.2 3331.89L378.2 3394.89L323.64 3426.39L269.07 3394.89L269.07 3331.89zM432.76 465.39L487.32 496.89L487.32 559.89L432.76 591.39L378.2 559.89L378.2 496.89zM378.2 1693.89L432.76 1725.39L432.76 1788.39L378.2 1819.89L323.64 1788.39L323.64 1725.39zM378.2 3016.89L432.76 3048.39L432.76 3111.39L378.2 3142.89L323.64 3111.39L323.64 3048.39zM378.2 3583.89L432.76 3615.39L432.76 3678.39L378.2 3709.89L323.64 3678.39L323.64 3615.39zM432.76 3867.39L487.32 3898.89L487.32 3961.89L432.76 3993.39L378.2 3961.89L378.2 3898.89zM487.32 -7.11L541.88 24.39L541.88 87.39L487.32 118.89L432.76 87.39L432.76 24.39zM541.88 276.39L596.44 307.89L596.44 370.89L541.88 402.39L487.32 370.89L487.32 307.89zM487.32 748.89L541.88 780.39L541.88 843.39L487.32 874.89L432.76 843.39L432.76 780.39zM541.88 1410.39L596.44 1441.89L596.44 1504.89L541.88 1536.39L487.32 1504.89L487.32 1441.89zM541.88 1599.39L596.44 1630.89L596.44 1693.89L541.88 1725.39L487.32 1693.89L487.32 1630.89zM487.32 2449.89L541.88 2481.39L541.88 2544.39L487.32 2575.89L432.76 2544.39L432.76 2481.39zM487.32 3016.89L541.88 3048.39L541.88 3111.39L487.32 3142.89L432.76 3111.39L432.76 3048.39zM541.88 3678.39L596.44 3709.89L596.44 3772.89L541.88 3804.39L487.32 3772.89L487.32 3709.89zM487.32 3961.89L541.88 3993.39L541.88 4056.39L487.32 4087.89L432.76 4056.39L432.76 3993.39zM596.44 181.89L651 213.39L651 276.39L596.44 307.89L541.88 276.39L541.88 213.39zM651 465.39L705.56 496.89L705.56 559.89L651 591.39L596.44 559.89L596.44 496.89zM596.44 1882.89L651 1914.39L651 1977.39L596.44 2008.89L541.88 1977.39L541.88 1914.39zM651 3678.39L705.56 3709.89L705.56 3772.89L651 3804.39L596.44 3772.89L596.44 3709.89zM596.44 3772.89L651 3804.39L651 3867.39L596.44 3898.89L541.88 3867.39L541.88 3804.39zM760.12 654.39L814.69 685.89L814.69 748.89L760.12 780.39L705.56 748.89L705.56 685.89zM705.56 937.89L760.12 969.39L760.12 1032.39L705.56 1063.89L651 1032.39L651 969.39zM760.12 1599.39L814.69 1630.89L814.69 1693.89L760.12 1725.39L705.56 1693.89L705.56 1630.89zM760.12 1977.39L814.69 2008.89L814.69 2071.89L760.12 2103.39L705.56 2071.89L705.56 2008.89zM705.56 2449.89L760.12 2481.39L760.12 2544.39L705.56 2575.89L651 2544.39L651 2481.39zM869.25 465.39L923.81 496.89L923.81 559.89L869.25 591.39L814.69 559.89L814.69 496.89zM869.25 1221.39L923.81 1252.89L923.81 1315.89L869.25 1347.39L814.69 1315.89L814.69 1252.89zM814.69 3205.89L869.25 3237.39L869.25 3300.39L814.69 3331.89L760.12 3300.39L760.12 3237.39zM978.37 843.39L1032.93 874.89L1032.93 937.89L978.37 969.39L923.81 937.89L923.81 874.89zM978.37 1410.39L1032.93 1441.89L1032.93 1504.89L978.37 1536.39L923.81 1504.89L923.81 1441.89zM923.81 2071.89L978.37 2103.39L978.37 2166.39L923.81 2197.89L869.25 2166.39L869.25 2103.39zM923.81 3961.89L978.37 3993.39L978.37 4056.39L923.81 4087.89L869.25 4056.39L869.25 3993.39zM1032.93 -7.11L1087.49 24.39L1087.49 87.39L1032.93 118.89L978.37 87.39L978.37 24.39zM1087.49 465.39L1142.05 496.89L1142.05 559.89L1087.49 591.39L1032.93 559.89L1032.93 496.89zM1087.49 843.39L1142.05 874.89L1142.05 937.89L1087.49 969.39L1032.93 937.89L1032.93 874.89zM1032.93 1504.89L1087.49 1536.39L1087.49 1599.39L1032.93 1630.89L978.37 1599.39L978.37 1536.39zM1032.93 1882.89L1087.49 1914.39L1087.49 1977.39L1032.93 2008.89L978.37 1977.39L978.37 1914.39zM1087.49 2166.39L1142.05 2197.89L1142.05 2260.89L1087.49 2292.39L1032.93 2260.89L1032.93 2197.89zM1087.49 2355.39L1142.05 2386.89L1142.05 2449.89L1087.49 2481.39L1032.93 2449.89L1032.93 2386.89zM1032.93 2638.89L1087.49 2670.39L1087.49 2733.39L1032.93 2764.89L978.37 2733.39L978.37 2670.39zM1087.49 3489.39L1142.05 3520.89L1142.05 3583.89L1087.49 3615.39L1032.93 3583.89L1032.93 3520.89zM1087.49 3678.39L1142.05 3709.89L1142.05 3772.89L1087.49 3804.39L1032.93 3772.89L1032.93 3709.89zM1196.61 654.39L1251.18 685.89L1251.18 748.89L1196.61 780.39L1142.05 748.89L1142.05 685.89zM1196.61 1977.39L1251.18 2008.89L1251.18 2071.89L1196.61 2103.39L1142.05 2071.89L1142.05 2008.89zM1142.05 2260.89L1196.61 2292.39L1196.61 2355.39L1142.05 2386.89L1087.49 2355.39L1087.49 2292.39zM1196.61 2733.39L1251.18 2764.89L1251.18 2827.89L1196.61 2859.39L1142.05 2827.89L1142.05 2764.89zM1142.05 3205.89L1196.61 3237.39L1196.61 3300.39L1142.05 3331.89L1087.49 3300.39L1087.49 3237.39zM1142.05 3772.89L1196.61 3804.39L1196.61 3867.39L1142.05 3898.89L1087.49 3867.39L1087.49 3804.39zM1251.18 -7.11L1305.74 24.39L1305.74 87.39L1251.18 118.89L1196.61 87.39L1196.61 24.39zM1251.18 748.89L1305.74 780.39L1305.74 843.39L1251.18 874.89L1196.61 843.39L1196.61 780.39zM1251.18 1126.89L1305.74 1158.39L1305.74 1221.39L1251.18 1252.89L1196.61 1221.39L1196.61 1158.39zM1305.74 1599.39L1360.3 1630.89L1360.3 1693.89L1305.74 1725.39L1251.18 1693.89L1251.18 1630.89zM1305.74 2166.39L1360.3 2197.89L1360.3 2260.89L1305.74 2292.39L1251.18 2260.89L1251.18 2197.89zM1305.74 2733.39L1360.3 2764.89L1360.3 2827.89L1305.74 2859.39L1251.18 2827.89L1251.18 2764.89zM1251.18 2827.89L1305.74 2859.39L1305.74 2922.39L1251.18 2953.89L1196.61 2922.39L1196.61 2859.39zM1305.74 2922.39L1360.3 2953.89L1360.3 3016.89L1305.74 3048.39L1251.18 3016.89L1251.18 2953.89zM1360.3 -7.11L1414.86 24.39L1414.86 87.39L1360.3 118.89L1305.74 87.39L1305.74 24.39zM1360.3 1126.89L1414.86 1158.39L1414.86 1221.39L1360.3 1252.89L1305.74 1221.39L1305.74 1158.39zM1414.86 1221.39L1469.42 1252.89L1469.42 1315.89L1414.86 1347.39L1360.3 1315.89L1360.3 1252.89zM1414.86 1599.39L1469.42 1630.89L1469.42 1693.89L1414.86 1725.39L1360.3 1693.89L1360.3 1630.89zM1360.3 1882.89L1414.86 1914.39L1414.86 1977.39L1360.3 2008.89L1305.74 1977.39L1305.74 1914.39zM1414.86 2355.39L1469.42 2386.89L1469.42 2449.89L1414.86 2481.39L1360.3 2449.89L1360.3 2386.89zM1469.42 1315.89L1523.98 1347.39L1523.98 1410.39L1469.42 1441.89L1414.86 1410.39L1414.86 1347.39zM1523.98 1788.39L1578.54 1819.89L1578.54 1882.89L1523.98 1914.39L1469.42 1882.89L1469.42 1819.89zM1523.98 2355.39L1578.54 2386.89L1578.54 2449.89L1523.98 2481.39L1469.42 2449.89L1469.42 2386.89zM1469.42 2449.89L1523.98 2481.39L1523.98 2544.39L1469.42 2575.89L1414.86 2544.39L1414.86 2481.39zM1523.98 2544.39L1578.54 2575.89L1578.54 2638.89L1523.98 2670.39L1469.42 2638.89L1469.42 2575.89zM1633.1 843.39L1687.66 874.89L1687.66 937.89L1633.1 969.39L1578.54 937.89L1578.54 874.89zM1578.54 1126.89L1633.1 1158.39L1633.1 1221.39L1578.54 1252.89L1523.98 1221.39L1523.98 1158.39zM1633.1 1977.39L1687.66 2008.89L1687.66 2071.89L1633.1 2103.39L1578.54 2071.89L1578.54 2008.89zM1578.54 2071.89L1633.1 2103.39L1633.1 2166.39L1578.54 2197.89L1523.98 2166.39L1523.98 2103.39zM1578.54 3961.89L1633.1 3993.39L1633.1 4056.39L1578.54 4087.89L1523.98 4056.39L1523.98 3993.39zM1742.23 276.39L1796.79 307.89L1796.79 370.89L1742.23 402.39L1687.66 370.89L1687.66 307.89zM1742.23 1410.39L1796.79 1441.89L1796.79 1504.89L1742.23 1536.39L1687.66 1504.89L1687.66 1441.89zM1742.23 1788.39L1796.79 1819.89L1796.79 1882.89L1742.23 1914.39L1687.66 1882.89L1687.66 1819.89zM1742.23 2355.39L1796.79 2386.89L1796.79 2449.89L1742.23 2481.39L1687.66 2449.89L1687.66 2386.89zM1687.66 2449.89L1742.23 2481.39L1742.23 2544.39L1687.66 2575.89L1633.1 2544.39L1633.1 2481.39zM1687.66 3205.89L1742.23 3237.39L1742.23 3300.39L1687.66 3331.89L1633.1 3300.39L1633.1 3237.39zM1687.66 3583.89L1742.23 3615.39L1742.23 3678.39L1687.66 3709.89L1633.1 3678.39L1633.1 3615.39zM1687.66 3772.89L1742.23 3804.39L1742.23 3867.39L1687.66 3898.89L1633.1 3867.39L1633.1 3804.39zM1796.79 1315.89L1851.35 1347.39L1851.35 1410.39L1796.79 1441.89L1742.23 1410.39L1742.23 1347.39zM1796.79 1693.89L1851.35 1725.39L1851.35 1788.39L1796.79 1819.89L1742.23 1788.39L1742.23 1725.39zM1796.79 2449.89L1851.35 2481.39L1851.35 2544.39L1796.79 2575.89L1742.23 2544.39L1742.23 2481.39zM1905.91 748.89L1960.47 780.39L1960.47 843.39L1905.91 874.89L1851.35 843.39L1851.35 780.39zM1905.91 1693.89L1960.47 1725.39L1960.47 1788.39L1905.91 1819.89L1851.35 1788.39L1851.35 1725.39zM1905.91 2260.89L1960.47 2292.39L1960.47 2355.39L1905.91 2386.89L1851.35 2355.39L1851.35 2292.39zM1905.91 3583.89L1960.47 3615.39L1960.47 3678.39L1905.91 3709.89L1851.35 3678.39L1851.35 3615.39zM1905.91 3772.89L1960.47 3804.39L1960.47 3867.39L1905.91 3898.89L1851.35 3867.39L1851.35 3804.39z" stroke="url(&quot;#SvgjsLinearGradient1580&quot;)" stroke-width="2"></path></g><defs><mask id="SvgjsMask1577"><rect width="1920" height="4000" fill="#ffffff"></rect></mask><linearGradient x1="-27.08%" y1="13%" x2="127.08%" y2="87%" gradientUnits="userSpaceOnUse" id="SvgjsLinearGradient1578"><stop stop-color="#0e2a47" offset="0"></stop><stop stop-color="#00459e" offset="1"></stop></linearGradient><linearGradient x1="-519.9359999999999" y1="520" x2="2439.9359999999997" y2="3480" gradientUnits="userSpaceOnUse" id="SvgjsLinearGradient1579"><stop stop-color="rgba(7, 0, 119, 0.48)" offset="0"></stop><stop stop-color="rgba(0, 69, 138, 1)" offset="1"></stop></linearGradient><linearGradient x1="-519.9359999999999" y1="520" x2="2439.9359999999997" y2="3480" gradientUnits="userSpaceOnUse" id="SvgjsLinearGradient1580"><stop stop-color="#0e2a47" offset="0"></stop><stop stop-color="rgba(3, 95, 215, 1)" offset="1"></stop></linearGradient></defs></svg>