<svg xmlns="http://www.w3.org/2000/svg" version="1.1" xmlns:xlink="http://www.w3.org/1999/xlink" xmlns:svgjs="http://svgjs.dev/svgjs" width="1920" height="5000" preserveAspectRatio="none" viewBox="0 0 1920 5000"><g mask="url(&quot;#SvgjsMask3418&quot;)" fill="none"><rect width="1920" height="5000" x="0" y="0" fill="url(&quot;#SvgjsLinearGradient3419&quot;)"></rect><path d="M53.71 -103.54L170.63 -36.04L170.63 98.96L53.71 166.46L-63.21 98.96L-63.21 -36.04zM170.63 1313.96L287.54 1381.46L287.54 1516.46L170.63 1583.96L53.71 1516.46L53.71 1381.46zM53.71 1921.46L170.63 1988.96L170.63 2123.96L53.71 2191.46L-63.21 2123.96L-63.21 1988.96zM170.63 2123.96L287.54 2191.46L287.54 2326.46L170.63 2393.96L53.71 2326.46L53.71 2191.46zM170.63 2933.96L287.54 3001.46L287.54 3136.46L170.63 3203.96L53.71 3136.46L53.71 3001.46zM53.71 3136.46L170.63 3203.96L170.63 3338.96L53.71 3406.46L-63.21 3338.96L-63.21 3203.96zM170.63 4553.96L287.54 4621.46L287.54 4756.46L170.63 4823.96L53.71 4756.46L53.71 4621.46zM53.71 4756.46L170.63 4823.96L170.63 4958.96L53.71 5026.46L-63.21 4958.96L-63.21 4823.96zM287.54 301.46L404.46 368.96L404.46 503.96L287.54 571.46L170.63 503.96L170.63 368.96zM404.46 2123.96L521.38 2191.46L521.38 2326.46L404.46 2393.96L287.54 2326.46L287.54 2191.46zM287.54 3946.46L404.46 4013.96L404.46 4148.96L287.54 4216.46L170.63 4148.96L170.63 4013.96zM404.46 4148.96L521.38 4216.46L521.38 4351.46L404.46 4418.96L287.54 4351.46L287.54 4216.46zM521.38 301.46L638.29 368.96L638.29 503.96L521.38 571.46L404.46 503.96L404.46 368.96zM638.29 1313.96L755.21 1381.46L755.21 1516.46L638.29 1583.96L521.38 1516.46L521.38 1381.46zM521.38 1921.46L638.29 1988.96L638.29 2123.96L521.38 2191.46L404.46 2123.96L404.46 1988.96zM638.29 4553.96L755.21 4621.46L755.21 4756.46L638.29 4823.96L521.38 4756.46L521.38 4621.46zM755.21 1111.46L872.13 1178.96L872.13 1313.96L755.21 1381.46L638.29 1313.96L638.29 1178.96zM755.21 1516.46L872.13 1583.96L872.13 1718.96L755.21 1786.46L638.29 1718.96L638.29 1583.96zM755.21 1921.46L872.13 1988.96L872.13 2123.96L755.21 2191.46L638.29 2123.96L638.29 1988.96zM755.21 2731.46L872.13 2798.96L872.13 2933.96L755.21 3001.46L638.29 2933.96L638.29 2798.96zM872.13 2933.96L989.04 3001.46L989.04 3136.46L872.13 3203.96L755.21 3136.46L755.21 3001.46zM755.21 4351.46L872.13 4418.96L872.13 4553.96L755.21 4621.46L638.29 4553.96L638.29 4418.96zM755.21 4756.46L872.13 4823.96L872.13 4958.96L755.21 5026.46L638.29 4958.96L638.29 4823.96zM872.13 4958.96L989.04 5026.46L989.04 5161.46L872.13 5228.96L755.21 5161.46L755.21 5026.46zM1105.96 98.96L1222.88 166.46L1222.88 301.46L1105.96 368.96L989.04 301.46L989.04 166.46zM989.04 301.46L1105.96 368.96L1105.96 503.96L989.04 571.46L872.13 503.96L872.13 368.96zM989.04 706.46L1105.96 773.96L1105.96 908.96L989.04 976.46L872.13 908.96L872.13 773.96zM1105.96 1313.96L1222.88 1381.46L1222.88 1516.46L1105.96 1583.96L989.04 1516.46L989.04 1381.46zM989.04 1516.46L1105.96 1583.96L1105.96 1718.96L989.04 1786.46L872.13 1718.96L872.13 1583.96zM1105.96 2528.96L1222.88 2596.46L1222.88 2731.46L1105.96 2798.96L989.04 2731.46L989.04 2596.46zM1339.79 503.96L1456.71 571.46L1456.71 706.46L1339.79 773.96L1222.88 706.46L1222.88 571.46zM1339.79 2123.96L1456.71 2191.46L1456.71 2326.46L1339.79 2393.96L1222.88 2326.46L1222.88 2191.46zM1339.79 2528.96L1456.71 2596.46L1456.71 2731.46L1339.79 2798.96L1222.88 2731.46L1222.88 2596.46zM1339.79 4553.96L1456.71 4621.46L1456.71 4756.46L1339.79 4823.96L1222.88 4756.46L1222.88 4621.46zM1339.79 4958.96L1456.71 5026.46L1456.71 5161.46L1339.79 5228.96L1222.88 5161.46L1222.88 5026.46zM1456.71 -103.54L1573.63 -36.04L1573.63 98.96L1456.71 166.46L1339.79 98.96L1339.79 -36.04zM1573.63 908.96L1690.54 976.46L1690.54 1111.46L1573.63 1178.96L1456.71 1111.46L1456.71 976.46zM1456.71 1111.46L1573.63 1178.96L1573.63 1313.96L1456.71 1381.46L1339.79 1313.96L1339.79 1178.96zM1573.63 1718.96L1690.54 1786.46L1690.54 1921.46L1573.63 1988.96L1456.71 1921.46L1456.71 1786.46zM1456.71 3541.46L1573.63 3608.96L1573.63 3743.96L1456.71 3811.46L1339.79 3743.96L1339.79 3608.96zM1573.63 4958.96L1690.54 5026.46L1690.54 5161.46L1573.63 5228.96L1456.71 5161.46L1456.71 5026.46zM1807.46 1313.96L1924.38 1381.46L1924.38 1516.46L1807.46 1583.96L1690.54 1516.46L1690.54 1381.46zM1807.46 2933.96L1924.38 3001.46L1924.38 3136.46L1807.46 3203.96L1690.54 3136.46L1690.54 3001.46zM1690.54 4351.46L1807.46 4418.96L1807.46 4553.96L1690.54 4621.46L1573.63 4553.96L1573.63 4418.96zM1807.46 4553.96L1924.38 4621.46L1924.38 4756.46L1807.46 4823.96L1690.54 4756.46L1690.54 4621.46zM2041.29 908.96L2158.21 976.46L2158.21 1111.46L2041.29 1178.96L1924.38 1111.46L1924.38 976.46zM2041.29 2933.96L2158.21 3001.46L2158.21 3136.46L2041.29 3203.96L1924.38 3136.46L1924.38 3001.46zM1924.38 3136.46L2041.29 3203.96L2041.29 3338.96L1924.38 3406.46L1807.46 3338.96L1807.46 3203.96zM1924.38 4351.46L2041.29 4418.96L2041.29 4553.96L1924.38 4621.46L1807.46 4553.96L1807.46 4418.96zM1924.38 4756.46L2041.29 4823.96L2041.29 4958.96L1924.38 5026.46L1807.46 4958.96L1807.46 4823.96zM2041.29 4958.96L2158.21 5026.46L2158.21 5161.46L2041.29 5228.96L1924.38 5161.46L1924.38 5026.46z" stroke="url(&quot;#SvgjsLinearGradient3420&quot;)" stroke-width="2"></path><path d="M40.21 -103.54 a13.5 13.5 0 1 0 27 0 a13.5 13.5 0 1 0 -27 0zM157.13 -36.04 a13.5 13.5 0 1 0 27 0 a13.5 13.5 0 1 0 -27 0zM157.13 98.96 a13.5 13.5 0 1 0 27 0 a13.5 13.5 0 1 0 -27 0zM40.21 166.46 a13.5 13.5 0 1 0 27 0 a13.5 13.5 0 1 0 -27 0zM-76.71 98.96 a13.5 13.5 0 1 0 27 0 a13.5 13.5 0 1 0 -27 0zM-76.71 -36.04 a13.5 13.5 0 1 0 27 0 a13.5 13.5 0 1 0 -27 0zM157.13 1313.96 a13.5 13.5 0 1 0 27 0 a13.5 13.5 0 1 0 -27 0zM274.04 1381.46 a13.5 13.5 0 1 0 27 0 a13.5 13.5 0 1 0 -27 0zM274.04 1516.46 a13.5 13.5 0 1 0 27 0 a13.5 13.5 0 1 0 -27 0zM157.13 1583.96 a13.5 13.5 0 1 0 27 0 a13.5 13.5 0 1 0 -27 0zM40.21 1516.46 a13.5 13.5 0 1 0 27 0 a13.5 13.5 0 1 0 -27 0zM40.21 1381.46 a13.5 13.5 0 1 0 27 0 a13.5 13.5 0 1 0 -27 0zM40.21 1921.46 a13.5 13.5 0 1 0 27 0 a13.5 13.5 0 1 0 -27 0zM157.13 1988.96 a13.5 13.5 0 1 0 27 0 a13.5 13.5 0 1 0 -27 0zM157.13 2123.96 a13.5 13.5 0 1 0 27 0 a13.5 13.5 0 1 0 -27 0zM40.21 2191.46 a13.5 13.5 0 1 0 27 0 a13.5 13.5 0 1 0 -27 0zM-76.71 2123.96 a13.5 13.5 0 1 0 27 0 a13.5 13.5 0 1 0 -27 0zM-76.71 1988.96 a13.5 13.5 0 1 0 27 0 a13.5 13.5 0 1 0 -27 0zM274.04 2191.46 a13.5 13.5 0 1 0 27 0 a13.5 13.5 0 1 0 -27 0zM274.04 2326.46 a13.5 13.5 0 1 0 27 0 a13.5 13.5 0 1 0 -27 0zM157.13 2393.96 a13.5 13.5 0 1 0 27 0 a13.5 13.5 0 1 0 -27 0zM40.21 2326.46 a13.5 13.5 0 1 0 27 0 a13.5 13.5 0 1 0 -27 0zM157.13 2933.96 a13.5 13.5 0 1 0 27 0 a13.5 13.5 0 1 0 -27 0zM274.04 3001.46 a13.5 13.5 0 1 0 27 0 a13.5 13.5 0 1 0 -27 0zM274.04 3136.46 a13.5 13.5 0 1 0 27 0 a13.5 13.5 0 1 0 -27 0zM157.13 3203.96 a13.5 13.5 0 1 0 27 0 a13.5 13.5 0 1 0 -27 0zM40.21 3136.46 a13.5 13.5 0 1 0 27 0 a13.5 13.5 0 1 0 -27 0zM40.21 3001.46 a13.5 13.5 0 1 0 27 0 a13.5 13.5 0 1 0 -27 0zM157.13 3338.96 a13.5 13.5 0 1 0 27 0 a13.5 13.5 0 1 0 -27 0zM40.21 3406.46 a13.5 13.5 0 1 0 27 0 a13.5 13.5 0 1 0 -27 0zM-76.71 3338.96 a13.5 13.5 0 1 0 27 0 a13.5 13.5 0 1 0 -27 0zM-76.71 3203.96 a13.5 13.5 0 1 0 27 0 a13.5 13.5 0 1 0 -27 0zM157.13 4553.96 a13.5 13.5 0 1 0 27 0 a13.5 13.5 0 1 0 -27 0zM274.04 4621.46 a13.5 13.5 0 1 0 27 0 a13.5 13.5 0 1 0 -27 0zM274.04 4756.46 a13.5 13.5 0 1 0 27 0 a13.5 13.5 0 1 0 -27 0zM157.13 4823.96 a13.5 13.5 0 1 0 27 0 a13.5 13.5 0 1 0 -27 0zM40.21 4756.46 a13.5 13.5 0 1 0 27 0 a13.5 13.5 0 1 0 -27 0zM40.21 4621.46 a13.5 13.5 0 1 0 27 0 a13.5 13.5 0 1 0 -27 0zM157.13 4958.96 a13.5 13.5 0 1 0 27 0 a13.5 13.5 0 1 0 -27 0zM40.21 5026.46 a13.5 13.5 0 1 0 27 0 a13.5 13.5 0 1 0 -27 0zM-76.71 4958.96 a13.5 13.5 0 1 0 27 0 a13.5 13.5 0 1 0 -27 0zM-76.71 4823.96 a13.5 13.5 0 1 0 27 0 a13.5 13.5 0 1 0 -27 0zM274.04 301.46 a13.5 13.5 0 1 0 27 0 a13.5 13.5 0 1 0 -27 0zM390.96 368.96 a13.5 13.5 0 1 0 27 0 a13.5 13.5 0 1 0 -27 0zM390.96 503.96 a13.5 13.5 0 1 0 27 0 a13.5 13.5 0 1 0 -27 0zM274.04 571.46 a13.5 13.5 0 1 0 27 0 a13.5 13.5 0 1 0 -27 0zM157.13 503.96 a13.5 13.5 0 1 0 27 0 a13.5 13.5 0 1 0 -27 0zM157.13 368.96 a13.5 13.5 0 1 0 27 0 a13.5 13.5 0 1 0 -27 0zM390.96 2123.96 a13.5 13.5 0 1 0 27 0 a13.5 13.5 0 1 0 -27 0zM507.88 2191.46 a13.5 13.5 0 1 0 27 0 a13.5 13.5 0 1 0 -27 0zM507.88 2326.46 a13.5 13.5 0 1 0 27 0 a13.5 13.5 0 1 0 -27 0zM390.96 2393.96 a13.5 13.5 0 1 0 27 0 a13.5 13.5 0 1 0 -27 0zM274.04 3946.46 a13.5 13.5 0 1 0 27 0 a13.5 13.5 0 1 0 -27 0zM390.96 4013.96 a13.5 13.5 0 1 0 27 0 a13.5 13.5 0 1 0 -27 0zM390.96 4148.96 a13.5 13.5 0 1 0 27 0 a13.5 13.5 0 1 0 -27 0zM274.04 4216.46 a13.5 13.5 0 1 0 27 0 a13.5 13.5 0 1 0 -27 0zM157.13 4148.96 a13.5 13.5 0 1 0 27 0 a13.5 13.5 0 1 0 -27 0zM157.13 4013.96 a13.5 13.5 0 1 0 27 0 a13.5 13.5 0 1 0 -27 0zM507.88 4216.46 a13.5 13.5 0 1 0 27 0 a13.5 13.5 0 1 0 -27 0zM507.88 4351.46 a13.5 13.5 0 1 0 27 0 a13.5 13.5 0 1 0 -27 0zM390.96 4418.96 a13.5 13.5 0 1 0 27 0 a13.5 13.5 0 1 0 -27 0zM274.04 4351.46 a13.5 13.5 0 1 0 27 0 a13.5 13.5 0 1 0 -27 0zM507.88 301.46 a13.5 13.5 0 1 0 27 0 a13.5 13.5 0 1 0 -27 0zM624.79 368.96 a13.5 13.5 0 1 0 27 0 a13.5 13.5 0 1 0 -27 0zM624.79 503.96 a13.5 13.5 0 1 0 27 0 a13.5 13.5 0 1 0 -27 0zM507.88 571.46 a13.5 13.5 0 1 0 27 0 a13.5 13.5 0 1 0 -27 0zM624.79 1313.96 a13.5 13.5 0 1 0 27 0 a13.5 13.5 0 1 0 -27 0zM741.71 1381.46 a13.5 13.5 0 1 0 27 0 a13.5 13.5 0 1 0 -27 0zM741.71 1516.46 a13.5 13.5 0 1 0 27 0 a13.5 13.5 0 1 0 -27 0zM624.79 1583.96 a13.5 13.5 0 1 0 27 0 a13.5 13.5 0 1 0 -27 0zM507.88 1516.46 a13.5 13.5 0 1 0 27 0 a13.5 13.5 0 1 0 -27 0zM507.88 1381.46 a13.5 13.5 0 1 0 27 0 a13.5 13.5 0 1 0 -27 0zM507.88 1921.46 a13.5 13.5 0 1 0 27 0 a13.5 13.5 0 1 0 -27 0zM624.79 1988.96 a13.5 13.5 0 1 0 27 0 a13.5 13.5 0 1 0 -27 0zM624.79 2123.96 a13.5 13.5 0 1 0 27 0 a13.5 13.5 0 1 0 -27 0zM390.96 1988.96 a13.5 13.5 0 1 0 27 0 a13.5 13.5 0 1 0 -27 0zM624.79 4553.96 a13.5 13.5 0 1 0 27 0 a13.5 13.5 0 1 0 -27 0zM741.71 4621.46 a13.5 13.5 0 1 0 27 0 a13.5 13.5 0 1 0 -27 0zM741.71 4756.46 a13.5 13.5 0 1 0 27 0 a13.5 13.5 0 1 0 -27 0zM624.79 4823.96 a13.5 13.5 0 1 0 27 0 a13.5 13.5 0 1 0 -27 0zM507.88 4756.46 a13.5 13.5 0 1 0 27 0 a13.5 13.5 0 1 0 -27 0zM507.88 4621.46 a13.5 13.5 0 1 0 27 0 a13.5 13.5 0 1 0 -27 0zM741.71 1111.46 a13.5 13.5 0 1 0 27 0 a13.5 13.5 0 1 0 -27 0zM858.63 1178.96 a13.5 13.5 0 1 0 27 0 a13.5 13.5 0 1 0 -27 0zM858.63 1313.96 a13.5 13.5 0 1 0 27 0 a13.5 13.5 0 1 0 -27 0zM624.79 1178.96 a13.5 13.5 0 1 0 27 0 a13.5 13.5 0 1 0 -27 0zM858.63 1583.96 a13.5 13.5 0 1 0 27 0 a13.5 13.5 0 1 0 -27 0zM858.63 1718.96 a13.5 13.5 0 1 0 27 0 a13.5 13.5 0 1 0 -27 0zM741.71 1786.46 a13.5 13.5 0 1 0 27 0 a13.5 13.5 0 1 0 -27 0zM624.79 1718.96 a13.5 13.5 0 1 0 27 0 a13.5 13.5 0 1 0 -27 0zM741.71 1921.46 a13.5 13.5 0 1 0 27 0 a13.5 13.5 0 1 0 -27 0zM858.63 1988.96 a13.5 13.5 0 1 0 27 0 a13.5 13.5 0 1 0 -27 0zM858.63 2123.96 a13.5 13.5 0 1 0 27 0 a13.5 13.5 0 1 0 -27 0zM741.71 2191.46 a13.5 13.5 0 1 0 27 0 a13.5 13.5 0 1 0 -27 0zM741.71 2731.46 a13.5 13.5 0 1 0 27 0 a13.5 13.5 0 1 0 -27 0zM858.63 2798.96 a13.5 13.5 0 1 0 27 0 a13.5 13.5 0 1 0 -27 0zM858.63 2933.96 a13.5 13.5 0 1 0 27 0 a13.5 13.5 0 1 0 -27 0zM741.71 3001.46 a13.5 13.5 0 1 0 27 0 a13.5 13.5 0 1 0 -27 0zM624.79 2933.96 a13.5 13.5 0 1 0 27 0 a13.5 13.5 0 1 0 -27 0zM624.79 2798.96 a13.5 13.5 0 1 0 27 0 a13.5 13.5 0 1 0 -27 0zM975.54 3001.46 a13.5 13.5 0 1 0 27 0 a13.5 13.5 0 1 0 -27 0zM975.54 3136.46 a13.5 13.5 0 1 0 27 0 a13.5 13.5 0 1 0 -27 0zM858.63 3203.96 a13.5 13.5 0 1 0 27 0 a13.5 13.5 0 1 0 -27 0zM741.71 3136.46 a13.5 13.5 0 1 0 27 0 a13.5 13.5 0 1 0 -27 0zM741.71 4351.46 a13.5 13.5 0 1 0 27 0 a13.5 13.5 0 1 0 -27 0zM858.63 4418.96 a13.5 13.5 0 1 0 27 0 a13.5 13.5 0 1 0 -27 0zM858.63 4553.96 a13.5 13.5 0 1 0 27 0 a13.5 13.5 0 1 0 -27 0zM624.79 4418.96 a13.5 13.5 0 1 0 27 0 a13.5 13.5 0 1 0 -27 0zM858.63 4823.96 a13.5 13.5 0 1 0 27 0 a13.5 13.5 0 1 0 -27 0zM858.63 4958.96 a13.5 13.5 0 1 0 27 0 a13.5 13.5 0 1 0 -27 0zM741.71 5026.46 a13.5 13.5 0 1 0 27 0 a13.5 13.5 0 1 0 -27 0zM624.79 4958.96 a13.5 13.5 0 1 0 27 0 a13.5 13.5 0 1 0 -27 0zM975.54 5026.46 a13.5 13.5 0 1 0 27 0 a13.5 13.5 0 1 0 -27 0zM975.54 5161.46 a13.5 13.5 0 1 0 27 0 a13.5 13.5 0 1 0 -27 0zM858.63 5228.96 a13.5 13.5 0 1 0 27 0 a13.5 13.5 0 1 0 -27 0zM741.71 5161.46 a13.5 13.5 0 1 0 27 0 a13.5 13.5 0 1 0 -27 0zM1092.46 98.96 a13.5 13.5 0 1 0 27 0 a13.5 13.5 0 1 0 -27 0zM1209.38 166.46 a13.5 13.5 0 1 0 27 0 a13.5 13.5 0 1 0 -27 0zM1209.38 301.46 a13.5 13.5 0 1 0 27 0 a13.5 13.5 0 1 0 -27 0zM1092.46 368.96 a13.5 13.5 0 1 0 27 0 a13.5 13.5 0 1 0 -27 0zM975.54 301.46 a13.5 13.5 0 1 0 27 0 a13.5 13.5 0 1 0 -27 0zM975.54 166.46 a13.5 13.5 0 1 0 27 0 a13.5 13.5 0 1 0 -27 0zM1092.46 503.96 a13.5 13.5 0 1 0 27 0 a13.5 13.5 0 1 0 -27 0zM975.54 571.46 a13.5 13.5 0 1 0 27 0 a13.5 13.5 0 1 0 -27 0zM858.63 503.96 a13.5 13.5 0 1 0 27 0 a13.5 13.5 0 1 0 -27 0zM858.63 368.96 a13.5 13.5 0 1 0 27 0 a13.5 13.5 0 1 0 -27 0zM975.54 706.46 a13.5 13.5 0 1 0 27 0 a13.5 13.5 0 1 0 -27 0zM1092.46 773.96 a13.5 13.5 0 1 0 27 0 a13.5 13.5 0 1 0 -27 0zM1092.46 908.96 a13.5 13.5 0 1 0 27 0 a13.5 13.5 0 1 0 -27 0zM975.54 976.46 a13.5 13.5 0 1 0 27 0 a13.5 13.5 0 1 0 -27 0zM858.63 908.96 a13.5 13.5 0 1 0 27 0 a13.5 13.5 0 1 0 -27 0zM858.63 773.96 a13.5 13.5 0 1 0 27 0 a13.5 13.5 0 1 0 -27 0zM1092.46 1313.96 a13.5 13.5 0 1 0 27 0 a13.5 13.5 0 1 0 -27 0zM1209.38 1381.46 a13.5 13.5 0 1 0 27 0 a13.5 13.5 0 1 0 -27 0zM1209.38 1516.46 a13.5 13.5 0 1 0 27 0 a13.5 13.5 0 1 0 -27 0zM1092.46 1583.96 a13.5 13.5 0 1 0 27 0 a13.5 13.5 0 1 0 -27 0zM975.54 1516.46 a13.5 13.5 0 1 0 27 0 a13.5 13.5 0 1 0 -27 0zM975.54 1381.46 a13.5 13.5 0 1 0 27 0 a13.5 13.5 0 1 0 -27 0zM1092.46 1718.96 a13.5 13.5 0 1 0 27 0 a13.5 13.5 0 1 0 -27 0zM975.54 1786.46 a13.5 13.5 0 1 0 27 0 a13.5 13.5 0 1 0 -27 0zM1092.46 2528.96 a13.5 13.5 0 1 0 27 0 a13.5 13.5 0 1 0 -27 0zM1209.38 2596.46 a13.5 13.5 0 1 0 27 0 a13.5 13.5 0 1 0 -27 0zM1209.38 2731.46 a13.5 13.5 0 1 0 27 0 a13.5 13.5 0 1 0 -27 0zM1092.46 2798.96 a13.5 13.5 0 1 0 27 0 a13.5 13.5 0 1 0 -27 0zM975.54 2731.46 a13.5 13.5 0 1 0 27 0 a13.5 13.5 0 1 0 -27 0zM975.54 2596.46 a13.5 13.5 0 1 0 27 0 a13.5 13.5 0 1 0 -27 0zM1326.29 503.96 a13.5 13.5 0 1 0 27 0 a13.5 13.5 0 1 0 -27 0zM1443.21 571.46 a13.5 13.5 0 1 0 27 0 a13.5 13.5 0 1 0 -27 0zM1443.21 706.46 a13.5 13.5 0 1 0 27 0 a13.5 13.5 0 1 0 -27 0zM1326.29 773.96 a13.5 13.5 0 1 0 27 0 a13.5 13.5 0 1 0 -27 0zM1209.38 706.46 a13.5 13.5 0 1 0 27 0 a13.5 13.5 0 1 0 -27 0zM1209.38 571.46 a13.5 13.5 0 1 0 27 0 a13.5 13.5 0 1 0 -27 0zM1326.29 2123.96 a13.5 13.5 0 1 0 27 0 a13.5 13.5 0 1 0 -27 0zM1443.21 2191.46 a13.5 13.5 0 1 0 27 0 a13.5 13.5 0 1 0 -27 0zM1443.21 2326.46 a13.5 13.5 0 1 0 27 0 a13.5 13.5 0 1 0 -27 0zM1326.29 2393.96 a13.5 13.5 0 1 0 27 0 a13.5 13.5 0 1 0 -27 0zM1209.38 2326.46 a13.5 13.5 0 1 0 27 0 a13.5 13.5 0 1 0 -27 0zM1209.38 2191.46 a13.5 13.5 0 1 0 27 0 a13.5 13.5 0 1 0 -27 0zM1326.29 2528.96 a13.5 13.5 0 1 0 27 0 a13.5 13.5 0 1 0 -27 0zM1443.21 2596.46 a13.5 13.5 0 1 0 27 0 a13.5 13.5 0 1 0 -27 0zM1443.21 2731.46 a13.5 13.5 0 1 0 27 0 a13.5 13.5 0 1 0 -27 0zM1326.29 2798.96 a13.5 13.5 0 1 0 27 0 a13.5 13.5 0 1 0 -27 0zM1326.29 4553.96 a13.5 13.5 0 1 0 27 0 a13.5 13.5 0 1 0 -27 0zM1443.21 4621.46 a13.5 13.5 0 1 0 27 0 a13.5 13.5 0 1 0 -27 0zM1443.21 4756.46 a13.5 13.5 0 1 0 27 0 a13.5 13.5 0 1 0 -27 0zM1326.29 4823.96 a13.5 13.5 0 1 0 27 0 a13.5 13.5 0 1 0 -27 0zM1209.38 4756.46 a13.5 13.5 0 1 0 27 0 a13.5 13.5 0 1 0 -27 0zM1209.38 4621.46 a13.5 13.5 0 1 0 27 0 a13.5 13.5 0 1 0 -27 0zM1326.29 4958.96 a13.5 13.5 0 1 0 27 0 a13.5 13.5 0 1 0 -27 0zM1443.21 5026.46 a13.5 13.5 0 1 0 27 0 a13.5 13.5 0 1 0 -27 0zM1443.21 5161.46 a13.5 13.5 0 1 0 27 0 a13.5 13.5 0 1 0 -27 0zM1326.29 5228.96 a13.5 13.5 0 1 0 27 0 a13.5 13.5 0 1 0 -27 0zM1209.38 5161.46 a13.5 13.5 0 1 0 27 0 a13.5 13.5 0 1 0 -27 0zM1209.38 5026.46 a13.5 13.5 0 1 0 27 0 a13.5 13.5 0 1 0 -27 0zM1443.21 -103.54 a13.5 13.5 0 1 0 27 0 a13.5 13.5 0 1 0 -27 0zM1560.13 -36.04 a13.5 13.5 0 1 0 27 0 a13.5 13.5 0 1 0 -27 0zM1560.13 98.96 a13.5 13.5 0 1 0 27 0 a13.5 13.5 0 1 0 -27 0zM1443.21 166.46 a13.5 13.5 0 1 0 27 0 a13.5 13.5 0 1 0 -27 0zM1326.29 98.96 a13.5 13.5 0 1 0 27 0 a13.5 13.5 0 1 0 -27 0zM1326.29 -36.04 a13.5 13.5 0 1 0 27 0 a13.5 13.5 0 1 0 -27 0zM1560.13 908.96 a13.5 13.5 0 1 0 27 0 a13.5 13.5 0 1 0 -27 0zM1677.04 976.46 a13.5 13.5 0 1 0 27 0 a13.5 13.5 0 1 0 -27 0zM1677.04 1111.46 a13.5 13.5 0 1 0 27 0 a13.5 13.5 0 1 0 -27 0zM1560.13 1178.96 a13.5 13.5 0 1 0 27 0 a13.5 13.5 0 1 0 -27 0zM1443.21 1111.46 a13.5 13.5 0 1 0 27 0 a13.5 13.5 0 1 0 -27 0zM1443.21 976.46 a13.5 13.5 0 1 0 27 0 a13.5 13.5 0 1 0 -27 0zM1560.13 1313.96 a13.5 13.5 0 1 0 27 0 a13.5 13.5 0 1 0 -27 0zM1443.21 1381.46 a13.5 13.5 0 1 0 27 0 a13.5 13.5 0 1 0 -27 0zM1326.29 1313.96 a13.5 13.5 0 1 0 27 0 a13.5 13.5 0 1 0 -27 0zM1326.29 1178.96 a13.5 13.5 0 1 0 27 0 a13.5 13.5 0 1 0 -27 0zM1560.13 1718.96 a13.5 13.5 0 1 0 27 0 a13.5 13.5 0 1 0 -27 0zM1677.04 1786.46 a13.5 13.5 0 1 0 27 0 a13.5 13.5 0 1 0 -27 0zM1677.04 1921.46 a13.5 13.5 0 1 0 27 0 a13.5 13.5 0 1 0 -27 0zM1560.13 1988.96 a13.5 13.5 0 1 0 27 0 a13.5 13.5 0 1 0 -27 0zM1443.21 1921.46 a13.5 13.5 0 1 0 27 0 a13.5 13.5 0 1 0 -27 0zM1443.21 1786.46 a13.5 13.5 0 1 0 27 0 a13.5 13.5 0 1 0 -27 0zM1443.21 3541.46 a13.5 13.5 0 1 0 27 0 a13.5 13.5 0 1 0 -27 0zM1560.13 3608.96 a13.5 13.5 0 1 0 27 0 a13.5 13.5 0 1 0 -27 0zM1560.13 3743.96 a13.5 13.5 0 1 0 27 0 a13.5 13.5 0 1 0 -27 0zM1443.21 3811.46 a13.5 13.5 0 1 0 27 0 a13.5 13.5 0 1 0 -27 0zM1326.29 3743.96 a13.5 13.5 0 1 0 27 0 a13.5 13.5 0 1 0 -27 0zM1326.29 3608.96 a13.5 13.5 0 1 0 27 0 a13.5 13.5 0 1 0 -27 0zM1560.13 4958.96 a13.5 13.5 0 1 0 27 0 a13.5 13.5 0 1 0 -27 0zM1677.04 5026.46 a13.5 13.5 0 1 0 27 0 a13.5 13.5 0 1 0 -27 0zM1677.04 5161.46 a13.5 13.5 0 1 0 27 0 a13.5 13.5 0 1 0 -27 0zM1560.13 5228.96 a13.5 13.5 0 1 0 27 0 a13.5 13.5 0 1 0 -27 0zM1793.96 1313.96 a13.5 13.5 0 1 0 27 0 a13.5 13.5 0 1 0 -27 0zM1910.88 1381.46 a13.5 13.5 0 1 0 27 0 a13.5 13.5 0 1 0 -27 0zM1910.88 1516.46 a13.5 13.5 0 1 0 27 0 a13.5 13.5 0 1 0 -27 0zM1793.96 1583.96 a13.5 13.5 0 1 0 27 0 a13.5 13.5 0 1 0 -27 0zM1677.04 1516.46 a13.5 13.5 0 1 0 27 0 a13.5 13.5 0 1 0 -27 0zM1677.04 1381.46 a13.5 13.5 0 1 0 27 0 a13.5 13.5 0 1 0 -27 0zM1793.96 2933.96 a13.5 13.5 0 1 0 27 0 a13.5 13.5 0 1 0 -27 0zM1910.88 3001.46 a13.5 13.5 0 1 0 27 0 a13.5 13.5 0 1 0 -27 0zM1910.88 3136.46 a13.5 13.5 0 1 0 27 0 a13.5 13.5 0 1 0 -27 0zM1793.96 3203.96 a13.5 13.5 0 1 0 27 0 a13.5 13.5 0 1 0 -27 0zM1677.04 3136.46 a13.5 13.5 0 1 0 27 0 a13.5 13.5 0 1 0 -27 0zM1677.04 3001.46 a13.5 13.5 0 1 0 27 0 a13.5 13.5 0 1 0 -27 0zM1677.04 4351.46 a13.5 13.5 0 1 0 27 0 a13.5 13.5 0 1 0 -27 0zM1793.96 4418.96 a13.5 13.5 0 1 0 27 0 a13.5 13.5 0 1 0 -27 0zM1793.96 4553.96 a13.5 13.5 0 1 0 27 0 a13.5 13.5 0 1 0 -27 0zM1677.04 4621.46 a13.5 13.5 0 1 0 27 0 a13.5 13.5 0 1 0 -27 0zM1560.13 4553.96 a13.5 13.5 0 1 0 27 0 a13.5 13.5 0 1 0 -27 0zM1560.13 4418.96 a13.5 13.5 0 1 0 27 0 a13.5 13.5 0 1 0 -27 0zM1910.88 4621.46 a13.5 13.5 0 1 0 27 0 a13.5 13.5 0 1 0 -27 0zM1910.88 4756.46 a13.5 13.5 0 1 0 27 0 a13.5 13.5 0 1 0 -27 0zM1793.96 4823.96 a13.5 13.5 0 1 0 27 0 a13.5 13.5 0 1 0 -27 0zM1677.04 4756.46 a13.5 13.5 0 1 0 27 0 a13.5 13.5 0 1 0 -27 0zM2027.79 908.96 a13.5 13.5 0 1 0 27 0 a13.5 13.5 0 1 0 -27 0zM2144.71 976.46 a13.5 13.5 0 1 0 27 0 a13.5 13.5 0 1 0 -27 0zM2144.71 1111.46 a13.5 13.5 0 1 0 27 0 a13.5 13.5 0 1 0 -27 0zM2027.79 1178.96 a13.5 13.5 0 1 0 27 0 a13.5 13.5 0 1 0 -27 0zM1910.88 1111.46 a13.5 13.5 0 1 0 27 0 a13.5 13.5 0 1 0 -27 0zM1910.88 976.46 a13.5 13.5 0 1 0 27 0 a13.5 13.5 0 1 0 -27 0zM2027.79 2933.96 a13.5 13.5 0 1 0 27 0 a13.5 13.5 0 1 0 -27 0zM2144.71 3001.46 a13.5 13.5 0 1 0 27 0 a13.5 13.5 0 1 0 -27 0zM2144.71 3136.46 a13.5 13.5 0 1 0 27 0 a13.5 13.5 0 1 0 -27 0zM2027.79 3203.96 a13.5 13.5 0 1 0 27 0 a13.5 13.5 0 1 0 -27 0zM2027.79 3338.96 a13.5 13.5 0 1 0 27 0 a13.5 13.5 0 1 0 -27 0zM1910.88 3406.46 a13.5 13.5 0 1 0 27 0 a13.5 13.5 0 1 0 -27 0zM1793.96 3338.96 a13.5 13.5 0 1 0 27 0 a13.5 13.5 0 1 0 -27 0zM1910.88 4351.46 a13.5 13.5 0 1 0 27 0 a13.5 13.5 0 1 0 -27 0zM2027.79 4418.96 a13.5 13.5 0 1 0 27 0 a13.5 13.5 0 1 0 -27 0zM2027.79 4553.96 a13.5 13.5 0 1 0 27 0 a13.5 13.5 0 1 0 -27 0zM2027.79 4823.96 a13.5 13.5 0 1 0 27 0 a13.5 13.5 0 1 0 -27 0zM2027.79 4958.96 a13.5 13.5 0 1 0 27 0 a13.5 13.5 0 1 0 -27 0zM1910.88 5026.46 a13.5 13.5 0 1 0 27 0 a13.5 13.5 0 1 0 -27 0zM1793.96 4958.96 a13.5 13.5 0 1 0 27 0 a13.5 13.5 0 1 0 -27 0zM2144.71 5026.46 a13.5 13.5 0 1 0 27 0 a13.5 13.5 0 1 0 -27 0zM2144.71 5161.46 a13.5 13.5 0 1 0 27 0 a13.5 13.5 0 1 0 -27 0zM2027.79 5228.96 a13.5 13.5 0 1 0 27 0 a13.5 13.5 0 1 0 -27 0zM1910.88 5161.46 a13.5 13.5 0 1 0 27 0 a13.5 13.5 0 1 0 -27 0z" fill="url(&quot;#SvgjsLinearGradient3420&quot;)"></path><path d="M26.93 -42.93L150.78 28.57L150.78 171.57L26.93 243.07L-96.92 171.57L-96.92 28.57zM26.93 386.07L150.78 457.57L150.78 600.57L26.93 672.07L-96.92 600.57L-96.92 457.57zM150.78 600.57L274.62 672.07L274.62 815.07L150.78 886.57L26.93 815.07L26.93 672.07zM26.93 1673.07L150.78 1744.57L150.78 1887.57L26.93 1959.07L-96.92 1887.57L-96.92 1744.57zM26.93 2102.07L150.78 2173.57L150.78 2316.57L26.93 2388.07L-96.92 2316.57L-96.92 2173.57zM150.78 2316.57L274.62 2388.07L274.62 2531.07L150.78 2602.57L26.93 2531.07L26.93 2388.07zM150.78 2745.57L274.62 2817.07L274.62 2960.07L150.78 3031.57L26.93 2960.07L26.93 2817.07zM26.93 3389.07L150.78 3460.57L150.78 3603.57L26.93 3675.07L-96.92 3603.57L-96.92 3460.57zM26.93 3818.07L150.78 3889.57L150.78 4032.57L26.93 4104.07L-96.92 4032.57L-96.92 3889.57zM26.93 4247.07L150.78 4318.57L150.78 4461.57L26.93 4533.07L-96.92 4461.57L-96.92 4318.57zM274.62 386.07L398.47 457.57L398.47 600.57L274.62 672.07L150.78 600.57L150.78 457.57zM398.47 1029.57L522.31 1101.07L522.31 1244.07L398.47 1315.57L274.62 1244.07L274.62 1101.07zM398.47 2316.57L522.31 2388.07L522.31 2531.07L398.47 2602.57L274.62 2531.07L274.62 2388.07zM274.62 2531.07L398.47 2602.57L398.47 2745.57L274.62 2817.07L150.78 2745.57L150.78 2602.57zM274.62 2960.07L398.47 3031.57L398.47 3174.57L274.62 3246.07L150.78 3174.57L150.78 3031.57zM274.62 3389.07L398.47 3460.57L398.47 3603.57L274.62 3675.07L150.78 3603.57L150.78 3460.57zM274.62 3818.07L398.47 3889.57L398.47 4032.57L274.62 4104.07L150.78 4032.57L150.78 3889.57zM398.47 4032.57L522.31 4104.07L522.31 4247.07L398.47 4318.57L274.62 4247.07L274.62 4104.07zM398.47 4461.57L522.31 4533.07L522.31 4676.07L398.47 4747.57L274.62 4676.07L274.62 4533.07zM274.62 4676.07L398.47 4747.57L398.47 4890.57L274.62 4962.07L150.78 4890.57L150.78 4747.57zM522.31 -42.93L646.16 28.57L646.16 171.57L522.31 243.07L398.47 171.57L398.47 28.57zM646.16 171.57L770 243.07L770 386.07L646.16 457.57L522.31 386.07L522.31 243.07zM522.31 386.07L646.16 457.57L646.16 600.57L522.31 672.07L398.47 600.57L398.47 457.57zM646.16 600.57L770 672.07L770 815.07L646.16 886.57L522.31 815.07L522.31 672.07zM646.16 1029.57L770 1101.07L770 1244.07L646.16 1315.57L522.31 1244.07L522.31 1101.07zM646.16 1458.57L770 1530.07L770 1673.07L646.16 1744.57L522.31 1673.07L522.31 1530.07zM522.31 1673.07L646.16 1744.57L646.16 1887.57L522.31 1959.07L398.47 1887.57L398.47 1744.57zM646.16 2316.57L770 2388.07L770 2531.07L646.16 2602.57L522.31 2531.07L522.31 2388.07zM646.16 2745.57L770 2817.07L770 2960.07L646.16 3031.57L522.31 2960.07L522.31 2817.07zM646.16 3174.57L770 3246.07L770 3389.07L646.16 3460.57L522.31 3389.07L522.31 3246.07zM646.16 3603.57L770 3675.07L770 3818.07L646.16 3889.57L522.31 3818.07L522.31 3675.07zM522.31 4676.07L646.16 4747.57L646.16 4890.57L522.31 4962.07L398.47 4890.57L398.47 4747.57zM770 386.07L893.85 457.57L893.85 600.57L770 672.07L646.16 600.57L646.16 457.57zM893.85 600.57L1017.69 672.07L1017.69 815.07L893.85 886.57L770 815.07L770 672.07zM770 1244.07L893.85 1315.57L893.85 1458.57L770 1530.07L646.16 1458.57L646.16 1315.57zM893.85 1458.57L1017.69 1530.07L1017.69 1673.07L893.85 1744.57L770 1673.07L770 1530.07zM770 1673.07L893.85 1744.57L893.85 1887.57L770 1959.07L646.16 1887.57L646.16 1744.57zM770 2102.07L893.85 2173.57L893.85 2316.57L770 2388.07L646.16 2316.57L646.16 2173.57zM893.85 2745.57L1017.69 2817.07L1017.69 2960.07L893.85 3031.57L770 2960.07L770 2817.07zM770 3389.07L893.85 3460.57L893.85 3603.57L770 3675.07L646.16 3603.57L646.16 3460.57zM893.85 3603.57L1017.69 3675.07L1017.69 3818.07L893.85 3889.57L770 3818.07L770 3675.07zM770 4676.07L893.85 4747.57L893.85 4890.57L770 4962.07L646.16 4890.57L646.16 4747.57zM1017.69 -42.93L1141.54 28.57L1141.54 171.57L1017.69 243.07L893.85 171.57L893.85 28.57zM1141.54 171.57L1265.38 243.07L1265.38 386.07L1141.54 457.57L1017.69 386.07L1017.69 243.07zM1017.69 386.07L1141.54 457.57L1141.54 600.57L1017.69 672.07L893.85 600.57L893.85 457.57zM1141.54 1458.57L1265.38 1530.07L1265.38 1673.07L1141.54 1744.57L1017.69 1673.07L1017.69 1530.07zM1141.54 1887.57L1265.38 1959.07L1265.38 2102.07L1141.54 2173.57L1017.69 2102.07L1017.69 1959.07zM1017.69 2102.07L1141.54 2173.57L1141.54 2316.57L1017.69 2388.07L893.85 2316.57L893.85 2173.57zM1017.69 2531.07L1141.54 2602.57L1141.54 2745.57L1017.69 2817.07L893.85 2745.57L893.85 2602.57zM1141.54 3174.57L1265.38 3246.07L1265.38 3389.07L1141.54 3460.57L1017.69 3389.07L1017.69 3246.07zM1141.54 3603.57L1265.38 3675.07L1265.38 3818.07L1141.54 3889.57L1017.69 3818.07L1017.69 3675.07zM1141.54 4461.57L1265.38 4533.07L1265.38 4676.07L1141.54 4747.57L1017.69 4676.07L1017.69 4533.07zM1017.69 4676.07L1141.54 4747.57L1141.54 4890.57L1017.69 4962.07L893.85 4890.57L893.85 4747.57zM1389.23 171.57L1513.07 243.07L1513.07 386.07L1389.23 457.57L1265.38 386.07L1265.38 243.07zM1389.23 600.57L1513.07 672.07L1513.07 815.07L1389.23 886.57L1265.38 815.07L1265.38 672.07zM1389.23 1029.57L1513.07 1101.07L1513.07 1244.07L1389.23 1315.57L1265.38 1244.07L1265.38 1101.07zM1389.23 1887.57L1513.07 1959.07L1513.07 2102.07L1389.23 2173.57L1265.38 2102.07L1265.38 1959.07zM1265.38 2531.07L1389.23 2602.57L1389.23 2745.57L1265.38 2817.07L1141.54 2745.57L1141.54 2602.57zM1389.23 2745.57L1513.07 2817.07L1513.07 2960.07L1389.23 3031.57L1265.38 2960.07L1265.38 2817.07zM1265.38 3389.07L1389.23 3460.57L1389.23 3603.57L1265.38 3675.07L1141.54 3603.57L1141.54 3460.57zM1389.23 3603.57L1513.07 3675.07L1513.07 3818.07L1389.23 3889.57L1265.38 3818.07L1265.38 3675.07zM1265.38 3818.07L1389.23 3889.57L1389.23 4032.57L1265.38 4104.07L1141.54 4032.57L1141.54 3889.57zM1389.23 4032.57L1513.07 4104.07L1513.07 4247.07L1389.23 4318.57L1265.38 4247.07L1265.38 4104.07zM1265.38 4247.07L1389.23 4318.57L1389.23 4461.57L1265.38 4533.07L1141.54 4461.57L1141.54 4318.57zM1389.23 4890.57L1513.07 4962.07L1513.07 5105.07L1389.23 5176.57L1265.38 5105.07L1265.38 4962.07zM1636.92 171.57L1760.76 243.07L1760.76 386.07L1636.92 457.57L1513.07 386.07L1513.07 243.07zM1513.07 386.07L1636.92 457.57L1636.92 600.57L1513.07 672.07L1389.23 600.57L1389.23 457.57zM1513.07 815.07L1636.92 886.57L1636.92 1029.57L1513.07 1101.07L1389.23 1029.57L1389.23 886.57zM1513.07 1244.07L1636.92 1315.57L1636.92 1458.57L1513.07 1530.07L1389.23 1458.57L1389.23 1315.57zM1636.92 1887.57L1760.76 1959.07L1760.76 2102.07L1636.92 2173.57L1513.07 2102.07L1513.07 1959.07zM1513.07 2102.07L1636.92 2173.57L1636.92 2316.57L1513.07 2388.07L1389.23 2316.57L1389.23 2173.57zM1513.07 2960.07L1636.92 3031.57L1636.92 3174.57L1513.07 3246.07L1389.23 3174.57L1389.23 3031.57zM1513.07 3389.07L1636.92 3460.57L1636.92 3603.57L1513.07 3675.07L1389.23 3603.57L1389.23 3460.57zM1636.92 3603.57L1760.76 3675.07L1760.76 3818.07L1636.92 3889.57L1513.07 3818.07L1513.07 3675.07zM1636.92 4032.57L1760.76 4104.07L1760.76 4247.07L1636.92 4318.57L1513.07 4247.07L1513.07 4104.07zM1513.07 4247.07L1636.92 4318.57L1636.92 4461.57L1513.07 4533.07L1389.23 4461.57L1389.23 4318.57zM1636.92 4461.57L1760.76 4533.07L1760.76 4676.07L1636.92 4747.57L1513.07 4676.07L1513.07 4533.07zM1636.92 4890.57L1760.76 4962.07L1760.76 5105.07L1636.92 5176.57L1513.07 5105.07L1513.07 4962.07zM1884.61 600.57L2008.45 672.07L2008.45 815.07L1884.61 886.57L1760.76 815.07L1760.76 672.07zM1884.61 1029.57L2008.45 1101.07L2008.45 1244.07L1884.61 1315.57L1760.76 1244.07L1760.76 1101.07zM1884.61 1458.57L2008.45 1530.07L2008.45 1673.07L1884.61 1744.57L1760.76 1673.07L1760.76 1530.07zM1760.76 1673.07L1884.61 1744.57L1884.61 1887.57L1760.76 1959.07L1636.92 1887.57L1636.92 1744.57zM1884.61 1887.57L2008.45 1959.07L2008.45 2102.07L1884.61 2173.57L1760.76 2102.07L1760.76 1959.07zM1884.61 3603.57L2008.45 3675.07L2008.45 3818.07L1884.61 3889.57L1760.76 3818.07L1760.76 3675.07zM1760.76 4247.07L1884.61 4318.57L1884.61 4461.57L1760.76 4533.07L1636.92 4461.57L1636.92 4318.57zM1760.76 4676.07L1884.61 4747.57L1884.61 4890.57L1760.76 4962.07L1636.92 4890.57L1636.92 4747.57z" stroke="url(&quot;#SvgjsLinearGradient3421&quot;)" stroke-width="2"></path></g><defs><mask id="SvgjsMask3418"><rect width="1920" height="5000" fill="#ffffff"></rect></mask><linearGradient x1="-40.1%" y1="15.4%" x2="140.1%" y2="84.6%" gradientUnits="userSpaceOnUse" id="SvgjsLinearGradient3419"><stop stop-color="rgba(2, 58, 67, 1)" offset="0"></stop><stop stop-color="rgba(0, 36, 37, 1)" offset="1"></stop></linearGradient><linearGradient x1="-769.9200000000001" y1="770" x2="2689.92" y2="4230" gradientUnits="userSpaceOnUse" id="SvgjsLinearGradient3420"><stop stop-color="rgba(3, 54, 64, 1)" offset="0"></stop><stop stop-color="rgba(7, 77, 89, 1)" offset="1"></stop></linearGradient><linearGradient x1="-769.9200000000001" y1="770" x2="2689.92" y2="4230" gradientUnits="userSpaceOnUse" id="SvgjsLinearGradient3421"><stop stop-color="#0e2a47" offset="0"></stop><stop stop-color="rgba(13, 188, 218, 1)" offset="1"></stop></linearGradient></defs></svg>