<svg xmlns="http://www.w3.org/2000/svg" version="1.1" xmlns:xlink="http://www.w3.org/1999/xlink" xmlns:svgjs="http://svgjs.dev/svgjs" width="1920" height="3000" preserveAspectRatio="none" viewBox="0 0 1920 3000"><g mask="url(&quot;#SvgjsMask2806&quot;)" fill="none"><rect width="1920" height="3000" x="0" y="0" fill="url(&quot;#SvgjsLinearGradient2807&quot;)"></rect><path d="M63.96 265.71L120.26 298.21L120.26 363.21L63.96 395.71L7.67 363.21L7.67 298.21zM7.67 753.21L63.96 785.71L63.96 850.71L7.67 883.21L-48.62 850.71L-48.62 785.71zM63.96 1825.71L120.26 1858.21L120.26 1923.21L63.96 1955.71L7.67 1923.21L7.67 1858.21zM7.67 1923.21L63.96 1955.71L63.96 2020.71L7.67 2053.21L-48.62 2020.71L-48.62 1955.71zM120.26 2508.21L176.55 2540.71L176.55 2605.71L120.26 2638.21L63.96 2605.71L63.96 2540.71zM289.14 265.71L345.43 298.21L345.43 363.21L289.14 395.71L232.84 363.21L232.84 298.21zM232.84 948.21L289.14 980.71L289.14 1045.71L232.84 1078.21L176.55 1045.71L176.55 980.71zM232.84 1143.21L289.14 1175.71L289.14 1240.71L232.84 1273.21L176.55 1240.71L176.55 1175.71zM289.14 1630.71L345.43 1663.21L345.43 1728.21L289.14 1760.71L232.84 1728.21L232.84 1663.21zM232.84 2118.21L289.14 2150.71L289.14 2215.71L232.84 2248.21L176.55 2215.71L176.55 2150.71zM289.14 2215.71L345.43 2248.21L345.43 2313.21L289.14 2345.71L232.84 2313.21L232.84 2248.21zM232.84 2508.21L289.14 2540.71L289.14 2605.71L232.84 2638.21L176.55 2605.71L176.55 2540.71zM232.84 2703.21L289.14 2735.71L289.14 2800.71L232.84 2833.21L176.55 2800.71L176.55 2735.71zM401.72 1630.71L458.02 1663.21L458.02 1728.21L401.72 1760.71L345.43 1728.21L345.43 1663.21zM458.02 -26.79L514.31 5.71L514.31 70.71L458.02 103.21L401.72 70.71L401.72 5.71zM514.31 70.71L570.6 103.21L570.6 168.21L514.31 200.71L458.02 168.21L458.02 103.21zM458.02 948.21L514.31 980.71L514.31 1045.71L458.02 1078.21L401.72 1045.71L401.72 980.71zM458.02 1923.21L514.31 1955.71L514.31 2020.71L458.02 2053.21L401.72 2020.71L401.72 1955.71zM458.02 2118.21L514.31 2150.71L514.31 2215.71L458.02 2248.21L401.72 2215.71L401.72 2150.71zM514.31 2605.71L570.6 2638.21L570.6 2703.21L514.31 2735.71L458.02 2703.21L458.02 2638.21zM458.02 2703.21L514.31 2735.71L514.31 2800.71L458.02 2833.21L401.72 2800.71L401.72 2735.71zM570.6 558.21L626.9 590.71L626.9 655.71L570.6 688.21L514.31 655.71L514.31 590.71zM626.9 655.71L683.19 688.21L683.19 753.21L626.9 785.71L570.6 753.21L570.6 688.21zM626.9 850.71L683.19 883.21L683.19 948.21L626.9 980.71L570.6 948.21L570.6 883.21zM570.6 1143.21L626.9 1175.71L626.9 1240.71L570.6 1273.21L514.31 1240.71L514.31 1175.71zM570.6 1923.21L626.9 1955.71L626.9 2020.71L570.6 2053.21L514.31 2020.71L514.31 1955.71zM739.48 1240.71L795.78 1273.21L795.78 1338.21L739.48 1370.71L683.19 1338.21L683.19 1273.21zM795.78 -26.79L852.07 5.71L852.07 70.71L795.78 103.21L739.48 70.71L739.48 5.71zM852.07 850.71L908.36 883.21L908.36 948.21L852.07 980.71L795.78 948.21L795.78 883.21zM795.78 948.21L852.07 980.71L852.07 1045.71L795.78 1078.21L739.48 1045.71L739.48 980.71zM852.07 1240.71L908.36 1273.21L908.36 1338.21L852.07 1370.71L795.78 1338.21L795.78 1273.21zM795.78 2703.21L852.07 2735.71L852.07 2800.71L795.78 2833.21L739.48 2800.71L739.48 2735.71zM964.66 1435.71L1020.95 1468.21L1020.95 1533.21L964.66 1565.71L908.36 1533.21L908.36 1468.21zM964.66 2410.71L1020.95 2443.21L1020.95 2508.21L964.66 2540.71L908.36 2508.21L908.36 2443.21zM964.66 2800.71L1020.95 2833.21L1020.95 2898.21L964.66 2930.71L908.36 2898.21L908.36 2833.21zM1077.24 1435.71L1133.54 1468.21L1133.54 1533.21L1077.24 1565.71L1020.95 1533.21L1020.95 1468.21zM1020.95 1533.21L1077.24 1565.71L1077.24 1630.71L1020.95 1663.21L964.66 1630.71L964.66 1565.71zM1133.54 -26.79L1189.83 5.71L1189.83 70.71L1133.54 103.21L1077.24 70.71L1077.24 5.71zM1133.54 753.21L1189.83 785.71L1189.83 850.71L1133.54 883.21L1077.24 850.71L1077.24 785.71zM1133.54 948.21L1189.83 980.71L1189.83 1045.71L1133.54 1078.21L1077.24 1045.71L1077.24 980.71zM1133.54 1143.21L1189.83 1175.71L1189.83 1240.71L1133.54 1273.21L1077.24 1240.71L1077.24 1175.71zM1133.54 1338.21L1189.83 1370.71L1189.83 1435.71L1133.54 1468.21L1077.24 1435.71L1077.24 1370.71zM1189.83 1630.71L1246.12 1663.21L1246.12 1728.21L1189.83 1760.71L1133.54 1728.21L1133.54 1663.21zM1133.54 2703.21L1189.83 2735.71L1189.83 2800.71L1133.54 2833.21L1077.24 2800.71L1077.24 2735.71zM1189.83 2800.71L1246.12 2833.21L1246.12 2898.21L1189.83 2930.71L1133.54 2898.21L1133.54 2833.21zM1246.12 753.21L1302.41 785.71L1302.41 850.71L1246.12 883.21L1189.83 850.71L1189.83 785.71zM1246.12 1143.21L1302.41 1175.71L1302.41 1240.71L1246.12 1273.21L1189.83 1240.71L1189.83 1175.71zM1246.12 2508.21L1302.41 2540.71L1302.41 2605.71L1246.12 2638.21L1189.83 2605.71L1189.83 2540.71zM1246.12 2703.21L1302.41 2735.71L1302.41 2800.71L1246.12 2833.21L1189.83 2800.71L1189.83 2735.71zM1358.71 363.21L1415 395.71L1415 460.71L1358.71 493.21L1302.41 460.71L1302.41 395.71zM1415 1045.71L1471.29 1078.21L1471.29 1143.21L1415 1175.71L1358.71 1143.21L1358.71 1078.21zM1358.71 1338.21L1415 1370.71L1415 1435.71L1358.71 1468.21L1302.41 1435.71L1302.41 1370.71zM1358.71 2313.21L1415 2345.71L1415 2410.71L1358.71 2443.21L1302.41 2410.71L1302.41 2345.71zM1415 2995.71L1471.29 3028.21L1471.29 3093.21L1415 3125.71L1358.71 3093.21L1358.71 3028.21zM1527.59 460.71L1583.88 493.21L1583.88 558.21L1527.59 590.71L1471.29 558.21L1471.29 493.21zM1471.29 948.21L1527.59 980.71L1527.59 1045.71L1471.29 1078.21L1415 1045.71L1415 980.71zM1527.59 1825.71L1583.88 1858.21L1583.88 1923.21L1527.59 1955.71L1471.29 1923.21L1471.29 1858.21zM1527.59 2605.71L1583.88 2638.21L1583.88 2703.21L1527.59 2735.71L1471.29 2703.21L1471.29 2638.21zM1640.17 70.71L1696.47 103.21L1696.47 168.21L1640.17 200.71L1583.88 168.21L1583.88 103.21zM1583.88 753.21L1640.17 785.71L1640.17 850.71L1583.88 883.21L1527.59 850.71L1527.59 785.71zM1583.88 1923.21L1640.17 1955.71L1640.17 2020.71L1583.88 2053.21L1527.59 2020.71L1527.59 1955.71zM1640.17 2995.71L1696.47 3028.21L1696.47 3093.21L1640.17 3125.71L1583.88 3093.21L1583.88 3028.21zM1696.47 1143.21L1752.76 1175.71L1752.76 1240.71L1696.47 1273.21L1640.17 1240.71L1640.17 1175.71zM1809.05 1533.21L1865.35 1565.71L1865.35 1630.71L1809.05 1663.21L1752.76 1630.71L1752.76 1565.71zM1809.05 1728.21L1865.35 1760.71L1865.35 1825.71L1809.05 1858.21L1752.76 1825.71L1752.76 1760.71zM1865.35 2020.71L1921.64 2053.21L1921.64 2118.21L1865.35 2150.71L1809.05 2118.21L1809.05 2053.21zM1977.93 70.71L2034.23 103.21L2034.23 168.21L1977.93 200.71L1921.64 168.21L1921.64 103.21zM1921.64 1533.21L1977.93 1565.71L1977.93 1630.71L1921.64 1663.21L1865.35 1630.71L1865.35 1565.71zM1977.93 1825.71L2034.23 1858.21L2034.23 1923.21L1977.93 1955.71L1921.64 1923.21L1921.64 1858.21zM1977.93 2995.71L2034.23 3028.21L2034.23 3093.21L1977.93 3125.71L1921.64 3093.21L1921.64 3028.21z" stroke="rgba(5, 51, 59, 1)" stroke-width="2"></path><path d="M57.46 265.71 a6.5 6.5 0 1 0 13 0 a6.5 6.5 0 1 0 -13 0zM113.76 298.21 a6.5 6.5 0 1 0 13 0 a6.5 6.5 0 1 0 -13 0zM113.76 363.21 a6.5 6.5 0 1 0 13 0 a6.5 6.5 0 1 0 -13 0zM57.46 395.71 a6.5 6.5 0 1 0 13 0 a6.5 6.5 0 1 0 -13 0zM1.17 363.21 a6.5 6.5 0 1 0 13 0 a6.5 6.5 0 1 0 -13 0zM1.17 298.21 a6.5 6.5 0 1 0 13 0 a6.5 6.5 0 1 0 -13 0zM1.17 753.21 a6.5 6.5 0 1 0 13 0 a6.5 6.5 0 1 0 -13 0zM57.46 785.71 a6.5 6.5 0 1 0 13 0 a6.5 6.5 0 1 0 -13 0zM57.46 850.71 a6.5 6.5 0 1 0 13 0 a6.5 6.5 0 1 0 -13 0zM1.17 883.21 a6.5 6.5 0 1 0 13 0 a6.5 6.5 0 1 0 -13 0zM-55.12 850.71 a6.5 6.5 0 1 0 13 0 a6.5 6.5 0 1 0 -13 0zM-55.12 785.71 a6.5 6.5 0 1 0 13 0 a6.5 6.5 0 1 0 -13 0zM57.46 1825.71 a6.5 6.5 0 1 0 13 0 a6.5 6.5 0 1 0 -13 0zM113.76 1858.21 a6.5 6.5 0 1 0 13 0 a6.5 6.5 0 1 0 -13 0zM113.76 1923.21 a6.5 6.5 0 1 0 13 0 a6.5 6.5 0 1 0 -13 0zM57.46 1955.71 a6.5 6.5 0 1 0 13 0 a6.5 6.5 0 1 0 -13 0zM1.17 1923.21 a6.5 6.5 0 1 0 13 0 a6.5 6.5 0 1 0 -13 0zM1.17 1858.21 a6.5 6.5 0 1 0 13 0 a6.5 6.5 0 1 0 -13 0zM57.46 2020.71 a6.5 6.5 0 1 0 13 0 a6.5 6.5 0 1 0 -13 0zM1.17 2053.21 a6.5 6.5 0 1 0 13 0 a6.5 6.5 0 1 0 -13 0zM-55.12 2020.71 a6.5 6.5 0 1 0 13 0 a6.5 6.5 0 1 0 -13 0zM-55.12 1955.71 a6.5 6.5 0 1 0 13 0 a6.5 6.5 0 1 0 -13 0zM113.76 2508.21 a6.5 6.5 0 1 0 13 0 a6.5 6.5 0 1 0 -13 0zM170.05 2540.71 a6.5 6.5 0 1 0 13 0 a6.5 6.5 0 1 0 -13 0zM170.05 2605.71 a6.5 6.5 0 1 0 13 0 a6.5 6.5 0 1 0 -13 0zM113.76 2638.21 a6.5 6.5 0 1 0 13 0 a6.5 6.5 0 1 0 -13 0zM57.46 2605.71 a6.5 6.5 0 1 0 13 0 a6.5 6.5 0 1 0 -13 0zM57.46 2540.71 a6.5 6.5 0 1 0 13 0 a6.5 6.5 0 1 0 -13 0zM282.64 265.71 a6.5 6.5 0 1 0 13 0 a6.5 6.5 0 1 0 -13 0zM338.93 298.21 a6.5 6.5 0 1 0 13 0 a6.5 6.5 0 1 0 -13 0zM338.93 363.21 a6.5 6.5 0 1 0 13 0 a6.5 6.5 0 1 0 -13 0zM282.64 395.71 a6.5 6.5 0 1 0 13 0 a6.5 6.5 0 1 0 -13 0zM226.34 363.21 a6.5 6.5 0 1 0 13 0 a6.5 6.5 0 1 0 -13 0zM226.34 298.21 a6.5 6.5 0 1 0 13 0 a6.5 6.5 0 1 0 -13 0zM226.34 948.21 a6.5 6.5 0 1 0 13 0 a6.5 6.5 0 1 0 -13 0zM282.64 980.71 a6.5 6.5 0 1 0 13 0 a6.5 6.5 0 1 0 -13 0zM282.64 1045.71 a6.5 6.5 0 1 0 13 0 a6.5 6.5 0 1 0 -13 0zM226.34 1078.21 a6.5 6.5 0 1 0 13 0 a6.5 6.5 0 1 0 -13 0zM170.05 1045.71 a6.5 6.5 0 1 0 13 0 a6.5 6.5 0 1 0 -13 0zM170.05 980.71 a6.5 6.5 0 1 0 13 0 a6.5 6.5 0 1 0 -13 0zM226.34 1143.21 a6.5 6.5 0 1 0 13 0 a6.5 6.5 0 1 0 -13 0zM282.64 1175.71 a6.5 6.5 0 1 0 13 0 a6.5 6.5 0 1 0 -13 0zM282.64 1240.71 a6.5 6.5 0 1 0 13 0 a6.5 6.5 0 1 0 -13 0zM226.34 1273.21 a6.5 6.5 0 1 0 13 0 a6.5 6.5 0 1 0 -13 0zM170.05 1240.71 a6.5 6.5 0 1 0 13 0 a6.5 6.5 0 1 0 -13 0zM170.05 1175.71 a6.5 6.5 0 1 0 13 0 a6.5 6.5 0 1 0 -13 0zM282.64 1630.71 a6.5 6.5 0 1 0 13 0 a6.5 6.5 0 1 0 -13 0zM338.93 1663.21 a6.5 6.5 0 1 0 13 0 a6.5 6.5 0 1 0 -13 0zM338.93 1728.21 a6.5 6.5 0 1 0 13 0 a6.5 6.5 0 1 0 -13 0zM282.64 1760.71 a6.5 6.5 0 1 0 13 0 a6.5 6.5 0 1 0 -13 0zM226.34 1728.21 a6.5 6.5 0 1 0 13 0 a6.5 6.5 0 1 0 -13 0zM226.34 1663.21 a6.5 6.5 0 1 0 13 0 a6.5 6.5 0 1 0 -13 0zM226.34 2118.21 a6.5 6.5 0 1 0 13 0 a6.5 6.5 0 1 0 -13 0zM282.64 2150.71 a6.5 6.5 0 1 0 13 0 a6.5 6.5 0 1 0 -13 0zM282.64 2215.71 a6.5 6.5 0 1 0 13 0 a6.5 6.5 0 1 0 -13 0zM226.34 2248.21 a6.5 6.5 0 1 0 13 0 a6.5 6.5 0 1 0 -13 0zM170.05 2215.71 a6.5 6.5 0 1 0 13 0 a6.5 6.5 0 1 0 -13 0zM170.05 2150.71 a6.5 6.5 0 1 0 13 0 a6.5 6.5 0 1 0 -13 0zM338.93 2248.21 a6.5 6.5 0 1 0 13 0 a6.5 6.5 0 1 0 -13 0zM338.93 2313.21 a6.5 6.5 0 1 0 13 0 a6.5 6.5 0 1 0 -13 0zM282.64 2345.71 a6.5 6.5 0 1 0 13 0 a6.5 6.5 0 1 0 -13 0zM226.34 2313.21 a6.5 6.5 0 1 0 13 0 a6.5 6.5 0 1 0 -13 0zM226.34 2508.21 a6.5 6.5 0 1 0 13 0 a6.5 6.5 0 1 0 -13 0zM282.64 2540.71 a6.5 6.5 0 1 0 13 0 a6.5 6.5 0 1 0 -13 0zM282.64 2605.71 a6.5 6.5 0 1 0 13 0 a6.5 6.5 0 1 0 -13 0zM226.34 2638.21 a6.5 6.5 0 1 0 13 0 a6.5 6.5 0 1 0 -13 0zM226.34 2703.21 a6.5 6.5 0 1 0 13 0 a6.5 6.5 0 1 0 -13 0zM282.64 2735.71 a6.5 6.5 0 1 0 13 0 a6.5 6.5 0 1 0 -13 0zM282.64 2800.71 a6.5 6.5 0 1 0 13 0 a6.5 6.5 0 1 0 -13 0zM226.34 2833.21 a6.5 6.5 0 1 0 13 0 a6.5 6.5 0 1 0 -13 0zM170.05 2800.71 a6.5 6.5 0 1 0 13 0 a6.5 6.5 0 1 0 -13 0zM170.05 2735.71 a6.5 6.5 0 1 0 13 0 a6.5 6.5 0 1 0 -13 0zM395.22 1630.71 a6.5 6.5 0 1 0 13 0 a6.5 6.5 0 1 0 -13 0zM451.52 1663.21 a6.5 6.5 0 1 0 13 0 a6.5 6.5 0 1 0 -13 0zM451.52 1728.21 a6.5 6.5 0 1 0 13 0 a6.5 6.5 0 1 0 -13 0zM395.22 1760.71 a6.5 6.5 0 1 0 13 0 a6.5 6.5 0 1 0 -13 0zM451.52 -26.79 a6.5 6.5 0 1 0 13 0 a6.5 6.5 0 1 0 -13 0zM507.81 5.71 a6.5 6.5 0 1 0 13 0 a6.5 6.5 0 1 0 -13 0zM507.81 70.71 a6.5 6.5 0 1 0 13 0 a6.5 6.5 0 1 0 -13 0zM451.52 103.21 a6.5 6.5 0 1 0 13 0 a6.5 6.5 0 1 0 -13 0zM395.22 70.71 a6.5 6.5 0 1 0 13 0 a6.5 6.5 0 1 0 -13 0zM395.22 5.71 a6.5 6.5 0 1 0 13 0 a6.5 6.5 0 1 0 -13 0zM564.1 103.21 a6.5 6.5 0 1 0 13 0 a6.5 6.5 0 1 0 -13 0zM564.1 168.21 a6.5 6.5 0 1 0 13 0 a6.5 6.5 0 1 0 -13 0zM507.81 200.71 a6.5 6.5 0 1 0 13 0 a6.5 6.5 0 1 0 -13 0zM451.52 168.21 a6.5 6.5 0 1 0 13 0 a6.5 6.5 0 1 0 -13 0zM451.52 948.21 a6.5 6.5 0 1 0 13 0 a6.5 6.5 0 1 0 -13 0zM507.81 980.71 a6.5 6.5 0 1 0 13 0 a6.5 6.5 0 1 0 -13 0zM507.81 1045.71 a6.5 6.5 0 1 0 13 0 a6.5 6.5 0 1 0 -13 0zM451.52 1078.21 a6.5 6.5 0 1 0 13 0 a6.5 6.5 0 1 0 -13 0zM395.22 1045.71 a6.5 6.5 0 1 0 13 0 a6.5 6.5 0 1 0 -13 0zM395.22 980.71 a6.5 6.5 0 1 0 13 0 a6.5 6.5 0 1 0 -13 0zM451.52 1923.21 a6.5 6.5 0 1 0 13 0 a6.5 6.5 0 1 0 -13 0zM507.81 1955.71 a6.5 6.5 0 1 0 13 0 a6.5 6.5 0 1 0 -13 0zM507.81 2020.71 a6.5 6.5 0 1 0 13 0 a6.5 6.5 0 1 0 -13 0zM451.52 2053.21 a6.5 6.5 0 1 0 13 0 a6.5 6.5 0 1 0 -13 0zM395.22 2020.71 a6.5 6.5 0 1 0 13 0 a6.5 6.5 0 1 0 -13 0zM395.22 1955.71 a6.5 6.5 0 1 0 13 0 a6.5 6.5 0 1 0 -13 0zM451.52 2118.21 a6.5 6.5 0 1 0 13 0 a6.5 6.5 0 1 0 -13 0zM507.81 2150.71 a6.5 6.5 0 1 0 13 0 a6.5 6.5 0 1 0 -13 0zM507.81 2215.71 a6.5 6.5 0 1 0 13 0 a6.5 6.5 0 1 0 -13 0zM451.52 2248.21 a6.5 6.5 0 1 0 13 0 a6.5 6.5 0 1 0 -13 0zM395.22 2215.71 a6.5 6.5 0 1 0 13 0 a6.5 6.5 0 1 0 -13 0zM395.22 2150.71 a6.5 6.5 0 1 0 13 0 a6.5 6.5 0 1 0 -13 0zM507.81 2605.71 a6.5 6.5 0 1 0 13 0 a6.5 6.5 0 1 0 -13 0zM564.1 2638.21 a6.5 6.5 0 1 0 13 0 a6.5 6.5 0 1 0 -13 0zM564.1 2703.21 a6.5 6.5 0 1 0 13 0 a6.5 6.5 0 1 0 -13 0zM507.81 2735.71 a6.5 6.5 0 1 0 13 0 a6.5 6.5 0 1 0 -13 0zM451.52 2703.21 a6.5 6.5 0 1 0 13 0 a6.5 6.5 0 1 0 -13 0zM451.52 2638.21 a6.5 6.5 0 1 0 13 0 a6.5 6.5 0 1 0 -13 0zM507.81 2800.71 a6.5 6.5 0 1 0 13 0 a6.5 6.5 0 1 0 -13 0zM451.52 2833.21 a6.5 6.5 0 1 0 13 0 a6.5 6.5 0 1 0 -13 0zM395.22 2800.71 a6.5 6.5 0 1 0 13 0 a6.5 6.5 0 1 0 -13 0zM395.22 2735.71 a6.5 6.5 0 1 0 13 0 a6.5 6.5 0 1 0 -13 0zM564.1 558.21 a6.5 6.5 0 1 0 13 0 a6.5 6.5 0 1 0 -13 0zM620.4 590.71 a6.5 6.5 0 1 0 13 0 a6.5 6.5 0 1 0 -13 0zM620.4 655.71 a6.5 6.5 0 1 0 13 0 a6.5 6.5 0 1 0 -13 0zM564.1 688.21 a6.5 6.5 0 1 0 13 0 a6.5 6.5 0 1 0 -13 0zM507.81 655.71 a6.5 6.5 0 1 0 13 0 a6.5 6.5 0 1 0 -13 0zM507.81 590.71 a6.5 6.5 0 1 0 13 0 a6.5 6.5 0 1 0 -13 0zM676.69 688.21 a6.5 6.5 0 1 0 13 0 a6.5 6.5 0 1 0 -13 0zM676.69 753.21 a6.5 6.5 0 1 0 13 0 a6.5 6.5 0 1 0 -13 0zM620.4 785.71 a6.5 6.5 0 1 0 13 0 a6.5 6.5 0 1 0 -13 0zM564.1 753.21 a6.5 6.5 0 1 0 13 0 a6.5 6.5 0 1 0 -13 0zM620.4 850.71 a6.5 6.5 0 1 0 13 0 a6.5 6.5 0 1 0 -13 0zM676.69 883.21 a6.5 6.5 0 1 0 13 0 a6.5 6.5 0 1 0 -13 0zM676.69 948.21 a6.5 6.5 0 1 0 13 0 a6.5 6.5 0 1 0 -13 0zM620.4 980.71 a6.5 6.5 0 1 0 13 0 a6.5 6.5 0 1 0 -13 0zM564.1 948.21 a6.5 6.5 0 1 0 13 0 a6.5 6.5 0 1 0 -13 0zM564.1 883.21 a6.5 6.5 0 1 0 13 0 a6.5 6.5 0 1 0 -13 0zM564.1 1143.21 a6.5 6.5 0 1 0 13 0 a6.5 6.5 0 1 0 -13 0zM620.4 1175.71 a6.5 6.5 0 1 0 13 0 a6.5 6.5 0 1 0 -13 0zM620.4 1240.71 a6.5 6.5 0 1 0 13 0 a6.5 6.5 0 1 0 -13 0zM564.1 1273.21 a6.5 6.5 0 1 0 13 0 a6.5 6.5 0 1 0 -13 0zM507.81 1240.71 a6.5 6.5 0 1 0 13 0 a6.5 6.5 0 1 0 -13 0zM507.81 1175.71 a6.5 6.5 0 1 0 13 0 a6.5 6.5 0 1 0 -13 0zM564.1 1923.21 a6.5 6.5 0 1 0 13 0 a6.5 6.5 0 1 0 -13 0zM620.4 1955.71 a6.5 6.5 0 1 0 13 0 a6.5 6.5 0 1 0 -13 0zM620.4 2020.71 a6.5 6.5 0 1 0 13 0 a6.5 6.5 0 1 0 -13 0zM564.1 2053.21 a6.5 6.5 0 1 0 13 0 a6.5 6.5 0 1 0 -13 0zM732.98 1240.71 a6.5 6.5 0 1 0 13 0 a6.5 6.5 0 1 0 -13 0zM789.28 1273.21 a6.5 6.5 0 1 0 13 0 a6.5 6.5 0 1 0 -13 0zM789.28 1338.21 a6.5 6.5 0 1 0 13 0 a6.5 6.5 0 1 0 -13 0zM732.98 1370.71 a6.5 6.5 0 1 0 13 0 a6.5 6.5 0 1 0 -13 0zM676.69 1338.21 a6.5 6.5 0 1 0 13 0 a6.5 6.5 0 1 0 -13 0zM676.69 1273.21 a6.5 6.5 0 1 0 13 0 a6.5 6.5 0 1 0 -13 0zM789.28 -26.79 a6.5 6.5 0 1 0 13 0 a6.5 6.5 0 1 0 -13 0zM845.57 5.71 a6.5 6.5 0 1 0 13 0 a6.5 6.5 0 1 0 -13 0zM845.57 70.71 a6.5 6.5 0 1 0 13 0 a6.5 6.5 0 1 0 -13 0zM789.28 103.21 a6.5 6.5 0 1 0 13 0 a6.5 6.5 0 1 0 -13 0zM732.98 70.71 a6.5 6.5 0 1 0 13 0 a6.5 6.5 0 1 0 -13 0zM732.98 5.71 a6.5 6.5 0 1 0 13 0 a6.5 6.5 0 1 0 -13 0zM845.57 850.71 a6.5 6.5 0 1 0 13 0 a6.5 6.5 0 1 0 -13 0zM901.86 883.21 a6.5 6.5 0 1 0 13 0 a6.5 6.5 0 1 0 -13 0zM901.86 948.21 a6.5 6.5 0 1 0 13 0 a6.5 6.5 0 1 0 -13 0zM845.57 980.71 a6.5 6.5 0 1 0 13 0 a6.5 6.5 0 1 0 -13 0zM789.28 948.21 a6.5 6.5 0 1 0 13 0 a6.5 6.5 0 1 0 -13 0zM789.28 883.21 a6.5 6.5 0 1 0 13 0 a6.5 6.5 0 1 0 -13 0zM845.57 1045.71 a6.5 6.5 0 1 0 13 0 a6.5 6.5 0 1 0 -13 0zM789.28 1078.21 a6.5 6.5 0 1 0 13 0 a6.5 6.5 0 1 0 -13 0zM732.98 1045.71 a6.5 6.5 0 1 0 13 0 a6.5 6.5 0 1 0 -13 0zM732.98 980.71 a6.5 6.5 0 1 0 13 0 a6.5 6.5 0 1 0 -13 0zM845.57 1240.71 a6.5 6.5 0 1 0 13 0 a6.5 6.5 0 1 0 -13 0zM901.86 1273.21 a6.5 6.5 0 1 0 13 0 a6.5 6.5 0 1 0 -13 0zM901.86 1338.21 a6.5 6.5 0 1 0 13 0 a6.5 6.5 0 1 0 -13 0zM845.57 1370.71 a6.5 6.5 0 1 0 13 0 a6.5 6.5 0 1 0 -13 0zM789.28 2703.21 a6.5 6.5 0 1 0 13 0 a6.5 6.5 0 1 0 -13 0zM845.57 2735.71 a6.5 6.5 0 1 0 13 0 a6.5 6.5 0 1 0 -13 0zM845.57 2800.71 a6.5 6.5 0 1 0 13 0 a6.5 6.5 0 1 0 -13 0zM789.28 2833.21 a6.5 6.5 0 1 0 13 0 a6.5 6.5 0 1 0 -13 0zM732.98 2800.71 a6.5 6.5 0 1 0 13 0 a6.5 6.5 0 1 0 -13 0zM732.98 2735.71 a6.5 6.5 0 1 0 13 0 a6.5 6.5 0 1 0 -13 0zM958.16 1435.71 a6.5 6.5 0 1 0 13 0 a6.5 6.5 0 1 0 -13 0zM1014.45 1468.21 a6.5 6.5 0 1 0 13 0 a6.5 6.5 0 1 0 -13 0zM1014.45 1533.21 a6.5 6.5 0 1 0 13 0 a6.5 6.5 0 1 0 -13 0zM958.16 1565.71 a6.5 6.5 0 1 0 13 0 a6.5 6.5 0 1 0 -13 0zM901.86 1533.21 a6.5 6.5 0 1 0 13 0 a6.5 6.5 0 1 0 -13 0zM901.86 1468.21 a6.5 6.5 0 1 0 13 0 a6.5 6.5 0 1 0 -13 0zM958.16 2410.71 a6.5 6.5 0 1 0 13 0 a6.5 6.5 0 1 0 -13 0zM1014.45 2443.21 a6.5 6.5 0 1 0 13 0 a6.5 6.5 0 1 0 -13 0zM1014.45 2508.21 a6.5 6.5 0 1 0 13 0 a6.5 6.5 0 1 0 -13 0zM958.16 2540.71 a6.5 6.5 0 1 0 13 0 a6.5 6.5 0 1 0 -13 0zM901.86 2508.21 a6.5 6.5 0 1 0 13 0 a6.5 6.5 0 1 0 -13 0zM901.86 2443.21 a6.5 6.5 0 1 0 13 0 a6.5 6.5 0 1 0 -13 0zM958.16 2800.71 a6.5 6.5 0 1 0 13 0 a6.5 6.5 0 1 0 -13 0zM1014.45 2833.21 a6.5 6.5 0 1 0 13 0 a6.5 6.5 0 1 0 -13 0zM1014.45 2898.21 a6.5 6.5 0 1 0 13 0 a6.5 6.5 0 1 0 -13 0zM958.16 2930.71 a6.5 6.5 0 1 0 13 0 a6.5 6.5 0 1 0 -13 0zM901.86 2898.21 a6.5 6.5 0 1 0 13 0 a6.5 6.5 0 1 0 -13 0zM901.86 2833.21 a6.5 6.5 0 1 0 13 0 a6.5 6.5 0 1 0 -13 0zM1070.74 1435.71 a6.5 6.5 0 1 0 13 0 a6.5 6.5 0 1 0 -13 0zM1127.04 1468.21 a6.5 6.5 0 1 0 13 0 a6.5 6.5 0 1 0 -13 0zM1127.04 1533.21 a6.5 6.5 0 1 0 13 0 a6.5 6.5 0 1 0 -13 0zM1070.74 1565.71 a6.5 6.5 0 1 0 13 0 a6.5 6.5 0 1 0 -13 0zM1070.74 1630.71 a6.5 6.5 0 1 0 13 0 a6.5 6.5 0 1 0 -13 0zM1014.45 1663.21 a6.5 6.5 0 1 0 13 0 a6.5 6.5 0 1 0 -13 0zM958.16 1630.71 a6.5 6.5 0 1 0 13 0 a6.5 6.5 0 1 0 -13 0zM1127.04 -26.79 a6.5 6.5 0 1 0 13 0 a6.5 6.5 0 1 0 -13 0zM1183.33 5.71 a6.5 6.5 0 1 0 13 0 a6.5 6.5 0 1 0 -13 0zM1183.33 70.71 a6.5 6.5 0 1 0 13 0 a6.5 6.5 0 1 0 -13 0zM1127.04 103.21 a6.5 6.5 0 1 0 13 0 a6.5 6.5 0 1 0 -13 0zM1070.74 70.71 a6.5 6.5 0 1 0 13 0 a6.5 6.5 0 1 0 -13 0zM1070.74 5.71 a6.5 6.5 0 1 0 13 0 a6.5 6.5 0 1 0 -13 0zM1127.04 753.21 a6.5 6.5 0 1 0 13 0 a6.5 6.5 0 1 0 -13 0zM1183.33 785.71 a6.5 6.5 0 1 0 13 0 a6.5 6.5 0 1 0 -13 0zM1183.33 850.71 a6.5 6.5 0 1 0 13 0 a6.5 6.5 0 1 0 -13 0zM1127.04 883.21 a6.5 6.5 0 1 0 13 0 a6.5 6.5 0 1 0 -13 0zM1070.74 850.71 a6.5 6.5 0 1 0 13 0 a6.5 6.5 0 1 0 -13 0zM1070.74 785.71 a6.5 6.5 0 1 0 13 0 a6.5 6.5 0 1 0 -13 0zM1127.04 948.21 a6.5 6.5 0 1 0 13 0 a6.5 6.5 0 1 0 -13 0zM1183.33 980.71 a6.5 6.5 0 1 0 13 0 a6.5 6.5 0 1 0 -13 0zM1183.33 1045.71 a6.5 6.5 0 1 0 13 0 a6.5 6.5 0 1 0 -13 0zM1127.04 1078.21 a6.5 6.5 0 1 0 13 0 a6.5 6.5 0 1 0 -13 0zM1070.74 1045.71 a6.5 6.5 0 1 0 13 0 a6.5 6.5 0 1 0 -13 0zM1070.74 980.71 a6.5 6.5 0 1 0 13 0 a6.5 6.5 0 1 0 -13 0zM1127.04 1143.21 a6.5 6.5 0 1 0 13 0 a6.5 6.5 0 1 0 -13 0zM1183.33 1175.71 a6.5 6.5 0 1 0 13 0 a6.5 6.5 0 1 0 -13 0zM1183.33 1240.71 a6.5 6.5 0 1 0 13 0 a6.5 6.5 0 1 0 -13 0zM1127.04 1273.21 a6.5 6.5 0 1 0 13 0 a6.5 6.5 0 1 0 -13 0zM1070.74 1240.71 a6.5 6.5 0 1 0 13 0 a6.5 6.5 0 1 0 -13 0zM1070.74 1175.71 a6.5 6.5 0 1 0 13 0 a6.5 6.5 0 1 0 -13 0zM1127.04 1338.21 a6.5 6.5 0 1 0 13 0 a6.5 6.5 0 1 0 -13 0zM1183.33 1370.71 a6.5 6.5 0 1 0 13 0 a6.5 6.5 0 1 0 -13 0zM1183.33 1435.71 a6.5 6.5 0 1 0 13 0 a6.5 6.5 0 1 0 -13 0zM1070.74 1370.71 a6.5 6.5 0 1 0 13 0 a6.5 6.5 0 1 0 -13 0zM1183.33 1630.71 a6.5 6.5 0 1 0 13 0 a6.5 6.5 0 1 0 -13 0zM1239.62 1663.21 a6.5 6.5 0 1 0 13 0 a6.5 6.5 0 1 0 -13 0zM1239.62 1728.21 a6.5 6.5 0 1 0 13 0 a6.5 6.5 0 1 0 -13 0zM1183.33 1760.71 a6.5 6.5 0 1 0 13 0 a6.5 6.5 0 1 0 -13 0zM1127.04 1728.21 a6.5 6.5 0 1 0 13 0 a6.5 6.5 0 1 0 -13 0zM1127.04 1663.21 a6.5 6.5 0 1 0 13 0 a6.5 6.5 0 1 0 -13 0zM1127.04 2703.21 a6.5 6.5 0 1 0 13 0 a6.5 6.5 0 1 0 -13 0zM1183.33 2735.71 a6.5 6.5 0 1 0 13 0 a6.5 6.5 0 1 0 -13 0zM1183.33 2800.71 a6.5 6.5 0 1 0 13 0 a6.5 6.5 0 1 0 -13 0zM1127.04 2833.21 a6.5 6.5 0 1 0 13 0 a6.5 6.5 0 1 0 -13 0zM1070.74 2800.71 a6.5 6.5 0 1 0 13 0 a6.5 6.5 0 1 0 -13 0zM1070.74 2735.71 a6.5 6.5 0 1 0 13 0 a6.5 6.5 0 1 0 -13 0zM1239.62 2833.21 a6.5 6.5 0 1 0 13 0 a6.5 6.5 0 1 0 -13 0zM1239.62 2898.21 a6.5 6.5 0 1 0 13 0 a6.5 6.5 0 1 0 -13 0zM1183.33 2930.71 a6.5 6.5 0 1 0 13 0 a6.5 6.5 0 1 0 -13 0zM1127.04 2898.21 a6.5 6.5 0 1 0 13 0 a6.5 6.5 0 1 0 -13 0zM1239.62 753.21 a6.5 6.5 0 1 0 13 0 a6.5 6.5 0 1 0 -13 0zM1295.91 785.71 a6.5 6.5 0 1 0 13 0 a6.5 6.5 0 1 0 -13 0zM1295.91 850.71 a6.5 6.5 0 1 0 13 0 a6.5 6.5 0 1 0 -13 0zM1239.62 883.21 a6.5 6.5 0 1 0 13 0 a6.5 6.5 0 1 0 -13 0zM1239.62 1143.21 a6.5 6.5 0 1 0 13 0 a6.5 6.5 0 1 0 -13 0zM1295.91 1175.71 a6.5 6.5 0 1 0 13 0 a6.5 6.5 0 1 0 -13 0zM1295.91 1240.71 a6.5 6.5 0 1 0 13 0 a6.5 6.5 0 1 0 -13 0zM1239.62 1273.21 a6.5 6.5 0 1 0 13 0 a6.5 6.5 0 1 0 -13 0zM1239.62 2508.21 a6.5 6.5 0 1 0 13 0 a6.5 6.5 0 1 0 -13 0zM1295.91 2540.71 a6.5 6.5 0 1 0 13 0 a6.5 6.5 0 1 0 -13 0zM1295.91 2605.71 a6.5 6.5 0 1 0 13 0 a6.5 6.5 0 1 0 -13 0zM1239.62 2638.21 a6.5 6.5 0 1 0 13 0 a6.5 6.5 0 1 0 -13 0zM1183.33 2605.71 a6.5 6.5 0 1 0 13 0 a6.5 6.5 0 1 0 -13 0zM1183.33 2540.71 a6.5 6.5 0 1 0 13 0 a6.5 6.5 0 1 0 -13 0zM1239.62 2703.21 a6.5 6.5 0 1 0 13 0 a6.5 6.5 0 1 0 -13 0zM1295.91 2735.71 a6.5 6.5 0 1 0 13 0 a6.5 6.5 0 1 0 -13 0zM1295.91 2800.71 a6.5 6.5 0 1 0 13 0 a6.5 6.5 0 1 0 -13 0zM1352.21 363.21 a6.5 6.5 0 1 0 13 0 a6.5 6.5 0 1 0 -13 0zM1408.5 395.71 a6.5 6.5 0 1 0 13 0 a6.5 6.5 0 1 0 -13 0zM1408.5 460.71 a6.5 6.5 0 1 0 13 0 a6.5 6.5 0 1 0 -13 0zM1352.21 493.21 a6.5 6.5 0 1 0 13 0 a6.5 6.5 0 1 0 -13 0zM1295.91 460.71 a6.5 6.5 0 1 0 13 0 a6.5 6.5 0 1 0 -13 0zM1295.91 395.71 a6.5 6.5 0 1 0 13 0 a6.5 6.5 0 1 0 -13 0zM1408.5 1045.71 a6.5 6.5 0 1 0 13 0 a6.5 6.5 0 1 0 -13 0zM1464.79 1078.21 a6.5 6.5 0 1 0 13 0 a6.5 6.5 0 1 0 -13 0zM1464.79 1143.21 a6.5 6.5 0 1 0 13 0 a6.5 6.5 0 1 0 -13 0zM1408.5 1175.71 a6.5 6.5 0 1 0 13 0 a6.5 6.5 0 1 0 -13 0zM1352.21 1143.21 a6.5 6.5 0 1 0 13 0 a6.5 6.5 0 1 0 -13 0zM1352.21 1078.21 a6.5 6.5 0 1 0 13 0 a6.5 6.5 0 1 0 -13 0zM1352.21 1338.21 a6.5 6.5 0 1 0 13 0 a6.5 6.5 0 1 0 -13 0zM1408.5 1370.71 a6.5 6.5 0 1 0 13 0 a6.5 6.5 0 1 0 -13 0zM1408.5 1435.71 a6.5 6.5 0 1 0 13 0 a6.5 6.5 0 1 0 -13 0zM1352.21 1468.21 a6.5 6.5 0 1 0 13 0 a6.5 6.5 0 1 0 -13 0zM1295.91 1435.71 a6.5 6.5 0 1 0 13 0 a6.5 6.5 0 1 0 -13 0zM1295.91 1370.71 a6.5 6.5 0 1 0 13 0 a6.5 6.5 0 1 0 -13 0zM1352.21 2313.21 a6.5 6.5 0 1 0 13 0 a6.5 6.5 0 1 0 -13 0zM1408.5 2345.71 a6.5 6.5 0 1 0 13 0 a6.5 6.5 0 1 0 -13 0zM1408.5 2410.71 a6.5 6.5 0 1 0 13 0 a6.5 6.5 0 1 0 -13 0zM1352.21 2443.21 a6.5 6.5 0 1 0 13 0 a6.5 6.5 0 1 0 -13 0zM1295.91 2410.71 a6.5 6.5 0 1 0 13 0 a6.5 6.5 0 1 0 -13 0zM1295.91 2345.71 a6.5 6.5 0 1 0 13 0 a6.5 6.5 0 1 0 -13 0zM1408.5 2995.71 a6.5 6.5 0 1 0 13 0 a6.5 6.5 0 1 0 -13 0zM1464.79 3028.21 a6.5 6.5 0 1 0 13 0 a6.5 6.5 0 1 0 -13 0zM1464.79 3093.21 a6.5 6.5 0 1 0 13 0 a6.5 6.5 0 1 0 -13 0zM1408.5 3125.71 a6.5 6.5 0 1 0 13 0 a6.5 6.5 0 1 0 -13 0zM1352.21 3093.21 a6.5 6.5 0 1 0 13 0 a6.5 6.5 0 1 0 -13 0zM1352.21 3028.21 a6.5 6.5 0 1 0 13 0 a6.5 6.5 0 1 0 -13 0zM1521.09 460.71 a6.5 6.5 0 1 0 13 0 a6.5 6.5 0 1 0 -13 0zM1577.38 493.21 a6.5 6.5 0 1 0 13 0 a6.5 6.5 0 1 0 -13 0zM1577.38 558.21 a6.5 6.5 0 1 0 13 0 a6.5 6.5 0 1 0 -13 0zM1521.09 590.71 a6.5 6.5 0 1 0 13 0 a6.5 6.5 0 1 0 -13 0zM1464.79 558.21 a6.5 6.5 0 1 0 13 0 a6.5 6.5 0 1 0 -13 0zM1464.79 493.21 a6.5 6.5 0 1 0 13 0 a6.5 6.5 0 1 0 -13 0zM1464.79 948.21 a6.5 6.5 0 1 0 13 0 a6.5 6.5 0 1 0 -13 0zM1521.09 980.71 a6.5 6.5 0 1 0 13 0 a6.5 6.5 0 1 0 -13 0zM1521.09 1045.71 a6.5 6.5 0 1 0 13 0 a6.5 6.5 0 1 0 -13 0zM1408.5 980.71 a6.5 6.5 0 1 0 13 0 a6.5 6.5 0 1 0 -13 0zM1521.09 1825.71 a6.5 6.5 0 1 0 13 0 a6.5 6.5 0 1 0 -13 0zM1577.38 1858.21 a6.5 6.5 0 1 0 13 0 a6.5 6.5 0 1 0 -13 0zM1577.38 1923.21 a6.5 6.5 0 1 0 13 0 a6.5 6.5 0 1 0 -13 0zM1521.09 1955.71 a6.5 6.5 0 1 0 13 0 a6.5 6.5 0 1 0 -13 0zM1464.79 1923.21 a6.5 6.5 0 1 0 13 0 a6.5 6.5 0 1 0 -13 0zM1464.79 1858.21 a6.5 6.5 0 1 0 13 0 a6.5 6.5 0 1 0 -13 0zM1521.09 2605.71 a6.5 6.5 0 1 0 13 0 a6.5 6.5 0 1 0 -13 0zM1577.38 2638.21 a6.5 6.5 0 1 0 13 0 a6.5 6.5 0 1 0 -13 0zM1577.38 2703.21 a6.5 6.5 0 1 0 13 0 a6.5 6.5 0 1 0 -13 0zM1521.09 2735.71 a6.5 6.5 0 1 0 13 0 a6.5 6.5 0 1 0 -13 0zM1464.79 2703.21 a6.5 6.5 0 1 0 13 0 a6.5 6.5 0 1 0 -13 0zM1464.79 2638.21 a6.5 6.5 0 1 0 13 0 a6.5 6.5 0 1 0 -13 0zM1633.67 70.71 a6.5 6.5 0 1 0 13 0 a6.5 6.5 0 1 0 -13 0zM1689.97 103.21 a6.5 6.5 0 1 0 13 0 a6.5 6.5 0 1 0 -13 0zM1689.97 168.21 a6.5 6.5 0 1 0 13 0 a6.5 6.5 0 1 0 -13 0zM1633.67 200.71 a6.5 6.5 0 1 0 13 0 a6.5 6.5 0 1 0 -13 0zM1577.38 168.21 a6.5 6.5 0 1 0 13 0 a6.5 6.5 0 1 0 -13 0zM1577.38 103.21 a6.5 6.5 0 1 0 13 0 a6.5 6.5 0 1 0 -13 0zM1577.38 753.21 a6.5 6.5 0 1 0 13 0 a6.5 6.5 0 1 0 -13 0zM1633.67 785.71 a6.5 6.5 0 1 0 13 0 a6.5 6.5 0 1 0 -13 0zM1633.67 850.71 a6.5 6.5 0 1 0 13 0 a6.5 6.5 0 1 0 -13 0zM1577.38 883.21 a6.5 6.5 0 1 0 13 0 a6.5 6.5 0 1 0 -13 0zM1521.09 850.71 a6.5 6.5 0 1 0 13 0 a6.5 6.5 0 1 0 -13 0zM1521.09 785.71 a6.5 6.5 0 1 0 13 0 a6.5 6.5 0 1 0 -13 0zM1633.67 1955.71 a6.5 6.5 0 1 0 13 0 a6.5 6.5 0 1 0 -13 0zM1633.67 2020.71 a6.5 6.5 0 1 0 13 0 a6.5 6.5 0 1 0 -13 0zM1577.38 2053.21 a6.5 6.5 0 1 0 13 0 a6.5 6.5 0 1 0 -13 0zM1521.09 2020.71 a6.5 6.5 0 1 0 13 0 a6.5 6.5 0 1 0 -13 0zM1633.67 2995.71 a6.5 6.5 0 1 0 13 0 a6.5 6.5 0 1 0 -13 0zM1689.97 3028.21 a6.5 6.5 0 1 0 13 0 a6.5 6.5 0 1 0 -13 0zM1689.97 3093.21 a6.5 6.5 0 1 0 13 0 a6.5 6.5 0 1 0 -13 0zM1633.67 3125.71 a6.5 6.5 0 1 0 13 0 a6.5 6.5 0 1 0 -13 0zM1577.38 3093.21 a6.5 6.5 0 1 0 13 0 a6.5 6.5 0 1 0 -13 0zM1577.38 3028.21 a6.5 6.5 0 1 0 13 0 a6.5 6.5 0 1 0 -13 0zM1689.97 1143.21 a6.5 6.5 0 1 0 13 0 a6.5 6.5 0 1 0 -13 0zM1746.26 1175.71 a6.5 6.5 0 1 0 13 0 a6.5 6.5 0 1 0 -13 0zM1746.26 1240.71 a6.5 6.5 0 1 0 13 0 a6.5 6.5 0 1 0 -13 0zM1689.97 1273.21 a6.5 6.5 0 1 0 13 0 a6.5 6.5 0 1 0 -13 0zM1633.67 1240.71 a6.5 6.5 0 1 0 13 0 a6.5 6.5 0 1 0 -13 0zM1633.67 1175.71 a6.5 6.5 0 1 0 13 0 a6.5 6.5 0 1 0 -13 0zM1802.55 1533.21 a6.5 6.5 0 1 0 13 0 a6.5 6.5 0 1 0 -13 0zM1858.85 1565.71 a6.5 6.5 0 1 0 13 0 a6.5 6.5 0 1 0 -13 0zM1858.85 1630.71 a6.5 6.5 0 1 0 13 0 a6.5 6.5 0 1 0 -13 0zM1802.55 1663.21 a6.5 6.5 0 1 0 13 0 a6.5 6.5 0 1 0 -13 0zM1746.26 1630.71 a6.5 6.5 0 1 0 13 0 a6.5 6.5 0 1 0 -13 0zM1746.26 1565.71 a6.5 6.5 0 1 0 13 0 a6.5 6.5 0 1 0 -13 0zM1802.55 1728.21 a6.5 6.5 0 1 0 13 0 a6.5 6.5 0 1 0 -13 0zM1858.85 1760.71 a6.5 6.5 0 1 0 13 0 a6.5 6.5 0 1 0 -13 0zM1858.85 1825.71 a6.5 6.5 0 1 0 13 0 a6.5 6.5 0 1 0 -13 0zM1802.55 1858.21 a6.5 6.5 0 1 0 13 0 a6.5 6.5 0 1 0 -13 0zM1746.26 1825.71 a6.5 6.5 0 1 0 13 0 a6.5 6.5 0 1 0 -13 0zM1746.26 1760.71 a6.5 6.5 0 1 0 13 0 a6.5 6.5 0 1 0 -13 0zM1858.85 2020.71 a6.5 6.5 0 1 0 13 0 a6.5 6.5 0 1 0 -13 0zM1915.14 2053.21 a6.5 6.5 0 1 0 13 0 a6.5 6.5 0 1 0 -13 0zM1915.14 2118.21 a6.5 6.5 0 1 0 13 0 a6.5 6.5 0 1 0 -13 0zM1858.85 2150.71 a6.5 6.5 0 1 0 13 0 a6.5 6.5 0 1 0 -13 0zM1802.55 2118.21 a6.5 6.5 0 1 0 13 0 a6.5 6.5 0 1 0 -13 0zM1802.55 2053.21 a6.5 6.5 0 1 0 13 0 a6.5 6.5 0 1 0 -13 0zM1971.43 70.71 a6.5 6.5 0 1 0 13 0 a6.5 6.5 0 1 0 -13 0zM2027.73 103.21 a6.5 6.5 0 1 0 13 0 a6.5 6.5 0 1 0 -13 0zM2027.73 168.21 a6.5 6.5 0 1 0 13 0 a6.5 6.5 0 1 0 -13 0zM1971.43 200.71 a6.5 6.5 0 1 0 13 0 a6.5 6.5 0 1 0 -13 0zM1915.14 168.21 a6.5 6.5 0 1 0 13 0 a6.5 6.5 0 1 0 -13 0zM1915.14 103.21 a6.5 6.5 0 1 0 13 0 a6.5 6.5 0 1 0 -13 0zM1915.14 1533.21 a6.5 6.5 0 1 0 13 0 a6.5 6.5 0 1 0 -13 0zM1971.43 1565.71 a6.5 6.5 0 1 0 13 0 a6.5 6.5 0 1 0 -13 0zM1971.43 1630.71 a6.5 6.5 0 1 0 13 0 a6.5 6.5 0 1 0 -13 0zM1915.14 1663.21 a6.5 6.5 0 1 0 13 0 a6.5 6.5 0 1 0 -13 0zM1971.43 1825.71 a6.5 6.5 0 1 0 13 0 a6.5 6.5 0 1 0 -13 0zM2027.73 1858.21 a6.5 6.5 0 1 0 13 0 a6.5 6.5 0 1 0 -13 0zM2027.73 1923.21 a6.5 6.5 0 1 0 13 0 a6.5 6.5 0 1 0 -13 0zM1971.43 1955.71 a6.5 6.5 0 1 0 13 0 a6.5 6.5 0 1 0 -13 0zM1915.14 1923.21 a6.5 6.5 0 1 0 13 0 a6.5 6.5 0 1 0 -13 0zM1915.14 1858.21 a6.5 6.5 0 1 0 13 0 a6.5 6.5 0 1 0 -13 0zM1971.43 2995.71 a6.5 6.5 0 1 0 13 0 a6.5 6.5 0 1 0 -13 0zM2027.73 3028.21 a6.5 6.5 0 1 0 13 0 a6.5 6.5 0 1 0 -13 0zM2027.73 3093.21 a6.5 6.5 0 1 0 13 0 a6.5 6.5 0 1 0 -13 0zM1971.43 3125.71 a6.5 6.5 0 1 0 13 0 a6.5 6.5 0 1 0 -13 0zM1915.14 3093.21 a6.5 6.5 0 1 0 13 0 a6.5 6.5 0 1 0 -13 0zM1915.14 3028.21 a6.5 6.5 0 1 0 13 0 a6.5 6.5 0 1 0 -13 0z" fill="rgba(5, 51, 59, 1)"></path><path d="M40.62 167.41L80.46 190.41L80.46 236.41L40.62 259.41L0.78 236.41L0.78 190.41zM40.62 305.41L80.46 328.41L80.46 374.41L40.62 397.41L0.78 374.41L0.78 328.41zM0.78 650.41L40.62 673.41L40.62 719.41L0.78 742.41L-39.06 719.41L-39.06 673.41zM40.62 719.41L80.46 742.41L80.46 788.41L40.62 811.41L0.78 788.41L0.78 742.41zM0.78 1478.41L40.62 1501.41L40.62 1547.41L0.78 1570.41L-39.06 1547.41L-39.06 1501.41zM40.62 1685.41L80.46 1708.41L80.46 1754.41L40.62 1777.41L0.78 1754.41L0.78 1708.41zM0.78 1754.41L40.62 1777.41L40.62 1823.41L0.78 1846.41L-39.06 1823.41L-39.06 1777.41zM0.78 2030.41L40.62 2053.41L40.62 2099.41L0.78 2122.41L-39.06 2099.41L-39.06 2053.41zM40.62 2099.41L80.46 2122.41L80.46 2168.41L40.62 2191.41L0.78 2168.41L0.78 2122.41zM0.78 2168.41L40.62 2191.41L40.62 2237.41L0.78 2260.41L-39.06 2237.41L-39.06 2191.41zM40.62 2237.41L80.46 2260.41L80.46 2306.41L40.62 2329.41L0.78 2306.41L0.78 2260.41zM0.78 2306.41L40.62 2329.41L40.62 2375.41L0.78 2398.41L-39.06 2375.41L-39.06 2329.41zM40.62 2513.41L80.46 2536.41L80.46 2582.41L40.62 2605.41L0.78 2582.41L0.78 2536.41zM120.29 29.41L160.13 52.41L160.13 98.41L120.29 121.41L80.46 98.41L80.46 52.41zM80.46 98.41L120.29 121.41L120.29 167.41L80.46 190.41L40.62 167.41L40.62 121.41zM120.29 443.41L160.13 466.41L160.13 512.41L120.29 535.41L80.46 512.41L80.46 466.41zM80.46 512.41L120.29 535.41L120.29 581.41L80.46 604.41L40.62 581.41L40.62 535.41zM120.29 581.41L160.13 604.41L160.13 650.41L120.29 673.41L80.46 650.41L80.46 604.41zM120.29 857.41L160.13 880.41L160.13 926.41L120.29 949.41L80.46 926.41L80.46 880.41zM120.29 1133.41L160.13 1156.41L160.13 1202.41L120.29 1225.41L80.46 1202.41L80.46 1156.41zM120.29 1271.41L160.13 1294.41L160.13 1340.41L120.29 1363.41L80.46 1340.41L80.46 1294.41zM120.29 1409.41L160.13 1432.41L160.13 1478.41L120.29 1501.41L80.46 1478.41L80.46 1432.41zM120.29 1547.41L160.13 1570.41L160.13 1616.41L120.29 1639.41L80.46 1616.41L80.46 1570.41zM120.29 2099.41L160.13 2122.41L160.13 2168.41L120.29 2191.41L80.46 2168.41L80.46 2122.41zM80.46 2444.41L120.29 2467.41L120.29 2513.41L80.46 2536.41L40.62 2513.41L40.62 2467.41zM120.29 2651.41L160.13 2674.41L160.13 2720.41L120.29 2743.41L80.46 2720.41L80.46 2674.41zM160.13 98.41L199.97 121.41L199.97 167.41L160.13 190.41L120.29 167.41L120.29 121.41zM160.13 236.41L199.97 259.41L199.97 305.41L160.13 328.41L120.29 305.41L120.29 259.41zM199.97 305.41L239.81 328.41L239.81 374.41L199.97 397.41L160.13 374.41L160.13 328.41zM199.97 443.41L239.81 466.41L239.81 512.41L199.97 535.41L160.13 512.41L160.13 466.41zM160.13 512.41L199.97 535.41L199.97 581.41L160.13 604.41L120.29 581.41L120.29 535.41zM199.97 581.41L239.81 604.41L239.81 650.41L199.97 673.41L160.13 650.41L160.13 604.41zM199.97 857.41L239.81 880.41L239.81 926.41L199.97 949.41L160.13 926.41L160.13 880.41zM199.97 1133.41L239.81 1156.41L239.81 1202.41L199.97 1225.41L160.13 1202.41L160.13 1156.41zM160.13 1478.41L199.97 1501.41L199.97 1547.41L160.13 1570.41L120.29 1547.41L120.29 1501.41zM199.97 1547.41L239.81 1570.41L239.81 1616.41L199.97 1639.41L160.13 1616.41L160.13 1570.41zM160.13 1616.41L199.97 1639.41L199.97 1685.41L160.13 1708.41L120.29 1685.41L120.29 1639.41zM199.97 1961.41L239.81 1984.41L239.81 2030.41L199.97 2053.41L160.13 2030.41L160.13 1984.41zM160.13 2168.41L199.97 2191.41L199.97 2237.41L160.13 2260.41L120.29 2237.41L120.29 2191.41zM199.97 2375.41L239.81 2398.41L239.81 2444.41L199.97 2467.41L160.13 2444.41L160.13 2398.41zM160.13 2582.41L199.97 2605.41L199.97 2651.41L160.13 2674.41L120.29 2651.41L120.29 2605.41zM160.13 2720.41L199.97 2743.41L199.97 2789.41L160.13 2812.41L120.29 2789.41L120.29 2743.41zM199.97 2927.41L239.81 2950.41L239.81 2996.41L199.97 3019.41L160.13 2996.41L160.13 2950.41zM279.65 29.41L319.49 52.41L319.49 98.41L279.65 121.41L239.81 98.41L239.81 52.41zM239.81 98.41L279.65 121.41L279.65 167.41L239.81 190.41L199.97 167.41L199.97 121.41zM279.65 443.41L319.49 466.41L319.49 512.41L279.65 535.41L239.81 512.41L239.81 466.41zM239.81 788.41L279.65 811.41L279.65 857.41L239.81 880.41L199.97 857.41L199.97 811.41zM239.81 926.41L279.65 949.41L279.65 995.41L239.81 1018.41L199.97 995.41L199.97 949.41zM279.65 995.41L319.49 1018.41L319.49 1064.41L279.65 1087.41L239.81 1064.41L239.81 1018.41zM279.65 1133.41L319.49 1156.41L319.49 1202.41L279.65 1225.41L239.81 1202.41L239.81 1156.41zM279.65 1271.41L319.49 1294.41L319.49 1340.41L279.65 1363.41L239.81 1340.41L239.81 1294.41zM239.81 1340.41L279.65 1363.41L279.65 1409.41L239.81 1432.41L199.97 1409.41L199.97 1363.41zM279.65 1547.41L319.49 1570.41L319.49 1616.41L279.65 1639.41L239.81 1616.41L239.81 1570.41zM279.65 1685.41L319.49 1708.41L319.49 1754.41L279.65 1777.41L239.81 1754.41L239.81 1708.41zM279.65 1823.41L319.49 1846.41L319.49 1892.41L279.65 1915.41L239.81 1892.41L239.81 1846.41zM239.81 2030.41L279.65 2053.41L279.65 2099.41L239.81 2122.41L199.97 2099.41L199.97 2053.41zM239.81 2168.41L279.65 2191.41L279.65 2237.41L239.81 2260.41L199.97 2237.41L199.97 2191.41zM279.65 2513.41L319.49 2536.41L319.49 2582.41L279.65 2605.41L239.81 2582.41L239.81 2536.41zM359.32 443.41L399.16 466.41L399.16 512.41L359.32 535.41L319.49 512.41L319.49 466.41zM359.32 581.41L399.16 604.41L399.16 650.41L359.32 673.41L319.49 650.41L319.49 604.41zM319.49 788.41L359.32 811.41L359.32 857.41L319.49 880.41L279.65 857.41L279.65 811.41zM359.32 995.41L399.16 1018.41L399.16 1064.41L359.32 1087.41L319.49 1064.41L319.49 1018.41zM359.32 1271.41L399.16 1294.41L399.16 1340.41L359.32 1363.41L319.49 1340.41L319.49 1294.41zM319.49 1478.41L359.32 1501.41L359.32 1547.41L319.49 1570.41L279.65 1547.41L279.65 1501.41zM359.32 1685.41L399.16 1708.41L399.16 1754.41L359.32 1777.41L319.49 1754.41L319.49 1708.41zM319.49 1754.41L359.32 1777.41L359.32 1823.41L319.49 1846.41L279.65 1823.41L279.65 1777.41zM359.32 1823.41L399.16 1846.41L399.16 1892.41L359.32 1915.41L319.49 1892.41L319.49 1846.41zM319.49 1892.41L359.32 1915.41L359.32 1961.41L319.49 1984.41L279.65 1961.41L279.65 1915.41zM359.32 1961.41L399.16 1984.41L399.16 2030.41L359.32 2053.41L319.49 2030.41L319.49 1984.41zM359.32 2237.41L399.16 2260.41L399.16 2306.41L359.32 2329.41L319.49 2306.41L319.49 2260.41zM319.49 2306.41L359.32 2329.41L359.32 2375.41L319.49 2398.41L279.65 2375.41L279.65 2329.41zM359.32 2375.41L399.16 2398.41L399.16 2444.41L359.32 2467.41L319.49 2444.41L319.49 2398.41zM319.49 2582.41L359.32 2605.41L359.32 2651.41L319.49 2674.41L279.65 2651.41L279.65 2605.41zM319.49 2720.41L359.32 2743.41L359.32 2789.41L319.49 2812.41L279.65 2789.41L279.65 2743.41zM359.32 2789.41L399.16 2812.41L399.16 2858.41L359.32 2881.41L319.49 2858.41L319.49 2812.41zM359.32 2927.41L399.16 2950.41L399.16 2996.41L359.32 3019.41L319.49 2996.41L319.49 2950.41zM439 29.41L478.84 52.41L478.84 98.41L439 121.41L399.16 98.41L399.16 52.41zM399.16 98.41L439 121.41L439 167.41L399.16 190.41L359.32 167.41L359.32 121.41zM439 167.41L478.84 190.41L478.84 236.41L439 259.41L399.16 236.41L399.16 190.41zM439 719.41L478.84 742.41L478.84 788.41L439 811.41L399.16 788.41L399.16 742.41zM399.16 788.41L439 811.41L439 857.41L399.16 880.41L359.32 857.41L359.32 811.41zM439 857.41L478.84 880.41L478.84 926.41L439 949.41L399.16 926.41L399.16 880.41zM399.16 926.41L439 949.41L439 995.41L399.16 1018.41L359.32 995.41L359.32 949.41zM399.16 1064.41L439 1087.41L439 1133.41L399.16 1156.41L359.32 1133.41L359.32 1087.41zM399.16 1202.41L439 1225.41L439 1271.41L399.16 1294.41L359.32 1271.41L359.32 1225.41zM399.16 1340.41L439 1363.41L439 1409.41L399.16 1432.41L359.32 1409.41L359.32 1363.41zM439 1409.41L478.84 1432.41L478.84 1478.41L439 1501.41L399.16 1478.41L399.16 1432.41zM399.16 1754.41L439 1777.41L439 1823.41L399.16 1846.41L359.32 1823.41L359.32 1777.41zM399.16 2030.41L439 2053.41L439 2099.41L399.16 2122.41L359.32 2099.41L359.32 2053.41zM399.16 2168.41L439 2191.41L439 2237.41L399.16 2260.41L359.32 2237.41L359.32 2191.41zM399.16 2306.41L439 2329.41L439 2375.41L399.16 2398.41L359.32 2375.41L359.32 2329.41zM399.16 2444.41L439 2467.41L439 2513.41L399.16 2536.41L359.32 2513.41L359.32 2467.41zM439 2513.41L478.84 2536.41L478.84 2582.41L439 2605.41L399.16 2582.41L399.16 2536.41zM399.16 2582.41L439 2605.41L439 2651.41L399.16 2674.41L359.32 2651.41L359.32 2605.41zM478.84 98.41L518.68 121.41L518.68 167.41L478.84 190.41L439 167.41L439 121.41zM518.68 719.41L558.52 742.41L558.52 788.41L518.68 811.41L478.84 788.41L478.84 742.41zM478.84 788.41L518.68 811.41L518.68 857.41L478.84 880.41L439 857.41L439 811.41zM518.68 857.41L558.52 880.41L558.52 926.41L518.68 949.41L478.84 926.41L478.84 880.41zM478.84 1202.41L518.68 1225.41L518.68 1271.41L478.84 1294.41L439 1271.41L439 1225.41zM518.68 1271.41L558.52 1294.41L558.52 1340.41L518.68 1363.41L478.84 1340.41L478.84 1294.41zM478.84 1616.41L518.68 1639.41L518.68 1685.41L478.84 1708.41L439 1685.41L439 1639.41zM518.68 1961.41L558.52 1984.41L558.52 2030.41L518.68 2053.41L478.84 2030.41L478.84 1984.41zM518.68 2099.41L558.52 2122.41L558.52 2168.41L518.68 2191.41L478.84 2168.41L478.84 2122.41zM478.84 2168.41L518.68 2191.41L518.68 2237.41L478.84 2260.41L439 2237.41L439 2191.41zM518.68 2237.41L558.52 2260.41L558.52 2306.41L518.68 2329.41L478.84 2306.41L478.84 2260.41zM478.84 2306.41L518.68 2329.41L518.68 2375.41L478.84 2398.41L439 2375.41L439 2329.41zM518.68 2651.41L558.52 2674.41L558.52 2720.41L518.68 2743.41L478.84 2720.41L478.84 2674.41zM478.84 2720.41L518.68 2743.41L518.68 2789.41L478.84 2812.41L439 2789.41L439 2743.41zM518.68 2789.41L558.52 2812.41L558.52 2858.41L518.68 2881.41L478.84 2858.41L478.84 2812.41zM558.52 374.41L598.35 397.41L598.35 443.41L558.52 466.41L518.68 443.41L518.68 397.41zM558.52 512.41L598.35 535.41L598.35 581.41L558.52 604.41L518.68 581.41L518.68 535.41zM598.35 581.41L638.19 604.41L638.19 650.41L598.35 673.41L558.52 650.41L558.52 604.41zM558.52 650.41L598.35 673.41L598.35 719.41L558.52 742.41L518.68 719.41L518.68 673.41zM598.35 995.41L638.19 1018.41L638.19 1064.41L598.35 1087.41L558.52 1064.41L558.52 1018.41zM598.35 1133.41L638.19 1156.41L638.19 1202.41L598.35 1225.41L558.52 1202.41L558.52 1156.41zM558.52 2030.41L598.35 2053.41L598.35 2099.41L558.52 2122.41L518.68 2099.41L518.68 2053.41zM598.35 2375.41L638.19 2398.41L638.19 2444.41L598.35 2467.41L558.52 2444.41L558.52 2398.41zM558.52 2444.41L598.35 2467.41L598.35 2513.41L558.52 2536.41L518.68 2513.41L518.68 2467.41zM558.52 2720.41L598.35 2743.41L598.35 2789.41L558.52 2812.41L518.68 2789.41L518.68 2743.41zM598.35 2789.41L638.19 2812.41L638.19 2858.41L598.35 2881.41L558.52 2858.41L558.52 2812.41zM678.03 29.41L717.87 52.41L717.87 98.41L678.03 121.41L638.19 98.41L638.19 52.41zM678.03 305.41L717.87 328.41L717.87 374.41L678.03 397.41L638.19 374.41L638.19 328.41zM678.03 443.41L717.87 466.41L717.87 512.41L678.03 535.41L638.19 512.41L638.19 466.41zM678.03 719.41L717.87 742.41L717.87 788.41L678.03 811.41L638.19 788.41L638.19 742.41zM638.19 926.41L678.03 949.41L678.03 995.41L638.19 1018.41L598.35 995.41L598.35 949.41zM678.03 995.41L717.87 1018.41L717.87 1064.41L678.03 1087.41L638.19 1064.41L638.19 1018.41zM638.19 1202.41L678.03 1225.41L678.03 1271.41L638.19 1294.41L598.35 1271.41L598.35 1225.41zM678.03 1271.41L717.87 1294.41L717.87 1340.41L678.03 1363.41L638.19 1340.41L638.19 1294.41zM638.19 1340.41L678.03 1363.41L678.03 1409.41L638.19 1432.41L598.35 1409.41L598.35 1363.41zM678.03 1409.41L717.87 1432.41L717.87 1478.41L678.03 1501.41L638.19 1478.41L638.19 1432.41zM678.03 1547.41L717.87 1570.41L717.87 1616.41L678.03 1639.41L638.19 1616.41L638.19 1570.41zM638.19 1616.41L678.03 1639.41L678.03 1685.41L638.19 1708.41L598.35 1685.41L598.35 1639.41zM678.03 2651.41L717.87 2674.41L717.87 2720.41L678.03 2743.41L638.19 2720.41L638.19 2674.41zM638.19 2720.41L678.03 2743.41L678.03 2789.41L638.19 2812.41L598.35 2789.41L598.35 2743.41zM638.19 2858.41L678.03 2881.41L678.03 2927.41L638.19 2950.41L598.35 2927.41L598.35 2881.41zM678.03 2927.41L717.87 2950.41L717.87 2996.41L678.03 3019.41L638.19 2996.41L638.19 2950.41zM717.87 -39.59L757.71 -16.59L757.71 29.41L717.87 52.41L678.03 29.41L678.03 -16.59zM757.71 167.41L797.55 190.41L797.55 236.41L757.71 259.41L717.87 236.41L717.87 190.41zM757.71 443.41L797.55 466.41L797.55 512.41L757.71 535.41L717.87 512.41L717.87 466.41zM757.71 857.41L797.55 880.41L797.55 926.41L757.71 949.41L717.87 926.41L717.87 880.41zM717.87 1064.41L757.71 1087.41L757.71 1133.41L717.87 1156.41L678.03 1133.41L678.03 1087.41zM757.71 1271.41L797.55 1294.41L797.55 1340.41L757.71 1363.41L717.87 1340.41L717.87 1294.41zM757.71 1409.41L797.55 1432.41L797.55 1478.41L757.71 1501.41L717.87 1478.41L717.87 1432.41zM757.71 1547.41L797.55 1570.41L797.55 1616.41L757.71 1639.41L717.87 1616.41L717.87 1570.41zM757.71 1685.41L797.55 1708.41L797.55 1754.41L757.71 1777.41L717.87 1754.41L717.87 1708.41zM757.71 2237.41L797.55 2260.41L797.55 2306.41L757.71 2329.41L717.87 2306.41L717.87 2260.41zM717.87 2306.41L757.71 2329.41L757.71 2375.41L717.87 2398.41L678.03 2375.41L678.03 2329.41zM717.87 2582.41L757.71 2605.41L757.71 2651.41L717.87 2674.41L678.03 2651.41L678.03 2605.41zM757.71 2651.41L797.55 2674.41L797.55 2720.41L757.71 2743.41L717.87 2720.41L717.87 2674.41zM757.71 2789.41L797.55 2812.41L797.55 2858.41L757.71 2881.41L717.87 2858.41L717.87 2812.41zM757.71 2927.41L797.55 2950.41L797.55 2996.41L757.71 3019.41L717.87 2996.41L717.87 2950.41zM837.38 29.41L877.22 52.41L877.22 98.41L837.38 121.41L797.55 98.41L797.55 52.41zM797.55 98.41L837.38 121.41L837.38 167.41L797.55 190.41L757.71 167.41L757.71 121.41zM837.38 167.41L877.22 190.41L877.22 236.41L837.38 259.41L797.55 236.41L797.55 190.41zM797.55 236.41L837.38 259.41L837.38 305.41L797.55 328.41L757.71 305.41L757.71 259.41zM837.38 305.41L877.22 328.41L877.22 374.41L837.38 397.41L797.55 374.41L797.55 328.41zM797.55 650.41L837.38 673.41L837.38 719.41L797.55 742.41L757.71 719.41L757.71 673.41zM837.38 719.41L877.22 742.41L877.22 788.41L837.38 811.41L797.55 788.41L797.55 742.41zM797.55 788.41L837.38 811.41L837.38 857.41L797.55 880.41L757.71 857.41L757.71 811.41zM837.38 857.41L877.22 880.41L877.22 926.41L837.38 949.41L797.55 926.41L797.55 880.41zM797.55 1340.41L837.38 1363.41L837.38 1409.41L797.55 1432.41L757.71 1409.41L757.71 1363.41zM797.55 1478.41L837.38 1501.41L837.38 1547.41L797.55 1570.41L757.71 1547.41L757.71 1501.41zM837.38 1547.41L877.22 1570.41L877.22 1616.41L837.38 1639.41L797.55 1616.41L797.55 1570.41zM837.38 1685.41L877.22 1708.41L877.22 1754.41L837.38 1777.41L797.55 1754.41L797.55 1708.41zM837.38 1823.41L877.22 1846.41L877.22 1892.41L837.38 1915.41L797.55 1892.41L797.55 1846.41zM837.38 1961.41L877.22 1984.41L877.22 2030.41L837.38 2053.41L797.55 2030.41L797.55 1984.41zM797.55 2582.41L837.38 2605.41L837.38 2651.41L797.55 2674.41L757.71 2651.41L757.71 2605.41zM837.38 2651.41L877.22 2674.41L877.22 2720.41L837.38 2743.41L797.55 2720.41L797.55 2674.41zM797.55 2720.41L837.38 2743.41L837.38 2789.41L797.55 2812.41L757.71 2789.41L757.71 2743.41zM837.38 2789.41L877.22 2812.41L877.22 2858.41L837.38 2881.41L797.55 2858.41L797.55 2812.41zM797.55 2858.41L837.38 2881.41L837.38 2927.41L797.55 2950.41L757.71 2927.41L757.71 2881.41zM877.22 -39.59L917.06 -16.59L917.06 29.41L877.22 52.41L837.38 29.41L837.38 -16.59zM917.06 29.41L956.9 52.41L956.9 98.41L917.06 121.41L877.22 98.41L877.22 52.41zM877.22 236.41L917.06 259.41L917.06 305.41L877.22 328.41L837.38 305.41L837.38 259.41zM917.06 995.41L956.9 1018.41L956.9 1064.41L917.06 1087.41L877.22 1064.41L877.22 1018.41zM877.22 1064.41L917.06 1087.41L917.06 1133.41L877.22 1156.41L837.38 1133.41L837.38 1087.41zM917.06 1133.41L956.9 1156.41L956.9 1202.41L917.06 1225.41L877.22 1202.41L877.22 1156.41zM917.06 1685.41L956.9 1708.41L956.9 1754.41L917.06 1777.41L877.22 1754.41L877.22 1708.41zM917.06 1961.41L956.9 1984.41L956.9 2030.41L917.06 2053.41L877.22 2030.41L877.22 1984.41zM877.22 2444.41L917.06 2467.41L917.06 2513.41L877.22 2536.41L837.38 2513.41L837.38 2467.41zM917.06 2513.41L956.9 2536.41L956.9 2582.41L917.06 2605.41L877.22 2582.41L877.22 2536.41zM917.06 2651.41L956.9 2674.41L956.9 2720.41L917.06 2743.41L877.22 2720.41L877.22 2674.41zM877.22 2720.41L917.06 2743.41L917.06 2789.41L877.22 2812.41L837.38 2789.41L837.38 2743.41zM917.06 2789.41L956.9 2812.41L956.9 2858.41L917.06 2881.41L877.22 2858.41L877.22 2812.41zM917.06 2927.41L956.9 2950.41L956.9 2996.41L917.06 3019.41L877.22 2996.41L877.22 2950.41zM996.74 305.41L1036.58 328.41L1036.58 374.41L996.74 397.41L956.9 374.41L956.9 328.41zM996.74 443.41L1036.58 466.41L1036.58 512.41L996.74 535.41L956.9 512.41L956.9 466.41zM996.74 581.41L1036.58 604.41L1036.58 650.41L996.74 673.41L956.9 650.41L956.9 604.41zM956.9 788.41L996.74 811.41L996.74 857.41L956.9 880.41L917.06 857.41L917.06 811.41zM956.9 1064.41L996.74 1087.41L996.74 1133.41L956.9 1156.41L917.06 1133.41L917.06 1087.41zM996.74 1133.41L1036.58 1156.41L1036.58 1202.41L996.74 1225.41L956.9 1202.41L956.9 1156.41zM996.74 1409.41L1036.58 1432.41L1036.58 1478.41L996.74 1501.41L956.9 1478.41L956.9 1432.41zM956.9 1478.41L996.74 1501.41L996.74 1547.41L956.9 1570.41L917.06 1547.41L917.06 1501.41zM996.74 1823.41L1036.58 1846.41L1036.58 1892.41L996.74 1915.41L956.9 1892.41L956.9 1846.41zM956.9 1892.41L996.74 1915.41L996.74 1961.41L956.9 1984.41L917.06 1961.41L917.06 1915.41zM956.9 2030.41L996.74 2053.41L996.74 2099.41L956.9 2122.41L917.06 2099.41L917.06 2053.41zM956.9 2306.41L996.74 2329.41L996.74 2375.41L956.9 2398.41L917.06 2375.41L917.06 2329.41zM996.74 2375.41L1036.58 2398.41L1036.58 2444.41L996.74 2467.41L956.9 2444.41L956.9 2398.41zM996.74 2789.41L1036.58 2812.41L1036.58 2858.41L996.74 2881.41L956.9 2858.41L956.9 2812.41zM1076.41 29.41L1116.25 52.41L1116.25 98.41L1076.41 121.41L1036.58 98.41L1036.58 52.41zM1076.41 167.41L1116.25 190.41L1116.25 236.41L1076.41 259.41L1036.58 236.41L1036.58 190.41zM1036.58 236.41L1076.41 259.41L1076.41 305.41L1036.58 328.41L996.74 305.41L996.74 259.41zM1076.41 305.41L1116.25 328.41L1116.25 374.41L1076.41 397.41L1036.58 374.41L1036.58 328.41zM1036.58 374.41L1076.41 397.41L1076.41 443.41L1036.58 466.41L996.74 443.41L996.74 397.41zM1036.58 512.41L1076.41 535.41L1076.41 581.41L1036.58 604.41L996.74 581.41L996.74 535.41zM1076.41 581.41L1116.25 604.41L1116.25 650.41L1076.41 673.41L1036.58 650.41L1036.58 604.41zM1036.58 788.41L1076.41 811.41L1076.41 857.41L1036.58 880.41L996.74 857.41L996.74 811.41zM1036.58 926.41L1076.41 949.41L1076.41 995.41L1036.58 1018.41L996.74 995.41L996.74 949.41zM1036.58 1064.41L1076.41 1087.41L1076.41 1133.41L1036.58 1156.41L996.74 1133.41L996.74 1087.41zM1076.41 1271.41L1116.25 1294.41L1116.25 1340.41L1076.41 1363.41L1036.58 1340.41L1036.58 1294.41zM1036.58 1340.41L1076.41 1363.41L1076.41 1409.41L1036.58 1432.41L996.74 1409.41L996.74 1363.41zM1076.41 1409.41L1116.25 1432.41L1116.25 1478.41L1076.41 1501.41L1036.58 1478.41L1036.58 1432.41zM1076.41 1823.41L1116.25 1846.41L1116.25 1892.41L1076.41 1915.41L1036.58 1892.41L1036.58 1846.41zM1076.41 2237.41L1116.25 2260.41L1116.25 2306.41L1076.41 2329.41L1036.58 2306.41L1036.58 2260.41zM1036.58 2306.41L1076.41 2329.41L1076.41 2375.41L1036.58 2398.41L996.74 2375.41L996.74 2329.41zM1036.58 2720.41L1076.41 2743.41L1076.41 2789.41L1036.58 2812.41L996.74 2789.41L996.74 2743.41zM1156.09 29.41L1195.93 52.41L1195.93 98.41L1156.09 121.41L1116.25 98.41L1116.25 52.41zM1156.09 167.41L1195.93 190.41L1195.93 236.41L1156.09 259.41L1116.25 236.41L1116.25 190.41zM1116.25 236.41L1156.09 259.41L1156.09 305.41L1116.25 328.41L1076.41 305.41L1076.41 259.41zM1156.09 305.41L1195.93 328.41L1195.93 374.41L1156.09 397.41L1116.25 374.41L1116.25 328.41zM1116.25 512.41L1156.09 535.41L1156.09 581.41L1116.25 604.41L1076.41 581.41L1076.41 535.41zM1156.09 581.41L1195.93 604.41L1195.93 650.41L1156.09 673.41L1116.25 650.41L1116.25 604.41zM1156.09 857.41L1195.93 880.41L1195.93 926.41L1156.09 949.41L1116.25 926.41L1116.25 880.41zM1156.09 995.41L1195.93 1018.41L1195.93 1064.41L1156.09 1087.41L1116.25 1064.41L1116.25 1018.41zM1156.09 1409.41L1195.93 1432.41L1195.93 1478.41L1156.09 1501.41L1116.25 1478.41L1116.25 1432.41zM1116.25 1754.41L1156.09 1777.41L1156.09 1823.41L1116.25 1846.41L1076.41 1823.41L1076.41 1777.41zM1156.09 1823.41L1195.93 1846.41L1195.93 1892.41L1156.09 1915.41L1116.25 1892.41L1116.25 1846.41zM1156.09 2099.41L1195.93 2122.41L1195.93 2168.41L1156.09 2191.41L1116.25 2168.41L1116.25 2122.41zM1156.09 2513.41L1195.93 2536.41L1195.93 2582.41L1156.09 2605.41L1116.25 2582.41L1116.25 2536.41zM1156.09 2789.41L1195.93 2812.41L1195.93 2858.41L1156.09 2881.41L1116.25 2858.41L1116.25 2812.41zM1116.25 2858.41L1156.09 2881.41L1156.09 2927.41L1116.25 2950.41L1076.41 2927.41L1076.41 2881.41zM1195.93 236.41L1235.77 259.41L1235.77 305.41L1195.93 328.41L1156.09 305.41L1156.09 259.41zM1195.93 374.41L1235.77 397.41L1235.77 443.41L1195.93 466.41L1156.09 443.41L1156.09 397.41zM1195.93 512.41L1235.77 535.41L1235.77 581.41L1195.93 604.41L1156.09 581.41L1156.09 535.41zM1235.77 719.41L1275.61 742.41L1275.61 788.41L1235.77 811.41L1195.93 788.41L1195.93 742.41zM1235.77 1133.41L1275.61 1156.41L1275.61 1202.41L1235.77 1225.41L1195.93 1202.41L1195.93 1156.41zM1195.93 1202.41L1235.77 1225.41L1235.77 1271.41L1195.93 1294.41L1156.09 1271.41L1156.09 1225.41zM1235.77 1271.41L1275.61 1294.41L1275.61 1340.41L1235.77 1363.41L1195.93 1340.41L1195.93 1294.41zM1195.93 1478.41L1235.77 1501.41L1235.77 1547.41L1195.93 1570.41L1156.09 1547.41L1156.09 1501.41zM1235.77 1547.41L1275.61 1570.41L1275.61 1616.41L1235.77 1639.41L1195.93 1616.41L1195.93 1570.41zM1195.93 1616.41L1235.77 1639.41L1235.77 1685.41L1195.93 1708.41L1156.09 1685.41L1156.09 1639.41zM1235.77 1961.41L1275.61 1984.41L1275.61 2030.41L1235.77 2053.41L1195.93 2030.41L1195.93 1984.41zM1195.93 2306.41L1235.77 2329.41L1235.77 2375.41L1195.93 2398.41L1156.09 2375.41L1156.09 2329.41zM1195.93 2582.41L1235.77 2605.41L1235.77 2651.41L1195.93 2674.41L1156.09 2651.41L1156.09 2605.41zM1195.93 2720.41L1235.77 2743.41L1235.77 2789.41L1195.93 2812.41L1156.09 2789.41L1156.09 2743.41zM1275.61 -39.59L1315.44 -16.59L1315.44 29.41L1275.61 52.41L1235.77 29.41L1235.77 -16.59zM1275.61 98.41L1315.44 121.41L1315.44 167.41L1275.61 190.41L1235.77 167.41L1235.77 121.41zM1315.44 305.41L1355.28 328.41L1355.28 374.41L1315.44 397.41L1275.61 374.41L1275.61 328.41zM1275.61 374.41L1315.44 397.41L1315.44 443.41L1275.61 466.41L1235.77 443.41L1235.77 397.41zM1315.44 443.41L1355.28 466.41L1355.28 512.41L1315.44 535.41L1275.61 512.41L1275.61 466.41zM1275.61 512.41L1315.44 535.41L1315.44 581.41L1275.61 604.41L1235.77 581.41L1235.77 535.41zM1315.44 857.41L1355.28 880.41L1355.28 926.41L1315.44 949.41L1275.61 926.41L1275.61 880.41zM1315.44 1133.41L1355.28 1156.41L1355.28 1202.41L1315.44 1225.41L1275.61 1202.41L1275.61 1156.41zM1275.61 1202.41L1315.44 1225.41L1315.44 1271.41L1275.61 1294.41L1235.77 1271.41L1235.77 1225.41zM1315.44 1409.41L1355.28 1432.41L1355.28 1478.41L1315.44 1501.41L1275.61 1478.41L1275.61 1432.41zM1275.61 1478.41L1315.44 1501.41L1315.44 1547.41L1275.61 1570.41L1235.77 1547.41L1235.77 1501.41zM1315.44 1547.41L1355.28 1570.41L1355.28 1616.41L1315.44 1639.41L1275.61 1616.41L1275.61 1570.41zM1315.44 2513.41L1355.28 2536.41L1355.28 2582.41L1315.44 2605.41L1275.61 2582.41L1275.61 2536.41zM1275.61 2582.41L1315.44 2605.41L1315.44 2651.41L1275.61 2674.41L1235.77 2651.41L1235.77 2605.41zM1355.28 98.41L1395.12 121.41L1395.12 167.41L1355.28 190.41L1315.44 167.41L1315.44 121.41zM1395.12 167.41L1434.96 190.41L1434.96 236.41L1395.12 259.41L1355.28 236.41L1355.28 190.41zM1355.28 236.41L1395.12 259.41L1395.12 305.41L1355.28 328.41L1315.44 305.41L1315.44 259.41zM1395.12 305.41L1434.96 328.41L1434.96 374.41L1395.12 397.41L1355.28 374.41L1355.28 328.41zM1355.28 374.41L1395.12 397.41L1395.12 443.41L1355.28 466.41L1315.44 443.41L1315.44 397.41zM1395.12 443.41L1434.96 466.41L1434.96 512.41L1395.12 535.41L1355.28 512.41L1355.28 466.41zM1355.28 788.41L1395.12 811.41L1395.12 857.41L1355.28 880.41L1315.44 857.41L1315.44 811.41zM1395.12 857.41L1434.96 880.41L1434.96 926.41L1395.12 949.41L1355.28 926.41L1355.28 880.41zM1395.12 995.41L1434.96 1018.41L1434.96 1064.41L1395.12 1087.41L1355.28 1064.41L1355.28 1018.41zM1395.12 1409.41L1434.96 1432.41L1434.96 1478.41L1395.12 1501.41L1355.28 1478.41L1355.28 1432.41zM1395.12 1685.41L1434.96 1708.41L1434.96 1754.41L1395.12 1777.41L1355.28 1754.41L1355.28 1708.41zM1355.28 1754.41L1395.12 1777.41L1395.12 1823.41L1355.28 1846.41L1315.44 1823.41L1315.44 1777.41zM1395.12 1823.41L1434.96 1846.41L1434.96 1892.41L1395.12 1915.41L1355.28 1892.41L1355.28 1846.41zM1395.12 1961.41L1434.96 1984.41L1434.96 2030.41L1395.12 2053.41L1355.28 2030.41L1355.28 1984.41zM1395.12 2099.41L1434.96 2122.41L1434.96 2168.41L1395.12 2191.41L1355.28 2168.41L1355.28 2122.41zM1395.12 2237.41L1434.96 2260.41L1434.96 2306.41L1395.12 2329.41L1355.28 2306.41L1355.28 2260.41zM1355.28 2444.41L1395.12 2467.41L1395.12 2513.41L1355.28 2536.41L1315.44 2513.41L1315.44 2467.41zM1355.28 2582.41L1395.12 2605.41L1395.12 2651.41L1355.28 2674.41L1315.44 2651.41L1315.44 2605.41zM1395.12 2651.41L1434.96 2674.41L1434.96 2720.41L1395.12 2743.41L1355.28 2720.41L1355.28 2674.41zM1355.28 2858.41L1395.12 2881.41L1395.12 2927.41L1355.28 2950.41L1315.44 2927.41L1315.44 2881.41zM1474.8 29.41L1514.64 52.41L1514.64 98.41L1474.8 121.41L1434.96 98.41L1434.96 52.41zM1434.96 236.41L1474.8 259.41L1474.8 305.41L1434.96 328.41L1395.12 305.41L1395.12 259.41zM1474.8 305.41L1514.64 328.41L1514.64 374.41L1474.8 397.41L1434.96 374.41L1434.96 328.41zM1474.8 581.41L1514.64 604.41L1514.64 650.41L1474.8 673.41L1434.96 650.41L1434.96 604.41zM1434.96 650.41L1474.8 673.41L1474.8 719.41L1434.96 742.41L1395.12 719.41L1395.12 673.41zM1474.8 719.41L1514.64 742.41L1514.64 788.41L1474.8 811.41L1434.96 788.41L1434.96 742.41zM1474.8 857.41L1514.64 880.41L1514.64 926.41L1474.8 949.41L1434.96 926.41L1434.96 880.41zM1434.96 926.41L1474.8 949.41L1474.8 995.41L1434.96 1018.41L1395.12 995.41L1395.12 949.41zM1474.8 995.41L1514.64 1018.41L1514.64 1064.41L1474.8 1087.41L1434.96 1064.41L1434.96 1018.41zM1474.8 1133.41L1514.64 1156.41L1514.64 1202.41L1474.8 1225.41L1434.96 1202.41L1434.96 1156.41zM1434.96 1202.41L1474.8 1225.41L1474.8 1271.41L1434.96 1294.41L1395.12 1271.41L1395.12 1225.41zM1474.8 1547.41L1514.64 1570.41L1514.64 1616.41L1474.8 1639.41L1434.96 1616.41L1434.96 1570.41zM1474.8 1685.41L1514.64 1708.41L1514.64 1754.41L1474.8 1777.41L1434.96 1754.41L1434.96 1708.41zM1434.96 1892.41L1474.8 1915.41L1474.8 1961.41L1434.96 1984.41L1395.12 1961.41L1395.12 1915.41zM1434.96 2306.41L1474.8 2329.41L1474.8 2375.41L1434.96 2398.41L1395.12 2375.41L1395.12 2329.41zM1434.96 2582.41L1474.8 2605.41L1474.8 2651.41L1434.96 2674.41L1395.12 2651.41L1395.12 2605.41zM1434.96 2858.41L1474.8 2881.41L1474.8 2927.41L1434.96 2950.41L1395.12 2927.41L1395.12 2881.41zM1554.47 29.41L1594.31 52.41L1594.31 98.41L1554.47 121.41L1514.64 98.41L1514.64 52.41zM1554.47 167.41L1594.31 190.41L1594.31 236.41L1554.47 259.41L1514.64 236.41L1514.64 190.41zM1514.64 374.41L1554.47 397.41L1554.47 443.41L1514.64 466.41L1474.8 443.41L1474.8 397.41zM1514.64 512.41L1554.47 535.41L1554.47 581.41L1514.64 604.41L1474.8 581.41L1474.8 535.41zM1554.47 857.41L1594.31 880.41L1594.31 926.41L1554.47 949.41L1514.64 926.41L1514.64 880.41zM1514.64 926.41L1554.47 949.41L1554.47 995.41L1514.64 1018.41L1474.8 995.41L1474.8 949.41zM1554.47 995.41L1594.31 1018.41L1594.31 1064.41L1554.47 1087.41L1514.64 1064.41L1514.64 1018.41zM1554.47 1271.41L1594.31 1294.41L1594.31 1340.41L1554.47 1363.41L1514.64 1340.41L1514.64 1294.41zM1514.64 1340.41L1554.47 1363.41L1554.47 1409.41L1514.64 1432.41L1474.8 1409.41L1474.8 1363.41zM1554.47 1409.41L1594.31 1432.41L1594.31 1478.41L1554.47 1501.41L1514.64 1478.41L1514.64 1432.41zM1554.47 1547.41L1594.31 1570.41L1594.31 1616.41L1554.47 1639.41L1514.64 1616.41L1514.64 1570.41zM1514.64 1754.41L1554.47 1777.41L1554.47 1823.41L1514.64 1846.41L1474.8 1823.41L1474.8 1777.41zM1554.47 1961.41L1594.31 1984.41L1594.31 2030.41L1554.47 2053.41L1514.64 2030.41L1514.64 1984.41zM1554.47 2099.41L1594.31 2122.41L1594.31 2168.41L1554.47 2191.41L1514.64 2168.41L1514.64 2122.41zM1554.47 2375.41L1594.31 2398.41L1594.31 2444.41L1554.47 2467.41L1514.64 2444.41L1514.64 2398.41zM1514.64 2582.41L1554.47 2605.41L1554.47 2651.41L1514.64 2674.41L1474.8 2651.41L1474.8 2605.41zM1554.47 2789.41L1594.31 2812.41L1594.31 2858.41L1554.47 2881.41L1514.64 2858.41L1514.64 2812.41zM1514.64 2858.41L1554.47 2881.41L1554.47 2927.41L1514.64 2950.41L1474.8 2927.41L1474.8 2881.41zM1634.15 29.41L1673.99 52.41L1673.99 98.41L1634.15 121.41L1594.31 98.41L1594.31 52.41zM1594.31 512.41L1634.15 535.41L1634.15 581.41L1594.31 604.41L1554.47 581.41L1554.47 535.41zM1634.15 581.41L1673.99 604.41L1673.99 650.41L1634.15 673.41L1594.31 650.41L1594.31 604.41zM1594.31 788.41L1634.15 811.41L1634.15 857.41L1594.31 880.41L1554.47 857.41L1554.47 811.41zM1594.31 926.41L1634.15 949.41L1634.15 995.41L1594.31 1018.41L1554.47 995.41L1554.47 949.41zM1594.31 1064.41L1634.15 1087.41L1634.15 1133.41L1594.31 1156.41L1554.47 1133.41L1554.47 1087.41zM1634.15 1271.41L1673.99 1294.41L1673.99 1340.41L1634.15 1363.41L1594.31 1340.41L1594.31 1294.41zM1594.31 1478.41L1634.15 1501.41L1634.15 1547.41L1594.31 1570.41L1554.47 1547.41L1554.47 1501.41zM1634.15 1685.41L1673.99 1708.41L1673.99 1754.41L1634.15 1777.41L1594.31 1754.41L1594.31 1708.41zM1594.31 1754.41L1634.15 1777.41L1634.15 1823.41L1594.31 1846.41L1554.47 1823.41L1554.47 1777.41zM1634.15 1961.41L1673.99 1984.41L1673.99 2030.41L1634.15 2053.41L1594.31 2030.41L1594.31 1984.41zM1594.31 2030.41L1634.15 2053.41L1634.15 2099.41L1594.31 2122.41L1554.47 2099.41L1554.47 2053.41zM1634.15 2099.41L1673.99 2122.41L1673.99 2168.41L1634.15 2191.41L1594.31 2168.41L1594.31 2122.41zM1634.15 2513.41L1673.99 2536.41L1673.99 2582.41L1634.15 2605.41L1594.31 2582.41L1594.31 2536.41zM1594.31 2720.41L1634.15 2743.41L1634.15 2789.41L1594.31 2812.41L1554.47 2789.41L1554.47 2743.41zM1673.99 98.41L1713.83 121.41L1713.83 167.41L1673.99 190.41L1634.15 167.41L1634.15 121.41zM1713.83 167.41L1753.67 190.41L1753.67 236.41L1713.83 259.41L1673.99 236.41L1673.99 190.41zM1713.83 443.41L1753.67 466.41L1753.67 512.41L1713.83 535.41L1673.99 512.41L1673.99 466.41zM1673.99 512.41L1713.83 535.41L1713.83 581.41L1673.99 604.41L1634.15 581.41L1634.15 535.41zM1713.83 581.41L1753.67 604.41L1753.67 650.41L1713.83 673.41L1673.99 650.41L1673.99 604.41zM1673.99 650.41L1713.83 673.41L1713.83 719.41L1673.99 742.41L1634.15 719.41L1634.15 673.41zM1713.83 857.41L1753.67 880.41L1753.67 926.41L1713.83 949.41L1673.99 926.41L1673.99 880.41zM1673.99 1064.41L1713.83 1087.41L1713.83 1133.41L1673.99 1156.41L1634.15 1133.41L1634.15 1087.41zM1673.99 1478.41L1713.83 1501.41L1713.83 1547.41L1673.99 1570.41L1634.15 1547.41L1634.15 1501.41zM1713.83 1685.41L1753.67 1708.41L1753.67 1754.41L1713.83 1777.41L1673.99 1754.41L1673.99 1708.41zM1713.83 1823.41L1753.67 1846.41L1753.67 1892.41L1713.83 1915.41L1673.99 1892.41L1673.99 1846.41zM1673.99 1892.41L1713.83 1915.41L1713.83 1961.41L1673.99 1984.41L1634.15 1961.41L1634.15 1915.41zM1673.99 2168.41L1713.83 2191.41L1713.83 2237.41L1673.99 2260.41L1634.15 2237.41L1634.15 2191.41zM1673.99 2306.41L1713.83 2329.41L1713.83 2375.41L1673.99 2398.41L1634.15 2375.41L1634.15 2329.41zM1673.99 2720.41L1713.83 2743.41L1713.83 2789.41L1673.99 2812.41L1634.15 2789.41L1634.15 2743.41zM1713.83 2789.41L1753.67 2812.41L1753.67 2858.41L1713.83 2881.41L1673.99 2858.41L1673.99 2812.41zM1753.67 -39.59L1793.5 -16.59L1793.5 29.41L1753.67 52.41L1713.83 29.41L1713.83 -16.59zM1793.5 443.41L1833.34 466.41L1833.34 512.41L1793.5 535.41L1753.67 512.41L1753.67 466.41zM1793.5 581.41L1833.34 604.41L1833.34 650.41L1793.5 673.41L1753.67 650.41L1753.67 604.41zM1753.67 650.41L1793.5 673.41L1793.5 719.41L1753.67 742.41L1713.83 719.41L1713.83 673.41zM1793.5 719.41L1833.34 742.41L1833.34 788.41L1793.5 811.41L1753.67 788.41L1753.67 742.41zM1753.67 788.41L1793.5 811.41L1793.5 857.41L1753.67 880.41L1713.83 857.41L1713.83 811.41zM1793.5 995.41L1833.34 1018.41L1833.34 1064.41L1793.5 1087.41L1753.67 1064.41L1753.67 1018.41zM1753.67 1064.41L1793.5 1087.41L1793.5 1133.41L1753.67 1156.41L1713.83 1133.41L1713.83 1087.41zM1793.5 1133.41L1833.34 1156.41L1833.34 1202.41L1793.5 1225.41L1753.67 1202.41L1753.67 1156.41zM1753.67 1202.41L1793.5 1225.41L1793.5 1271.41L1753.67 1294.41L1713.83 1271.41L1713.83 1225.41zM1793.5 1547.41L1833.34 1570.41L1833.34 1616.41L1793.5 1639.41L1753.67 1616.41L1753.67 1570.41zM1793.5 1685.41L1833.34 1708.41L1833.34 1754.41L1793.5 1777.41L1753.67 1754.41L1753.67 1708.41zM1793.5 1823.41L1833.34 1846.41L1833.34 1892.41L1793.5 1915.41L1753.67 1892.41L1753.67 1846.41zM1753.67 2030.41L1793.5 2053.41L1793.5 2099.41L1753.67 2122.41L1713.83 2099.41L1713.83 2053.41zM1793.5 2237.41L1833.34 2260.41L1833.34 2306.41L1793.5 2329.41L1753.67 2306.41L1753.67 2260.41zM1793.5 2375.41L1833.34 2398.41L1833.34 2444.41L1793.5 2467.41L1753.67 2444.41L1753.67 2398.41zM1753.67 2582.41L1793.5 2605.41L1793.5 2651.41L1753.67 2674.41L1713.83 2651.41L1713.83 2605.41zM1793.5 2789.41L1833.34 2812.41L1833.34 2858.41L1793.5 2881.41L1753.67 2858.41L1753.67 2812.41zM1753.67 2858.41L1793.5 2881.41L1793.5 2927.41L1753.67 2950.41L1713.83 2927.41L1713.83 2881.41zM1793.5 2927.41L1833.34 2950.41L1833.34 2996.41L1793.5 3019.41L1753.67 2996.41L1753.67 2950.41zM1833.34 -39.59L1873.18 -16.59L1873.18 29.41L1833.34 52.41L1793.5 29.41L1793.5 -16.59zM1833.34 98.41L1873.18 121.41L1873.18 167.41L1833.34 190.41L1793.5 167.41L1793.5 121.41zM1833.34 374.41L1873.18 397.41L1873.18 443.41L1833.34 466.41L1793.5 443.41L1793.5 397.41zM1833.34 512.41L1873.18 535.41L1873.18 581.41L1833.34 604.41L1793.5 581.41L1793.5 535.41zM1873.18 719.41L1913.02 742.41L1913.02 788.41L1873.18 811.41L1833.34 788.41L1833.34 742.41zM1873.18 857.41L1913.02 880.41L1913.02 926.41L1873.18 949.41L1833.34 926.41L1833.34 880.41zM1833.34 1202.41L1873.18 1225.41L1873.18 1271.41L1833.34 1294.41L1793.5 1271.41L1793.5 1225.41zM1833.34 1340.41L1873.18 1363.41L1873.18 1409.41L1833.34 1432.41L1793.5 1409.41L1793.5 1363.41zM1873.18 1409.41L1913.02 1432.41L1913.02 1478.41L1873.18 1501.41L1833.34 1478.41L1833.34 1432.41zM1873.18 1961.41L1913.02 1984.41L1913.02 2030.41L1873.18 2053.41L1833.34 2030.41L1833.34 1984.41zM1833.34 2030.41L1873.18 2053.41L1873.18 2099.41L1833.34 2122.41L1793.5 2099.41L1793.5 2053.41zM1873.18 2099.41L1913.02 2122.41L1913.02 2168.41L1873.18 2191.41L1833.34 2168.41L1833.34 2122.41zM1833.34 2582.41L1873.18 2605.41L1873.18 2651.41L1833.34 2674.41L1793.5 2651.41L1793.5 2605.41zM1873.18 2789.41L1913.02 2812.41L1913.02 2858.41L1873.18 2881.41L1833.34 2858.41L1833.34 2812.41zM1833.34 2858.41L1873.18 2881.41L1873.18 2927.41L1833.34 2950.41L1793.5 2927.41L1793.5 2881.41zM1952.86 29.41L1992.69 52.41L1992.69 98.41L1952.86 121.41L1913.02 98.41L1913.02 52.41zM1952.86 305.41L1992.69 328.41L1992.69 374.41L1952.86 397.41L1913.02 374.41L1913.02 328.41zM1913.02 374.41L1952.86 397.41L1952.86 443.41L1913.02 466.41L1873.18 443.41L1873.18 397.41zM1913.02 650.41L1952.86 673.41L1952.86 719.41L1913.02 742.41L1873.18 719.41L1873.18 673.41zM1913.02 926.41L1952.86 949.41L1952.86 995.41L1913.02 1018.41L1873.18 995.41L1873.18 949.41zM1952.86 995.41L1992.69 1018.41L1992.69 1064.41L1952.86 1087.41L1913.02 1064.41L1913.02 1018.41zM1913.02 1202.41L1952.86 1225.41L1952.86 1271.41L1913.02 1294.41L1873.18 1271.41L1873.18 1225.41zM1952.86 1685.41L1992.69 1708.41L1992.69 1754.41L1952.86 1777.41L1913.02 1754.41L1913.02 1708.41zM1913.02 1754.41L1952.86 1777.41L1952.86 1823.41L1913.02 1846.41L1873.18 1823.41L1873.18 1777.41zM1913.02 2306.41L1952.86 2329.41L1952.86 2375.41L1913.02 2398.41L1873.18 2375.41L1873.18 2329.41zM1952.86 2513.41L1992.69 2536.41L1992.69 2582.41L1952.86 2605.41L1913.02 2582.41L1913.02 2536.41zM1913.02 2582.41L1952.86 2605.41L1952.86 2651.41L1913.02 2674.41L1873.18 2651.41L1873.18 2605.41zM1952.86 2651.41L1992.69 2674.41L1992.69 2720.41L1952.86 2743.41L1913.02 2720.41L1913.02 2674.41zM1913.02 2720.41L1952.86 2743.41L1952.86 2789.41L1913.02 2812.41L1873.18 2789.41L1873.18 2743.41zM1913.02 2858.41L1952.86 2881.41L1952.86 2927.41L1913.02 2950.41L1873.18 2927.41L1873.18 2881.41zM1952.86 2927.41L1992.69 2950.41L1992.69 2996.41L1952.86 3019.41L1913.02 2996.41L1913.02 2950.41z" stroke="rgba(7, 95, 110, 1)" stroke-width="2"></path></g><defs><mask id="SvgjsMask2806"><rect width="1920" height="3000" fill="#ffffff"></rect></mask><linearGradient x1="-14.06%" y1="9%" x2="114.06%" y2="91%" gradientUnits="userSpaceOnUse" id="SvgjsLinearGradient2807"><stop stop-color="rgba(4, 60, 69, 1)" offset="0"></stop><stop stop-color="rgba(0, 36, 37, 1)" offset="1"></stop></linearGradient></defs></svg>