<svg xmlns="http://www.w3.org/2000/svg" version="1.1" xmlns:xlink="http://www.w3.org/1999/xlink" xmlns:svgjs="http://svgjs.dev/svgjs" width="1920" height="3000" preserveAspectRatio="none" viewBox="0 0 1920 3000"><g mask="url(&quot;#SvgjsMask6951&quot;)" fill="none"><rect width="1920" height="3000" x="0" y="0" fill="url(&quot;#SvgjsLinearGradient6952&quot;)"></rect><path d="M60.93 -66.16L182.18 3.84L182.18 143.84L60.93 213.84L-60.32 143.84L-60.32 3.84zM182.18 143.84L303.42 213.84L303.42 353.84L182.18 423.84L60.93 353.84L60.93 213.84zM60.93 353.84L182.18 423.84L182.18 563.84L60.93 633.84L-60.32 563.84L-60.32 423.84zM182.18 563.84L303.42 633.84L303.42 773.84L182.18 843.84L60.93 773.84L60.93 633.84zM60.93 1613.84L182.18 1683.84L182.18 1823.84L60.93 1893.84L-60.32 1823.84L-60.32 1683.84zM182.18 1823.84L303.42 1893.84L303.42 2033.84L182.18 2103.84L60.93 2033.84L60.93 1893.84zM60.93 2033.84L182.18 2103.84L182.18 2243.84L60.93 2313.84L-60.32 2243.84L-60.32 2103.84zM182.18 2243.84L303.42 2313.84L303.42 2453.84L182.18 2523.84L60.93 2453.84L60.93 2313.84zM60.93 2453.84L182.18 2523.84L182.18 2663.84L60.93 2733.84L-60.32 2663.84L-60.32 2523.84zM303.42 1613.84L424.67 1683.84L424.67 1823.84L303.42 1893.84L182.18 1823.84L182.18 1683.84zM303.42 2453.84L424.67 2523.84L424.67 2663.84L303.42 2733.84L182.18 2663.84L182.18 2523.84zM424.67 2663.84L545.92 2733.84L545.92 2873.84L424.67 2943.84L303.42 2873.84L303.42 2733.84zM545.92 -66.16L667.16 3.84L667.16 143.84L545.92 213.84L424.67 143.84L424.67 3.84zM667.16 563.84L788.41 633.84L788.41 773.84L667.16 843.84L545.92 773.84L545.92 633.84zM545.92 773.84L667.16 843.84L667.16 983.84L545.92 1053.84L424.67 983.84L424.67 843.84zM667.16 1403.84L788.41 1473.84L788.41 1613.84L667.16 1683.84L545.92 1613.84L545.92 1473.84zM545.92 1613.84L667.16 1683.84L667.16 1823.84L545.92 1893.84L424.67 1823.84L424.67 1683.84zM667.16 2243.84L788.41 2313.84L788.41 2453.84L667.16 2523.84L545.92 2453.84L545.92 2313.84zM545.92 2873.84L667.16 2943.84L667.16 3083.84L545.92 3153.84L424.67 3083.84L424.67 2943.84zM788.41 -66.16L909.66 3.84L909.66 143.84L788.41 213.84L667.16 143.84L667.16 3.84zM909.66 983.84L1030.91 1053.84L1030.91 1193.84L909.66 1263.84L788.41 1193.84L788.41 1053.84zM909.66 1823.84L1030.91 1893.84L1030.91 2033.84L909.66 2103.84L788.41 2033.84L788.41 1893.84zM788.41 2033.84L909.66 2103.84L909.66 2243.84L788.41 2313.84L667.16 2243.84L667.16 2103.84zM788.41 2453.84L909.66 2523.84L909.66 2663.84L788.41 2733.84L667.16 2663.84L667.16 2523.84zM1030.91 -66.16L1152.15 3.84L1152.15 143.84L1030.91 213.84L909.66 143.84L909.66 3.84zM1030.91 353.84L1152.15 423.84L1152.15 563.84L1030.91 633.84L909.66 563.84L909.66 423.84zM1152.15 563.84L1273.4 633.84L1273.4 773.84L1152.15 843.84L1030.91 773.84L1030.91 633.84zM1030.91 773.84L1152.15 843.84L1152.15 983.84L1030.91 1053.84L909.66 983.84L909.66 843.84zM1030.91 1613.84L1152.15 1683.84L1152.15 1823.84L1030.91 1893.84L909.66 1823.84L909.66 1683.84zM1030.91 2033.84L1152.15 2103.84L1152.15 2243.84L1030.91 2313.84L909.66 2243.84L909.66 2103.84zM1152.15 2243.84L1273.4 2313.84L1273.4 2453.84L1152.15 2523.84L1030.91 2453.84L1030.91 2313.84zM1030.91 2453.84L1152.15 2523.84L1152.15 2663.84L1030.91 2733.84L909.66 2663.84L909.66 2523.84zM1273.4 -66.16L1394.65 3.84L1394.65 143.84L1273.4 213.84L1152.15 143.84L1152.15 3.84zM1394.65 143.84L1515.89 213.84L1515.89 353.84L1394.65 423.84L1273.4 353.84L1273.4 213.84zM1394.65 563.84L1515.89 633.84L1515.89 773.84L1394.65 843.84L1273.4 773.84L1273.4 633.84zM1273.4 773.84L1394.65 843.84L1394.65 983.84L1273.4 1053.84L1152.15 983.84L1152.15 843.84zM1394.65 983.84L1515.89 1053.84L1515.89 1193.84L1394.65 1263.84L1273.4 1193.84L1273.4 1053.84zM1273.4 1613.84L1394.65 1683.84L1394.65 1823.84L1273.4 1893.84L1152.15 1823.84L1152.15 1683.84zM1273.4 2033.84L1394.65 2103.84L1394.65 2243.84L1273.4 2313.84L1152.15 2243.84L1152.15 2103.84zM1394.65 2243.84L1515.89 2313.84L1515.89 2453.84L1394.65 2523.84L1273.4 2453.84L1273.4 2313.84zM1273.4 2453.84L1394.65 2523.84L1394.65 2663.84L1273.4 2733.84L1152.15 2663.84L1152.15 2523.84zM1637.14 143.84L1758.39 213.84L1758.39 353.84L1637.14 423.84L1515.89 353.84L1515.89 213.84zM1637.14 563.84L1758.39 633.84L1758.39 773.84L1637.14 843.84L1515.89 773.84L1515.89 633.84zM1637.14 983.84L1758.39 1053.84L1758.39 1193.84L1637.14 1263.84L1515.89 1193.84L1515.89 1053.84zM1515.89 2033.84L1637.14 2103.84L1637.14 2243.84L1515.89 2313.84L1394.65 2243.84L1394.65 2103.84zM1515.89 2453.84L1637.14 2523.84L1637.14 2663.84L1515.89 2733.84L1394.65 2663.84L1394.65 2523.84zM1758.39 353.84L1879.64 423.84L1879.64 563.84L1758.39 633.84L1637.14 563.84L1637.14 423.84zM1879.64 983.84L2000.88 1053.84L2000.88 1193.84L1879.64 1263.84L1758.39 1193.84L1758.39 1053.84z" stroke="url(&quot;#SvgjsLinearGradient6953&quot;)" stroke-width="2"></path><path d="M46.93 -66.16 a14 14 0 1 0 28 0 a14 14 0 1 0 -28 0zM168.18 3.84 a14 14 0 1 0 28 0 a14 14 0 1 0 -28 0zM168.18 143.84 a14 14 0 1 0 28 0 a14 14 0 1 0 -28 0zM46.93 213.84 a14 14 0 1 0 28 0 a14 14 0 1 0 -28 0zM-74.32 143.84 a14 14 0 1 0 28 0 a14 14 0 1 0 -28 0zM-74.32 3.84 a14 14 0 1 0 28 0 a14 14 0 1 0 -28 0zM289.42 213.84 a14 14 0 1 0 28 0 a14 14 0 1 0 -28 0zM289.42 353.84 a14 14 0 1 0 28 0 a14 14 0 1 0 -28 0zM168.18 423.84 a14 14 0 1 0 28 0 a14 14 0 1 0 -28 0zM46.93 353.84 a14 14 0 1 0 28 0 a14 14 0 1 0 -28 0zM168.18 563.84 a14 14 0 1 0 28 0 a14 14 0 1 0 -28 0zM46.93 633.84 a14 14 0 1 0 28 0 a14 14 0 1 0 -28 0zM-74.32 563.84 a14 14 0 1 0 28 0 a14 14 0 1 0 -28 0zM-74.32 423.84 a14 14 0 1 0 28 0 a14 14 0 1 0 -28 0zM289.42 633.84 a14 14 0 1 0 28 0 a14 14 0 1 0 -28 0zM289.42 773.84 a14 14 0 1 0 28 0 a14 14 0 1 0 -28 0zM168.18 843.84 a14 14 0 1 0 28 0 a14 14 0 1 0 -28 0zM46.93 773.84 a14 14 0 1 0 28 0 a14 14 0 1 0 -28 0zM46.93 1613.84 a14 14 0 1 0 28 0 a14 14 0 1 0 -28 0zM168.18 1683.84 a14 14 0 1 0 28 0 a14 14 0 1 0 -28 0zM168.18 1823.84 a14 14 0 1 0 28 0 a14 14 0 1 0 -28 0zM46.93 1893.84 a14 14 0 1 0 28 0 a14 14 0 1 0 -28 0zM-74.32 1823.84 a14 14 0 1 0 28 0 a14 14 0 1 0 -28 0zM-74.32 1683.84 a14 14 0 1 0 28 0 a14 14 0 1 0 -28 0zM289.42 1893.84 a14 14 0 1 0 28 0 a14 14 0 1 0 -28 0zM289.42 2033.84 a14 14 0 1 0 28 0 a14 14 0 1 0 -28 0zM168.18 2103.84 a14 14 0 1 0 28 0 a14 14 0 1 0 -28 0zM46.93 2033.84 a14 14 0 1 0 28 0 a14 14 0 1 0 -28 0zM168.18 2243.84 a14 14 0 1 0 28 0 a14 14 0 1 0 -28 0zM46.93 2313.84 a14 14 0 1 0 28 0 a14 14 0 1 0 -28 0zM-74.32 2243.84 a14 14 0 1 0 28 0 a14 14 0 1 0 -28 0zM-74.32 2103.84 a14 14 0 1 0 28 0 a14 14 0 1 0 -28 0zM289.42 2313.84 a14 14 0 1 0 28 0 a14 14 0 1 0 -28 0zM289.42 2453.84 a14 14 0 1 0 28 0 a14 14 0 1 0 -28 0zM168.18 2523.84 a14 14 0 1 0 28 0 a14 14 0 1 0 -28 0zM46.93 2453.84 a14 14 0 1 0 28 0 a14 14 0 1 0 -28 0zM168.18 2663.84 a14 14 0 1 0 28 0 a14 14 0 1 0 -28 0zM46.93 2733.84 a14 14 0 1 0 28 0 a14 14 0 1 0 -28 0zM-74.32 2663.84 a14 14 0 1 0 28 0 a14 14 0 1 0 -28 0zM-74.32 2523.84 a14 14 0 1 0 28 0 a14 14 0 1 0 -28 0zM289.42 1613.84 a14 14 0 1 0 28 0 a14 14 0 1 0 -28 0zM410.67 1683.84 a14 14 0 1 0 28 0 a14 14 0 1 0 -28 0zM410.67 1823.84 a14 14 0 1 0 28 0 a14 14 0 1 0 -28 0zM410.67 2523.84 a14 14 0 1 0 28 0 a14 14 0 1 0 -28 0zM410.67 2663.84 a14 14 0 1 0 28 0 a14 14 0 1 0 -28 0zM289.42 2733.84 a14 14 0 1 0 28 0 a14 14 0 1 0 -28 0zM531.92 2733.84 a14 14 0 1 0 28 0 a14 14 0 1 0 -28 0zM531.92 2873.84 a14 14 0 1 0 28 0 a14 14 0 1 0 -28 0zM410.67 2943.84 a14 14 0 1 0 28 0 a14 14 0 1 0 -28 0zM289.42 2873.84 a14 14 0 1 0 28 0 a14 14 0 1 0 -28 0zM531.92 -66.16 a14 14 0 1 0 28 0 a14 14 0 1 0 -28 0zM653.16 3.84 a14 14 0 1 0 28 0 a14 14 0 1 0 -28 0zM653.16 143.84 a14 14 0 1 0 28 0 a14 14 0 1 0 -28 0zM531.92 213.84 a14 14 0 1 0 28 0 a14 14 0 1 0 -28 0zM410.67 143.84 a14 14 0 1 0 28 0 a14 14 0 1 0 -28 0zM410.67 3.84 a14 14 0 1 0 28 0 a14 14 0 1 0 -28 0zM653.16 563.84 a14 14 0 1 0 28 0 a14 14 0 1 0 -28 0zM774.41 633.84 a14 14 0 1 0 28 0 a14 14 0 1 0 -28 0zM774.41 773.84 a14 14 0 1 0 28 0 a14 14 0 1 0 -28 0zM653.16 843.84 a14 14 0 1 0 28 0 a14 14 0 1 0 -28 0zM531.92 773.84 a14 14 0 1 0 28 0 a14 14 0 1 0 -28 0zM531.92 633.84 a14 14 0 1 0 28 0 a14 14 0 1 0 -28 0zM653.16 983.84 a14 14 0 1 0 28 0 a14 14 0 1 0 -28 0zM531.92 1053.84 a14 14 0 1 0 28 0 a14 14 0 1 0 -28 0zM410.67 983.84 a14 14 0 1 0 28 0 a14 14 0 1 0 -28 0zM410.67 843.84 a14 14 0 1 0 28 0 a14 14 0 1 0 -28 0zM653.16 1403.84 a14 14 0 1 0 28 0 a14 14 0 1 0 -28 0zM774.41 1473.84 a14 14 0 1 0 28 0 a14 14 0 1 0 -28 0zM774.41 1613.84 a14 14 0 1 0 28 0 a14 14 0 1 0 -28 0zM653.16 1683.84 a14 14 0 1 0 28 0 a14 14 0 1 0 -28 0zM531.92 1613.84 a14 14 0 1 0 28 0 a14 14 0 1 0 -28 0zM531.92 1473.84 a14 14 0 1 0 28 0 a14 14 0 1 0 -28 0zM653.16 1823.84 a14 14 0 1 0 28 0 a14 14 0 1 0 -28 0zM531.92 1893.84 a14 14 0 1 0 28 0 a14 14 0 1 0 -28 0zM653.16 2243.84 a14 14 0 1 0 28 0 a14 14 0 1 0 -28 0zM774.41 2313.84 a14 14 0 1 0 28 0 a14 14 0 1 0 -28 0zM774.41 2453.84 a14 14 0 1 0 28 0 a14 14 0 1 0 -28 0zM653.16 2523.84 a14 14 0 1 0 28 0 a14 14 0 1 0 -28 0zM531.92 2453.84 a14 14 0 1 0 28 0 a14 14 0 1 0 -28 0zM531.92 2313.84 a14 14 0 1 0 28 0 a14 14 0 1 0 -28 0zM653.16 2943.84 a14 14 0 1 0 28 0 a14 14 0 1 0 -28 0zM653.16 3083.84 a14 14 0 1 0 28 0 a14 14 0 1 0 -28 0zM531.92 3153.84 a14 14 0 1 0 28 0 a14 14 0 1 0 -28 0zM410.67 3083.84 a14 14 0 1 0 28 0 a14 14 0 1 0 -28 0zM774.41 -66.16 a14 14 0 1 0 28 0 a14 14 0 1 0 -28 0zM895.66 3.84 a14 14 0 1 0 28 0 a14 14 0 1 0 -28 0zM895.66 143.84 a14 14 0 1 0 28 0 a14 14 0 1 0 -28 0zM774.41 213.84 a14 14 0 1 0 28 0 a14 14 0 1 0 -28 0zM895.66 983.84 a14 14 0 1 0 28 0 a14 14 0 1 0 -28 0zM1016.91 1053.84 a14 14 0 1 0 28 0 a14 14 0 1 0 -28 0zM1016.91 1193.84 a14 14 0 1 0 28 0 a14 14 0 1 0 -28 0zM895.66 1263.84 a14 14 0 1 0 28 0 a14 14 0 1 0 -28 0zM774.41 1193.84 a14 14 0 1 0 28 0 a14 14 0 1 0 -28 0zM774.41 1053.84 a14 14 0 1 0 28 0 a14 14 0 1 0 -28 0zM895.66 1823.84 a14 14 0 1 0 28 0 a14 14 0 1 0 -28 0zM1016.91 1893.84 a14 14 0 1 0 28 0 a14 14 0 1 0 -28 0zM1016.91 2033.84 a14 14 0 1 0 28 0 a14 14 0 1 0 -28 0zM895.66 2103.84 a14 14 0 1 0 28 0 a14 14 0 1 0 -28 0zM774.41 2033.84 a14 14 0 1 0 28 0 a14 14 0 1 0 -28 0zM774.41 1893.84 a14 14 0 1 0 28 0 a14 14 0 1 0 -28 0zM895.66 2243.84 a14 14 0 1 0 28 0 a14 14 0 1 0 -28 0zM653.16 2103.84 a14 14 0 1 0 28 0 a14 14 0 1 0 -28 0zM895.66 2523.84 a14 14 0 1 0 28 0 a14 14 0 1 0 -28 0zM895.66 2663.84 a14 14 0 1 0 28 0 a14 14 0 1 0 -28 0zM774.41 2733.84 a14 14 0 1 0 28 0 a14 14 0 1 0 -28 0zM653.16 2663.84 a14 14 0 1 0 28 0 a14 14 0 1 0 -28 0zM1016.91 -66.16 a14 14 0 1 0 28 0 a14 14 0 1 0 -28 0zM1138.15 3.84 a14 14 0 1 0 28 0 a14 14 0 1 0 -28 0zM1138.15 143.84 a14 14 0 1 0 28 0 a14 14 0 1 0 -28 0zM1016.91 213.84 a14 14 0 1 0 28 0 a14 14 0 1 0 -28 0zM1016.91 353.84 a14 14 0 1 0 28 0 a14 14 0 1 0 -28 0zM1138.15 423.84 a14 14 0 1 0 28 0 a14 14 0 1 0 -28 0zM1138.15 563.84 a14 14 0 1 0 28 0 a14 14 0 1 0 -28 0zM1016.91 633.84 a14 14 0 1 0 28 0 a14 14 0 1 0 -28 0zM895.66 563.84 a14 14 0 1 0 28 0 a14 14 0 1 0 -28 0zM895.66 423.84 a14 14 0 1 0 28 0 a14 14 0 1 0 -28 0zM1259.4 633.84 a14 14 0 1 0 28 0 a14 14 0 1 0 -28 0zM1259.4 773.84 a14 14 0 1 0 28 0 a14 14 0 1 0 -28 0zM1138.15 843.84 a14 14 0 1 0 28 0 a14 14 0 1 0 -28 0zM1016.91 773.84 a14 14 0 1 0 28 0 a14 14 0 1 0 -28 0zM1138.15 983.84 a14 14 0 1 0 28 0 a14 14 0 1 0 -28 0zM895.66 843.84 a14 14 0 1 0 28 0 a14 14 0 1 0 -28 0zM1016.91 1613.84 a14 14 0 1 0 28 0 a14 14 0 1 0 -28 0zM1138.15 1683.84 a14 14 0 1 0 28 0 a14 14 0 1 0 -28 0zM1138.15 1823.84 a14 14 0 1 0 28 0 a14 14 0 1 0 -28 0zM895.66 1683.84 a14 14 0 1 0 28 0 a14 14 0 1 0 -28 0zM1138.15 2103.84 a14 14 0 1 0 28 0 a14 14 0 1 0 -28 0zM1138.15 2243.84 a14 14 0 1 0 28 0 a14 14 0 1 0 -28 0zM1016.91 2313.84 a14 14 0 1 0 28 0 a14 14 0 1 0 -28 0zM1259.4 2313.84 a14 14 0 1 0 28 0 a14 14 0 1 0 -28 0zM1259.4 2453.84 a14 14 0 1 0 28 0 a14 14 0 1 0 -28 0zM1138.15 2523.84 a14 14 0 1 0 28 0 a14 14 0 1 0 -28 0zM1016.91 2453.84 a14 14 0 1 0 28 0 a14 14 0 1 0 -28 0zM1138.15 2663.84 a14 14 0 1 0 28 0 a14 14 0 1 0 -28 0zM1016.91 2733.84 a14 14 0 1 0 28 0 a14 14 0 1 0 -28 0zM1259.4 -66.16 a14 14 0 1 0 28 0 a14 14 0 1 0 -28 0zM1380.65 3.84 a14 14 0 1 0 28 0 a14 14 0 1 0 -28 0zM1380.65 143.84 a14 14 0 1 0 28 0 a14 14 0 1 0 -28 0zM1259.4 213.84 a14 14 0 1 0 28 0 a14 14 0 1 0 -28 0zM1501.89 213.84 a14 14 0 1 0 28 0 a14 14 0 1 0 -28 0zM1501.89 353.84 a14 14 0 1 0 28 0 a14 14 0 1 0 -28 0zM1380.65 423.84 a14 14 0 1 0 28 0 a14 14 0 1 0 -28 0zM1259.4 353.84 a14 14 0 1 0 28 0 a14 14 0 1 0 -28 0zM1380.65 563.84 a14 14 0 1 0 28 0 a14 14 0 1 0 -28 0zM1501.89 633.84 a14 14 0 1 0 28 0 a14 14 0 1 0 -28 0zM1501.89 773.84 a14 14 0 1 0 28 0 a14 14 0 1 0 -28 0zM1380.65 843.84 a14 14 0 1 0 28 0 a14 14 0 1 0 -28 0zM1380.65 983.84 a14 14 0 1 0 28 0 a14 14 0 1 0 -28 0zM1259.4 1053.84 a14 14 0 1 0 28 0 a14 14 0 1 0 -28 0zM1501.89 1053.84 a14 14 0 1 0 28 0 a14 14 0 1 0 -28 0zM1501.89 1193.84 a14 14 0 1 0 28 0 a14 14 0 1 0 -28 0zM1380.65 1263.84 a14 14 0 1 0 28 0 a14 14 0 1 0 -28 0zM1259.4 1193.84 a14 14 0 1 0 28 0 a14 14 0 1 0 -28 0zM1259.4 1613.84 a14 14 0 1 0 28 0 a14 14 0 1 0 -28 0zM1380.65 1683.84 a14 14 0 1 0 28 0 a14 14 0 1 0 -28 0zM1380.65 1823.84 a14 14 0 1 0 28 0 a14 14 0 1 0 -28 0zM1259.4 1893.84 a14 14 0 1 0 28 0 a14 14 0 1 0 -28 0zM1259.4 2033.84 a14 14 0 1 0 28 0 a14 14 0 1 0 -28 0zM1380.65 2103.84 a14 14 0 1 0 28 0 a14 14 0 1 0 -28 0zM1380.65 2243.84 a14 14 0 1 0 28 0 a14 14 0 1 0 -28 0zM1501.89 2313.84 a14 14 0 1 0 28 0 a14 14 0 1 0 -28 0zM1501.89 2453.84 a14 14 0 1 0 28 0 a14 14 0 1 0 -28 0zM1380.65 2523.84 a14 14 0 1 0 28 0 a14 14 0 1 0 -28 0zM1380.65 2663.84 a14 14 0 1 0 28 0 a14 14 0 1 0 -28 0zM1259.4 2733.84 a14 14 0 1 0 28 0 a14 14 0 1 0 -28 0zM1623.14 143.84 a14 14 0 1 0 28 0 a14 14 0 1 0 -28 0zM1744.39 213.84 a14 14 0 1 0 28 0 a14 14 0 1 0 -28 0zM1744.39 353.84 a14 14 0 1 0 28 0 a14 14 0 1 0 -28 0zM1623.14 423.84 a14 14 0 1 0 28 0 a14 14 0 1 0 -28 0zM1623.14 563.84 a14 14 0 1 0 28 0 a14 14 0 1 0 -28 0zM1744.39 633.84 a14 14 0 1 0 28 0 a14 14 0 1 0 -28 0zM1744.39 773.84 a14 14 0 1 0 28 0 a14 14 0 1 0 -28 0zM1623.14 843.84 a14 14 0 1 0 28 0 a14 14 0 1 0 -28 0zM1623.14 983.84 a14 14 0 1 0 28 0 a14 14 0 1 0 -28 0zM1744.39 1053.84 a14 14 0 1 0 28 0 a14 14 0 1 0 -28 0zM1744.39 1193.84 a14 14 0 1 0 28 0 a14 14 0 1 0 -28 0zM1623.14 1263.84 a14 14 0 1 0 28 0 a14 14 0 1 0 -28 0zM1501.89 2033.84 a14 14 0 1 0 28 0 a14 14 0 1 0 -28 0zM1623.14 2103.84 a14 14 0 1 0 28 0 a14 14 0 1 0 -28 0zM1623.14 2243.84 a14 14 0 1 0 28 0 a14 14 0 1 0 -28 0zM1623.14 2523.84 a14 14 0 1 0 28 0 a14 14 0 1 0 -28 0zM1623.14 2663.84 a14 14 0 1 0 28 0 a14 14 0 1 0 -28 0zM1501.89 2733.84 a14 14 0 1 0 28 0 a14 14 0 1 0 -28 0zM1865.64 423.84 a14 14 0 1 0 28 0 a14 14 0 1 0 -28 0zM1865.64 563.84 a14 14 0 1 0 28 0 a14 14 0 1 0 -28 0zM1865.64 983.84 a14 14 0 1 0 28 0 a14 14 0 1 0 -28 0zM1986.88 1053.84 a14 14 0 1 0 28 0 a14 14 0 1 0 -28 0zM1986.88 1193.84 a14 14 0 1 0 28 0 a14 14 0 1 0 -28 0zM1865.64 1263.84 a14 14 0 1 0 28 0 a14 14 0 1 0 -28 0z" fill="url(&quot;#SvgjsLinearGradient6953&quot;)"></path><path d="M19.43 308.01L125.95 369.51L125.95 492.51L19.43 554.01L-87.09 492.51L-87.09 369.51zM125.95 1599.51L232.48 1661.01L232.48 1784.01L125.95 1845.51L19.43 1784.01L19.43 1661.01zM125.95 1968.51L232.48 2030.01L232.48 2153.01L125.95 2214.51L19.43 2153.01L19.43 2030.01zM125.95 2337.51L232.48 2399.01L232.48 2522.01L125.95 2583.51L19.43 2522.01L19.43 2399.01zM232.48 308.01L339 369.51L339 492.51L232.48 554.01L125.95 492.51L125.95 369.51zM339 861.51L445.53 923.01L445.53 1046.01L339 1107.51L232.48 1046.01L232.48 923.01zM232.48 1784.01L339 1845.51L339 1968.51L232.48 2030.01L125.95 1968.51L125.95 1845.51zM339 1968.51L445.53 2030.01L445.53 2153.01L339 2214.51L232.48 2153.01L232.48 2030.01zM232.48 2153.01L339 2214.51L339 2337.51L232.48 2399.01L125.95 2337.51L125.95 2214.51zM339 2706.51L445.53 2768.01L445.53 2891.01L339 2952.51L232.48 2891.01L232.48 2768.01zM445.53 -60.99L552.05 0.51L552.05 123.51L445.53 185.01L339 123.51L339 0.51zM552.05 123.51L658.57 185.01L658.57 308.01L552.05 369.51L445.53 308.01L445.53 185.01zM552.05 861.51L658.57 923.01L658.57 1046.01L552.05 1107.51L445.53 1046.01L445.53 923.01zM445.53 1046.01L552.05 1107.51L552.05 1230.51L445.53 1292.01L339 1230.51L339 1107.51zM552.05 1230.51L658.57 1292.01L658.57 1415.01L552.05 1476.51L445.53 1415.01L445.53 1292.01zM445.53 1415.01L552.05 1476.51L552.05 1599.51L445.53 1661.01L339 1599.51L339 1476.51zM445.53 1784.01L552.05 1845.51L552.05 1968.51L445.53 2030.01L339 1968.51L339 1845.51zM552.05 2337.51L658.57 2399.01L658.57 2522.01L552.05 2583.51L445.53 2522.01L445.53 2399.01zM445.53 2522.01L552.05 2583.51L552.05 2706.51L445.53 2768.01L339 2706.51L339 2583.51zM658.57 -60.99L765.1 0.51L765.1 123.51L658.57 185.01L552.05 123.51L552.05 0.51zM765.1 492.51L871.62 554.01L871.62 677.01L765.1 738.51L658.57 677.01L658.57 554.01zM658.57 677.01L765.1 738.51L765.1 861.51L658.57 923.01L552.05 861.51L552.05 738.51zM658.57 2153.01L765.1 2214.51L765.1 2337.51L658.57 2399.01L552.05 2337.51L552.05 2214.51zM765.1 2337.51L871.62 2399.01L871.62 2522.01L765.1 2583.51L658.57 2522.01L658.57 2399.01zM978.15 123.51L1084.67 185.01L1084.67 308.01L978.15 369.51L871.62 308.01L871.62 185.01zM871.62 308.01L978.15 369.51L978.15 492.51L871.62 554.01L765.1 492.51L765.1 369.51zM978.15 861.51L1084.67 923.01L1084.67 1046.01L978.15 1107.51L871.62 1046.01L871.62 923.01zM978.15 1230.51L1084.67 1292.01L1084.67 1415.01L978.15 1476.51L871.62 1415.01L871.62 1292.01zM978.15 1968.51L1084.67 2030.01L1084.67 2153.01L978.15 2214.51L871.62 2153.01L871.62 2030.01zM1084.67 308.01L1191.2 369.51L1191.2 492.51L1084.67 554.01L978.15 492.51L978.15 369.51zM1191.2 492.51L1297.72 554.01L1297.72 677.01L1191.2 738.51L1084.67 677.01L1084.67 554.01zM1084.67 1046.01L1191.2 1107.51L1191.2 1230.51L1084.67 1292.01L978.15 1230.51L978.15 1107.51zM1191.2 1230.51L1297.72 1292.01L1297.72 1415.01L1191.2 1476.51L1084.67 1415.01L1084.67 1292.01zM1084.67 1784.01L1191.2 1845.51L1191.2 1968.51L1084.67 2030.01L978.15 1968.51L978.15 1845.51zM1191.2 2337.51L1297.72 2399.01L1297.72 2522.01L1191.2 2583.51L1084.67 2522.01L1084.67 2399.01zM1084.67 2522.01L1191.2 2583.51L1191.2 2706.51L1084.67 2768.01L978.15 2706.51L978.15 2583.51zM1297.72 -60.99L1404.24 0.51L1404.24 123.51L1297.72 185.01L1191.2 123.51L1191.2 0.51zM1404.24 123.51L1510.77 185.01L1510.77 308.01L1404.24 369.51L1297.72 308.01L1297.72 185.01zM1297.72 1046.01L1404.24 1107.51L1404.24 1230.51L1297.72 1292.01L1191.2 1230.51L1191.2 1107.51zM1404.24 1230.51L1510.77 1292.01L1510.77 1415.01L1404.24 1476.51L1297.72 1415.01L1297.72 1292.01zM1297.72 1784.01L1404.24 1845.51L1404.24 1968.51L1297.72 2030.01L1191.2 1968.51L1191.2 1845.51zM1404.24 1968.51L1510.77 2030.01L1510.77 2153.01L1404.24 2214.51L1297.72 2153.01L1297.72 2030.01zM1297.72 2891.01L1404.24 2952.51L1404.24 3075.51L1297.72 3137.01L1191.2 3075.51L1191.2 2952.51zM1510.77 308.01L1617.29 369.51L1617.29 492.51L1510.77 554.01L1404.24 492.51L1404.24 369.51zM1617.29 1230.51L1723.82 1292.01L1723.82 1415.01L1617.29 1476.51L1510.77 1415.01L1510.77 1292.01zM1510.77 1415.01L1617.29 1476.51L1617.29 1599.51L1510.77 1661.01L1404.24 1599.51L1404.24 1476.51zM1617.29 1599.51L1723.82 1661.01L1723.82 1784.01L1617.29 1845.51L1510.77 1784.01L1510.77 1661.01zM1617.29 1968.51L1723.82 2030.01L1723.82 2153.01L1617.29 2214.51L1510.77 2153.01L1510.77 2030.01zM1510.77 2153.01L1617.29 2214.51L1617.29 2337.51L1510.77 2399.01L1404.24 2337.51L1404.24 2214.51zM1510.77 2522.01L1617.29 2583.51L1617.29 2706.51L1510.77 2768.01L1404.24 2706.51L1404.24 2583.51zM1617.29 2706.51L1723.82 2768.01L1723.82 2891.01L1617.29 2952.51L1510.77 2891.01L1510.77 2768.01zM1510.77 2891.01L1617.29 2952.51L1617.29 3075.51L1510.77 3137.01L1404.24 3075.51L1404.24 2952.51zM1830.34 123.51L1936.86 185.01L1936.86 308.01L1830.34 369.51L1723.82 308.01L1723.82 185.01zM1723.82 1046.01L1830.34 1107.51L1830.34 1230.51L1723.82 1292.01L1617.29 1230.51L1617.29 1107.51zM1830.34 1230.51L1936.86 1292.01L1936.86 1415.01L1830.34 1476.51L1723.82 1415.01L1723.82 1292.01zM1723.82 1415.01L1830.34 1476.51L1830.34 1599.51L1723.82 1661.01L1617.29 1599.51L1617.29 1476.51zM1830.34 2337.51L1936.86 2399.01L1936.86 2522.01L1830.34 2583.51L1723.82 2522.01L1723.82 2399.01zM1723.82 2522.01L1830.34 2583.51L1830.34 2706.51L1723.82 2768.01L1617.29 2706.51L1617.29 2583.51zM1723.82 2891.01L1830.34 2952.51L1830.34 3075.51L1723.82 3137.01L1617.29 3075.51L1617.29 2952.51zM1936.86 -60.99L2043.39 0.51L2043.39 123.51L1936.86 185.01L1830.34 123.51L1830.34 0.51zM2043.39 123.51L2149.91 185.01L2149.91 308.01L2043.39 369.51L1936.86 308.01L1936.86 185.01zM1936.86 677.01L2043.39 738.51L2043.39 861.51L1936.86 923.01L1830.34 861.51L1830.34 738.51zM2043.39 861.51L2149.91 923.01L2149.91 1046.01L2043.39 1107.51L1936.86 1046.01L1936.86 923.01zM2043.39 1230.51L2149.91 1292.01L2149.91 1415.01L2043.39 1476.51L1936.86 1415.01L1936.86 1292.01zM2043.39 1599.51L2149.91 1661.01L2149.91 1784.01L2043.39 1845.51L1936.86 1784.01L1936.86 1661.01z" stroke="url(&quot;#SvgjsLinearGradient6954&quot;)" stroke-width="2"></path></g><defs><mask id="SvgjsMask6951"><rect width="1920" height="3000" fill="#ffffff"></rect></mask><linearGradient x1="-14.06%" y1="9%" x2="114.06%" y2="91%" gradientUnits="userSpaceOnUse" id="SvgjsLinearGradient6952"><stop stop-color="rgba(14, 42, 71, 1)" offset="0"></stop><stop stop-color="rgba(0, 73, 148, 1)" offset="1"></stop></linearGradient><linearGradient x1="-269.952" y1="270" x2="2189.952" y2="2730" gradientUnits="userSpaceOnUse" id="SvgjsLinearGradient6953"><stop stop-color="rgba(7, 0, 119, 0.02)" offset="0"></stop><stop stop-color="rgba(255, 255, 255, 0.49)" offset="1"></stop></linearGradient><linearGradient x1="-269.952" y1="270" x2="2189.952" y2="2730" gradientUnits="userSpaceOnUse" id="SvgjsLinearGradient6954"><stop stop-color="#0e2a47" offset="0"></stop><stop stop-color="rgba(0, 205, 255, 1)" offset="1"></stop></linearGradient></defs></svg>