<svg xmlns="http://www.w3.org/2000/svg" version="1.1" xmlns:xlink="http://www.w3.org/1999/xlink" xmlns:svgjs="http://svgjs.dev/svgjs" width="2560" height="2560" preserveAspectRatio="none" viewBox="0 0 2560 2560"><g mask="url(&quot;#SvgjsMask7983&quot;)" fill="none"><rect width="2560" height="2560" x="0" y="0" fill="url(&quot;#SvgjsLinearGradient7984&quot;)"></rect><path d="M145.05 133.26L229.93 182.26L229.93 280.26L145.05 329.26L60.18 280.26L60.18 182.26zM145.05 721.26L229.93 770.26L229.93 868.26L145.05 917.26L60.18 868.26L60.18 770.26zM145.05 1015.26L229.93 1064.26L229.93 1162.26L145.05 1211.26L60.18 1162.26L60.18 1064.26zM60.18 1162.26L145.05 1211.26L145.05 1309.26L60.18 1358.26L-24.69 1309.26L-24.69 1211.26zM145.05 1603.26L229.93 1652.26L229.93 1750.26L145.05 1799.26L60.18 1750.26L60.18 1652.26zM145.05 1897.26L229.93 1946.26L229.93 2044.26L145.05 2093.26L60.18 2044.26L60.18 1946.26zM60.18 2338.26L145.05 2387.26L145.05 2485.26L60.18 2534.26L-24.69 2485.26L-24.69 2387.26zM145.05 2485.26L229.93 2534.26L229.93 2632.26L145.05 2681.26L60.18 2632.26L60.18 2534.26zM229.93 280.26L314.8 329.26L314.8 427.26L229.93 476.26L145.05 427.26L145.05 329.26zM314.8 721.26L399.67 770.26L399.67 868.26L314.8 917.26L229.93 868.26L229.93 770.26zM229.93 1162.26L314.8 1211.26L314.8 1309.26L229.93 1358.26L145.05 1309.26L145.05 1211.26zM229.93 1750.26L314.8 1799.26L314.8 1897.26L229.93 1946.26L145.05 1897.26L145.05 1799.26zM314.8 2191.26L399.67 2240.26L399.67 2338.26L314.8 2387.26L229.93 2338.26L229.93 2240.26zM229.93 2338.26L314.8 2387.26L314.8 2485.26L229.93 2534.26L145.05 2485.26L145.05 2387.26zM399.67 -13.74L484.54 35.26L484.54 133.26L399.67 182.26L314.8 133.26L314.8 35.26zM399.67 280.26L484.54 329.26L484.54 427.26L399.67 476.26L314.8 427.26L314.8 329.26zM484.54 1015.26L569.42 1064.26L569.42 1162.26L484.54 1211.26L399.67 1162.26L399.67 1064.26zM399.67 1162.26L484.54 1211.26L484.54 1309.26L399.67 1358.26L314.8 1309.26L314.8 1211.26zM484.54 1897.26L569.42 1946.26L569.42 2044.26L484.54 2093.26L399.67 2044.26L399.67 1946.26zM399.67 2338.26L484.54 2387.26L484.54 2485.26L399.67 2534.26L314.8 2485.26L314.8 2387.26zM569.42 -13.74L654.29 35.26L654.29 133.26L569.42 182.26L484.54 133.26L484.54 35.26zM654.29 133.26L739.16 182.26L739.16 280.26L654.29 329.26L569.42 280.26L569.42 182.26zM654.29 427.26L739.16 476.26L739.16 574.26L654.29 623.26L569.42 574.26L569.42 476.26zM654.29 721.26L739.16 770.26L739.16 868.26L654.29 917.26L569.42 868.26L569.42 770.26zM569.42 868.26L654.29 917.26L654.29 1015.26L569.42 1064.26L484.54 1015.26L484.54 917.26zM569.42 1750.26L654.29 1799.26L654.29 1897.26L569.42 1946.26L484.54 1897.26L484.54 1799.26zM569.42 2338.26L654.29 2387.26L654.29 2485.26L569.42 2534.26L484.54 2485.26L484.54 2387.26zM824.04 427.26L908.91 476.26L908.91 574.26L824.04 623.26L739.16 574.26L739.16 476.26zM739.16 574.26L824.04 623.26L824.04 721.26L739.16 770.26L654.29 721.26L654.29 623.26zM824.04 1015.26L908.91 1064.26L908.91 1162.26L824.04 1211.26L739.16 1162.26L739.16 1064.26zM824.04 1603.26L908.91 1652.26L908.91 1750.26L824.04 1799.26L739.16 1750.26L739.16 1652.26zM739.16 1750.26L824.04 1799.26L824.04 1897.26L739.16 1946.26L654.29 1897.26L654.29 1799.26zM739.16 2044.26L824.04 2093.26L824.04 2191.26L739.16 2240.26L654.29 2191.26L654.29 2093.26zM824.04 2191.26L908.91 2240.26L908.91 2338.26L824.04 2387.26L739.16 2338.26L739.16 2240.26zM824.04 2485.26L908.91 2534.26L908.91 2632.26L824.04 2681.26L739.16 2632.26L739.16 2534.26zM993.78 133.26L1078.65 182.26L1078.65 280.26L993.78 329.26L908.91 280.26L908.91 182.26zM908.91 574.26L993.78 623.26L993.78 721.26L908.91 770.26L824.04 721.26L824.04 623.26zM993.78 721.26L1078.65 770.26L1078.65 868.26L993.78 917.26L908.91 868.26L908.91 770.26zM908.91 868.26L993.78 917.26L993.78 1015.26L908.91 1064.26L824.04 1015.26L824.04 917.26zM993.78 1015.26L1078.65 1064.26L1078.65 1162.26L993.78 1211.26L908.91 1162.26L908.91 1064.26zM908.91 1162.26L993.78 1211.26L993.78 1309.26L908.91 1358.26L824.04 1309.26L824.04 1211.26zM993.78 1309.26L1078.65 1358.26L1078.65 1456.26L993.78 1505.26L908.91 1456.26L908.91 1358.26zM993.78 1603.26L1078.65 1652.26L1078.65 1750.26L993.78 1799.26L908.91 1750.26L908.91 1652.26zM1078.65 -13.74L1163.53 35.26L1163.53 133.26L1078.65 182.26L993.78 133.26L993.78 35.26zM1163.53 133.26L1248.4 182.26L1248.4 280.26L1163.53 329.26L1078.65 280.26L1078.65 182.26zM1078.65 280.26L1163.53 329.26L1163.53 427.26L1078.65 476.26L993.78 427.26L993.78 329.26zM1078.65 1162.26L1163.53 1211.26L1163.53 1309.26L1078.65 1358.26L993.78 1309.26L993.78 1211.26zM1163.53 1309.26L1248.4 1358.26L1248.4 1456.26L1163.53 1505.26L1078.65 1456.26L1078.65 1358.26zM1078.65 1456.26L1163.53 1505.26L1163.53 1603.26L1078.65 1652.26L993.78 1603.26L993.78 1505.26zM1078.65 1750.26L1163.53 1799.26L1163.53 1897.26L1078.65 1946.26L993.78 1897.26L993.78 1799.26zM1163.53 2485.26L1248.4 2534.26L1248.4 2632.26L1163.53 2681.26L1078.65 2632.26L1078.65 2534.26zM1248.4 -13.74L1333.27 35.26L1333.27 133.26L1248.4 182.26L1163.53 133.26L1163.53 35.26zM1333.27 133.26L1418.15 182.26L1418.15 280.26L1333.27 329.26L1248.4 280.26L1248.4 182.26zM1248.4 280.26L1333.27 329.26L1333.27 427.26L1248.4 476.26L1163.53 427.26L1163.53 329.26zM1333.27 427.26L1418.15 476.26L1418.15 574.26L1333.27 623.26L1248.4 574.26L1248.4 476.26zM1248.4 574.26L1333.27 623.26L1333.27 721.26L1248.4 770.26L1163.53 721.26L1163.53 623.26zM1333.27 1309.26L1418.15 1358.26L1418.15 1456.26L1333.27 1505.26L1248.4 1456.26L1248.4 1358.26zM1248.4 1456.26L1333.27 1505.26L1333.27 1603.26L1248.4 1652.26L1163.53 1603.26L1163.53 1505.26zM1333.27 1603.26L1418.15 1652.26L1418.15 1750.26L1333.27 1799.26L1248.4 1750.26L1248.4 1652.26zM1333.27 1897.26L1418.15 1946.26L1418.15 2044.26L1333.27 2093.26L1248.4 2044.26L1248.4 1946.26zM1333.27 2191.26L1418.15 2240.26L1418.15 2338.26L1333.27 2387.26L1248.4 2338.26L1248.4 2240.26zM1248.4 2338.26L1333.27 2387.26L1333.27 2485.26L1248.4 2534.26L1163.53 2485.26L1163.53 2387.26zM1418.15 280.26L1503.02 329.26L1503.02 427.26L1418.15 476.26L1333.27 427.26L1333.27 329.26zM1418.15 1456.26L1503.02 1505.26L1503.02 1603.26L1418.15 1652.26L1333.27 1603.26L1333.27 1505.26zM1418.15 2044.26L1503.02 2093.26L1503.02 2191.26L1418.15 2240.26L1333.27 2191.26L1333.27 2093.26zM1503.02 2485.26L1587.89 2534.26L1587.89 2632.26L1503.02 2681.26L1418.15 2632.26L1418.15 2534.26zM1587.89 868.26L1672.77 917.26L1672.77 1015.26L1587.89 1064.26L1503.02 1015.26L1503.02 917.26zM1587.89 1162.26L1672.77 1211.26L1672.77 1309.26L1587.89 1358.26L1503.02 1309.26L1503.02 1211.26zM1672.77 1603.26L1757.64 1652.26L1757.64 1750.26L1672.77 1799.26L1587.89 1750.26L1587.89 1652.26zM1587.89 2338.26L1672.77 2387.26L1672.77 2485.26L1587.89 2534.26L1503.02 2485.26L1503.02 2387.26zM1757.64 280.26L1842.51 329.26L1842.51 427.26L1757.64 476.26L1672.77 427.26L1672.77 329.26zM1842.51 721.26L1927.38 770.26L1927.38 868.26L1842.51 917.26L1757.64 868.26L1757.64 770.26zM1757.64 868.26L1842.51 917.26L1842.51 1015.26L1757.64 1064.26L1672.77 1015.26L1672.77 917.26zM1842.51 1015.26L1927.38 1064.26L1927.38 1162.26L1842.51 1211.26L1757.64 1162.26L1757.64 1064.26zM1842.51 1309.26L1927.38 1358.26L1927.38 1456.26L1842.51 1505.26L1757.64 1456.26L1757.64 1358.26zM1757.64 1456.26L1842.51 1505.26L1842.51 1603.26L1757.64 1652.26L1672.77 1603.26L1672.77 1505.26zM1842.51 2191.26L1927.38 2240.26L1927.38 2338.26L1842.51 2387.26L1757.64 2338.26L1757.64 2240.26zM1757.64 2338.26L1842.51 2387.26L1842.51 2485.26L1757.64 2534.26L1672.77 2485.26L1672.77 2387.26zM2012.26 133.26L2097.13 182.26L2097.13 280.26L2012.26 329.26L1927.38 280.26L1927.38 182.26zM1927.38 868.26L2012.26 917.26L2012.26 1015.26L1927.38 1064.26L1842.51 1015.26L1842.51 917.26zM2012.26 1309.26L2097.13 1358.26L2097.13 1456.26L2012.26 1505.26L1927.38 1456.26L1927.38 1358.26zM1927.38 1750.26L2012.26 1799.26L2012.26 1897.26L1927.38 1946.26L1842.51 1897.26L1842.51 1799.26zM1927.38 2044.26L2012.26 2093.26L2012.26 2191.26L1927.38 2240.26L1842.51 2191.26L1842.51 2093.26zM2182 133.26L2266.88 182.26L2266.88 280.26L2182 329.26L2097.13 280.26L2097.13 182.26zM2182 427.26L2266.88 476.26L2266.88 574.26L2182 623.26L2097.13 574.26L2097.13 476.26zM2182 721.26L2266.88 770.26L2266.88 868.26L2182 917.26L2097.13 868.26L2097.13 770.26zM2097.13 1162.26L2182 1211.26L2182 1309.26L2097.13 1358.26L2012.26 1309.26L2012.26 1211.26zM2182 1897.26L2266.88 1946.26L2266.88 2044.26L2182 2093.26L2097.13 2044.26L2097.13 1946.26zM2182 2191.26L2266.88 2240.26L2266.88 2338.26L2182 2387.26L2097.13 2338.26L2097.13 2240.26zM2351.75 133.26L2436.62 182.26L2436.62 280.26L2351.75 329.26L2266.88 280.26L2266.88 182.26zM2266.88 280.26L2351.75 329.26L2351.75 427.26L2266.88 476.26L2182 427.26L2182 329.26zM2266.88 574.26L2351.75 623.26L2351.75 721.26L2266.88 770.26L2182 721.26L2182 623.26zM2351.75 721.26L2436.62 770.26L2436.62 868.26L2351.75 917.26L2266.88 868.26L2266.88 770.26zM2266.88 868.26L2351.75 917.26L2351.75 1015.26L2266.88 1064.26L2182 1015.26L2182 917.26zM2351.75 1015.26L2436.62 1064.26L2436.62 1162.26L2351.75 1211.26L2266.88 1162.26L2266.88 1064.26zM2266.88 1456.26L2351.75 1505.26L2351.75 1603.26L2266.88 1652.26L2182 1603.26L2182 1505.26zM2351.75 1603.26L2436.62 1652.26L2436.62 1750.26L2351.75 1799.26L2266.88 1750.26L2266.88 1652.26zM2266.88 2044.26L2351.75 2093.26L2351.75 2191.26L2266.88 2240.26L2182 2191.26L2182 2093.26zM2351.75 2191.26L2436.62 2240.26L2436.62 2338.26L2351.75 2387.26L2266.88 2338.26L2266.88 2240.26zM2266.88 2338.26L2351.75 2387.26L2351.75 2485.26L2266.88 2534.26L2182 2485.26L2182 2387.26zM2436.62 280.26L2521.49 329.26L2521.49 427.26L2436.62 476.26L2351.75 427.26L2351.75 329.26zM2436.62 574.26L2521.49 623.26L2521.49 721.26L2436.62 770.26L2351.75 721.26L2351.75 623.26zM2436.62 868.26L2521.49 917.26L2521.49 1015.26L2436.62 1064.26L2351.75 1015.26L2351.75 917.26zM2521.49 1309.26L2606.37 1358.26L2606.37 1456.26L2521.49 1505.26L2436.62 1456.26L2436.62 1358.26zM2436.62 1750.26L2521.49 1799.26L2521.49 1897.26L2436.62 1946.26L2351.75 1897.26L2351.75 1799.26zM2436.62 2044.26L2521.49 2093.26L2521.49 2191.26L2436.62 2240.26L2351.75 2191.26L2351.75 2093.26zM2521.49 2191.26L2606.37 2240.26L2606.37 2338.26L2521.49 2387.26L2436.62 2338.26L2436.62 2240.26zM2436.62 2338.26L2521.49 2387.26L2521.49 2485.26L2436.62 2534.26L2351.75 2485.26L2351.75 2387.26zM2521.49 2485.26L2606.37 2534.26L2606.37 2632.26L2521.49 2681.26L2436.62 2632.26L2436.62 2534.26zM2691.24 1309.26L2776.11 1358.26L2776.11 1456.26L2691.24 1505.26L2606.37 1456.26L2606.37 1358.26zM2691.24 1603.26L2776.11 1652.26L2776.11 1750.26L2691.24 1799.26L2606.37 1750.26L2606.37 1652.26zM2606.37 1750.26L2691.24 1799.26L2691.24 1897.26L2606.37 1946.26L2521.49 1897.26L2521.49 1799.26zM2606.37 2044.26L2691.24 2093.26L2691.24 2191.26L2606.37 2240.26L2521.49 2191.26L2521.49 2093.26zM2691.24 2485.26L2776.11 2534.26L2776.11 2632.26L2691.24 2681.26L2606.37 2632.26L2606.37 2534.26z" stroke="url(&quot;#SvgjsRadialGradient7985&quot;)" stroke-width="2"></path></g><defs><mask id="SvgjsMask7983"><rect width="2560" height="2560" fill="#ffffff"></rect></mask><linearGradient x1="100%" y1="100%" x2="0%" y2="0%" gradientUnits="userSpaceOnUse" id="SvgjsLinearGradient7984"><stop stop-color="rgba(59, 59, 59, 1)" offset="0"></stop><stop stop-color="rgba(25, 27, 32, 1)" offset="1"></stop></linearGradient><radialGradient cx="1280" cy="1280" r="1810.19" gradientUnits="userSpaceOnUse" id="SvgjsRadialGradient7985"><stop stop-color="#0e2a47" offset="0"></stop><stop stop-color="rgba(6, 177, 206, 1)" offset="1"></stop></radialGradient></defs></svg>