<svg xmlns="http://www.w3.org/2000/svg" version="1.1" xmlns:xlink="http://www.w3.org/1999/xlink" xmlns:svgjs="http://svgjs.dev/svgjs" width="2560" height="5000" preserveAspectRatio="none" viewBox="0 0 2560 5000"><g mask="url(&quot;#SvgjsMask2096&quot;)" fill="none"><rect width="2560" height="5000" x="0" y="0" fill="url(&quot;#SvgjsLinearGradient2097&quot;)"></rect><path d="M101.27 55.14L180.94 101.14L180.94 193.14L101.27 239.14L21.59 193.14L21.59 101.14zM101.27 331.14L180.94 377.14L180.94 469.14L101.27 515.14L21.59 469.14L21.59 377.14zM21.59 1021.14L101.27 1067.14L101.27 1159.14L21.59 1205.14L-58.09 1159.14L-58.09 1067.14zM21.59 1297.14L101.27 1343.14L101.27 1435.14L21.59 1481.14L-58.09 1435.14L-58.09 1343.14zM101.27 1711.14L180.94 1757.14L180.94 1849.14L101.27 1895.14L21.59 1849.14L21.59 1757.14zM21.59 2401.14L101.27 2447.14L101.27 2539.14L21.59 2585.14L-58.09 2539.14L-58.09 2447.14zM101.27 2539.14L180.94 2585.14L180.94 2677.14L101.27 2723.14L21.59 2677.14L21.59 2585.14zM21.59 3505.14L101.27 3551.14L101.27 3643.14L21.59 3689.14L-58.09 3643.14L-58.09 3551.14zM101.27 3643.14L180.94 3689.14L180.94 3781.14L101.27 3827.14L21.59 3781.14L21.59 3689.14zM101.27 3919.14L180.94 3965.14L180.94 4057.14L101.27 4103.14L21.59 4057.14L21.59 3965.14zM101.27 4195.14L180.94 4241.14L180.94 4333.14L101.27 4379.14L21.59 4333.14L21.59 4241.14zM21.59 4333.14L101.27 4379.14L101.27 4471.14L21.59 4517.14L-58.09 4471.14L-58.09 4379.14zM101.27 4471.14L180.94 4517.14L180.94 4609.14L101.27 4655.14L21.59 4609.14L21.59 4517.14zM21.59 4609.14L101.27 4655.14L101.27 4747.14L21.59 4793.14L-58.09 4747.14L-58.09 4655.14zM101.27 4747.14L180.94 4793.14L180.94 4885.14L101.27 4931.14L21.59 4885.14L21.59 4793.14zM21.59 4885.14L101.27 4931.14L101.27 5023.14L21.59 5069.14L-58.09 5023.14L-58.09 4931.14zM260.62 55.14L340.3 101.14L340.3 193.14L260.62 239.14L180.94 193.14L180.94 101.14zM180.94 469.14L260.62 515.14L260.62 607.14L180.94 653.14L101.27 607.14L101.27 515.14zM260.62 883.14L340.3 929.14L340.3 1021.14L260.62 1067.14L180.94 1021.14L180.94 929.14zM260.62 1435.14L340.3 1481.14L340.3 1573.14L260.62 1619.14L180.94 1573.14L180.94 1481.14zM260.62 3091.14L340.3 3137.14L340.3 3229.14L260.62 3275.14L180.94 3229.14L180.94 3137.14zM260.62 3367.14L340.3 3413.14L340.3 3505.14L260.62 3551.14L180.94 3505.14L180.94 3413.14zM180.94 3505.14L260.62 3551.14L260.62 3643.14L180.94 3689.14L101.27 3643.14L101.27 3551.14zM180.94 4057.14L260.62 4103.14L260.62 4195.14L180.94 4241.14L101.27 4195.14L101.27 4103.14zM180.94 4333.14L260.62 4379.14L260.62 4471.14L180.94 4517.14L101.27 4471.14L101.27 4379.14zM260.62 4471.14L340.3 4517.14L340.3 4609.14L260.62 4655.14L180.94 4609.14L180.94 4517.14zM180.94 4609.14L260.62 4655.14L260.62 4747.14L180.94 4793.14L101.27 4747.14L101.27 4655.14zM260.62 4747.14L340.3 4793.14L340.3 4885.14L260.62 4931.14L180.94 4885.14L180.94 4793.14zM419.97 331.14L499.65 377.14L499.65 469.14L419.97 515.14L340.3 469.14L340.3 377.14zM340.3 469.14L419.97 515.14L419.97 607.14L340.3 653.14L260.62 607.14L260.62 515.14zM419.97 607.14L499.65 653.14L499.65 745.14L419.97 791.14L340.3 745.14L340.3 653.14zM340.3 1849.14L419.97 1895.14L419.97 1987.14L340.3 2033.14L260.62 1987.14L260.62 1895.14zM340.3 2401.14L419.97 2447.14L419.97 2539.14L340.3 2585.14L260.62 2539.14L260.62 2447.14zM419.97 2815.14L499.65 2861.14L499.65 2953.14L419.97 2999.14L340.3 2953.14L340.3 2861.14zM419.97 3091.14L499.65 3137.14L499.65 3229.14L419.97 3275.14L340.3 3229.14L340.3 3137.14zM340.3 3229.14L419.97 3275.14L419.97 3367.14L340.3 3413.14L260.62 3367.14L260.62 3275.14zM419.97 3367.14L499.65 3413.14L499.65 3505.14L419.97 3551.14L340.3 3505.14L340.3 3413.14zM419.97 3643.14L499.65 3689.14L499.65 3781.14L419.97 3827.14L340.3 3781.14L340.3 3689.14zM419.97 3919.14L499.65 3965.14L499.65 4057.14L419.97 4103.14L340.3 4057.14L340.3 3965.14zM340.3 4333.14L419.97 4379.14L419.97 4471.14L340.3 4517.14L260.62 4471.14L260.62 4379.14zM579.33 883.14L659 929.14L659 1021.14L579.33 1067.14L499.65 1021.14L499.65 929.14zM499.65 1849.14L579.33 1895.14L579.33 1987.14L499.65 2033.14L419.97 1987.14L419.97 1895.14zM499.65 2125.14L579.33 2171.14L579.33 2263.14L499.65 2309.14L419.97 2263.14L419.97 2171.14zM579.33 3091.14L659 3137.14L659 3229.14L579.33 3275.14L499.65 3229.14L499.65 3137.14zM499.65 3505.14L579.33 3551.14L579.33 3643.14L499.65 3689.14L419.97 3643.14L419.97 3551.14zM499.65 3781.14L579.33 3827.14L579.33 3919.14L499.65 3965.14L419.97 3919.14L419.97 3827.14zM499.65 4333.14L579.33 4379.14L579.33 4471.14L499.65 4517.14L419.97 4471.14L419.97 4379.14zM499.65 4609.14L579.33 4655.14L579.33 4747.14L499.65 4793.14L419.97 4747.14L419.97 4655.14zM659 469.14L738.68 515.14L738.68 607.14L659 653.14L579.33 607.14L579.33 515.14zM738.68 607.14L818.36 653.14L818.36 745.14L738.68 791.14L659 745.14L659 653.14zM659 1021.14L738.68 1067.14L738.68 1159.14L659 1205.14L579.33 1159.14L579.33 1067.14zM659 1573.14L738.68 1619.14L738.68 1711.14L659 1757.14L579.33 1711.14L579.33 1619.14zM738.68 1711.14L818.36 1757.14L818.36 1849.14L738.68 1895.14L659 1849.14L659 1757.14zM659 1849.14L738.68 1895.14L738.68 1987.14L659 2033.14L579.33 1987.14L579.33 1895.14zM738.68 1987.14L818.36 2033.14L818.36 2125.14L738.68 2171.14L659 2125.14L659 2033.14zM659 2677.14L738.68 2723.14L738.68 2815.14L659 2861.14L579.33 2815.14L579.33 2723.14zM738.68 3091.14L818.36 3137.14L818.36 3229.14L738.68 3275.14L659 3229.14L659 3137.14zM659 3229.14L738.68 3275.14L738.68 3367.14L659 3413.14L579.33 3367.14L579.33 3275.14zM659 3505.14L738.68 3551.14L738.68 3643.14L659 3689.14L579.33 3643.14L579.33 3551.14zM738.68 3643.14L818.36 3689.14L818.36 3781.14L738.68 3827.14L659 3781.14L659 3689.14zM738.68 3919.14L818.36 3965.14L818.36 4057.14L738.68 4103.14L659 4057.14L659 3965.14zM659 4057.14L738.68 4103.14L738.68 4195.14L659 4241.14L579.33 4195.14L579.33 4103.14zM738.68 4195.14L818.36 4241.14L818.36 4333.14L738.68 4379.14L659 4333.14L659 4241.14zM738.68 4471.14L818.36 4517.14L818.36 4609.14L738.68 4655.14L659 4609.14L659 4517.14zM818.36 -82.86L898.03 -36.86L898.03 55.14L818.36 101.14L738.68 55.14L738.68 -36.86zM818.36 193.14L898.03 239.14L898.03 331.14L818.36 377.14L738.68 331.14L738.68 239.14zM898.03 331.14L977.71 377.14L977.71 469.14L898.03 515.14L818.36 469.14L818.36 377.14zM818.36 469.14L898.03 515.14L898.03 607.14L818.36 653.14L738.68 607.14L738.68 515.14zM898.03 1159.14L977.71 1205.14L977.71 1297.14L898.03 1343.14L818.36 1297.14L818.36 1205.14zM898.03 3367.14L977.71 3413.14L977.71 3505.14L898.03 3551.14L818.36 3505.14L818.36 3413.14zM818.36 3781.14L898.03 3827.14L898.03 3919.14L818.36 3965.14L738.68 3919.14L738.68 3827.14zM898.03 3919.14L977.71 3965.14L977.71 4057.14L898.03 4103.14L818.36 4057.14L818.36 3965.14zM818.36 4057.14L898.03 4103.14L898.03 4195.14L818.36 4241.14L738.68 4195.14L738.68 4103.14zM898.03 4471.14L977.71 4517.14L977.71 4609.14L898.03 4655.14L818.36 4609.14L818.36 4517.14zM818.36 4885.14L898.03 4931.14L898.03 5023.14L818.36 5069.14L738.68 5023.14L738.68 4931.14zM1057.39 331.14L1137.06 377.14L1137.06 469.14L1057.39 515.14L977.71 469.14L977.71 377.14zM977.71 469.14L1057.39 515.14L1057.39 607.14L977.71 653.14L898.03 607.14L898.03 515.14zM1057.39 1159.14L1137.06 1205.14L1137.06 1297.14L1057.39 1343.14L977.71 1297.14L977.71 1205.14zM977.71 1297.14L1057.39 1343.14L1057.39 1435.14L977.71 1481.14L898.03 1435.14L898.03 1343.14zM1057.39 1711.14L1137.06 1757.14L1137.06 1849.14L1057.39 1895.14L977.71 1849.14L977.71 1757.14zM1057.39 1987.14L1137.06 2033.14L1137.06 2125.14L1057.39 2171.14L977.71 2125.14L977.71 2033.14zM977.71 2401.14L1057.39 2447.14L1057.39 2539.14L977.71 2585.14L898.03 2539.14L898.03 2447.14zM977.71 2677.14L1057.39 2723.14L1057.39 2815.14L977.71 2861.14L898.03 2815.14L898.03 2723.14zM1057.39 3091.14L1137.06 3137.14L1137.06 3229.14L1057.39 3275.14L977.71 3229.14L977.71 3137.14zM1057.39 3367.14L1137.06 3413.14L1137.06 3505.14L1057.39 3551.14L977.71 3505.14L977.71 3413.14zM977.71 3781.14L1057.39 3827.14L1057.39 3919.14L977.71 3965.14L898.03 3919.14L898.03 3827.14zM1057.39 4471.14L1137.06 4517.14L1137.06 4609.14L1057.39 4655.14L977.71 4609.14L977.71 4517.14zM1057.39 4747.14L1137.06 4793.14L1137.06 4885.14L1057.39 4931.14L977.71 4885.14L977.71 4793.14zM1216.74 607.14L1296.42 653.14L1296.42 745.14L1216.74 791.14L1137.06 745.14L1137.06 653.14zM1216.74 883.14L1296.42 929.14L1296.42 1021.14L1216.74 1067.14L1137.06 1021.14L1137.06 929.14zM1216.74 1159.14L1296.42 1205.14L1296.42 1297.14L1216.74 1343.14L1137.06 1297.14L1137.06 1205.14zM1216.74 1711.14L1296.42 1757.14L1296.42 1849.14L1216.74 1895.14L1137.06 1849.14L1137.06 1757.14zM1137.06 2677.14L1216.74 2723.14L1216.74 2815.14L1137.06 2861.14L1057.39 2815.14L1057.39 2723.14zM1137.06 2953.14L1216.74 2999.14L1216.74 3091.14L1137.06 3137.14L1057.39 3091.14L1057.39 2999.14zM1137.06 3781.14L1216.74 3827.14L1216.74 3919.14L1137.06 3965.14L1057.39 3919.14L1057.39 3827.14zM1137.06 4333.14L1216.74 4379.14L1216.74 4471.14L1137.06 4517.14L1057.39 4471.14L1057.39 4379.14zM1216.74 4747.14L1296.42 4793.14L1296.42 4885.14L1216.74 4931.14L1137.06 4885.14L1137.06 4793.14zM1137.06 4885.14L1216.74 4931.14L1216.74 5023.14L1137.06 5069.14L1057.39 5023.14L1057.39 4931.14zM1376.09 331.14L1455.77 377.14L1455.77 469.14L1376.09 515.14L1296.42 469.14L1296.42 377.14zM1376.09 607.14L1455.77 653.14L1455.77 745.14L1376.09 791.14L1296.42 745.14L1296.42 653.14zM1376.09 883.14L1455.77 929.14L1455.77 1021.14L1376.09 1067.14L1296.42 1021.14L1296.42 929.14zM1296.42 1021.14L1376.09 1067.14L1376.09 1159.14L1296.42 1205.14L1216.74 1159.14L1216.74 1067.14zM1296.42 1297.14L1376.09 1343.14L1376.09 1435.14L1296.42 1481.14L1216.74 1435.14L1216.74 1343.14zM1376.09 1435.14L1455.77 1481.14L1455.77 1573.14L1376.09 1619.14L1296.42 1573.14L1296.42 1481.14zM1296.42 1573.14L1376.09 1619.14L1376.09 1711.14L1296.42 1757.14L1216.74 1711.14L1216.74 1619.14zM1376.09 2263.14L1455.77 2309.14L1455.77 2401.14L1376.09 2447.14L1296.42 2401.14L1296.42 2309.14zM1296.42 2401.14L1376.09 2447.14L1376.09 2539.14L1296.42 2585.14L1216.74 2539.14L1216.74 2447.14zM1376.09 2539.14L1455.77 2585.14L1455.77 2677.14L1376.09 2723.14L1296.42 2677.14L1296.42 2585.14zM1376.09 2815.14L1455.77 2861.14L1455.77 2953.14L1376.09 2999.14L1296.42 2953.14L1296.42 2861.14zM1296.42 2953.14L1376.09 2999.14L1376.09 3091.14L1296.42 3137.14L1216.74 3091.14L1216.74 2999.14zM1376.09 3367.14L1455.77 3413.14L1455.77 3505.14L1376.09 3551.14L1296.42 3505.14L1296.42 3413.14zM1296.42 3505.14L1376.09 3551.14L1376.09 3643.14L1296.42 3689.14L1216.74 3643.14L1216.74 3551.14zM1455.77 -82.86L1535.45 -36.86L1535.45 55.14L1455.77 101.14L1376.09 55.14L1376.09 -36.86zM1455.77 469.14L1535.45 515.14L1535.45 607.14L1455.77 653.14L1376.09 607.14L1376.09 515.14zM1455.77 745.14L1535.45 791.14L1535.45 883.14L1455.77 929.14L1376.09 883.14L1376.09 791.14zM1455.77 1021.14L1535.45 1067.14L1535.45 1159.14L1455.77 1205.14L1376.09 1159.14L1376.09 1067.14zM1535.45 1159.14L1615.12 1205.14L1615.12 1297.14L1535.45 1343.14L1455.77 1297.14L1455.77 1205.14zM1455.77 2125.14L1535.45 2171.14L1535.45 2263.14L1455.77 2309.14L1376.09 2263.14L1376.09 2171.14zM1455.77 2401.14L1535.45 2447.14L1535.45 2539.14L1455.77 2585.14L1376.09 2539.14L1376.09 2447.14zM1455.77 3505.14L1535.45 3551.14L1535.45 3643.14L1455.77 3689.14L1376.09 3643.14L1376.09 3551.14zM1535.45 3643.14L1615.12 3689.14L1615.12 3781.14L1535.45 3827.14L1455.77 3781.14L1455.77 3689.14zM1535.45 4471.14L1615.12 4517.14L1615.12 4609.14L1535.45 4655.14L1455.77 4609.14L1455.77 4517.14zM1694.8 55.14L1774.48 101.14L1774.48 193.14L1694.8 239.14L1615.12 193.14L1615.12 101.14zM1694.8 883.14L1774.48 929.14L1774.48 1021.14L1694.8 1067.14L1615.12 1021.14L1615.12 929.14zM1615.12 1849.14L1694.8 1895.14L1694.8 1987.14L1615.12 2033.14L1535.45 1987.14L1535.45 1895.14zM1694.8 2263.14L1774.48 2309.14L1774.48 2401.14L1694.8 2447.14L1615.12 2401.14L1615.12 2309.14zM1615.12 2677.14L1694.8 2723.14L1694.8 2815.14L1615.12 2861.14L1535.45 2815.14L1535.45 2723.14zM1694.8 3091.14L1774.48 3137.14L1774.48 3229.14L1694.8 3275.14L1615.12 3229.14L1615.12 3137.14zM1615.12 3505.14L1694.8 3551.14L1694.8 3643.14L1615.12 3689.14L1535.45 3643.14L1535.45 3551.14zM1694.8 3643.14L1774.48 3689.14L1774.48 3781.14L1694.8 3827.14L1615.12 3781.14L1615.12 3689.14zM1615.12 4057.14L1694.8 4103.14L1694.8 4195.14L1615.12 4241.14L1535.45 4195.14L1535.45 4103.14zM1694.8 4195.14L1774.48 4241.14L1774.48 4333.14L1694.8 4379.14L1615.12 4333.14L1615.12 4241.14zM1615.12 4333.14L1694.8 4379.14L1694.8 4471.14L1615.12 4517.14L1535.45 4471.14L1535.45 4379.14zM1615.12 4609.14L1694.8 4655.14L1694.8 4747.14L1615.12 4793.14L1535.45 4747.14L1535.45 4655.14zM1615.12 4885.14L1694.8 4931.14L1694.8 5023.14L1615.12 5069.14L1535.45 5023.14L1535.45 4931.14zM1854.15 883.14L1933.83 929.14L1933.83 1021.14L1854.15 1067.14L1774.48 1021.14L1774.48 929.14zM1774.48 1021.14L1854.15 1067.14L1854.15 1159.14L1774.48 1205.14L1694.8 1159.14L1694.8 1067.14zM1854.15 1711.14L1933.83 1757.14L1933.83 1849.14L1854.15 1895.14L1774.48 1849.14L1774.48 1757.14zM1774.48 1849.14L1854.15 1895.14L1854.15 1987.14L1774.48 2033.14L1694.8 1987.14L1694.8 1895.14zM1774.48 2125.14L1854.15 2171.14L1854.15 2263.14L1774.48 2309.14L1694.8 2263.14L1694.8 2171.14zM1774.48 2401.14L1854.15 2447.14L1854.15 2539.14L1774.48 2585.14L1694.8 2539.14L1694.8 2447.14zM1854.15 2539.14L1933.83 2585.14L1933.83 2677.14L1854.15 2723.14L1774.48 2677.14L1774.48 2585.14zM1774.48 3229.14L1854.15 3275.14L1854.15 3367.14L1774.48 3413.14L1694.8 3367.14L1694.8 3275.14zM1774.48 4057.14L1854.15 4103.14L1854.15 4195.14L1774.48 4241.14L1694.8 4195.14L1694.8 4103.14zM1854.15 4195.14L1933.83 4241.14L1933.83 4333.14L1854.15 4379.14L1774.48 4333.14L1774.48 4241.14zM1774.48 4885.14L1854.15 4931.14L1854.15 5023.14L1774.48 5069.14L1694.8 5023.14L1694.8 4931.14zM1933.83 745.14L2013.5 791.14L2013.5 883.14L1933.83 929.14L1854.15 883.14L1854.15 791.14zM2013.5 883.14L2093.18 929.14L2093.18 1021.14L2013.5 1067.14L1933.83 1021.14L1933.83 929.14zM2013.5 1435.14L2093.18 1481.14L2093.18 1573.14L2013.5 1619.14L1933.83 1573.14L1933.83 1481.14zM1933.83 2401.14L2013.5 2447.14L2013.5 2539.14L1933.83 2585.14L1854.15 2539.14L1854.15 2447.14zM1933.83 2677.14L2013.5 2723.14L2013.5 2815.14L1933.83 2861.14L1854.15 2815.14L1854.15 2723.14zM1933.83 2953.14L2013.5 2999.14L2013.5 3091.14L1933.83 3137.14L1854.15 3091.14L1854.15 2999.14zM2013.5 3367.14L2093.18 3413.14L2093.18 3505.14L2013.5 3551.14L1933.83 3505.14L1933.83 3413.14zM2013.5 3643.14L2093.18 3689.14L2093.18 3781.14L2013.5 3827.14L1933.83 3781.14L1933.83 3689.14zM1933.83 4057.14L2013.5 4103.14L2013.5 4195.14L1933.83 4241.14L1854.15 4195.14L1854.15 4103.14zM2013.5 4195.14L2093.18 4241.14L2093.18 4333.14L2013.5 4379.14L1933.83 4333.14L1933.83 4241.14zM2013.5 4471.14L2093.18 4517.14L2093.18 4609.14L2013.5 4655.14L1933.83 4609.14L1933.83 4517.14zM2013.5 4747.14L2093.18 4793.14L2093.18 4885.14L2013.5 4931.14L1933.83 4885.14L1933.83 4793.14zM2093.18 193.14L2172.86 239.14L2172.86 331.14L2093.18 377.14L2013.5 331.14L2013.5 239.14zM2093.18 469.14L2172.86 515.14L2172.86 607.14L2093.18 653.14L2013.5 607.14L2013.5 515.14zM2172.86 607.14L2252.53 653.14L2252.53 745.14L2172.86 791.14L2093.18 745.14L2093.18 653.14zM2093.18 1021.14L2172.86 1067.14L2172.86 1159.14L2093.18 1205.14L2013.5 1159.14L2013.5 1067.14zM2093.18 1297.14L2172.86 1343.14L2172.86 1435.14L2093.18 1481.14L2013.5 1435.14L2013.5 1343.14zM2093.18 1849.14L2172.86 1895.14L2172.86 1987.14L2093.18 2033.14L2013.5 1987.14L2013.5 1895.14zM2172.86 1987.14L2252.53 2033.14L2252.53 2125.14L2172.86 2171.14L2093.18 2125.14L2093.18 2033.14zM2093.18 3505.14L2172.86 3551.14L2172.86 3643.14L2093.18 3689.14L2013.5 3643.14L2013.5 3551.14zM2093.18 3781.14L2172.86 3827.14L2172.86 3919.14L2093.18 3965.14L2013.5 3919.14L2013.5 3827.14zM2172.86 4195.14L2252.53 4241.14L2252.53 4333.14L2172.86 4379.14L2093.18 4333.14L2093.18 4241.14zM2093.18 4333.14L2172.86 4379.14L2172.86 4471.14L2093.18 4517.14L2013.5 4471.14L2013.5 4379.14zM2172.86 4471.14L2252.53 4517.14L2252.53 4609.14L2172.86 4655.14L2093.18 4609.14L2093.18 4517.14zM2252.53 193.14L2332.21 239.14L2332.21 331.14L2252.53 377.14L2172.86 331.14L2172.86 239.14zM2252.53 745.14L2332.21 791.14L2332.21 883.14L2252.53 929.14L2172.86 883.14L2172.86 791.14zM2332.21 1159.14L2411.89 1205.14L2411.89 1297.14L2332.21 1343.14L2252.53 1297.14L2252.53 1205.14zM2332.21 1987.14L2411.89 2033.14L2411.89 2125.14L2332.21 2171.14L2252.53 2125.14L2252.53 2033.14zM2252.53 2677.14L2332.21 2723.14L2332.21 2815.14L2252.53 2861.14L2172.86 2815.14L2172.86 2723.14zM2252.53 2953.14L2332.21 2999.14L2332.21 3091.14L2252.53 3137.14L2172.86 3091.14L2172.86 2999.14zM2252.53 3781.14L2332.21 3827.14L2332.21 3919.14L2252.53 3965.14L2172.86 3919.14L2172.86 3827.14zM2332.21 3919.14L2411.89 3965.14L2411.89 4057.14L2332.21 4103.14L2252.53 4057.14L2252.53 3965.14zM2252.53 4609.14L2332.21 4655.14L2332.21 4747.14L2252.53 4793.14L2172.86 4747.14L2172.86 4655.14zM2252.53 4885.14L2332.21 4931.14L2332.21 5023.14L2252.53 5069.14L2172.86 5023.14L2172.86 4931.14zM2491.56 55.14L2571.24 101.14L2571.24 193.14L2491.56 239.14L2411.89 193.14L2411.89 101.14zM2411.89 193.14L2491.56 239.14L2491.56 331.14L2411.89 377.14L2332.21 331.14L2332.21 239.14zM2491.56 331.14L2571.24 377.14L2571.24 469.14L2491.56 515.14L2411.89 469.14L2411.89 377.14zM2491.56 607.14L2571.24 653.14L2571.24 745.14L2491.56 791.14L2411.89 745.14L2411.89 653.14zM2411.89 745.14L2491.56 791.14L2491.56 883.14L2411.89 929.14L2332.21 883.14L2332.21 791.14zM2491.56 1711.14L2571.24 1757.14L2571.24 1849.14L2491.56 1895.14L2411.89 1849.14L2411.89 1757.14zM2411.89 2953.14L2491.56 2999.14L2491.56 3091.14L2411.89 3137.14L2332.21 3091.14L2332.21 2999.14zM2491.56 3367.14L2571.24 3413.14L2571.24 3505.14L2491.56 3551.14L2411.89 3505.14L2411.89 3413.14zM2491.56 3643.14L2571.24 3689.14L2571.24 3781.14L2491.56 3827.14L2411.89 3781.14L2411.89 3689.14zM2491.56 4471.14L2571.24 4517.14L2571.24 4609.14L2491.56 4655.14L2411.89 4609.14L2411.89 4517.14zM2491.56 4747.14L2571.24 4793.14L2571.24 4885.14L2491.56 4931.14L2411.89 4885.14L2411.89 4793.14zM2571.24 -82.86L2650.92 -36.86L2650.92 55.14L2571.24 101.14L2491.56 55.14L2491.56 -36.86zM2650.92 55.14L2730.59 101.14L2730.59 193.14L2650.92 239.14L2571.24 193.14L2571.24 101.14zM2571.24 193.14L2650.92 239.14L2650.92 331.14L2571.24 377.14L2491.56 331.14L2491.56 239.14zM2650.92 331.14L2730.59 377.14L2730.59 469.14L2650.92 515.14L2571.24 469.14L2571.24 377.14zM2571.24 469.14L2650.92 515.14L2650.92 607.14L2571.24 653.14L2491.56 607.14L2491.56 515.14zM2571.24 1021.14L2650.92 1067.14L2650.92 1159.14L2571.24 1205.14L2491.56 1159.14L2491.56 1067.14zM2571.24 1573.14L2650.92 1619.14L2650.92 1711.14L2571.24 1757.14L2491.56 1711.14L2491.56 1619.14zM2650.92 1711.14L2730.59 1757.14L2730.59 1849.14L2650.92 1895.14L2571.24 1849.14L2571.24 1757.14zM2571.24 1849.14L2650.92 1895.14L2650.92 1987.14L2571.24 2033.14L2491.56 1987.14L2491.56 1895.14zM2650.92 2263.14L2730.59 2309.14L2730.59 2401.14L2650.92 2447.14L2571.24 2401.14L2571.24 2309.14zM2571.24 2401.14L2650.92 2447.14L2650.92 2539.14L2571.24 2585.14L2491.56 2539.14L2491.56 2447.14zM2571.24 2677.14L2650.92 2723.14L2650.92 2815.14L2571.24 2861.14L2491.56 2815.14L2491.56 2723.14zM2571.24 2953.14L2650.92 2999.14L2650.92 3091.14L2571.24 3137.14L2491.56 3091.14L2491.56 2999.14zM2650.92 3367.14L2730.59 3413.14L2730.59 3505.14L2650.92 3551.14L2571.24 3505.14L2571.24 3413.14z" stroke="url(&quot;#SvgjsLinearGradient2098&quot;)" stroke-width="2"></path><path d="M92.07 55.14 a9.2 9.2 0 1 0 18.4 0 a9.2 9.2 0 1 0 -18.4 0zM171.74 101.14 a9.2 9.2 0 1 0 18.4 0 a9.2 9.2 0 1 0 -18.4 0zM171.74 193.14 a9.2 9.2 0 1 0 18.4 0 a9.2 9.2 0 1 0 -18.4 0zM92.07 239.14 a9.2 9.2 0 1 0 18.4 0 a9.2 9.2 0 1 0 -18.4 0zM12.39 193.14 a9.2 9.2 0 1 0 18.4 0 a9.2 9.2 0 1 0 -18.4 0zM12.39 101.14 a9.2 9.2 0 1 0 18.4 0 a9.2 9.2 0 1 0 -18.4 0zM92.07 331.14 a9.2 9.2 0 1 0 18.4 0 a9.2 9.2 0 1 0 -18.4 0zM171.74 377.14 a9.2 9.2 0 1 0 18.4 0 a9.2 9.2 0 1 0 -18.4 0zM171.74 469.14 a9.2 9.2 0 1 0 18.4 0 a9.2 9.2 0 1 0 -18.4 0zM92.07 515.14 a9.2 9.2 0 1 0 18.4 0 a9.2 9.2 0 1 0 -18.4 0zM12.39 469.14 a9.2 9.2 0 1 0 18.4 0 a9.2 9.2 0 1 0 -18.4 0zM12.39 377.14 a9.2 9.2 0 1 0 18.4 0 a9.2 9.2 0 1 0 -18.4 0zM12.39 1021.14 a9.2 9.2 0 1 0 18.4 0 a9.2 9.2 0 1 0 -18.4 0zM92.07 1067.14 a9.2 9.2 0 1 0 18.4 0 a9.2 9.2 0 1 0 -18.4 0zM92.07 1159.14 a9.2 9.2 0 1 0 18.4 0 a9.2 9.2 0 1 0 -18.4 0zM12.39 1205.14 a9.2 9.2 0 1 0 18.4 0 a9.2 9.2 0 1 0 -18.4 0zM-67.29 1159.14 a9.2 9.2 0 1 0 18.4 0 a9.2 9.2 0 1 0 -18.4 0zM-67.29 1067.14 a9.2 9.2 0 1 0 18.4 0 a9.2 9.2 0 1 0 -18.4 0zM12.39 1297.14 a9.2 9.2 0 1 0 18.4 0 a9.2 9.2 0 1 0 -18.4 0zM92.07 1343.14 a9.2 9.2 0 1 0 18.4 0 a9.2 9.2 0 1 0 -18.4 0zM92.07 1435.14 a9.2 9.2 0 1 0 18.4 0 a9.2 9.2 0 1 0 -18.4 0zM12.39 1481.14 a9.2 9.2 0 1 0 18.4 0 a9.2 9.2 0 1 0 -18.4 0zM-67.29 1435.14 a9.2 9.2 0 1 0 18.4 0 a9.2 9.2 0 1 0 -18.4 0zM-67.29 1343.14 a9.2 9.2 0 1 0 18.4 0 a9.2 9.2 0 1 0 -18.4 0zM92.07 1711.14 a9.2 9.2 0 1 0 18.4 0 a9.2 9.2 0 1 0 -18.4 0zM171.74 1757.14 a9.2 9.2 0 1 0 18.4 0 a9.2 9.2 0 1 0 -18.4 0zM171.74 1849.14 a9.2 9.2 0 1 0 18.4 0 a9.2 9.2 0 1 0 -18.4 0zM92.07 1895.14 a9.2 9.2 0 1 0 18.4 0 a9.2 9.2 0 1 0 -18.4 0zM12.39 1849.14 a9.2 9.2 0 1 0 18.4 0 a9.2 9.2 0 1 0 -18.4 0zM12.39 1757.14 a9.2 9.2 0 1 0 18.4 0 a9.2 9.2 0 1 0 -18.4 0zM12.39 2401.14 a9.2 9.2 0 1 0 18.4 0 a9.2 9.2 0 1 0 -18.4 0zM92.07 2447.14 a9.2 9.2 0 1 0 18.4 0 a9.2 9.2 0 1 0 -18.4 0zM92.07 2539.14 a9.2 9.2 0 1 0 18.4 0 a9.2 9.2 0 1 0 -18.4 0zM12.39 2585.14 a9.2 9.2 0 1 0 18.4 0 a9.2 9.2 0 1 0 -18.4 0zM-67.29 2539.14 a9.2 9.2 0 1 0 18.4 0 a9.2 9.2 0 1 0 -18.4 0zM-67.29 2447.14 a9.2 9.2 0 1 0 18.4 0 a9.2 9.2 0 1 0 -18.4 0zM171.74 2585.14 a9.2 9.2 0 1 0 18.4 0 a9.2 9.2 0 1 0 -18.4 0zM171.74 2677.14 a9.2 9.2 0 1 0 18.4 0 a9.2 9.2 0 1 0 -18.4 0zM92.07 2723.14 a9.2 9.2 0 1 0 18.4 0 a9.2 9.2 0 1 0 -18.4 0zM12.39 2677.14 a9.2 9.2 0 1 0 18.4 0 a9.2 9.2 0 1 0 -18.4 0zM12.39 3505.14 a9.2 9.2 0 1 0 18.4 0 a9.2 9.2 0 1 0 -18.4 0zM92.07 3551.14 a9.2 9.2 0 1 0 18.4 0 a9.2 9.2 0 1 0 -18.4 0zM92.07 3643.14 a9.2 9.2 0 1 0 18.4 0 a9.2 9.2 0 1 0 -18.4 0zM12.39 3689.14 a9.2 9.2 0 1 0 18.4 0 a9.2 9.2 0 1 0 -18.4 0zM-67.29 3643.14 a9.2 9.2 0 1 0 18.4 0 a9.2 9.2 0 1 0 -18.4 0zM-67.29 3551.14 a9.2 9.2 0 1 0 18.4 0 a9.2 9.2 0 1 0 -18.4 0zM171.74 3689.14 a9.2 9.2 0 1 0 18.4 0 a9.2 9.2 0 1 0 -18.4 0zM171.74 3781.14 a9.2 9.2 0 1 0 18.4 0 a9.2 9.2 0 1 0 -18.4 0zM92.07 3827.14 a9.2 9.2 0 1 0 18.4 0 a9.2 9.2 0 1 0 -18.4 0zM12.39 3781.14 a9.2 9.2 0 1 0 18.4 0 a9.2 9.2 0 1 0 -18.4 0zM92.07 3919.14 a9.2 9.2 0 1 0 18.4 0 a9.2 9.2 0 1 0 -18.4 0zM171.74 3965.14 a9.2 9.2 0 1 0 18.4 0 a9.2 9.2 0 1 0 -18.4 0zM171.74 4057.14 a9.2 9.2 0 1 0 18.4 0 a9.2 9.2 0 1 0 -18.4 0zM92.07 4103.14 a9.2 9.2 0 1 0 18.4 0 a9.2 9.2 0 1 0 -18.4 0zM12.39 4057.14 a9.2 9.2 0 1 0 18.4 0 a9.2 9.2 0 1 0 -18.4 0zM12.39 3965.14 a9.2 9.2 0 1 0 18.4 0 a9.2 9.2 0 1 0 -18.4 0zM92.07 4195.14 a9.2 9.2 0 1 0 18.4 0 a9.2 9.2 0 1 0 -18.4 0zM171.74 4241.14 a9.2 9.2 0 1 0 18.4 0 a9.2 9.2 0 1 0 -18.4 0zM171.74 4333.14 a9.2 9.2 0 1 0 18.4 0 a9.2 9.2 0 1 0 -18.4 0zM92.07 4379.14 a9.2 9.2 0 1 0 18.4 0 a9.2 9.2 0 1 0 -18.4 0zM12.39 4333.14 a9.2 9.2 0 1 0 18.4 0 a9.2 9.2 0 1 0 -18.4 0zM12.39 4241.14 a9.2 9.2 0 1 0 18.4 0 a9.2 9.2 0 1 0 -18.4 0zM92.07 4471.14 a9.2 9.2 0 1 0 18.4 0 a9.2 9.2 0 1 0 -18.4 0zM12.39 4517.14 a9.2 9.2 0 1 0 18.4 0 a9.2 9.2 0 1 0 -18.4 0zM-67.29 4471.14 a9.2 9.2 0 1 0 18.4 0 a9.2 9.2 0 1 0 -18.4 0zM-67.29 4379.14 a9.2 9.2 0 1 0 18.4 0 a9.2 9.2 0 1 0 -18.4 0zM171.74 4517.14 a9.2 9.2 0 1 0 18.4 0 a9.2 9.2 0 1 0 -18.4 0zM171.74 4609.14 a9.2 9.2 0 1 0 18.4 0 a9.2 9.2 0 1 0 -18.4 0zM92.07 4655.14 a9.2 9.2 0 1 0 18.4 0 a9.2 9.2 0 1 0 -18.4 0zM12.39 4609.14 a9.2 9.2 0 1 0 18.4 0 a9.2 9.2 0 1 0 -18.4 0zM92.07 4747.14 a9.2 9.2 0 1 0 18.4 0 a9.2 9.2 0 1 0 -18.4 0zM12.39 4793.14 a9.2 9.2 0 1 0 18.4 0 a9.2 9.2 0 1 0 -18.4 0zM-67.29 4747.14 a9.2 9.2 0 1 0 18.4 0 a9.2 9.2 0 1 0 -18.4 0zM-67.29 4655.14 a9.2 9.2 0 1 0 18.4 0 a9.2 9.2 0 1 0 -18.4 0zM171.74 4793.14 a9.2 9.2 0 1 0 18.4 0 a9.2 9.2 0 1 0 -18.4 0zM171.74 4885.14 a9.2 9.2 0 1 0 18.4 0 a9.2 9.2 0 1 0 -18.4 0zM92.07 4931.14 a9.2 9.2 0 1 0 18.4 0 a9.2 9.2 0 1 0 -18.4 0zM12.39 4885.14 a9.2 9.2 0 1 0 18.4 0 a9.2 9.2 0 1 0 -18.4 0zM92.07 5023.14 a9.2 9.2 0 1 0 18.4 0 a9.2 9.2 0 1 0 -18.4 0zM12.39 5069.14 a9.2 9.2 0 1 0 18.4 0 a9.2 9.2 0 1 0 -18.4 0zM-67.29 5023.14 a9.2 9.2 0 1 0 18.4 0 a9.2 9.2 0 1 0 -18.4 0zM-67.29 4931.14 a9.2 9.2 0 1 0 18.4 0 a9.2 9.2 0 1 0 -18.4 0zM251.42 55.14 a9.2 9.2 0 1 0 18.4 0 a9.2 9.2 0 1 0 -18.4 0zM331.1 101.14 a9.2 9.2 0 1 0 18.4 0 a9.2 9.2 0 1 0 -18.4 0zM331.1 193.14 a9.2 9.2 0 1 0 18.4 0 a9.2 9.2 0 1 0 -18.4 0zM251.42 239.14 a9.2 9.2 0 1 0 18.4 0 a9.2 9.2 0 1 0 -18.4 0zM251.42 515.14 a9.2 9.2 0 1 0 18.4 0 a9.2 9.2 0 1 0 -18.4 0zM251.42 607.14 a9.2 9.2 0 1 0 18.4 0 a9.2 9.2 0 1 0 -18.4 0zM171.74 653.14 a9.2 9.2 0 1 0 18.4 0 a9.2 9.2 0 1 0 -18.4 0zM92.07 607.14 a9.2 9.2 0 1 0 18.4 0 a9.2 9.2 0 1 0 -18.4 0zM251.42 883.14 a9.2 9.2 0 1 0 18.4 0 a9.2 9.2 0 1 0 -18.4 0zM331.1 929.14 a9.2 9.2 0 1 0 18.4 0 a9.2 9.2 0 1 0 -18.4 0zM331.1 1021.14 a9.2 9.2 0 1 0 18.4 0 a9.2 9.2 0 1 0 -18.4 0zM251.42 1067.14 a9.2 9.2 0 1 0 18.4 0 a9.2 9.2 0 1 0 -18.4 0zM171.74 1021.14 a9.2 9.2 0 1 0 18.4 0 a9.2 9.2 0 1 0 -18.4 0zM171.74 929.14 a9.2 9.2 0 1 0 18.4 0 a9.2 9.2 0 1 0 -18.4 0zM251.42 1435.14 a9.2 9.2 0 1 0 18.4 0 a9.2 9.2 0 1 0 -18.4 0zM331.1 1481.14 a9.2 9.2 0 1 0 18.4 0 a9.2 9.2 0 1 0 -18.4 0zM331.1 1573.14 a9.2 9.2 0 1 0 18.4 0 a9.2 9.2 0 1 0 -18.4 0zM251.42 1619.14 a9.2 9.2 0 1 0 18.4 0 a9.2 9.2 0 1 0 -18.4 0zM171.74 1573.14 a9.2 9.2 0 1 0 18.4 0 a9.2 9.2 0 1 0 -18.4 0zM171.74 1481.14 a9.2 9.2 0 1 0 18.4 0 a9.2 9.2 0 1 0 -18.4 0zM251.42 3091.14 a9.2 9.2 0 1 0 18.4 0 a9.2 9.2 0 1 0 -18.4 0zM331.1 3137.14 a9.2 9.2 0 1 0 18.4 0 a9.2 9.2 0 1 0 -18.4 0zM331.1 3229.14 a9.2 9.2 0 1 0 18.4 0 a9.2 9.2 0 1 0 -18.4 0zM251.42 3275.14 a9.2 9.2 0 1 0 18.4 0 a9.2 9.2 0 1 0 -18.4 0zM171.74 3229.14 a9.2 9.2 0 1 0 18.4 0 a9.2 9.2 0 1 0 -18.4 0zM171.74 3137.14 a9.2 9.2 0 1 0 18.4 0 a9.2 9.2 0 1 0 -18.4 0zM251.42 3367.14 a9.2 9.2 0 1 0 18.4 0 a9.2 9.2 0 1 0 -18.4 0zM331.1 3413.14 a9.2 9.2 0 1 0 18.4 0 a9.2 9.2 0 1 0 -18.4 0zM331.1 3505.14 a9.2 9.2 0 1 0 18.4 0 a9.2 9.2 0 1 0 -18.4 0zM251.42 3551.14 a9.2 9.2 0 1 0 18.4 0 a9.2 9.2 0 1 0 -18.4 0zM171.74 3505.14 a9.2 9.2 0 1 0 18.4 0 a9.2 9.2 0 1 0 -18.4 0zM171.74 3413.14 a9.2 9.2 0 1 0 18.4 0 a9.2 9.2 0 1 0 -18.4 0zM251.42 3643.14 a9.2 9.2 0 1 0 18.4 0 a9.2 9.2 0 1 0 -18.4 0zM251.42 4103.14 a9.2 9.2 0 1 0 18.4 0 a9.2 9.2 0 1 0 -18.4 0zM251.42 4195.14 a9.2 9.2 0 1 0 18.4 0 a9.2 9.2 0 1 0 -18.4 0zM251.42 4379.14 a9.2 9.2 0 1 0 18.4 0 a9.2 9.2 0 1 0 -18.4 0zM251.42 4471.14 a9.2 9.2 0 1 0 18.4 0 a9.2 9.2 0 1 0 -18.4 0zM331.1 4517.14 a9.2 9.2 0 1 0 18.4 0 a9.2 9.2 0 1 0 -18.4 0zM331.1 4609.14 a9.2 9.2 0 1 0 18.4 0 a9.2 9.2 0 1 0 -18.4 0zM251.42 4655.14 a9.2 9.2 0 1 0 18.4 0 a9.2 9.2 0 1 0 -18.4 0zM251.42 4747.14 a9.2 9.2 0 1 0 18.4 0 a9.2 9.2 0 1 0 -18.4 0zM331.1 4793.14 a9.2 9.2 0 1 0 18.4 0 a9.2 9.2 0 1 0 -18.4 0zM331.1 4885.14 a9.2 9.2 0 1 0 18.4 0 a9.2 9.2 0 1 0 -18.4 0zM251.42 4931.14 a9.2 9.2 0 1 0 18.4 0 a9.2 9.2 0 1 0 -18.4 0zM410.77 331.14 a9.2 9.2 0 1 0 18.4 0 a9.2 9.2 0 1 0 -18.4 0zM490.45 377.14 a9.2 9.2 0 1 0 18.4 0 a9.2 9.2 0 1 0 -18.4 0zM490.45 469.14 a9.2 9.2 0 1 0 18.4 0 a9.2 9.2 0 1 0 -18.4 0zM410.77 515.14 a9.2 9.2 0 1 0 18.4 0 a9.2 9.2 0 1 0 -18.4 0zM331.1 469.14 a9.2 9.2 0 1 0 18.4 0 a9.2 9.2 0 1 0 -18.4 0zM331.1 377.14 a9.2 9.2 0 1 0 18.4 0 a9.2 9.2 0 1 0 -18.4 0zM410.77 607.14 a9.2 9.2 0 1 0 18.4 0 a9.2 9.2 0 1 0 -18.4 0zM331.1 653.14 a9.2 9.2 0 1 0 18.4 0 a9.2 9.2 0 1 0 -18.4 0zM490.45 653.14 a9.2 9.2 0 1 0 18.4 0 a9.2 9.2 0 1 0 -18.4 0zM490.45 745.14 a9.2 9.2 0 1 0 18.4 0 a9.2 9.2 0 1 0 -18.4 0zM410.77 791.14 a9.2 9.2 0 1 0 18.4 0 a9.2 9.2 0 1 0 -18.4 0zM331.1 745.14 a9.2 9.2 0 1 0 18.4 0 a9.2 9.2 0 1 0 -18.4 0zM331.1 1849.14 a9.2 9.2 0 1 0 18.4 0 a9.2 9.2 0 1 0 -18.4 0zM410.77 1895.14 a9.2 9.2 0 1 0 18.4 0 a9.2 9.2 0 1 0 -18.4 0zM410.77 1987.14 a9.2 9.2 0 1 0 18.4 0 a9.2 9.2 0 1 0 -18.4 0zM331.1 2033.14 a9.2 9.2 0 1 0 18.4 0 a9.2 9.2 0 1 0 -18.4 0zM251.42 1987.14 a9.2 9.2 0 1 0 18.4 0 a9.2 9.2 0 1 0 -18.4 0zM251.42 1895.14 a9.2 9.2 0 1 0 18.4 0 a9.2 9.2 0 1 0 -18.4 0zM331.1 2401.14 a9.2 9.2 0 1 0 18.4 0 a9.2 9.2 0 1 0 -18.4 0zM410.77 2447.14 a9.2 9.2 0 1 0 18.4 0 a9.2 9.2 0 1 0 -18.4 0zM410.77 2539.14 a9.2 9.2 0 1 0 18.4 0 a9.2 9.2 0 1 0 -18.4 0zM331.1 2585.14 a9.2 9.2 0 1 0 18.4 0 a9.2 9.2 0 1 0 -18.4 0zM251.42 2539.14 a9.2 9.2 0 1 0 18.4 0 a9.2 9.2 0 1 0 -18.4 0zM251.42 2447.14 a9.2 9.2 0 1 0 18.4 0 a9.2 9.2 0 1 0 -18.4 0zM410.77 2815.14 a9.2 9.2 0 1 0 18.4 0 a9.2 9.2 0 1 0 -18.4 0zM490.45 2861.14 a9.2 9.2 0 1 0 18.4 0 a9.2 9.2 0 1 0 -18.4 0zM490.45 2953.14 a9.2 9.2 0 1 0 18.4 0 a9.2 9.2 0 1 0 -18.4 0zM410.77 2999.14 a9.2 9.2 0 1 0 18.4 0 a9.2 9.2 0 1 0 -18.4 0zM331.1 2953.14 a9.2 9.2 0 1 0 18.4 0 a9.2 9.2 0 1 0 -18.4 0zM331.1 2861.14 a9.2 9.2 0 1 0 18.4 0 a9.2 9.2 0 1 0 -18.4 0zM410.77 3091.14 a9.2 9.2 0 1 0 18.4 0 a9.2 9.2 0 1 0 -18.4 0zM490.45 3137.14 a9.2 9.2 0 1 0 18.4 0 a9.2 9.2 0 1 0 -18.4 0zM490.45 3229.14 a9.2 9.2 0 1 0 18.4 0 a9.2 9.2 0 1 0 -18.4 0zM410.77 3275.14 a9.2 9.2 0 1 0 18.4 0 a9.2 9.2 0 1 0 -18.4 0zM410.77 3367.14 a9.2 9.2 0 1 0 18.4 0 a9.2 9.2 0 1 0 -18.4 0zM490.45 3413.14 a9.2 9.2 0 1 0 18.4 0 a9.2 9.2 0 1 0 -18.4 0zM490.45 3505.14 a9.2 9.2 0 1 0 18.4 0 a9.2 9.2 0 1 0 -18.4 0zM410.77 3551.14 a9.2 9.2 0 1 0 18.4 0 a9.2 9.2 0 1 0 -18.4 0zM410.77 3643.14 a9.2 9.2 0 1 0 18.4 0 a9.2 9.2 0 1 0 -18.4 0zM490.45 3689.14 a9.2 9.2 0 1 0 18.4 0 a9.2 9.2 0 1 0 -18.4 0zM490.45 3781.14 a9.2 9.2 0 1 0 18.4 0 a9.2 9.2 0 1 0 -18.4 0zM410.77 3827.14 a9.2 9.2 0 1 0 18.4 0 a9.2 9.2 0 1 0 -18.4 0zM331.1 3781.14 a9.2 9.2 0 1 0 18.4 0 a9.2 9.2 0 1 0 -18.4 0zM331.1 3689.14 a9.2 9.2 0 1 0 18.4 0 a9.2 9.2 0 1 0 -18.4 0zM410.77 3919.14 a9.2 9.2 0 1 0 18.4 0 a9.2 9.2 0 1 0 -18.4 0zM490.45 3965.14 a9.2 9.2 0 1 0 18.4 0 a9.2 9.2 0 1 0 -18.4 0zM490.45 4057.14 a9.2 9.2 0 1 0 18.4 0 a9.2 9.2 0 1 0 -18.4 0zM410.77 4103.14 a9.2 9.2 0 1 0 18.4 0 a9.2 9.2 0 1 0 -18.4 0zM331.1 4057.14 a9.2 9.2 0 1 0 18.4 0 a9.2 9.2 0 1 0 -18.4 0zM331.1 3965.14 a9.2 9.2 0 1 0 18.4 0 a9.2 9.2 0 1 0 -18.4 0zM331.1 4333.14 a9.2 9.2 0 1 0 18.4 0 a9.2 9.2 0 1 0 -18.4 0zM410.77 4379.14 a9.2 9.2 0 1 0 18.4 0 a9.2 9.2 0 1 0 -18.4 0zM410.77 4471.14 a9.2 9.2 0 1 0 18.4 0 a9.2 9.2 0 1 0 -18.4 0zM570.13 883.14 a9.2 9.2 0 1 0 18.4 0 a9.2 9.2 0 1 0 -18.4 0zM649.8 929.14 a9.2 9.2 0 1 0 18.4 0 a9.2 9.2 0 1 0 -18.4 0zM649.8 1021.14 a9.2 9.2 0 1 0 18.4 0 a9.2 9.2 0 1 0 -18.4 0zM570.13 1067.14 a9.2 9.2 0 1 0 18.4 0 a9.2 9.2 0 1 0 -18.4 0zM490.45 1021.14 a9.2 9.2 0 1 0 18.4 0 a9.2 9.2 0 1 0 -18.4 0zM490.45 929.14 a9.2 9.2 0 1 0 18.4 0 a9.2 9.2 0 1 0 -18.4 0zM490.45 1849.14 a9.2 9.2 0 1 0 18.4 0 a9.2 9.2 0 1 0 -18.4 0zM570.13 1895.14 a9.2 9.2 0 1 0 18.4 0 a9.2 9.2 0 1 0 -18.4 0zM570.13 1987.14 a9.2 9.2 0 1 0 18.4 0 a9.2 9.2 0 1 0 -18.4 0zM490.45 2033.14 a9.2 9.2 0 1 0 18.4 0 a9.2 9.2 0 1 0 -18.4 0zM490.45 2125.14 a9.2 9.2 0 1 0 18.4 0 a9.2 9.2 0 1 0 -18.4 0zM570.13 2171.14 a9.2 9.2 0 1 0 18.4 0 a9.2 9.2 0 1 0 -18.4 0zM570.13 2263.14 a9.2 9.2 0 1 0 18.4 0 a9.2 9.2 0 1 0 -18.4 0zM490.45 2309.14 a9.2 9.2 0 1 0 18.4 0 a9.2 9.2 0 1 0 -18.4 0zM410.77 2263.14 a9.2 9.2 0 1 0 18.4 0 a9.2 9.2 0 1 0 -18.4 0zM410.77 2171.14 a9.2 9.2 0 1 0 18.4 0 a9.2 9.2 0 1 0 -18.4 0zM570.13 3091.14 a9.2 9.2 0 1 0 18.4 0 a9.2 9.2 0 1 0 -18.4 0zM649.8 3137.14 a9.2 9.2 0 1 0 18.4 0 a9.2 9.2 0 1 0 -18.4 0zM649.8 3229.14 a9.2 9.2 0 1 0 18.4 0 a9.2 9.2 0 1 0 -18.4 0zM570.13 3275.14 a9.2 9.2 0 1 0 18.4 0 a9.2 9.2 0 1 0 -18.4 0zM570.13 3551.14 a9.2 9.2 0 1 0 18.4 0 a9.2 9.2 0 1 0 -18.4 0zM570.13 3643.14 a9.2 9.2 0 1 0 18.4 0 a9.2 9.2 0 1 0 -18.4 0zM570.13 3827.14 a9.2 9.2 0 1 0 18.4 0 a9.2 9.2 0 1 0 -18.4 0zM570.13 3919.14 a9.2 9.2 0 1 0 18.4 0 a9.2 9.2 0 1 0 -18.4 0zM490.45 4333.14 a9.2 9.2 0 1 0 18.4 0 a9.2 9.2 0 1 0 -18.4 0zM570.13 4379.14 a9.2 9.2 0 1 0 18.4 0 a9.2 9.2 0 1 0 -18.4 0zM570.13 4471.14 a9.2 9.2 0 1 0 18.4 0 a9.2 9.2 0 1 0 -18.4 0zM490.45 4517.14 a9.2 9.2 0 1 0 18.4 0 a9.2 9.2 0 1 0 -18.4 0zM490.45 4609.14 a9.2 9.2 0 1 0 18.4 0 a9.2 9.2 0 1 0 -18.4 0zM570.13 4655.14 a9.2 9.2 0 1 0 18.4 0 a9.2 9.2 0 1 0 -18.4 0zM570.13 4747.14 a9.2 9.2 0 1 0 18.4 0 a9.2 9.2 0 1 0 -18.4 0zM490.45 4793.14 a9.2 9.2 0 1 0 18.4 0 a9.2 9.2 0 1 0 -18.4 0zM410.77 4747.14 a9.2 9.2 0 1 0 18.4 0 a9.2 9.2 0 1 0 -18.4 0zM410.77 4655.14 a9.2 9.2 0 1 0 18.4 0 a9.2 9.2 0 1 0 -18.4 0zM649.8 469.14 a9.2 9.2 0 1 0 18.4 0 a9.2 9.2 0 1 0 -18.4 0zM729.48 515.14 a9.2 9.2 0 1 0 18.4 0 a9.2 9.2 0 1 0 -18.4 0zM729.48 607.14 a9.2 9.2 0 1 0 18.4 0 a9.2 9.2 0 1 0 -18.4 0zM649.8 653.14 a9.2 9.2 0 1 0 18.4 0 a9.2 9.2 0 1 0 -18.4 0zM570.13 607.14 a9.2 9.2 0 1 0 18.4 0 a9.2 9.2 0 1 0 -18.4 0zM570.13 515.14 a9.2 9.2 0 1 0 18.4 0 a9.2 9.2 0 1 0 -18.4 0zM809.16 653.14 a9.2 9.2 0 1 0 18.4 0 a9.2 9.2 0 1 0 -18.4 0zM809.16 745.14 a9.2 9.2 0 1 0 18.4 0 a9.2 9.2 0 1 0 -18.4 0zM729.48 791.14 a9.2 9.2 0 1 0 18.4 0 a9.2 9.2 0 1 0 -18.4 0zM649.8 745.14 a9.2 9.2 0 1 0 18.4 0 a9.2 9.2 0 1 0 -18.4 0zM729.48 1067.14 a9.2 9.2 0 1 0 18.4 0 a9.2 9.2 0 1 0 -18.4 0zM729.48 1159.14 a9.2 9.2 0 1 0 18.4 0 a9.2 9.2 0 1 0 -18.4 0zM649.8 1205.14 a9.2 9.2 0 1 0 18.4 0 a9.2 9.2 0 1 0 -18.4 0zM570.13 1159.14 a9.2 9.2 0 1 0 18.4 0 a9.2 9.2 0 1 0 -18.4 0zM649.8 1573.14 a9.2 9.2 0 1 0 18.4 0 a9.2 9.2 0 1 0 -18.4 0zM729.48 1619.14 a9.2 9.2 0 1 0 18.4 0 a9.2 9.2 0 1 0 -18.4 0zM729.48 1711.14 a9.2 9.2 0 1 0 18.4 0 a9.2 9.2 0 1 0 -18.4 0zM649.8 1757.14 a9.2 9.2 0 1 0 18.4 0 a9.2 9.2 0 1 0 -18.4 0zM570.13 1711.14 a9.2 9.2 0 1 0 18.4 0 a9.2 9.2 0 1 0 -18.4 0zM570.13 1619.14 a9.2 9.2 0 1 0 18.4 0 a9.2 9.2 0 1 0 -18.4 0zM809.16 1757.14 a9.2 9.2 0 1 0 18.4 0 a9.2 9.2 0 1 0 -18.4 0zM809.16 1849.14 a9.2 9.2 0 1 0 18.4 0 a9.2 9.2 0 1 0 -18.4 0zM729.48 1895.14 a9.2 9.2 0 1 0 18.4 0 a9.2 9.2 0 1 0 -18.4 0zM649.8 1849.14 a9.2 9.2 0 1 0 18.4 0 a9.2 9.2 0 1 0 -18.4 0zM729.48 1987.14 a9.2 9.2 0 1 0 18.4 0 a9.2 9.2 0 1 0 -18.4 0zM649.8 2033.14 a9.2 9.2 0 1 0 18.4 0 a9.2 9.2 0 1 0 -18.4 0zM809.16 2033.14 a9.2 9.2 0 1 0 18.4 0 a9.2 9.2 0 1 0 -18.4 0zM809.16 2125.14 a9.2 9.2 0 1 0 18.4 0 a9.2 9.2 0 1 0 -18.4 0zM729.48 2171.14 a9.2 9.2 0 1 0 18.4 0 a9.2 9.2 0 1 0 -18.4 0zM649.8 2125.14 a9.2 9.2 0 1 0 18.4 0 a9.2 9.2 0 1 0 -18.4 0zM649.8 2677.14 a9.2 9.2 0 1 0 18.4 0 a9.2 9.2 0 1 0 -18.4 0zM729.48 2723.14 a9.2 9.2 0 1 0 18.4 0 a9.2 9.2 0 1 0 -18.4 0zM729.48 2815.14 a9.2 9.2 0 1 0 18.4 0 a9.2 9.2 0 1 0 -18.4 0zM649.8 2861.14 a9.2 9.2 0 1 0 18.4 0 a9.2 9.2 0 1 0 -18.4 0zM570.13 2815.14 a9.2 9.2 0 1 0 18.4 0 a9.2 9.2 0 1 0 -18.4 0zM570.13 2723.14 a9.2 9.2 0 1 0 18.4 0 a9.2 9.2 0 1 0 -18.4 0zM729.48 3091.14 a9.2 9.2 0 1 0 18.4 0 a9.2 9.2 0 1 0 -18.4 0zM809.16 3137.14 a9.2 9.2 0 1 0 18.4 0 a9.2 9.2 0 1 0 -18.4 0zM809.16 3229.14 a9.2 9.2 0 1 0 18.4 0 a9.2 9.2 0 1 0 -18.4 0zM729.48 3275.14 a9.2 9.2 0 1 0 18.4 0 a9.2 9.2 0 1 0 -18.4 0zM729.48 3367.14 a9.2 9.2 0 1 0 18.4 0 a9.2 9.2 0 1 0 -18.4 0zM649.8 3413.14 a9.2 9.2 0 1 0 18.4 0 a9.2 9.2 0 1 0 -18.4 0zM570.13 3367.14 a9.2 9.2 0 1 0 18.4 0 a9.2 9.2 0 1 0 -18.4 0zM649.8 3505.14 a9.2 9.2 0 1 0 18.4 0 a9.2 9.2 0 1 0 -18.4 0zM729.48 3551.14 a9.2 9.2 0 1 0 18.4 0 a9.2 9.2 0 1 0 -18.4 0zM729.48 3643.14 a9.2 9.2 0 1 0 18.4 0 a9.2 9.2 0 1 0 -18.4 0zM649.8 3689.14 a9.2 9.2 0 1 0 18.4 0 a9.2 9.2 0 1 0 -18.4 0zM809.16 3689.14 a9.2 9.2 0 1 0 18.4 0 a9.2 9.2 0 1 0 -18.4 0zM809.16 3781.14 a9.2 9.2 0 1 0 18.4 0 a9.2 9.2 0 1 0 -18.4 0zM729.48 3827.14 a9.2 9.2 0 1 0 18.4 0 a9.2 9.2 0 1 0 -18.4 0zM649.8 3781.14 a9.2 9.2 0 1 0 18.4 0 a9.2 9.2 0 1 0 -18.4 0zM729.48 3919.14 a9.2 9.2 0 1 0 18.4 0 a9.2 9.2 0 1 0 -18.4 0zM809.16 3965.14 a9.2 9.2 0 1 0 18.4 0 a9.2 9.2 0 1 0 -18.4 0zM809.16 4057.14 a9.2 9.2 0 1 0 18.4 0 a9.2 9.2 0 1 0 -18.4 0zM729.48 4103.14 a9.2 9.2 0 1 0 18.4 0 a9.2 9.2 0 1 0 -18.4 0zM649.8 4057.14 a9.2 9.2 0 1 0 18.4 0 a9.2 9.2 0 1 0 -18.4 0zM649.8 3965.14 a9.2 9.2 0 1 0 18.4 0 a9.2 9.2 0 1 0 -18.4 0zM729.48 4195.14 a9.2 9.2 0 1 0 18.4 0 a9.2 9.2 0 1 0 -18.4 0zM649.8 4241.14 a9.2 9.2 0 1 0 18.4 0 a9.2 9.2 0 1 0 -18.4 0zM570.13 4195.14 a9.2 9.2 0 1 0 18.4 0 a9.2 9.2 0 1 0 -18.4 0zM570.13 4103.14 a9.2 9.2 0 1 0 18.4 0 a9.2 9.2 0 1 0 -18.4 0zM809.16 4241.14 a9.2 9.2 0 1 0 18.4 0 a9.2 9.2 0 1 0 -18.4 0zM809.16 4333.14 a9.2 9.2 0 1 0 18.4 0 a9.2 9.2 0 1 0 -18.4 0zM729.48 4379.14 a9.2 9.2 0 1 0 18.4 0 a9.2 9.2 0 1 0 -18.4 0zM649.8 4333.14 a9.2 9.2 0 1 0 18.4 0 a9.2 9.2 0 1 0 -18.4 0zM729.48 4471.14 a9.2 9.2 0 1 0 18.4 0 a9.2 9.2 0 1 0 -18.4 0zM809.16 4517.14 a9.2 9.2 0 1 0 18.4 0 a9.2 9.2 0 1 0 -18.4 0zM809.16 4609.14 a9.2 9.2 0 1 0 18.4 0 a9.2 9.2 0 1 0 -18.4 0zM729.48 4655.14 a9.2 9.2 0 1 0 18.4 0 a9.2 9.2 0 1 0 -18.4 0zM649.8 4609.14 a9.2 9.2 0 1 0 18.4 0 a9.2 9.2 0 1 0 -18.4 0zM649.8 4517.14 a9.2 9.2 0 1 0 18.4 0 a9.2 9.2 0 1 0 -18.4 0zM809.16 -82.86 a9.2 9.2 0 1 0 18.4 0 a9.2 9.2 0 1 0 -18.4 0zM888.83 -36.86 a9.2 9.2 0 1 0 18.4 0 a9.2 9.2 0 1 0 -18.4 0zM888.83 55.14 a9.2 9.2 0 1 0 18.4 0 a9.2 9.2 0 1 0 -18.4 0zM809.16 101.14 a9.2 9.2 0 1 0 18.4 0 a9.2 9.2 0 1 0 -18.4 0zM729.48 55.14 a9.2 9.2 0 1 0 18.4 0 a9.2 9.2 0 1 0 -18.4 0zM729.48 -36.86 a9.2 9.2 0 1 0 18.4 0 a9.2 9.2 0 1 0 -18.4 0zM809.16 193.14 a9.2 9.2 0 1 0 18.4 0 a9.2 9.2 0 1 0 -18.4 0zM888.83 239.14 a9.2 9.2 0 1 0 18.4 0 a9.2 9.2 0 1 0 -18.4 0zM888.83 331.14 a9.2 9.2 0 1 0 18.4 0 a9.2 9.2 0 1 0 -18.4 0zM809.16 377.14 a9.2 9.2 0 1 0 18.4 0 a9.2 9.2 0 1 0 -18.4 0zM729.48 331.14 a9.2 9.2 0 1 0 18.4 0 a9.2 9.2 0 1 0 -18.4 0zM729.48 239.14 a9.2 9.2 0 1 0 18.4 0 a9.2 9.2 0 1 0 -18.4 0zM968.51 377.14 a9.2 9.2 0 1 0 18.4 0 a9.2 9.2 0 1 0 -18.4 0zM968.51 469.14 a9.2 9.2 0 1 0 18.4 0 a9.2 9.2 0 1 0 -18.4 0zM888.83 515.14 a9.2 9.2 0 1 0 18.4 0 a9.2 9.2 0 1 0 -18.4 0zM809.16 469.14 a9.2 9.2 0 1 0 18.4 0 a9.2 9.2 0 1 0 -18.4 0zM888.83 607.14 a9.2 9.2 0 1 0 18.4 0 a9.2 9.2 0 1 0 -18.4 0zM888.83 1159.14 a9.2 9.2 0 1 0 18.4 0 a9.2 9.2 0 1 0 -18.4 0zM968.51 1205.14 a9.2 9.2 0 1 0 18.4 0 a9.2 9.2 0 1 0 -18.4 0zM968.51 1297.14 a9.2 9.2 0 1 0 18.4 0 a9.2 9.2 0 1 0 -18.4 0zM888.83 1343.14 a9.2 9.2 0 1 0 18.4 0 a9.2 9.2 0 1 0 -18.4 0zM809.16 1297.14 a9.2 9.2 0 1 0 18.4 0 a9.2 9.2 0 1 0 -18.4 0zM809.16 1205.14 a9.2 9.2 0 1 0 18.4 0 a9.2 9.2 0 1 0 -18.4 0zM888.83 3367.14 a9.2 9.2 0 1 0 18.4 0 a9.2 9.2 0 1 0 -18.4 0zM968.51 3413.14 a9.2 9.2 0 1 0 18.4 0 a9.2 9.2 0 1 0 -18.4 0zM968.51 3505.14 a9.2 9.2 0 1 0 18.4 0 a9.2 9.2 0 1 0 -18.4 0zM888.83 3551.14 a9.2 9.2 0 1 0 18.4 0 a9.2 9.2 0 1 0 -18.4 0zM809.16 3505.14 a9.2 9.2 0 1 0 18.4 0 a9.2 9.2 0 1 0 -18.4 0zM809.16 3413.14 a9.2 9.2 0 1 0 18.4 0 a9.2 9.2 0 1 0 -18.4 0zM888.83 3827.14 a9.2 9.2 0 1 0 18.4 0 a9.2 9.2 0 1 0 -18.4 0zM888.83 3919.14 a9.2 9.2 0 1 0 18.4 0 a9.2 9.2 0 1 0 -18.4 0zM968.51 3965.14 a9.2 9.2 0 1 0 18.4 0 a9.2 9.2 0 1 0 -18.4 0zM968.51 4057.14 a9.2 9.2 0 1 0 18.4 0 a9.2 9.2 0 1 0 -18.4 0zM888.83 4103.14 a9.2 9.2 0 1 0 18.4 0 a9.2 9.2 0 1 0 -18.4 0zM888.83 4195.14 a9.2 9.2 0 1 0 18.4 0 a9.2 9.2 0 1 0 -18.4 0zM888.83 4471.14 a9.2 9.2 0 1 0 18.4 0 a9.2 9.2 0 1 0 -18.4 0zM968.51 4517.14 a9.2 9.2 0 1 0 18.4 0 a9.2 9.2 0 1 0 -18.4 0zM968.51 4609.14 a9.2 9.2 0 1 0 18.4 0 a9.2 9.2 0 1 0 -18.4 0zM888.83 4655.14 a9.2 9.2 0 1 0 18.4 0 a9.2 9.2 0 1 0 -18.4 0zM809.16 4885.14 a9.2 9.2 0 1 0 18.4 0 a9.2 9.2 0 1 0 -18.4 0zM888.83 4931.14 a9.2 9.2 0 1 0 18.4 0 a9.2 9.2 0 1 0 -18.4 0zM888.83 5023.14 a9.2 9.2 0 1 0 18.4 0 a9.2 9.2 0 1 0 -18.4 0zM809.16 5069.14 a9.2 9.2 0 1 0 18.4 0 a9.2 9.2 0 1 0 -18.4 0zM729.48 5023.14 a9.2 9.2 0 1 0 18.4 0 a9.2 9.2 0 1 0 -18.4 0zM729.48 4931.14 a9.2 9.2 0 1 0 18.4 0 a9.2 9.2 0 1 0 -18.4 0zM1048.19 331.14 a9.2 9.2 0 1 0 18.4 0 a9.2 9.2 0 1 0 -18.4 0zM1127.86 377.14 a9.2 9.2 0 1 0 18.4 0 a9.2 9.2 0 1 0 -18.4 0zM1127.86 469.14 a9.2 9.2 0 1 0 18.4 0 a9.2 9.2 0 1 0 -18.4 0zM1048.19 515.14 a9.2 9.2 0 1 0 18.4 0 a9.2 9.2 0 1 0 -18.4 0zM1048.19 607.14 a9.2 9.2 0 1 0 18.4 0 a9.2 9.2 0 1 0 -18.4 0zM968.51 653.14 a9.2 9.2 0 1 0 18.4 0 a9.2 9.2 0 1 0 -18.4 0zM1048.19 1159.14 a9.2 9.2 0 1 0 18.4 0 a9.2 9.2 0 1 0 -18.4 0zM1127.86 1205.14 a9.2 9.2 0 1 0 18.4 0 a9.2 9.2 0 1 0 -18.4 0zM1127.86 1297.14 a9.2 9.2 0 1 0 18.4 0 a9.2 9.2 0 1 0 -18.4 0zM1048.19 1343.14 a9.2 9.2 0 1 0 18.4 0 a9.2 9.2 0 1 0 -18.4 0zM1048.19 1435.14 a9.2 9.2 0 1 0 18.4 0 a9.2 9.2 0 1 0 -18.4 0zM968.51 1481.14 a9.2 9.2 0 1 0 18.4 0 a9.2 9.2 0 1 0 -18.4 0zM888.83 1435.14 a9.2 9.2 0 1 0 18.4 0 a9.2 9.2 0 1 0 -18.4 0zM1048.19 1711.14 a9.2 9.2 0 1 0 18.4 0 a9.2 9.2 0 1 0 -18.4 0zM1127.86 1757.14 a9.2 9.2 0 1 0 18.4 0 a9.2 9.2 0 1 0 -18.4 0zM1127.86 1849.14 a9.2 9.2 0 1 0 18.4 0 a9.2 9.2 0 1 0 -18.4 0zM1048.19 1895.14 a9.2 9.2 0 1 0 18.4 0 a9.2 9.2 0 1 0 -18.4 0zM968.51 1849.14 a9.2 9.2 0 1 0 18.4 0 a9.2 9.2 0 1 0 -18.4 0zM968.51 1757.14 a9.2 9.2 0 1 0 18.4 0 a9.2 9.2 0 1 0 -18.4 0zM1048.19 1987.14 a9.2 9.2 0 1 0 18.4 0 a9.2 9.2 0 1 0 -18.4 0zM1127.86 2033.14 a9.2 9.2 0 1 0 18.4 0 a9.2 9.2 0 1 0 -18.4 0zM1127.86 2125.14 a9.2 9.2 0 1 0 18.4 0 a9.2 9.2 0 1 0 -18.4 0zM1048.19 2171.14 a9.2 9.2 0 1 0 18.4 0 a9.2 9.2 0 1 0 -18.4 0zM968.51 2125.14 a9.2 9.2 0 1 0 18.4 0 a9.2 9.2 0 1 0 -18.4 0zM968.51 2033.14 a9.2 9.2 0 1 0 18.4 0 a9.2 9.2 0 1 0 -18.4 0zM968.51 2401.14 a9.2 9.2 0 1 0 18.4 0 a9.2 9.2 0 1 0 -18.4 0zM1048.19 2447.14 a9.2 9.2 0 1 0 18.4 0 a9.2 9.2 0 1 0 -18.4 0zM1048.19 2539.14 a9.2 9.2 0 1 0 18.4 0 a9.2 9.2 0 1 0 -18.4 0zM968.51 2585.14 a9.2 9.2 0 1 0 18.4 0 a9.2 9.2 0 1 0 -18.4 0zM888.83 2539.14 a9.2 9.2 0 1 0 18.4 0 a9.2 9.2 0 1 0 -18.4 0zM888.83 2447.14 a9.2 9.2 0 1 0 18.4 0 a9.2 9.2 0 1 0 -18.4 0zM968.51 2677.14 a9.2 9.2 0 1 0 18.4 0 a9.2 9.2 0 1 0 -18.4 0zM1048.19 2723.14 a9.2 9.2 0 1 0 18.4 0 a9.2 9.2 0 1 0 -18.4 0zM1048.19 2815.14 a9.2 9.2 0 1 0 18.4 0 a9.2 9.2 0 1 0 -18.4 0zM968.51 2861.14 a9.2 9.2 0 1 0 18.4 0 a9.2 9.2 0 1 0 -18.4 0zM888.83 2815.14 a9.2 9.2 0 1 0 18.4 0 a9.2 9.2 0 1 0 -18.4 0zM888.83 2723.14 a9.2 9.2 0 1 0 18.4 0 a9.2 9.2 0 1 0 -18.4 0zM1048.19 3091.14 a9.2 9.2 0 1 0 18.4 0 a9.2 9.2 0 1 0 -18.4 0zM1127.86 3137.14 a9.2 9.2 0 1 0 18.4 0 a9.2 9.2 0 1 0 -18.4 0zM1127.86 3229.14 a9.2 9.2 0 1 0 18.4 0 a9.2 9.2 0 1 0 -18.4 0zM1048.19 3275.14 a9.2 9.2 0 1 0 18.4 0 a9.2 9.2 0 1 0 -18.4 0zM968.51 3229.14 a9.2 9.2 0 1 0 18.4 0 a9.2 9.2 0 1 0 -18.4 0zM968.51 3137.14 a9.2 9.2 0 1 0 18.4 0 a9.2 9.2 0 1 0 -18.4 0zM1048.19 3367.14 a9.2 9.2 0 1 0 18.4 0 a9.2 9.2 0 1 0 -18.4 0zM1127.86 3413.14 a9.2 9.2 0 1 0 18.4 0 a9.2 9.2 0 1 0 -18.4 0zM1127.86 3505.14 a9.2 9.2 0 1 0 18.4 0 a9.2 9.2 0 1 0 -18.4 0zM1048.19 3551.14 a9.2 9.2 0 1 0 18.4 0 a9.2 9.2 0 1 0 -18.4 0zM968.51 3781.14 a9.2 9.2 0 1 0 18.4 0 a9.2 9.2 0 1 0 -18.4 0zM1048.19 3827.14 a9.2 9.2 0 1 0 18.4 0 a9.2 9.2 0 1 0 -18.4 0zM1048.19 3919.14 a9.2 9.2 0 1 0 18.4 0 a9.2 9.2 0 1 0 -18.4 0zM1048.19 4471.14 a9.2 9.2 0 1 0 18.4 0 a9.2 9.2 0 1 0 -18.4 0zM1127.86 4517.14 a9.2 9.2 0 1 0 18.4 0 a9.2 9.2 0 1 0 -18.4 0zM1127.86 4609.14 a9.2 9.2 0 1 0 18.4 0 a9.2 9.2 0 1 0 -18.4 0zM1048.19 4655.14 a9.2 9.2 0 1 0 18.4 0 a9.2 9.2 0 1 0 -18.4 0zM1048.19 4747.14 a9.2 9.2 0 1 0 18.4 0 a9.2 9.2 0 1 0 -18.4 0zM1127.86 4793.14 a9.2 9.2 0 1 0 18.4 0 a9.2 9.2 0 1 0 -18.4 0zM1127.86 4885.14 a9.2 9.2 0 1 0 18.4 0 a9.2 9.2 0 1 0 -18.4 0zM1048.19 4931.14 a9.2 9.2 0 1 0 18.4 0 a9.2 9.2 0 1 0 -18.4 0zM968.51 4885.14 a9.2 9.2 0 1 0 18.4 0 a9.2 9.2 0 1 0 -18.4 0zM968.51 4793.14 a9.2 9.2 0 1 0 18.4 0 a9.2 9.2 0 1 0 -18.4 0zM1207.54 607.14 a9.2 9.2 0 1 0 18.4 0 a9.2 9.2 0 1 0 -18.4 0zM1287.22 653.14 a9.2 9.2 0 1 0 18.4 0 a9.2 9.2 0 1 0 -18.4 0zM1287.22 745.14 a9.2 9.2 0 1 0 18.4 0 a9.2 9.2 0 1 0 -18.4 0zM1207.54 791.14 a9.2 9.2 0 1 0 18.4 0 a9.2 9.2 0 1 0 -18.4 0zM1127.86 745.14 a9.2 9.2 0 1 0 18.4 0 a9.2 9.2 0 1 0 -18.4 0zM1127.86 653.14 a9.2 9.2 0 1 0 18.4 0 a9.2 9.2 0 1 0 -18.4 0zM1207.54 883.14 a9.2 9.2 0 1 0 18.4 0 a9.2 9.2 0 1 0 -18.4 0zM1287.22 929.14 a9.2 9.2 0 1 0 18.4 0 a9.2 9.2 0 1 0 -18.4 0zM1287.22 1021.14 a9.2 9.2 0 1 0 18.4 0 a9.2 9.2 0 1 0 -18.4 0zM1207.54 1067.14 a9.2 9.2 0 1 0 18.4 0 a9.2 9.2 0 1 0 -18.4 0zM1127.86 1021.14 a9.2 9.2 0 1 0 18.4 0 a9.2 9.2 0 1 0 -18.4 0zM1127.86 929.14 a9.2 9.2 0 1 0 18.4 0 a9.2 9.2 0 1 0 -18.4 0zM1207.54 1159.14 a9.2 9.2 0 1 0 18.4 0 a9.2 9.2 0 1 0 -18.4 0zM1287.22 1205.14 a9.2 9.2 0 1 0 18.4 0 a9.2 9.2 0 1 0 -18.4 0zM1287.22 1297.14 a9.2 9.2 0 1 0 18.4 0 a9.2 9.2 0 1 0 -18.4 0zM1207.54 1343.14 a9.2 9.2 0 1 0 18.4 0 a9.2 9.2 0 1 0 -18.4 0zM1207.54 1711.14 a9.2 9.2 0 1 0 18.4 0 a9.2 9.2 0 1 0 -18.4 0zM1287.22 1757.14 a9.2 9.2 0 1 0 18.4 0 a9.2 9.2 0 1 0 -18.4 0zM1287.22 1849.14 a9.2 9.2 0 1 0 18.4 0 a9.2 9.2 0 1 0 -18.4 0zM1207.54 1895.14 a9.2 9.2 0 1 0 18.4 0 a9.2 9.2 0 1 0 -18.4 0zM1127.86 2677.14 a9.2 9.2 0 1 0 18.4 0 a9.2 9.2 0 1 0 -18.4 0zM1207.54 2723.14 a9.2 9.2 0 1 0 18.4 0 a9.2 9.2 0 1 0 -18.4 0zM1207.54 2815.14 a9.2 9.2 0 1 0 18.4 0 a9.2 9.2 0 1 0 -18.4 0zM1127.86 2861.14 a9.2 9.2 0 1 0 18.4 0 a9.2 9.2 0 1 0 -18.4 0zM1127.86 2953.14 a9.2 9.2 0 1 0 18.4 0 a9.2 9.2 0 1 0 -18.4 0zM1207.54 2999.14 a9.2 9.2 0 1 0 18.4 0 a9.2 9.2 0 1 0 -18.4 0zM1207.54 3091.14 a9.2 9.2 0 1 0 18.4 0 a9.2 9.2 0 1 0 -18.4 0zM1048.19 2999.14 a9.2 9.2 0 1 0 18.4 0 a9.2 9.2 0 1 0 -18.4 0zM1127.86 3781.14 a9.2 9.2 0 1 0 18.4 0 a9.2 9.2 0 1 0 -18.4 0zM1207.54 3827.14 a9.2 9.2 0 1 0 18.4 0 a9.2 9.2 0 1 0 -18.4 0zM1207.54 3919.14 a9.2 9.2 0 1 0 18.4 0 a9.2 9.2 0 1 0 -18.4 0zM1127.86 3965.14 a9.2 9.2 0 1 0 18.4 0 a9.2 9.2 0 1 0 -18.4 0zM1127.86 4333.14 a9.2 9.2 0 1 0 18.4 0 a9.2 9.2 0 1 0 -18.4 0zM1207.54 4379.14 a9.2 9.2 0 1 0 18.4 0 a9.2 9.2 0 1 0 -18.4 0zM1207.54 4471.14 a9.2 9.2 0 1 0 18.4 0 a9.2 9.2 0 1 0 -18.4 0zM1048.19 4379.14 a9.2 9.2 0 1 0 18.4 0 a9.2 9.2 0 1 0 -18.4 0zM1207.54 4747.14 a9.2 9.2 0 1 0 18.4 0 a9.2 9.2 0 1 0 -18.4 0zM1287.22 4793.14 a9.2 9.2 0 1 0 18.4 0 a9.2 9.2 0 1 0 -18.4 0zM1287.22 4885.14 a9.2 9.2 0 1 0 18.4 0 a9.2 9.2 0 1 0 -18.4 0zM1207.54 4931.14 a9.2 9.2 0 1 0 18.4 0 a9.2 9.2 0 1 0 -18.4 0zM1207.54 5023.14 a9.2 9.2 0 1 0 18.4 0 a9.2 9.2 0 1 0 -18.4 0zM1127.86 5069.14 a9.2 9.2 0 1 0 18.4 0 a9.2 9.2 0 1 0 -18.4 0zM1048.19 5023.14 a9.2 9.2 0 1 0 18.4 0 a9.2 9.2 0 1 0 -18.4 0zM1366.89 331.14 a9.2 9.2 0 1 0 18.4 0 a9.2 9.2 0 1 0 -18.4 0zM1446.57 377.14 a9.2 9.2 0 1 0 18.4 0 a9.2 9.2 0 1 0 -18.4 0zM1446.57 469.14 a9.2 9.2 0 1 0 18.4 0 a9.2 9.2 0 1 0 -18.4 0zM1366.89 515.14 a9.2 9.2 0 1 0 18.4 0 a9.2 9.2 0 1 0 -18.4 0zM1287.22 469.14 a9.2 9.2 0 1 0 18.4 0 a9.2 9.2 0 1 0 -18.4 0zM1287.22 377.14 a9.2 9.2 0 1 0 18.4 0 a9.2 9.2 0 1 0 -18.4 0zM1366.89 607.14 a9.2 9.2 0 1 0 18.4 0 a9.2 9.2 0 1 0 -18.4 0zM1446.57 653.14 a9.2 9.2 0 1 0 18.4 0 a9.2 9.2 0 1 0 -18.4 0zM1446.57 745.14 a9.2 9.2 0 1 0 18.4 0 a9.2 9.2 0 1 0 -18.4 0zM1366.89 791.14 a9.2 9.2 0 1 0 18.4 0 a9.2 9.2 0 1 0 -18.4 0zM1366.89 883.14 a9.2 9.2 0 1 0 18.4 0 a9.2 9.2 0 1 0 -18.4 0zM1446.57 929.14 a9.2 9.2 0 1 0 18.4 0 a9.2 9.2 0 1 0 -18.4 0zM1446.57 1021.14 a9.2 9.2 0 1 0 18.4 0 a9.2 9.2 0 1 0 -18.4 0zM1366.89 1067.14 a9.2 9.2 0 1 0 18.4 0 a9.2 9.2 0 1 0 -18.4 0zM1366.89 1159.14 a9.2 9.2 0 1 0 18.4 0 a9.2 9.2 0 1 0 -18.4 0zM1366.89 1343.14 a9.2 9.2 0 1 0 18.4 0 a9.2 9.2 0 1 0 -18.4 0zM1366.89 1435.14 a9.2 9.2 0 1 0 18.4 0 a9.2 9.2 0 1 0 -18.4 0zM1287.22 1481.14 a9.2 9.2 0 1 0 18.4 0 a9.2 9.2 0 1 0 -18.4 0zM1207.54 1435.14 a9.2 9.2 0 1 0 18.4 0 a9.2 9.2 0 1 0 -18.4 0zM1446.57 1481.14 a9.2 9.2 0 1 0 18.4 0 a9.2 9.2 0 1 0 -18.4 0zM1446.57 1573.14 a9.2 9.2 0 1 0 18.4 0 a9.2 9.2 0 1 0 -18.4 0zM1366.89 1619.14 a9.2 9.2 0 1 0 18.4 0 a9.2 9.2 0 1 0 -18.4 0zM1287.22 1573.14 a9.2 9.2 0 1 0 18.4 0 a9.2 9.2 0 1 0 -18.4 0zM1366.89 1711.14 a9.2 9.2 0 1 0 18.4 0 a9.2 9.2 0 1 0 -18.4 0zM1207.54 1619.14 a9.2 9.2 0 1 0 18.4 0 a9.2 9.2 0 1 0 -18.4 0zM1366.89 2263.14 a9.2 9.2 0 1 0 18.4 0 a9.2 9.2 0 1 0 -18.4 0zM1446.57 2309.14 a9.2 9.2 0 1 0 18.4 0 a9.2 9.2 0 1 0 -18.4 0zM1446.57 2401.14 a9.2 9.2 0 1 0 18.4 0 a9.2 9.2 0 1 0 -18.4 0zM1366.89 2447.14 a9.2 9.2 0 1 0 18.4 0 a9.2 9.2 0 1 0 -18.4 0zM1287.22 2401.14 a9.2 9.2 0 1 0 18.4 0 a9.2 9.2 0 1 0 -18.4 0zM1287.22 2309.14 a9.2 9.2 0 1 0 18.4 0 a9.2 9.2 0 1 0 -18.4 0zM1366.89 2539.14 a9.2 9.2 0 1 0 18.4 0 a9.2 9.2 0 1 0 -18.4 0zM1287.22 2585.14 a9.2 9.2 0 1 0 18.4 0 a9.2 9.2 0 1 0 -18.4 0zM1207.54 2539.14 a9.2 9.2 0 1 0 18.4 0 a9.2 9.2 0 1 0 -18.4 0zM1207.54 2447.14 a9.2 9.2 0 1 0 18.4 0 a9.2 9.2 0 1 0 -18.4 0zM1446.57 2585.14 a9.2 9.2 0 1 0 18.4 0 a9.2 9.2 0 1 0 -18.4 0zM1446.57 2677.14 a9.2 9.2 0 1 0 18.4 0 a9.2 9.2 0 1 0 -18.4 0zM1366.89 2723.14 a9.2 9.2 0 1 0 18.4 0 a9.2 9.2 0 1 0 -18.4 0zM1287.22 2677.14 a9.2 9.2 0 1 0 18.4 0 a9.2 9.2 0 1 0 -18.4 0zM1366.89 2815.14 a9.2 9.2 0 1 0 18.4 0 a9.2 9.2 0 1 0 -18.4 0zM1446.57 2861.14 a9.2 9.2 0 1 0 18.4 0 a9.2 9.2 0 1 0 -18.4 0zM1446.57 2953.14 a9.2 9.2 0 1 0 18.4 0 a9.2 9.2 0 1 0 -18.4 0zM1366.89 2999.14 a9.2 9.2 0 1 0 18.4 0 a9.2 9.2 0 1 0 -18.4 0zM1287.22 2953.14 a9.2 9.2 0 1 0 18.4 0 a9.2 9.2 0 1 0 -18.4 0zM1287.22 2861.14 a9.2 9.2 0 1 0 18.4 0 a9.2 9.2 0 1 0 -18.4 0zM1366.89 3091.14 a9.2 9.2 0 1 0 18.4 0 a9.2 9.2 0 1 0 -18.4 0zM1287.22 3137.14 a9.2 9.2 0 1 0 18.4 0 a9.2 9.2 0 1 0 -18.4 0zM1366.89 3367.14 a9.2 9.2 0 1 0 18.4 0 a9.2 9.2 0 1 0 -18.4 0zM1446.57 3413.14 a9.2 9.2 0 1 0 18.4 0 a9.2 9.2 0 1 0 -18.4 0zM1446.57 3505.14 a9.2 9.2 0 1 0 18.4 0 a9.2 9.2 0 1 0 -18.4 0zM1366.89 3551.14 a9.2 9.2 0 1 0 18.4 0 a9.2 9.2 0 1 0 -18.4 0zM1287.22 3505.14 a9.2 9.2 0 1 0 18.4 0 a9.2 9.2 0 1 0 -18.4 0zM1287.22 3413.14 a9.2 9.2 0 1 0 18.4 0 a9.2 9.2 0 1 0 -18.4 0zM1366.89 3643.14 a9.2 9.2 0 1 0 18.4 0 a9.2 9.2 0 1 0 -18.4 0zM1287.22 3689.14 a9.2 9.2 0 1 0 18.4 0 a9.2 9.2 0 1 0 -18.4 0zM1207.54 3643.14 a9.2 9.2 0 1 0 18.4 0 a9.2 9.2 0 1 0 -18.4 0zM1207.54 3551.14 a9.2 9.2 0 1 0 18.4 0 a9.2 9.2 0 1 0 -18.4 0zM1446.57 -82.86 a9.2 9.2 0 1 0 18.4 0 a9.2 9.2 0 1 0 -18.4 0zM1526.25 -36.86 a9.2 9.2 0 1 0 18.4 0 a9.2 9.2 0 1 0 -18.4 0zM1526.25 55.14 a9.2 9.2 0 1 0 18.4 0 a9.2 9.2 0 1 0 -18.4 0zM1446.57 101.14 a9.2 9.2 0 1 0 18.4 0 a9.2 9.2 0 1 0 -18.4 0zM1366.89 55.14 a9.2 9.2 0 1 0 18.4 0 a9.2 9.2 0 1 0 -18.4 0zM1366.89 -36.86 a9.2 9.2 0 1 0 18.4 0 a9.2 9.2 0 1 0 -18.4 0zM1526.25 515.14 a9.2 9.2 0 1 0 18.4 0 a9.2 9.2 0 1 0 -18.4 0zM1526.25 607.14 a9.2 9.2 0 1 0 18.4 0 a9.2 9.2 0 1 0 -18.4 0zM1526.25 791.14 a9.2 9.2 0 1 0 18.4 0 a9.2 9.2 0 1 0 -18.4 0zM1526.25 883.14 a9.2 9.2 0 1 0 18.4 0 a9.2 9.2 0 1 0 -18.4 0zM1526.25 1067.14 a9.2 9.2 0 1 0 18.4 0 a9.2 9.2 0 1 0 -18.4 0zM1526.25 1159.14 a9.2 9.2 0 1 0 18.4 0 a9.2 9.2 0 1 0 -18.4 0zM1446.57 1205.14 a9.2 9.2 0 1 0 18.4 0 a9.2 9.2 0 1 0 -18.4 0zM1605.92 1205.14 a9.2 9.2 0 1 0 18.4 0 a9.2 9.2 0 1 0 -18.4 0zM1605.92 1297.14 a9.2 9.2 0 1 0 18.4 0 a9.2 9.2 0 1 0 -18.4 0zM1526.25 1343.14 a9.2 9.2 0 1 0 18.4 0 a9.2 9.2 0 1 0 -18.4 0zM1446.57 1297.14 a9.2 9.2 0 1 0 18.4 0 a9.2 9.2 0 1 0 -18.4 0zM1446.57 2125.14 a9.2 9.2 0 1 0 18.4 0 a9.2 9.2 0 1 0 -18.4 0zM1526.25 2171.14 a9.2 9.2 0 1 0 18.4 0 a9.2 9.2 0 1 0 -18.4 0zM1526.25 2263.14 a9.2 9.2 0 1 0 18.4 0 a9.2 9.2 0 1 0 -18.4 0zM1366.89 2171.14 a9.2 9.2 0 1 0 18.4 0 a9.2 9.2 0 1 0 -18.4 0zM1526.25 2447.14 a9.2 9.2 0 1 0 18.4 0 a9.2 9.2 0 1 0 -18.4 0zM1526.25 2539.14 a9.2 9.2 0 1 0 18.4 0 a9.2 9.2 0 1 0 -18.4 0zM1526.25 3551.14 a9.2 9.2 0 1 0 18.4 0 a9.2 9.2 0 1 0 -18.4 0zM1526.25 3643.14 a9.2 9.2 0 1 0 18.4 0 a9.2 9.2 0 1 0 -18.4 0zM1446.57 3689.14 a9.2 9.2 0 1 0 18.4 0 a9.2 9.2 0 1 0 -18.4 0zM1605.92 3689.14 a9.2 9.2 0 1 0 18.4 0 a9.2 9.2 0 1 0 -18.4 0zM1605.92 3781.14 a9.2 9.2 0 1 0 18.4 0 a9.2 9.2 0 1 0 -18.4 0zM1526.25 3827.14 a9.2 9.2 0 1 0 18.4 0 a9.2 9.2 0 1 0 -18.4 0zM1446.57 3781.14 a9.2 9.2 0 1 0 18.4 0 a9.2 9.2 0 1 0 -18.4 0zM1526.25 4471.14 a9.2 9.2 0 1 0 18.4 0 a9.2 9.2 0 1 0 -18.4 0zM1605.92 4517.14 a9.2 9.2 0 1 0 18.4 0 a9.2 9.2 0 1 0 -18.4 0zM1605.92 4609.14 a9.2 9.2 0 1 0 18.4 0 a9.2 9.2 0 1 0 -18.4 0zM1526.25 4655.14 a9.2 9.2 0 1 0 18.4 0 a9.2 9.2 0 1 0 -18.4 0zM1446.57 4609.14 a9.2 9.2 0 1 0 18.4 0 a9.2 9.2 0 1 0 -18.4 0zM1446.57 4517.14 a9.2 9.2 0 1 0 18.4 0 a9.2 9.2 0 1 0 -18.4 0zM1685.6 55.14 a9.2 9.2 0 1 0 18.4 0 a9.2 9.2 0 1 0 -18.4 0zM1765.28 101.14 a9.2 9.2 0 1 0 18.4 0 a9.2 9.2 0 1 0 -18.4 0zM1765.28 193.14 a9.2 9.2 0 1 0 18.4 0 a9.2 9.2 0 1 0 -18.4 0zM1685.6 239.14 a9.2 9.2 0 1 0 18.4 0 a9.2 9.2 0 1 0 -18.4 0zM1605.92 193.14 a9.2 9.2 0 1 0 18.4 0 a9.2 9.2 0 1 0 -18.4 0zM1605.92 101.14 a9.2 9.2 0 1 0 18.4 0 a9.2 9.2 0 1 0 -18.4 0zM1685.6 883.14 a9.2 9.2 0 1 0 18.4 0 a9.2 9.2 0 1 0 -18.4 0zM1765.28 929.14 a9.2 9.2 0 1 0 18.4 0 a9.2 9.2 0 1 0 -18.4 0zM1765.28 1021.14 a9.2 9.2 0 1 0 18.4 0 a9.2 9.2 0 1 0 -18.4 0zM1685.6 1067.14 a9.2 9.2 0 1 0 18.4 0 a9.2 9.2 0 1 0 -18.4 0zM1605.92 1021.14 a9.2 9.2 0 1 0 18.4 0 a9.2 9.2 0 1 0 -18.4 0zM1605.92 929.14 a9.2 9.2 0 1 0 18.4 0 a9.2 9.2 0 1 0 -18.4 0zM1605.92 1849.14 a9.2 9.2 0 1 0 18.4 0 a9.2 9.2 0 1 0 -18.4 0zM1685.6 1895.14 a9.2 9.2 0 1 0 18.4 0 a9.2 9.2 0 1 0 -18.4 0zM1685.6 1987.14 a9.2 9.2 0 1 0 18.4 0 a9.2 9.2 0 1 0 -18.4 0zM1605.92 2033.14 a9.2 9.2 0 1 0 18.4 0 a9.2 9.2 0 1 0 -18.4 0zM1526.25 1987.14 a9.2 9.2 0 1 0 18.4 0 a9.2 9.2 0 1 0 -18.4 0zM1526.25 1895.14 a9.2 9.2 0 1 0 18.4 0 a9.2 9.2 0 1 0 -18.4 0zM1685.6 2263.14 a9.2 9.2 0 1 0 18.4 0 a9.2 9.2 0 1 0 -18.4 0zM1765.28 2309.14 a9.2 9.2 0 1 0 18.4 0 a9.2 9.2 0 1 0 -18.4 0zM1765.28 2401.14 a9.2 9.2 0 1 0 18.4 0 a9.2 9.2 0 1 0 -18.4 0zM1685.6 2447.14 a9.2 9.2 0 1 0 18.4 0 a9.2 9.2 0 1 0 -18.4 0zM1605.92 2401.14 a9.2 9.2 0 1 0 18.4 0 a9.2 9.2 0 1 0 -18.4 0zM1605.92 2309.14 a9.2 9.2 0 1 0 18.4 0 a9.2 9.2 0 1 0 -18.4 0zM1605.92 2677.14 a9.2 9.2 0 1 0 18.4 0 a9.2 9.2 0 1 0 -18.4 0zM1685.6 2723.14 a9.2 9.2 0 1 0 18.4 0 a9.2 9.2 0 1 0 -18.4 0zM1685.6 2815.14 a9.2 9.2 0 1 0 18.4 0 a9.2 9.2 0 1 0 -18.4 0zM1605.92 2861.14 a9.2 9.2 0 1 0 18.4 0 a9.2 9.2 0 1 0 -18.4 0zM1526.25 2815.14 a9.2 9.2 0 1 0 18.4 0 a9.2 9.2 0 1 0 -18.4 0zM1526.25 2723.14 a9.2 9.2 0 1 0 18.4 0 a9.2 9.2 0 1 0 -18.4 0zM1685.6 3091.14 a9.2 9.2 0 1 0 18.4 0 a9.2 9.2 0 1 0 -18.4 0zM1765.28 3137.14 a9.2 9.2 0 1 0 18.4 0 a9.2 9.2 0 1 0 -18.4 0zM1765.28 3229.14 a9.2 9.2 0 1 0 18.4 0 a9.2 9.2 0 1 0 -18.4 0zM1685.6 3275.14 a9.2 9.2 0 1 0 18.4 0 a9.2 9.2 0 1 0 -18.4 0zM1605.92 3229.14 a9.2 9.2 0 1 0 18.4 0 a9.2 9.2 0 1 0 -18.4 0zM1605.92 3137.14 a9.2 9.2 0 1 0 18.4 0 a9.2 9.2 0 1 0 -18.4 0zM1605.92 3505.14 a9.2 9.2 0 1 0 18.4 0 a9.2 9.2 0 1 0 -18.4 0zM1685.6 3551.14 a9.2 9.2 0 1 0 18.4 0 a9.2 9.2 0 1 0 -18.4 0zM1685.6 3643.14 a9.2 9.2 0 1 0 18.4 0 a9.2 9.2 0 1 0 -18.4 0zM1765.28 3689.14 a9.2 9.2 0 1 0 18.4 0 a9.2 9.2 0 1 0 -18.4 0zM1765.28 3781.14 a9.2 9.2 0 1 0 18.4 0 a9.2 9.2 0 1 0 -18.4 0zM1685.6 3827.14 a9.2 9.2 0 1 0 18.4 0 a9.2 9.2 0 1 0 -18.4 0zM1605.92 4057.14 a9.2 9.2 0 1 0 18.4 0 a9.2 9.2 0 1 0 -18.4 0zM1685.6 4103.14 a9.2 9.2 0 1 0 18.4 0 a9.2 9.2 0 1 0 -18.4 0zM1685.6 4195.14 a9.2 9.2 0 1 0 18.4 0 a9.2 9.2 0 1 0 -18.4 0zM1605.92 4241.14 a9.2 9.2 0 1 0 18.4 0 a9.2 9.2 0 1 0 -18.4 0zM1526.25 4195.14 a9.2 9.2 0 1 0 18.4 0 a9.2 9.2 0 1 0 -18.4 0zM1526.25 4103.14 a9.2 9.2 0 1 0 18.4 0 a9.2 9.2 0 1 0 -18.4 0zM1765.28 4241.14 a9.2 9.2 0 1 0 18.4 0 a9.2 9.2 0 1 0 -18.4 0zM1765.28 4333.14 a9.2 9.2 0 1 0 18.4 0 a9.2 9.2 0 1 0 -18.4 0zM1685.6 4379.14 a9.2 9.2 0 1 0 18.4 0 a9.2 9.2 0 1 0 -18.4 0zM1605.92 4333.14 a9.2 9.2 0 1 0 18.4 0 a9.2 9.2 0 1 0 -18.4 0zM1685.6 4471.14 a9.2 9.2 0 1 0 18.4 0 a9.2 9.2 0 1 0 -18.4 0zM1526.25 4379.14 a9.2 9.2 0 1 0 18.4 0 a9.2 9.2 0 1 0 -18.4 0zM1685.6 4655.14 a9.2 9.2 0 1 0 18.4 0 a9.2 9.2 0 1 0 -18.4 0zM1685.6 4747.14 a9.2 9.2 0 1 0 18.4 0 a9.2 9.2 0 1 0 -18.4 0zM1605.92 4793.14 a9.2 9.2 0 1 0 18.4 0 a9.2 9.2 0 1 0 -18.4 0zM1526.25 4747.14 a9.2 9.2 0 1 0 18.4 0 a9.2 9.2 0 1 0 -18.4 0zM1605.92 4885.14 a9.2 9.2 0 1 0 18.4 0 a9.2 9.2 0 1 0 -18.4 0zM1685.6 4931.14 a9.2 9.2 0 1 0 18.4 0 a9.2 9.2 0 1 0 -18.4 0zM1685.6 5023.14 a9.2 9.2 0 1 0 18.4 0 a9.2 9.2 0 1 0 -18.4 0zM1605.92 5069.14 a9.2 9.2 0 1 0 18.4 0 a9.2 9.2 0 1 0 -18.4 0zM1526.25 5023.14 a9.2 9.2 0 1 0 18.4 0 a9.2 9.2 0 1 0 -18.4 0zM1526.25 4931.14 a9.2 9.2 0 1 0 18.4 0 a9.2 9.2 0 1 0 -18.4 0zM1844.95 883.14 a9.2 9.2 0 1 0 18.4 0 a9.2 9.2 0 1 0 -18.4 0zM1924.63 929.14 a9.2 9.2 0 1 0 18.4 0 a9.2 9.2 0 1 0 -18.4 0zM1924.63 1021.14 a9.2 9.2 0 1 0 18.4 0 a9.2 9.2 0 1 0 -18.4 0zM1844.95 1067.14 a9.2 9.2 0 1 0 18.4 0 a9.2 9.2 0 1 0 -18.4 0zM1844.95 1159.14 a9.2 9.2 0 1 0 18.4 0 a9.2 9.2 0 1 0 -18.4 0zM1765.28 1205.14 a9.2 9.2 0 1 0 18.4 0 a9.2 9.2 0 1 0 -18.4 0zM1685.6 1159.14 a9.2 9.2 0 1 0 18.4 0 a9.2 9.2 0 1 0 -18.4 0zM1844.95 1711.14 a9.2 9.2 0 1 0 18.4 0 a9.2 9.2 0 1 0 -18.4 0zM1924.63 1757.14 a9.2 9.2 0 1 0 18.4 0 a9.2 9.2 0 1 0 -18.4 0zM1924.63 1849.14 a9.2 9.2 0 1 0 18.4 0 a9.2 9.2 0 1 0 -18.4 0zM1844.95 1895.14 a9.2 9.2 0 1 0 18.4 0 a9.2 9.2 0 1 0 -18.4 0zM1765.28 1849.14 a9.2 9.2 0 1 0 18.4 0 a9.2 9.2 0 1 0 -18.4 0zM1765.28 1757.14 a9.2 9.2 0 1 0 18.4 0 a9.2 9.2 0 1 0 -18.4 0zM1844.95 1987.14 a9.2 9.2 0 1 0 18.4 0 a9.2 9.2 0 1 0 -18.4 0zM1765.28 2033.14 a9.2 9.2 0 1 0 18.4 0 a9.2 9.2 0 1 0 -18.4 0zM1765.28 2125.14 a9.2 9.2 0 1 0 18.4 0 a9.2 9.2 0 1 0 -18.4 0zM1844.95 2171.14 a9.2 9.2 0 1 0 18.4 0 a9.2 9.2 0 1 0 -18.4 0zM1844.95 2263.14 a9.2 9.2 0 1 0 18.4 0 a9.2 9.2 0 1 0 -18.4 0zM1685.6 2171.14 a9.2 9.2 0 1 0 18.4 0 a9.2 9.2 0 1 0 -18.4 0zM1844.95 2447.14 a9.2 9.2 0 1 0 18.4 0 a9.2 9.2 0 1 0 -18.4 0zM1844.95 2539.14 a9.2 9.2 0 1 0 18.4 0 a9.2 9.2 0 1 0 -18.4 0zM1765.28 2585.14 a9.2 9.2 0 1 0 18.4 0 a9.2 9.2 0 1 0 -18.4 0zM1685.6 2539.14 a9.2 9.2 0 1 0 18.4 0 a9.2 9.2 0 1 0 -18.4 0zM1924.63 2585.14 a9.2 9.2 0 1 0 18.4 0 a9.2 9.2 0 1 0 -18.4 0zM1924.63 2677.14 a9.2 9.2 0 1 0 18.4 0 a9.2 9.2 0 1 0 -18.4 0zM1844.95 2723.14 a9.2 9.2 0 1 0 18.4 0 a9.2 9.2 0 1 0 -18.4 0zM1765.28 2677.14 a9.2 9.2 0 1 0 18.4 0 a9.2 9.2 0 1 0 -18.4 0zM1844.95 3275.14 a9.2 9.2 0 1 0 18.4 0 a9.2 9.2 0 1 0 -18.4 0zM1844.95 3367.14 a9.2 9.2 0 1 0 18.4 0 a9.2 9.2 0 1 0 -18.4 0zM1765.28 3413.14 a9.2 9.2 0 1 0 18.4 0 a9.2 9.2 0 1 0 -18.4 0zM1685.6 3367.14 a9.2 9.2 0 1 0 18.4 0 a9.2 9.2 0 1 0 -18.4 0zM1765.28 4057.14 a9.2 9.2 0 1 0 18.4 0 a9.2 9.2 0 1 0 -18.4 0zM1844.95 4103.14 a9.2 9.2 0 1 0 18.4 0 a9.2 9.2 0 1 0 -18.4 0zM1844.95 4195.14 a9.2 9.2 0 1 0 18.4 0 a9.2 9.2 0 1 0 -18.4 0zM1924.63 4241.14 a9.2 9.2 0 1 0 18.4 0 a9.2 9.2 0 1 0 -18.4 0zM1924.63 4333.14 a9.2 9.2 0 1 0 18.4 0 a9.2 9.2 0 1 0 -18.4 0zM1844.95 4379.14 a9.2 9.2 0 1 0 18.4 0 a9.2 9.2 0 1 0 -18.4 0zM1765.28 4885.14 a9.2 9.2 0 1 0 18.4 0 a9.2 9.2 0 1 0 -18.4 0zM1844.95 4931.14 a9.2 9.2 0 1 0 18.4 0 a9.2 9.2 0 1 0 -18.4 0zM1844.95 5023.14 a9.2 9.2 0 1 0 18.4 0 a9.2 9.2 0 1 0 -18.4 0zM1765.28 5069.14 a9.2 9.2 0 1 0 18.4 0 a9.2 9.2 0 1 0 -18.4 0zM1924.63 745.14 a9.2 9.2 0 1 0 18.4 0 a9.2 9.2 0 1 0 -18.4 0zM2004.3 791.14 a9.2 9.2 0 1 0 18.4 0 a9.2 9.2 0 1 0 -18.4 0zM2004.3 883.14 a9.2 9.2 0 1 0 18.4 0 a9.2 9.2 0 1 0 -18.4 0zM1844.95 791.14 a9.2 9.2 0 1 0 18.4 0 a9.2 9.2 0 1 0 -18.4 0zM2083.98 929.14 a9.2 9.2 0 1 0 18.4 0 a9.2 9.2 0 1 0 -18.4 0zM2083.98 1021.14 a9.2 9.2 0 1 0 18.4 0 a9.2 9.2 0 1 0 -18.4 0zM2004.3 1067.14 a9.2 9.2 0 1 0 18.4 0 a9.2 9.2 0 1 0 -18.4 0zM2004.3 1435.14 a9.2 9.2 0 1 0 18.4 0 a9.2 9.2 0 1 0 -18.4 0zM2083.98 1481.14 a9.2 9.2 0 1 0 18.4 0 a9.2 9.2 0 1 0 -18.4 0zM2083.98 1573.14 a9.2 9.2 0 1 0 18.4 0 a9.2 9.2 0 1 0 -18.4 0zM2004.3 1619.14 a9.2 9.2 0 1 0 18.4 0 a9.2 9.2 0 1 0 -18.4 0zM1924.63 1573.14 a9.2 9.2 0 1 0 18.4 0 a9.2 9.2 0 1 0 -18.4 0zM1924.63 1481.14 a9.2 9.2 0 1 0 18.4 0 a9.2 9.2 0 1 0 -18.4 0zM1924.63 2401.14 a9.2 9.2 0 1 0 18.4 0 a9.2 9.2 0 1 0 -18.4 0zM2004.3 2447.14 a9.2 9.2 0 1 0 18.4 0 a9.2 9.2 0 1 0 -18.4 0zM2004.3 2539.14 a9.2 9.2 0 1 0 18.4 0 a9.2 9.2 0 1 0 -18.4 0zM2004.3 2723.14 a9.2 9.2 0 1 0 18.4 0 a9.2 9.2 0 1 0 -18.4 0zM2004.3 2815.14 a9.2 9.2 0 1 0 18.4 0 a9.2 9.2 0 1 0 -18.4 0zM1924.63 2861.14 a9.2 9.2 0 1 0 18.4 0 a9.2 9.2 0 1 0 -18.4 0zM1844.95 2815.14 a9.2 9.2 0 1 0 18.4 0 a9.2 9.2 0 1 0 -18.4 0zM1924.63 2953.14 a9.2 9.2 0 1 0 18.4 0 a9.2 9.2 0 1 0 -18.4 0zM2004.3 2999.14 a9.2 9.2 0 1 0 18.4 0 a9.2 9.2 0 1 0 -18.4 0zM2004.3 3091.14 a9.2 9.2 0 1 0 18.4 0 a9.2 9.2 0 1 0 -18.4 0zM1924.63 3137.14 a9.2 9.2 0 1 0 18.4 0 a9.2 9.2 0 1 0 -18.4 0zM1844.95 3091.14 a9.2 9.2 0 1 0 18.4 0 a9.2 9.2 0 1 0 -18.4 0zM1844.95 2999.14 a9.2 9.2 0 1 0 18.4 0 a9.2 9.2 0 1 0 -18.4 0zM2004.3 3367.14 a9.2 9.2 0 1 0 18.4 0 a9.2 9.2 0 1 0 -18.4 0zM2083.98 3413.14 a9.2 9.2 0 1 0 18.4 0 a9.2 9.2 0 1 0 -18.4 0zM2083.98 3505.14 a9.2 9.2 0 1 0 18.4 0 a9.2 9.2 0 1 0 -18.4 0zM2004.3 3551.14 a9.2 9.2 0 1 0 18.4 0 a9.2 9.2 0 1 0 -18.4 0zM1924.63 3505.14 a9.2 9.2 0 1 0 18.4 0 a9.2 9.2 0 1 0 -18.4 0zM1924.63 3413.14 a9.2 9.2 0 1 0 18.4 0 a9.2 9.2 0 1 0 -18.4 0zM2004.3 3643.14 a9.2 9.2 0 1 0 18.4 0 a9.2 9.2 0 1 0 -18.4 0zM2083.98 3689.14 a9.2 9.2 0 1 0 18.4 0 a9.2 9.2 0 1 0 -18.4 0zM2083.98 3781.14 a9.2 9.2 0 1 0 18.4 0 a9.2 9.2 0 1 0 -18.4 0zM2004.3 3827.14 a9.2 9.2 0 1 0 18.4 0 a9.2 9.2 0 1 0 -18.4 0zM1924.63 3781.14 a9.2 9.2 0 1 0 18.4 0 a9.2 9.2 0 1 0 -18.4 0zM1924.63 3689.14 a9.2 9.2 0 1 0 18.4 0 a9.2 9.2 0 1 0 -18.4 0zM1924.63 4057.14 a9.2 9.2 0 1 0 18.4 0 a9.2 9.2 0 1 0 -18.4 0zM2004.3 4103.14 a9.2 9.2 0 1 0 18.4 0 a9.2 9.2 0 1 0 -18.4 0zM2004.3 4195.14 a9.2 9.2 0 1 0 18.4 0 a9.2 9.2 0 1 0 -18.4 0zM2083.98 4241.14 a9.2 9.2 0 1 0 18.4 0 a9.2 9.2 0 1 0 -18.4 0zM2083.98 4333.14 a9.2 9.2 0 1 0 18.4 0 a9.2 9.2 0 1 0 -18.4 0zM2004.3 4379.14 a9.2 9.2 0 1 0 18.4 0 a9.2 9.2 0 1 0 -18.4 0zM2004.3 4471.14 a9.2 9.2 0 1 0 18.4 0 a9.2 9.2 0 1 0 -18.4 0zM2083.98 4517.14 a9.2 9.2 0 1 0 18.4 0 a9.2 9.2 0 1 0 -18.4 0zM2083.98 4609.14 a9.2 9.2 0 1 0 18.4 0 a9.2 9.2 0 1 0 -18.4 0zM2004.3 4655.14 a9.2 9.2 0 1 0 18.4 0 a9.2 9.2 0 1 0 -18.4 0zM1924.63 4609.14 a9.2 9.2 0 1 0 18.4 0 a9.2 9.2 0 1 0 -18.4 0zM1924.63 4517.14 a9.2 9.2 0 1 0 18.4 0 a9.2 9.2 0 1 0 -18.4 0zM2004.3 4747.14 a9.2 9.2 0 1 0 18.4 0 a9.2 9.2 0 1 0 -18.4 0zM2083.98 4793.14 a9.2 9.2 0 1 0 18.4 0 a9.2 9.2 0 1 0 -18.4 0zM2083.98 4885.14 a9.2 9.2 0 1 0 18.4 0 a9.2 9.2 0 1 0 -18.4 0zM2004.3 4931.14 a9.2 9.2 0 1 0 18.4 0 a9.2 9.2 0 1 0 -18.4 0zM1924.63 4885.14 a9.2 9.2 0 1 0 18.4 0 a9.2 9.2 0 1 0 -18.4 0zM1924.63 4793.14 a9.2 9.2 0 1 0 18.4 0 a9.2 9.2 0 1 0 -18.4 0zM2083.98 193.14 a9.2 9.2 0 1 0 18.4 0 a9.2 9.2 0 1 0 -18.4 0zM2163.66 239.14 a9.2 9.2 0 1 0 18.4 0 a9.2 9.2 0 1 0 -18.4 0zM2163.66 331.14 a9.2 9.2 0 1 0 18.4 0 a9.2 9.2 0 1 0 -18.4 0zM2083.98 377.14 a9.2 9.2 0 1 0 18.4 0 a9.2 9.2 0 1 0 -18.4 0zM2004.3 331.14 a9.2 9.2 0 1 0 18.4 0 a9.2 9.2 0 1 0 -18.4 0zM2004.3 239.14 a9.2 9.2 0 1 0 18.4 0 a9.2 9.2 0 1 0 -18.4 0zM2083.98 469.14 a9.2 9.2 0 1 0 18.4 0 a9.2 9.2 0 1 0 -18.4 0zM2163.66 515.14 a9.2 9.2 0 1 0 18.4 0 a9.2 9.2 0 1 0 -18.4 0zM2163.66 607.14 a9.2 9.2 0 1 0 18.4 0 a9.2 9.2 0 1 0 -18.4 0zM2083.98 653.14 a9.2 9.2 0 1 0 18.4 0 a9.2 9.2 0 1 0 -18.4 0zM2004.3 607.14 a9.2 9.2 0 1 0 18.4 0 a9.2 9.2 0 1 0 -18.4 0zM2004.3 515.14 a9.2 9.2 0 1 0 18.4 0 a9.2 9.2 0 1 0 -18.4 0zM2243.33 653.14 a9.2 9.2 0 1 0 18.4 0 a9.2 9.2 0 1 0 -18.4 0zM2243.33 745.14 a9.2 9.2 0 1 0 18.4 0 a9.2 9.2 0 1 0 -18.4 0zM2163.66 791.14 a9.2 9.2 0 1 0 18.4 0 a9.2 9.2 0 1 0 -18.4 0zM2083.98 745.14 a9.2 9.2 0 1 0 18.4 0 a9.2 9.2 0 1 0 -18.4 0zM2163.66 1067.14 a9.2 9.2 0 1 0 18.4 0 a9.2 9.2 0 1 0 -18.4 0zM2163.66 1159.14 a9.2 9.2 0 1 0 18.4 0 a9.2 9.2 0 1 0 -18.4 0zM2083.98 1205.14 a9.2 9.2 0 1 0 18.4 0 a9.2 9.2 0 1 0 -18.4 0zM2004.3 1159.14 a9.2 9.2 0 1 0 18.4 0 a9.2 9.2 0 1 0 -18.4 0zM2083.98 1297.14 a9.2 9.2 0 1 0 18.4 0 a9.2 9.2 0 1 0 -18.4 0zM2163.66 1343.14 a9.2 9.2 0 1 0 18.4 0 a9.2 9.2 0 1 0 -18.4 0zM2163.66 1435.14 a9.2 9.2 0 1 0 18.4 0 a9.2 9.2 0 1 0 -18.4 0zM2004.3 1343.14 a9.2 9.2 0 1 0 18.4 0 a9.2 9.2 0 1 0 -18.4 0zM2083.98 1849.14 a9.2 9.2 0 1 0 18.4 0 a9.2 9.2 0 1 0 -18.4 0zM2163.66 1895.14 a9.2 9.2 0 1 0 18.4 0 a9.2 9.2 0 1 0 -18.4 0zM2163.66 1987.14 a9.2 9.2 0 1 0 18.4 0 a9.2 9.2 0 1 0 -18.4 0zM2083.98 2033.14 a9.2 9.2 0 1 0 18.4 0 a9.2 9.2 0 1 0 -18.4 0zM2004.3 1987.14 a9.2 9.2 0 1 0 18.4 0 a9.2 9.2 0 1 0 -18.4 0zM2004.3 1895.14 a9.2 9.2 0 1 0 18.4 0 a9.2 9.2 0 1 0 -18.4 0zM2243.33 2033.14 a9.2 9.2 0 1 0 18.4 0 a9.2 9.2 0 1 0 -18.4 0zM2243.33 2125.14 a9.2 9.2 0 1 0 18.4 0 a9.2 9.2 0 1 0 -18.4 0zM2163.66 2171.14 a9.2 9.2 0 1 0 18.4 0 a9.2 9.2 0 1 0 -18.4 0zM2083.98 2125.14 a9.2 9.2 0 1 0 18.4 0 a9.2 9.2 0 1 0 -18.4 0zM2163.66 3551.14 a9.2 9.2 0 1 0 18.4 0 a9.2 9.2 0 1 0 -18.4 0zM2163.66 3643.14 a9.2 9.2 0 1 0 18.4 0 a9.2 9.2 0 1 0 -18.4 0zM2163.66 3827.14 a9.2 9.2 0 1 0 18.4 0 a9.2 9.2 0 1 0 -18.4 0zM2163.66 3919.14 a9.2 9.2 0 1 0 18.4 0 a9.2 9.2 0 1 0 -18.4 0zM2083.98 3965.14 a9.2 9.2 0 1 0 18.4 0 a9.2 9.2 0 1 0 -18.4 0zM2004.3 3919.14 a9.2 9.2 0 1 0 18.4 0 a9.2 9.2 0 1 0 -18.4 0zM2163.66 4195.14 a9.2 9.2 0 1 0 18.4 0 a9.2 9.2 0 1 0 -18.4 0zM2243.33 4241.14 a9.2 9.2 0 1 0 18.4 0 a9.2 9.2 0 1 0 -18.4 0zM2243.33 4333.14 a9.2 9.2 0 1 0 18.4 0 a9.2 9.2 0 1 0 -18.4 0zM2163.66 4379.14 a9.2 9.2 0 1 0 18.4 0 a9.2 9.2 0 1 0 -18.4 0zM2163.66 4471.14 a9.2 9.2 0 1 0 18.4 0 a9.2 9.2 0 1 0 -18.4 0zM2243.33 4517.14 a9.2 9.2 0 1 0 18.4 0 a9.2 9.2 0 1 0 -18.4 0zM2243.33 4609.14 a9.2 9.2 0 1 0 18.4 0 a9.2 9.2 0 1 0 -18.4 0zM2163.66 4655.14 a9.2 9.2 0 1 0 18.4 0 a9.2 9.2 0 1 0 -18.4 0zM2243.33 193.14 a9.2 9.2 0 1 0 18.4 0 a9.2 9.2 0 1 0 -18.4 0zM2323.01 239.14 a9.2 9.2 0 1 0 18.4 0 a9.2 9.2 0 1 0 -18.4 0zM2323.01 331.14 a9.2 9.2 0 1 0 18.4 0 a9.2 9.2 0 1 0 -18.4 0zM2243.33 377.14 a9.2 9.2 0 1 0 18.4 0 a9.2 9.2 0 1 0 -18.4 0zM2323.01 791.14 a9.2 9.2 0 1 0 18.4 0 a9.2 9.2 0 1 0 -18.4 0zM2323.01 883.14 a9.2 9.2 0 1 0 18.4 0 a9.2 9.2 0 1 0 -18.4 0zM2243.33 929.14 a9.2 9.2 0 1 0 18.4 0 a9.2 9.2 0 1 0 -18.4 0zM2163.66 883.14 a9.2 9.2 0 1 0 18.4 0 a9.2 9.2 0 1 0 -18.4 0zM2323.01 1159.14 a9.2 9.2 0 1 0 18.4 0 a9.2 9.2 0 1 0 -18.4 0zM2402.69 1205.14 a9.2 9.2 0 1 0 18.4 0 a9.2 9.2 0 1 0 -18.4 0zM2402.69 1297.14 a9.2 9.2 0 1 0 18.4 0 a9.2 9.2 0 1 0 -18.4 0zM2323.01 1343.14 a9.2 9.2 0 1 0 18.4 0 a9.2 9.2 0 1 0 -18.4 0zM2243.33 1297.14 a9.2 9.2 0 1 0 18.4 0 a9.2 9.2 0 1 0 -18.4 0zM2243.33 1205.14 a9.2 9.2 0 1 0 18.4 0 a9.2 9.2 0 1 0 -18.4 0zM2323.01 1987.14 a9.2 9.2 0 1 0 18.4 0 a9.2 9.2 0 1 0 -18.4 0zM2402.69 2033.14 a9.2 9.2 0 1 0 18.4 0 a9.2 9.2 0 1 0 -18.4 0zM2402.69 2125.14 a9.2 9.2 0 1 0 18.4 0 a9.2 9.2 0 1 0 -18.4 0zM2323.01 2171.14 a9.2 9.2 0 1 0 18.4 0 a9.2 9.2 0 1 0 -18.4 0zM2243.33 2677.14 a9.2 9.2 0 1 0 18.4 0 a9.2 9.2 0 1 0 -18.4 0zM2323.01 2723.14 a9.2 9.2 0 1 0 18.4 0 a9.2 9.2 0 1 0 -18.4 0zM2323.01 2815.14 a9.2 9.2 0 1 0 18.4 0 a9.2 9.2 0 1 0 -18.4 0zM2243.33 2861.14 a9.2 9.2 0 1 0 18.4 0 a9.2 9.2 0 1 0 -18.4 0zM2163.66 2815.14 a9.2 9.2 0 1 0 18.4 0 a9.2 9.2 0 1 0 -18.4 0zM2163.66 2723.14 a9.2 9.2 0 1 0 18.4 0 a9.2 9.2 0 1 0 -18.4 0zM2243.33 2953.14 a9.2 9.2 0 1 0 18.4 0 a9.2 9.2 0 1 0 -18.4 0zM2323.01 2999.14 a9.2 9.2 0 1 0 18.4 0 a9.2 9.2 0 1 0 -18.4 0zM2323.01 3091.14 a9.2 9.2 0 1 0 18.4 0 a9.2 9.2 0 1 0 -18.4 0zM2243.33 3137.14 a9.2 9.2 0 1 0 18.4 0 a9.2 9.2 0 1 0 -18.4 0zM2163.66 3091.14 a9.2 9.2 0 1 0 18.4 0 a9.2 9.2 0 1 0 -18.4 0zM2163.66 2999.14 a9.2 9.2 0 1 0 18.4 0 a9.2 9.2 0 1 0 -18.4 0zM2243.33 3781.14 a9.2 9.2 0 1 0 18.4 0 a9.2 9.2 0 1 0 -18.4 0zM2323.01 3827.14 a9.2 9.2 0 1 0 18.4 0 a9.2 9.2 0 1 0 -18.4 0zM2323.01 3919.14 a9.2 9.2 0 1 0 18.4 0 a9.2 9.2 0 1 0 -18.4 0zM2243.33 3965.14 a9.2 9.2 0 1 0 18.4 0 a9.2 9.2 0 1 0 -18.4 0zM2402.69 3965.14 a9.2 9.2 0 1 0 18.4 0 a9.2 9.2 0 1 0 -18.4 0zM2402.69 4057.14 a9.2 9.2 0 1 0 18.4 0 a9.2 9.2 0 1 0 -18.4 0zM2323.01 4103.14 a9.2 9.2 0 1 0 18.4 0 a9.2 9.2 0 1 0 -18.4 0zM2243.33 4057.14 a9.2 9.2 0 1 0 18.4 0 a9.2 9.2 0 1 0 -18.4 0zM2323.01 4655.14 a9.2 9.2 0 1 0 18.4 0 a9.2 9.2 0 1 0 -18.4 0zM2323.01 4747.14 a9.2 9.2 0 1 0 18.4 0 a9.2 9.2 0 1 0 -18.4 0zM2243.33 4793.14 a9.2 9.2 0 1 0 18.4 0 a9.2 9.2 0 1 0 -18.4 0zM2163.66 4747.14 a9.2 9.2 0 1 0 18.4 0 a9.2 9.2 0 1 0 -18.4 0zM2243.33 4885.14 a9.2 9.2 0 1 0 18.4 0 a9.2 9.2 0 1 0 -18.4 0zM2323.01 4931.14 a9.2 9.2 0 1 0 18.4 0 a9.2 9.2 0 1 0 -18.4 0zM2323.01 5023.14 a9.2 9.2 0 1 0 18.4 0 a9.2 9.2 0 1 0 -18.4 0zM2243.33 5069.14 a9.2 9.2 0 1 0 18.4 0 a9.2 9.2 0 1 0 -18.4 0zM2163.66 5023.14 a9.2 9.2 0 1 0 18.4 0 a9.2 9.2 0 1 0 -18.4 0zM2163.66 4931.14 a9.2 9.2 0 1 0 18.4 0 a9.2 9.2 0 1 0 -18.4 0zM2482.36 55.14 a9.2 9.2 0 1 0 18.4 0 a9.2 9.2 0 1 0 -18.4 0zM2562.04 101.14 a9.2 9.2 0 1 0 18.4 0 a9.2 9.2 0 1 0 -18.4 0zM2562.04 193.14 a9.2 9.2 0 1 0 18.4 0 a9.2 9.2 0 1 0 -18.4 0zM2482.36 239.14 a9.2 9.2 0 1 0 18.4 0 a9.2 9.2 0 1 0 -18.4 0zM2402.69 193.14 a9.2 9.2 0 1 0 18.4 0 a9.2 9.2 0 1 0 -18.4 0zM2402.69 101.14 a9.2 9.2 0 1 0 18.4 0 a9.2 9.2 0 1 0 -18.4 0zM2482.36 331.14 a9.2 9.2 0 1 0 18.4 0 a9.2 9.2 0 1 0 -18.4 0zM2402.69 377.14 a9.2 9.2 0 1 0 18.4 0 a9.2 9.2 0 1 0 -18.4 0zM2562.04 377.14 a9.2 9.2 0 1 0 18.4 0 a9.2 9.2 0 1 0 -18.4 0zM2562.04 469.14 a9.2 9.2 0 1 0 18.4 0 a9.2 9.2 0 1 0 -18.4 0zM2482.36 515.14 a9.2 9.2 0 1 0 18.4 0 a9.2 9.2 0 1 0 -18.4 0zM2402.69 469.14 a9.2 9.2 0 1 0 18.4 0 a9.2 9.2 0 1 0 -18.4 0zM2482.36 607.14 a9.2 9.2 0 1 0 18.4 0 a9.2 9.2 0 1 0 -18.4 0zM2562.04 653.14 a9.2 9.2 0 1 0 18.4 0 a9.2 9.2 0 1 0 -18.4 0zM2562.04 745.14 a9.2 9.2 0 1 0 18.4 0 a9.2 9.2 0 1 0 -18.4 0zM2482.36 791.14 a9.2 9.2 0 1 0 18.4 0 a9.2 9.2 0 1 0 -18.4 0zM2402.69 745.14 a9.2 9.2 0 1 0 18.4 0 a9.2 9.2 0 1 0 -18.4 0zM2402.69 653.14 a9.2 9.2 0 1 0 18.4 0 a9.2 9.2 0 1 0 -18.4 0zM2482.36 883.14 a9.2 9.2 0 1 0 18.4 0 a9.2 9.2 0 1 0 -18.4 0zM2402.69 929.14 a9.2 9.2 0 1 0 18.4 0 a9.2 9.2 0 1 0 -18.4 0zM2482.36 1711.14 a9.2 9.2 0 1 0 18.4 0 a9.2 9.2 0 1 0 -18.4 0zM2562.04 1757.14 a9.2 9.2 0 1 0 18.4 0 a9.2 9.2 0 1 0 -18.4 0zM2562.04 1849.14 a9.2 9.2 0 1 0 18.4 0 a9.2 9.2 0 1 0 -18.4 0zM2482.36 1895.14 a9.2 9.2 0 1 0 18.4 0 a9.2 9.2 0 1 0 -18.4 0zM2402.69 1849.14 a9.2 9.2 0 1 0 18.4 0 a9.2 9.2 0 1 0 -18.4 0zM2402.69 1757.14 a9.2 9.2 0 1 0 18.4 0 a9.2 9.2 0 1 0 -18.4 0zM2402.69 2953.14 a9.2 9.2 0 1 0 18.4 0 a9.2 9.2 0 1 0 -18.4 0zM2482.36 2999.14 a9.2 9.2 0 1 0 18.4 0 a9.2 9.2 0 1 0 -18.4 0zM2482.36 3091.14 a9.2 9.2 0 1 0 18.4 0 a9.2 9.2 0 1 0 -18.4 0zM2402.69 3137.14 a9.2 9.2 0 1 0 18.4 0 a9.2 9.2 0 1 0 -18.4 0zM2482.36 3367.14 a9.2 9.2 0 1 0 18.4 0 a9.2 9.2 0 1 0 -18.4 0zM2562.04 3413.14 a9.2 9.2 0 1 0 18.4 0 a9.2 9.2 0 1 0 -18.4 0zM2562.04 3505.14 a9.2 9.2 0 1 0 18.4 0 a9.2 9.2 0 1 0 -18.4 0zM2482.36 3551.14 a9.2 9.2 0 1 0 18.4 0 a9.2 9.2 0 1 0 -18.4 0zM2402.69 3505.14 a9.2 9.2 0 1 0 18.4 0 a9.2 9.2 0 1 0 -18.4 0zM2402.69 3413.14 a9.2 9.2 0 1 0 18.4 0 a9.2 9.2 0 1 0 -18.4 0zM2482.36 3643.14 a9.2 9.2 0 1 0 18.4 0 a9.2 9.2 0 1 0 -18.4 0zM2562.04 3689.14 a9.2 9.2 0 1 0 18.4 0 a9.2 9.2 0 1 0 -18.4 0zM2562.04 3781.14 a9.2 9.2 0 1 0 18.4 0 a9.2 9.2 0 1 0 -18.4 0zM2482.36 3827.14 a9.2 9.2 0 1 0 18.4 0 a9.2 9.2 0 1 0 -18.4 0zM2402.69 3781.14 a9.2 9.2 0 1 0 18.4 0 a9.2 9.2 0 1 0 -18.4 0zM2402.69 3689.14 a9.2 9.2 0 1 0 18.4 0 a9.2 9.2 0 1 0 -18.4 0zM2482.36 4471.14 a9.2 9.2 0 1 0 18.4 0 a9.2 9.2 0 1 0 -18.4 0zM2562.04 4517.14 a9.2 9.2 0 1 0 18.4 0 a9.2 9.2 0 1 0 -18.4 0zM2562.04 4609.14 a9.2 9.2 0 1 0 18.4 0 a9.2 9.2 0 1 0 -18.4 0zM2482.36 4655.14 a9.2 9.2 0 1 0 18.4 0 a9.2 9.2 0 1 0 -18.4 0zM2402.69 4609.14 a9.2 9.2 0 1 0 18.4 0 a9.2 9.2 0 1 0 -18.4 0zM2402.69 4517.14 a9.2 9.2 0 1 0 18.4 0 a9.2 9.2 0 1 0 -18.4 0zM2482.36 4747.14 a9.2 9.2 0 1 0 18.4 0 a9.2 9.2 0 1 0 -18.4 0zM2562.04 4793.14 a9.2 9.2 0 1 0 18.4 0 a9.2 9.2 0 1 0 -18.4 0zM2562.04 4885.14 a9.2 9.2 0 1 0 18.4 0 a9.2 9.2 0 1 0 -18.4 0zM2482.36 4931.14 a9.2 9.2 0 1 0 18.4 0 a9.2 9.2 0 1 0 -18.4 0zM2402.69 4885.14 a9.2 9.2 0 1 0 18.4 0 a9.2 9.2 0 1 0 -18.4 0zM2402.69 4793.14 a9.2 9.2 0 1 0 18.4 0 a9.2 9.2 0 1 0 -18.4 0zM2562.04 -82.86 a9.2 9.2 0 1 0 18.4 0 a9.2 9.2 0 1 0 -18.4 0zM2641.72 -36.86 a9.2 9.2 0 1 0 18.4 0 a9.2 9.2 0 1 0 -18.4 0zM2641.72 55.14 a9.2 9.2 0 1 0 18.4 0 a9.2 9.2 0 1 0 -18.4 0zM2482.36 -36.86 a9.2 9.2 0 1 0 18.4 0 a9.2 9.2 0 1 0 -18.4 0zM2721.39 101.14 a9.2 9.2 0 1 0 18.4 0 a9.2 9.2 0 1 0 -18.4 0zM2721.39 193.14 a9.2 9.2 0 1 0 18.4 0 a9.2 9.2 0 1 0 -18.4 0zM2641.72 239.14 a9.2 9.2 0 1 0 18.4 0 a9.2 9.2 0 1 0 -18.4 0zM2641.72 331.14 a9.2 9.2 0 1 0 18.4 0 a9.2 9.2 0 1 0 -18.4 0zM2721.39 377.14 a9.2 9.2 0 1 0 18.4 0 a9.2 9.2 0 1 0 -18.4 0zM2721.39 469.14 a9.2 9.2 0 1 0 18.4 0 a9.2 9.2 0 1 0 -18.4 0zM2641.72 515.14 a9.2 9.2 0 1 0 18.4 0 a9.2 9.2 0 1 0 -18.4 0zM2641.72 607.14 a9.2 9.2 0 1 0 18.4 0 a9.2 9.2 0 1 0 -18.4 0zM2562.04 1021.14 a9.2 9.2 0 1 0 18.4 0 a9.2 9.2 0 1 0 -18.4 0zM2641.72 1067.14 a9.2 9.2 0 1 0 18.4 0 a9.2 9.2 0 1 0 -18.4 0zM2641.72 1159.14 a9.2 9.2 0 1 0 18.4 0 a9.2 9.2 0 1 0 -18.4 0zM2562.04 1205.14 a9.2 9.2 0 1 0 18.4 0 a9.2 9.2 0 1 0 -18.4 0zM2482.36 1159.14 a9.2 9.2 0 1 0 18.4 0 a9.2 9.2 0 1 0 -18.4 0zM2482.36 1067.14 a9.2 9.2 0 1 0 18.4 0 a9.2 9.2 0 1 0 -18.4 0zM2562.04 1573.14 a9.2 9.2 0 1 0 18.4 0 a9.2 9.2 0 1 0 -18.4 0zM2641.72 1619.14 a9.2 9.2 0 1 0 18.4 0 a9.2 9.2 0 1 0 -18.4 0zM2641.72 1711.14 a9.2 9.2 0 1 0 18.4 0 a9.2 9.2 0 1 0 -18.4 0zM2482.36 1619.14 a9.2 9.2 0 1 0 18.4 0 a9.2 9.2 0 1 0 -18.4 0zM2721.39 1757.14 a9.2 9.2 0 1 0 18.4 0 a9.2 9.2 0 1 0 -18.4 0zM2721.39 1849.14 a9.2 9.2 0 1 0 18.4 0 a9.2 9.2 0 1 0 -18.4 0zM2641.72 1895.14 a9.2 9.2 0 1 0 18.4 0 a9.2 9.2 0 1 0 -18.4 0zM2641.72 1987.14 a9.2 9.2 0 1 0 18.4 0 a9.2 9.2 0 1 0 -18.4 0zM2562.04 2033.14 a9.2 9.2 0 1 0 18.4 0 a9.2 9.2 0 1 0 -18.4 0zM2482.36 1987.14 a9.2 9.2 0 1 0 18.4 0 a9.2 9.2 0 1 0 -18.4 0zM2641.72 2263.14 a9.2 9.2 0 1 0 18.4 0 a9.2 9.2 0 1 0 -18.4 0zM2721.39 2309.14 a9.2 9.2 0 1 0 18.4 0 a9.2 9.2 0 1 0 -18.4 0zM2721.39 2401.14 a9.2 9.2 0 1 0 18.4 0 a9.2 9.2 0 1 0 -18.4 0zM2641.72 2447.14 a9.2 9.2 0 1 0 18.4 0 a9.2 9.2 0 1 0 -18.4 0zM2562.04 2401.14 a9.2 9.2 0 1 0 18.4 0 a9.2 9.2 0 1 0 -18.4 0zM2562.04 2309.14 a9.2 9.2 0 1 0 18.4 0 a9.2 9.2 0 1 0 -18.4 0zM2641.72 2539.14 a9.2 9.2 0 1 0 18.4 0 a9.2 9.2 0 1 0 -18.4 0zM2562.04 2585.14 a9.2 9.2 0 1 0 18.4 0 a9.2 9.2 0 1 0 -18.4 0zM2482.36 2539.14 a9.2 9.2 0 1 0 18.4 0 a9.2 9.2 0 1 0 -18.4 0zM2482.36 2447.14 a9.2 9.2 0 1 0 18.4 0 a9.2 9.2 0 1 0 -18.4 0zM2562.04 2677.14 a9.2 9.2 0 1 0 18.4 0 a9.2 9.2 0 1 0 -18.4 0zM2641.72 2723.14 a9.2 9.2 0 1 0 18.4 0 a9.2 9.2 0 1 0 -18.4 0zM2641.72 2815.14 a9.2 9.2 0 1 0 18.4 0 a9.2 9.2 0 1 0 -18.4 0zM2562.04 2861.14 a9.2 9.2 0 1 0 18.4 0 a9.2 9.2 0 1 0 -18.4 0zM2482.36 2815.14 a9.2 9.2 0 1 0 18.4 0 a9.2 9.2 0 1 0 -18.4 0zM2482.36 2723.14 a9.2 9.2 0 1 0 18.4 0 a9.2 9.2 0 1 0 -18.4 0zM2562.04 2953.14 a9.2 9.2 0 1 0 18.4 0 a9.2 9.2 0 1 0 -18.4 0zM2641.72 2999.14 a9.2 9.2 0 1 0 18.4 0 a9.2 9.2 0 1 0 -18.4 0zM2641.72 3091.14 a9.2 9.2 0 1 0 18.4 0 a9.2 9.2 0 1 0 -18.4 0zM2562.04 3137.14 a9.2 9.2 0 1 0 18.4 0 a9.2 9.2 0 1 0 -18.4 0zM2641.72 3367.14 a9.2 9.2 0 1 0 18.4 0 a9.2 9.2 0 1 0 -18.4 0zM2721.39 3413.14 a9.2 9.2 0 1 0 18.4 0 a9.2 9.2 0 1 0 -18.4 0zM2721.39 3505.14 a9.2 9.2 0 1 0 18.4 0 a9.2 9.2 0 1 0 -18.4 0zM2641.72 3551.14 a9.2 9.2 0 1 0 18.4 0 a9.2 9.2 0 1 0 -18.4 0z" fill="url(&quot;#SvgjsLinearGradient2098&quot;)"></path><path d="M62.78 -14.9L223 77.6L223 262.6L62.78 355.1L-97.44 262.6L-97.44 77.6zM223 262.6L383.22 355.1L383.22 540.1L223 632.6L62.78 540.1L62.78 355.1zM223 817.6L383.22 910.1L383.22 1095.1L223 1187.6L62.78 1095.1L62.78 910.1zM223 1372.6L383.22 1465.1L383.22 1650.1L223 1742.6L62.78 1650.1L62.78 1465.1zM62.78 1650.1L223 1742.6L223 1927.6L62.78 2020.1L-97.44 1927.6L-97.44 1742.6zM223 1927.6L383.22 2020.1L383.22 2205.1L223 2297.6L62.78 2205.1L62.78 2020.1zM62.78 4425.1L223 4517.6L223 4702.6L62.78 4795.1L-97.44 4702.6L-97.44 4517.6zM223 4702.6L383.22 4795.1L383.22 4980.1L223 5072.6L62.78 4980.1L62.78 4795.1zM383.22 540.1L543.44 632.6L543.44 817.6L383.22 910.1L223 817.6L223 632.6zM543.44 1372.6L703.66 1465.1L703.66 1650.1L543.44 1742.6L383.22 1650.1L383.22 1465.1zM543.44 1927.6L703.66 2020.1L703.66 2205.1L543.44 2297.6L383.22 2205.1L383.22 2020.1zM383.22 3870.1L543.44 3962.6L543.44 4147.6L383.22 4240.1L223 4147.6L223 3962.6zM703.66 -14.9L863.88 77.6L863.88 262.6L703.66 355.1L543.44 262.6L543.44 77.6zM863.88 262.6L1024.1 355.1L1024.1 540.1L863.88 632.6L703.66 540.1L703.66 355.1zM863.88 817.6L1024.1 910.1L1024.1 1095.1L863.88 1187.6L703.66 1095.1L703.66 910.1zM703.66 1095.1L863.88 1187.6L863.88 1372.6L703.66 1465.1L543.44 1372.6L543.44 1187.6zM703.66 1650.1L863.88 1742.6L863.88 1927.6L703.66 2020.1L543.44 1927.6L543.44 1742.6zM703.66 3315.1L863.88 3407.6L863.88 3592.6L703.66 3685.1L543.44 3592.6L543.44 3407.6zM703.66 3870.1L863.88 3962.6L863.88 4147.6L703.66 4240.1L543.44 4147.6L543.44 3962.6zM703.66 4425.1L863.88 4517.6L863.88 4702.6L703.66 4795.1L543.44 4702.6L543.44 4517.6zM863.88 4702.6L1024.1 4795.1L1024.1 4980.1L863.88 5072.6L703.66 4980.1L703.66 4795.1zM1024.1 -14.9L1184.31 77.6L1184.31 262.6L1024.1 355.1L863.88 262.6L863.88 77.6zM1184.31 1927.6L1344.53 2020.1L1344.53 2205.1L1184.31 2297.6L1024.1 2205.1L1024.1 2020.1zM1024.1 2205.1L1184.31 2297.6L1184.31 2482.6L1024.1 2575.1L863.88 2482.6L863.88 2297.6zM1184.31 2482.6L1344.53 2575.1L1344.53 2760.1L1184.31 2852.6L1024.1 2760.1L1024.1 2575.1zM1024.1 3315.1L1184.31 3407.6L1184.31 3592.6L1024.1 3685.1L863.88 3592.6L863.88 3407.6zM1024.1 3870.1L1184.31 3962.6L1184.31 4147.6L1024.1 4240.1L863.88 4147.6L863.88 3962.6zM1184.31 4702.6L1344.53 4795.1L1344.53 4980.1L1184.31 5072.6L1024.1 4980.1L1024.1 4795.1zM1344.53 540.1L1504.75 632.6L1504.75 817.6L1344.53 910.1L1184.31 817.6L1184.31 632.6zM1344.53 1095.1L1504.75 1187.6L1504.75 1372.6L1344.53 1465.1L1184.31 1372.6L1184.31 1187.6zM1504.75 1372.6L1664.97 1465.1L1664.97 1650.1L1504.75 1742.6L1344.53 1650.1L1344.53 1465.1zM1504.75 2482.6L1664.97 2575.1L1664.97 2760.1L1504.75 2852.6L1344.53 2760.1L1344.53 2575.1zM1344.53 4980.1L1504.75 5072.6L1504.75 5257.6L1344.53 5350.1L1184.31 5257.6L1184.31 5072.6zM1664.97 -14.9L1825.19 77.6L1825.19 262.6L1664.97 355.1L1504.75 262.6L1504.75 77.6zM1825.19 262.6L1985.41 355.1L1985.41 540.1L1825.19 632.6L1664.97 540.1L1664.97 355.1zM1825.19 817.6L1985.41 910.1L1985.41 1095.1L1825.19 1187.6L1664.97 1095.1L1664.97 910.1zM1825.19 1372.6L1985.41 1465.1L1985.41 1650.1L1825.19 1742.6L1664.97 1650.1L1664.97 1465.1zM1664.97 3315.1L1825.19 3407.6L1825.19 3592.6L1664.97 3685.1L1504.75 3592.6L1504.75 3407.6zM1664.97 3870.1L1825.19 3962.6L1825.19 4147.6L1664.97 4240.1L1504.75 4147.6L1504.75 3962.6zM1664.97 4425.1L1825.19 4517.6L1825.19 4702.6L1664.97 4795.1L1504.75 4702.6L1504.75 4517.6zM1825.19 4702.6L1985.41 4795.1L1985.41 4980.1L1825.19 5072.6L1664.97 4980.1L1664.97 4795.1zM1985.41 540.1L2145.63 632.6L2145.63 817.6L1985.41 910.1L1825.19 817.6L1825.19 632.6zM2145.63 817.6L2305.85 910.1L2305.85 1095.1L2145.63 1187.6L1985.41 1095.1L1985.41 910.1zM1985.41 1650.1L2145.63 1742.6L2145.63 1927.6L1985.41 2020.1L1825.19 1927.6L1825.19 1742.6zM2145.63 1927.6L2305.85 2020.1L2305.85 2205.1L2145.63 2297.6L1985.41 2205.1L1985.41 2020.1zM1985.41 3870.1L2145.63 3962.6L2145.63 4147.6L1985.41 4240.1L1825.19 4147.6L1825.19 3962.6zM1985.41 4980.1L2145.63 5072.6L2145.63 5257.6L1985.41 5350.1L1825.19 5257.6L1825.19 5072.6zM2466.07 1372.6L2626.29 1465.1L2626.29 1650.1L2466.07 1742.6L2305.85 1650.1L2305.85 1465.1zM2305.85 2205.1L2466.07 2297.6L2466.07 2482.6L2305.85 2575.1L2145.63 2482.6L2145.63 2297.6zM2466.07 2482.6L2626.29 2575.1L2626.29 2760.1L2466.07 2852.6L2305.85 2760.1L2305.85 2575.1z" stroke="rgba(10, 121, 140, 1)" stroke-width="2"></path></g><defs><mask id="SvgjsMask2096"><rect width="2560" height="5000" fill="#ffffff"></rect></mask><linearGradient x1="-23.83%" y1="12.2%" x2="123.83%" y2="87.8%" gradientUnits="userSpaceOnUse" id="SvgjsLinearGradient2097"><stop stop-color="rgba(0, 31, 60, 1)" offset="0"></stop><stop stop-color="rgba(8, 107, 125, 1)" offset="1"></stop></linearGradient><linearGradient x1="-610.048" y1="610" x2="3170.048" y2="4390" gradientUnits="userSpaceOnUse" id="SvgjsLinearGradient2098"><stop stop-color="rgba(3, 54, 64, 1)" offset="0"></stop><stop stop-color="rgba(9, 91, 106, 1)" offset="1"></stop></linearGradient></defs></svg>