<svg xmlns="http://www.w3.org/2000/svg" version="1.1" xmlns:xlink="http://www.w3.org/1999/xlink" xmlns:svgjs="http://svgjs.dev/svgjs" width="1920" height="1200" preserveAspectRatio="none" viewBox="0 0 1920 1200"><g mask="url(&quot;#SvgjsMask1468&quot;)" fill="none"><rect width="1920" height="1200" x="0" y="0" fill="url(&quot;#SvgjsLinearGradient1469&quot;)"></rect><path d="M10.37 -11.39L75.32 26.11L75.32 101.11L10.37 138.61L-54.58 101.11L-54.58 26.11zM10.37 213.61L75.32 251.11L75.32 326.11L10.37 363.61L-54.58 326.11L-54.58 251.11zM75.32 326.11L140.28 363.61L140.28 438.61L75.32 476.11L10.37 438.61L10.37 363.61zM10.37 438.61L75.32 476.11L75.32 551.11L10.37 588.61L-54.58 551.11L-54.58 476.11zM75.32 776.11L140.28 813.61L140.28 888.61L75.32 926.11L10.37 888.61L10.37 813.61zM75.32 1001.11L140.28 1038.61L140.28 1113.61L75.32 1151.11L10.37 1113.61L10.37 1038.61zM205.23 101.11L270.19 138.61L270.19 213.61L205.23 251.11L140.28 213.61L140.28 138.61zM140.28 213.61L205.23 251.11L205.23 326.11L140.28 363.61L75.32 326.11L75.32 251.11zM205.23 326.11L270.19 363.61L270.19 438.61L205.23 476.11L140.28 438.61L140.28 363.61zM140.28 438.61L205.23 476.11L205.23 551.11L140.28 588.61L75.32 551.11L75.32 476.11zM205.23 1001.11L270.19 1038.61L270.19 1113.61L205.23 1151.11L140.28 1113.61L140.28 1038.61zM140.28 1113.61L205.23 1151.11L205.23 1226.11L140.28 1263.61L75.32 1226.11L75.32 1151.11zM205.23 1226.11L270.19 1263.61L270.19 1338.61L205.23 1376.11L140.28 1338.61L140.28 1263.61zM270.19 213.61L335.14 251.11L335.14 326.11L270.19 363.61L205.23 326.11L205.23 251.11zM335.14 326.11L400.09 363.61L400.09 438.61L335.14 476.11L270.19 438.61L270.19 363.61zM335.14 776.11L400.09 813.61L400.09 888.61L335.14 926.11L270.19 888.61L270.19 813.61zM270.19 888.61L335.14 926.11L335.14 1001.11L270.19 1038.61L205.23 1001.11L205.23 926.11zM335.14 1001.11L400.09 1038.61L400.09 1113.61L335.14 1151.11L270.19 1113.61L270.19 1038.61zM335.14 1226.11L400.09 1263.61L400.09 1338.61L335.14 1376.11L270.19 1338.61L270.19 1263.61zM465.05 551.11L530 588.61L530 663.61L465.05 701.11L400.09 663.61L400.09 588.61zM400.09 888.61L465.05 926.11L465.05 1001.11L400.09 1038.61L335.14 1001.11L335.14 926.11zM530 -11.39L594.95 26.11L594.95 101.11L530 138.61L465.05 101.11L465.05 26.11zM530 438.61L594.95 476.11L594.95 551.11L530 588.61L465.05 551.11L465.05 476.11zM530 888.61L594.95 926.11L594.95 1001.11L530 1038.61L465.05 1001.11L465.05 926.11zM594.95 1001.11L659.91 1038.61L659.91 1113.61L594.95 1151.11L530 1113.61L530 1038.61zM594.95 1226.11L659.91 1263.61L659.91 1338.61L594.95 1376.11L530 1338.61L530 1263.61zM659.91 438.61L724.86 476.11L724.86 551.11L659.91 588.61L594.95 551.11L594.95 476.11zM724.86 1001.11L789.82 1038.61L789.82 1113.61L724.86 1151.11L659.91 1113.61L659.91 1038.61zM659.91 1113.61L724.86 1151.11L724.86 1226.11L659.91 1263.61L594.95 1226.11L594.95 1151.11zM724.86 1226.11L789.82 1263.61L789.82 1338.61L724.86 1376.11L659.91 1338.61L659.91 1263.61zM789.81 438.61L854.77 476.11L854.77 551.11L789.81 588.61L724.86 551.11L724.86 476.11zM854.77 776.11L919.72 813.61L919.72 888.61L854.77 926.11L789.81 888.61L789.81 813.61zM789.81 888.61L854.77 926.11L854.77 1001.11L789.81 1038.61L724.86 1001.11L724.86 926.11zM789.81 1113.61L854.77 1151.11L854.77 1226.11L789.81 1263.61L724.86 1226.11L724.86 1151.11zM984.68 101.11L1049.63 138.61L1049.63 213.61L984.68 251.11L919.72 213.61L919.72 138.61zM919.72 213.61L984.68 251.11L984.68 326.11L919.72 363.61L854.77 326.11L854.77 251.11zM984.68 326.11L1049.63 363.61L1049.63 438.61L984.68 476.11L919.72 438.61L919.72 363.61zM919.72 438.61L984.68 476.11L984.68 551.11L919.72 588.61L854.77 551.11L854.77 476.11zM919.72 888.61L984.68 926.11L984.68 1001.11L919.72 1038.61L854.77 1001.11L854.77 926.11zM984.68 1001.11L1049.63 1038.61L1049.63 1113.61L984.68 1151.11L919.72 1113.61L919.72 1038.61zM1114.58 776.11L1179.54 813.61L1179.54 888.61L1114.58 926.11L1049.63 888.61L1049.63 813.61zM1244.49 101.11L1309.44 138.61L1309.44 213.61L1244.49 251.11L1179.54 213.61L1179.54 138.61zM1179.54 213.61L1244.49 251.11L1244.49 326.11L1179.54 363.61L1114.58 326.11L1114.58 251.11zM1179.54 663.61L1244.49 701.11L1244.49 776.11L1179.54 813.61L1114.58 776.11L1114.58 701.11zM1244.49 776.11L1309.44 813.61L1309.44 888.61L1244.49 926.11L1179.54 888.61L1179.54 813.61zM1244.49 1226.11L1309.44 1263.61L1309.44 1338.61L1244.49 1376.11L1179.54 1338.61L1179.54 1263.61zM1309.44 -11.39L1374.4 26.11L1374.4 101.11L1309.44 138.61L1244.49 101.11L1244.49 26.11zM1309.44 213.61L1374.4 251.11L1374.4 326.11L1309.44 363.61L1244.49 326.11L1244.49 251.11zM1374.4 551.11L1439.35 588.61L1439.35 663.61L1374.4 701.11L1309.44 663.61L1309.44 588.61zM1374.4 776.11L1439.35 813.61L1439.35 888.61L1374.4 926.11L1309.44 888.61L1309.44 813.61zM1439.35 213.61L1504.31 251.11L1504.31 326.11L1439.35 363.61L1374.4 326.11L1374.4 251.11zM1504.31 551.11L1569.26 588.61L1569.26 663.61L1504.31 701.11L1439.35 663.61L1439.35 588.61zM1504.31 776.11L1569.26 813.61L1569.26 888.61L1504.31 926.11L1439.35 888.61L1439.35 813.61zM1439.35 888.61L1504.31 926.11L1504.31 1001.11L1439.35 1038.61L1374.4 1001.11L1374.4 926.11zM1569.26 438.61L1634.21 476.11L1634.21 551.11L1569.26 588.61L1504.31 551.11L1504.31 476.11zM1569.26 888.61L1634.21 926.11L1634.21 1001.11L1569.26 1038.61L1504.31 1001.11L1504.31 926.11zM1764.12 101.11L1829.07 138.61L1829.07 213.61L1764.12 251.11L1699.17 213.61L1699.17 138.61zM1699.17 213.61L1764.12 251.11L1764.12 326.11L1699.17 363.61L1634.21 326.11L1634.21 251.11zM1764.12 326.11L1829.07 363.61L1829.07 438.61L1764.12 476.11L1699.17 438.61L1699.17 363.61zM1699.17 438.61L1764.12 476.11L1764.12 551.11L1699.17 588.61L1634.21 551.11L1634.21 476.11zM1764.12 1226.11L1829.07 1263.61L1829.07 1338.61L1764.12 1376.11L1699.17 1338.61L1699.17 1263.61zM1829.07 213.61L1894.03 251.11L1894.03 326.11L1829.07 363.61L1764.12 326.11L1764.12 251.11zM1894.03 326.11L1958.98 363.61L1958.98 438.61L1894.03 476.11L1829.07 438.61L1829.07 363.61zM1829.07 438.61L1894.03 476.11L1894.03 551.11L1829.07 588.61L1764.12 551.11L1764.12 476.11zM1894.03 1226.11L1958.98 1263.61L1958.98 1338.61L1894.03 1376.11L1829.07 1338.61L1829.07 1263.61z" stroke="#03305d" stroke-width="2"></path><path d="M2.87 -11.39 a7.5 7.5 0 1 0 15 0 a7.5 7.5 0 1 0 -15 0zM67.82 26.11 a7.5 7.5 0 1 0 15 0 a7.5 7.5 0 1 0 -15 0zM67.82 101.11 a7.5 7.5 0 1 0 15 0 a7.5 7.5 0 1 0 -15 0zM2.87 138.61 a7.5 7.5 0 1 0 15 0 a7.5 7.5 0 1 0 -15 0zM-62.08 101.11 a7.5 7.5 0 1 0 15 0 a7.5 7.5 0 1 0 -15 0zM-62.08 26.11 a7.5 7.5 0 1 0 15 0 a7.5 7.5 0 1 0 -15 0zM2.87 213.61 a7.5 7.5 0 1 0 15 0 a7.5 7.5 0 1 0 -15 0zM67.82 251.11 a7.5 7.5 0 1 0 15 0 a7.5 7.5 0 1 0 -15 0zM67.82 326.11 a7.5 7.5 0 1 0 15 0 a7.5 7.5 0 1 0 -15 0zM2.87 363.61 a7.5 7.5 0 1 0 15 0 a7.5 7.5 0 1 0 -15 0zM-62.08 326.11 a7.5 7.5 0 1 0 15 0 a7.5 7.5 0 1 0 -15 0zM-62.08 251.11 a7.5 7.5 0 1 0 15 0 a7.5 7.5 0 1 0 -15 0zM132.78 363.61 a7.5 7.5 0 1 0 15 0 a7.5 7.5 0 1 0 -15 0zM132.78 438.61 a7.5 7.5 0 1 0 15 0 a7.5 7.5 0 1 0 -15 0zM67.82 476.11 a7.5 7.5 0 1 0 15 0 a7.5 7.5 0 1 0 -15 0zM2.87 438.61 a7.5 7.5 0 1 0 15 0 a7.5 7.5 0 1 0 -15 0zM67.82 551.11 a7.5 7.5 0 1 0 15 0 a7.5 7.5 0 1 0 -15 0zM2.87 588.61 a7.5 7.5 0 1 0 15 0 a7.5 7.5 0 1 0 -15 0zM-62.08 551.11 a7.5 7.5 0 1 0 15 0 a7.5 7.5 0 1 0 -15 0zM-62.08 476.11 a7.5 7.5 0 1 0 15 0 a7.5 7.5 0 1 0 -15 0zM67.82 776.11 a7.5 7.5 0 1 0 15 0 a7.5 7.5 0 1 0 -15 0zM132.78 813.61 a7.5 7.5 0 1 0 15 0 a7.5 7.5 0 1 0 -15 0zM132.78 888.61 a7.5 7.5 0 1 0 15 0 a7.5 7.5 0 1 0 -15 0zM67.82 926.11 a7.5 7.5 0 1 0 15 0 a7.5 7.5 0 1 0 -15 0zM2.87 888.61 a7.5 7.5 0 1 0 15 0 a7.5 7.5 0 1 0 -15 0zM2.87 813.61 a7.5 7.5 0 1 0 15 0 a7.5 7.5 0 1 0 -15 0zM67.82 1001.11 a7.5 7.5 0 1 0 15 0 a7.5 7.5 0 1 0 -15 0zM132.78 1038.61 a7.5 7.5 0 1 0 15 0 a7.5 7.5 0 1 0 -15 0zM132.78 1113.61 a7.5 7.5 0 1 0 15 0 a7.5 7.5 0 1 0 -15 0zM67.82 1151.11 a7.5 7.5 0 1 0 15 0 a7.5 7.5 0 1 0 -15 0zM2.87 1113.61 a7.5 7.5 0 1 0 15 0 a7.5 7.5 0 1 0 -15 0zM2.87 1038.61 a7.5 7.5 0 1 0 15 0 a7.5 7.5 0 1 0 -15 0zM197.73 101.11 a7.5 7.5 0 1 0 15 0 a7.5 7.5 0 1 0 -15 0zM262.69 138.61 a7.5 7.5 0 1 0 15 0 a7.5 7.5 0 1 0 -15 0zM262.69 213.61 a7.5 7.5 0 1 0 15 0 a7.5 7.5 0 1 0 -15 0zM197.73 251.11 a7.5 7.5 0 1 0 15 0 a7.5 7.5 0 1 0 -15 0zM132.78 213.61 a7.5 7.5 0 1 0 15 0 a7.5 7.5 0 1 0 -15 0zM132.78 138.61 a7.5 7.5 0 1 0 15 0 a7.5 7.5 0 1 0 -15 0zM197.73 326.11 a7.5 7.5 0 1 0 15 0 a7.5 7.5 0 1 0 -15 0zM262.69 363.61 a7.5 7.5 0 1 0 15 0 a7.5 7.5 0 1 0 -15 0zM262.69 438.61 a7.5 7.5 0 1 0 15 0 a7.5 7.5 0 1 0 -15 0zM197.73 476.11 a7.5 7.5 0 1 0 15 0 a7.5 7.5 0 1 0 -15 0zM197.73 551.11 a7.5 7.5 0 1 0 15 0 a7.5 7.5 0 1 0 -15 0zM132.78 588.61 a7.5 7.5 0 1 0 15 0 a7.5 7.5 0 1 0 -15 0zM197.73 1001.11 a7.5 7.5 0 1 0 15 0 a7.5 7.5 0 1 0 -15 0zM262.69 1038.61 a7.5 7.5 0 1 0 15 0 a7.5 7.5 0 1 0 -15 0zM262.69 1113.61 a7.5 7.5 0 1 0 15 0 a7.5 7.5 0 1 0 -15 0zM197.73 1151.11 a7.5 7.5 0 1 0 15 0 a7.5 7.5 0 1 0 -15 0zM197.73 1226.11 a7.5 7.5 0 1 0 15 0 a7.5 7.5 0 1 0 -15 0zM132.78 1263.61 a7.5 7.5 0 1 0 15 0 a7.5 7.5 0 1 0 -15 0zM67.82 1226.11 a7.5 7.5 0 1 0 15 0 a7.5 7.5 0 1 0 -15 0zM262.69 1263.61 a7.5 7.5 0 1 0 15 0 a7.5 7.5 0 1 0 -15 0zM262.69 1338.61 a7.5 7.5 0 1 0 15 0 a7.5 7.5 0 1 0 -15 0zM197.73 1376.11 a7.5 7.5 0 1 0 15 0 a7.5 7.5 0 1 0 -15 0zM132.78 1338.61 a7.5 7.5 0 1 0 15 0 a7.5 7.5 0 1 0 -15 0zM327.64 251.11 a7.5 7.5 0 1 0 15 0 a7.5 7.5 0 1 0 -15 0zM327.64 326.11 a7.5 7.5 0 1 0 15 0 a7.5 7.5 0 1 0 -15 0zM392.59 363.61 a7.5 7.5 0 1 0 15 0 a7.5 7.5 0 1 0 -15 0zM392.59 438.61 a7.5 7.5 0 1 0 15 0 a7.5 7.5 0 1 0 -15 0zM327.64 476.11 a7.5 7.5 0 1 0 15 0 a7.5 7.5 0 1 0 -15 0zM327.64 776.11 a7.5 7.5 0 1 0 15 0 a7.5 7.5 0 1 0 -15 0zM392.59 813.61 a7.5 7.5 0 1 0 15 0 a7.5 7.5 0 1 0 -15 0zM392.59 888.61 a7.5 7.5 0 1 0 15 0 a7.5 7.5 0 1 0 -15 0zM327.64 926.11 a7.5 7.5 0 1 0 15 0 a7.5 7.5 0 1 0 -15 0zM262.69 888.61 a7.5 7.5 0 1 0 15 0 a7.5 7.5 0 1 0 -15 0zM262.69 813.61 a7.5 7.5 0 1 0 15 0 a7.5 7.5 0 1 0 -15 0zM327.64 1001.11 a7.5 7.5 0 1 0 15 0 a7.5 7.5 0 1 0 -15 0zM197.73 926.11 a7.5 7.5 0 1 0 15 0 a7.5 7.5 0 1 0 -15 0zM392.59 1038.61 a7.5 7.5 0 1 0 15 0 a7.5 7.5 0 1 0 -15 0zM392.59 1113.61 a7.5 7.5 0 1 0 15 0 a7.5 7.5 0 1 0 -15 0zM327.64 1151.11 a7.5 7.5 0 1 0 15 0 a7.5 7.5 0 1 0 -15 0zM327.64 1226.11 a7.5 7.5 0 1 0 15 0 a7.5 7.5 0 1 0 -15 0zM392.59 1263.61 a7.5 7.5 0 1 0 15 0 a7.5 7.5 0 1 0 -15 0zM392.59 1338.61 a7.5 7.5 0 1 0 15 0 a7.5 7.5 0 1 0 -15 0zM327.64 1376.11 a7.5 7.5 0 1 0 15 0 a7.5 7.5 0 1 0 -15 0zM457.55 551.11 a7.5 7.5 0 1 0 15 0 a7.5 7.5 0 1 0 -15 0zM522.5 588.61 a7.5 7.5 0 1 0 15 0 a7.5 7.5 0 1 0 -15 0zM522.5 663.61 a7.5 7.5 0 1 0 15 0 a7.5 7.5 0 1 0 -15 0zM457.55 701.11 a7.5 7.5 0 1 0 15 0 a7.5 7.5 0 1 0 -15 0zM392.59 663.61 a7.5 7.5 0 1 0 15 0 a7.5 7.5 0 1 0 -15 0zM392.59 588.61 a7.5 7.5 0 1 0 15 0 a7.5 7.5 0 1 0 -15 0zM457.55 926.11 a7.5 7.5 0 1 0 15 0 a7.5 7.5 0 1 0 -15 0zM457.55 1001.11 a7.5 7.5 0 1 0 15 0 a7.5 7.5 0 1 0 -15 0zM522.5 -11.39 a7.5 7.5 0 1 0 15 0 a7.5 7.5 0 1 0 -15 0zM587.45 26.11 a7.5 7.5 0 1 0 15 0 a7.5 7.5 0 1 0 -15 0zM587.45 101.11 a7.5 7.5 0 1 0 15 0 a7.5 7.5 0 1 0 -15 0zM522.5 138.61 a7.5 7.5 0 1 0 15 0 a7.5 7.5 0 1 0 -15 0zM457.55 101.11 a7.5 7.5 0 1 0 15 0 a7.5 7.5 0 1 0 -15 0zM457.55 26.11 a7.5 7.5 0 1 0 15 0 a7.5 7.5 0 1 0 -15 0zM522.5 438.61 a7.5 7.5 0 1 0 15 0 a7.5 7.5 0 1 0 -15 0zM587.45 476.11 a7.5 7.5 0 1 0 15 0 a7.5 7.5 0 1 0 -15 0zM587.45 551.11 a7.5 7.5 0 1 0 15 0 a7.5 7.5 0 1 0 -15 0zM457.55 476.11 a7.5 7.5 0 1 0 15 0 a7.5 7.5 0 1 0 -15 0zM522.5 888.61 a7.5 7.5 0 1 0 15 0 a7.5 7.5 0 1 0 -15 0zM587.45 926.11 a7.5 7.5 0 1 0 15 0 a7.5 7.5 0 1 0 -15 0zM587.45 1001.11 a7.5 7.5 0 1 0 15 0 a7.5 7.5 0 1 0 -15 0zM522.5 1038.61 a7.5 7.5 0 1 0 15 0 a7.5 7.5 0 1 0 -15 0zM652.41 1038.61 a7.5 7.5 0 1 0 15 0 a7.5 7.5 0 1 0 -15 0zM652.41 1113.61 a7.5 7.5 0 1 0 15 0 a7.5 7.5 0 1 0 -15 0zM587.45 1151.11 a7.5 7.5 0 1 0 15 0 a7.5 7.5 0 1 0 -15 0zM522.5 1113.61 a7.5 7.5 0 1 0 15 0 a7.5 7.5 0 1 0 -15 0zM587.45 1226.11 a7.5 7.5 0 1 0 15 0 a7.5 7.5 0 1 0 -15 0zM652.41 1263.61 a7.5 7.5 0 1 0 15 0 a7.5 7.5 0 1 0 -15 0zM652.41 1338.61 a7.5 7.5 0 1 0 15 0 a7.5 7.5 0 1 0 -15 0zM587.45 1376.11 a7.5 7.5 0 1 0 15 0 a7.5 7.5 0 1 0 -15 0zM522.5 1338.61 a7.5 7.5 0 1 0 15 0 a7.5 7.5 0 1 0 -15 0zM522.5 1263.61 a7.5 7.5 0 1 0 15 0 a7.5 7.5 0 1 0 -15 0zM652.41 438.61 a7.5 7.5 0 1 0 15 0 a7.5 7.5 0 1 0 -15 0zM717.36 476.11 a7.5 7.5 0 1 0 15 0 a7.5 7.5 0 1 0 -15 0zM717.36 551.11 a7.5 7.5 0 1 0 15 0 a7.5 7.5 0 1 0 -15 0zM652.41 588.61 a7.5 7.5 0 1 0 15 0 a7.5 7.5 0 1 0 -15 0zM717.36 1001.11 a7.5 7.5 0 1 0 15 0 a7.5 7.5 0 1 0 -15 0zM782.32 1038.61 a7.5 7.5 0 1 0 15 0 a7.5 7.5 0 1 0 -15 0zM782.32 1113.61 a7.5 7.5 0 1 0 15 0 a7.5 7.5 0 1 0 -15 0zM717.36 1151.11 a7.5 7.5 0 1 0 15 0 a7.5 7.5 0 1 0 -15 0zM717.36 1226.11 a7.5 7.5 0 1 0 15 0 a7.5 7.5 0 1 0 -15 0zM782.32 1263.61 a7.5 7.5 0 1 0 15 0 a7.5 7.5 0 1 0 -15 0zM782.32 1338.61 a7.5 7.5 0 1 0 15 0 a7.5 7.5 0 1 0 -15 0zM717.36 1376.11 a7.5 7.5 0 1 0 15 0 a7.5 7.5 0 1 0 -15 0zM782.31 438.61 a7.5 7.5 0 1 0 15 0 a7.5 7.5 0 1 0 -15 0zM847.27 476.11 a7.5 7.5 0 1 0 15 0 a7.5 7.5 0 1 0 -15 0zM847.27 551.11 a7.5 7.5 0 1 0 15 0 a7.5 7.5 0 1 0 -15 0zM782.31 588.61 a7.5 7.5 0 1 0 15 0 a7.5 7.5 0 1 0 -15 0zM847.27 776.11 a7.5 7.5 0 1 0 15 0 a7.5 7.5 0 1 0 -15 0zM912.22 813.61 a7.5 7.5 0 1 0 15 0 a7.5 7.5 0 1 0 -15 0zM912.22 888.61 a7.5 7.5 0 1 0 15 0 a7.5 7.5 0 1 0 -15 0zM847.27 926.11 a7.5 7.5 0 1 0 15 0 a7.5 7.5 0 1 0 -15 0zM782.31 888.61 a7.5 7.5 0 1 0 15 0 a7.5 7.5 0 1 0 -15 0zM782.31 813.61 a7.5 7.5 0 1 0 15 0 a7.5 7.5 0 1 0 -15 0zM847.27 1001.11 a7.5 7.5 0 1 0 15 0 a7.5 7.5 0 1 0 -15 0zM782.31 1038.61 a7.5 7.5 0 1 0 15 0 a7.5 7.5 0 1 0 -15 0zM717.36 926.11 a7.5 7.5 0 1 0 15 0 a7.5 7.5 0 1 0 -15 0zM782.31 1113.61 a7.5 7.5 0 1 0 15 0 a7.5 7.5 0 1 0 -15 0zM847.27 1151.11 a7.5 7.5 0 1 0 15 0 a7.5 7.5 0 1 0 -15 0zM847.27 1226.11 a7.5 7.5 0 1 0 15 0 a7.5 7.5 0 1 0 -15 0zM782.31 1263.61 a7.5 7.5 0 1 0 15 0 a7.5 7.5 0 1 0 -15 0zM977.18 101.11 a7.5 7.5 0 1 0 15 0 a7.5 7.5 0 1 0 -15 0zM1042.13 138.61 a7.5 7.5 0 1 0 15 0 a7.5 7.5 0 1 0 -15 0zM1042.13 213.61 a7.5 7.5 0 1 0 15 0 a7.5 7.5 0 1 0 -15 0zM977.18 251.11 a7.5 7.5 0 1 0 15 0 a7.5 7.5 0 1 0 -15 0zM912.22 213.61 a7.5 7.5 0 1 0 15 0 a7.5 7.5 0 1 0 -15 0zM912.22 138.61 a7.5 7.5 0 1 0 15 0 a7.5 7.5 0 1 0 -15 0zM977.18 326.11 a7.5 7.5 0 1 0 15 0 a7.5 7.5 0 1 0 -15 0zM912.22 363.61 a7.5 7.5 0 1 0 15 0 a7.5 7.5 0 1 0 -15 0zM847.27 326.11 a7.5 7.5 0 1 0 15 0 a7.5 7.5 0 1 0 -15 0zM847.27 251.11 a7.5 7.5 0 1 0 15 0 a7.5 7.5 0 1 0 -15 0zM1042.13 363.61 a7.5 7.5 0 1 0 15 0 a7.5 7.5 0 1 0 -15 0zM1042.13 438.61 a7.5 7.5 0 1 0 15 0 a7.5 7.5 0 1 0 -15 0zM977.18 476.11 a7.5 7.5 0 1 0 15 0 a7.5 7.5 0 1 0 -15 0zM912.22 438.61 a7.5 7.5 0 1 0 15 0 a7.5 7.5 0 1 0 -15 0zM977.18 551.11 a7.5 7.5 0 1 0 15 0 a7.5 7.5 0 1 0 -15 0zM912.22 588.61 a7.5 7.5 0 1 0 15 0 a7.5 7.5 0 1 0 -15 0zM977.18 926.11 a7.5 7.5 0 1 0 15 0 a7.5 7.5 0 1 0 -15 0zM977.18 1001.11 a7.5 7.5 0 1 0 15 0 a7.5 7.5 0 1 0 -15 0zM912.22 1038.61 a7.5 7.5 0 1 0 15 0 a7.5 7.5 0 1 0 -15 0zM1042.13 1038.61 a7.5 7.5 0 1 0 15 0 a7.5 7.5 0 1 0 -15 0zM1042.13 1113.61 a7.5 7.5 0 1 0 15 0 a7.5 7.5 0 1 0 -15 0zM977.18 1151.11 a7.5 7.5 0 1 0 15 0 a7.5 7.5 0 1 0 -15 0zM912.22 1113.61 a7.5 7.5 0 1 0 15 0 a7.5 7.5 0 1 0 -15 0zM1107.08 776.11 a7.5 7.5 0 1 0 15 0 a7.5 7.5 0 1 0 -15 0zM1172.04 813.61 a7.5 7.5 0 1 0 15 0 a7.5 7.5 0 1 0 -15 0zM1172.04 888.61 a7.5 7.5 0 1 0 15 0 a7.5 7.5 0 1 0 -15 0zM1107.08 926.11 a7.5 7.5 0 1 0 15 0 a7.5 7.5 0 1 0 -15 0zM1042.13 888.61 a7.5 7.5 0 1 0 15 0 a7.5 7.5 0 1 0 -15 0zM1042.13 813.61 a7.5 7.5 0 1 0 15 0 a7.5 7.5 0 1 0 -15 0zM1236.99 101.11 a7.5 7.5 0 1 0 15 0 a7.5 7.5 0 1 0 -15 0zM1301.94 138.61 a7.5 7.5 0 1 0 15 0 a7.5 7.5 0 1 0 -15 0zM1301.94 213.61 a7.5 7.5 0 1 0 15 0 a7.5 7.5 0 1 0 -15 0zM1236.99 251.11 a7.5 7.5 0 1 0 15 0 a7.5 7.5 0 1 0 -15 0zM1172.04 213.61 a7.5 7.5 0 1 0 15 0 a7.5 7.5 0 1 0 -15 0zM1172.04 138.61 a7.5 7.5 0 1 0 15 0 a7.5 7.5 0 1 0 -15 0zM1236.99 326.11 a7.5 7.5 0 1 0 15 0 a7.5 7.5 0 1 0 -15 0zM1172.04 363.61 a7.5 7.5 0 1 0 15 0 a7.5 7.5 0 1 0 -15 0zM1107.08 326.11 a7.5 7.5 0 1 0 15 0 a7.5 7.5 0 1 0 -15 0zM1107.08 251.11 a7.5 7.5 0 1 0 15 0 a7.5 7.5 0 1 0 -15 0zM1172.04 663.61 a7.5 7.5 0 1 0 15 0 a7.5 7.5 0 1 0 -15 0zM1236.99 701.11 a7.5 7.5 0 1 0 15 0 a7.5 7.5 0 1 0 -15 0zM1236.99 776.11 a7.5 7.5 0 1 0 15 0 a7.5 7.5 0 1 0 -15 0zM1107.08 701.11 a7.5 7.5 0 1 0 15 0 a7.5 7.5 0 1 0 -15 0zM1301.94 813.61 a7.5 7.5 0 1 0 15 0 a7.5 7.5 0 1 0 -15 0zM1301.94 888.61 a7.5 7.5 0 1 0 15 0 a7.5 7.5 0 1 0 -15 0zM1236.99 926.11 a7.5 7.5 0 1 0 15 0 a7.5 7.5 0 1 0 -15 0zM1236.99 1226.11 a7.5 7.5 0 1 0 15 0 a7.5 7.5 0 1 0 -15 0zM1301.94 1263.61 a7.5 7.5 0 1 0 15 0 a7.5 7.5 0 1 0 -15 0zM1301.94 1338.61 a7.5 7.5 0 1 0 15 0 a7.5 7.5 0 1 0 -15 0zM1236.99 1376.11 a7.5 7.5 0 1 0 15 0 a7.5 7.5 0 1 0 -15 0zM1172.04 1338.61 a7.5 7.5 0 1 0 15 0 a7.5 7.5 0 1 0 -15 0zM1172.04 1263.61 a7.5 7.5 0 1 0 15 0 a7.5 7.5 0 1 0 -15 0zM1301.94 -11.39 a7.5 7.5 0 1 0 15 0 a7.5 7.5 0 1 0 -15 0zM1366.9 26.11 a7.5 7.5 0 1 0 15 0 a7.5 7.5 0 1 0 -15 0zM1366.9 101.11 a7.5 7.5 0 1 0 15 0 a7.5 7.5 0 1 0 -15 0zM1236.99 26.11 a7.5 7.5 0 1 0 15 0 a7.5 7.5 0 1 0 -15 0zM1366.9 251.11 a7.5 7.5 0 1 0 15 0 a7.5 7.5 0 1 0 -15 0zM1366.9 326.11 a7.5 7.5 0 1 0 15 0 a7.5 7.5 0 1 0 -15 0zM1301.94 363.61 a7.5 7.5 0 1 0 15 0 a7.5 7.5 0 1 0 -15 0zM1366.9 551.11 a7.5 7.5 0 1 0 15 0 a7.5 7.5 0 1 0 -15 0zM1431.85 588.61 a7.5 7.5 0 1 0 15 0 a7.5 7.5 0 1 0 -15 0zM1431.85 663.61 a7.5 7.5 0 1 0 15 0 a7.5 7.5 0 1 0 -15 0zM1366.9 701.11 a7.5 7.5 0 1 0 15 0 a7.5 7.5 0 1 0 -15 0zM1301.94 663.61 a7.5 7.5 0 1 0 15 0 a7.5 7.5 0 1 0 -15 0zM1301.94 588.61 a7.5 7.5 0 1 0 15 0 a7.5 7.5 0 1 0 -15 0zM1366.9 776.11 a7.5 7.5 0 1 0 15 0 a7.5 7.5 0 1 0 -15 0zM1431.85 813.61 a7.5 7.5 0 1 0 15 0 a7.5 7.5 0 1 0 -15 0zM1431.85 888.61 a7.5 7.5 0 1 0 15 0 a7.5 7.5 0 1 0 -15 0zM1366.9 926.11 a7.5 7.5 0 1 0 15 0 a7.5 7.5 0 1 0 -15 0zM1431.85 213.61 a7.5 7.5 0 1 0 15 0 a7.5 7.5 0 1 0 -15 0zM1496.81 251.11 a7.5 7.5 0 1 0 15 0 a7.5 7.5 0 1 0 -15 0zM1496.81 326.11 a7.5 7.5 0 1 0 15 0 a7.5 7.5 0 1 0 -15 0zM1431.85 363.61 a7.5 7.5 0 1 0 15 0 a7.5 7.5 0 1 0 -15 0zM1496.81 551.11 a7.5 7.5 0 1 0 15 0 a7.5 7.5 0 1 0 -15 0zM1561.76 588.61 a7.5 7.5 0 1 0 15 0 a7.5 7.5 0 1 0 -15 0zM1561.76 663.61 a7.5 7.5 0 1 0 15 0 a7.5 7.5 0 1 0 -15 0zM1496.81 701.11 a7.5 7.5 0 1 0 15 0 a7.5 7.5 0 1 0 -15 0zM1496.81 776.11 a7.5 7.5 0 1 0 15 0 a7.5 7.5 0 1 0 -15 0zM1561.76 813.61 a7.5 7.5 0 1 0 15 0 a7.5 7.5 0 1 0 -15 0zM1561.76 888.61 a7.5 7.5 0 1 0 15 0 a7.5 7.5 0 1 0 -15 0zM1496.81 926.11 a7.5 7.5 0 1 0 15 0 a7.5 7.5 0 1 0 -15 0zM1496.81 1001.11 a7.5 7.5 0 1 0 15 0 a7.5 7.5 0 1 0 -15 0zM1431.85 1038.61 a7.5 7.5 0 1 0 15 0 a7.5 7.5 0 1 0 -15 0zM1366.9 1001.11 a7.5 7.5 0 1 0 15 0 a7.5 7.5 0 1 0 -15 0zM1561.76 438.61 a7.5 7.5 0 1 0 15 0 a7.5 7.5 0 1 0 -15 0zM1626.71 476.11 a7.5 7.5 0 1 0 15 0 a7.5 7.5 0 1 0 -15 0zM1626.71 551.11 a7.5 7.5 0 1 0 15 0 a7.5 7.5 0 1 0 -15 0zM1496.81 476.11 a7.5 7.5 0 1 0 15 0 a7.5 7.5 0 1 0 -15 0zM1626.71 926.11 a7.5 7.5 0 1 0 15 0 a7.5 7.5 0 1 0 -15 0zM1626.71 1001.11 a7.5 7.5 0 1 0 15 0 a7.5 7.5 0 1 0 -15 0zM1561.76 1038.61 a7.5 7.5 0 1 0 15 0 a7.5 7.5 0 1 0 -15 0zM1756.62 101.11 a7.5 7.5 0 1 0 15 0 a7.5 7.5 0 1 0 -15 0zM1821.57 138.61 a7.5 7.5 0 1 0 15 0 a7.5 7.5 0 1 0 -15 0zM1821.57 213.61 a7.5 7.5 0 1 0 15 0 a7.5 7.5 0 1 0 -15 0zM1756.62 251.11 a7.5 7.5 0 1 0 15 0 a7.5 7.5 0 1 0 -15 0zM1691.67 213.61 a7.5 7.5 0 1 0 15 0 a7.5 7.5 0 1 0 -15 0zM1691.67 138.61 a7.5 7.5 0 1 0 15 0 a7.5 7.5 0 1 0 -15 0zM1756.62 326.11 a7.5 7.5 0 1 0 15 0 a7.5 7.5 0 1 0 -15 0zM1691.67 363.61 a7.5 7.5 0 1 0 15 0 a7.5 7.5 0 1 0 -15 0zM1626.71 326.11 a7.5 7.5 0 1 0 15 0 a7.5 7.5 0 1 0 -15 0zM1626.71 251.11 a7.5 7.5 0 1 0 15 0 a7.5 7.5 0 1 0 -15 0zM1821.57 363.61 a7.5 7.5 0 1 0 15 0 a7.5 7.5 0 1 0 -15 0zM1821.57 438.61 a7.5 7.5 0 1 0 15 0 a7.5 7.5 0 1 0 -15 0zM1756.62 476.11 a7.5 7.5 0 1 0 15 0 a7.5 7.5 0 1 0 -15 0zM1691.67 438.61 a7.5 7.5 0 1 0 15 0 a7.5 7.5 0 1 0 -15 0zM1756.62 551.11 a7.5 7.5 0 1 0 15 0 a7.5 7.5 0 1 0 -15 0zM1691.67 588.61 a7.5 7.5 0 1 0 15 0 a7.5 7.5 0 1 0 -15 0zM1756.62 1226.11 a7.5 7.5 0 1 0 15 0 a7.5 7.5 0 1 0 -15 0zM1821.57 1263.61 a7.5 7.5 0 1 0 15 0 a7.5 7.5 0 1 0 -15 0zM1821.57 1338.61 a7.5 7.5 0 1 0 15 0 a7.5 7.5 0 1 0 -15 0zM1756.62 1376.11 a7.5 7.5 0 1 0 15 0 a7.5 7.5 0 1 0 -15 0zM1691.67 1338.61 a7.5 7.5 0 1 0 15 0 a7.5 7.5 0 1 0 -15 0zM1691.67 1263.61 a7.5 7.5 0 1 0 15 0 a7.5 7.5 0 1 0 -15 0zM1886.53 251.11 a7.5 7.5 0 1 0 15 0 a7.5 7.5 0 1 0 -15 0zM1886.53 326.11 a7.5 7.5 0 1 0 15 0 a7.5 7.5 0 1 0 -15 0zM1951.48 363.61 a7.5 7.5 0 1 0 15 0 a7.5 7.5 0 1 0 -15 0zM1951.48 438.61 a7.5 7.5 0 1 0 15 0 a7.5 7.5 0 1 0 -15 0zM1886.53 476.11 a7.5 7.5 0 1 0 15 0 a7.5 7.5 0 1 0 -15 0zM1886.53 551.11 a7.5 7.5 0 1 0 15 0 a7.5 7.5 0 1 0 -15 0zM1821.57 588.61 a7.5 7.5 0 1 0 15 0 a7.5 7.5 0 1 0 -15 0zM1886.53 1226.11 a7.5 7.5 0 1 0 15 0 a7.5 7.5 0 1 0 -15 0zM1951.48 1263.61 a7.5 7.5 0 1 0 15 0 a7.5 7.5 0 1 0 -15 0zM1951.48 1338.61 a7.5 7.5 0 1 0 15 0 a7.5 7.5 0 1 0 -15 0zM1886.53 1376.11 a7.5 7.5 0 1 0 15 0 a7.5 7.5 0 1 0 -15 0z" fill="#03305d"></path><path d="M18.93 -10.02L66.56 17.48L66.56 72.48L18.93 99.98L-28.7 72.48L-28.7 17.48zM66.56 72.48L114.2 99.98L114.2 154.98L66.56 182.48L18.93 154.98L18.93 99.98zM18.93 154.98L66.56 182.48L66.56 237.48L18.93 264.98L-28.7 237.48L-28.7 182.48zM66.56 567.48L114.2 594.98L114.2 649.98L66.56 677.48L18.93 649.98L18.93 594.98zM18.93 649.98L66.56 677.48L66.56 732.48L18.93 759.98L-28.7 732.48L-28.7 677.48zM66.56 732.48L114.2 759.98L114.2 814.98L66.56 842.48L18.93 814.98L18.93 759.98zM18.93 814.98L66.56 842.48L66.56 897.48L18.93 924.98L-28.7 897.48L-28.7 842.48zM18.93 1144.98L66.56 1172.48L66.56 1227.48L18.93 1254.98L-28.7 1227.48L-28.7 1172.48zM161.83 72.48L209.46 99.98L209.46 154.98L161.83 182.48L114.2 154.98L114.2 99.98zM114.2 484.98L161.83 512.48L161.83 567.48L114.2 594.98L66.56 567.48L66.56 512.48zM161.83 567.48L209.46 594.98L209.46 649.98L161.83 677.48L114.2 649.98L114.2 594.98zM114.2 649.98L161.83 677.48L161.83 732.48L114.2 759.98L66.56 732.48L66.56 677.48zM161.83 897.48L209.46 924.98L209.46 979.98L161.83 1007.48L114.2 979.98L114.2 924.98zM161.83 1062.48L209.46 1089.98L209.46 1144.98L161.83 1172.48L114.2 1144.98L114.2 1089.98zM209.46 -10.02L257.09 17.48L257.09 72.48L209.46 99.98L161.83 72.48L161.83 17.48zM257.09 72.48L304.73 99.98L304.73 154.98L257.09 182.48L209.46 154.98L209.46 99.98zM209.46 154.98L257.09 182.48L257.09 237.48L209.46 264.98L161.83 237.48L161.83 182.48zM257.09 237.48L304.73 264.98L304.73 319.98L257.09 347.48L209.46 319.98L209.46 264.98zM209.46 319.98L257.09 347.48L257.09 402.48L209.46 429.98L161.83 402.48L161.83 347.48zM257.09 402.48L304.73 429.98L304.73 484.98L257.09 512.48L209.46 484.98L209.46 429.98zM257.09 567.48L304.73 594.98L304.73 649.98L257.09 677.48L209.46 649.98L209.46 594.98zM209.46 649.98L257.09 677.48L257.09 732.48L209.46 759.98L161.83 732.48L161.83 677.48zM209.46 1144.98L257.09 1172.48L257.09 1227.48L209.46 1254.98L161.83 1227.48L161.83 1172.48zM257.09 1227.48L304.73 1254.98L304.73 1309.98L257.09 1337.48L209.46 1309.98L209.46 1254.98zM304.73 -10.02L352.36 17.48L352.36 72.48L304.73 99.98L257.09 72.48L257.09 17.48zM352.36 72.48L399.99 99.98L399.99 154.98L352.36 182.48L304.73 154.98L304.73 99.98zM304.73 154.98L352.36 182.48L352.36 237.48L304.73 264.98L257.09 237.48L257.09 182.48zM304.73 319.98L352.36 347.48L352.36 402.48L304.73 429.98L257.09 402.48L257.09 347.48zM352.36 402.48L399.99 429.98L399.99 484.98L352.36 512.48L304.73 484.98L304.73 429.98zM352.36 732.48L399.99 759.98L399.99 814.98L352.36 842.48L304.73 814.98L304.73 759.98zM304.73 814.98L352.36 842.48L352.36 897.48L304.73 924.98L257.09 897.48L257.09 842.48zM399.99 319.98L447.62 347.48L447.62 402.48L399.99 429.98L352.36 402.48L352.36 347.48zM447.62 402.48L495.26 429.98L495.26 484.98L447.62 512.48L399.99 484.98L399.99 429.98zM399.99 649.98L447.62 677.48L447.62 732.48L399.99 759.98L352.36 732.48L352.36 677.48zM447.62 897.48L495.26 924.98L495.26 979.98L447.62 1007.48L399.99 979.98L399.99 924.98zM447.62 1062.48L495.26 1089.98L495.26 1144.98L447.62 1172.48L399.99 1144.98L399.99 1089.98zM399.99 1144.98L447.62 1172.48L447.62 1227.48L399.99 1254.98L352.36 1227.48L352.36 1172.48zM447.62 1227.48L495.26 1254.98L495.26 1309.98L447.62 1337.48L399.99 1309.98L399.99 1254.98zM542.89 72.48L590.52 99.98L590.52 154.98L542.89 182.48L495.26 154.98L495.26 99.98zM542.89 402.48L590.52 429.98L590.52 484.98L542.89 512.48L495.26 484.98L495.26 429.98zM495.26 649.98L542.89 677.48L542.89 732.48L495.26 759.98L447.62 732.48L447.62 677.48zM495.26 814.98L542.89 842.48L542.89 897.48L495.26 924.98L447.62 897.48L447.62 842.48zM542.89 897.48L590.52 924.98L590.52 979.98L542.89 1007.48L495.26 979.98L495.26 924.98zM542.89 1227.48L590.52 1254.98L590.52 1309.98L542.89 1337.48L495.26 1309.98L495.26 1254.98zM590.52 154.98L638.16 182.48L638.16 237.48L590.52 264.98L542.89 237.48L542.89 182.48zM590.52 319.98L638.16 347.48L638.16 402.48L590.52 429.98L542.89 402.48L542.89 347.48zM638.16 402.48L685.79 429.98L685.79 484.98L638.16 512.48L590.52 484.98L590.52 429.98zM590.52 484.98L638.16 512.48L638.16 567.48L590.52 594.98L542.89 567.48L542.89 512.48zM590.52 649.98L638.16 677.48L638.16 732.48L590.52 759.98L542.89 732.48L542.89 677.48zM638.16 732.48L685.79 759.98L685.79 814.98L638.16 842.48L590.52 814.98L590.52 759.98zM638.16 1062.48L685.79 1089.98L685.79 1144.98L638.16 1172.48L590.52 1144.98L590.52 1089.98zM590.52 1144.98L638.16 1172.48L638.16 1227.48L590.52 1254.98L542.89 1227.48L542.89 1172.48zM638.16 1227.48L685.79 1254.98L685.79 1309.98L638.16 1337.48L590.52 1309.98L590.52 1254.98zM685.79 154.98L733.42 182.48L733.42 237.48L685.79 264.98L638.16 237.48L638.16 182.48zM733.42 237.48L781.05 264.98L781.05 319.98L733.42 347.48L685.79 319.98L685.79 264.98zM685.79 319.98L733.42 347.48L733.42 402.48L685.79 429.98L638.16 402.48L638.16 347.48zM685.79 484.98L733.42 512.48L733.42 567.48L685.79 594.98L638.16 567.48L638.16 512.48zM733.42 732.48L781.05 759.98L781.05 814.98L733.42 842.48L685.79 814.98L685.79 759.98zM733.42 897.48L781.05 924.98L781.05 979.98L733.42 1007.48L685.79 979.98L685.79 924.98zM685.79 979.98L733.42 1007.48L733.42 1062.48L685.79 1089.98L638.16 1062.48L638.16 1007.48zM733.42 1062.48L781.05 1089.98L781.05 1144.98L733.42 1172.48L685.79 1144.98L685.79 1089.98zM781.05 154.98L828.69 182.48L828.69 237.48L781.05 264.98L733.42 237.48L733.42 182.48zM828.69 237.48L876.32 264.98L876.32 319.98L828.69 347.48L781.05 319.98L781.05 264.98zM828.69 897.48L876.32 924.98L876.32 979.98L828.69 1007.48L781.05 979.98L781.05 924.98zM781.05 979.98L828.69 1007.48L828.69 1062.48L781.05 1089.98L733.42 1062.48L733.42 1007.48zM828.69 1062.48L876.32 1089.98L876.32 1144.98L828.69 1172.48L781.05 1144.98L781.05 1089.98zM828.69 1227.48L876.32 1254.98L876.32 1309.98L828.69 1337.48L781.05 1309.98L781.05 1254.98zM876.32 154.98L923.95 182.48L923.95 237.48L876.32 264.98L828.69 237.48L828.69 182.48zM876.32 319.98L923.95 347.48L923.95 402.48L876.32 429.98L828.69 402.48L828.69 347.48zM923.95 402.48L971.58 429.98L971.58 484.98L923.95 512.48L876.32 484.98L876.32 429.98zM923.95 567.48L971.58 594.98L971.58 649.98L923.95 677.48L876.32 649.98L876.32 594.98zM876.32 649.98L923.95 677.48L923.95 732.48L876.32 759.98L828.69 732.48L828.69 677.48zM923.95 732.48L971.58 759.98L971.58 814.98L923.95 842.48L876.32 814.98L876.32 759.98zM876.32 1144.98L923.95 1172.48L923.95 1227.48L876.32 1254.98L828.69 1227.48L828.69 1172.48zM923.95 1227.48L971.58 1254.98L971.58 1309.98L923.95 1337.48L876.32 1309.98L876.32 1254.98zM971.58 319.98L1019.22 347.48L1019.22 402.48L971.58 429.98L923.95 402.48L923.95 347.48zM971.58 484.98L1019.22 512.48L1019.22 567.48L971.58 594.98L923.95 567.48L923.95 512.48zM971.58 649.98L1019.22 677.48L1019.22 732.48L971.58 759.98L923.95 732.48L923.95 677.48zM1019.22 732.48L1066.85 759.98L1066.85 814.98L1019.22 842.48L971.58 814.98L971.58 759.98zM971.58 814.98L1019.22 842.48L1019.22 897.48L971.58 924.98L923.95 897.48L923.95 842.48zM1019.22 897.48L1066.85 924.98L1066.85 979.98L1019.22 1007.48L971.58 979.98L971.58 924.98zM1114.48 237.48L1162.12 264.98L1162.12 319.98L1114.48 347.48L1066.85 319.98L1066.85 264.98zM1066.85 649.98L1114.48 677.48L1114.48 732.48L1066.85 759.98L1019.22 732.48L1019.22 677.48zM1066.85 814.98L1114.48 842.48L1114.48 897.48L1066.85 924.98L1019.22 897.48L1019.22 842.48zM1066.85 979.98L1114.48 1007.48L1114.48 1062.48L1066.85 1089.98L1019.22 1062.48L1019.22 1007.48zM1066.85 1144.98L1114.48 1172.48L1114.48 1227.48L1066.85 1254.98L1019.22 1227.48L1019.22 1172.48zM1114.48 1227.48L1162.12 1254.98L1162.12 1309.98L1114.48 1337.48L1066.85 1309.98L1066.85 1254.98zM1162.12 154.98L1209.75 182.48L1209.75 237.48L1162.12 264.98L1114.48 237.48L1114.48 182.48zM1209.75 402.48L1257.38 429.98L1257.38 484.98L1209.75 512.48L1162.12 484.98L1162.12 429.98zM1209.75 567.48L1257.38 594.98L1257.38 649.98L1209.75 677.48L1162.12 649.98L1162.12 594.98zM1209.75 732.48L1257.38 759.98L1257.38 814.98L1209.75 842.48L1162.12 814.98L1162.12 759.98zM1162.12 814.98L1209.75 842.48L1209.75 897.48L1162.12 924.98L1114.48 897.48L1114.48 842.48zM1162.12 979.98L1209.75 1007.48L1209.75 1062.48L1162.12 1089.98L1114.48 1062.48L1114.48 1007.48zM1209.75 1062.48L1257.38 1089.98L1257.38 1144.98L1209.75 1172.48L1162.12 1144.98L1162.12 1089.98zM1305.01 237.48L1352.65 264.98L1352.65 319.98L1305.01 347.48L1257.38 319.98L1257.38 264.98zM1305.01 402.48L1352.65 429.98L1352.65 484.98L1305.01 512.48L1257.38 484.98L1257.38 429.98zM1305.01 567.48L1352.65 594.98L1352.65 649.98L1305.01 677.48L1257.38 649.98L1257.38 594.98zM1305.01 732.48L1352.65 759.98L1352.65 814.98L1305.01 842.48L1257.38 814.98L1257.38 759.98zM1305.01 897.48L1352.65 924.98L1352.65 979.98L1305.01 1007.48L1257.38 979.98L1257.38 924.98zM1352.65 154.98L1400.28 182.48L1400.28 237.48L1352.65 264.98L1305.01 237.48L1305.01 182.48zM1352.65 484.98L1400.28 512.48L1400.28 567.48L1352.65 594.98L1305.01 567.48L1305.01 512.48zM1400.28 567.48L1447.91 594.98L1447.91 649.98L1400.28 677.48L1352.65 649.98L1352.65 594.98zM1352.65 649.98L1400.28 677.48L1400.28 732.48L1352.65 759.98L1305.01 732.48L1305.01 677.48zM1400.28 732.48L1447.91 759.98L1447.91 814.98L1400.28 842.48L1352.65 814.98L1352.65 759.98zM1352.65 814.98L1400.28 842.48L1400.28 897.48L1352.65 924.98L1305.01 897.48L1305.01 842.48zM1400.28 897.48L1447.91 924.98L1447.91 979.98L1400.28 1007.48L1352.65 979.98L1352.65 924.98zM1352.65 979.98L1400.28 1007.48L1400.28 1062.48L1352.65 1089.98L1305.01 1062.48L1305.01 1007.48zM1400.28 1062.48L1447.91 1089.98L1447.91 1144.98L1400.28 1172.48L1352.65 1144.98L1352.65 1089.98zM1352.65 1144.98L1400.28 1172.48L1400.28 1227.48L1352.65 1254.98L1305.01 1227.48L1305.01 1172.48zM1447.91 -10.02L1495.55 17.48L1495.55 72.48L1447.91 99.98L1400.28 72.48L1400.28 17.48zM1495.55 72.48L1543.18 99.98L1543.18 154.98L1495.55 182.48L1447.91 154.98L1447.91 99.98zM1495.55 567.48L1543.18 594.98L1543.18 649.98L1495.55 677.48L1447.91 649.98L1447.91 594.98zM1543.18 -10.02L1590.81 17.48L1590.81 72.48L1543.18 99.98L1495.55 72.48L1495.55 17.48zM1590.81 237.48L1638.44 264.98L1638.44 319.98L1590.81 347.48L1543.18 319.98L1543.18 264.98zM1543.18 319.98L1590.81 347.48L1590.81 402.48L1543.18 429.98L1495.55 402.48L1495.55 347.48zM1590.81 402.48L1638.44 429.98L1638.44 484.98L1590.81 512.48L1543.18 484.98L1543.18 429.98zM1590.81 897.48L1638.44 924.98L1638.44 979.98L1590.81 1007.48L1543.18 979.98L1543.18 924.98zM1543.18 979.98L1590.81 1007.48L1590.81 1062.48L1543.18 1089.98L1495.55 1062.48L1495.55 1007.48zM1543.18 1144.98L1590.81 1172.48L1590.81 1227.48L1543.18 1254.98L1495.55 1227.48L1495.55 1172.48zM1590.81 1227.48L1638.44 1254.98L1638.44 1309.98L1590.81 1337.48L1543.18 1309.98L1543.18 1254.98zM1686.08 567.48L1733.71 594.98L1733.71 649.98L1686.08 677.48L1638.44 649.98L1638.44 594.98zM1638.44 649.98L1686.08 677.48L1686.08 732.48L1638.44 759.98L1590.81 732.48L1590.81 677.48zM1686.08 732.48L1733.71 759.98L1733.71 814.98L1686.08 842.48L1638.44 814.98L1638.44 759.98zM1686.08 1227.48L1733.71 1254.98L1733.71 1309.98L1686.08 1337.48L1638.44 1309.98L1638.44 1254.98zM1733.71 -10.02L1781.34 17.48L1781.34 72.48L1733.71 99.98L1686.08 72.48L1686.08 17.48zM1733.71 154.98L1781.34 182.48L1781.34 237.48L1733.71 264.98L1686.08 237.48L1686.08 182.48zM1781.34 237.48L1828.97 264.98L1828.97 319.98L1781.34 347.48L1733.71 319.98L1733.71 264.98zM1781.34 402.48L1828.97 429.98L1828.97 484.98L1781.34 512.48L1733.71 484.98L1733.71 429.98zM1781.34 567.48L1828.97 594.98L1828.97 649.98L1781.34 677.48L1733.71 649.98L1733.71 594.98zM1733.71 649.98L1781.34 677.48L1781.34 732.48L1733.71 759.98L1686.08 732.48L1686.08 677.48zM1733.71 814.98L1781.34 842.48L1781.34 897.48L1733.71 924.98L1686.08 897.48L1686.08 842.48zM1781.34 897.48L1828.97 924.98L1828.97 979.98L1781.34 1007.48L1733.71 979.98L1733.71 924.98zM1781.34 1062.48L1828.97 1089.98L1828.97 1144.98L1781.34 1172.48L1733.71 1144.98L1733.71 1089.98zM1876.61 237.48L1924.24 264.98L1924.24 319.98L1876.61 347.48L1828.97 319.98L1828.97 264.98zM1876.61 567.48L1924.24 594.98L1924.24 649.98L1876.61 677.48L1828.97 649.98L1828.97 594.98zM1876.61 732.48L1924.24 759.98L1924.24 814.98L1876.61 842.48L1828.97 814.98L1828.97 759.98zM1876.61 897.48L1924.24 924.98L1924.24 979.98L1876.61 1007.48L1828.97 979.98L1828.97 924.98zM1876.61 1062.48L1924.24 1089.98L1924.24 1144.98L1876.61 1172.48L1828.97 1144.98L1828.97 1089.98zM1828.97 1144.98L1876.61 1172.48L1876.61 1227.48L1828.97 1254.98L1781.34 1227.48L1781.34 1172.48zM1924.24 -10.02L1971.87 17.48L1971.87 72.48L1924.24 99.98L1876.61 72.48L1876.61 17.48zM1971.87 72.48L2019.51 99.98L2019.51 154.98L1971.87 182.48L1924.24 154.98L1924.24 99.98zM1924.24 154.98L1971.87 182.48L1971.87 237.48L1924.24 264.98L1876.61 237.48L1876.61 182.48zM1971.87 237.48L2019.51 264.98L2019.51 319.98L1971.87 347.48L1924.24 319.98L1924.24 264.98zM1971.87 402.48L2019.51 429.98L2019.51 484.98L1971.87 512.48L1924.24 484.98L1924.24 429.98zM1924.24 484.98L1971.87 512.48L1971.87 567.48L1924.24 594.98L1876.61 567.48L1876.61 512.48zM1971.87 567.48L2019.51 594.98L2019.51 649.98L1971.87 677.48L1924.24 649.98L1924.24 594.98zM1924.24 649.98L1971.87 677.48L1971.87 732.48L1924.24 759.98L1876.61 732.48L1876.61 677.48zM1924.24 814.98L1971.87 842.48L1971.87 897.48L1924.24 924.98L1876.61 897.48L1876.61 842.48zM1971.87 1062.48L2019.51 1089.98L2019.51 1144.98L1971.87 1172.48L1924.24 1144.98L1924.24 1089.98z" stroke="rgba(6, 80, 156, 0.93)" stroke-width="2"></path></g><defs><mask id="SvgjsMask1468"><rect width="1920" height="1200" fill="#ffffff"></rect></mask><linearGradient x1="9.37%" y1="-15%" x2="90.63%" y2="115%" gradientUnits="userSpaceOnUse" id="SvgjsLinearGradient1469"><stop stop-color="#0e2a47" offset="0"></stop><stop stop-color="rgba(21, 138, 143, 1)" offset="1"></stop></linearGradient></defs></svg>