<svg xmlns="http://www.w3.org/2000/svg" version="1.1" xmlns:xlink="http://www.w3.org/1999/xlink" xmlns:svgjs="http://svgjs.dev/svgjs" width="2560" height="5000" preserveAspectRatio="none" viewBox="0 0 2560 5000"><g mask="url(&quot;#SvgjsMask7704&quot;)" fill="none"><rect width="2560" height="5000" x="0" y="0" fill="url(&quot;#SvgjsLinearGradient7705&quot;)"></rect><path d="M59.37 762.93L117.4 796.43L117.4 863.43L59.37 896.93L1.34 863.43L1.34 796.43zM117.4 863.43L175.42 896.93L175.42 963.93L117.4 997.43L59.37 963.93L59.37 896.93zM117.4 1466.43L175.42 1499.93L175.42 1566.93L117.4 1600.43L59.37 1566.93L59.37 1499.93zM117.4 2270.43L175.42 2303.93L175.42 2370.93L117.4 2404.43L59.37 2370.93L59.37 2303.93zM59.37 2772.93L117.4 2806.43L117.4 2873.43L59.37 2906.93L1.34 2873.43L1.34 2806.43zM59.37 2973.93L117.4 3007.43L117.4 3074.43L59.37 3107.93L1.34 3074.43L1.34 3007.43zM117.4 3476.43L175.42 3509.93L175.42 3576.93L117.4 3610.43L59.37 3576.93L59.37 3509.93zM59.37 3978.93L117.4 4012.43L117.4 4079.43L59.37 4112.93L1.34 4079.43L1.34 4012.43zM117.4 4280.43L175.42 4313.93L175.42 4380.93L117.4 4414.43L59.37 4380.93L59.37 4313.93zM59.37 4782.93L117.4 4816.43L117.4 4883.43L59.37 4916.93L1.34 4883.43L1.34 4816.43zM175.42 963.93L233.45 997.43L233.45 1064.43L175.42 1097.93L117.4 1064.43L117.4 997.43zM233.45 1064.43L291.47 1097.93L291.47 1164.93L233.45 1198.43L175.42 1164.93L175.42 1097.93zM233.45 3074.43L291.47 3107.93L291.47 3174.93L233.45 3208.43L175.42 3174.93L175.42 3107.93zM233.45 4883.43L291.47 4916.93L291.47 4983.93L233.45 5017.43L175.42 4983.93L175.42 4916.93zM291.47 -41.07L349.5 -7.57L349.5 59.43L291.47 92.93L233.45 59.43L233.45 -7.57zM291.47 963.93L349.5 997.43L349.5 1064.43L291.47 1097.93L233.45 1064.43L233.45 997.43zM291.47 1164.93L349.5 1198.43L349.5 1265.43L291.47 1298.93L233.45 1265.43L233.45 1198.43zM291.47 1767.93L349.5 1801.43L349.5 1868.43L291.47 1901.93L233.45 1868.43L233.45 1801.43zM349.5 3476.43L407.52 3509.93L407.52 3576.93L349.5 3610.43L291.47 3576.93L291.47 3509.93zM291.47 3777.93L349.5 3811.43L349.5 3878.43L291.47 3911.93L233.45 3878.43L233.45 3811.43zM349.5 4682.43L407.52 4715.93L407.52 4782.93L349.5 4816.43L291.47 4782.93L291.47 4715.93zM349.5 4883.43L407.52 4916.93L407.52 4983.93L349.5 5017.43L291.47 4983.93L291.47 4916.93zM291.47 4983.93L349.5 5017.43L349.5 5084.43L291.47 5117.93L233.45 5084.43L233.45 5017.43zM407.52 159.93L465.55 193.43L465.55 260.43L407.52 293.93L349.5 260.43L349.5 193.43zM465.55 260.43L523.57 293.93L523.57 360.93L465.55 394.43L407.52 360.93L407.52 293.93zM465.55 863.43L523.57 896.93L523.57 963.93L465.55 997.43L407.52 963.93L407.52 896.93zM407.52 1164.93L465.55 1198.43L465.55 1265.43L407.52 1298.93L349.5 1265.43L349.5 1198.43zM407.52 2370.93L465.55 2404.43L465.55 2471.43L407.52 2504.93L349.5 2471.43L349.5 2404.43zM465.55 2873.43L523.57 2906.93L523.57 2973.93L465.55 3007.43L407.52 2973.93L407.52 2906.93zM407.52 3978.93L465.55 4012.43L465.55 4079.43L407.52 4112.93L349.5 4079.43L349.5 4012.43zM407.52 4581.93L465.55 4615.43L465.55 4682.43L407.52 4715.93L349.5 4682.43L349.5 4615.43zM465.55 4682.43L523.57 4715.93L523.57 4782.93L465.55 4816.43L407.52 4782.93L407.52 4715.93zM581.6 2270.43L639.62 2303.93L639.62 2370.93L581.6 2404.43L523.57 2370.93L523.57 2303.93zM581.6 2471.43L639.62 2504.93L639.62 2571.93L581.6 2605.43L523.57 2571.93L523.57 2504.93zM581.6 3074.43L639.62 3107.93L639.62 3174.93L581.6 3208.43L523.57 3174.93L523.57 3107.93zM581.6 4481.43L639.62 4514.93L639.62 4581.93L581.6 4615.43L523.57 4581.93L523.57 4514.93zM523.57 4782.93L581.6 4816.43L581.6 4883.43L523.57 4916.93L465.55 4883.43L465.55 4816.43zM639.62 -41.07L697.65 -7.57L697.65 59.43L639.62 92.93L581.6 59.43L581.6 -7.57zM697.65 59.43L755.67 92.93L755.67 159.93L697.65 193.43L639.62 159.93L639.62 92.93zM639.62 360.93L697.65 394.43L697.65 461.43L639.62 494.93L581.6 461.43L581.6 394.43zM697.65 461.43L755.67 494.93L755.67 561.93L697.65 595.43L639.62 561.93L639.62 494.93zM639.62 1968.93L697.65 2002.43L697.65 2069.43L639.62 2102.93L581.6 2069.43L581.6 2002.43zM697.65 2270.43L755.67 2303.93L755.67 2370.93L697.65 2404.43L639.62 2370.93L639.62 2303.93zM639.62 2772.93L697.65 2806.43L697.65 2873.43L639.62 2906.93L581.6 2873.43L581.6 2806.43zM697.65 4481.43L755.67 4514.93L755.67 4581.93L697.65 4615.43L639.62 4581.93L639.62 4514.93zM755.67 -41.07L813.7 -7.57L813.7 59.43L755.67 92.93L697.65 59.43L697.65 -7.57zM813.7 461.43L871.72 494.93L871.72 561.93L813.7 595.43L755.67 561.93L755.67 494.93zM755.67 561.93L813.7 595.43L813.7 662.43L755.67 695.93L697.65 662.43L697.65 595.43zM813.7 662.43L871.72 695.93L871.72 762.93L813.7 796.43L755.67 762.93L755.67 695.93zM755.67 1365.93L813.7 1399.43L813.7 1466.43L755.67 1499.93L697.65 1466.43L697.65 1399.43zM755.67 2169.93L813.7 2203.43L813.7 2270.43L755.67 2303.93L697.65 2270.43L697.65 2203.43zM813.7 2873.43L871.72 2906.93L871.72 2973.93L813.7 3007.43L755.67 2973.93L755.67 2906.93zM755.67 2973.93L813.7 3007.43L813.7 3074.43L755.67 3107.93L697.65 3074.43L697.65 3007.43zM755.67 3375.93L813.7 3409.43L813.7 3476.43L755.67 3509.93L697.65 3476.43L697.65 3409.43zM755.67 4581.93L813.7 4615.43L813.7 4682.43L755.67 4715.93L697.65 4682.43L697.65 4615.43zM929.75 1868.43L987.78 1901.93L987.78 1968.93L929.75 2002.43L871.72 1968.93L871.72 1901.93zM929.75 2069.43L987.78 2102.93L987.78 2169.93L929.75 2203.43L871.72 2169.93L871.72 2102.93zM929.75 2672.43L987.78 2705.93L987.78 2772.93L929.75 2806.43L871.72 2772.93L871.72 2705.93zM871.72 3576.93L929.75 3610.43L929.75 3677.43L871.72 3710.93L813.7 3677.43L813.7 3610.43zM929.75 4280.43L987.78 4313.93L987.78 4380.93L929.75 4414.43L871.72 4380.93L871.72 4313.93zM987.78 1164.93L1045.8 1198.43L1045.8 1265.43L987.78 1298.93L929.75 1265.43L929.75 1198.43zM987.78 1767.93L1045.8 1801.43L1045.8 1868.43L987.78 1901.93L929.75 1868.43L929.75 1801.43zM987.78 3576.93L1045.8 3610.43L1045.8 3677.43L987.78 3710.93L929.75 3677.43L929.75 3610.43zM1103.83 -41.07L1161.85 -7.57L1161.85 59.43L1103.83 92.93L1045.8 59.43L1045.8 -7.57zM1103.83 561.93L1161.85 595.43L1161.85 662.43L1103.83 695.93L1045.8 662.43L1045.8 595.43zM1103.83 2169.93L1161.85 2203.43L1161.85 2270.43L1103.83 2303.93L1045.8 2270.43L1045.8 2203.43zM1161.85 2270.43L1219.88 2303.93L1219.88 2370.93L1161.85 2404.43L1103.83 2370.93L1103.83 2303.93zM1161.85 4682.43L1219.88 4715.93L1219.88 4782.93L1161.85 4816.43L1103.83 4782.93L1103.83 4715.93zM1103.83 4782.93L1161.85 4816.43L1161.85 4883.43L1103.83 4916.93L1045.8 4883.43L1045.8 4816.43zM1219.88 963.93L1277.9 997.43L1277.9 1064.43L1219.88 1097.93L1161.85 1064.43L1161.85 997.43zM1277.9 2270.43L1335.93 2303.93L1335.93 2370.93L1277.9 2404.43L1219.88 2370.93L1219.88 2303.93zM1219.88 3375.93L1277.9 3409.43L1277.9 3476.43L1219.88 3509.93L1161.85 3476.43L1161.85 3409.43zM1277.9 3476.43L1335.93 3509.93L1335.93 3576.93L1277.9 3610.43L1219.88 3576.93L1219.88 3509.93zM1219.88 4380.93L1277.9 4414.43L1277.9 4481.43L1219.88 4514.93L1161.85 4481.43L1161.85 4414.43zM1393.95 662.43L1451.98 695.93L1451.98 762.93L1393.95 796.43L1335.93 762.93L1335.93 695.93zM1393.95 2873.43L1451.98 2906.93L1451.98 2973.93L1393.95 3007.43L1335.93 2973.93L1335.93 2906.93zM1335.93 2973.93L1393.95 3007.43L1393.95 3074.43L1335.93 3107.93L1277.9 3074.43L1277.9 3007.43zM1335.93 4179.93L1393.95 4213.43L1393.95 4280.43L1335.93 4313.93L1277.9 4280.43L1277.9 4213.43zM1335.93 4983.93L1393.95 5017.43L1393.95 5084.43L1335.93 5117.93L1277.9 5084.43L1277.9 5017.43zM1451.98 360.93L1510 394.43L1510 461.43L1451.98 494.93L1393.95 461.43L1393.95 394.43zM1451.98 561.93L1510 595.43L1510 662.43L1451.98 695.93L1393.95 662.43L1393.95 595.43zM1510 1265.43L1568.03 1298.93L1568.03 1365.93L1510 1399.43L1451.98 1365.93L1451.98 1298.93zM1451.98 2571.93L1510 2605.43L1510 2672.43L1451.98 2705.93L1393.95 2672.43L1393.95 2605.43zM1451.98 3978.93L1510 4012.43L1510 4079.43L1451.98 4112.93L1393.95 4079.43L1393.95 4012.43zM1510 4079.43L1568.03 4112.93L1568.03 4179.93L1510 4213.43L1451.98 4179.93L1451.98 4112.93zM1510 4481.43L1568.03 4514.93L1568.03 4581.93L1510 4615.43L1451.98 4581.93L1451.98 4514.93zM1568.03 1566.93L1626.05 1600.43L1626.05 1667.43L1568.03 1700.93L1510 1667.43L1510 1600.43zM1568.03 3777.93L1626.05 3811.43L1626.05 3878.43L1568.03 3911.93L1510 3878.43L1510 3811.43zM1626.05 4883.43L1684.08 4916.93L1684.08 4983.93L1626.05 5017.43L1568.03 4983.93L1568.03 4916.93zM1742.11 59.43L1800.13 92.93L1800.13 159.93L1742.11 193.43L1684.08 159.93L1684.08 92.93zM1742.11 260.43L1800.13 293.93L1800.13 360.93L1742.11 394.43L1684.08 360.93L1684.08 293.93zM1742.11 1466.43L1800.13 1499.93L1800.13 1566.93L1742.11 1600.43L1684.08 1566.93L1684.08 1499.93zM1684.08 1767.93L1742.11 1801.43L1742.11 1868.43L1684.08 1901.93L1626.05 1868.43L1626.05 1801.43zM1742.11 2471.43L1800.13 2504.93L1800.13 2571.93L1742.11 2605.43L1684.08 2571.93L1684.08 2504.93zM1684.08 2772.93L1742.11 2806.43L1742.11 2873.43L1684.08 2906.93L1626.05 2873.43L1626.05 2806.43zM1858.16 59.43L1916.18 92.93L1916.18 159.93L1858.16 193.43L1800.13 159.93L1800.13 92.93zM1800.13 1164.93L1858.16 1198.43L1858.16 1265.43L1800.13 1298.93L1742.11 1265.43L1742.11 1198.43zM1800.13 2571.93L1858.16 2605.43L1858.16 2672.43L1800.13 2705.93L1742.11 2672.43L1742.11 2605.43zM1800.13 3777.93L1858.16 3811.43L1858.16 3878.43L1800.13 3911.93L1742.11 3878.43L1742.11 3811.43zM1916.18 -41.07L1974.21 -7.57L1974.21 59.43L1916.18 92.93L1858.16 59.43L1858.16 -7.57zM1974.21 59.43L2032.23 92.93L2032.23 159.93L1974.21 193.43L1916.18 159.93L1916.18 92.93zM1974.21 1265.43L2032.23 1298.93L2032.23 1365.93L1974.21 1399.43L1916.18 1365.93L1916.18 1298.93zM1974.21 2672.43L2032.23 2705.93L2032.23 2772.93L1974.21 2806.43L1916.18 2772.93L1916.18 2705.93zM1974.21 4079.43L2032.23 4112.93L2032.23 4179.93L1974.21 4213.43L1916.18 4179.93L1916.18 4112.93zM1974.21 4481.43L2032.23 4514.93L2032.23 4581.93L1974.21 4615.43L1916.18 4581.93L1916.18 4514.93zM1916.18 4983.93L1974.21 5017.43L1974.21 5084.43L1916.18 5117.93L1858.16 5084.43L1858.16 5017.43zM2032.23 -41.07L2090.26 -7.57L2090.26 59.43L2032.23 92.93L1974.21 59.43L1974.21 -7.57zM2032.23 159.93L2090.26 193.43L2090.26 260.43L2032.23 293.93L1974.21 260.43L1974.21 193.43zM2090.26 461.43L2148.28 494.93L2148.28 561.93L2090.26 595.43L2032.23 561.93L2032.23 494.93zM2032.23 561.93L2090.26 595.43L2090.26 662.43L2032.23 695.93L1974.21 662.43L1974.21 595.43zM2090.26 662.43L2148.28 695.93L2148.28 762.93L2090.26 796.43L2032.23 762.93L2032.23 695.93zM2032.23 1566.93L2090.26 1600.43L2090.26 1667.43L2032.23 1700.93L1974.21 1667.43L1974.21 1600.43zM2090.26 1868.43L2148.28 1901.93L2148.28 1968.93L2090.26 2002.43L2032.23 1968.93L2032.23 1901.93zM2090.26 2471.43L2148.28 2504.93L2148.28 2571.93L2090.26 2605.43L2032.23 2571.93L2032.23 2504.93zM2090.26 3878.43L2148.28 3911.93L2148.28 3978.93L2090.26 4012.43L2032.23 3978.93L2032.23 3911.93zM2032.23 4179.93L2090.26 4213.43L2090.26 4280.43L2032.23 4313.93L1974.21 4280.43L1974.21 4213.43zM2090.26 4682.43L2148.28 4715.93L2148.28 4782.93L2090.26 4816.43L2032.23 4782.93L2032.23 4715.93zM2148.28 1365.93L2206.31 1399.43L2206.31 1466.43L2148.28 1499.93L2090.26 1466.43L2090.26 1399.43zM2148.28 4179.93L2206.31 4213.43L2206.31 4280.43L2148.28 4313.93L2090.26 4280.43L2090.26 4213.43zM2148.28 4380.93L2206.31 4414.43L2206.31 4481.43L2148.28 4514.93L2090.26 4481.43L2090.26 4414.43zM2322.36 59.43L2380.38 92.93L2380.38 159.93L2322.36 193.43L2264.33 159.93L2264.33 92.93zM2264.33 1566.93L2322.36 1600.43L2322.36 1667.43L2264.33 1700.93L2206.31 1667.43L2206.31 1600.43zM2380.38 159.93L2438.41 193.43L2438.41 260.43L2380.38 293.93L2322.36 260.43L2322.36 193.43zM2438.41 461.43L2496.43 494.93L2496.43 561.93L2438.41 595.43L2380.38 561.93L2380.38 494.93zM2380.38 561.93L2438.41 595.43L2438.41 662.43L2380.38 695.93L2322.36 662.43L2322.36 595.43zM2438.41 3074.43L2496.43 3107.93L2496.43 3174.93L2438.41 3208.43L2380.38 3174.93L2380.38 3107.93zM2380.38 3978.93L2438.41 4012.43L2438.41 4079.43L2380.38 4112.93L2322.36 4079.43L2322.36 4012.43zM2438.41 4079.43L2496.43 4112.93L2496.43 4179.93L2438.41 4213.43L2380.38 4179.93L2380.38 4112.93zM2496.43 963.93L2554.46 997.43L2554.46 1064.43L2496.43 1097.93L2438.41 1064.43L2438.41 997.43zM2554.46 2270.43L2612.49 2303.93L2612.49 2370.93L2554.46 2404.43L2496.43 2370.93L2496.43 2303.93zM2496.43 2370.93L2554.46 2404.43L2554.46 2471.43L2496.43 2504.93L2438.41 2471.43L2438.41 2404.43zM2554.46 3074.43L2612.49 3107.93L2612.49 3174.93L2554.46 3208.43L2496.43 3174.93L2496.43 3107.93zM2554.46 4079.43L2612.49 4112.93L2612.49 4179.93L2554.46 4213.43L2496.43 4179.93L2496.43 4112.93zM2612.49 1566.93L2670.51 1600.43L2670.51 1667.43L2612.49 1700.93L2554.46 1667.43L2554.46 1600.43zM2612.49 2571.93L2670.51 2605.43L2670.51 2672.43L2612.49 2705.93L2554.46 2672.43L2554.46 2605.43zM2612.49 3174.93L2670.51 3208.43L2670.51 3275.43L2612.49 3308.93L2554.46 3275.43L2554.46 3208.43zM2670.51 3275.43L2728.54 3308.93L2728.54 3375.93L2670.51 3409.43L2612.49 3375.93L2612.49 3308.93zM2670.51 3476.43L2728.54 3509.93L2728.54 3576.93L2670.51 3610.43L2612.49 3576.93L2612.49 3509.93zM2670.51 4079.43L2728.54 4112.93L2728.54 4179.93L2670.51 4213.43L2612.49 4179.93L2612.49 4112.93z" stroke="url(&quot;#SvgjsLinearGradient7706&quot;)" stroke-width="2"></path><path d="M52.67 762.93 a6.7 6.7 0 1 0 13.4 0 a6.7 6.7 0 1 0 -13.4 0zM110.7 796.43 a6.7 6.7 0 1 0 13.4 0 a6.7 6.7 0 1 0 -13.4 0zM110.7 863.43 a6.7 6.7 0 1 0 13.4 0 a6.7 6.7 0 1 0 -13.4 0zM52.67 896.93 a6.7 6.7 0 1 0 13.4 0 a6.7 6.7 0 1 0 -13.4 0zM-5.36 863.43 a6.7 6.7 0 1 0 13.4 0 a6.7 6.7 0 1 0 -13.4 0zM-5.36 796.43 a6.7 6.7 0 1 0 13.4 0 a6.7 6.7 0 1 0 -13.4 0zM168.72 896.93 a6.7 6.7 0 1 0 13.4 0 a6.7 6.7 0 1 0 -13.4 0zM168.72 963.93 a6.7 6.7 0 1 0 13.4 0 a6.7 6.7 0 1 0 -13.4 0zM110.7 997.43 a6.7 6.7 0 1 0 13.4 0 a6.7 6.7 0 1 0 -13.4 0zM52.67 963.93 a6.7 6.7 0 1 0 13.4 0 a6.7 6.7 0 1 0 -13.4 0zM110.7 1466.43 a6.7 6.7 0 1 0 13.4 0 a6.7 6.7 0 1 0 -13.4 0zM168.72 1499.93 a6.7 6.7 0 1 0 13.4 0 a6.7 6.7 0 1 0 -13.4 0zM168.72 1566.93 a6.7 6.7 0 1 0 13.4 0 a6.7 6.7 0 1 0 -13.4 0zM110.7 1600.43 a6.7 6.7 0 1 0 13.4 0 a6.7 6.7 0 1 0 -13.4 0zM52.67 1566.93 a6.7 6.7 0 1 0 13.4 0 a6.7 6.7 0 1 0 -13.4 0zM52.67 1499.93 a6.7 6.7 0 1 0 13.4 0 a6.7 6.7 0 1 0 -13.4 0zM110.7 2270.43 a6.7 6.7 0 1 0 13.4 0 a6.7 6.7 0 1 0 -13.4 0zM168.72 2303.93 a6.7 6.7 0 1 0 13.4 0 a6.7 6.7 0 1 0 -13.4 0zM168.72 2370.93 a6.7 6.7 0 1 0 13.4 0 a6.7 6.7 0 1 0 -13.4 0zM110.7 2404.43 a6.7 6.7 0 1 0 13.4 0 a6.7 6.7 0 1 0 -13.4 0zM52.67 2370.93 a6.7 6.7 0 1 0 13.4 0 a6.7 6.7 0 1 0 -13.4 0zM52.67 2303.93 a6.7 6.7 0 1 0 13.4 0 a6.7 6.7 0 1 0 -13.4 0zM52.67 2772.93 a6.7 6.7 0 1 0 13.4 0 a6.7 6.7 0 1 0 -13.4 0zM110.7 2806.43 a6.7 6.7 0 1 0 13.4 0 a6.7 6.7 0 1 0 -13.4 0zM110.7 2873.43 a6.7 6.7 0 1 0 13.4 0 a6.7 6.7 0 1 0 -13.4 0zM52.67 2906.93 a6.7 6.7 0 1 0 13.4 0 a6.7 6.7 0 1 0 -13.4 0zM-5.36 2873.43 a6.7 6.7 0 1 0 13.4 0 a6.7 6.7 0 1 0 -13.4 0zM-5.36 2806.43 a6.7 6.7 0 1 0 13.4 0 a6.7 6.7 0 1 0 -13.4 0zM52.67 2973.93 a6.7 6.7 0 1 0 13.4 0 a6.7 6.7 0 1 0 -13.4 0zM110.7 3007.43 a6.7 6.7 0 1 0 13.4 0 a6.7 6.7 0 1 0 -13.4 0zM110.7 3074.43 a6.7 6.7 0 1 0 13.4 0 a6.7 6.7 0 1 0 -13.4 0zM52.67 3107.93 a6.7 6.7 0 1 0 13.4 0 a6.7 6.7 0 1 0 -13.4 0zM-5.36 3074.43 a6.7 6.7 0 1 0 13.4 0 a6.7 6.7 0 1 0 -13.4 0zM-5.36 3007.43 a6.7 6.7 0 1 0 13.4 0 a6.7 6.7 0 1 0 -13.4 0zM110.7 3476.43 a6.7 6.7 0 1 0 13.4 0 a6.7 6.7 0 1 0 -13.4 0zM168.72 3509.93 a6.7 6.7 0 1 0 13.4 0 a6.7 6.7 0 1 0 -13.4 0zM168.72 3576.93 a6.7 6.7 0 1 0 13.4 0 a6.7 6.7 0 1 0 -13.4 0zM110.7 3610.43 a6.7 6.7 0 1 0 13.4 0 a6.7 6.7 0 1 0 -13.4 0zM52.67 3576.93 a6.7 6.7 0 1 0 13.4 0 a6.7 6.7 0 1 0 -13.4 0zM52.67 3509.93 a6.7 6.7 0 1 0 13.4 0 a6.7 6.7 0 1 0 -13.4 0zM52.67 3978.93 a6.7 6.7 0 1 0 13.4 0 a6.7 6.7 0 1 0 -13.4 0zM110.7 4012.43 a6.7 6.7 0 1 0 13.4 0 a6.7 6.7 0 1 0 -13.4 0zM110.7 4079.43 a6.7 6.7 0 1 0 13.4 0 a6.7 6.7 0 1 0 -13.4 0zM52.67 4112.93 a6.7 6.7 0 1 0 13.4 0 a6.7 6.7 0 1 0 -13.4 0zM-5.36 4079.43 a6.7 6.7 0 1 0 13.4 0 a6.7 6.7 0 1 0 -13.4 0zM-5.36 4012.43 a6.7 6.7 0 1 0 13.4 0 a6.7 6.7 0 1 0 -13.4 0zM110.7 4280.43 a6.7 6.7 0 1 0 13.4 0 a6.7 6.7 0 1 0 -13.4 0zM168.72 4313.93 a6.7 6.7 0 1 0 13.4 0 a6.7 6.7 0 1 0 -13.4 0zM168.72 4380.93 a6.7 6.7 0 1 0 13.4 0 a6.7 6.7 0 1 0 -13.4 0zM110.7 4414.43 a6.7 6.7 0 1 0 13.4 0 a6.7 6.7 0 1 0 -13.4 0zM52.67 4380.93 a6.7 6.7 0 1 0 13.4 0 a6.7 6.7 0 1 0 -13.4 0zM52.67 4313.93 a6.7 6.7 0 1 0 13.4 0 a6.7 6.7 0 1 0 -13.4 0zM52.67 4782.93 a6.7 6.7 0 1 0 13.4 0 a6.7 6.7 0 1 0 -13.4 0zM110.7 4816.43 a6.7 6.7 0 1 0 13.4 0 a6.7 6.7 0 1 0 -13.4 0zM110.7 4883.43 a6.7 6.7 0 1 0 13.4 0 a6.7 6.7 0 1 0 -13.4 0zM52.67 4916.93 a6.7 6.7 0 1 0 13.4 0 a6.7 6.7 0 1 0 -13.4 0zM-5.36 4883.43 a6.7 6.7 0 1 0 13.4 0 a6.7 6.7 0 1 0 -13.4 0zM-5.36 4816.43 a6.7 6.7 0 1 0 13.4 0 a6.7 6.7 0 1 0 -13.4 0zM226.75 997.43 a6.7 6.7 0 1 0 13.4 0 a6.7 6.7 0 1 0 -13.4 0zM226.75 1064.43 a6.7 6.7 0 1 0 13.4 0 a6.7 6.7 0 1 0 -13.4 0zM168.72 1097.93 a6.7 6.7 0 1 0 13.4 0 a6.7 6.7 0 1 0 -13.4 0zM110.7 1064.43 a6.7 6.7 0 1 0 13.4 0 a6.7 6.7 0 1 0 -13.4 0zM284.77 1097.93 a6.7 6.7 0 1 0 13.4 0 a6.7 6.7 0 1 0 -13.4 0zM284.77 1164.93 a6.7 6.7 0 1 0 13.4 0 a6.7 6.7 0 1 0 -13.4 0zM226.75 1198.43 a6.7 6.7 0 1 0 13.4 0 a6.7 6.7 0 1 0 -13.4 0zM168.72 1164.93 a6.7 6.7 0 1 0 13.4 0 a6.7 6.7 0 1 0 -13.4 0zM226.75 3074.43 a6.7 6.7 0 1 0 13.4 0 a6.7 6.7 0 1 0 -13.4 0zM284.77 3107.93 a6.7 6.7 0 1 0 13.4 0 a6.7 6.7 0 1 0 -13.4 0zM284.77 3174.93 a6.7 6.7 0 1 0 13.4 0 a6.7 6.7 0 1 0 -13.4 0zM226.75 3208.43 a6.7 6.7 0 1 0 13.4 0 a6.7 6.7 0 1 0 -13.4 0zM168.72 3174.93 a6.7 6.7 0 1 0 13.4 0 a6.7 6.7 0 1 0 -13.4 0zM168.72 3107.93 a6.7 6.7 0 1 0 13.4 0 a6.7 6.7 0 1 0 -13.4 0zM226.75 4883.43 a6.7 6.7 0 1 0 13.4 0 a6.7 6.7 0 1 0 -13.4 0zM284.77 4916.93 a6.7 6.7 0 1 0 13.4 0 a6.7 6.7 0 1 0 -13.4 0zM284.77 4983.93 a6.7 6.7 0 1 0 13.4 0 a6.7 6.7 0 1 0 -13.4 0zM226.75 5017.43 a6.7 6.7 0 1 0 13.4 0 a6.7 6.7 0 1 0 -13.4 0zM168.72 4983.93 a6.7 6.7 0 1 0 13.4 0 a6.7 6.7 0 1 0 -13.4 0zM168.72 4916.93 a6.7 6.7 0 1 0 13.4 0 a6.7 6.7 0 1 0 -13.4 0zM284.77 -41.07 a6.7 6.7 0 1 0 13.4 0 a6.7 6.7 0 1 0 -13.4 0zM342.8 -7.57 a6.7 6.7 0 1 0 13.4 0 a6.7 6.7 0 1 0 -13.4 0zM342.8 59.43 a6.7 6.7 0 1 0 13.4 0 a6.7 6.7 0 1 0 -13.4 0zM284.77 92.93 a6.7 6.7 0 1 0 13.4 0 a6.7 6.7 0 1 0 -13.4 0zM226.75 59.43 a6.7 6.7 0 1 0 13.4 0 a6.7 6.7 0 1 0 -13.4 0zM226.75 -7.57 a6.7 6.7 0 1 0 13.4 0 a6.7 6.7 0 1 0 -13.4 0zM284.77 963.93 a6.7 6.7 0 1 0 13.4 0 a6.7 6.7 0 1 0 -13.4 0zM342.8 997.43 a6.7 6.7 0 1 0 13.4 0 a6.7 6.7 0 1 0 -13.4 0zM342.8 1064.43 a6.7 6.7 0 1 0 13.4 0 a6.7 6.7 0 1 0 -13.4 0zM342.8 1198.43 a6.7 6.7 0 1 0 13.4 0 a6.7 6.7 0 1 0 -13.4 0zM342.8 1265.43 a6.7 6.7 0 1 0 13.4 0 a6.7 6.7 0 1 0 -13.4 0zM284.77 1298.93 a6.7 6.7 0 1 0 13.4 0 a6.7 6.7 0 1 0 -13.4 0zM226.75 1265.43 a6.7 6.7 0 1 0 13.4 0 a6.7 6.7 0 1 0 -13.4 0zM284.77 1767.93 a6.7 6.7 0 1 0 13.4 0 a6.7 6.7 0 1 0 -13.4 0zM342.8 1801.43 a6.7 6.7 0 1 0 13.4 0 a6.7 6.7 0 1 0 -13.4 0zM342.8 1868.43 a6.7 6.7 0 1 0 13.4 0 a6.7 6.7 0 1 0 -13.4 0zM284.77 1901.93 a6.7 6.7 0 1 0 13.4 0 a6.7 6.7 0 1 0 -13.4 0zM226.75 1868.43 a6.7 6.7 0 1 0 13.4 0 a6.7 6.7 0 1 0 -13.4 0zM226.75 1801.43 a6.7 6.7 0 1 0 13.4 0 a6.7 6.7 0 1 0 -13.4 0zM342.8 3476.43 a6.7 6.7 0 1 0 13.4 0 a6.7 6.7 0 1 0 -13.4 0zM400.82 3509.93 a6.7 6.7 0 1 0 13.4 0 a6.7 6.7 0 1 0 -13.4 0zM400.82 3576.93 a6.7 6.7 0 1 0 13.4 0 a6.7 6.7 0 1 0 -13.4 0zM342.8 3610.43 a6.7 6.7 0 1 0 13.4 0 a6.7 6.7 0 1 0 -13.4 0zM284.77 3576.93 a6.7 6.7 0 1 0 13.4 0 a6.7 6.7 0 1 0 -13.4 0zM284.77 3509.93 a6.7 6.7 0 1 0 13.4 0 a6.7 6.7 0 1 0 -13.4 0zM284.77 3777.93 a6.7 6.7 0 1 0 13.4 0 a6.7 6.7 0 1 0 -13.4 0zM342.8 3811.43 a6.7 6.7 0 1 0 13.4 0 a6.7 6.7 0 1 0 -13.4 0zM342.8 3878.43 a6.7 6.7 0 1 0 13.4 0 a6.7 6.7 0 1 0 -13.4 0zM284.77 3911.93 a6.7 6.7 0 1 0 13.4 0 a6.7 6.7 0 1 0 -13.4 0zM226.75 3878.43 a6.7 6.7 0 1 0 13.4 0 a6.7 6.7 0 1 0 -13.4 0zM226.75 3811.43 a6.7 6.7 0 1 0 13.4 0 a6.7 6.7 0 1 0 -13.4 0zM342.8 4682.43 a6.7 6.7 0 1 0 13.4 0 a6.7 6.7 0 1 0 -13.4 0zM400.82 4715.93 a6.7 6.7 0 1 0 13.4 0 a6.7 6.7 0 1 0 -13.4 0zM400.82 4782.93 a6.7 6.7 0 1 0 13.4 0 a6.7 6.7 0 1 0 -13.4 0zM342.8 4816.43 a6.7 6.7 0 1 0 13.4 0 a6.7 6.7 0 1 0 -13.4 0zM284.77 4782.93 a6.7 6.7 0 1 0 13.4 0 a6.7 6.7 0 1 0 -13.4 0zM284.77 4715.93 a6.7 6.7 0 1 0 13.4 0 a6.7 6.7 0 1 0 -13.4 0zM342.8 4883.43 a6.7 6.7 0 1 0 13.4 0 a6.7 6.7 0 1 0 -13.4 0zM400.82 4916.93 a6.7 6.7 0 1 0 13.4 0 a6.7 6.7 0 1 0 -13.4 0zM400.82 4983.93 a6.7 6.7 0 1 0 13.4 0 a6.7 6.7 0 1 0 -13.4 0zM342.8 5017.43 a6.7 6.7 0 1 0 13.4 0 a6.7 6.7 0 1 0 -13.4 0zM342.8 5084.43 a6.7 6.7 0 1 0 13.4 0 a6.7 6.7 0 1 0 -13.4 0zM284.77 5117.93 a6.7 6.7 0 1 0 13.4 0 a6.7 6.7 0 1 0 -13.4 0zM226.75 5084.43 a6.7 6.7 0 1 0 13.4 0 a6.7 6.7 0 1 0 -13.4 0zM400.82 159.93 a6.7 6.7 0 1 0 13.4 0 a6.7 6.7 0 1 0 -13.4 0zM458.85 193.43 a6.7 6.7 0 1 0 13.4 0 a6.7 6.7 0 1 0 -13.4 0zM458.85 260.43 a6.7 6.7 0 1 0 13.4 0 a6.7 6.7 0 1 0 -13.4 0zM400.82 293.93 a6.7 6.7 0 1 0 13.4 0 a6.7 6.7 0 1 0 -13.4 0zM342.8 260.43 a6.7 6.7 0 1 0 13.4 0 a6.7 6.7 0 1 0 -13.4 0zM342.8 193.43 a6.7 6.7 0 1 0 13.4 0 a6.7 6.7 0 1 0 -13.4 0zM516.87 293.93 a6.7 6.7 0 1 0 13.4 0 a6.7 6.7 0 1 0 -13.4 0zM516.87 360.93 a6.7 6.7 0 1 0 13.4 0 a6.7 6.7 0 1 0 -13.4 0zM458.85 394.43 a6.7 6.7 0 1 0 13.4 0 a6.7 6.7 0 1 0 -13.4 0zM400.82 360.93 a6.7 6.7 0 1 0 13.4 0 a6.7 6.7 0 1 0 -13.4 0zM458.85 863.43 a6.7 6.7 0 1 0 13.4 0 a6.7 6.7 0 1 0 -13.4 0zM516.87 896.93 a6.7 6.7 0 1 0 13.4 0 a6.7 6.7 0 1 0 -13.4 0zM516.87 963.93 a6.7 6.7 0 1 0 13.4 0 a6.7 6.7 0 1 0 -13.4 0zM458.85 997.43 a6.7 6.7 0 1 0 13.4 0 a6.7 6.7 0 1 0 -13.4 0zM400.82 963.93 a6.7 6.7 0 1 0 13.4 0 a6.7 6.7 0 1 0 -13.4 0zM400.82 896.93 a6.7 6.7 0 1 0 13.4 0 a6.7 6.7 0 1 0 -13.4 0zM400.82 1164.93 a6.7 6.7 0 1 0 13.4 0 a6.7 6.7 0 1 0 -13.4 0zM458.85 1198.43 a6.7 6.7 0 1 0 13.4 0 a6.7 6.7 0 1 0 -13.4 0zM458.85 1265.43 a6.7 6.7 0 1 0 13.4 0 a6.7 6.7 0 1 0 -13.4 0zM400.82 1298.93 a6.7 6.7 0 1 0 13.4 0 a6.7 6.7 0 1 0 -13.4 0zM400.82 2370.93 a6.7 6.7 0 1 0 13.4 0 a6.7 6.7 0 1 0 -13.4 0zM458.85 2404.43 a6.7 6.7 0 1 0 13.4 0 a6.7 6.7 0 1 0 -13.4 0zM458.85 2471.43 a6.7 6.7 0 1 0 13.4 0 a6.7 6.7 0 1 0 -13.4 0zM400.82 2504.93 a6.7 6.7 0 1 0 13.4 0 a6.7 6.7 0 1 0 -13.4 0zM342.8 2471.43 a6.7 6.7 0 1 0 13.4 0 a6.7 6.7 0 1 0 -13.4 0zM342.8 2404.43 a6.7 6.7 0 1 0 13.4 0 a6.7 6.7 0 1 0 -13.4 0zM458.85 2873.43 a6.7 6.7 0 1 0 13.4 0 a6.7 6.7 0 1 0 -13.4 0zM516.87 2906.93 a6.7 6.7 0 1 0 13.4 0 a6.7 6.7 0 1 0 -13.4 0zM516.87 2973.93 a6.7 6.7 0 1 0 13.4 0 a6.7 6.7 0 1 0 -13.4 0zM458.85 3007.43 a6.7 6.7 0 1 0 13.4 0 a6.7 6.7 0 1 0 -13.4 0zM400.82 2973.93 a6.7 6.7 0 1 0 13.4 0 a6.7 6.7 0 1 0 -13.4 0zM400.82 2906.93 a6.7 6.7 0 1 0 13.4 0 a6.7 6.7 0 1 0 -13.4 0zM400.82 3978.93 a6.7 6.7 0 1 0 13.4 0 a6.7 6.7 0 1 0 -13.4 0zM458.85 4012.43 a6.7 6.7 0 1 0 13.4 0 a6.7 6.7 0 1 0 -13.4 0zM458.85 4079.43 a6.7 6.7 0 1 0 13.4 0 a6.7 6.7 0 1 0 -13.4 0zM400.82 4112.93 a6.7 6.7 0 1 0 13.4 0 a6.7 6.7 0 1 0 -13.4 0zM342.8 4079.43 a6.7 6.7 0 1 0 13.4 0 a6.7 6.7 0 1 0 -13.4 0zM342.8 4012.43 a6.7 6.7 0 1 0 13.4 0 a6.7 6.7 0 1 0 -13.4 0zM400.82 4581.93 a6.7 6.7 0 1 0 13.4 0 a6.7 6.7 0 1 0 -13.4 0zM458.85 4615.43 a6.7 6.7 0 1 0 13.4 0 a6.7 6.7 0 1 0 -13.4 0zM458.85 4682.43 a6.7 6.7 0 1 0 13.4 0 a6.7 6.7 0 1 0 -13.4 0zM342.8 4615.43 a6.7 6.7 0 1 0 13.4 0 a6.7 6.7 0 1 0 -13.4 0zM516.87 4715.93 a6.7 6.7 0 1 0 13.4 0 a6.7 6.7 0 1 0 -13.4 0zM516.87 4782.93 a6.7 6.7 0 1 0 13.4 0 a6.7 6.7 0 1 0 -13.4 0zM458.85 4816.43 a6.7 6.7 0 1 0 13.4 0 a6.7 6.7 0 1 0 -13.4 0zM574.9 2270.43 a6.7 6.7 0 1 0 13.4 0 a6.7 6.7 0 1 0 -13.4 0zM632.92 2303.93 a6.7 6.7 0 1 0 13.4 0 a6.7 6.7 0 1 0 -13.4 0zM632.92 2370.93 a6.7 6.7 0 1 0 13.4 0 a6.7 6.7 0 1 0 -13.4 0zM574.9 2404.43 a6.7 6.7 0 1 0 13.4 0 a6.7 6.7 0 1 0 -13.4 0zM516.87 2370.93 a6.7 6.7 0 1 0 13.4 0 a6.7 6.7 0 1 0 -13.4 0zM516.87 2303.93 a6.7 6.7 0 1 0 13.4 0 a6.7 6.7 0 1 0 -13.4 0zM574.9 2471.43 a6.7 6.7 0 1 0 13.4 0 a6.7 6.7 0 1 0 -13.4 0zM632.92 2504.93 a6.7 6.7 0 1 0 13.4 0 a6.7 6.7 0 1 0 -13.4 0zM632.92 2571.93 a6.7 6.7 0 1 0 13.4 0 a6.7 6.7 0 1 0 -13.4 0zM574.9 2605.43 a6.7 6.7 0 1 0 13.4 0 a6.7 6.7 0 1 0 -13.4 0zM516.87 2571.93 a6.7 6.7 0 1 0 13.4 0 a6.7 6.7 0 1 0 -13.4 0zM516.87 2504.93 a6.7 6.7 0 1 0 13.4 0 a6.7 6.7 0 1 0 -13.4 0zM574.9 3074.43 a6.7 6.7 0 1 0 13.4 0 a6.7 6.7 0 1 0 -13.4 0zM632.92 3107.93 a6.7 6.7 0 1 0 13.4 0 a6.7 6.7 0 1 0 -13.4 0zM632.92 3174.93 a6.7 6.7 0 1 0 13.4 0 a6.7 6.7 0 1 0 -13.4 0zM574.9 3208.43 a6.7 6.7 0 1 0 13.4 0 a6.7 6.7 0 1 0 -13.4 0zM516.87 3174.93 a6.7 6.7 0 1 0 13.4 0 a6.7 6.7 0 1 0 -13.4 0zM516.87 3107.93 a6.7 6.7 0 1 0 13.4 0 a6.7 6.7 0 1 0 -13.4 0zM574.9 4481.43 a6.7 6.7 0 1 0 13.4 0 a6.7 6.7 0 1 0 -13.4 0zM632.92 4514.93 a6.7 6.7 0 1 0 13.4 0 a6.7 6.7 0 1 0 -13.4 0zM632.92 4581.93 a6.7 6.7 0 1 0 13.4 0 a6.7 6.7 0 1 0 -13.4 0zM574.9 4615.43 a6.7 6.7 0 1 0 13.4 0 a6.7 6.7 0 1 0 -13.4 0zM516.87 4581.93 a6.7 6.7 0 1 0 13.4 0 a6.7 6.7 0 1 0 -13.4 0zM516.87 4514.93 a6.7 6.7 0 1 0 13.4 0 a6.7 6.7 0 1 0 -13.4 0zM574.9 4816.43 a6.7 6.7 0 1 0 13.4 0 a6.7 6.7 0 1 0 -13.4 0zM574.9 4883.43 a6.7 6.7 0 1 0 13.4 0 a6.7 6.7 0 1 0 -13.4 0zM516.87 4916.93 a6.7 6.7 0 1 0 13.4 0 a6.7 6.7 0 1 0 -13.4 0zM458.85 4883.43 a6.7 6.7 0 1 0 13.4 0 a6.7 6.7 0 1 0 -13.4 0zM632.92 -41.07 a6.7 6.7 0 1 0 13.4 0 a6.7 6.7 0 1 0 -13.4 0zM690.95 -7.57 a6.7 6.7 0 1 0 13.4 0 a6.7 6.7 0 1 0 -13.4 0zM690.95 59.43 a6.7 6.7 0 1 0 13.4 0 a6.7 6.7 0 1 0 -13.4 0zM632.92 92.93 a6.7 6.7 0 1 0 13.4 0 a6.7 6.7 0 1 0 -13.4 0zM574.9 59.43 a6.7 6.7 0 1 0 13.4 0 a6.7 6.7 0 1 0 -13.4 0zM574.9 -7.57 a6.7 6.7 0 1 0 13.4 0 a6.7 6.7 0 1 0 -13.4 0zM748.97 92.93 a6.7 6.7 0 1 0 13.4 0 a6.7 6.7 0 1 0 -13.4 0zM748.97 159.93 a6.7 6.7 0 1 0 13.4 0 a6.7 6.7 0 1 0 -13.4 0zM690.95 193.43 a6.7 6.7 0 1 0 13.4 0 a6.7 6.7 0 1 0 -13.4 0zM632.92 159.93 a6.7 6.7 0 1 0 13.4 0 a6.7 6.7 0 1 0 -13.4 0zM632.92 360.93 a6.7 6.7 0 1 0 13.4 0 a6.7 6.7 0 1 0 -13.4 0zM690.95 394.43 a6.7 6.7 0 1 0 13.4 0 a6.7 6.7 0 1 0 -13.4 0zM690.95 461.43 a6.7 6.7 0 1 0 13.4 0 a6.7 6.7 0 1 0 -13.4 0zM632.92 494.93 a6.7 6.7 0 1 0 13.4 0 a6.7 6.7 0 1 0 -13.4 0zM574.9 461.43 a6.7 6.7 0 1 0 13.4 0 a6.7 6.7 0 1 0 -13.4 0zM574.9 394.43 a6.7 6.7 0 1 0 13.4 0 a6.7 6.7 0 1 0 -13.4 0zM748.97 494.93 a6.7 6.7 0 1 0 13.4 0 a6.7 6.7 0 1 0 -13.4 0zM748.97 561.93 a6.7 6.7 0 1 0 13.4 0 a6.7 6.7 0 1 0 -13.4 0zM690.95 595.43 a6.7 6.7 0 1 0 13.4 0 a6.7 6.7 0 1 0 -13.4 0zM632.92 561.93 a6.7 6.7 0 1 0 13.4 0 a6.7 6.7 0 1 0 -13.4 0zM632.92 1968.93 a6.7 6.7 0 1 0 13.4 0 a6.7 6.7 0 1 0 -13.4 0zM690.95 2002.43 a6.7 6.7 0 1 0 13.4 0 a6.7 6.7 0 1 0 -13.4 0zM690.95 2069.43 a6.7 6.7 0 1 0 13.4 0 a6.7 6.7 0 1 0 -13.4 0zM632.92 2102.93 a6.7 6.7 0 1 0 13.4 0 a6.7 6.7 0 1 0 -13.4 0zM574.9 2069.43 a6.7 6.7 0 1 0 13.4 0 a6.7 6.7 0 1 0 -13.4 0zM574.9 2002.43 a6.7 6.7 0 1 0 13.4 0 a6.7 6.7 0 1 0 -13.4 0zM690.95 2270.43 a6.7 6.7 0 1 0 13.4 0 a6.7 6.7 0 1 0 -13.4 0zM748.97 2303.93 a6.7 6.7 0 1 0 13.4 0 a6.7 6.7 0 1 0 -13.4 0zM748.97 2370.93 a6.7 6.7 0 1 0 13.4 0 a6.7 6.7 0 1 0 -13.4 0zM690.95 2404.43 a6.7 6.7 0 1 0 13.4 0 a6.7 6.7 0 1 0 -13.4 0zM632.92 2772.93 a6.7 6.7 0 1 0 13.4 0 a6.7 6.7 0 1 0 -13.4 0zM690.95 2806.43 a6.7 6.7 0 1 0 13.4 0 a6.7 6.7 0 1 0 -13.4 0zM690.95 2873.43 a6.7 6.7 0 1 0 13.4 0 a6.7 6.7 0 1 0 -13.4 0zM632.92 2906.93 a6.7 6.7 0 1 0 13.4 0 a6.7 6.7 0 1 0 -13.4 0zM574.9 2873.43 a6.7 6.7 0 1 0 13.4 0 a6.7 6.7 0 1 0 -13.4 0zM574.9 2806.43 a6.7 6.7 0 1 0 13.4 0 a6.7 6.7 0 1 0 -13.4 0zM690.95 4481.43 a6.7 6.7 0 1 0 13.4 0 a6.7 6.7 0 1 0 -13.4 0zM748.97 4514.93 a6.7 6.7 0 1 0 13.4 0 a6.7 6.7 0 1 0 -13.4 0zM748.97 4581.93 a6.7 6.7 0 1 0 13.4 0 a6.7 6.7 0 1 0 -13.4 0zM690.95 4615.43 a6.7 6.7 0 1 0 13.4 0 a6.7 6.7 0 1 0 -13.4 0zM748.97 -41.07 a6.7 6.7 0 1 0 13.4 0 a6.7 6.7 0 1 0 -13.4 0zM807 -7.57 a6.7 6.7 0 1 0 13.4 0 a6.7 6.7 0 1 0 -13.4 0zM807 59.43 a6.7 6.7 0 1 0 13.4 0 a6.7 6.7 0 1 0 -13.4 0zM807 461.43 a6.7 6.7 0 1 0 13.4 0 a6.7 6.7 0 1 0 -13.4 0zM865.02 494.93 a6.7 6.7 0 1 0 13.4 0 a6.7 6.7 0 1 0 -13.4 0zM865.02 561.93 a6.7 6.7 0 1 0 13.4 0 a6.7 6.7 0 1 0 -13.4 0zM807 595.43 a6.7 6.7 0 1 0 13.4 0 a6.7 6.7 0 1 0 -13.4 0zM807 662.43 a6.7 6.7 0 1 0 13.4 0 a6.7 6.7 0 1 0 -13.4 0zM748.97 695.93 a6.7 6.7 0 1 0 13.4 0 a6.7 6.7 0 1 0 -13.4 0zM690.95 662.43 a6.7 6.7 0 1 0 13.4 0 a6.7 6.7 0 1 0 -13.4 0zM865.02 695.93 a6.7 6.7 0 1 0 13.4 0 a6.7 6.7 0 1 0 -13.4 0zM865.02 762.93 a6.7 6.7 0 1 0 13.4 0 a6.7 6.7 0 1 0 -13.4 0zM807 796.43 a6.7 6.7 0 1 0 13.4 0 a6.7 6.7 0 1 0 -13.4 0zM748.97 762.93 a6.7 6.7 0 1 0 13.4 0 a6.7 6.7 0 1 0 -13.4 0zM748.97 1365.93 a6.7 6.7 0 1 0 13.4 0 a6.7 6.7 0 1 0 -13.4 0zM807 1399.43 a6.7 6.7 0 1 0 13.4 0 a6.7 6.7 0 1 0 -13.4 0zM807 1466.43 a6.7 6.7 0 1 0 13.4 0 a6.7 6.7 0 1 0 -13.4 0zM748.97 1499.93 a6.7 6.7 0 1 0 13.4 0 a6.7 6.7 0 1 0 -13.4 0zM690.95 1466.43 a6.7 6.7 0 1 0 13.4 0 a6.7 6.7 0 1 0 -13.4 0zM690.95 1399.43 a6.7 6.7 0 1 0 13.4 0 a6.7 6.7 0 1 0 -13.4 0zM748.97 2169.93 a6.7 6.7 0 1 0 13.4 0 a6.7 6.7 0 1 0 -13.4 0zM807 2203.43 a6.7 6.7 0 1 0 13.4 0 a6.7 6.7 0 1 0 -13.4 0zM807 2270.43 a6.7 6.7 0 1 0 13.4 0 a6.7 6.7 0 1 0 -13.4 0zM690.95 2203.43 a6.7 6.7 0 1 0 13.4 0 a6.7 6.7 0 1 0 -13.4 0zM807 2873.43 a6.7 6.7 0 1 0 13.4 0 a6.7 6.7 0 1 0 -13.4 0zM865.02 2906.93 a6.7 6.7 0 1 0 13.4 0 a6.7 6.7 0 1 0 -13.4 0zM865.02 2973.93 a6.7 6.7 0 1 0 13.4 0 a6.7 6.7 0 1 0 -13.4 0zM807 3007.43 a6.7 6.7 0 1 0 13.4 0 a6.7 6.7 0 1 0 -13.4 0zM748.97 2973.93 a6.7 6.7 0 1 0 13.4 0 a6.7 6.7 0 1 0 -13.4 0zM748.97 2906.93 a6.7 6.7 0 1 0 13.4 0 a6.7 6.7 0 1 0 -13.4 0zM807 3074.43 a6.7 6.7 0 1 0 13.4 0 a6.7 6.7 0 1 0 -13.4 0zM748.97 3107.93 a6.7 6.7 0 1 0 13.4 0 a6.7 6.7 0 1 0 -13.4 0zM690.95 3074.43 a6.7 6.7 0 1 0 13.4 0 a6.7 6.7 0 1 0 -13.4 0zM690.95 3007.43 a6.7 6.7 0 1 0 13.4 0 a6.7 6.7 0 1 0 -13.4 0zM748.97 3375.93 a6.7 6.7 0 1 0 13.4 0 a6.7 6.7 0 1 0 -13.4 0zM807 3409.43 a6.7 6.7 0 1 0 13.4 0 a6.7 6.7 0 1 0 -13.4 0zM807 3476.43 a6.7 6.7 0 1 0 13.4 0 a6.7 6.7 0 1 0 -13.4 0zM748.97 3509.93 a6.7 6.7 0 1 0 13.4 0 a6.7 6.7 0 1 0 -13.4 0zM690.95 3476.43 a6.7 6.7 0 1 0 13.4 0 a6.7 6.7 0 1 0 -13.4 0zM690.95 3409.43 a6.7 6.7 0 1 0 13.4 0 a6.7 6.7 0 1 0 -13.4 0zM807 4615.43 a6.7 6.7 0 1 0 13.4 0 a6.7 6.7 0 1 0 -13.4 0zM807 4682.43 a6.7 6.7 0 1 0 13.4 0 a6.7 6.7 0 1 0 -13.4 0zM748.97 4715.93 a6.7 6.7 0 1 0 13.4 0 a6.7 6.7 0 1 0 -13.4 0zM690.95 4682.43 a6.7 6.7 0 1 0 13.4 0 a6.7 6.7 0 1 0 -13.4 0zM923.05 1868.43 a6.7 6.7 0 1 0 13.4 0 a6.7 6.7 0 1 0 -13.4 0zM981.08 1901.93 a6.7 6.7 0 1 0 13.4 0 a6.7 6.7 0 1 0 -13.4 0zM981.08 1968.93 a6.7 6.7 0 1 0 13.4 0 a6.7 6.7 0 1 0 -13.4 0zM923.05 2002.43 a6.7 6.7 0 1 0 13.4 0 a6.7 6.7 0 1 0 -13.4 0zM865.02 1968.93 a6.7 6.7 0 1 0 13.4 0 a6.7 6.7 0 1 0 -13.4 0zM865.02 1901.93 a6.7 6.7 0 1 0 13.4 0 a6.7 6.7 0 1 0 -13.4 0zM923.05 2069.43 a6.7 6.7 0 1 0 13.4 0 a6.7 6.7 0 1 0 -13.4 0zM981.08 2102.93 a6.7 6.7 0 1 0 13.4 0 a6.7 6.7 0 1 0 -13.4 0zM981.08 2169.93 a6.7 6.7 0 1 0 13.4 0 a6.7 6.7 0 1 0 -13.4 0zM923.05 2203.43 a6.7 6.7 0 1 0 13.4 0 a6.7 6.7 0 1 0 -13.4 0zM865.02 2169.93 a6.7 6.7 0 1 0 13.4 0 a6.7 6.7 0 1 0 -13.4 0zM865.02 2102.93 a6.7 6.7 0 1 0 13.4 0 a6.7 6.7 0 1 0 -13.4 0zM923.05 2672.43 a6.7 6.7 0 1 0 13.4 0 a6.7 6.7 0 1 0 -13.4 0zM981.08 2705.93 a6.7 6.7 0 1 0 13.4 0 a6.7 6.7 0 1 0 -13.4 0zM981.08 2772.93 a6.7 6.7 0 1 0 13.4 0 a6.7 6.7 0 1 0 -13.4 0zM923.05 2806.43 a6.7 6.7 0 1 0 13.4 0 a6.7 6.7 0 1 0 -13.4 0zM865.02 2772.93 a6.7 6.7 0 1 0 13.4 0 a6.7 6.7 0 1 0 -13.4 0zM865.02 2705.93 a6.7 6.7 0 1 0 13.4 0 a6.7 6.7 0 1 0 -13.4 0zM865.02 3576.93 a6.7 6.7 0 1 0 13.4 0 a6.7 6.7 0 1 0 -13.4 0zM923.05 3610.43 a6.7 6.7 0 1 0 13.4 0 a6.7 6.7 0 1 0 -13.4 0zM923.05 3677.43 a6.7 6.7 0 1 0 13.4 0 a6.7 6.7 0 1 0 -13.4 0zM865.02 3710.93 a6.7 6.7 0 1 0 13.4 0 a6.7 6.7 0 1 0 -13.4 0zM807 3677.43 a6.7 6.7 0 1 0 13.4 0 a6.7 6.7 0 1 0 -13.4 0zM807 3610.43 a6.7 6.7 0 1 0 13.4 0 a6.7 6.7 0 1 0 -13.4 0zM923.05 4280.43 a6.7 6.7 0 1 0 13.4 0 a6.7 6.7 0 1 0 -13.4 0zM981.08 4313.93 a6.7 6.7 0 1 0 13.4 0 a6.7 6.7 0 1 0 -13.4 0zM981.08 4380.93 a6.7 6.7 0 1 0 13.4 0 a6.7 6.7 0 1 0 -13.4 0zM923.05 4414.43 a6.7 6.7 0 1 0 13.4 0 a6.7 6.7 0 1 0 -13.4 0zM865.02 4380.93 a6.7 6.7 0 1 0 13.4 0 a6.7 6.7 0 1 0 -13.4 0zM865.02 4313.93 a6.7 6.7 0 1 0 13.4 0 a6.7 6.7 0 1 0 -13.4 0zM981.08 1164.93 a6.7 6.7 0 1 0 13.4 0 a6.7 6.7 0 1 0 -13.4 0zM1039.1 1198.43 a6.7 6.7 0 1 0 13.4 0 a6.7 6.7 0 1 0 -13.4 0zM1039.1 1265.43 a6.7 6.7 0 1 0 13.4 0 a6.7 6.7 0 1 0 -13.4 0zM981.08 1298.93 a6.7 6.7 0 1 0 13.4 0 a6.7 6.7 0 1 0 -13.4 0zM923.05 1265.43 a6.7 6.7 0 1 0 13.4 0 a6.7 6.7 0 1 0 -13.4 0zM923.05 1198.43 a6.7 6.7 0 1 0 13.4 0 a6.7 6.7 0 1 0 -13.4 0zM981.08 1767.93 a6.7 6.7 0 1 0 13.4 0 a6.7 6.7 0 1 0 -13.4 0zM1039.1 1801.43 a6.7 6.7 0 1 0 13.4 0 a6.7 6.7 0 1 0 -13.4 0zM1039.1 1868.43 a6.7 6.7 0 1 0 13.4 0 a6.7 6.7 0 1 0 -13.4 0zM923.05 1801.43 a6.7 6.7 0 1 0 13.4 0 a6.7 6.7 0 1 0 -13.4 0zM981.08 3576.93 a6.7 6.7 0 1 0 13.4 0 a6.7 6.7 0 1 0 -13.4 0zM1039.1 3610.43 a6.7 6.7 0 1 0 13.4 0 a6.7 6.7 0 1 0 -13.4 0zM1039.1 3677.43 a6.7 6.7 0 1 0 13.4 0 a6.7 6.7 0 1 0 -13.4 0zM981.08 3710.93 a6.7 6.7 0 1 0 13.4 0 a6.7 6.7 0 1 0 -13.4 0zM1097.13 -41.07 a6.7 6.7 0 1 0 13.4 0 a6.7 6.7 0 1 0 -13.4 0zM1155.15 -7.57 a6.7 6.7 0 1 0 13.4 0 a6.7 6.7 0 1 0 -13.4 0zM1155.15 59.43 a6.7 6.7 0 1 0 13.4 0 a6.7 6.7 0 1 0 -13.4 0zM1097.13 92.93 a6.7 6.7 0 1 0 13.4 0 a6.7 6.7 0 1 0 -13.4 0zM1039.1 59.43 a6.7 6.7 0 1 0 13.4 0 a6.7 6.7 0 1 0 -13.4 0zM1039.1 -7.57 a6.7 6.7 0 1 0 13.4 0 a6.7 6.7 0 1 0 -13.4 0zM1097.13 561.93 a6.7 6.7 0 1 0 13.4 0 a6.7 6.7 0 1 0 -13.4 0zM1155.15 595.43 a6.7 6.7 0 1 0 13.4 0 a6.7 6.7 0 1 0 -13.4 0zM1155.15 662.43 a6.7 6.7 0 1 0 13.4 0 a6.7 6.7 0 1 0 -13.4 0zM1097.13 695.93 a6.7 6.7 0 1 0 13.4 0 a6.7 6.7 0 1 0 -13.4 0zM1039.1 662.43 a6.7 6.7 0 1 0 13.4 0 a6.7 6.7 0 1 0 -13.4 0zM1039.1 595.43 a6.7 6.7 0 1 0 13.4 0 a6.7 6.7 0 1 0 -13.4 0zM1097.13 2169.93 a6.7 6.7 0 1 0 13.4 0 a6.7 6.7 0 1 0 -13.4 0zM1155.15 2203.43 a6.7 6.7 0 1 0 13.4 0 a6.7 6.7 0 1 0 -13.4 0zM1155.15 2270.43 a6.7 6.7 0 1 0 13.4 0 a6.7 6.7 0 1 0 -13.4 0zM1097.13 2303.93 a6.7 6.7 0 1 0 13.4 0 a6.7 6.7 0 1 0 -13.4 0zM1039.1 2270.43 a6.7 6.7 0 1 0 13.4 0 a6.7 6.7 0 1 0 -13.4 0zM1039.1 2203.43 a6.7 6.7 0 1 0 13.4 0 a6.7 6.7 0 1 0 -13.4 0zM1213.18 2303.93 a6.7 6.7 0 1 0 13.4 0 a6.7 6.7 0 1 0 -13.4 0zM1213.18 2370.93 a6.7 6.7 0 1 0 13.4 0 a6.7 6.7 0 1 0 -13.4 0zM1155.15 2404.43 a6.7 6.7 0 1 0 13.4 0 a6.7 6.7 0 1 0 -13.4 0zM1097.13 2370.93 a6.7 6.7 0 1 0 13.4 0 a6.7 6.7 0 1 0 -13.4 0zM1155.15 4682.43 a6.7 6.7 0 1 0 13.4 0 a6.7 6.7 0 1 0 -13.4 0zM1213.18 4715.93 a6.7 6.7 0 1 0 13.4 0 a6.7 6.7 0 1 0 -13.4 0zM1213.18 4782.93 a6.7 6.7 0 1 0 13.4 0 a6.7 6.7 0 1 0 -13.4 0zM1155.15 4816.43 a6.7 6.7 0 1 0 13.4 0 a6.7 6.7 0 1 0 -13.4 0zM1097.13 4782.93 a6.7 6.7 0 1 0 13.4 0 a6.7 6.7 0 1 0 -13.4 0zM1097.13 4715.93 a6.7 6.7 0 1 0 13.4 0 a6.7 6.7 0 1 0 -13.4 0zM1155.15 4883.43 a6.7 6.7 0 1 0 13.4 0 a6.7 6.7 0 1 0 -13.4 0zM1097.13 4916.93 a6.7 6.7 0 1 0 13.4 0 a6.7 6.7 0 1 0 -13.4 0zM1039.1 4883.43 a6.7 6.7 0 1 0 13.4 0 a6.7 6.7 0 1 0 -13.4 0zM1039.1 4816.43 a6.7 6.7 0 1 0 13.4 0 a6.7 6.7 0 1 0 -13.4 0zM1213.18 963.93 a6.7 6.7 0 1 0 13.4 0 a6.7 6.7 0 1 0 -13.4 0zM1271.2 997.43 a6.7 6.7 0 1 0 13.4 0 a6.7 6.7 0 1 0 -13.4 0zM1271.2 1064.43 a6.7 6.7 0 1 0 13.4 0 a6.7 6.7 0 1 0 -13.4 0zM1213.18 1097.93 a6.7 6.7 0 1 0 13.4 0 a6.7 6.7 0 1 0 -13.4 0zM1155.15 1064.43 a6.7 6.7 0 1 0 13.4 0 a6.7 6.7 0 1 0 -13.4 0zM1155.15 997.43 a6.7 6.7 0 1 0 13.4 0 a6.7 6.7 0 1 0 -13.4 0zM1271.2 2270.43 a6.7 6.7 0 1 0 13.4 0 a6.7 6.7 0 1 0 -13.4 0zM1329.23 2303.93 a6.7 6.7 0 1 0 13.4 0 a6.7 6.7 0 1 0 -13.4 0zM1329.23 2370.93 a6.7 6.7 0 1 0 13.4 0 a6.7 6.7 0 1 0 -13.4 0zM1271.2 2404.43 a6.7 6.7 0 1 0 13.4 0 a6.7 6.7 0 1 0 -13.4 0zM1213.18 3375.93 a6.7 6.7 0 1 0 13.4 0 a6.7 6.7 0 1 0 -13.4 0zM1271.2 3409.43 a6.7 6.7 0 1 0 13.4 0 a6.7 6.7 0 1 0 -13.4 0zM1271.2 3476.43 a6.7 6.7 0 1 0 13.4 0 a6.7 6.7 0 1 0 -13.4 0zM1213.18 3509.93 a6.7 6.7 0 1 0 13.4 0 a6.7 6.7 0 1 0 -13.4 0zM1155.15 3476.43 a6.7 6.7 0 1 0 13.4 0 a6.7 6.7 0 1 0 -13.4 0zM1155.15 3409.43 a6.7 6.7 0 1 0 13.4 0 a6.7 6.7 0 1 0 -13.4 0zM1329.23 3509.93 a6.7 6.7 0 1 0 13.4 0 a6.7 6.7 0 1 0 -13.4 0zM1329.23 3576.93 a6.7 6.7 0 1 0 13.4 0 a6.7 6.7 0 1 0 -13.4 0zM1271.2 3610.43 a6.7 6.7 0 1 0 13.4 0 a6.7 6.7 0 1 0 -13.4 0zM1213.18 3576.93 a6.7 6.7 0 1 0 13.4 0 a6.7 6.7 0 1 0 -13.4 0zM1213.18 4380.93 a6.7 6.7 0 1 0 13.4 0 a6.7 6.7 0 1 0 -13.4 0zM1271.2 4414.43 a6.7 6.7 0 1 0 13.4 0 a6.7 6.7 0 1 0 -13.4 0zM1271.2 4481.43 a6.7 6.7 0 1 0 13.4 0 a6.7 6.7 0 1 0 -13.4 0zM1213.18 4514.93 a6.7 6.7 0 1 0 13.4 0 a6.7 6.7 0 1 0 -13.4 0zM1155.15 4481.43 a6.7 6.7 0 1 0 13.4 0 a6.7 6.7 0 1 0 -13.4 0zM1155.15 4414.43 a6.7 6.7 0 1 0 13.4 0 a6.7 6.7 0 1 0 -13.4 0zM1387.25 662.43 a6.7 6.7 0 1 0 13.4 0 a6.7 6.7 0 1 0 -13.4 0zM1445.28 695.93 a6.7 6.7 0 1 0 13.4 0 a6.7 6.7 0 1 0 -13.4 0zM1445.28 762.93 a6.7 6.7 0 1 0 13.4 0 a6.7 6.7 0 1 0 -13.4 0zM1387.25 796.43 a6.7 6.7 0 1 0 13.4 0 a6.7 6.7 0 1 0 -13.4 0zM1329.23 762.93 a6.7 6.7 0 1 0 13.4 0 a6.7 6.7 0 1 0 -13.4 0zM1329.23 695.93 a6.7 6.7 0 1 0 13.4 0 a6.7 6.7 0 1 0 -13.4 0zM1387.25 2873.43 a6.7 6.7 0 1 0 13.4 0 a6.7 6.7 0 1 0 -13.4 0zM1445.28 2906.93 a6.7 6.7 0 1 0 13.4 0 a6.7 6.7 0 1 0 -13.4 0zM1445.28 2973.93 a6.7 6.7 0 1 0 13.4 0 a6.7 6.7 0 1 0 -13.4 0zM1387.25 3007.43 a6.7 6.7 0 1 0 13.4 0 a6.7 6.7 0 1 0 -13.4 0zM1329.23 2973.93 a6.7 6.7 0 1 0 13.4 0 a6.7 6.7 0 1 0 -13.4 0zM1329.23 2906.93 a6.7 6.7 0 1 0 13.4 0 a6.7 6.7 0 1 0 -13.4 0zM1387.25 3074.43 a6.7 6.7 0 1 0 13.4 0 a6.7 6.7 0 1 0 -13.4 0zM1329.23 3107.93 a6.7 6.7 0 1 0 13.4 0 a6.7 6.7 0 1 0 -13.4 0zM1271.2 3074.43 a6.7 6.7 0 1 0 13.4 0 a6.7 6.7 0 1 0 -13.4 0zM1271.2 3007.43 a6.7 6.7 0 1 0 13.4 0 a6.7 6.7 0 1 0 -13.4 0zM1329.23 4179.93 a6.7 6.7 0 1 0 13.4 0 a6.7 6.7 0 1 0 -13.4 0zM1387.25 4213.43 a6.7 6.7 0 1 0 13.4 0 a6.7 6.7 0 1 0 -13.4 0zM1387.25 4280.43 a6.7 6.7 0 1 0 13.4 0 a6.7 6.7 0 1 0 -13.4 0zM1329.23 4313.93 a6.7 6.7 0 1 0 13.4 0 a6.7 6.7 0 1 0 -13.4 0zM1271.2 4280.43 a6.7 6.7 0 1 0 13.4 0 a6.7 6.7 0 1 0 -13.4 0zM1271.2 4213.43 a6.7 6.7 0 1 0 13.4 0 a6.7 6.7 0 1 0 -13.4 0zM1329.23 4983.93 a6.7 6.7 0 1 0 13.4 0 a6.7 6.7 0 1 0 -13.4 0zM1387.25 5017.43 a6.7 6.7 0 1 0 13.4 0 a6.7 6.7 0 1 0 -13.4 0zM1387.25 5084.43 a6.7 6.7 0 1 0 13.4 0 a6.7 6.7 0 1 0 -13.4 0zM1329.23 5117.93 a6.7 6.7 0 1 0 13.4 0 a6.7 6.7 0 1 0 -13.4 0zM1271.2 5084.43 a6.7 6.7 0 1 0 13.4 0 a6.7 6.7 0 1 0 -13.4 0zM1271.2 5017.43 a6.7 6.7 0 1 0 13.4 0 a6.7 6.7 0 1 0 -13.4 0zM1445.28 360.93 a6.7 6.7 0 1 0 13.4 0 a6.7 6.7 0 1 0 -13.4 0zM1503.3 394.43 a6.7 6.7 0 1 0 13.4 0 a6.7 6.7 0 1 0 -13.4 0zM1503.3 461.43 a6.7 6.7 0 1 0 13.4 0 a6.7 6.7 0 1 0 -13.4 0zM1445.28 494.93 a6.7 6.7 0 1 0 13.4 0 a6.7 6.7 0 1 0 -13.4 0zM1387.25 461.43 a6.7 6.7 0 1 0 13.4 0 a6.7 6.7 0 1 0 -13.4 0zM1387.25 394.43 a6.7 6.7 0 1 0 13.4 0 a6.7 6.7 0 1 0 -13.4 0zM1445.28 561.93 a6.7 6.7 0 1 0 13.4 0 a6.7 6.7 0 1 0 -13.4 0zM1503.3 595.43 a6.7 6.7 0 1 0 13.4 0 a6.7 6.7 0 1 0 -13.4 0zM1503.3 662.43 a6.7 6.7 0 1 0 13.4 0 a6.7 6.7 0 1 0 -13.4 0zM1387.25 595.43 a6.7 6.7 0 1 0 13.4 0 a6.7 6.7 0 1 0 -13.4 0zM1503.3 1265.43 a6.7 6.7 0 1 0 13.4 0 a6.7 6.7 0 1 0 -13.4 0zM1561.33 1298.93 a6.7 6.7 0 1 0 13.4 0 a6.7 6.7 0 1 0 -13.4 0zM1561.33 1365.93 a6.7 6.7 0 1 0 13.4 0 a6.7 6.7 0 1 0 -13.4 0zM1503.3 1399.43 a6.7 6.7 0 1 0 13.4 0 a6.7 6.7 0 1 0 -13.4 0zM1445.28 1365.93 a6.7 6.7 0 1 0 13.4 0 a6.7 6.7 0 1 0 -13.4 0zM1445.28 1298.93 a6.7 6.7 0 1 0 13.4 0 a6.7 6.7 0 1 0 -13.4 0zM1445.28 2571.93 a6.7 6.7 0 1 0 13.4 0 a6.7 6.7 0 1 0 -13.4 0zM1503.3 2605.43 a6.7 6.7 0 1 0 13.4 0 a6.7 6.7 0 1 0 -13.4 0zM1503.3 2672.43 a6.7 6.7 0 1 0 13.4 0 a6.7 6.7 0 1 0 -13.4 0zM1445.28 2705.93 a6.7 6.7 0 1 0 13.4 0 a6.7 6.7 0 1 0 -13.4 0zM1387.25 2672.43 a6.7 6.7 0 1 0 13.4 0 a6.7 6.7 0 1 0 -13.4 0zM1387.25 2605.43 a6.7 6.7 0 1 0 13.4 0 a6.7 6.7 0 1 0 -13.4 0zM1445.28 3978.93 a6.7 6.7 0 1 0 13.4 0 a6.7 6.7 0 1 0 -13.4 0zM1503.3 4012.43 a6.7 6.7 0 1 0 13.4 0 a6.7 6.7 0 1 0 -13.4 0zM1503.3 4079.43 a6.7 6.7 0 1 0 13.4 0 a6.7 6.7 0 1 0 -13.4 0zM1445.28 4112.93 a6.7 6.7 0 1 0 13.4 0 a6.7 6.7 0 1 0 -13.4 0zM1387.25 4079.43 a6.7 6.7 0 1 0 13.4 0 a6.7 6.7 0 1 0 -13.4 0zM1387.25 4012.43 a6.7 6.7 0 1 0 13.4 0 a6.7 6.7 0 1 0 -13.4 0zM1561.33 4112.93 a6.7 6.7 0 1 0 13.4 0 a6.7 6.7 0 1 0 -13.4 0zM1561.33 4179.93 a6.7 6.7 0 1 0 13.4 0 a6.7 6.7 0 1 0 -13.4 0zM1503.3 4213.43 a6.7 6.7 0 1 0 13.4 0 a6.7 6.7 0 1 0 -13.4 0zM1445.28 4179.93 a6.7 6.7 0 1 0 13.4 0 a6.7 6.7 0 1 0 -13.4 0zM1503.3 4481.43 a6.7 6.7 0 1 0 13.4 0 a6.7 6.7 0 1 0 -13.4 0zM1561.33 4514.93 a6.7 6.7 0 1 0 13.4 0 a6.7 6.7 0 1 0 -13.4 0zM1561.33 4581.93 a6.7 6.7 0 1 0 13.4 0 a6.7 6.7 0 1 0 -13.4 0zM1503.3 4615.43 a6.7 6.7 0 1 0 13.4 0 a6.7 6.7 0 1 0 -13.4 0zM1445.28 4581.93 a6.7 6.7 0 1 0 13.4 0 a6.7 6.7 0 1 0 -13.4 0zM1445.28 4514.93 a6.7 6.7 0 1 0 13.4 0 a6.7 6.7 0 1 0 -13.4 0zM1561.33 1566.93 a6.7 6.7 0 1 0 13.4 0 a6.7 6.7 0 1 0 -13.4 0zM1619.35 1600.43 a6.7 6.7 0 1 0 13.4 0 a6.7 6.7 0 1 0 -13.4 0zM1619.35 1667.43 a6.7 6.7 0 1 0 13.4 0 a6.7 6.7 0 1 0 -13.4 0zM1561.33 1700.93 a6.7 6.7 0 1 0 13.4 0 a6.7 6.7 0 1 0 -13.4 0zM1503.3 1667.43 a6.7 6.7 0 1 0 13.4 0 a6.7 6.7 0 1 0 -13.4 0zM1503.3 1600.43 a6.7 6.7 0 1 0 13.4 0 a6.7 6.7 0 1 0 -13.4 0zM1561.33 3777.93 a6.7 6.7 0 1 0 13.4 0 a6.7 6.7 0 1 0 -13.4 0zM1619.35 3811.43 a6.7 6.7 0 1 0 13.4 0 a6.7 6.7 0 1 0 -13.4 0zM1619.35 3878.43 a6.7 6.7 0 1 0 13.4 0 a6.7 6.7 0 1 0 -13.4 0zM1561.33 3911.93 a6.7 6.7 0 1 0 13.4 0 a6.7 6.7 0 1 0 -13.4 0zM1503.3 3878.43 a6.7 6.7 0 1 0 13.4 0 a6.7 6.7 0 1 0 -13.4 0zM1503.3 3811.43 a6.7 6.7 0 1 0 13.4 0 a6.7 6.7 0 1 0 -13.4 0zM1619.35 4883.43 a6.7 6.7 0 1 0 13.4 0 a6.7 6.7 0 1 0 -13.4 0zM1677.38 4916.93 a6.7 6.7 0 1 0 13.4 0 a6.7 6.7 0 1 0 -13.4 0zM1677.38 4983.93 a6.7 6.7 0 1 0 13.4 0 a6.7 6.7 0 1 0 -13.4 0zM1619.35 5017.43 a6.7 6.7 0 1 0 13.4 0 a6.7 6.7 0 1 0 -13.4 0zM1561.33 4983.93 a6.7 6.7 0 1 0 13.4 0 a6.7 6.7 0 1 0 -13.4 0zM1561.33 4916.93 a6.7 6.7 0 1 0 13.4 0 a6.7 6.7 0 1 0 -13.4 0zM1735.41 59.43 a6.7 6.7 0 1 0 13.4 0 a6.7 6.7 0 1 0 -13.4 0zM1793.43 92.93 a6.7 6.7 0 1 0 13.4 0 a6.7 6.7 0 1 0 -13.4 0zM1793.43 159.93 a6.7 6.7 0 1 0 13.4 0 a6.7 6.7 0 1 0 -13.4 0zM1735.41 193.43 a6.7 6.7 0 1 0 13.4 0 a6.7 6.7 0 1 0 -13.4 0zM1677.38 159.93 a6.7 6.7 0 1 0 13.4 0 a6.7 6.7 0 1 0 -13.4 0zM1677.38 92.93 a6.7 6.7 0 1 0 13.4 0 a6.7 6.7 0 1 0 -13.4 0zM1735.41 260.43 a6.7 6.7 0 1 0 13.4 0 a6.7 6.7 0 1 0 -13.4 0zM1793.43 293.93 a6.7 6.7 0 1 0 13.4 0 a6.7 6.7 0 1 0 -13.4 0zM1793.43 360.93 a6.7 6.7 0 1 0 13.4 0 a6.7 6.7 0 1 0 -13.4 0zM1735.41 394.43 a6.7 6.7 0 1 0 13.4 0 a6.7 6.7 0 1 0 -13.4 0zM1677.38 360.93 a6.7 6.7 0 1 0 13.4 0 a6.7 6.7 0 1 0 -13.4 0zM1677.38 293.93 a6.7 6.7 0 1 0 13.4 0 a6.7 6.7 0 1 0 -13.4 0zM1735.41 1466.43 a6.7 6.7 0 1 0 13.4 0 a6.7 6.7 0 1 0 -13.4 0zM1793.43 1499.93 a6.7 6.7 0 1 0 13.4 0 a6.7 6.7 0 1 0 -13.4 0zM1793.43 1566.93 a6.7 6.7 0 1 0 13.4 0 a6.7 6.7 0 1 0 -13.4 0zM1735.41 1600.43 a6.7 6.7 0 1 0 13.4 0 a6.7 6.7 0 1 0 -13.4 0zM1677.38 1566.93 a6.7 6.7 0 1 0 13.4 0 a6.7 6.7 0 1 0 -13.4 0zM1677.38 1499.93 a6.7 6.7 0 1 0 13.4 0 a6.7 6.7 0 1 0 -13.4 0zM1677.38 1767.93 a6.7 6.7 0 1 0 13.4 0 a6.7 6.7 0 1 0 -13.4 0zM1735.41 1801.43 a6.7 6.7 0 1 0 13.4 0 a6.7 6.7 0 1 0 -13.4 0zM1735.41 1868.43 a6.7 6.7 0 1 0 13.4 0 a6.7 6.7 0 1 0 -13.4 0zM1677.38 1901.93 a6.7 6.7 0 1 0 13.4 0 a6.7 6.7 0 1 0 -13.4 0zM1619.35 1868.43 a6.7 6.7 0 1 0 13.4 0 a6.7 6.7 0 1 0 -13.4 0zM1619.35 1801.43 a6.7 6.7 0 1 0 13.4 0 a6.7 6.7 0 1 0 -13.4 0zM1735.41 2471.43 a6.7 6.7 0 1 0 13.4 0 a6.7 6.7 0 1 0 -13.4 0zM1793.43 2504.93 a6.7 6.7 0 1 0 13.4 0 a6.7 6.7 0 1 0 -13.4 0zM1793.43 2571.93 a6.7 6.7 0 1 0 13.4 0 a6.7 6.7 0 1 0 -13.4 0zM1735.41 2605.43 a6.7 6.7 0 1 0 13.4 0 a6.7 6.7 0 1 0 -13.4 0zM1677.38 2571.93 a6.7 6.7 0 1 0 13.4 0 a6.7 6.7 0 1 0 -13.4 0zM1677.38 2504.93 a6.7 6.7 0 1 0 13.4 0 a6.7 6.7 0 1 0 -13.4 0zM1677.38 2772.93 a6.7 6.7 0 1 0 13.4 0 a6.7 6.7 0 1 0 -13.4 0zM1735.41 2806.43 a6.7 6.7 0 1 0 13.4 0 a6.7 6.7 0 1 0 -13.4 0zM1735.41 2873.43 a6.7 6.7 0 1 0 13.4 0 a6.7 6.7 0 1 0 -13.4 0zM1677.38 2906.93 a6.7 6.7 0 1 0 13.4 0 a6.7 6.7 0 1 0 -13.4 0zM1619.35 2873.43 a6.7 6.7 0 1 0 13.4 0 a6.7 6.7 0 1 0 -13.4 0zM1619.35 2806.43 a6.7 6.7 0 1 0 13.4 0 a6.7 6.7 0 1 0 -13.4 0zM1851.46 59.43 a6.7 6.7 0 1 0 13.4 0 a6.7 6.7 0 1 0 -13.4 0zM1909.48 92.93 a6.7 6.7 0 1 0 13.4 0 a6.7 6.7 0 1 0 -13.4 0zM1909.48 159.93 a6.7 6.7 0 1 0 13.4 0 a6.7 6.7 0 1 0 -13.4 0zM1851.46 193.43 a6.7 6.7 0 1 0 13.4 0 a6.7 6.7 0 1 0 -13.4 0zM1793.43 1164.93 a6.7 6.7 0 1 0 13.4 0 a6.7 6.7 0 1 0 -13.4 0zM1851.46 1198.43 a6.7 6.7 0 1 0 13.4 0 a6.7 6.7 0 1 0 -13.4 0zM1851.46 1265.43 a6.7 6.7 0 1 0 13.4 0 a6.7 6.7 0 1 0 -13.4 0zM1793.43 1298.93 a6.7 6.7 0 1 0 13.4 0 a6.7 6.7 0 1 0 -13.4 0zM1735.41 1265.43 a6.7 6.7 0 1 0 13.4 0 a6.7 6.7 0 1 0 -13.4 0zM1735.41 1198.43 a6.7 6.7 0 1 0 13.4 0 a6.7 6.7 0 1 0 -13.4 0zM1851.46 2605.43 a6.7 6.7 0 1 0 13.4 0 a6.7 6.7 0 1 0 -13.4 0zM1851.46 2672.43 a6.7 6.7 0 1 0 13.4 0 a6.7 6.7 0 1 0 -13.4 0zM1793.43 2705.93 a6.7 6.7 0 1 0 13.4 0 a6.7 6.7 0 1 0 -13.4 0zM1735.41 2672.43 a6.7 6.7 0 1 0 13.4 0 a6.7 6.7 0 1 0 -13.4 0zM1793.43 3777.93 a6.7 6.7 0 1 0 13.4 0 a6.7 6.7 0 1 0 -13.4 0zM1851.46 3811.43 a6.7 6.7 0 1 0 13.4 0 a6.7 6.7 0 1 0 -13.4 0zM1851.46 3878.43 a6.7 6.7 0 1 0 13.4 0 a6.7 6.7 0 1 0 -13.4 0zM1793.43 3911.93 a6.7 6.7 0 1 0 13.4 0 a6.7 6.7 0 1 0 -13.4 0zM1735.41 3878.43 a6.7 6.7 0 1 0 13.4 0 a6.7 6.7 0 1 0 -13.4 0zM1735.41 3811.43 a6.7 6.7 0 1 0 13.4 0 a6.7 6.7 0 1 0 -13.4 0zM1909.48 -41.07 a6.7 6.7 0 1 0 13.4 0 a6.7 6.7 0 1 0 -13.4 0zM1967.51 -7.57 a6.7 6.7 0 1 0 13.4 0 a6.7 6.7 0 1 0 -13.4 0zM1967.51 59.43 a6.7 6.7 0 1 0 13.4 0 a6.7 6.7 0 1 0 -13.4 0zM1851.46 -7.57 a6.7 6.7 0 1 0 13.4 0 a6.7 6.7 0 1 0 -13.4 0zM2025.53 92.93 a6.7 6.7 0 1 0 13.4 0 a6.7 6.7 0 1 0 -13.4 0zM2025.53 159.93 a6.7 6.7 0 1 0 13.4 0 a6.7 6.7 0 1 0 -13.4 0zM1967.51 193.43 a6.7 6.7 0 1 0 13.4 0 a6.7 6.7 0 1 0 -13.4 0zM1967.51 1265.43 a6.7 6.7 0 1 0 13.4 0 a6.7 6.7 0 1 0 -13.4 0zM2025.53 1298.93 a6.7 6.7 0 1 0 13.4 0 a6.7 6.7 0 1 0 -13.4 0zM2025.53 1365.93 a6.7 6.7 0 1 0 13.4 0 a6.7 6.7 0 1 0 -13.4 0zM1967.51 1399.43 a6.7 6.7 0 1 0 13.4 0 a6.7 6.7 0 1 0 -13.4 0zM1909.48 1365.93 a6.7 6.7 0 1 0 13.4 0 a6.7 6.7 0 1 0 -13.4 0zM1909.48 1298.93 a6.7 6.7 0 1 0 13.4 0 a6.7 6.7 0 1 0 -13.4 0zM1967.51 2672.43 a6.7 6.7 0 1 0 13.4 0 a6.7 6.7 0 1 0 -13.4 0zM2025.53 2705.93 a6.7 6.7 0 1 0 13.4 0 a6.7 6.7 0 1 0 -13.4 0zM2025.53 2772.93 a6.7 6.7 0 1 0 13.4 0 a6.7 6.7 0 1 0 -13.4 0zM1967.51 2806.43 a6.7 6.7 0 1 0 13.4 0 a6.7 6.7 0 1 0 -13.4 0zM1909.48 2772.93 a6.7 6.7 0 1 0 13.4 0 a6.7 6.7 0 1 0 -13.4 0zM1909.48 2705.93 a6.7 6.7 0 1 0 13.4 0 a6.7 6.7 0 1 0 -13.4 0zM1967.51 4079.43 a6.7 6.7 0 1 0 13.4 0 a6.7 6.7 0 1 0 -13.4 0zM2025.53 4112.93 a6.7 6.7 0 1 0 13.4 0 a6.7 6.7 0 1 0 -13.4 0zM2025.53 4179.93 a6.7 6.7 0 1 0 13.4 0 a6.7 6.7 0 1 0 -13.4 0zM1967.51 4213.43 a6.7 6.7 0 1 0 13.4 0 a6.7 6.7 0 1 0 -13.4 0zM1909.48 4179.93 a6.7 6.7 0 1 0 13.4 0 a6.7 6.7 0 1 0 -13.4 0zM1909.48 4112.93 a6.7 6.7 0 1 0 13.4 0 a6.7 6.7 0 1 0 -13.4 0zM1967.51 4481.43 a6.7 6.7 0 1 0 13.4 0 a6.7 6.7 0 1 0 -13.4 0zM2025.53 4514.93 a6.7 6.7 0 1 0 13.4 0 a6.7 6.7 0 1 0 -13.4 0zM2025.53 4581.93 a6.7 6.7 0 1 0 13.4 0 a6.7 6.7 0 1 0 -13.4 0zM1967.51 4615.43 a6.7 6.7 0 1 0 13.4 0 a6.7 6.7 0 1 0 -13.4 0zM1909.48 4581.93 a6.7 6.7 0 1 0 13.4 0 a6.7 6.7 0 1 0 -13.4 0zM1909.48 4514.93 a6.7 6.7 0 1 0 13.4 0 a6.7 6.7 0 1 0 -13.4 0zM1909.48 4983.93 a6.7 6.7 0 1 0 13.4 0 a6.7 6.7 0 1 0 -13.4 0zM1967.51 5017.43 a6.7 6.7 0 1 0 13.4 0 a6.7 6.7 0 1 0 -13.4 0zM1967.51 5084.43 a6.7 6.7 0 1 0 13.4 0 a6.7 6.7 0 1 0 -13.4 0zM1909.48 5117.93 a6.7 6.7 0 1 0 13.4 0 a6.7 6.7 0 1 0 -13.4 0zM1851.46 5084.43 a6.7 6.7 0 1 0 13.4 0 a6.7 6.7 0 1 0 -13.4 0zM1851.46 5017.43 a6.7 6.7 0 1 0 13.4 0 a6.7 6.7 0 1 0 -13.4 0zM2025.53 -41.07 a6.7 6.7 0 1 0 13.4 0 a6.7 6.7 0 1 0 -13.4 0zM2083.56 -7.57 a6.7 6.7 0 1 0 13.4 0 a6.7 6.7 0 1 0 -13.4 0zM2083.56 59.43 a6.7 6.7 0 1 0 13.4 0 a6.7 6.7 0 1 0 -13.4 0zM2083.56 193.43 a6.7 6.7 0 1 0 13.4 0 a6.7 6.7 0 1 0 -13.4 0zM2083.56 260.43 a6.7 6.7 0 1 0 13.4 0 a6.7 6.7 0 1 0 -13.4 0zM2025.53 293.93 a6.7 6.7 0 1 0 13.4 0 a6.7 6.7 0 1 0 -13.4 0zM1967.51 260.43 a6.7 6.7 0 1 0 13.4 0 a6.7 6.7 0 1 0 -13.4 0zM2083.56 461.43 a6.7 6.7 0 1 0 13.4 0 a6.7 6.7 0 1 0 -13.4 0zM2141.58 494.93 a6.7 6.7 0 1 0 13.4 0 a6.7 6.7 0 1 0 -13.4 0zM2141.58 561.93 a6.7 6.7 0 1 0 13.4 0 a6.7 6.7 0 1 0 -13.4 0zM2083.56 595.43 a6.7 6.7 0 1 0 13.4 0 a6.7 6.7 0 1 0 -13.4 0zM2025.53 561.93 a6.7 6.7 0 1 0 13.4 0 a6.7 6.7 0 1 0 -13.4 0zM2025.53 494.93 a6.7 6.7 0 1 0 13.4 0 a6.7 6.7 0 1 0 -13.4 0zM2083.56 662.43 a6.7 6.7 0 1 0 13.4 0 a6.7 6.7 0 1 0 -13.4 0zM2025.53 695.93 a6.7 6.7 0 1 0 13.4 0 a6.7 6.7 0 1 0 -13.4 0zM1967.51 662.43 a6.7 6.7 0 1 0 13.4 0 a6.7 6.7 0 1 0 -13.4 0zM1967.51 595.43 a6.7 6.7 0 1 0 13.4 0 a6.7 6.7 0 1 0 -13.4 0zM2141.58 695.93 a6.7 6.7 0 1 0 13.4 0 a6.7 6.7 0 1 0 -13.4 0zM2141.58 762.93 a6.7 6.7 0 1 0 13.4 0 a6.7 6.7 0 1 0 -13.4 0zM2083.56 796.43 a6.7 6.7 0 1 0 13.4 0 a6.7 6.7 0 1 0 -13.4 0zM2025.53 762.93 a6.7 6.7 0 1 0 13.4 0 a6.7 6.7 0 1 0 -13.4 0zM2025.53 1566.93 a6.7 6.7 0 1 0 13.4 0 a6.7 6.7 0 1 0 -13.4 0zM2083.56 1600.43 a6.7 6.7 0 1 0 13.4 0 a6.7 6.7 0 1 0 -13.4 0zM2083.56 1667.43 a6.7 6.7 0 1 0 13.4 0 a6.7 6.7 0 1 0 -13.4 0zM2025.53 1700.93 a6.7 6.7 0 1 0 13.4 0 a6.7 6.7 0 1 0 -13.4 0zM1967.51 1667.43 a6.7 6.7 0 1 0 13.4 0 a6.7 6.7 0 1 0 -13.4 0zM1967.51 1600.43 a6.7 6.7 0 1 0 13.4 0 a6.7 6.7 0 1 0 -13.4 0zM2083.56 1868.43 a6.7 6.7 0 1 0 13.4 0 a6.7 6.7 0 1 0 -13.4 0zM2141.58 1901.93 a6.7 6.7 0 1 0 13.4 0 a6.7 6.7 0 1 0 -13.4 0zM2141.58 1968.93 a6.7 6.7 0 1 0 13.4 0 a6.7 6.7 0 1 0 -13.4 0zM2083.56 2002.43 a6.7 6.7 0 1 0 13.4 0 a6.7 6.7 0 1 0 -13.4 0zM2025.53 1968.93 a6.7 6.7 0 1 0 13.4 0 a6.7 6.7 0 1 0 -13.4 0zM2025.53 1901.93 a6.7 6.7 0 1 0 13.4 0 a6.7 6.7 0 1 0 -13.4 0zM2083.56 2471.43 a6.7 6.7 0 1 0 13.4 0 a6.7 6.7 0 1 0 -13.4 0zM2141.58 2504.93 a6.7 6.7 0 1 0 13.4 0 a6.7 6.7 0 1 0 -13.4 0zM2141.58 2571.93 a6.7 6.7 0 1 0 13.4 0 a6.7 6.7 0 1 0 -13.4 0zM2083.56 2605.43 a6.7 6.7 0 1 0 13.4 0 a6.7 6.7 0 1 0 -13.4 0zM2025.53 2571.93 a6.7 6.7 0 1 0 13.4 0 a6.7 6.7 0 1 0 -13.4 0zM2025.53 2504.93 a6.7 6.7 0 1 0 13.4 0 a6.7 6.7 0 1 0 -13.4 0zM2083.56 3878.43 a6.7 6.7 0 1 0 13.4 0 a6.7 6.7 0 1 0 -13.4 0zM2141.58 3911.93 a6.7 6.7 0 1 0 13.4 0 a6.7 6.7 0 1 0 -13.4 0zM2141.58 3978.93 a6.7 6.7 0 1 0 13.4 0 a6.7 6.7 0 1 0 -13.4 0zM2083.56 4012.43 a6.7 6.7 0 1 0 13.4 0 a6.7 6.7 0 1 0 -13.4 0zM2025.53 3978.93 a6.7 6.7 0 1 0 13.4 0 a6.7 6.7 0 1 0 -13.4 0zM2025.53 3911.93 a6.7 6.7 0 1 0 13.4 0 a6.7 6.7 0 1 0 -13.4 0zM2083.56 4213.43 a6.7 6.7 0 1 0 13.4 0 a6.7 6.7 0 1 0 -13.4 0zM2083.56 4280.43 a6.7 6.7 0 1 0 13.4 0 a6.7 6.7 0 1 0 -13.4 0zM2025.53 4313.93 a6.7 6.7 0 1 0 13.4 0 a6.7 6.7 0 1 0 -13.4 0zM1967.51 4280.43 a6.7 6.7 0 1 0 13.4 0 a6.7 6.7 0 1 0 -13.4 0zM2083.56 4682.43 a6.7 6.7 0 1 0 13.4 0 a6.7 6.7 0 1 0 -13.4 0zM2141.58 4715.93 a6.7 6.7 0 1 0 13.4 0 a6.7 6.7 0 1 0 -13.4 0zM2141.58 4782.93 a6.7 6.7 0 1 0 13.4 0 a6.7 6.7 0 1 0 -13.4 0zM2083.56 4816.43 a6.7 6.7 0 1 0 13.4 0 a6.7 6.7 0 1 0 -13.4 0zM2025.53 4782.93 a6.7 6.7 0 1 0 13.4 0 a6.7 6.7 0 1 0 -13.4 0zM2025.53 4715.93 a6.7 6.7 0 1 0 13.4 0 a6.7 6.7 0 1 0 -13.4 0zM2141.58 1365.93 a6.7 6.7 0 1 0 13.4 0 a6.7 6.7 0 1 0 -13.4 0zM2199.61 1399.43 a6.7 6.7 0 1 0 13.4 0 a6.7 6.7 0 1 0 -13.4 0zM2199.61 1466.43 a6.7 6.7 0 1 0 13.4 0 a6.7 6.7 0 1 0 -13.4 0zM2141.58 1499.93 a6.7 6.7 0 1 0 13.4 0 a6.7 6.7 0 1 0 -13.4 0zM2083.56 1466.43 a6.7 6.7 0 1 0 13.4 0 a6.7 6.7 0 1 0 -13.4 0zM2083.56 1399.43 a6.7 6.7 0 1 0 13.4 0 a6.7 6.7 0 1 0 -13.4 0zM2141.58 4179.93 a6.7 6.7 0 1 0 13.4 0 a6.7 6.7 0 1 0 -13.4 0zM2199.61 4213.43 a6.7 6.7 0 1 0 13.4 0 a6.7 6.7 0 1 0 -13.4 0zM2199.61 4280.43 a6.7 6.7 0 1 0 13.4 0 a6.7 6.7 0 1 0 -13.4 0zM2141.58 4313.93 a6.7 6.7 0 1 0 13.4 0 a6.7 6.7 0 1 0 -13.4 0zM2141.58 4380.93 a6.7 6.7 0 1 0 13.4 0 a6.7 6.7 0 1 0 -13.4 0zM2199.61 4414.43 a6.7 6.7 0 1 0 13.4 0 a6.7 6.7 0 1 0 -13.4 0zM2199.61 4481.43 a6.7 6.7 0 1 0 13.4 0 a6.7 6.7 0 1 0 -13.4 0zM2141.58 4514.93 a6.7 6.7 0 1 0 13.4 0 a6.7 6.7 0 1 0 -13.4 0zM2083.56 4481.43 a6.7 6.7 0 1 0 13.4 0 a6.7 6.7 0 1 0 -13.4 0zM2083.56 4414.43 a6.7 6.7 0 1 0 13.4 0 a6.7 6.7 0 1 0 -13.4 0zM2315.66 59.43 a6.7 6.7 0 1 0 13.4 0 a6.7 6.7 0 1 0 -13.4 0zM2373.68 92.93 a6.7 6.7 0 1 0 13.4 0 a6.7 6.7 0 1 0 -13.4 0zM2373.68 159.93 a6.7 6.7 0 1 0 13.4 0 a6.7 6.7 0 1 0 -13.4 0zM2315.66 193.43 a6.7 6.7 0 1 0 13.4 0 a6.7 6.7 0 1 0 -13.4 0zM2257.63 159.93 a6.7 6.7 0 1 0 13.4 0 a6.7 6.7 0 1 0 -13.4 0zM2257.63 92.93 a6.7 6.7 0 1 0 13.4 0 a6.7 6.7 0 1 0 -13.4 0zM2257.63 1566.93 a6.7 6.7 0 1 0 13.4 0 a6.7 6.7 0 1 0 -13.4 0zM2315.66 1600.43 a6.7 6.7 0 1 0 13.4 0 a6.7 6.7 0 1 0 -13.4 0zM2315.66 1667.43 a6.7 6.7 0 1 0 13.4 0 a6.7 6.7 0 1 0 -13.4 0zM2257.63 1700.93 a6.7 6.7 0 1 0 13.4 0 a6.7 6.7 0 1 0 -13.4 0zM2199.61 1667.43 a6.7 6.7 0 1 0 13.4 0 a6.7 6.7 0 1 0 -13.4 0zM2199.61 1600.43 a6.7 6.7 0 1 0 13.4 0 a6.7 6.7 0 1 0 -13.4 0zM2431.71 193.43 a6.7 6.7 0 1 0 13.4 0 a6.7 6.7 0 1 0 -13.4 0zM2431.71 260.43 a6.7 6.7 0 1 0 13.4 0 a6.7 6.7 0 1 0 -13.4 0zM2373.68 293.93 a6.7 6.7 0 1 0 13.4 0 a6.7 6.7 0 1 0 -13.4 0zM2315.66 260.43 a6.7 6.7 0 1 0 13.4 0 a6.7 6.7 0 1 0 -13.4 0zM2431.71 461.43 a6.7 6.7 0 1 0 13.4 0 a6.7 6.7 0 1 0 -13.4 0zM2489.73 494.93 a6.7 6.7 0 1 0 13.4 0 a6.7 6.7 0 1 0 -13.4 0zM2489.73 561.93 a6.7 6.7 0 1 0 13.4 0 a6.7 6.7 0 1 0 -13.4 0zM2431.71 595.43 a6.7 6.7 0 1 0 13.4 0 a6.7 6.7 0 1 0 -13.4 0zM2373.68 561.93 a6.7 6.7 0 1 0 13.4 0 a6.7 6.7 0 1 0 -13.4 0zM2373.68 494.93 a6.7 6.7 0 1 0 13.4 0 a6.7 6.7 0 1 0 -13.4 0zM2431.71 662.43 a6.7 6.7 0 1 0 13.4 0 a6.7 6.7 0 1 0 -13.4 0zM2373.68 695.93 a6.7 6.7 0 1 0 13.4 0 a6.7 6.7 0 1 0 -13.4 0zM2315.66 662.43 a6.7 6.7 0 1 0 13.4 0 a6.7 6.7 0 1 0 -13.4 0zM2315.66 595.43 a6.7 6.7 0 1 0 13.4 0 a6.7 6.7 0 1 0 -13.4 0zM2431.71 3074.43 a6.7 6.7 0 1 0 13.4 0 a6.7 6.7 0 1 0 -13.4 0zM2489.73 3107.93 a6.7 6.7 0 1 0 13.4 0 a6.7 6.7 0 1 0 -13.4 0zM2489.73 3174.93 a6.7 6.7 0 1 0 13.4 0 a6.7 6.7 0 1 0 -13.4 0zM2431.71 3208.43 a6.7 6.7 0 1 0 13.4 0 a6.7 6.7 0 1 0 -13.4 0zM2373.68 3174.93 a6.7 6.7 0 1 0 13.4 0 a6.7 6.7 0 1 0 -13.4 0zM2373.68 3107.93 a6.7 6.7 0 1 0 13.4 0 a6.7 6.7 0 1 0 -13.4 0zM2373.68 3978.93 a6.7 6.7 0 1 0 13.4 0 a6.7 6.7 0 1 0 -13.4 0zM2431.71 4012.43 a6.7 6.7 0 1 0 13.4 0 a6.7 6.7 0 1 0 -13.4 0zM2431.71 4079.43 a6.7 6.7 0 1 0 13.4 0 a6.7 6.7 0 1 0 -13.4 0zM2373.68 4112.93 a6.7 6.7 0 1 0 13.4 0 a6.7 6.7 0 1 0 -13.4 0zM2315.66 4079.43 a6.7 6.7 0 1 0 13.4 0 a6.7 6.7 0 1 0 -13.4 0zM2315.66 4012.43 a6.7 6.7 0 1 0 13.4 0 a6.7 6.7 0 1 0 -13.4 0zM2489.73 4112.93 a6.7 6.7 0 1 0 13.4 0 a6.7 6.7 0 1 0 -13.4 0zM2489.73 4179.93 a6.7 6.7 0 1 0 13.4 0 a6.7 6.7 0 1 0 -13.4 0zM2431.71 4213.43 a6.7 6.7 0 1 0 13.4 0 a6.7 6.7 0 1 0 -13.4 0zM2373.68 4179.93 a6.7 6.7 0 1 0 13.4 0 a6.7 6.7 0 1 0 -13.4 0zM2489.73 963.93 a6.7 6.7 0 1 0 13.4 0 a6.7 6.7 0 1 0 -13.4 0zM2547.76 997.43 a6.7 6.7 0 1 0 13.4 0 a6.7 6.7 0 1 0 -13.4 0zM2547.76 1064.43 a6.7 6.7 0 1 0 13.4 0 a6.7 6.7 0 1 0 -13.4 0zM2489.73 1097.93 a6.7 6.7 0 1 0 13.4 0 a6.7 6.7 0 1 0 -13.4 0zM2431.71 1064.43 a6.7 6.7 0 1 0 13.4 0 a6.7 6.7 0 1 0 -13.4 0zM2431.71 997.43 a6.7 6.7 0 1 0 13.4 0 a6.7 6.7 0 1 0 -13.4 0zM2547.76 2270.43 a6.7 6.7 0 1 0 13.4 0 a6.7 6.7 0 1 0 -13.4 0zM2605.79 2303.93 a6.7 6.7 0 1 0 13.4 0 a6.7 6.7 0 1 0 -13.4 0zM2605.79 2370.93 a6.7 6.7 0 1 0 13.4 0 a6.7 6.7 0 1 0 -13.4 0zM2547.76 2404.43 a6.7 6.7 0 1 0 13.4 0 a6.7 6.7 0 1 0 -13.4 0zM2489.73 2370.93 a6.7 6.7 0 1 0 13.4 0 a6.7 6.7 0 1 0 -13.4 0zM2489.73 2303.93 a6.7 6.7 0 1 0 13.4 0 a6.7 6.7 0 1 0 -13.4 0zM2547.76 2471.43 a6.7 6.7 0 1 0 13.4 0 a6.7 6.7 0 1 0 -13.4 0zM2489.73 2504.93 a6.7 6.7 0 1 0 13.4 0 a6.7 6.7 0 1 0 -13.4 0zM2431.71 2471.43 a6.7 6.7 0 1 0 13.4 0 a6.7 6.7 0 1 0 -13.4 0zM2431.71 2404.43 a6.7 6.7 0 1 0 13.4 0 a6.7 6.7 0 1 0 -13.4 0zM2547.76 3074.43 a6.7 6.7 0 1 0 13.4 0 a6.7 6.7 0 1 0 -13.4 0zM2605.79 3107.93 a6.7 6.7 0 1 0 13.4 0 a6.7 6.7 0 1 0 -13.4 0zM2605.79 3174.93 a6.7 6.7 0 1 0 13.4 0 a6.7 6.7 0 1 0 -13.4 0zM2547.76 3208.43 a6.7 6.7 0 1 0 13.4 0 a6.7 6.7 0 1 0 -13.4 0zM2547.76 4079.43 a6.7 6.7 0 1 0 13.4 0 a6.7 6.7 0 1 0 -13.4 0zM2605.79 4112.93 a6.7 6.7 0 1 0 13.4 0 a6.7 6.7 0 1 0 -13.4 0zM2605.79 4179.93 a6.7 6.7 0 1 0 13.4 0 a6.7 6.7 0 1 0 -13.4 0zM2547.76 4213.43 a6.7 6.7 0 1 0 13.4 0 a6.7 6.7 0 1 0 -13.4 0zM2605.79 1566.93 a6.7 6.7 0 1 0 13.4 0 a6.7 6.7 0 1 0 -13.4 0zM2663.81 1600.43 a6.7 6.7 0 1 0 13.4 0 a6.7 6.7 0 1 0 -13.4 0zM2663.81 1667.43 a6.7 6.7 0 1 0 13.4 0 a6.7 6.7 0 1 0 -13.4 0zM2605.79 1700.93 a6.7 6.7 0 1 0 13.4 0 a6.7 6.7 0 1 0 -13.4 0zM2547.76 1667.43 a6.7 6.7 0 1 0 13.4 0 a6.7 6.7 0 1 0 -13.4 0zM2547.76 1600.43 a6.7 6.7 0 1 0 13.4 0 a6.7 6.7 0 1 0 -13.4 0zM2605.79 2571.93 a6.7 6.7 0 1 0 13.4 0 a6.7 6.7 0 1 0 -13.4 0zM2663.81 2605.43 a6.7 6.7 0 1 0 13.4 0 a6.7 6.7 0 1 0 -13.4 0zM2663.81 2672.43 a6.7 6.7 0 1 0 13.4 0 a6.7 6.7 0 1 0 -13.4 0zM2605.79 2705.93 a6.7 6.7 0 1 0 13.4 0 a6.7 6.7 0 1 0 -13.4 0zM2547.76 2672.43 a6.7 6.7 0 1 0 13.4 0 a6.7 6.7 0 1 0 -13.4 0zM2547.76 2605.43 a6.7 6.7 0 1 0 13.4 0 a6.7 6.7 0 1 0 -13.4 0zM2663.81 3208.43 a6.7 6.7 0 1 0 13.4 0 a6.7 6.7 0 1 0 -13.4 0zM2663.81 3275.43 a6.7 6.7 0 1 0 13.4 0 a6.7 6.7 0 1 0 -13.4 0zM2605.79 3308.93 a6.7 6.7 0 1 0 13.4 0 a6.7 6.7 0 1 0 -13.4 0zM2547.76 3275.43 a6.7 6.7 0 1 0 13.4 0 a6.7 6.7 0 1 0 -13.4 0zM2721.84 3308.93 a6.7 6.7 0 1 0 13.4 0 a6.7 6.7 0 1 0 -13.4 0zM2721.84 3375.93 a6.7 6.7 0 1 0 13.4 0 a6.7 6.7 0 1 0 -13.4 0zM2663.81 3409.43 a6.7 6.7 0 1 0 13.4 0 a6.7 6.7 0 1 0 -13.4 0zM2605.79 3375.93 a6.7 6.7 0 1 0 13.4 0 a6.7 6.7 0 1 0 -13.4 0zM2663.81 3476.43 a6.7 6.7 0 1 0 13.4 0 a6.7 6.7 0 1 0 -13.4 0zM2721.84 3509.93 a6.7 6.7 0 1 0 13.4 0 a6.7 6.7 0 1 0 -13.4 0zM2721.84 3576.93 a6.7 6.7 0 1 0 13.4 0 a6.7 6.7 0 1 0 -13.4 0zM2663.81 3610.43 a6.7 6.7 0 1 0 13.4 0 a6.7 6.7 0 1 0 -13.4 0zM2605.79 3576.93 a6.7 6.7 0 1 0 13.4 0 a6.7 6.7 0 1 0 -13.4 0zM2605.79 3509.93 a6.7 6.7 0 1 0 13.4 0 a6.7 6.7 0 1 0 -13.4 0zM2663.81 4079.43 a6.7 6.7 0 1 0 13.4 0 a6.7 6.7 0 1 0 -13.4 0zM2721.84 4112.93 a6.7 6.7 0 1 0 13.4 0 a6.7 6.7 0 1 0 -13.4 0zM2721.84 4179.93 a6.7 6.7 0 1 0 13.4 0 a6.7 6.7 0 1 0 -13.4 0zM2663.81 4213.43 a6.7 6.7 0 1 0 13.4 0 a6.7 6.7 0 1 0 -13.4 0z" fill="url(&quot;#SvgjsLinearGradient7706&quot;)"></path><path d="M129.79 859.23L229.38 916.73L229.38 1031.73L129.79 1089.23L30.19 1031.73L30.19 916.73zM30.19 2066.73L129.79 2124.23L129.79 2239.23L30.19 2296.73L-69.41 2239.23L-69.41 2124.23zM129.79 2239.23L229.38 2296.73L229.38 2411.73L129.79 2469.23L30.19 2411.73L30.19 2296.73zM30.19 3446.73L129.79 3504.23L129.79 3619.23L30.19 3676.73L-69.41 3619.23L-69.41 3504.23zM30.19 3791.73L129.79 3849.23L129.79 3964.23L30.19 4021.73L-69.41 3964.23L-69.41 3849.23zM129.79 4654.23L229.38 4711.73L229.38 4826.73L129.79 4884.23L30.19 4826.73L30.19 4711.73zM328.98 169.23L428.57 226.73L428.57 341.73L328.98 399.23L229.38 341.73L229.38 226.73zM328.98 514.23L428.57 571.73L428.57 686.73L328.98 744.23L229.38 686.73L229.38 571.73zM328.98 2239.23L428.57 2296.73L428.57 2411.73L328.98 2469.23L229.38 2411.73L229.38 2296.73zM229.38 2411.73L328.98 2469.23L328.98 2584.23L229.38 2641.73L129.79 2584.23L129.79 2469.23zM229.38 3101.73L328.98 3159.23L328.98 3274.23L229.38 3331.73L129.79 3274.23L129.79 3159.23zM328.98 3274.23L428.57 3331.73L428.57 3446.73L328.98 3504.23L229.38 3446.73L229.38 3331.73zM229.38 4136.73L328.98 4194.23L328.98 4309.23L229.38 4366.73L129.79 4309.23L129.79 4194.23zM528.17 169.23L627.76 226.73L627.76 341.73L528.17 399.23L428.57 341.73L428.57 226.73zM528.17 514.23L627.76 571.73L627.76 686.73L528.17 744.23L428.57 686.73L428.57 571.73zM528.17 859.23L627.76 916.73L627.76 1031.73L528.17 1089.23L428.57 1031.73L428.57 916.73zM428.57 1376.73L528.17 1434.23L528.17 1549.23L428.57 1606.73L328.98 1549.23L328.98 1434.23zM428.57 2411.73L528.17 2469.23L528.17 2584.23L428.57 2641.73L328.98 2584.23L328.98 2469.23zM528.17 2584.23L627.76 2641.73L627.76 2756.73L528.17 2814.23L428.57 2756.73L428.57 2641.73zM428.57 2756.73L528.17 2814.23L528.17 2929.23L428.57 2986.73L328.98 2929.23L328.98 2814.23zM528.17 2929.23L627.76 2986.73L627.76 3101.73L528.17 3159.23L428.57 3101.73L428.57 2986.73zM428.57 3446.73L528.17 3504.23L528.17 3619.23L428.57 3676.73L328.98 3619.23L328.98 3504.23zM428.57 4826.73L528.17 4884.23L528.17 4999.23L428.57 5056.73L328.98 4999.23L328.98 4884.23zM528.17 4999.23L627.76 5056.73L627.76 5171.73L528.17 5229.23L428.57 5171.73L428.57 5056.73zM727.36 169.23L826.96 226.73L826.96 341.73L727.36 399.23L627.76 341.73L627.76 226.73zM727.36 859.23L826.96 916.73L826.96 1031.73L727.36 1089.23L627.76 1031.73L627.76 916.73zM627.76 1031.73L727.36 1089.23L727.36 1204.23L627.76 1261.73L528.17 1204.23L528.17 1089.23zM627.76 1376.73L727.36 1434.23L727.36 1549.23L627.76 1606.73L528.17 1549.23L528.17 1434.23zM727.36 1549.23L826.96 1606.73L826.96 1721.73L727.36 1779.23L627.76 1721.73L627.76 1606.73zM627.76 1721.73L727.36 1779.23L727.36 1894.23L627.76 1951.73L528.17 1894.23L528.17 1779.23zM627.76 2756.73L727.36 2814.23L727.36 2929.23L627.76 2986.73L528.17 2929.23L528.17 2814.23zM627.76 3446.73L727.36 3504.23L727.36 3619.23L627.76 3676.73L528.17 3619.23L528.17 3504.23zM627.76 3791.73L727.36 3849.23L727.36 3964.23L627.76 4021.73L528.17 3964.23L528.17 3849.23zM627.76 4136.73L727.36 4194.23L727.36 4309.23L627.76 4366.73L528.17 4309.23L528.17 4194.23zM727.36 4999.23L826.96 5056.73L826.96 5171.73L727.36 5229.23L627.76 5171.73L627.76 5056.73zM926.55 169.23L1026.15 226.73L1026.15 341.73L926.55 399.23L826.96 341.73L826.96 226.73zM826.96 686.73L926.55 744.23L926.55 859.23L826.96 916.73L727.36 859.23L727.36 744.23zM926.55 859.23L1026.15 916.73L1026.15 1031.73L926.55 1089.23L826.96 1031.73L826.96 916.73zM926.55 1204.23L1026.15 1261.73L1026.15 1376.73L926.55 1434.23L826.96 1376.73L826.96 1261.73zM926.55 1549.23L1026.15 1606.73L1026.15 1721.73L926.55 1779.23L826.96 1721.73L826.96 1606.73zM826.96 1721.73L926.55 1779.23L926.55 1894.23L826.96 1951.73L727.36 1894.23L727.36 1779.23zM926.55 1894.23L1026.15 1951.73L1026.15 2066.73L926.55 2124.23L826.96 2066.73L826.96 1951.73zM926.55 2929.23L1026.15 2986.73L1026.15 3101.73L926.55 3159.23L826.96 3101.73L826.96 2986.73zM826.96 3101.73L926.55 3159.23L926.55 3274.23L826.96 3331.73L727.36 3274.23L727.36 3159.23zM926.55 3274.23L1026.15 3331.73L1026.15 3446.73L926.55 3504.23L826.96 3446.73L826.96 3331.73zM826.96 3446.73L926.55 3504.23L926.55 3619.23L826.96 3676.73L727.36 3619.23L727.36 3504.23zM926.55 3619.23L1026.15 3676.73L1026.15 3791.73L926.55 3849.23L826.96 3791.73L826.96 3676.73zM926.55 3964.23L1026.15 4021.73L1026.15 4136.73L926.55 4194.23L826.96 4136.73L826.96 4021.73zM926.55 4309.23L1026.15 4366.73L1026.15 4481.73L926.55 4539.23L826.96 4481.73L826.96 4366.73zM826.96 4481.73L926.55 4539.23L926.55 4654.23L826.96 4711.73L727.36 4654.23L727.36 4539.23zM1026.15 -3.27L1125.74 54.23L1125.74 169.23L1026.15 226.73L926.55 169.23L926.55 54.23zM1026.15 686.73L1125.74 744.23L1125.74 859.23L1026.15 916.73L926.55 859.23L926.55 744.23zM1125.74 859.23L1225.34 916.73L1225.34 1031.73L1125.74 1089.23L1026.15 1031.73L1026.15 916.73zM1026.15 1721.73L1125.74 1779.23L1125.74 1894.23L1026.15 1951.73L926.55 1894.23L926.55 1779.23zM1125.74 2239.23L1225.34 2296.73L1225.34 2411.73L1125.74 2469.23L1026.15 2411.73L1026.15 2296.73zM1125.74 2584.23L1225.34 2641.73L1225.34 2756.73L1125.74 2814.23L1026.15 2756.73L1026.15 2641.73zM1026.15 4481.73L1125.74 4539.23L1125.74 4654.23L1026.15 4711.73L926.55 4654.23L926.55 4539.23zM1324.93 859.23L1424.53 916.73L1424.53 1031.73L1324.93 1089.23L1225.34 1031.73L1225.34 916.73zM1225.34 1721.73L1324.93 1779.23L1324.93 1894.23L1225.34 1951.73L1125.74 1894.23L1125.74 1779.23zM1225.34 3101.73L1324.93 3159.23L1324.93 3274.23L1225.34 3331.73L1125.74 3274.23L1125.74 3159.23zM1225.34 3791.73L1324.93 3849.23L1324.93 3964.23L1225.34 4021.73L1125.74 3964.23L1125.74 3849.23zM1225.34 4481.73L1324.93 4539.23L1324.93 4654.23L1225.34 4711.73L1125.74 4654.23L1125.74 4539.23zM1324.93 4654.23L1424.53 4711.73L1424.53 4826.73L1324.93 4884.23L1225.34 4826.73L1225.34 4711.73zM1424.53 -3.27L1524.13 54.23L1524.13 169.23L1424.53 226.73L1324.93 169.23L1324.93 54.23zM1424.53 341.73L1524.13 399.23L1524.13 514.23L1424.53 571.73L1324.93 514.23L1324.93 399.23zM1524.13 859.23L1623.72 916.73L1623.72 1031.73L1524.13 1089.23L1424.53 1031.73L1424.53 916.73zM1524.13 1204.23L1623.72 1261.73L1623.72 1376.73L1524.13 1434.23L1424.53 1376.73L1424.53 1261.73zM1424.53 1721.73L1524.13 1779.23L1524.13 1894.23L1424.53 1951.73L1324.93 1894.23L1324.93 1779.23zM1524.13 2584.23L1623.72 2641.73L1623.72 2756.73L1524.13 2814.23L1424.53 2756.73L1424.53 2641.73zM1524.13 3274.23L1623.72 3331.73L1623.72 3446.73L1524.13 3504.23L1424.53 3446.73L1424.53 3331.73zM1524.13 4309.23L1623.72 4366.73L1623.72 4481.73L1524.13 4539.23L1424.53 4481.73L1424.53 4366.73zM1424.53 4481.73L1524.13 4539.23L1524.13 4654.23L1424.53 4711.73L1324.93 4654.23L1324.93 4539.23zM1623.72 686.73L1723.32 744.23L1723.32 859.23L1623.72 916.73L1524.13 859.23L1524.13 744.23zM1623.72 1031.73L1723.32 1089.23L1723.32 1204.23L1623.72 1261.73L1524.13 1204.23L1524.13 1089.23zM1723.32 1894.23L1822.91 1951.73L1822.91 2066.73L1723.32 2124.23L1623.72 2066.73L1623.72 1951.73zM1623.72 2066.73L1723.32 2124.23L1723.32 2239.23L1623.72 2296.73L1524.13 2239.23L1524.13 2124.23zM1723.32 3964.23L1822.91 4021.73L1822.91 4136.73L1723.32 4194.23L1623.72 4136.73L1623.72 4021.73zM1723.32 4309.23L1822.91 4366.73L1822.91 4481.73L1723.32 4539.23L1623.72 4481.73L1623.72 4366.73zM1723.32 4999.23L1822.91 5056.73L1822.91 5171.73L1723.32 5229.23L1623.72 5171.73L1623.72 5056.73zM1822.91 -3.27L1922.51 54.23L1922.51 169.23L1822.91 226.73L1723.32 169.23L1723.32 54.23zM1922.51 1204.23L2022.1 1261.73L2022.1 1376.73L1922.51 1434.23L1822.91 1376.73L1822.91 1261.73zM1822.91 1721.73L1922.51 1779.23L1922.51 1894.23L1822.91 1951.73L1723.32 1894.23L1723.32 1779.23zM1822.91 2411.73L1922.51 2469.23L1922.51 2584.23L1822.91 2641.73L1723.32 2584.23L1723.32 2469.23zM1922.51 2584.23L2022.1 2641.73L2022.1 2756.73L1922.51 2814.23L1822.91 2756.73L1822.91 2641.73zM1822.91 3446.73L1922.51 3504.23L1922.51 3619.23L1822.91 3676.73L1723.32 3619.23L1723.32 3504.23zM1922.51 3619.23L2022.1 3676.73L2022.1 3791.73L1922.51 3849.23L1822.91 3791.73L1822.91 3676.73zM1822.91 3791.73L1922.51 3849.23L1922.51 3964.23L1822.91 4021.73L1723.32 3964.23L1723.32 3849.23zM1922.51 4309.23L2022.1 4366.73L2022.1 4481.73L1922.51 4539.23L1822.91 4481.73L1822.91 4366.73zM1822.91 4826.73L1922.51 4884.23L1922.51 4999.23L1822.91 5056.73L1723.32 4999.23L1723.32 4884.23zM2121.7 514.23L2221.3 571.73L2221.3 686.73L2121.7 744.23L2022.11 686.73L2022.11 571.73zM2022.11 1721.73L2121.7 1779.23L2121.7 1894.23L2022.11 1951.73L1922.51 1894.23L1922.51 1779.23zM2022.11 2066.73L2121.7 2124.23L2121.7 2239.23L2022.11 2296.73L1922.51 2239.23L1922.51 2124.23zM2121.7 2929.23L2221.3 2986.73L2221.3 3101.73L2121.7 3159.23L2022.11 3101.73L2022.11 2986.73zM2121.7 4654.23L2221.3 4711.73L2221.3 4826.73L2121.7 4884.23L2022.11 4826.73L2022.11 4711.73zM2121.7 4999.23L2221.3 5056.73L2221.3 5171.73L2121.7 5229.23L2022.11 5171.73L2022.11 5056.73zM2221.3 341.73L2320.89 399.23L2320.89 514.23L2221.3 571.73L2121.7 514.23L2121.7 399.23zM2221.3 686.73L2320.89 744.23L2320.89 859.23L2221.3 916.73L2121.7 859.23L2121.7 744.23zM2320.89 1204.23L2420.49 1261.73L2420.49 1376.73L2320.89 1434.23L2221.3 1376.73L2221.3 1261.73zM2221.3 1376.73L2320.89 1434.23L2320.89 1549.23L2221.3 1606.73L2121.7 1549.23L2121.7 1434.23zM2320.89 1549.23L2420.49 1606.73L2420.49 1721.73L2320.89 1779.23L2221.3 1721.73L2221.3 1606.73zM2320.89 2239.23L2420.49 2296.73L2420.49 2411.73L2320.89 2469.23L2221.3 2411.73L2221.3 2296.73zM2320.89 2584.23L2420.49 2641.73L2420.49 2756.73L2320.89 2814.23L2221.3 2756.73L2221.3 2641.73zM2320.89 4309.23L2420.49 4366.73L2420.49 4481.73L2320.89 4539.23L2221.3 4481.73L2221.3 4366.73zM2420.49 -3.27L2520.08 54.23L2520.08 169.23L2420.49 226.73L2320.89 169.23L2320.89 54.23zM2420.49 686.73L2520.08 744.23L2520.08 859.23L2420.49 916.73L2320.89 859.23L2320.89 744.23zM2520.08 859.23L2619.68 916.73L2619.68 1031.73L2520.08 1089.23L2420.49 1031.73L2420.49 916.73zM2420.49 1031.73L2520.08 1089.23L2520.08 1204.23L2420.49 1261.73L2320.89 1204.23L2320.89 1089.23zM2520.08 1204.23L2619.68 1261.73L2619.68 1376.73L2520.08 1434.23L2420.49 1376.73L2420.49 1261.73zM2520.08 1549.23L2619.68 1606.73L2619.68 1721.73L2520.08 1779.23L2420.49 1721.73L2420.49 1606.73zM2520.08 1894.23L2619.68 1951.73L2619.68 2066.73L2520.08 2124.23L2420.49 2066.73L2420.49 1951.73zM2520.08 2929.23L2619.68 2986.73L2619.68 3101.73L2520.08 3159.23L2420.49 3101.73L2420.49 2986.73zM2520.08 4654.23L2619.68 4711.73L2619.68 4826.73L2520.08 4884.23L2420.49 4826.73L2420.49 4711.73z" stroke="url(&quot;#SvgjsLinearGradient7707&quot;)" stroke-width="2"></path></g><defs><mask id="SvgjsMask7704"><rect width="2560" height="5000" fill="#ffffff"></rect></mask><linearGradient x1="-23.83%" y1="12.2%" x2="123.83%" y2="87.8%" gradientUnits="userSpaceOnUse" id="SvgjsLinearGradient7705"><stop stop-color="rgba(0, 31, 60, 1)" offset="0"></stop><stop stop-color="rgba(8, 107, 125, 1)" offset="1"></stop></linearGradient><linearGradient x1="-610.048" y1="610" x2="3170.048" y2="4390" gradientUnits="userSpaceOnUse" id="SvgjsLinearGradient7706"><stop stop-color="rgba(3, 54, 64, 1)" offset="0"></stop><stop stop-color="rgba(250, 254, 255, 0.29)" offset="1"></stop></linearGradient><linearGradient x1="-610.048" y1="610" x2="3170.048" y2="4390" gradientUnits="userSpaceOnUse" id="SvgjsLinearGradient7707"><stop stop-color="#0e2a47" offset="0"></stop><stop stop-color="rgba(6, 177, 206, 1)" offset="1"></stop></linearGradient></defs></svg>