<svg xmlns="http://www.w3.org/2000/svg" version="1.1" xmlns:xlink="http://www.w3.org/1999/xlink" xmlns:svgjs="http://svgjs.dev/svgjs" width="2560" height="5000" preserveAspectRatio="none" viewBox="0 0 2560 5000"><g mask="url(&quot;#SvgjsMask7887&quot;)" fill="none"><rect width="2560" height="5000" x="0" y="0" fill="url(&quot;#SvgjsLinearGradient7888&quot;)"></rect><path d="M85.26 3038.4L170.14 3087.4L170.14 3185.4L85.26 3234.4L0.39 3185.4L0.39 3087.4zM0.39 4949.4L85.26 4998.4L85.26 5096.4L0.39 5145.4L-84.48 5096.4L-84.48 4998.4zM170.14 539.4L255.01 588.4L255.01 686.4L170.14 735.4L85.26 686.4L85.26 588.4zM170.14 833.4L255.01 882.4L255.01 980.4L170.14 1029.4L85.26 980.4L85.26 882.4zM255.01 1274.4L339.88 1323.4L339.88 1421.4L255.01 1470.4L170.14 1421.4L170.14 1323.4zM170.14 2009.4L255.01 2058.4L255.01 2156.4L170.14 2205.4L85.26 2156.4L85.26 2058.4zM255.01 2156.4L339.88 2205.4L339.88 2303.4L255.01 2352.4L170.14 2303.4L170.14 2205.4zM170.14 2303.4L255.01 2352.4L255.01 2450.4L170.14 2499.4L85.26 2450.4L85.26 2352.4zM170.14 3479.4L255.01 3528.4L255.01 3626.4L170.14 3675.4L85.26 3626.4L85.26 3528.4zM255.01 3920.4L339.88 3969.4L339.88 4067.4L255.01 4116.4L170.14 4067.4L170.14 3969.4zM255.01 4802.4L339.88 4851.4L339.88 4949.4L255.01 4998.4L170.14 4949.4L170.14 4851.4zM170.14 4949.4L255.01 4998.4L255.01 5096.4L170.14 5145.4L85.26 5096.4L85.26 4998.4zM424.75 98.4L509.63 147.4L509.63 245.4L424.75 294.4L339.88 245.4L339.88 147.4zM339.88 833.4L424.75 882.4L424.75 980.4L339.88 1029.4L255.01 980.4L255.01 882.4zM424.75 980.4L509.63 1029.4L509.63 1127.4L424.75 1176.4L339.88 1127.4L339.88 1029.4zM424.75 1568.4L509.63 1617.4L509.63 1715.4L424.75 1764.4L339.88 1715.4L339.88 1617.4zM424.75 2744.4L509.63 2793.4L509.63 2891.4L424.75 2940.4L339.88 2891.4L339.88 2793.4zM339.88 3773.4L424.75 3822.4L424.75 3920.4L339.88 3969.4L255.01 3920.4L255.01 3822.4zM339.88 4949.4L424.75 4998.4L424.75 5096.4L339.88 5145.4L255.01 5096.4L255.01 4998.4zM509.63 -48.6L594.5 0.4L594.5 98.4L509.63 147.4L424.75 98.4L424.75 0.4zM594.5 686.4L679.37 735.4L679.37 833.4L594.5 882.4L509.63 833.4L509.63 735.4zM594.5 1568.4L679.37 1617.4L679.37 1715.4L594.5 1764.4L509.63 1715.4L509.63 1617.4zM509.63 2597.4L594.5 2646.4L594.5 2744.4L509.63 2793.4L424.75 2744.4L424.75 2646.4zM509.63 3479.4L594.5 3528.4L594.5 3626.4L509.63 3675.4L424.75 3626.4L424.75 3528.4zM509.63 3773.4L594.5 3822.4L594.5 3920.4L509.63 3969.4L424.75 3920.4L424.75 3822.4zM679.37 -48.6L764.25 0.4L764.25 98.4L679.37 147.4L594.5 98.4L594.5 0.4zM764.25 980.4L849.12 1029.4L849.12 1127.4L764.25 1176.4L679.37 1127.4L679.37 1029.4zM764.25 1862.4L849.12 1911.4L849.12 2009.4L764.25 2058.4L679.37 2009.4L679.37 1911.4zM764.25 2156.4L849.12 2205.4L849.12 2303.4L764.25 2352.4L679.37 2303.4L679.37 2205.4zM679.37 2303.4L764.25 2352.4L764.25 2450.4L679.37 2499.4L594.5 2450.4L594.5 2352.4zM679.37 2597.4L764.25 2646.4L764.25 2744.4L679.37 2793.4L594.5 2744.4L594.5 2646.4zM679.37 3479.4L764.25 3528.4L764.25 3626.4L679.37 3675.4L594.5 3626.4L594.5 3528.4zM764.25 4508.4L849.12 4557.4L849.12 4655.4L764.25 4704.4L679.37 4655.4L679.37 4557.4zM933.99 98.4L1018.86 147.4L1018.86 245.4L933.99 294.4L849.12 245.4L849.12 147.4zM933.99 686.4L1018.86 735.4L1018.86 833.4L933.99 882.4L849.12 833.4L849.12 735.4zM933.99 1862.4L1018.86 1911.4L1018.86 2009.4L933.99 2058.4L849.12 2009.4L849.12 1911.4zM933.99 2450.4L1018.86 2499.4L1018.86 2597.4L933.99 2646.4L849.12 2597.4L849.12 2499.4zM849.12 4361.4L933.99 4410.4L933.99 4508.4L849.12 4557.4L764.25 4508.4L764.25 4410.4zM933.99 4508.4L1018.86 4557.4L1018.86 4655.4L933.99 4704.4L849.12 4655.4L849.12 4557.4zM1103.74 1274.4L1188.61 1323.4L1188.61 1421.4L1103.74 1470.4L1018.86 1421.4L1018.86 1323.4zM1103.74 2450.4L1188.61 2499.4L1188.61 2597.4L1103.74 2646.4L1018.86 2597.4L1018.86 2499.4zM1273.48 980.4L1358.36 1029.4L1358.36 1127.4L1273.48 1176.4L1188.61 1127.4L1188.61 1029.4zM1188.61 1421.4L1273.48 1470.4L1273.48 1568.4L1188.61 1617.4L1103.74 1568.4L1103.74 1470.4zM1273.48 1862.4L1358.36 1911.4L1358.36 2009.4L1273.48 2058.4L1188.61 2009.4L1188.61 1911.4zM1273.48 2450.4L1358.36 2499.4L1358.36 2597.4L1273.48 2646.4L1188.61 2597.4L1188.61 2499.4zM1188.61 2597.4L1273.48 2646.4L1273.48 2744.4L1188.61 2793.4L1103.74 2744.4L1103.74 2646.4zM1188.61 3479.4L1273.48 3528.4L1273.48 3626.4L1188.61 3675.4L1103.74 3626.4L1103.74 3528.4zM1443.23 2156.4L1528.1 2205.4L1528.1 2303.4L1443.23 2352.4L1358.36 2303.4L1358.36 2205.4zM1358.36 2891.4L1443.23 2940.4L1443.23 3038.4L1358.36 3087.4L1273.48 3038.4L1273.48 2940.4zM1358.36 4361.4L1443.23 4410.4L1443.23 4508.4L1358.36 4557.4L1273.48 4508.4L1273.48 4410.4zM1443.23 4508.4L1528.1 4557.4L1528.1 4655.4L1443.23 4704.4L1358.36 4655.4L1358.36 4557.4zM1528.1 245.4L1612.98 294.4L1612.98 392.4L1528.1 441.4L1443.23 392.4L1443.23 294.4zM1528.1 539.4L1612.98 588.4L1612.98 686.4L1528.1 735.4L1443.23 686.4L1443.23 588.4zM1528.1 833.4L1612.98 882.4L1612.98 980.4L1528.1 1029.4L1443.23 980.4L1443.23 882.4zM1528.1 1127.4L1612.98 1176.4L1612.98 1274.4L1528.1 1323.4L1443.23 1274.4L1443.23 1176.4zM1612.98 1274.4L1697.85 1323.4L1697.85 1421.4L1612.98 1470.4L1528.1 1421.4L1528.1 1323.4zM1612.98 1568.4L1697.85 1617.4L1697.85 1715.4L1612.98 1764.4L1528.1 1715.4L1528.1 1617.4zM1528.1 2009.4L1612.98 2058.4L1612.98 2156.4L1528.1 2205.4L1443.23 2156.4L1443.23 2058.4zM1528.1 2597.4L1612.98 2646.4L1612.98 2744.4L1528.1 2793.4L1443.23 2744.4L1443.23 2646.4zM1528.1 2891.4L1612.98 2940.4L1612.98 3038.4L1528.1 3087.4L1443.23 3038.4L1443.23 2940.4zM1612.98 3626.4L1697.85 3675.4L1697.85 3773.4L1612.98 3822.4L1528.1 3773.4L1528.1 3675.4zM1782.72 980.4L1867.59 1029.4L1867.59 1127.4L1782.72 1176.4L1697.85 1127.4L1697.85 1029.4zM1782.72 1274.4L1867.59 1323.4L1867.59 1421.4L1782.72 1470.4L1697.85 1421.4L1697.85 1323.4zM1782.72 1862.4L1867.59 1911.4L1867.59 2009.4L1782.72 2058.4L1697.85 2009.4L1697.85 1911.4zM1697.85 2009.4L1782.72 2058.4L1782.72 2156.4L1697.85 2205.4L1612.98 2156.4L1612.98 2058.4zM1697.85 2303.4L1782.72 2352.4L1782.72 2450.4L1697.85 2499.4L1612.98 2450.4L1612.98 2352.4zM1697.85 3185.4L1782.72 3234.4L1782.72 3332.4L1697.85 3381.4L1612.98 3332.4L1612.98 3234.4zM1782.72 3332.4L1867.59 3381.4L1867.59 3479.4L1782.72 3528.4L1697.85 3479.4L1697.85 3381.4zM1782.72 3920.4L1867.59 3969.4L1867.59 4067.4L1782.72 4116.4L1697.85 4067.4L1697.85 3969.4zM1697.85 4067.4L1782.72 4116.4L1782.72 4214.4L1697.85 4263.4L1612.98 4214.4L1612.98 4116.4zM1782.72 4508.4L1867.59 4557.4L1867.59 4655.4L1782.72 4704.4L1697.85 4655.4L1697.85 4557.4zM1697.85 4655.4L1782.72 4704.4L1782.72 4802.4L1697.85 4851.4L1612.98 4802.4L1612.98 4704.4zM1867.59 -48.6L1952.47 0.4L1952.47 98.4L1867.59 147.4L1782.72 98.4L1782.72 0.4zM1952.47 2156.4L2037.34 2205.4L2037.34 2303.4L1952.47 2352.4L1867.59 2303.4L1867.59 2205.4zM1867.59 2303.4L1952.47 2352.4L1952.47 2450.4L1867.59 2499.4L1782.72 2450.4L1782.72 2352.4zM1952.47 4508.4L2037.34 4557.4L2037.34 4655.4L1952.47 4704.4L1867.59 4655.4L1867.59 4557.4zM2037.34 1715.4L2122.21 1764.4L2122.21 1862.4L2037.34 1911.4L1952.47 1862.4L1952.47 1764.4zM2122.21 1862.4L2207.09 1911.4L2207.09 2009.4L2122.21 2058.4L2037.34 2009.4L2037.34 1911.4zM2037.34 2009.4L2122.21 2058.4L2122.21 2156.4L2037.34 2205.4L1952.47 2156.4L1952.47 2058.4zM2037.34 2303.4L2122.21 2352.4L2122.21 2450.4L2037.34 2499.4L1952.47 2450.4L1952.47 2352.4zM2037.34 3773.4L2122.21 3822.4L2122.21 3920.4L2037.34 3969.4L1952.47 3920.4L1952.47 3822.4zM2122.21 4802.4L2207.09 4851.4L2207.09 4949.4L2122.21 4998.4L2037.34 4949.4L2037.34 4851.4zM2291.96 98.4L2376.83 147.4L2376.83 245.4L2291.96 294.4L2207.09 245.4L2207.09 147.4zM2291.96 980.4L2376.83 1029.4L2376.83 1127.4L2291.96 1176.4L2207.09 1127.4L2207.09 1029.4zM2207.09 1421.4L2291.96 1470.4L2291.96 1568.4L2207.09 1617.4L2122.21 1568.4L2122.21 1470.4zM2207.09 2303.4L2291.96 2352.4L2291.96 2450.4L2207.09 2499.4L2122.21 2450.4L2122.21 2352.4zM2207.09 2597.4L2291.96 2646.4L2291.96 2744.4L2207.09 2793.4L2122.21 2744.4L2122.21 2646.4zM2291.96 3332.4L2376.83 3381.4L2376.83 3479.4L2291.96 3528.4L2207.09 3479.4L2207.09 3381.4zM2291.96 3626.4L2376.83 3675.4L2376.83 3773.4L2291.96 3822.4L2207.09 3773.4L2207.09 3675.4zM2207.09 3773.4L2291.96 3822.4L2291.96 3920.4L2207.09 3969.4L2122.21 3920.4L2122.21 3822.4zM2207.09 4067.4L2291.96 4116.4L2291.96 4214.4L2207.09 4263.4L2122.21 4214.4L2122.21 4116.4zM2461.7 980.4L2546.58 1029.4L2546.58 1127.4L2461.7 1176.4L2376.83 1127.4L2376.83 1029.4zM2376.83 1127.4L2461.7 1176.4L2461.7 1274.4L2376.83 1323.4L2291.96 1274.4L2291.96 1176.4zM2461.7 2156.4L2546.58 2205.4L2546.58 2303.4L2461.7 2352.4L2376.83 2303.4L2376.83 2205.4zM2461.7 3332.4L2546.58 3381.4L2546.58 3479.4L2461.7 3528.4L2376.83 3479.4L2376.83 3381.4zM2631.45 686.4L2716.32 735.4L2716.32 833.4L2631.45 882.4L2546.58 833.4L2546.58 735.4zM2546.58 3479.4L2631.45 3528.4L2631.45 3626.4L2546.58 3675.4L2461.7 3626.4L2461.7 3528.4zM2546.58 3773.4L2631.45 3822.4L2631.45 3920.4L2546.58 3969.4L2461.7 3920.4L2461.7 3822.4zM2631.45 4508.4L2716.32 4557.4L2716.32 4655.4L2631.45 4704.4L2546.58 4655.4L2546.58 4557.4zM2631.45 4802.4L2716.32 4851.4L2716.32 4949.4L2631.45 4998.4L2546.58 4949.4L2546.58 4851.4z" stroke="url(&quot;#SvgjsRadialGradient7889&quot;)" stroke-width="2"></path></g><defs><mask id="SvgjsMask7887"><rect width="2560" height="5000" fill="#ffffff"></rect></mask><linearGradient x1="50%" y1="100%" x2="50%" y2="0%" gradientUnits="userSpaceOnUse" id="SvgjsLinearGradient7888"><stop stop-color="rgba(37, 37, 37, 1)" offset="0"></stop><stop stop-color="rgba(61, 67, 78, 1)" offset="1"></stop></linearGradient><radialGradient cx="1280" cy="2500" r="2808.63" gradientUnits="userSpaceOnUse" id="SvgjsRadialGradient7889"><stop stop-color="#0e2a47" offset="0"></stop><stop stop-color="rgba(6, 177, 206, 1)" offset="1"></stop></radialGradient></defs></svg>