<svg xmlns="http://www.w3.org/2000/svg" version="1.1" xmlns:xlink="http://www.w3.org/1999/xlink" xmlns:svgjs="http://svgjs.dev/svgjs" width="1920" height="3000" preserveAspectRatio="none" viewBox="0 0 1920 3000"><g mask="url(&quot;#SvgjsMask3132&quot;)" fill="none"><rect width="1920" height="3000" x="0" y="0" fill="url(&quot;#SvgjsLinearGradient3133&quot;)"></rect><path d="M58.79 -26.29L155.79 29.71L155.79 141.71L58.79 197.71L-38.21 141.71L-38.21 29.71zM155.79 477.71L252.79 533.71L252.79 645.71L155.79 701.71L58.79 645.71L58.79 533.71zM155.79 1485.71L252.79 1541.71L252.79 1653.71L155.79 1709.71L58.79 1653.71L58.79 1541.71zM58.79 1989.71L155.79 2045.71L155.79 2157.71L58.79 2213.71L-38.21 2157.71L-38.21 2045.71zM155.79 2157.71L252.79 2213.71L252.79 2325.71L155.79 2381.71L58.79 2325.71L58.79 2213.71zM155.79 2829.71L252.79 2885.71L252.79 2997.71L155.79 3053.71L58.79 2997.71L58.79 2885.71zM349.78 141.71L446.78 197.71L446.78 309.71L349.78 365.71L252.79 309.71L252.79 197.71zM252.79 309.71L349.78 365.71L349.78 477.71L252.79 533.71L155.79 477.71L155.79 365.71zM349.78 477.71L446.78 533.71L446.78 645.71L349.78 701.71L252.79 645.71L252.79 533.71zM252.79 645.71L349.78 701.71L349.78 813.71L252.79 869.71L155.79 813.71L155.79 701.71zM252.79 981.71L349.78 1037.71L349.78 1149.71L252.79 1205.71L155.79 1149.71L155.79 1037.71zM349.78 1149.71L446.78 1205.71L446.78 1317.71L349.78 1373.71L252.79 1317.71L252.79 1205.71zM349.78 1485.71L446.78 1541.71L446.78 1653.71L349.78 1709.71L252.79 1653.71L252.79 1541.71zM252.79 1989.71L349.78 2045.71L349.78 2157.71L252.79 2213.71L155.79 2157.71L155.79 2045.71zM349.78 2157.71L446.78 2213.71L446.78 2325.71L349.78 2381.71L252.79 2325.71L252.79 2213.71zM252.79 2661.71L349.78 2717.71L349.78 2829.71L252.79 2885.71L155.79 2829.71L155.79 2717.71zM349.78 2829.71L446.78 2885.71L446.78 2997.71L349.78 3053.71L252.79 2997.71L252.79 2885.71zM446.78 -26.29L543.78 29.71L543.78 141.71L446.78 197.71L349.78 141.71L349.78 29.71zM543.78 141.71L640.78 197.71L640.78 309.71L543.78 365.71L446.78 309.71L446.78 197.71zM543.78 477.71L640.78 533.71L640.78 645.71L543.78 701.71L446.78 645.71L446.78 533.71zM446.78 645.71L543.78 701.71L543.78 813.71L446.78 869.71L349.78 813.71L349.78 701.71zM446.78 1317.71L543.78 1373.71L543.78 1485.71L446.78 1541.71L349.78 1485.71L349.78 1373.71zM446.78 1989.71L543.78 2045.71L543.78 2157.71L446.78 2213.71L349.78 2157.71L349.78 2045.71zM446.78 2325.71L543.78 2381.71L543.78 2493.71L446.78 2549.71L349.78 2493.71L349.78 2381.71zM543.78 2493.71L640.78 2549.71L640.78 2661.71L543.78 2717.71L446.78 2661.71L446.78 2549.71zM543.78 2829.71L640.78 2885.71L640.78 2997.71L543.78 3053.71L446.78 2997.71L446.78 2885.71zM446.78 2997.71L543.78 3053.71L543.78 3165.71L446.78 3221.71L349.78 3165.71L349.78 3053.71zM640.78 309.71L737.77 365.71L737.77 477.71L640.78 533.71L543.78 477.71L543.78 365.71zM640.78 981.71L737.77 1037.71L737.77 1149.71L640.78 1205.71L543.78 1149.71L543.78 1037.71zM640.78 1317.71L737.77 1373.71L737.77 1485.71L640.78 1541.71L543.78 1485.71L543.78 1373.71zM737.77 1485.71L834.77 1541.71L834.77 1653.71L737.77 1709.71L640.78 1653.71L640.78 1541.71zM640.78 1653.71L737.77 1709.71L737.77 1821.71L640.78 1877.71L543.78 1821.71L543.78 1709.71zM737.77 1821.71L834.77 1877.71L834.77 1989.71L737.77 2045.71L640.78 1989.71L640.78 1877.71zM640.78 1989.71L737.77 2045.71L737.77 2157.71L640.78 2213.71L543.78 2157.71L543.78 2045.71zM640.78 2325.71L737.77 2381.71L737.77 2493.71L640.78 2549.71L543.78 2493.71L543.78 2381.71zM640.78 2661.71L737.77 2717.71L737.77 2829.71L640.78 2885.71L543.78 2829.71L543.78 2717.71zM737.77 2829.71L834.77 2885.71L834.77 2997.71L737.77 3053.71L640.78 2997.71L640.78 2885.71zM931.77 477.71L1028.77 533.71L1028.77 645.71L931.77 701.71L834.77 645.71L834.77 533.71zM931.77 813.71L1028.77 869.71L1028.77 981.71L931.77 1037.71L834.77 981.71L834.77 869.71zM834.77 981.71L931.77 1037.71L931.77 1149.71L834.77 1205.71L737.77 1149.71L737.77 1037.71zM834.77 1317.71L931.77 1373.71L931.77 1485.71L834.77 1541.71L737.77 1485.71L737.77 1373.71zM931.77 2157.71L1028.77 2213.71L1028.77 2325.71L931.77 2381.71L834.77 2325.71L834.77 2213.71zM834.77 2325.71L931.77 2381.71L931.77 2493.71L834.77 2549.71L737.77 2493.71L737.77 2381.71zM931.77 2493.71L1028.77 2549.71L1028.77 2661.71L931.77 2717.71L834.77 2661.71L834.77 2549.71zM931.77 2829.71L1028.77 2885.71L1028.77 2997.71L931.77 3053.71L834.77 2997.71L834.77 2885.71zM1028.77 -26.29L1125.76 29.71L1125.76 141.71L1028.77 197.71L931.77 141.71L931.77 29.71zM1125.76 141.71L1222.76 197.71L1222.76 309.71L1125.76 365.71L1028.77 309.71L1028.77 197.71zM1125.76 477.71L1222.76 533.71L1222.76 645.71L1125.76 701.71L1028.77 645.71L1028.77 533.71zM1028.77 645.71L1125.76 701.71L1125.76 813.71L1028.77 869.71L931.77 813.71L931.77 701.71zM1028.77 981.71L1125.76 1037.71L1125.76 1149.71L1028.77 1205.71L931.77 1149.71L931.77 1037.71zM1125.76 1149.71L1222.76 1205.71L1222.76 1317.71L1125.76 1373.71L1028.77 1317.71L1028.77 1205.71zM1125.76 1485.71L1222.76 1541.71L1222.76 1653.71L1125.76 1709.71L1028.77 1653.71L1028.77 1541.71zM1028.77 1653.71L1125.76 1709.71L1125.76 1821.71L1028.77 1877.71L931.77 1821.71L931.77 1709.71zM1125.76 2493.71L1222.76 2549.71L1222.76 2661.71L1125.76 2717.71L1028.77 2661.71L1028.77 2549.71zM1125.76 2829.71L1222.76 2885.71L1222.76 2997.71L1125.76 3053.71L1028.77 2997.71L1028.77 2885.71zM1028.77 2997.71L1125.76 3053.71L1125.76 3165.71L1028.77 3221.71L931.77 3165.71L931.77 3053.71zM1222.76 -26.29L1319.76 29.71L1319.76 141.71L1222.76 197.71L1125.76 141.71L1125.76 29.71zM1319.76 813.71L1416.76 869.71L1416.76 981.71L1319.76 1037.71L1222.76 981.71L1222.76 869.71zM1222.76 981.71L1319.76 1037.71L1319.76 1149.71L1222.76 1205.71L1125.76 1149.71L1125.76 1037.71zM1319.76 1149.71L1416.76 1205.71L1416.76 1317.71L1319.76 1373.71L1222.76 1317.71L1222.76 1205.71zM1222.76 1317.71L1319.76 1373.71L1319.76 1485.71L1222.76 1541.71L1125.76 1485.71L1125.76 1373.71zM1222.76 1653.71L1319.76 1709.71L1319.76 1821.71L1222.76 1877.71L1125.76 1821.71L1125.76 1709.71zM1319.76 2157.71L1416.76 2213.71L1416.76 2325.71L1319.76 2381.71L1222.76 2325.71L1222.76 2213.71zM1222.76 2325.71L1319.76 2381.71L1319.76 2493.71L1222.76 2549.71L1125.76 2493.71L1125.76 2381.71zM1319.76 2493.71L1416.76 2549.71L1416.76 2661.71L1319.76 2717.71L1222.76 2661.71L1222.76 2549.71zM1319.76 2829.71L1416.76 2885.71L1416.76 2997.71L1319.76 3053.71L1222.76 2997.71L1222.76 2885.71zM1416.76 -26.29L1513.75 29.71L1513.75 141.71L1416.76 197.71L1319.76 141.71L1319.76 29.71zM1513.75 141.71L1610.75 197.71L1610.75 309.71L1513.75 365.71L1416.76 309.71L1416.76 197.71zM1416.76 309.71L1513.75 365.71L1513.75 477.71L1416.76 533.71L1319.76 477.71L1319.76 365.71zM1513.75 477.71L1610.75 533.71L1610.75 645.71L1513.75 701.71L1416.76 645.71L1416.76 533.71zM1416.76 981.71L1513.75 1037.71L1513.75 1149.71L1416.76 1205.71L1319.76 1149.71L1319.76 1037.71zM1513.75 1149.71L1610.75 1205.71L1610.75 1317.71L1513.75 1373.71L1416.76 1317.71L1416.76 1205.71zM1416.76 1317.71L1513.75 1373.71L1513.75 1485.71L1416.76 1541.71L1319.76 1485.71L1319.76 1373.71zM1416.76 1653.71L1513.75 1709.71L1513.75 1821.71L1416.76 1877.71L1319.76 1821.71L1319.76 1709.71zM1513.75 2157.71L1610.75 2213.71L1610.75 2325.71L1513.75 2381.71L1416.76 2325.71L1416.76 2213.71zM1513.75 2493.71L1610.75 2549.71L1610.75 2661.71L1513.75 2717.71L1416.76 2661.71L1416.76 2549.71zM1707.75 141.71L1804.75 197.71L1804.75 309.71L1707.75 365.71L1610.75 309.71L1610.75 197.71zM1610.75 1317.71L1707.75 1373.71L1707.75 1485.71L1610.75 1541.71L1513.75 1485.71L1513.75 1373.71zM1707.75 1485.71L1804.75 1541.71L1804.75 1653.71L1707.75 1709.71L1610.75 1653.71L1610.75 1541.71zM1610.75 1653.71L1707.75 1709.71L1707.75 1821.71L1610.75 1877.71L1513.75 1821.71L1513.75 1709.71zM1707.75 1821.71L1804.75 1877.71L1804.75 1989.71L1707.75 2045.71L1610.75 1989.71L1610.75 1877.71zM1610.75 2325.71L1707.75 2381.71L1707.75 2493.71L1610.75 2549.71L1513.75 2493.71L1513.75 2381.71zM1707.75 2493.71L1804.75 2549.71L1804.75 2661.71L1707.75 2717.71L1610.75 2661.71L1610.75 2549.71zM1610.75 2997.71L1707.75 3053.71L1707.75 3165.71L1610.75 3221.71L1513.75 3165.71L1513.75 3053.71zM1901.74 477.71L1998.74 533.71L1998.74 645.71L1901.74 701.71L1804.75 645.71L1804.75 533.71zM1804.75 645.71L1901.74 701.71L1901.74 813.71L1804.75 869.71L1707.75 813.71L1707.75 701.71zM1901.74 1485.71L1998.74 1541.71L1998.74 1653.71L1901.74 1709.71L1804.75 1653.71L1804.75 1541.71zM1901.74 2493.71L1998.74 2549.71L1998.74 2661.71L1901.74 2717.71L1804.75 2661.71L1804.75 2549.71zM1804.75 2661.71L1901.74 2717.71L1901.74 2829.71L1804.75 2885.71L1707.75 2829.71L1707.75 2717.71z" stroke="rgba(6, 57, 66, 1)" stroke-width="2"></path><path d="M47.59 -26.29 a11.2 11.2 0 1 0 22.4 0 a11.2 11.2 0 1 0 -22.4 0zM144.59 29.71 a11.2 11.2 0 1 0 22.4 0 a11.2 11.2 0 1 0 -22.4 0zM144.59 141.71 a11.2 11.2 0 1 0 22.4 0 a11.2 11.2 0 1 0 -22.4 0zM47.59 197.71 a11.2 11.2 0 1 0 22.4 0 a11.2 11.2 0 1 0 -22.4 0zM-49.41 141.71 a11.2 11.2 0 1 0 22.4 0 a11.2 11.2 0 1 0 -22.4 0zM-49.41 29.71 a11.2 11.2 0 1 0 22.4 0 a11.2 11.2 0 1 0 -22.4 0zM144.59 477.71 a11.2 11.2 0 1 0 22.4 0 a11.2 11.2 0 1 0 -22.4 0zM241.59 533.71 a11.2 11.2 0 1 0 22.4 0 a11.2 11.2 0 1 0 -22.4 0zM241.59 645.71 a11.2 11.2 0 1 0 22.4 0 a11.2 11.2 0 1 0 -22.4 0zM144.59 701.71 a11.2 11.2 0 1 0 22.4 0 a11.2 11.2 0 1 0 -22.4 0zM47.59 645.71 a11.2 11.2 0 1 0 22.4 0 a11.2 11.2 0 1 0 -22.4 0zM47.59 533.71 a11.2 11.2 0 1 0 22.4 0 a11.2 11.2 0 1 0 -22.4 0zM144.59 1485.71 a11.2 11.2 0 1 0 22.4 0 a11.2 11.2 0 1 0 -22.4 0zM241.59 1541.71 a11.2 11.2 0 1 0 22.4 0 a11.2 11.2 0 1 0 -22.4 0zM241.59 1653.71 a11.2 11.2 0 1 0 22.4 0 a11.2 11.2 0 1 0 -22.4 0zM144.59 1709.71 a11.2 11.2 0 1 0 22.4 0 a11.2 11.2 0 1 0 -22.4 0zM47.59 1653.71 a11.2 11.2 0 1 0 22.4 0 a11.2 11.2 0 1 0 -22.4 0zM47.59 1541.71 a11.2 11.2 0 1 0 22.4 0 a11.2 11.2 0 1 0 -22.4 0zM47.59 1989.71 a11.2 11.2 0 1 0 22.4 0 a11.2 11.2 0 1 0 -22.4 0zM144.59 2045.71 a11.2 11.2 0 1 0 22.4 0 a11.2 11.2 0 1 0 -22.4 0zM144.59 2157.71 a11.2 11.2 0 1 0 22.4 0 a11.2 11.2 0 1 0 -22.4 0zM47.59 2213.71 a11.2 11.2 0 1 0 22.4 0 a11.2 11.2 0 1 0 -22.4 0zM-49.41 2157.71 a11.2 11.2 0 1 0 22.4 0 a11.2 11.2 0 1 0 -22.4 0zM-49.41 2045.71 a11.2 11.2 0 1 0 22.4 0 a11.2 11.2 0 1 0 -22.4 0zM241.59 2213.71 a11.2 11.2 0 1 0 22.4 0 a11.2 11.2 0 1 0 -22.4 0zM241.59 2325.71 a11.2 11.2 0 1 0 22.4 0 a11.2 11.2 0 1 0 -22.4 0zM144.59 2381.71 a11.2 11.2 0 1 0 22.4 0 a11.2 11.2 0 1 0 -22.4 0zM47.59 2325.71 a11.2 11.2 0 1 0 22.4 0 a11.2 11.2 0 1 0 -22.4 0zM144.59 2829.71 a11.2 11.2 0 1 0 22.4 0 a11.2 11.2 0 1 0 -22.4 0zM241.59 2885.71 a11.2 11.2 0 1 0 22.4 0 a11.2 11.2 0 1 0 -22.4 0zM241.59 2997.71 a11.2 11.2 0 1 0 22.4 0 a11.2 11.2 0 1 0 -22.4 0zM144.59 3053.71 a11.2 11.2 0 1 0 22.4 0 a11.2 11.2 0 1 0 -22.4 0zM47.59 2997.71 a11.2 11.2 0 1 0 22.4 0 a11.2 11.2 0 1 0 -22.4 0zM47.59 2885.71 a11.2 11.2 0 1 0 22.4 0 a11.2 11.2 0 1 0 -22.4 0zM338.58 141.71 a11.2 11.2 0 1 0 22.4 0 a11.2 11.2 0 1 0 -22.4 0zM435.58 197.71 a11.2 11.2 0 1 0 22.4 0 a11.2 11.2 0 1 0 -22.4 0zM435.58 309.71 a11.2 11.2 0 1 0 22.4 0 a11.2 11.2 0 1 0 -22.4 0zM338.58 365.71 a11.2 11.2 0 1 0 22.4 0 a11.2 11.2 0 1 0 -22.4 0zM241.59 309.71 a11.2 11.2 0 1 0 22.4 0 a11.2 11.2 0 1 0 -22.4 0zM241.59 197.71 a11.2 11.2 0 1 0 22.4 0 a11.2 11.2 0 1 0 -22.4 0zM338.58 477.71 a11.2 11.2 0 1 0 22.4 0 a11.2 11.2 0 1 0 -22.4 0zM144.59 365.71 a11.2 11.2 0 1 0 22.4 0 a11.2 11.2 0 1 0 -22.4 0zM435.58 533.71 a11.2 11.2 0 1 0 22.4 0 a11.2 11.2 0 1 0 -22.4 0zM435.58 645.71 a11.2 11.2 0 1 0 22.4 0 a11.2 11.2 0 1 0 -22.4 0zM338.58 701.71 a11.2 11.2 0 1 0 22.4 0 a11.2 11.2 0 1 0 -22.4 0zM338.58 813.71 a11.2 11.2 0 1 0 22.4 0 a11.2 11.2 0 1 0 -22.4 0zM241.59 869.71 a11.2 11.2 0 1 0 22.4 0 a11.2 11.2 0 1 0 -22.4 0zM144.59 813.71 a11.2 11.2 0 1 0 22.4 0 a11.2 11.2 0 1 0 -22.4 0zM241.59 981.71 a11.2 11.2 0 1 0 22.4 0 a11.2 11.2 0 1 0 -22.4 0zM338.58 1037.71 a11.2 11.2 0 1 0 22.4 0 a11.2 11.2 0 1 0 -22.4 0zM338.58 1149.71 a11.2 11.2 0 1 0 22.4 0 a11.2 11.2 0 1 0 -22.4 0zM241.59 1205.71 a11.2 11.2 0 1 0 22.4 0 a11.2 11.2 0 1 0 -22.4 0zM144.59 1149.71 a11.2 11.2 0 1 0 22.4 0 a11.2 11.2 0 1 0 -22.4 0zM144.59 1037.71 a11.2 11.2 0 1 0 22.4 0 a11.2 11.2 0 1 0 -22.4 0zM435.58 1205.71 a11.2 11.2 0 1 0 22.4 0 a11.2 11.2 0 1 0 -22.4 0zM435.58 1317.71 a11.2 11.2 0 1 0 22.4 0 a11.2 11.2 0 1 0 -22.4 0zM338.58 1373.71 a11.2 11.2 0 1 0 22.4 0 a11.2 11.2 0 1 0 -22.4 0zM241.59 1317.71 a11.2 11.2 0 1 0 22.4 0 a11.2 11.2 0 1 0 -22.4 0zM338.58 1485.71 a11.2 11.2 0 1 0 22.4 0 a11.2 11.2 0 1 0 -22.4 0zM435.58 1541.71 a11.2 11.2 0 1 0 22.4 0 a11.2 11.2 0 1 0 -22.4 0zM435.58 1653.71 a11.2 11.2 0 1 0 22.4 0 a11.2 11.2 0 1 0 -22.4 0zM338.58 1709.71 a11.2 11.2 0 1 0 22.4 0 a11.2 11.2 0 1 0 -22.4 0zM241.59 1989.71 a11.2 11.2 0 1 0 22.4 0 a11.2 11.2 0 1 0 -22.4 0zM338.58 2045.71 a11.2 11.2 0 1 0 22.4 0 a11.2 11.2 0 1 0 -22.4 0zM338.58 2157.71 a11.2 11.2 0 1 0 22.4 0 a11.2 11.2 0 1 0 -22.4 0zM435.58 2213.71 a11.2 11.2 0 1 0 22.4 0 a11.2 11.2 0 1 0 -22.4 0zM435.58 2325.71 a11.2 11.2 0 1 0 22.4 0 a11.2 11.2 0 1 0 -22.4 0zM338.58 2381.71 a11.2 11.2 0 1 0 22.4 0 a11.2 11.2 0 1 0 -22.4 0zM241.59 2661.71 a11.2 11.2 0 1 0 22.4 0 a11.2 11.2 0 1 0 -22.4 0zM338.58 2717.71 a11.2 11.2 0 1 0 22.4 0 a11.2 11.2 0 1 0 -22.4 0zM338.58 2829.71 a11.2 11.2 0 1 0 22.4 0 a11.2 11.2 0 1 0 -22.4 0zM144.59 2717.71 a11.2 11.2 0 1 0 22.4 0 a11.2 11.2 0 1 0 -22.4 0zM435.58 2885.71 a11.2 11.2 0 1 0 22.4 0 a11.2 11.2 0 1 0 -22.4 0zM435.58 2997.71 a11.2 11.2 0 1 0 22.4 0 a11.2 11.2 0 1 0 -22.4 0zM338.58 3053.71 a11.2 11.2 0 1 0 22.4 0 a11.2 11.2 0 1 0 -22.4 0zM435.58 -26.29 a11.2 11.2 0 1 0 22.4 0 a11.2 11.2 0 1 0 -22.4 0zM532.58 29.71 a11.2 11.2 0 1 0 22.4 0 a11.2 11.2 0 1 0 -22.4 0zM532.58 141.71 a11.2 11.2 0 1 0 22.4 0 a11.2 11.2 0 1 0 -22.4 0zM338.58 29.71 a11.2 11.2 0 1 0 22.4 0 a11.2 11.2 0 1 0 -22.4 0zM629.58 197.71 a11.2 11.2 0 1 0 22.4 0 a11.2 11.2 0 1 0 -22.4 0zM629.58 309.71 a11.2 11.2 0 1 0 22.4 0 a11.2 11.2 0 1 0 -22.4 0zM532.58 365.71 a11.2 11.2 0 1 0 22.4 0 a11.2 11.2 0 1 0 -22.4 0zM532.58 477.71 a11.2 11.2 0 1 0 22.4 0 a11.2 11.2 0 1 0 -22.4 0zM629.58 533.71 a11.2 11.2 0 1 0 22.4 0 a11.2 11.2 0 1 0 -22.4 0zM629.58 645.71 a11.2 11.2 0 1 0 22.4 0 a11.2 11.2 0 1 0 -22.4 0zM532.58 701.71 a11.2 11.2 0 1 0 22.4 0 a11.2 11.2 0 1 0 -22.4 0zM532.58 813.71 a11.2 11.2 0 1 0 22.4 0 a11.2 11.2 0 1 0 -22.4 0zM435.58 869.71 a11.2 11.2 0 1 0 22.4 0 a11.2 11.2 0 1 0 -22.4 0zM532.58 1373.71 a11.2 11.2 0 1 0 22.4 0 a11.2 11.2 0 1 0 -22.4 0zM532.58 1485.71 a11.2 11.2 0 1 0 22.4 0 a11.2 11.2 0 1 0 -22.4 0zM435.58 1989.71 a11.2 11.2 0 1 0 22.4 0 a11.2 11.2 0 1 0 -22.4 0zM532.58 2045.71 a11.2 11.2 0 1 0 22.4 0 a11.2 11.2 0 1 0 -22.4 0zM532.58 2157.71 a11.2 11.2 0 1 0 22.4 0 a11.2 11.2 0 1 0 -22.4 0zM532.58 2381.71 a11.2 11.2 0 1 0 22.4 0 a11.2 11.2 0 1 0 -22.4 0zM532.58 2493.71 a11.2 11.2 0 1 0 22.4 0 a11.2 11.2 0 1 0 -22.4 0zM435.58 2549.71 a11.2 11.2 0 1 0 22.4 0 a11.2 11.2 0 1 0 -22.4 0zM338.58 2493.71 a11.2 11.2 0 1 0 22.4 0 a11.2 11.2 0 1 0 -22.4 0zM629.58 2549.71 a11.2 11.2 0 1 0 22.4 0 a11.2 11.2 0 1 0 -22.4 0zM629.58 2661.71 a11.2 11.2 0 1 0 22.4 0 a11.2 11.2 0 1 0 -22.4 0zM532.58 2717.71 a11.2 11.2 0 1 0 22.4 0 a11.2 11.2 0 1 0 -22.4 0zM435.58 2661.71 a11.2 11.2 0 1 0 22.4 0 a11.2 11.2 0 1 0 -22.4 0zM532.58 2829.71 a11.2 11.2 0 1 0 22.4 0 a11.2 11.2 0 1 0 -22.4 0zM629.58 2885.71 a11.2 11.2 0 1 0 22.4 0 a11.2 11.2 0 1 0 -22.4 0zM629.58 2997.71 a11.2 11.2 0 1 0 22.4 0 a11.2 11.2 0 1 0 -22.4 0zM532.58 3053.71 a11.2 11.2 0 1 0 22.4 0 a11.2 11.2 0 1 0 -22.4 0zM532.58 3165.71 a11.2 11.2 0 1 0 22.4 0 a11.2 11.2 0 1 0 -22.4 0zM435.58 3221.71 a11.2 11.2 0 1 0 22.4 0 a11.2 11.2 0 1 0 -22.4 0zM338.58 3165.71 a11.2 11.2 0 1 0 22.4 0 a11.2 11.2 0 1 0 -22.4 0zM726.57 365.71 a11.2 11.2 0 1 0 22.4 0 a11.2 11.2 0 1 0 -22.4 0zM726.57 477.71 a11.2 11.2 0 1 0 22.4 0 a11.2 11.2 0 1 0 -22.4 0zM629.58 981.71 a11.2 11.2 0 1 0 22.4 0 a11.2 11.2 0 1 0 -22.4 0zM726.57 1037.71 a11.2 11.2 0 1 0 22.4 0 a11.2 11.2 0 1 0 -22.4 0zM726.57 1149.71 a11.2 11.2 0 1 0 22.4 0 a11.2 11.2 0 1 0 -22.4 0zM629.58 1205.71 a11.2 11.2 0 1 0 22.4 0 a11.2 11.2 0 1 0 -22.4 0zM532.58 1149.71 a11.2 11.2 0 1 0 22.4 0 a11.2 11.2 0 1 0 -22.4 0zM532.58 1037.71 a11.2 11.2 0 1 0 22.4 0 a11.2 11.2 0 1 0 -22.4 0zM629.58 1317.71 a11.2 11.2 0 1 0 22.4 0 a11.2 11.2 0 1 0 -22.4 0zM726.57 1373.71 a11.2 11.2 0 1 0 22.4 0 a11.2 11.2 0 1 0 -22.4 0zM726.57 1485.71 a11.2 11.2 0 1 0 22.4 0 a11.2 11.2 0 1 0 -22.4 0zM629.58 1541.71 a11.2 11.2 0 1 0 22.4 0 a11.2 11.2 0 1 0 -22.4 0zM823.57 1541.71 a11.2 11.2 0 1 0 22.4 0 a11.2 11.2 0 1 0 -22.4 0zM823.57 1653.71 a11.2 11.2 0 1 0 22.4 0 a11.2 11.2 0 1 0 -22.4 0zM726.57 1709.71 a11.2 11.2 0 1 0 22.4 0 a11.2 11.2 0 1 0 -22.4 0zM629.58 1653.71 a11.2 11.2 0 1 0 22.4 0 a11.2 11.2 0 1 0 -22.4 0zM726.57 1821.71 a11.2 11.2 0 1 0 22.4 0 a11.2 11.2 0 1 0 -22.4 0zM629.58 1877.71 a11.2 11.2 0 1 0 22.4 0 a11.2 11.2 0 1 0 -22.4 0zM532.58 1821.71 a11.2 11.2 0 1 0 22.4 0 a11.2 11.2 0 1 0 -22.4 0zM532.58 1709.71 a11.2 11.2 0 1 0 22.4 0 a11.2 11.2 0 1 0 -22.4 0zM823.57 1877.71 a11.2 11.2 0 1 0 22.4 0 a11.2 11.2 0 1 0 -22.4 0zM823.57 1989.71 a11.2 11.2 0 1 0 22.4 0 a11.2 11.2 0 1 0 -22.4 0zM726.57 2045.71 a11.2 11.2 0 1 0 22.4 0 a11.2 11.2 0 1 0 -22.4 0zM629.58 1989.71 a11.2 11.2 0 1 0 22.4 0 a11.2 11.2 0 1 0 -22.4 0zM726.57 2157.71 a11.2 11.2 0 1 0 22.4 0 a11.2 11.2 0 1 0 -22.4 0zM629.58 2213.71 a11.2 11.2 0 1 0 22.4 0 a11.2 11.2 0 1 0 -22.4 0zM629.58 2325.71 a11.2 11.2 0 1 0 22.4 0 a11.2 11.2 0 1 0 -22.4 0zM726.57 2381.71 a11.2 11.2 0 1 0 22.4 0 a11.2 11.2 0 1 0 -22.4 0zM726.57 2493.71 a11.2 11.2 0 1 0 22.4 0 a11.2 11.2 0 1 0 -22.4 0zM726.57 2717.71 a11.2 11.2 0 1 0 22.4 0 a11.2 11.2 0 1 0 -22.4 0zM726.57 2829.71 a11.2 11.2 0 1 0 22.4 0 a11.2 11.2 0 1 0 -22.4 0zM823.57 2885.71 a11.2 11.2 0 1 0 22.4 0 a11.2 11.2 0 1 0 -22.4 0zM823.57 2997.71 a11.2 11.2 0 1 0 22.4 0 a11.2 11.2 0 1 0 -22.4 0zM726.57 3053.71 a11.2 11.2 0 1 0 22.4 0 a11.2 11.2 0 1 0 -22.4 0zM920.57 477.71 a11.2 11.2 0 1 0 22.4 0 a11.2 11.2 0 1 0 -22.4 0zM1017.57 533.71 a11.2 11.2 0 1 0 22.4 0 a11.2 11.2 0 1 0 -22.4 0zM1017.57 645.71 a11.2 11.2 0 1 0 22.4 0 a11.2 11.2 0 1 0 -22.4 0zM920.57 701.71 a11.2 11.2 0 1 0 22.4 0 a11.2 11.2 0 1 0 -22.4 0zM823.57 645.71 a11.2 11.2 0 1 0 22.4 0 a11.2 11.2 0 1 0 -22.4 0zM823.57 533.71 a11.2 11.2 0 1 0 22.4 0 a11.2 11.2 0 1 0 -22.4 0zM920.57 813.71 a11.2 11.2 0 1 0 22.4 0 a11.2 11.2 0 1 0 -22.4 0zM1017.57 869.71 a11.2 11.2 0 1 0 22.4 0 a11.2 11.2 0 1 0 -22.4 0zM1017.57 981.71 a11.2 11.2 0 1 0 22.4 0 a11.2 11.2 0 1 0 -22.4 0zM920.57 1037.71 a11.2 11.2 0 1 0 22.4 0 a11.2 11.2 0 1 0 -22.4 0zM823.57 981.71 a11.2 11.2 0 1 0 22.4 0 a11.2 11.2 0 1 0 -22.4 0zM823.57 869.71 a11.2 11.2 0 1 0 22.4 0 a11.2 11.2 0 1 0 -22.4 0zM920.57 1149.71 a11.2 11.2 0 1 0 22.4 0 a11.2 11.2 0 1 0 -22.4 0zM823.57 1205.71 a11.2 11.2 0 1 0 22.4 0 a11.2 11.2 0 1 0 -22.4 0zM823.57 1317.71 a11.2 11.2 0 1 0 22.4 0 a11.2 11.2 0 1 0 -22.4 0zM920.57 1373.71 a11.2 11.2 0 1 0 22.4 0 a11.2 11.2 0 1 0 -22.4 0zM920.57 1485.71 a11.2 11.2 0 1 0 22.4 0 a11.2 11.2 0 1 0 -22.4 0zM920.57 2157.71 a11.2 11.2 0 1 0 22.4 0 a11.2 11.2 0 1 0 -22.4 0zM1017.57 2213.71 a11.2 11.2 0 1 0 22.4 0 a11.2 11.2 0 1 0 -22.4 0zM1017.57 2325.71 a11.2 11.2 0 1 0 22.4 0 a11.2 11.2 0 1 0 -22.4 0zM920.57 2381.71 a11.2 11.2 0 1 0 22.4 0 a11.2 11.2 0 1 0 -22.4 0zM823.57 2325.71 a11.2 11.2 0 1 0 22.4 0 a11.2 11.2 0 1 0 -22.4 0zM823.57 2213.71 a11.2 11.2 0 1 0 22.4 0 a11.2 11.2 0 1 0 -22.4 0zM920.57 2493.71 a11.2 11.2 0 1 0 22.4 0 a11.2 11.2 0 1 0 -22.4 0zM823.57 2549.71 a11.2 11.2 0 1 0 22.4 0 a11.2 11.2 0 1 0 -22.4 0zM1017.57 2549.71 a11.2 11.2 0 1 0 22.4 0 a11.2 11.2 0 1 0 -22.4 0zM1017.57 2661.71 a11.2 11.2 0 1 0 22.4 0 a11.2 11.2 0 1 0 -22.4 0zM920.57 2717.71 a11.2 11.2 0 1 0 22.4 0 a11.2 11.2 0 1 0 -22.4 0zM823.57 2661.71 a11.2 11.2 0 1 0 22.4 0 a11.2 11.2 0 1 0 -22.4 0zM920.57 2829.71 a11.2 11.2 0 1 0 22.4 0 a11.2 11.2 0 1 0 -22.4 0zM1017.57 2885.71 a11.2 11.2 0 1 0 22.4 0 a11.2 11.2 0 1 0 -22.4 0zM1017.57 2997.71 a11.2 11.2 0 1 0 22.4 0 a11.2 11.2 0 1 0 -22.4 0zM920.57 3053.71 a11.2 11.2 0 1 0 22.4 0 a11.2 11.2 0 1 0 -22.4 0zM1017.57 -26.29 a11.2 11.2 0 1 0 22.4 0 a11.2 11.2 0 1 0 -22.4 0zM1114.56 29.71 a11.2 11.2 0 1 0 22.4 0 a11.2 11.2 0 1 0 -22.4 0zM1114.56 141.71 a11.2 11.2 0 1 0 22.4 0 a11.2 11.2 0 1 0 -22.4 0zM1017.57 197.71 a11.2 11.2 0 1 0 22.4 0 a11.2 11.2 0 1 0 -22.4 0zM920.57 141.71 a11.2 11.2 0 1 0 22.4 0 a11.2 11.2 0 1 0 -22.4 0zM920.57 29.71 a11.2 11.2 0 1 0 22.4 0 a11.2 11.2 0 1 0 -22.4 0zM1211.56 197.71 a11.2 11.2 0 1 0 22.4 0 a11.2 11.2 0 1 0 -22.4 0zM1211.56 309.71 a11.2 11.2 0 1 0 22.4 0 a11.2 11.2 0 1 0 -22.4 0zM1114.56 365.71 a11.2 11.2 0 1 0 22.4 0 a11.2 11.2 0 1 0 -22.4 0zM1017.57 309.71 a11.2 11.2 0 1 0 22.4 0 a11.2 11.2 0 1 0 -22.4 0zM1114.56 477.71 a11.2 11.2 0 1 0 22.4 0 a11.2 11.2 0 1 0 -22.4 0zM1211.56 533.71 a11.2 11.2 0 1 0 22.4 0 a11.2 11.2 0 1 0 -22.4 0zM1211.56 645.71 a11.2 11.2 0 1 0 22.4 0 a11.2 11.2 0 1 0 -22.4 0zM1114.56 701.71 a11.2 11.2 0 1 0 22.4 0 a11.2 11.2 0 1 0 -22.4 0zM1114.56 813.71 a11.2 11.2 0 1 0 22.4 0 a11.2 11.2 0 1 0 -22.4 0zM1114.56 1037.71 a11.2 11.2 0 1 0 22.4 0 a11.2 11.2 0 1 0 -22.4 0zM1114.56 1149.71 a11.2 11.2 0 1 0 22.4 0 a11.2 11.2 0 1 0 -22.4 0zM1017.57 1205.71 a11.2 11.2 0 1 0 22.4 0 a11.2 11.2 0 1 0 -22.4 0zM1211.56 1205.71 a11.2 11.2 0 1 0 22.4 0 a11.2 11.2 0 1 0 -22.4 0zM1211.56 1317.71 a11.2 11.2 0 1 0 22.4 0 a11.2 11.2 0 1 0 -22.4 0zM1114.56 1373.71 a11.2 11.2 0 1 0 22.4 0 a11.2 11.2 0 1 0 -22.4 0zM1017.57 1317.71 a11.2 11.2 0 1 0 22.4 0 a11.2 11.2 0 1 0 -22.4 0zM1114.56 1485.71 a11.2 11.2 0 1 0 22.4 0 a11.2 11.2 0 1 0 -22.4 0zM1211.56 1541.71 a11.2 11.2 0 1 0 22.4 0 a11.2 11.2 0 1 0 -22.4 0zM1211.56 1653.71 a11.2 11.2 0 1 0 22.4 0 a11.2 11.2 0 1 0 -22.4 0zM1114.56 1709.71 a11.2 11.2 0 1 0 22.4 0 a11.2 11.2 0 1 0 -22.4 0zM1017.57 1653.71 a11.2 11.2 0 1 0 22.4 0 a11.2 11.2 0 1 0 -22.4 0zM1017.57 1541.71 a11.2 11.2 0 1 0 22.4 0 a11.2 11.2 0 1 0 -22.4 0zM1114.56 1821.71 a11.2 11.2 0 1 0 22.4 0 a11.2 11.2 0 1 0 -22.4 0zM1017.57 1877.71 a11.2 11.2 0 1 0 22.4 0 a11.2 11.2 0 1 0 -22.4 0zM920.57 1821.71 a11.2 11.2 0 1 0 22.4 0 a11.2 11.2 0 1 0 -22.4 0zM920.57 1709.71 a11.2 11.2 0 1 0 22.4 0 a11.2 11.2 0 1 0 -22.4 0zM1114.56 2493.71 a11.2 11.2 0 1 0 22.4 0 a11.2 11.2 0 1 0 -22.4 0zM1211.56 2549.71 a11.2 11.2 0 1 0 22.4 0 a11.2 11.2 0 1 0 -22.4 0zM1211.56 2661.71 a11.2 11.2 0 1 0 22.4 0 a11.2 11.2 0 1 0 -22.4 0zM1114.56 2717.71 a11.2 11.2 0 1 0 22.4 0 a11.2 11.2 0 1 0 -22.4 0zM1114.56 2829.71 a11.2 11.2 0 1 0 22.4 0 a11.2 11.2 0 1 0 -22.4 0zM1211.56 2885.71 a11.2 11.2 0 1 0 22.4 0 a11.2 11.2 0 1 0 -22.4 0zM1211.56 2997.71 a11.2 11.2 0 1 0 22.4 0 a11.2 11.2 0 1 0 -22.4 0zM1114.56 3053.71 a11.2 11.2 0 1 0 22.4 0 a11.2 11.2 0 1 0 -22.4 0zM1114.56 3165.71 a11.2 11.2 0 1 0 22.4 0 a11.2 11.2 0 1 0 -22.4 0zM1017.57 3221.71 a11.2 11.2 0 1 0 22.4 0 a11.2 11.2 0 1 0 -22.4 0zM920.57 3165.71 a11.2 11.2 0 1 0 22.4 0 a11.2 11.2 0 1 0 -22.4 0zM1211.56 -26.29 a11.2 11.2 0 1 0 22.4 0 a11.2 11.2 0 1 0 -22.4 0zM1308.56 29.71 a11.2 11.2 0 1 0 22.4 0 a11.2 11.2 0 1 0 -22.4 0zM1308.56 141.71 a11.2 11.2 0 1 0 22.4 0 a11.2 11.2 0 1 0 -22.4 0zM1308.56 813.71 a11.2 11.2 0 1 0 22.4 0 a11.2 11.2 0 1 0 -22.4 0zM1405.56 869.71 a11.2 11.2 0 1 0 22.4 0 a11.2 11.2 0 1 0 -22.4 0zM1405.56 981.71 a11.2 11.2 0 1 0 22.4 0 a11.2 11.2 0 1 0 -22.4 0zM1308.56 1037.71 a11.2 11.2 0 1 0 22.4 0 a11.2 11.2 0 1 0 -22.4 0zM1211.56 981.71 a11.2 11.2 0 1 0 22.4 0 a11.2 11.2 0 1 0 -22.4 0zM1211.56 869.71 a11.2 11.2 0 1 0 22.4 0 a11.2 11.2 0 1 0 -22.4 0zM1308.56 1149.71 a11.2 11.2 0 1 0 22.4 0 a11.2 11.2 0 1 0 -22.4 0zM1405.56 1205.71 a11.2 11.2 0 1 0 22.4 0 a11.2 11.2 0 1 0 -22.4 0zM1405.56 1317.71 a11.2 11.2 0 1 0 22.4 0 a11.2 11.2 0 1 0 -22.4 0zM1308.56 1373.71 a11.2 11.2 0 1 0 22.4 0 a11.2 11.2 0 1 0 -22.4 0zM1308.56 1485.71 a11.2 11.2 0 1 0 22.4 0 a11.2 11.2 0 1 0 -22.4 0zM1308.56 1709.71 a11.2 11.2 0 1 0 22.4 0 a11.2 11.2 0 1 0 -22.4 0zM1308.56 1821.71 a11.2 11.2 0 1 0 22.4 0 a11.2 11.2 0 1 0 -22.4 0zM1211.56 1877.71 a11.2 11.2 0 1 0 22.4 0 a11.2 11.2 0 1 0 -22.4 0zM1308.56 2157.71 a11.2 11.2 0 1 0 22.4 0 a11.2 11.2 0 1 0 -22.4 0zM1405.56 2213.71 a11.2 11.2 0 1 0 22.4 0 a11.2 11.2 0 1 0 -22.4 0zM1405.56 2325.71 a11.2 11.2 0 1 0 22.4 0 a11.2 11.2 0 1 0 -22.4 0zM1308.56 2381.71 a11.2 11.2 0 1 0 22.4 0 a11.2 11.2 0 1 0 -22.4 0zM1211.56 2325.71 a11.2 11.2 0 1 0 22.4 0 a11.2 11.2 0 1 0 -22.4 0zM1211.56 2213.71 a11.2 11.2 0 1 0 22.4 0 a11.2 11.2 0 1 0 -22.4 0zM1308.56 2493.71 a11.2 11.2 0 1 0 22.4 0 a11.2 11.2 0 1 0 -22.4 0zM1114.56 2381.71 a11.2 11.2 0 1 0 22.4 0 a11.2 11.2 0 1 0 -22.4 0zM1405.56 2549.71 a11.2 11.2 0 1 0 22.4 0 a11.2 11.2 0 1 0 -22.4 0zM1405.56 2661.71 a11.2 11.2 0 1 0 22.4 0 a11.2 11.2 0 1 0 -22.4 0zM1308.56 2717.71 a11.2 11.2 0 1 0 22.4 0 a11.2 11.2 0 1 0 -22.4 0zM1308.56 2829.71 a11.2 11.2 0 1 0 22.4 0 a11.2 11.2 0 1 0 -22.4 0zM1405.56 2885.71 a11.2 11.2 0 1 0 22.4 0 a11.2 11.2 0 1 0 -22.4 0zM1405.56 2997.71 a11.2 11.2 0 1 0 22.4 0 a11.2 11.2 0 1 0 -22.4 0zM1308.56 3053.71 a11.2 11.2 0 1 0 22.4 0 a11.2 11.2 0 1 0 -22.4 0zM1405.56 -26.29 a11.2 11.2 0 1 0 22.4 0 a11.2 11.2 0 1 0 -22.4 0zM1502.55 29.71 a11.2 11.2 0 1 0 22.4 0 a11.2 11.2 0 1 0 -22.4 0zM1502.55 141.71 a11.2 11.2 0 1 0 22.4 0 a11.2 11.2 0 1 0 -22.4 0zM1405.56 197.71 a11.2 11.2 0 1 0 22.4 0 a11.2 11.2 0 1 0 -22.4 0zM1599.55 197.71 a11.2 11.2 0 1 0 22.4 0 a11.2 11.2 0 1 0 -22.4 0zM1599.55 309.71 a11.2 11.2 0 1 0 22.4 0 a11.2 11.2 0 1 0 -22.4 0zM1502.55 365.71 a11.2 11.2 0 1 0 22.4 0 a11.2 11.2 0 1 0 -22.4 0zM1405.56 309.71 a11.2 11.2 0 1 0 22.4 0 a11.2 11.2 0 1 0 -22.4 0zM1502.55 477.71 a11.2 11.2 0 1 0 22.4 0 a11.2 11.2 0 1 0 -22.4 0zM1405.56 533.71 a11.2 11.2 0 1 0 22.4 0 a11.2 11.2 0 1 0 -22.4 0zM1308.56 477.71 a11.2 11.2 0 1 0 22.4 0 a11.2 11.2 0 1 0 -22.4 0zM1308.56 365.71 a11.2 11.2 0 1 0 22.4 0 a11.2 11.2 0 1 0 -22.4 0zM1599.55 533.71 a11.2 11.2 0 1 0 22.4 0 a11.2 11.2 0 1 0 -22.4 0zM1599.55 645.71 a11.2 11.2 0 1 0 22.4 0 a11.2 11.2 0 1 0 -22.4 0zM1502.55 701.71 a11.2 11.2 0 1 0 22.4 0 a11.2 11.2 0 1 0 -22.4 0zM1405.56 645.71 a11.2 11.2 0 1 0 22.4 0 a11.2 11.2 0 1 0 -22.4 0zM1502.55 1037.71 a11.2 11.2 0 1 0 22.4 0 a11.2 11.2 0 1 0 -22.4 0zM1502.55 1149.71 a11.2 11.2 0 1 0 22.4 0 a11.2 11.2 0 1 0 -22.4 0zM1599.55 1205.71 a11.2 11.2 0 1 0 22.4 0 a11.2 11.2 0 1 0 -22.4 0zM1599.55 1317.71 a11.2 11.2 0 1 0 22.4 0 a11.2 11.2 0 1 0 -22.4 0zM1502.55 1373.71 a11.2 11.2 0 1 0 22.4 0 a11.2 11.2 0 1 0 -22.4 0zM1502.55 1485.71 a11.2 11.2 0 1 0 22.4 0 a11.2 11.2 0 1 0 -22.4 0zM1405.56 1541.71 a11.2 11.2 0 1 0 22.4 0 a11.2 11.2 0 1 0 -22.4 0zM1405.56 1653.71 a11.2 11.2 0 1 0 22.4 0 a11.2 11.2 0 1 0 -22.4 0zM1502.55 1709.71 a11.2 11.2 0 1 0 22.4 0 a11.2 11.2 0 1 0 -22.4 0zM1502.55 1821.71 a11.2 11.2 0 1 0 22.4 0 a11.2 11.2 0 1 0 -22.4 0zM1405.56 1877.71 a11.2 11.2 0 1 0 22.4 0 a11.2 11.2 0 1 0 -22.4 0zM1502.55 2157.71 a11.2 11.2 0 1 0 22.4 0 a11.2 11.2 0 1 0 -22.4 0zM1599.55 2213.71 a11.2 11.2 0 1 0 22.4 0 a11.2 11.2 0 1 0 -22.4 0zM1599.55 2325.71 a11.2 11.2 0 1 0 22.4 0 a11.2 11.2 0 1 0 -22.4 0zM1502.55 2381.71 a11.2 11.2 0 1 0 22.4 0 a11.2 11.2 0 1 0 -22.4 0zM1502.55 2493.71 a11.2 11.2 0 1 0 22.4 0 a11.2 11.2 0 1 0 -22.4 0zM1599.55 2549.71 a11.2 11.2 0 1 0 22.4 0 a11.2 11.2 0 1 0 -22.4 0zM1599.55 2661.71 a11.2 11.2 0 1 0 22.4 0 a11.2 11.2 0 1 0 -22.4 0zM1502.55 2717.71 a11.2 11.2 0 1 0 22.4 0 a11.2 11.2 0 1 0 -22.4 0zM1696.55 141.71 a11.2 11.2 0 1 0 22.4 0 a11.2 11.2 0 1 0 -22.4 0zM1793.55 197.71 a11.2 11.2 0 1 0 22.4 0 a11.2 11.2 0 1 0 -22.4 0zM1793.55 309.71 a11.2 11.2 0 1 0 22.4 0 a11.2 11.2 0 1 0 -22.4 0zM1696.55 365.71 a11.2 11.2 0 1 0 22.4 0 a11.2 11.2 0 1 0 -22.4 0zM1696.55 1373.71 a11.2 11.2 0 1 0 22.4 0 a11.2 11.2 0 1 0 -22.4 0zM1696.55 1485.71 a11.2 11.2 0 1 0 22.4 0 a11.2 11.2 0 1 0 -22.4 0zM1599.55 1541.71 a11.2 11.2 0 1 0 22.4 0 a11.2 11.2 0 1 0 -22.4 0zM1793.55 1541.71 a11.2 11.2 0 1 0 22.4 0 a11.2 11.2 0 1 0 -22.4 0zM1793.55 1653.71 a11.2 11.2 0 1 0 22.4 0 a11.2 11.2 0 1 0 -22.4 0zM1696.55 1709.71 a11.2 11.2 0 1 0 22.4 0 a11.2 11.2 0 1 0 -22.4 0zM1599.55 1653.71 a11.2 11.2 0 1 0 22.4 0 a11.2 11.2 0 1 0 -22.4 0zM1696.55 1821.71 a11.2 11.2 0 1 0 22.4 0 a11.2 11.2 0 1 0 -22.4 0zM1599.55 1877.71 a11.2 11.2 0 1 0 22.4 0 a11.2 11.2 0 1 0 -22.4 0zM1793.55 1877.71 a11.2 11.2 0 1 0 22.4 0 a11.2 11.2 0 1 0 -22.4 0zM1793.55 1989.71 a11.2 11.2 0 1 0 22.4 0 a11.2 11.2 0 1 0 -22.4 0zM1696.55 2045.71 a11.2 11.2 0 1 0 22.4 0 a11.2 11.2 0 1 0 -22.4 0zM1599.55 1989.71 a11.2 11.2 0 1 0 22.4 0 a11.2 11.2 0 1 0 -22.4 0zM1696.55 2381.71 a11.2 11.2 0 1 0 22.4 0 a11.2 11.2 0 1 0 -22.4 0zM1696.55 2493.71 a11.2 11.2 0 1 0 22.4 0 a11.2 11.2 0 1 0 -22.4 0zM1793.55 2549.71 a11.2 11.2 0 1 0 22.4 0 a11.2 11.2 0 1 0 -22.4 0zM1793.55 2661.71 a11.2 11.2 0 1 0 22.4 0 a11.2 11.2 0 1 0 -22.4 0zM1696.55 2717.71 a11.2 11.2 0 1 0 22.4 0 a11.2 11.2 0 1 0 -22.4 0zM1599.55 2997.71 a11.2 11.2 0 1 0 22.4 0 a11.2 11.2 0 1 0 -22.4 0zM1696.55 3053.71 a11.2 11.2 0 1 0 22.4 0 a11.2 11.2 0 1 0 -22.4 0zM1696.55 3165.71 a11.2 11.2 0 1 0 22.4 0 a11.2 11.2 0 1 0 -22.4 0zM1599.55 3221.71 a11.2 11.2 0 1 0 22.4 0 a11.2 11.2 0 1 0 -22.4 0zM1502.55 3165.71 a11.2 11.2 0 1 0 22.4 0 a11.2 11.2 0 1 0 -22.4 0zM1502.55 3053.71 a11.2 11.2 0 1 0 22.4 0 a11.2 11.2 0 1 0 -22.4 0zM1890.54 477.71 a11.2 11.2 0 1 0 22.4 0 a11.2 11.2 0 1 0 -22.4 0zM1987.54 533.71 a11.2 11.2 0 1 0 22.4 0 a11.2 11.2 0 1 0 -22.4 0zM1987.54 645.71 a11.2 11.2 0 1 0 22.4 0 a11.2 11.2 0 1 0 -22.4 0zM1890.54 701.71 a11.2 11.2 0 1 0 22.4 0 a11.2 11.2 0 1 0 -22.4 0zM1793.55 645.71 a11.2 11.2 0 1 0 22.4 0 a11.2 11.2 0 1 0 -22.4 0zM1793.55 533.71 a11.2 11.2 0 1 0 22.4 0 a11.2 11.2 0 1 0 -22.4 0zM1890.54 813.71 a11.2 11.2 0 1 0 22.4 0 a11.2 11.2 0 1 0 -22.4 0zM1793.55 869.71 a11.2 11.2 0 1 0 22.4 0 a11.2 11.2 0 1 0 -22.4 0zM1696.55 813.71 a11.2 11.2 0 1 0 22.4 0 a11.2 11.2 0 1 0 -22.4 0zM1696.55 701.71 a11.2 11.2 0 1 0 22.4 0 a11.2 11.2 0 1 0 -22.4 0zM1890.54 1485.71 a11.2 11.2 0 1 0 22.4 0 a11.2 11.2 0 1 0 -22.4 0zM1987.54 1541.71 a11.2 11.2 0 1 0 22.4 0 a11.2 11.2 0 1 0 -22.4 0zM1987.54 1653.71 a11.2 11.2 0 1 0 22.4 0 a11.2 11.2 0 1 0 -22.4 0zM1890.54 1709.71 a11.2 11.2 0 1 0 22.4 0 a11.2 11.2 0 1 0 -22.4 0zM1890.54 2493.71 a11.2 11.2 0 1 0 22.4 0 a11.2 11.2 0 1 0 -22.4 0zM1987.54 2549.71 a11.2 11.2 0 1 0 22.4 0 a11.2 11.2 0 1 0 -22.4 0zM1987.54 2661.71 a11.2 11.2 0 1 0 22.4 0 a11.2 11.2 0 1 0 -22.4 0zM1890.54 2717.71 a11.2 11.2 0 1 0 22.4 0 a11.2 11.2 0 1 0 -22.4 0zM1890.54 2829.71 a11.2 11.2 0 1 0 22.4 0 a11.2 11.2 0 1 0 -22.4 0zM1793.55 2885.71 a11.2 11.2 0 1 0 22.4 0 a11.2 11.2 0 1 0 -22.4 0zM1696.55 2829.71 a11.2 11.2 0 1 0 22.4 0 a11.2 11.2 0 1 0 -22.4 0z" fill="rgba(6, 57, 66, 1)"></path><path d="M280.79 656.62L440.15 748.62L440.15 932.62L280.79 1024.62L121.44 932.62L121.44 748.62zM280.79 1208.62L440.15 1300.62L440.15 1484.62L280.79 1576.62L121.44 1484.62L121.44 1300.62zM440.15 1484.62L599.5 1576.62L599.5 1760.62L440.15 1852.62L280.79 1760.62L280.79 1576.62zM599.5 1760.62L758.85 1852.62L758.85 2036.62L599.5 2128.62L440.15 2036.62L440.15 1852.62zM599.5 2864.62L758.85 2956.62L758.85 3140.62L599.5 3232.62L440.15 3140.62L440.15 2956.62zM918.21 104.62L1077.56 196.62L1077.56 380.62L918.21 472.62L758.85 380.62L758.85 196.62zM758.85 2588.62L918.21 2680.62L918.21 2864.62L758.85 2956.62L599.5 2864.62L599.5 2680.62zM1236.91 104.62L1396.27 196.62L1396.27 380.62L1236.91 472.62L1077.56 380.62L1077.56 196.62zM1236.91 656.62L1396.27 748.62L1396.27 932.62L1236.91 1024.62L1077.56 932.62L1077.56 748.62zM1236.91 1760.62L1396.27 1852.62L1396.27 2036.62L1236.91 2128.62L1077.56 2036.62L1077.56 1852.62zM1077.56 2036.62L1236.91 2128.62L1236.91 2312.62L1077.56 2404.62L918.21 2312.62L918.21 2128.62zM1396.27 380.62L1555.62 472.62L1555.62 656.62L1396.27 748.62L1236.91 656.62L1236.91 472.62zM1555.62 1208.62L1714.97 1300.62L1714.97 1484.62L1555.62 1576.62L1396.27 1484.62L1396.27 1300.62zM1555.62 2312.62L1714.97 2404.62L1714.97 2588.62L1555.62 2680.62L1396.27 2588.62L1396.27 2404.62zM1396.27 2588.62L1555.62 2680.62L1555.62 2864.62L1396.27 2956.62L1236.91 2864.62L1236.91 2680.62zM1555.62 2864.62L1714.97 2956.62L1714.97 3140.62L1555.62 3232.62L1396.27 3140.62L1396.27 2956.62zM1714.97 -171.38L1874.33 -79.38L1874.33 104.62L1714.97 196.62L1555.62 104.62L1555.62 -79.38zM1714.97 1484.62L1874.33 1576.62L1874.33 1760.62L1714.97 1852.62L1555.62 1760.62L1555.62 1576.62zM1874.33 1760.62L2033.68 1852.62L2033.68 2036.62L1874.33 2128.62L1714.97 2036.62L1714.97 1852.62zM1874.33 2312.62L2033.68 2404.62L2033.68 2588.62L1874.33 2680.62L1714.97 2588.62L1714.97 2404.62zM1874.33 2864.62L2033.68 2956.62L2033.68 3140.62L1874.33 3232.62L1714.97 3140.62L1714.97 2956.62zM2193.03 1208.62L2352.38 1300.62L2352.38 1484.62L2193.03 1576.62L2033.68 1484.62L2033.68 1300.62z" stroke="rgba(7, 95, 110, 1)" stroke-width="2"></path></g><defs><mask id="SvgjsMask3132"><rect width="1920" height="3000" fill="#ffffff"></rect></mask><linearGradient x1="-14.06%" y1="9%" x2="114.06%" y2="91%" gradientUnits="userSpaceOnUse" id="SvgjsLinearGradient3133"><stop stop-color="rgba(5, 89, 102, 1)" offset="0"></stop><stop stop-color="rgba(0, 36, 37, 1)" offset="1"></stop></linearGradient></defs></svg>