<svg xmlns="http://www.w3.org/2000/svg" version="1.1" xmlns:xlink="http://www.w3.org/1999/xlink" xmlns:svgjs="http://svgjs.dev/svgjs" width="1920" height="5000" preserveAspectRatio="none" viewBox="0 0 1920 5000"><g mask="url(&quot;#SvgjsMask3148&quot;)" fill="none"><rect width="1920" height="5000" x="0" y="0" fill="url(&quot;#SvgjsLinearGradient3149&quot;)"></rect><path d="M66.69 -36.04L163.69 19.96L163.69 131.96L66.69 187.96L-30.31 131.96L-30.31 19.96zM66.69 299.96L163.69 355.96L163.69 467.96L66.69 523.96L-30.31 467.96L-30.31 355.96zM66.69 635.96L163.69 691.96L163.69 803.96L66.69 859.96L-30.31 803.96L-30.31 691.96zM163.69 803.96L260.69 859.96L260.69 971.96L163.69 1027.96L66.69 971.96L66.69 859.96zM66.69 971.96L163.69 1027.96L163.69 1139.96L66.69 1195.96L-30.31 1139.96L-30.31 1027.96zM163.69 1139.96L260.69 1195.96L260.69 1307.96L163.69 1363.96L66.69 1307.96L66.69 1195.96zM66.69 1307.96L163.69 1363.96L163.69 1475.96L66.69 1531.96L-30.31 1475.96L-30.31 1363.96zM66.69 1643.96L163.69 1699.96L163.69 1811.96L66.69 1867.96L-30.31 1811.96L-30.31 1699.96zM163.69 1811.96L260.69 1867.96L260.69 1979.96L163.69 2035.96L66.69 1979.96L66.69 1867.96zM66.69 1979.96L163.69 2035.96L163.69 2147.96L66.69 2203.96L-30.31 2147.96L-30.31 2035.96zM163.69 2147.96L260.69 2203.96L260.69 2315.96L163.69 2371.96L66.69 2315.96L66.69 2203.96zM66.69 2315.96L163.69 2371.96L163.69 2483.96L66.69 2539.96L-30.31 2483.96L-30.31 2371.96zM163.69 2483.96L260.69 2539.96L260.69 2651.96L163.69 2707.96L66.69 2651.96L66.69 2539.96zM66.69 2651.96L163.69 2707.96L163.69 2819.96L66.69 2875.96L-30.31 2819.96L-30.31 2707.96zM66.69 2987.96L163.69 3043.96L163.69 3155.96L66.69 3211.96L-30.31 3155.96L-30.31 3043.96zM163.69 4163.96L260.69 4219.96L260.69 4331.96L163.69 4387.96L66.69 4331.96L66.69 4219.96zM163.69 4499.96L260.69 4555.96L260.69 4667.96L163.69 4723.96L66.69 4667.96L66.69 4555.96zM66.69 4667.96L163.69 4723.96L163.69 4835.96L66.69 4891.96L-30.31 4835.96L-30.31 4723.96zM357.68 131.96L454.68 187.96L454.68 299.96L357.68 355.96L260.69 299.96L260.69 187.96zM357.68 467.96L454.68 523.96L454.68 635.96L357.68 691.96L260.69 635.96L260.69 523.96zM357.68 803.96L454.68 859.96L454.68 971.96L357.68 1027.96L260.69 971.96L260.69 859.96zM357.68 1139.96L454.68 1195.96L454.68 1307.96L357.68 1363.96L260.69 1307.96L260.69 1195.96zM357.68 1475.96L454.68 1531.96L454.68 1643.96L357.68 1699.96L260.69 1643.96L260.69 1531.96zM260.69 1643.96L357.68 1699.96L357.68 1811.96L260.69 1867.96L163.69 1811.96L163.69 1699.96zM260.69 2315.96L357.68 2371.96L357.68 2483.96L260.69 2539.96L163.69 2483.96L163.69 2371.96zM357.68 2483.96L454.68 2539.96L454.68 2651.96L357.68 2707.96L260.69 2651.96L260.69 2539.96zM357.68 2819.96L454.68 2875.96L454.68 2987.96L357.68 3043.96L260.69 2987.96L260.69 2875.96zM357.68 3155.96L454.68 3211.96L454.68 3323.96L357.68 3379.96L260.69 3323.96L260.69 3211.96zM260.69 3323.96L357.68 3379.96L357.68 3491.96L260.69 3547.96L163.69 3491.96L163.69 3379.96zM260.69 3659.96L357.68 3715.96L357.68 3827.96L260.69 3883.96L163.69 3827.96L163.69 3715.96zM260.69 3995.96L357.68 4051.96L357.68 4163.96L260.69 4219.96L163.69 4163.96L163.69 4051.96zM357.68 4163.96L454.68 4219.96L454.68 4331.96L357.68 4387.96L260.69 4331.96L260.69 4219.96zM260.69 4667.96L357.68 4723.96L357.68 4835.96L260.69 4891.96L163.69 4835.96L163.69 4723.96zM357.68 4835.96L454.68 4891.96L454.68 5003.96L357.68 5059.96L260.69 5003.96L260.69 4891.96zM260.69 5003.96L357.68 5059.96L357.68 5171.96L260.69 5227.96L163.69 5171.96L163.69 5059.96zM454.68 -36.04L551.68 19.96L551.68 131.96L454.68 187.96L357.68 131.96L357.68 19.96zM551.68 131.96L648.68 187.96L648.68 299.96L551.68 355.96L454.68 299.96L454.68 187.96zM454.68 635.96L551.68 691.96L551.68 803.96L454.68 859.96L357.68 803.96L357.68 691.96zM551.68 803.96L648.68 859.96L648.68 971.96L551.68 1027.96L454.68 971.96L454.68 859.96zM454.68 1307.96L551.68 1363.96L551.68 1475.96L454.68 1531.96L357.68 1475.96L357.68 1363.96zM454.68 1643.96L551.68 1699.96L551.68 1811.96L454.68 1867.96L357.68 1811.96L357.68 1699.96zM551.68 1811.96L648.68 1867.96L648.68 1979.96L551.68 2035.96L454.68 1979.96L454.68 1867.96zM551.68 2147.96L648.68 2203.96L648.68 2315.96L551.68 2371.96L454.68 2315.96L454.68 2203.96zM454.68 2651.96L551.68 2707.96L551.68 2819.96L454.68 2875.96L357.68 2819.96L357.68 2707.96zM551.68 2819.96L648.68 2875.96L648.68 2987.96L551.68 3043.96L454.68 2987.96L454.68 2875.96zM454.68 2987.96L551.68 3043.96L551.68 3155.96L454.68 3211.96L357.68 3155.96L357.68 3043.96zM551.68 3155.96L648.68 3211.96L648.68 3323.96L551.68 3379.96L454.68 3323.96L454.68 3211.96zM551.68 3491.96L648.68 3547.96L648.68 3659.96L551.68 3715.96L454.68 3659.96L454.68 3547.96zM454.68 3659.96L551.68 3715.96L551.68 3827.96L454.68 3883.96L357.68 3827.96L357.68 3715.96zM551.68 3827.96L648.68 3883.96L648.68 3995.96L551.68 4051.96L454.68 3995.96L454.68 3883.96zM454.68 4667.96L551.68 4723.96L551.68 4835.96L454.68 4891.96L357.68 4835.96L357.68 4723.96zM648.68 -36.04L745.67 19.96L745.67 131.96L648.68 187.96L551.68 131.96L551.68 19.96zM648.68 299.96L745.67 355.96L745.67 467.96L648.68 523.96L551.68 467.96L551.68 355.96zM745.67 467.96L842.67 523.96L842.67 635.96L745.67 691.96L648.68 635.96L648.68 523.96zM745.67 803.96L842.67 859.96L842.67 971.96L745.67 1027.96L648.68 971.96L648.68 859.96zM648.68 1307.96L745.67 1363.96L745.67 1475.96L648.68 1531.96L551.68 1475.96L551.68 1363.96zM745.67 1811.96L842.67 1867.96L842.67 1979.96L745.67 2035.96L648.68 1979.96L648.68 1867.96zM745.67 2147.96L842.67 2203.96L842.67 2315.96L745.67 2371.96L648.68 2315.96L648.68 2203.96zM745.67 2819.96L842.67 2875.96L842.67 2987.96L745.67 3043.96L648.68 2987.96L648.68 2875.96zM745.67 3155.96L842.67 3211.96L842.67 3323.96L745.67 3379.96L648.68 3323.96L648.68 3211.96zM648.68 3995.96L745.67 4051.96L745.67 4163.96L648.68 4219.96L551.68 4163.96L551.68 4051.96zM745.67 4499.96L842.67 4555.96L842.67 4667.96L745.67 4723.96L648.68 4667.96L648.68 4555.96zM648.68 4667.96L745.67 4723.96L745.67 4835.96L648.68 4891.96L551.68 4835.96L551.68 4723.96zM648.68 5003.96L745.67 5059.96L745.67 5171.96L648.68 5227.96L551.68 5171.96L551.68 5059.96zM842.67 299.96L939.67 355.96L939.67 467.96L842.67 523.96L745.67 467.96L745.67 355.96zM842.67 635.96L939.67 691.96L939.67 803.96L842.67 859.96L745.67 803.96L745.67 691.96zM842.67 1307.96L939.67 1363.96L939.67 1475.96L842.67 1531.96L745.67 1475.96L745.67 1363.96zM939.67 1475.96L1036.67 1531.96L1036.67 1643.96L939.67 1699.96L842.67 1643.96L842.67 1531.96zM939.67 1811.96L1036.67 1867.96L1036.67 1979.96L939.67 2035.96L842.67 1979.96L842.67 1867.96zM842.67 1979.96L939.67 2035.96L939.67 2147.96L842.67 2203.96L745.67 2147.96L745.67 2035.96zM842.67 2315.96L939.67 2371.96L939.67 2483.96L842.67 2539.96L745.67 2483.96L745.67 2371.96zM939.67 2483.96L1036.67 2539.96L1036.67 2651.96L939.67 2707.96L842.67 2651.96L842.67 2539.96zM842.67 2651.96L939.67 2707.96L939.67 2819.96L842.67 2875.96L745.67 2819.96L745.67 2707.96zM842.67 2987.96L939.67 3043.96L939.67 3155.96L842.67 3211.96L745.67 3155.96L745.67 3043.96zM842.67 3323.96L939.67 3379.96L939.67 3491.96L842.67 3547.96L745.67 3491.96L745.67 3379.96zM939.67 3827.96L1036.67 3883.96L1036.67 3995.96L939.67 4051.96L842.67 3995.96L842.67 3883.96zM842.67 3995.96L939.67 4051.96L939.67 4163.96L842.67 4219.96L745.67 4163.96L745.67 4051.96zM842.67 4331.96L939.67 4387.96L939.67 4499.96L842.67 4555.96L745.67 4499.96L745.67 4387.96zM939.67 4499.96L1036.67 4555.96L1036.67 4667.96L939.67 4723.96L842.67 4667.96L842.67 4555.96zM842.67 4667.96L939.67 4723.96L939.67 4835.96L842.67 4891.96L745.67 4835.96L745.67 4723.96zM939.67 4835.96L1036.67 4891.96L1036.67 5003.96L939.67 5059.96L842.67 5003.96L842.67 4891.96zM1036.67 -36.04L1133.66 19.96L1133.66 131.96L1036.67 187.96L939.67 131.96L939.67 19.96zM1036.67 299.96L1133.66 355.96L1133.66 467.96L1036.67 523.96L939.67 467.96L939.67 355.96zM1133.66 467.96L1230.66 523.96L1230.66 635.96L1133.66 691.96L1036.67 635.96L1036.67 523.96zM1036.67 635.96L1133.66 691.96L1133.66 803.96L1036.67 859.96L939.67 803.96L939.67 691.96zM1036.67 1307.96L1133.66 1363.96L1133.66 1475.96L1036.67 1531.96L939.67 1475.96L939.67 1363.96zM1036.67 1643.96L1133.66 1699.96L1133.66 1811.96L1036.67 1867.96L939.67 1811.96L939.67 1699.96zM1133.66 1811.96L1230.66 1867.96L1230.66 1979.96L1133.66 2035.96L1036.67 1979.96L1036.67 1867.96zM1133.66 2483.96L1230.66 2539.96L1230.66 2651.96L1133.66 2707.96L1036.67 2651.96L1036.67 2539.96zM1133.66 2819.96L1230.66 2875.96L1230.66 2987.96L1133.66 3043.96L1036.67 2987.96L1036.67 2875.96zM1133.66 3155.96L1230.66 3211.96L1230.66 3323.96L1133.66 3379.96L1036.67 3323.96L1036.67 3211.96zM1036.67 4331.96L1133.66 4387.96L1133.66 4499.96L1036.67 4555.96L939.67 4499.96L939.67 4387.96zM1036.67 4667.96L1133.66 4723.96L1133.66 4835.96L1036.67 4891.96L939.67 4835.96L939.67 4723.96zM1133.66 4835.96L1230.66 4891.96L1230.66 5003.96L1133.66 5059.96L1036.67 5003.96L1036.67 4891.96zM1327.66 131.96L1424.66 187.96L1424.66 299.96L1327.66 355.96L1230.66 299.96L1230.66 187.96zM1230.66 971.96L1327.66 1027.96L1327.66 1139.96L1230.66 1195.96L1133.66 1139.96L1133.66 1027.96zM1230.66 1307.96L1327.66 1363.96L1327.66 1475.96L1230.66 1531.96L1133.66 1475.96L1133.66 1363.96zM1327.66 1475.96L1424.66 1531.96L1424.66 1643.96L1327.66 1699.96L1230.66 1643.96L1230.66 1531.96zM1230.66 1643.96L1327.66 1699.96L1327.66 1811.96L1230.66 1867.96L1133.66 1811.96L1133.66 1699.96zM1230.66 2315.96L1327.66 2371.96L1327.66 2483.96L1230.66 2539.96L1133.66 2483.96L1133.66 2371.96zM1230.66 2651.96L1327.66 2707.96L1327.66 2819.96L1230.66 2875.96L1133.66 2819.96L1133.66 2707.96zM1230.66 2987.96L1327.66 3043.96L1327.66 3155.96L1230.66 3211.96L1133.66 3155.96L1133.66 3043.96zM1327.66 3155.96L1424.66 3211.96L1424.66 3323.96L1327.66 3379.96L1230.66 3323.96L1230.66 3211.96zM1327.66 3491.96L1424.66 3547.96L1424.66 3659.96L1327.66 3715.96L1230.66 3659.96L1230.66 3547.96zM1230.66 3995.96L1327.66 4051.96L1327.66 4163.96L1230.66 4219.96L1133.66 4163.96L1133.66 4051.96zM1327.66 4163.96L1424.66 4219.96L1424.66 4331.96L1327.66 4387.96L1230.66 4331.96L1230.66 4219.96zM1327.66 4835.96L1424.66 4891.96L1424.66 5003.96L1327.66 5059.96L1230.66 5003.96L1230.66 4891.96zM1521.65 467.96L1618.65 523.96L1618.65 635.96L1521.65 691.96L1424.66 635.96L1424.66 523.96zM1424.66 635.96L1521.65 691.96L1521.65 803.96L1424.66 859.96L1327.66 803.96L1327.66 691.96zM1424.66 971.96L1521.65 1027.96L1521.65 1139.96L1424.66 1195.96L1327.66 1139.96L1327.66 1027.96zM1424.66 1307.96L1521.65 1363.96L1521.65 1475.96L1424.66 1531.96L1327.66 1475.96L1327.66 1363.96zM1521.65 2483.96L1618.65 2539.96L1618.65 2651.96L1521.65 2707.96L1424.66 2651.96L1424.66 2539.96zM1424.66 2651.96L1521.65 2707.96L1521.65 2819.96L1424.66 2875.96L1327.66 2819.96L1327.66 2707.96zM1424.66 3323.96L1521.65 3379.96L1521.65 3491.96L1424.66 3547.96L1327.66 3491.96L1327.66 3379.96zM1424.66 3659.96L1521.65 3715.96L1521.65 3827.96L1424.66 3883.96L1327.66 3827.96L1327.66 3715.96zM1424.66 4331.96L1521.65 4387.96L1521.65 4499.96L1424.66 4555.96L1327.66 4499.96L1327.66 4387.96zM1424.66 4667.96L1521.65 4723.96L1521.65 4835.96L1424.66 4891.96L1327.66 4835.96L1327.66 4723.96zM1521.65 4835.96L1618.65 4891.96L1618.65 5003.96L1521.65 5059.96L1424.66 5003.96L1424.66 4891.96zM1424.66 5003.96L1521.65 5059.96L1521.65 5171.96L1424.66 5227.96L1327.66 5171.96L1327.66 5059.96zM1618.65 635.96L1715.65 691.96L1715.65 803.96L1618.65 859.96L1521.65 803.96L1521.65 691.96zM1715.65 803.96L1812.65 859.96L1812.65 971.96L1715.65 1027.96L1618.65 971.96L1618.65 859.96zM1715.65 1139.96L1812.65 1195.96L1812.65 1307.96L1715.65 1363.96L1618.65 1307.96L1618.65 1195.96zM1715.65 1475.96L1812.65 1531.96L1812.65 1643.96L1715.65 1699.96L1618.65 1643.96L1618.65 1531.96zM1618.65 2651.96L1715.65 2707.96L1715.65 2819.96L1618.65 2875.96L1521.65 2819.96L1521.65 2707.96zM1715.65 2819.96L1812.65 2875.96L1812.65 2987.96L1715.65 3043.96L1618.65 2987.96L1618.65 2875.96zM1618.65 2987.96L1715.65 3043.96L1715.65 3155.96L1618.65 3211.96L1521.65 3155.96L1521.65 3043.96zM1715.65 3155.96L1812.65 3211.96L1812.65 3323.96L1715.65 3379.96L1618.65 3323.96L1618.65 3211.96zM1618.65 3323.96L1715.65 3379.96L1715.65 3491.96L1618.65 3547.96L1521.65 3491.96L1521.65 3379.96zM1715.65 3491.96L1812.65 3547.96L1812.65 3659.96L1715.65 3715.96L1618.65 3659.96L1618.65 3547.96zM1618.65 3659.96L1715.65 3715.96L1715.65 3827.96L1618.65 3883.96L1521.65 3827.96L1521.65 3715.96zM1715.65 3827.96L1812.65 3883.96L1812.65 3995.96L1715.65 4051.96L1618.65 3995.96L1618.65 3883.96zM1715.65 4163.96L1812.65 4219.96L1812.65 4331.96L1715.65 4387.96L1618.65 4331.96L1618.65 4219.96zM1618.65 4331.96L1715.65 4387.96L1715.65 4499.96L1618.65 4555.96L1521.65 4499.96L1521.65 4387.96zM1715.65 4499.96L1812.65 4555.96L1812.65 4667.96L1715.65 4723.96L1618.65 4667.96L1618.65 4555.96zM1812.65 299.96L1909.64 355.96L1909.64 467.96L1812.65 523.96L1715.65 467.96L1715.65 355.96zM1812.65 971.96L1909.64 1027.96L1909.64 1139.96L1812.65 1195.96L1715.65 1139.96L1715.65 1027.96zM1812.65 1307.96L1909.64 1363.96L1909.64 1475.96L1812.65 1531.96L1715.65 1475.96L1715.65 1363.96zM1909.64 1475.96L2006.64 1531.96L2006.64 1643.96L1909.64 1699.96L1812.65 1643.96L1812.65 1531.96zM1812.65 1979.96L1909.64 2035.96L1909.64 2147.96L1812.65 2203.96L1715.65 2147.96L1715.65 2035.96zM1812.65 2315.96L1909.64 2371.96L1909.64 2483.96L1812.65 2539.96L1715.65 2483.96L1715.65 2371.96zM1909.64 2483.96L2006.64 2539.96L2006.64 2651.96L1909.64 2707.96L1812.65 2651.96L1812.65 2539.96zM1909.64 2819.96L2006.64 2875.96L2006.64 2987.96L1909.64 3043.96L1812.65 2987.96L1812.65 2875.96zM1909.64 3827.96L2006.64 3883.96L2006.64 3995.96L1909.64 4051.96L1812.65 3995.96L1812.65 3883.96zM1812.65 3995.96L1909.64 4051.96L1909.64 4163.96L1812.65 4219.96L1715.65 4163.96L1715.65 4051.96zM1812.65 4331.96L1909.64 4387.96L1909.64 4499.96L1812.65 4555.96L1715.65 4499.96L1715.65 4387.96zM1909.64 4499.96L2006.64 4555.96L2006.64 4667.96L1909.64 4723.96L1812.65 4667.96L1812.65 4555.96zM1812.65 4667.96L1909.64 4723.96L1909.64 4835.96L1812.65 4891.96L1715.65 4835.96L1715.65 4723.96z" stroke="rgba(6, 57, 66, 1)" stroke-width="2"></path><path d="M55.49 -36.04 a11.2 11.2 0 1 0 22.4 0 a11.2 11.2 0 1 0 -22.4 0zM152.49 19.96 a11.2 11.2 0 1 0 22.4 0 a11.2 11.2 0 1 0 -22.4 0zM152.49 131.96 a11.2 11.2 0 1 0 22.4 0 a11.2 11.2 0 1 0 -22.4 0zM55.49 187.96 a11.2 11.2 0 1 0 22.4 0 a11.2 11.2 0 1 0 -22.4 0zM-41.51 131.96 a11.2 11.2 0 1 0 22.4 0 a11.2 11.2 0 1 0 -22.4 0zM-41.51 19.96 a11.2 11.2 0 1 0 22.4 0 a11.2 11.2 0 1 0 -22.4 0zM55.49 299.96 a11.2 11.2 0 1 0 22.4 0 a11.2 11.2 0 1 0 -22.4 0zM152.49 355.96 a11.2 11.2 0 1 0 22.4 0 a11.2 11.2 0 1 0 -22.4 0zM152.49 467.96 a11.2 11.2 0 1 0 22.4 0 a11.2 11.2 0 1 0 -22.4 0zM55.49 523.96 a11.2 11.2 0 1 0 22.4 0 a11.2 11.2 0 1 0 -22.4 0zM-41.51 467.96 a11.2 11.2 0 1 0 22.4 0 a11.2 11.2 0 1 0 -22.4 0zM-41.51 355.96 a11.2 11.2 0 1 0 22.4 0 a11.2 11.2 0 1 0 -22.4 0zM55.49 635.96 a11.2 11.2 0 1 0 22.4 0 a11.2 11.2 0 1 0 -22.4 0zM152.49 691.96 a11.2 11.2 0 1 0 22.4 0 a11.2 11.2 0 1 0 -22.4 0zM152.49 803.96 a11.2 11.2 0 1 0 22.4 0 a11.2 11.2 0 1 0 -22.4 0zM55.49 859.96 a11.2 11.2 0 1 0 22.4 0 a11.2 11.2 0 1 0 -22.4 0zM-41.51 803.96 a11.2 11.2 0 1 0 22.4 0 a11.2 11.2 0 1 0 -22.4 0zM-41.51 691.96 a11.2 11.2 0 1 0 22.4 0 a11.2 11.2 0 1 0 -22.4 0zM249.49 859.96 a11.2 11.2 0 1 0 22.4 0 a11.2 11.2 0 1 0 -22.4 0zM249.49 971.96 a11.2 11.2 0 1 0 22.4 0 a11.2 11.2 0 1 0 -22.4 0zM152.49 1027.96 a11.2 11.2 0 1 0 22.4 0 a11.2 11.2 0 1 0 -22.4 0zM55.49 971.96 a11.2 11.2 0 1 0 22.4 0 a11.2 11.2 0 1 0 -22.4 0zM152.49 1139.96 a11.2 11.2 0 1 0 22.4 0 a11.2 11.2 0 1 0 -22.4 0zM55.49 1195.96 a11.2 11.2 0 1 0 22.4 0 a11.2 11.2 0 1 0 -22.4 0zM-41.51 1139.96 a11.2 11.2 0 1 0 22.4 0 a11.2 11.2 0 1 0 -22.4 0zM-41.51 1027.96 a11.2 11.2 0 1 0 22.4 0 a11.2 11.2 0 1 0 -22.4 0zM249.49 1195.96 a11.2 11.2 0 1 0 22.4 0 a11.2 11.2 0 1 0 -22.4 0zM249.49 1307.96 a11.2 11.2 0 1 0 22.4 0 a11.2 11.2 0 1 0 -22.4 0zM152.49 1363.96 a11.2 11.2 0 1 0 22.4 0 a11.2 11.2 0 1 0 -22.4 0zM55.49 1307.96 a11.2 11.2 0 1 0 22.4 0 a11.2 11.2 0 1 0 -22.4 0zM152.49 1475.96 a11.2 11.2 0 1 0 22.4 0 a11.2 11.2 0 1 0 -22.4 0zM55.49 1531.96 a11.2 11.2 0 1 0 22.4 0 a11.2 11.2 0 1 0 -22.4 0zM-41.51 1475.96 a11.2 11.2 0 1 0 22.4 0 a11.2 11.2 0 1 0 -22.4 0zM-41.51 1363.96 a11.2 11.2 0 1 0 22.4 0 a11.2 11.2 0 1 0 -22.4 0zM55.49 1643.96 a11.2 11.2 0 1 0 22.4 0 a11.2 11.2 0 1 0 -22.4 0zM152.49 1699.96 a11.2 11.2 0 1 0 22.4 0 a11.2 11.2 0 1 0 -22.4 0zM152.49 1811.96 a11.2 11.2 0 1 0 22.4 0 a11.2 11.2 0 1 0 -22.4 0zM55.49 1867.96 a11.2 11.2 0 1 0 22.4 0 a11.2 11.2 0 1 0 -22.4 0zM-41.51 1811.96 a11.2 11.2 0 1 0 22.4 0 a11.2 11.2 0 1 0 -22.4 0zM-41.51 1699.96 a11.2 11.2 0 1 0 22.4 0 a11.2 11.2 0 1 0 -22.4 0zM249.49 1867.96 a11.2 11.2 0 1 0 22.4 0 a11.2 11.2 0 1 0 -22.4 0zM249.49 1979.96 a11.2 11.2 0 1 0 22.4 0 a11.2 11.2 0 1 0 -22.4 0zM152.49 2035.96 a11.2 11.2 0 1 0 22.4 0 a11.2 11.2 0 1 0 -22.4 0zM55.49 1979.96 a11.2 11.2 0 1 0 22.4 0 a11.2 11.2 0 1 0 -22.4 0zM152.49 2147.96 a11.2 11.2 0 1 0 22.4 0 a11.2 11.2 0 1 0 -22.4 0zM55.49 2203.96 a11.2 11.2 0 1 0 22.4 0 a11.2 11.2 0 1 0 -22.4 0zM-41.51 2147.96 a11.2 11.2 0 1 0 22.4 0 a11.2 11.2 0 1 0 -22.4 0zM-41.51 2035.96 a11.2 11.2 0 1 0 22.4 0 a11.2 11.2 0 1 0 -22.4 0zM249.49 2203.96 a11.2 11.2 0 1 0 22.4 0 a11.2 11.2 0 1 0 -22.4 0zM249.49 2315.96 a11.2 11.2 0 1 0 22.4 0 a11.2 11.2 0 1 0 -22.4 0zM152.49 2371.96 a11.2 11.2 0 1 0 22.4 0 a11.2 11.2 0 1 0 -22.4 0zM55.49 2315.96 a11.2 11.2 0 1 0 22.4 0 a11.2 11.2 0 1 0 -22.4 0zM152.49 2483.96 a11.2 11.2 0 1 0 22.4 0 a11.2 11.2 0 1 0 -22.4 0zM55.49 2539.96 a11.2 11.2 0 1 0 22.4 0 a11.2 11.2 0 1 0 -22.4 0zM-41.51 2483.96 a11.2 11.2 0 1 0 22.4 0 a11.2 11.2 0 1 0 -22.4 0zM-41.51 2371.96 a11.2 11.2 0 1 0 22.4 0 a11.2 11.2 0 1 0 -22.4 0zM249.49 2539.96 a11.2 11.2 0 1 0 22.4 0 a11.2 11.2 0 1 0 -22.4 0zM249.49 2651.96 a11.2 11.2 0 1 0 22.4 0 a11.2 11.2 0 1 0 -22.4 0zM152.49 2707.96 a11.2 11.2 0 1 0 22.4 0 a11.2 11.2 0 1 0 -22.4 0zM55.49 2651.96 a11.2 11.2 0 1 0 22.4 0 a11.2 11.2 0 1 0 -22.4 0zM152.49 2819.96 a11.2 11.2 0 1 0 22.4 0 a11.2 11.2 0 1 0 -22.4 0zM55.49 2875.96 a11.2 11.2 0 1 0 22.4 0 a11.2 11.2 0 1 0 -22.4 0zM-41.51 2819.96 a11.2 11.2 0 1 0 22.4 0 a11.2 11.2 0 1 0 -22.4 0zM-41.51 2707.96 a11.2 11.2 0 1 0 22.4 0 a11.2 11.2 0 1 0 -22.4 0zM55.49 2987.96 a11.2 11.2 0 1 0 22.4 0 a11.2 11.2 0 1 0 -22.4 0zM152.49 3043.96 a11.2 11.2 0 1 0 22.4 0 a11.2 11.2 0 1 0 -22.4 0zM152.49 3155.96 a11.2 11.2 0 1 0 22.4 0 a11.2 11.2 0 1 0 -22.4 0zM55.49 3211.96 a11.2 11.2 0 1 0 22.4 0 a11.2 11.2 0 1 0 -22.4 0zM-41.51 3155.96 a11.2 11.2 0 1 0 22.4 0 a11.2 11.2 0 1 0 -22.4 0zM-41.51 3043.96 a11.2 11.2 0 1 0 22.4 0 a11.2 11.2 0 1 0 -22.4 0zM152.49 4163.96 a11.2 11.2 0 1 0 22.4 0 a11.2 11.2 0 1 0 -22.4 0zM249.49 4219.96 a11.2 11.2 0 1 0 22.4 0 a11.2 11.2 0 1 0 -22.4 0zM249.49 4331.96 a11.2 11.2 0 1 0 22.4 0 a11.2 11.2 0 1 0 -22.4 0zM152.49 4387.96 a11.2 11.2 0 1 0 22.4 0 a11.2 11.2 0 1 0 -22.4 0zM55.49 4331.96 a11.2 11.2 0 1 0 22.4 0 a11.2 11.2 0 1 0 -22.4 0zM55.49 4219.96 a11.2 11.2 0 1 0 22.4 0 a11.2 11.2 0 1 0 -22.4 0zM152.49 4499.96 a11.2 11.2 0 1 0 22.4 0 a11.2 11.2 0 1 0 -22.4 0zM249.49 4555.96 a11.2 11.2 0 1 0 22.4 0 a11.2 11.2 0 1 0 -22.4 0zM249.49 4667.96 a11.2 11.2 0 1 0 22.4 0 a11.2 11.2 0 1 0 -22.4 0zM152.49 4723.96 a11.2 11.2 0 1 0 22.4 0 a11.2 11.2 0 1 0 -22.4 0zM55.49 4667.96 a11.2 11.2 0 1 0 22.4 0 a11.2 11.2 0 1 0 -22.4 0zM55.49 4555.96 a11.2 11.2 0 1 0 22.4 0 a11.2 11.2 0 1 0 -22.4 0zM152.49 4835.96 a11.2 11.2 0 1 0 22.4 0 a11.2 11.2 0 1 0 -22.4 0zM55.49 4891.96 a11.2 11.2 0 1 0 22.4 0 a11.2 11.2 0 1 0 -22.4 0zM-41.51 4835.96 a11.2 11.2 0 1 0 22.4 0 a11.2 11.2 0 1 0 -22.4 0zM-41.51 4723.96 a11.2 11.2 0 1 0 22.4 0 a11.2 11.2 0 1 0 -22.4 0zM346.48 131.96 a11.2 11.2 0 1 0 22.4 0 a11.2 11.2 0 1 0 -22.4 0zM443.48 187.96 a11.2 11.2 0 1 0 22.4 0 a11.2 11.2 0 1 0 -22.4 0zM443.48 299.96 a11.2 11.2 0 1 0 22.4 0 a11.2 11.2 0 1 0 -22.4 0zM346.48 355.96 a11.2 11.2 0 1 0 22.4 0 a11.2 11.2 0 1 0 -22.4 0zM249.49 299.96 a11.2 11.2 0 1 0 22.4 0 a11.2 11.2 0 1 0 -22.4 0zM249.49 187.96 a11.2 11.2 0 1 0 22.4 0 a11.2 11.2 0 1 0 -22.4 0zM346.48 467.96 a11.2 11.2 0 1 0 22.4 0 a11.2 11.2 0 1 0 -22.4 0zM443.48 523.96 a11.2 11.2 0 1 0 22.4 0 a11.2 11.2 0 1 0 -22.4 0zM443.48 635.96 a11.2 11.2 0 1 0 22.4 0 a11.2 11.2 0 1 0 -22.4 0zM346.48 691.96 a11.2 11.2 0 1 0 22.4 0 a11.2 11.2 0 1 0 -22.4 0zM249.49 635.96 a11.2 11.2 0 1 0 22.4 0 a11.2 11.2 0 1 0 -22.4 0zM249.49 523.96 a11.2 11.2 0 1 0 22.4 0 a11.2 11.2 0 1 0 -22.4 0zM346.48 803.96 a11.2 11.2 0 1 0 22.4 0 a11.2 11.2 0 1 0 -22.4 0zM443.48 859.96 a11.2 11.2 0 1 0 22.4 0 a11.2 11.2 0 1 0 -22.4 0zM443.48 971.96 a11.2 11.2 0 1 0 22.4 0 a11.2 11.2 0 1 0 -22.4 0zM346.48 1027.96 a11.2 11.2 0 1 0 22.4 0 a11.2 11.2 0 1 0 -22.4 0zM346.48 1139.96 a11.2 11.2 0 1 0 22.4 0 a11.2 11.2 0 1 0 -22.4 0zM443.48 1195.96 a11.2 11.2 0 1 0 22.4 0 a11.2 11.2 0 1 0 -22.4 0zM443.48 1307.96 a11.2 11.2 0 1 0 22.4 0 a11.2 11.2 0 1 0 -22.4 0zM346.48 1363.96 a11.2 11.2 0 1 0 22.4 0 a11.2 11.2 0 1 0 -22.4 0zM346.48 1475.96 a11.2 11.2 0 1 0 22.4 0 a11.2 11.2 0 1 0 -22.4 0zM443.48 1531.96 a11.2 11.2 0 1 0 22.4 0 a11.2 11.2 0 1 0 -22.4 0zM443.48 1643.96 a11.2 11.2 0 1 0 22.4 0 a11.2 11.2 0 1 0 -22.4 0zM346.48 1699.96 a11.2 11.2 0 1 0 22.4 0 a11.2 11.2 0 1 0 -22.4 0zM249.49 1643.96 a11.2 11.2 0 1 0 22.4 0 a11.2 11.2 0 1 0 -22.4 0zM249.49 1531.96 a11.2 11.2 0 1 0 22.4 0 a11.2 11.2 0 1 0 -22.4 0zM346.48 1811.96 a11.2 11.2 0 1 0 22.4 0 a11.2 11.2 0 1 0 -22.4 0zM346.48 2371.96 a11.2 11.2 0 1 0 22.4 0 a11.2 11.2 0 1 0 -22.4 0zM346.48 2483.96 a11.2 11.2 0 1 0 22.4 0 a11.2 11.2 0 1 0 -22.4 0zM443.48 2539.96 a11.2 11.2 0 1 0 22.4 0 a11.2 11.2 0 1 0 -22.4 0zM443.48 2651.96 a11.2 11.2 0 1 0 22.4 0 a11.2 11.2 0 1 0 -22.4 0zM346.48 2707.96 a11.2 11.2 0 1 0 22.4 0 a11.2 11.2 0 1 0 -22.4 0zM346.48 2819.96 a11.2 11.2 0 1 0 22.4 0 a11.2 11.2 0 1 0 -22.4 0zM443.48 2875.96 a11.2 11.2 0 1 0 22.4 0 a11.2 11.2 0 1 0 -22.4 0zM443.48 2987.96 a11.2 11.2 0 1 0 22.4 0 a11.2 11.2 0 1 0 -22.4 0zM346.48 3043.96 a11.2 11.2 0 1 0 22.4 0 a11.2 11.2 0 1 0 -22.4 0zM249.49 2987.96 a11.2 11.2 0 1 0 22.4 0 a11.2 11.2 0 1 0 -22.4 0zM249.49 2875.96 a11.2 11.2 0 1 0 22.4 0 a11.2 11.2 0 1 0 -22.4 0zM346.48 3155.96 a11.2 11.2 0 1 0 22.4 0 a11.2 11.2 0 1 0 -22.4 0zM443.48 3211.96 a11.2 11.2 0 1 0 22.4 0 a11.2 11.2 0 1 0 -22.4 0zM443.48 3323.96 a11.2 11.2 0 1 0 22.4 0 a11.2 11.2 0 1 0 -22.4 0zM346.48 3379.96 a11.2 11.2 0 1 0 22.4 0 a11.2 11.2 0 1 0 -22.4 0zM249.49 3323.96 a11.2 11.2 0 1 0 22.4 0 a11.2 11.2 0 1 0 -22.4 0zM249.49 3211.96 a11.2 11.2 0 1 0 22.4 0 a11.2 11.2 0 1 0 -22.4 0zM346.48 3491.96 a11.2 11.2 0 1 0 22.4 0 a11.2 11.2 0 1 0 -22.4 0zM249.49 3547.96 a11.2 11.2 0 1 0 22.4 0 a11.2 11.2 0 1 0 -22.4 0zM152.49 3491.96 a11.2 11.2 0 1 0 22.4 0 a11.2 11.2 0 1 0 -22.4 0zM152.49 3379.96 a11.2 11.2 0 1 0 22.4 0 a11.2 11.2 0 1 0 -22.4 0zM249.49 3659.96 a11.2 11.2 0 1 0 22.4 0 a11.2 11.2 0 1 0 -22.4 0zM346.48 3715.96 a11.2 11.2 0 1 0 22.4 0 a11.2 11.2 0 1 0 -22.4 0zM346.48 3827.96 a11.2 11.2 0 1 0 22.4 0 a11.2 11.2 0 1 0 -22.4 0zM249.49 3883.96 a11.2 11.2 0 1 0 22.4 0 a11.2 11.2 0 1 0 -22.4 0zM152.49 3827.96 a11.2 11.2 0 1 0 22.4 0 a11.2 11.2 0 1 0 -22.4 0zM152.49 3715.96 a11.2 11.2 0 1 0 22.4 0 a11.2 11.2 0 1 0 -22.4 0zM249.49 3995.96 a11.2 11.2 0 1 0 22.4 0 a11.2 11.2 0 1 0 -22.4 0zM346.48 4051.96 a11.2 11.2 0 1 0 22.4 0 a11.2 11.2 0 1 0 -22.4 0zM346.48 4163.96 a11.2 11.2 0 1 0 22.4 0 a11.2 11.2 0 1 0 -22.4 0zM152.49 4051.96 a11.2 11.2 0 1 0 22.4 0 a11.2 11.2 0 1 0 -22.4 0zM443.48 4219.96 a11.2 11.2 0 1 0 22.4 0 a11.2 11.2 0 1 0 -22.4 0zM443.48 4331.96 a11.2 11.2 0 1 0 22.4 0 a11.2 11.2 0 1 0 -22.4 0zM346.48 4387.96 a11.2 11.2 0 1 0 22.4 0 a11.2 11.2 0 1 0 -22.4 0zM346.48 4723.96 a11.2 11.2 0 1 0 22.4 0 a11.2 11.2 0 1 0 -22.4 0zM346.48 4835.96 a11.2 11.2 0 1 0 22.4 0 a11.2 11.2 0 1 0 -22.4 0zM249.49 4891.96 a11.2 11.2 0 1 0 22.4 0 a11.2 11.2 0 1 0 -22.4 0zM443.48 4891.96 a11.2 11.2 0 1 0 22.4 0 a11.2 11.2 0 1 0 -22.4 0zM443.48 5003.96 a11.2 11.2 0 1 0 22.4 0 a11.2 11.2 0 1 0 -22.4 0zM346.48 5059.96 a11.2 11.2 0 1 0 22.4 0 a11.2 11.2 0 1 0 -22.4 0zM249.49 5003.96 a11.2 11.2 0 1 0 22.4 0 a11.2 11.2 0 1 0 -22.4 0zM346.48 5171.96 a11.2 11.2 0 1 0 22.4 0 a11.2 11.2 0 1 0 -22.4 0zM249.49 5227.96 a11.2 11.2 0 1 0 22.4 0 a11.2 11.2 0 1 0 -22.4 0zM152.49 5171.96 a11.2 11.2 0 1 0 22.4 0 a11.2 11.2 0 1 0 -22.4 0zM152.49 5059.96 a11.2 11.2 0 1 0 22.4 0 a11.2 11.2 0 1 0 -22.4 0zM443.48 -36.04 a11.2 11.2 0 1 0 22.4 0 a11.2 11.2 0 1 0 -22.4 0zM540.48 19.96 a11.2 11.2 0 1 0 22.4 0 a11.2 11.2 0 1 0 -22.4 0zM540.48 131.96 a11.2 11.2 0 1 0 22.4 0 a11.2 11.2 0 1 0 -22.4 0zM346.48 19.96 a11.2 11.2 0 1 0 22.4 0 a11.2 11.2 0 1 0 -22.4 0zM637.48 187.96 a11.2 11.2 0 1 0 22.4 0 a11.2 11.2 0 1 0 -22.4 0zM637.48 299.96 a11.2 11.2 0 1 0 22.4 0 a11.2 11.2 0 1 0 -22.4 0zM540.48 355.96 a11.2 11.2 0 1 0 22.4 0 a11.2 11.2 0 1 0 -22.4 0zM540.48 691.96 a11.2 11.2 0 1 0 22.4 0 a11.2 11.2 0 1 0 -22.4 0zM540.48 803.96 a11.2 11.2 0 1 0 22.4 0 a11.2 11.2 0 1 0 -22.4 0zM637.48 859.96 a11.2 11.2 0 1 0 22.4 0 a11.2 11.2 0 1 0 -22.4 0zM637.48 971.96 a11.2 11.2 0 1 0 22.4 0 a11.2 11.2 0 1 0 -22.4 0zM540.48 1027.96 a11.2 11.2 0 1 0 22.4 0 a11.2 11.2 0 1 0 -22.4 0zM540.48 1363.96 a11.2 11.2 0 1 0 22.4 0 a11.2 11.2 0 1 0 -22.4 0zM540.48 1475.96 a11.2 11.2 0 1 0 22.4 0 a11.2 11.2 0 1 0 -22.4 0zM540.48 1699.96 a11.2 11.2 0 1 0 22.4 0 a11.2 11.2 0 1 0 -22.4 0zM540.48 1811.96 a11.2 11.2 0 1 0 22.4 0 a11.2 11.2 0 1 0 -22.4 0zM443.48 1867.96 a11.2 11.2 0 1 0 22.4 0 a11.2 11.2 0 1 0 -22.4 0zM637.48 1867.96 a11.2 11.2 0 1 0 22.4 0 a11.2 11.2 0 1 0 -22.4 0zM637.48 1979.96 a11.2 11.2 0 1 0 22.4 0 a11.2 11.2 0 1 0 -22.4 0zM540.48 2035.96 a11.2 11.2 0 1 0 22.4 0 a11.2 11.2 0 1 0 -22.4 0zM443.48 1979.96 a11.2 11.2 0 1 0 22.4 0 a11.2 11.2 0 1 0 -22.4 0zM540.48 2147.96 a11.2 11.2 0 1 0 22.4 0 a11.2 11.2 0 1 0 -22.4 0zM637.48 2203.96 a11.2 11.2 0 1 0 22.4 0 a11.2 11.2 0 1 0 -22.4 0zM637.48 2315.96 a11.2 11.2 0 1 0 22.4 0 a11.2 11.2 0 1 0 -22.4 0zM540.48 2371.96 a11.2 11.2 0 1 0 22.4 0 a11.2 11.2 0 1 0 -22.4 0zM443.48 2315.96 a11.2 11.2 0 1 0 22.4 0 a11.2 11.2 0 1 0 -22.4 0zM443.48 2203.96 a11.2 11.2 0 1 0 22.4 0 a11.2 11.2 0 1 0 -22.4 0zM540.48 2707.96 a11.2 11.2 0 1 0 22.4 0 a11.2 11.2 0 1 0 -22.4 0zM540.48 2819.96 a11.2 11.2 0 1 0 22.4 0 a11.2 11.2 0 1 0 -22.4 0zM637.48 2875.96 a11.2 11.2 0 1 0 22.4 0 a11.2 11.2 0 1 0 -22.4 0zM637.48 2987.96 a11.2 11.2 0 1 0 22.4 0 a11.2 11.2 0 1 0 -22.4 0zM540.48 3043.96 a11.2 11.2 0 1 0 22.4 0 a11.2 11.2 0 1 0 -22.4 0zM540.48 3155.96 a11.2 11.2 0 1 0 22.4 0 a11.2 11.2 0 1 0 -22.4 0zM637.48 3211.96 a11.2 11.2 0 1 0 22.4 0 a11.2 11.2 0 1 0 -22.4 0zM637.48 3323.96 a11.2 11.2 0 1 0 22.4 0 a11.2 11.2 0 1 0 -22.4 0zM540.48 3379.96 a11.2 11.2 0 1 0 22.4 0 a11.2 11.2 0 1 0 -22.4 0zM540.48 3491.96 a11.2 11.2 0 1 0 22.4 0 a11.2 11.2 0 1 0 -22.4 0zM637.48 3547.96 a11.2 11.2 0 1 0 22.4 0 a11.2 11.2 0 1 0 -22.4 0zM637.48 3659.96 a11.2 11.2 0 1 0 22.4 0 a11.2 11.2 0 1 0 -22.4 0zM540.48 3715.96 a11.2 11.2 0 1 0 22.4 0 a11.2 11.2 0 1 0 -22.4 0zM443.48 3659.96 a11.2 11.2 0 1 0 22.4 0 a11.2 11.2 0 1 0 -22.4 0zM443.48 3547.96 a11.2 11.2 0 1 0 22.4 0 a11.2 11.2 0 1 0 -22.4 0zM540.48 3827.96 a11.2 11.2 0 1 0 22.4 0 a11.2 11.2 0 1 0 -22.4 0zM443.48 3883.96 a11.2 11.2 0 1 0 22.4 0 a11.2 11.2 0 1 0 -22.4 0zM637.48 3883.96 a11.2 11.2 0 1 0 22.4 0 a11.2 11.2 0 1 0 -22.4 0zM637.48 3995.96 a11.2 11.2 0 1 0 22.4 0 a11.2 11.2 0 1 0 -22.4 0zM540.48 4051.96 a11.2 11.2 0 1 0 22.4 0 a11.2 11.2 0 1 0 -22.4 0zM443.48 3995.96 a11.2 11.2 0 1 0 22.4 0 a11.2 11.2 0 1 0 -22.4 0zM443.48 4667.96 a11.2 11.2 0 1 0 22.4 0 a11.2 11.2 0 1 0 -22.4 0zM540.48 4723.96 a11.2 11.2 0 1 0 22.4 0 a11.2 11.2 0 1 0 -22.4 0zM540.48 4835.96 a11.2 11.2 0 1 0 22.4 0 a11.2 11.2 0 1 0 -22.4 0zM637.48 -36.04 a11.2 11.2 0 1 0 22.4 0 a11.2 11.2 0 1 0 -22.4 0zM734.47 19.96 a11.2 11.2 0 1 0 22.4 0 a11.2 11.2 0 1 0 -22.4 0zM734.47 131.96 a11.2 11.2 0 1 0 22.4 0 a11.2 11.2 0 1 0 -22.4 0zM734.47 355.96 a11.2 11.2 0 1 0 22.4 0 a11.2 11.2 0 1 0 -22.4 0zM734.47 467.96 a11.2 11.2 0 1 0 22.4 0 a11.2 11.2 0 1 0 -22.4 0zM637.48 523.96 a11.2 11.2 0 1 0 22.4 0 a11.2 11.2 0 1 0 -22.4 0zM540.48 467.96 a11.2 11.2 0 1 0 22.4 0 a11.2 11.2 0 1 0 -22.4 0zM831.47 523.96 a11.2 11.2 0 1 0 22.4 0 a11.2 11.2 0 1 0 -22.4 0zM831.47 635.96 a11.2 11.2 0 1 0 22.4 0 a11.2 11.2 0 1 0 -22.4 0zM734.47 691.96 a11.2 11.2 0 1 0 22.4 0 a11.2 11.2 0 1 0 -22.4 0zM637.48 635.96 a11.2 11.2 0 1 0 22.4 0 a11.2 11.2 0 1 0 -22.4 0zM734.47 803.96 a11.2 11.2 0 1 0 22.4 0 a11.2 11.2 0 1 0 -22.4 0zM831.47 859.96 a11.2 11.2 0 1 0 22.4 0 a11.2 11.2 0 1 0 -22.4 0zM831.47 971.96 a11.2 11.2 0 1 0 22.4 0 a11.2 11.2 0 1 0 -22.4 0zM734.47 1027.96 a11.2 11.2 0 1 0 22.4 0 a11.2 11.2 0 1 0 -22.4 0zM637.48 1307.96 a11.2 11.2 0 1 0 22.4 0 a11.2 11.2 0 1 0 -22.4 0zM734.47 1363.96 a11.2 11.2 0 1 0 22.4 0 a11.2 11.2 0 1 0 -22.4 0zM734.47 1475.96 a11.2 11.2 0 1 0 22.4 0 a11.2 11.2 0 1 0 -22.4 0zM637.48 1531.96 a11.2 11.2 0 1 0 22.4 0 a11.2 11.2 0 1 0 -22.4 0zM734.47 1811.96 a11.2 11.2 0 1 0 22.4 0 a11.2 11.2 0 1 0 -22.4 0zM831.47 1867.96 a11.2 11.2 0 1 0 22.4 0 a11.2 11.2 0 1 0 -22.4 0zM831.47 1979.96 a11.2 11.2 0 1 0 22.4 0 a11.2 11.2 0 1 0 -22.4 0zM734.47 2035.96 a11.2 11.2 0 1 0 22.4 0 a11.2 11.2 0 1 0 -22.4 0zM734.47 2147.96 a11.2 11.2 0 1 0 22.4 0 a11.2 11.2 0 1 0 -22.4 0zM831.47 2203.96 a11.2 11.2 0 1 0 22.4 0 a11.2 11.2 0 1 0 -22.4 0zM831.47 2315.96 a11.2 11.2 0 1 0 22.4 0 a11.2 11.2 0 1 0 -22.4 0zM734.47 2371.96 a11.2 11.2 0 1 0 22.4 0 a11.2 11.2 0 1 0 -22.4 0zM734.47 2819.96 a11.2 11.2 0 1 0 22.4 0 a11.2 11.2 0 1 0 -22.4 0zM831.47 2875.96 a11.2 11.2 0 1 0 22.4 0 a11.2 11.2 0 1 0 -22.4 0zM831.47 2987.96 a11.2 11.2 0 1 0 22.4 0 a11.2 11.2 0 1 0 -22.4 0zM734.47 3043.96 a11.2 11.2 0 1 0 22.4 0 a11.2 11.2 0 1 0 -22.4 0zM734.47 3155.96 a11.2 11.2 0 1 0 22.4 0 a11.2 11.2 0 1 0 -22.4 0zM831.47 3211.96 a11.2 11.2 0 1 0 22.4 0 a11.2 11.2 0 1 0 -22.4 0zM831.47 3323.96 a11.2 11.2 0 1 0 22.4 0 a11.2 11.2 0 1 0 -22.4 0zM734.47 3379.96 a11.2 11.2 0 1 0 22.4 0 a11.2 11.2 0 1 0 -22.4 0zM734.47 4051.96 a11.2 11.2 0 1 0 22.4 0 a11.2 11.2 0 1 0 -22.4 0zM734.47 4163.96 a11.2 11.2 0 1 0 22.4 0 a11.2 11.2 0 1 0 -22.4 0zM637.48 4219.96 a11.2 11.2 0 1 0 22.4 0 a11.2 11.2 0 1 0 -22.4 0zM540.48 4163.96 a11.2 11.2 0 1 0 22.4 0 a11.2 11.2 0 1 0 -22.4 0zM734.47 4499.96 a11.2 11.2 0 1 0 22.4 0 a11.2 11.2 0 1 0 -22.4 0zM831.47 4555.96 a11.2 11.2 0 1 0 22.4 0 a11.2 11.2 0 1 0 -22.4 0zM831.47 4667.96 a11.2 11.2 0 1 0 22.4 0 a11.2 11.2 0 1 0 -22.4 0zM734.47 4723.96 a11.2 11.2 0 1 0 22.4 0 a11.2 11.2 0 1 0 -22.4 0zM637.48 4667.96 a11.2 11.2 0 1 0 22.4 0 a11.2 11.2 0 1 0 -22.4 0zM637.48 4555.96 a11.2 11.2 0 1 0 22.4 0 a11.2 11.2 0 1 0 -22.4 0zM734.47 4835.96 a11.2 11.2 0 1 0 22.4 0 a11.2 11.2 0 1 0 -22.4 0zM637.48 4891.96 a11.2 11.2 0 1 0 22.4 0 a11.2 11.2 0 1 0 -22.4 0zM637.48 5003.96 a11.2 11.2 0 1 0 22.4 0 a11.2 11.2 0 1 0 -22.4 0zM734.47 5059.96 a11.2 11.2 0 1 0 22.4 0 a11.2 11.2 0 1 0 -22.4 0zM734.47 5171.96 a11.2 11.2 0 1 0 22.4 0 a11.2 11.2 0 1 0 -22.4 0zM637.48 5227.96 a11.2 11.2 0 1 0 22.4 0 a11.2 11.2 0 1 0 -22.4 0zM540.48 5171.96 a11.2 11.2 0 1 0 22.4 0 a11.2 11.2 0 1 0 -22.4 0zM540.48 5059.96 a11.2 11.2 0 1 0 22.4 0 a11.2 11.2 0 1 0 -22.4 0zM831.47 299.96 a11.2 11.2 0 1 0 22.4 0 a11.2 11.2 0 1 0 -22.4 0zM928.47 355.96 a11.2 11.2 0 1 0 22.4 0 a11.2 11.2 0 1 0 -22.4 0zM928.47 467.96 a11.2 11.2 0 1 0 22.4 0 a11.2 11.2 0 1 0 -22.4 0zM928.47 691.96 a11.2 11.2 0 1 0 22.4 0 a11.2 11.2 0 1 0 -22.4 0zM928.47 803.96 a11.2 11.2 0 1 0 22.4 0 a11.2 11.2 0 1 0 -22.4 0zM831.47 1307.96 a11.2 11.2 0 1 0 22.4 0 a11.2 11.2 0 1 0 -22.4 0zM928.47 1363.96 a11.2 11.2 0 1 0 22.4 0 a11.2 11.2 0 1 0 -22.4 0zM928.47 1475.96 a11.2 11.2 0 1 0 22.4 0 a11.2 11.2 0 1 0 -22.4 0zM831.47 1531.96 a11.2 11.2 0 1 0 22.4 0 a11.2 11.2 0 1 0 -22.4 0zM1025.47 1531.96 a11.2 11.2 0 1 0 22.4 0 a11.2 11.2 0 1 0 -22.4 0zM1025.47 1643.96 a11.2 11.2 0 1 0 22.4 0 a11.2 11.2 0 1 0 -22.4 0zM928.47 1699.96 a11.2 11.2 0 1 0 22.4 0 a11.2 11.2 0 1 0 -22.4 0zM831.47 1643.96 a11.2 11.2 0 1 0 22.4 0 a11.2 11.2 0 1 0 -22.4 0zM928.47 1811.96 a11.2 11.2 0 1 0 22.4 0 a11.2 11.2 0 1 0 -22.4 0zM1025.47 1867.96 a11.2 11.2 0 1 0 22.4 0 a11.2 11.2 0 1 0 -22.4 0zM1025.47 1979.96 a11.2 11.2 0 1 0 22.4 0 a11.2 11.2 0 1 0 -22.4 0zM928.47 2035.96 a11.2 11.2 0 1 0 22.4 0 a11.2 11.2 0 1 0 -22.4 0zM928.47 2147.96 a11.2 11.2 0 1 0 22.4 0 a11.2 11.2 0 1 0 -22.4 0zM928.47 2371.96 a11.2 11.2 0 1 0 22.4 0 a11.2 11.2 0 1 0 -22.4 0zM928.47 2483.96 a11.2 11.2 0 1 0 22.4 0 a11.2 11.2 0 1 0 -22.4 0zM831.47 2539.96 a11.2 11.2 0 1 0 22.4 0 a11.2 11.2 0 1 0 -22.4 0zM734.47 2483.96 a11.2 11.2 0 1 0 22.4 0 a11.2 11.2 0 1 0 -22.4 0zM1025.47 2539.96 a11.2 11.2 0 1 0 22.4 0 a11.2 11.2 0 1 0 -22.4 0zM1025.47 2651.96 a11.2 11.2 0 1 0 22.4 0 a11.2 11.2 0 1 0 -22.4 0zM928.47 2707.96 a11.2 11.2 0 1 0 22.4 0 a11.2 11.2 0 1 0 -22.4 0zM831.47 2651.96 a11.2 11.2 0 1 0 22.4 0 a11.2 11.2 0 1 0 -22.4 0zM928.47 2819.96 a11.2 11.2 0 1 0 22.4 0 a11.2 11.2 0 1 0 -22.4 0zM734.47 2707.96 a11.2 11.2 0 1 0 22.4 0 a11.2 11.2 0 1 0 -22.4 0zM928.47 3043.96 a11.2 11.2 0 1 0 22.4 0 a11.2 11.2 0 1 0 -22.4 0zM928.47 3155.96 a11.2 11.2 0 1 0 22.4 0 a11.2 11.2 0 1 0 -22.4 0zM928.47 3379.96 a11.2 11.2 0 1 0 22.4 0 a11.2 11.2 0 1 0 -22.4 0zM928.47 3491.96 a11.2 11.2 0 1 0 22.4 0 a11.2 11.2 0 1 0 -22.4 0zM831.47 3547.96 a11.2 11.2 0 1 0 22.4 0 a11.2 11.2 0 1 0 -22.4 0zM734.47 3491.96 a11.2 11.2 0 1 0 22.4 0 a11.2 11.2 0 1 0 -22.4 0zM928.47 3827.96 a11.2 11.2 0 1 0 22.4 0 a11.2 11.2 0 1 0 -22.4 0zM1025.47 3883.96 a11.2 11.2 0 1 0 22.4 0 a11.2 11.2 0 1 0 -22.4 0zM1025.47 3995.96 a11.2 11.2 0 1 0 22.4 0 a11.2 11.2 0 1 0 -22.4 0zM928.47 4051.96 a11.2 11.2 0 1 0 22.4 0 a11.2 11.2 0 1 0 -22.4 0zM831.47 3995.96 a11.2 11.2 0 1 0 22.4 0 a11.2 11.2 0 1 0 -22.4 0zM831.47 3883.96 a11.2 11.2 0 1 0 22.4 0 a11.2 11.2 0 1 0 -22.4 0zM928.47 4163.96 a11.2 11.2 0 1 0 22.4 0 a11.2 11.2 0 1 0 -22.4 0zM831.47 4219.96 a11.2 11.2 0 1 0 22.4 0 a11.2 11.2 0 1 0 -22.4 0zM831.47 4331.96 a11.2 11.2 0 1 0 22.4 0 a11.2 11.2 0 1 0 -22.4 0zM928.47 4387.96 a11.2 11.2 0 1 0 22.4 0 a11.2 11.2 0 1 0 -22.4 0zM928.47 4499.96 a11.2 11.2 0 1 0 22.4 0 a11.2 11.2 0 1 0 -22.4 0zM734.47 4387.96 a11.2 11.2 0 1 0 22.4 0 a11.2 11.2 0 1 0 -22.4 0zM1025.47 4555.96 a11.2 11.2 0 1 0 22.4 0 a11.2 11.2 0 1 0 -22.4 0zM1025.47 4667.96 a11.2 11.2 0 1 0 22.4 0 a11.2 11.2 0 1 0 -22.4 0zM928.47 4723.96 a11.2 11.2 0 1 0 22.4 0 a11.2 11.2 0 1 0 -22.4 0zM928.47 4835.96 a11.2 11.2 0 1 0 22.4 0 a11.2 11.2 0 1 0 -22.4 0zM831.47 4891.96 a11.2 11.2 0 1 0 22.4 0 a11.2 11.2 0 1 0 -22.4 0zM1025.47 4891.96 a11.2 11.2 0 1 0 22.4 0 a11.2 11.2 0 1 0 -22.4 0zM1025.47 5003.96 a11.2 11.2 0 1 0 22.4 0 a11.2 11.2 0 1 0 -22.4 0zM928.47 5059.96 a11.2 11.2 0 1 0 22.4 0 a11.2 11.2 0 1 0 -22.4 0zM831.47 5003.96 a11.2 11.2 0 1 0 22.4 0 a11.2 11.2 0 1 0 -22.4 0zM1025.47 -36.04 a11.2 11.2 0 1 0 22.4 0 a11.2 11.2 0 1 0 -22.4 0zM1122.46 19.96 a11.2 11.2 0 1 0 22.4 0 a11.2 11.2 0 1 0 -22.4 0zM1122.46 131.96 a11.2 11.2 0 1 0 22.4 0 a11.2 11.2 0 1 0 -22.4 0zM1025.47 187.96 a11.2 11.2 0 1 0 22.4 0 a11.2 11.2 0 1 0 -22.4 0zM928.47 131.96 a11.2 11.2 0 1 0 22.4 0 a11.2 11.2 0 1 0 -22.4 0zM928.47 19.96 a11.2 11.2 0 1 0 22.4 0 a11.2 11.2 0 1 0 -22.4 0zM1025.47 299.96 a11.2 11.2 0 1 0 22.4 0 a11.2 11.2 0 1 0 -22.4 0zM1122.46 355.96 a11.2 11.2 0 1 0 22.4 0 a11.2 11.2 0 1 0 -22.4 0zM1122.46 467.96 a11.2 11.2 0 1 0 22.4 0 a11.2 11.2 0 1 0 -22.4 0zM1025.47 523.96 a11.2 11.2 0 1 0 22.4 0 a11.2 11.2 0 1 0 -22.4 0zM1219.46 523.96 a11.2 11.2 0 1 0 22.4 0 a11.2 11.2 0 1 0 -22.4 0zM1219.46 635.96 a11.2 11.2 0 1 0 22.4 0 a11.2 11.2 0 1 0 -22.4 0zM1122.46 691.96 a11.2 11.2 0 1 0 22.4 0 a11.2 11.2 0 1 0 -22.4 0zM1025.47 635.96 a11.2 11.2 0 1 0 22.4 0 a11.2 11.2 0 1 0 -22.4 0zM1122.46 803.96 a11.2 11.2 0 1 0 22.4 0 a11.2 11.2 0 1 0 -22.4 0zM1025.47 859.96 a11.2 11.2 0 1 0 22.4 0 a11.2 11.2 0 1 0 -22.4 0zM1025.47 1307.96 a11.2 11.2 0 1 0 22.4 0 a11.2 11.2 0 1 0 -22.4 0zM1122.46 1363.96 a11.2 11.2 0 1 0 22.4 0 a11.2 11.2 0 1 0 -22.4 0zM1122.46 1475.96 a11.2 11.2 0 1 0 22.4 0 a11.2 11.2 0 1 0 -22.4 0zM1122.46 1699.96 a11.2 11.2 0 1 0 22.4 0 a11.2 11.2 0 1 0 -22.4 0zM1122.46 1811.96 a11.2 11.2 0 1 0 22.4 0 a11.2 11.2 0 1 0 -22.4 0zM1219.46 1867.96 a11.2 11.2 0 1 0 22.4 0 a11.2 11.2 0 1 0 -22.4 0zM1219.46 1979.96 a11.2 11.2 0 1 0 22.4 0 a11.2 11.2 0 1 0 -22.4 0zM1122.46 2035.96 a11.2 11.2 0 1 0 22.4 0 a11.2 11.2 0 1 0 -22.4 0zM1122.46 2483.96 a11.2 11.2 0 1 0 22.4 0 a11.2 11.2 0 1 0 -22.4 0zM1219.46 2539.96 a11.2 11.2 0 1 0 22.4 0 a11.2 11.2 0 1 0 -22.4 0zM1219.46 2651.96 a11.2 11.2 0 1 0 22.4 0 a11.2 11.2 0 1 0 -22.4 0zM1122.46 2707.96 a11.2 11.2 0 1 0 22.4 0 a11.2 11.2 0 1 0 -22.4 0zM1122.46 2819.96 a11.2 11.2 0 1 0 22.4 0 a11.2 11.2 0 1 0 -22.4 0zM1219.46 2875.96 a11.2 11.2 0 1 0 22.4 0 a11.2 11.2 0 1 0 -22.4 0zM1219.46 2987.96 a11.2 11.2 0 1 0 22.4 0 a11.2 11.2 0 1 0 -22.4 0zM1122.46 3043.96 a11.2 11.2 0 1 0 22.4 0 a11.2 11.2 0 1 0 -22.4 0zM1025.47 2987.96 a11.2 11.2 0 1 0 22.4 0 a11.2 11.2 0 1 0 -22.4 0zM1025.47 2875.96 a11.2 11.2 0 1 0 22.4 0 a11.2 11.2 0 1 0 -22.4 0zM1122.46 3155.96 a11.2 11.2 0 1 0 22.4 0 a11.2 11.2 0 1 0 -22.4 0zM1219.46 3211.96 a11.2 11.2 0 1 0 22.4 0 a11.2 11.2 0 1 0 -22.4 0zM1219.46 3323.96 a11.2 11.2 0 1 0 22.4 0 a11.2 11.2 0 1 0 -22.4 0zM1122.46 3379.96 a11.2 11.2 0 1 0 22.4 0 a11.2 11.2 0 1 0 -22.4 0zM1025.47 3323.96 a11.2 11.2 0 1 0 22.4 0 a11.2 11.2 0 1 0 -22.4 0zM1025.47 3211.96 a11.2 11.2 0 1 0 22.4 0 a11.2 11.2 0 1 0 -22.4 0zM1025.47 4331.96 a11.2 11.2 0 1 0 22.4 0 a11.2 11.2 0 1 0 -22.4 0zM1122.46 4387.96 a11.2 11.2 0 1 0 22.4 0 a11.2 11.2 0 1 0 -22.4 0zM1122.46 4499.96 a11.2 11.2 0 1 0 22.4 0 a11.2 11.2 0 1 0 -22.4 0zM1122.46 4723.96 a11.2 11.2 0 1 0 22.4 0 a11.2 11.2 0 1 0 -22.4 0zM1122.46 4835.96 a11.2 11.2 0 1 0 22.4 0 a11.2 11.2 0 1 0 -22.4 0zM1219.46 4891.96 a11.2 11.2 0 1 0 22.4 0 a11.2 11.2 0 1 0 -22.4 0zM1219.46 5003.96 a11.2 11.2 0 1 0 22.4 0 a11.2 11.2 0 1 0 -22.4 0zM1122.46 5059.96 a11.2 11.2 0 1 0 22.4 0 a11.2 11.2 0 1 0 -22.4 0zM1316.46 131.96 a11.2 11.2 0 1 0 22.4 0 a11.2 11.2 0 1 0 -22.4 0zM1413.46 187.96 a11.2 11.2 0 1 0 22.4 0 a11.2 11.2 0 1 0 -22.4 0zM1413.46 299.96 a11.2 11.2 0 1 0 22.4 0 a11.2 11.2 0 1 0 -22.4 0zM1316.46 355.96 a11.2 11.2 0 1 0 22.4 0 a11.2 11.2 0 1 0 -22.4 0zM1219.46 299.96 a11.2 11.2 0 1 0 22.4 0 a11.2 11.2 0 1 0 -22.4 0zM1219.46 187.96 a11.2 11.2 0 1 0 22.4 0 a11.2 11.2 0 1 0 -22.4 0zM1219.46 971.96 a11.2 11.2 0 1 0 22.4 0 a11.2 11.2 0 1 0 -22.4 0zM1316.46 1027.96 a11.2 11.2 0 1 0 22.4 0 a11.2 11.2 0 1 0 -22.4 0zM1316.46 1139.96 a11.2 11.2 0 1 0 22.4 0 a11.2 11.2 0 1 0 -22.4 0zM1219.46 1195.96 a11.2 11.2 0 1 0 22.4 0 a11.2 11.2 0 1 0 -22.4 0zM1122.46 1139.96 a11.2 11.2 0 1 0 22.4 0 a11.2 11.2 0 1 0 -22.4 0zM1122.46 1027.96 a11.2 11.2 0 1 0 22.4 0 a11.2 11.2 0 1 0 -22.4 0zM1219.46 1307.96 a11.2 11.2 0 1 0 22.4 0 a11.2 11.2 0 1 0 -22.4 0zM1316.46 1363.96 a11.2 11.2 0 1 0 22.4 0 a11.2 11.2 0 1 0 -22.4 0zM1316.46 1475.96 a11.2 11.2 0 1 0 22.4 0 a11.2 11.2 0 1 0 -22.4 0zM1219.46 1531.96 a11.2 11.2 0 1 0 22.4 0 a11.2 11.2 0 1 0 -22.4 0zM1413.46 1531.96 a11.2 11.2 0 1 0 22.4 0 a11.2 11.2 0 1 0 -22.4 0zM1413.46 1643.96 a11.2 11.2 0 1 0 22.4 0 a11.2 11.2 0 1 0 -22.4 0zM1316.46 1699.96 a11.2 11.2 0 1 0 22.4 0 a11.2 11.2 0 1 0 -22.4 0zM1219.46 1643.96 a11.2 11.2 0 1 0 22.4 0 a11.2 11.2 0 1 0 -22.4 0zM1316.46 1811.96 a11.2 11.2 0 1 0 22.4 0 a11.2 11.2 0 1 0 -22.4 0zM1219.46 2315.96 a11.2 11.2 0 1 0 22.4 0 a11.2 11.2 0 1 0 -22.4 0zM1316.46 2371.96 a11.2 11.2 0 1 0 22.4 0 a11.2 11.2 0 1 0 -22.4 0zM1316.46 2483.96 a11.2 11.2 0 1 0 22.4 0 a11.2 11.2 0 1 0 -22.4 0zM1122.46 2371.96 a11.2 11.2 0 1 0 22.4 0 a11.2 11.2 0 1 0 -22.4 0zM1316.46 2707.96 a11.2 11.2 0 1 0 22.4 0 a11.2 11.2 0 1 0 -22.4 0zM1316.46 2819.96 a11.2 11.2 0 1 0 22.4 0 a11.2 11.2 0 1 0 -22.4 0zM1316.46 3043.96 a11.2 11.2 0 1 0 22.4 0 a11.2 11.2 0 1 0 -22.4 0zM1316.46 3155.96 a11.2 11.2 0 1 0 22.4 0 a11.2 11.2 0 1 0 -22.4 0zM1413.46 3211.96 a11.2 11.2 0 1 0 22.4 0 a11.2 11.2 0 1 0 -22.4 0zM1413.46 3323.96 a11.2 11.2 0 1 0 22.4 0 a11.2 11.2 0 1 0 -22.4 0zM1316.46 3379.96 a11.2 11.2 0 1 0 22.4 0 a11.2 11.2 0 1 0 -22.4 0zM1316.46 3491.96 a11.2 11.2 0 1 0 22.4 0 a11.2 11.2 0 1 0 -22.4 0zM1413.46 3547.96 a11.2 11.2 0 1 0 22.4 0 a11.2 11.2 0 1 0 -22.4 0zM1413.46 3659.96 a11.2 11.2 0 1 0 22.4 0 a11.2 11.2 0 1 0 -22.4 0zM1316.46 3715.96 a11.2 11.2 0 1 0 22.4 0 a11.2 11.2 0 1 0 -22.4 0zM1219.46 3659.96 a11.2 11.2 0 1 0 22.4 0 a11.2 11.2 0 1 0 -22.4 0zM1219.46 3547.96 a11.2 11.2 0 1 0 22.4 0 a11.2 11.2 0 1 0 -22.4 0zM1219.46 3995.96 a11.2 11.2 0 1 0 22.4 0 a11.2 11.2 0 1 0 -22.4 0zM1316.46 4051.96 a11.2 11.2 0 1 0 22.4 0 a11.2 11.2 0 1 0 -22.4 0zM1316.46 4163.96 a11.2 11.2 0 1 0 22.4 0 a11.2 11.2 0 1 0 -22.4 0zM1219.46 4219.96 a11.2 11.2 0 1 0 22.4 0 a11.2 11.2 0 1 0 -22.4 0zM1122.46 4163.96 a11.2 11.2 0 1 0 22.4 0 a11.2 11.2 0 1 0 -22.4 0zM1122.46 4051.96 a11.2 11.2 0 1 0 22.4 0 a11.2 11.2 0 1 0 -22.4 0zM1413.46 4219.96 a11.2 11.2 0 1 0 22.4 0 a11.2 11.2 0 1 0 -22.4 0zM1413.46 4331.96 a11.2 11.2 0 1 0 22.4 0 a11.2 11.2 0 1 0 -22.4 0zM1316.46 4387.96 a11.2 11.2 0 1 0 22.4 0 a11.2 11.2 0 1 0 -22.4 0zM1219.46 4331.96 a11.2 11.2 0 1 0 22.4 0 a11.2 11.2 0 1 0 -22.4 0zM1316.46 4835.96 a11.2 11.2 0 1 0 22.4 0 a11.2 11.2 0 1 0 -22.4 0zM1413.46 4891.96 a11.2 11.2 0 1 0 22.4 0 a11.2 11.2 0 1 0 -22.4 0zM1413.46 5003.96 a11.2 11.2 0 1 0 22.4 0 a11.2 11.2 0 1 0 -22.4 0zM1316.46 5059.96 a11.2 11.2 0 1 0 22.4 0 a11.2 11.2 0 1 0 -22.4 0zM1510.45 467.96 a11.2 11.2 0 1 0 22.4 0 a11.2 11.2 0 1 0 -22.4 0zM1607.45 523.96 a11.2 11.2 0 1 0 22.4 0 a11.2 11.2 0 1 0 -22.4 0zM1607.45 635.96 a11.2 11.2 0 1 0 22.4 0 a11.2 11.2 0 1 0 -22.4 0zM1510.45 691.96 a11.2 11.2 0 1 0 22.4 0 a11.2 11.2 0 1 0 -22.4 0zM1413.46 635.96 a11.2 11.2 0 1 0 22.4 0 a11.2 11.2 0 1 0 -22.4 0zM1413.46 523.96 a11.2 11.2 0 1 0 22.4 0 a11.2 11.2 0 1 0 -22.4 0zM1510.45 803.96 a11.2 11.2 0 1 0 22.4 0 a11.2 11.2 0 1 0 -22.4 0zM1413.46 859.96 a11.2 11.2 0 1 0 22.4 0 a11.2 11.2 0 1 0 -22.4 0zM1316.46 803.96 a11.2 11.2 0 1 0 22.4 0 a11.2 11.2 0 1 0 -22.4 0zM1316.46 691.96 a11.2 11.2 0 1 0 22.4 0 a11.2 11.2 0 1 0 -22.4 0zM1413.46 971.96 a11.2 11.2 0 1 0 22.4 0 a11.2 11.2 0 1 0 -22.4 0zM1510.45 1027.96 a11.2 11.2 0 1 0 22.4 0 a11.2 11.2 0 1 0 -22.4 0zM1510.45 1139.96 a11.2 11.2 0 1 0 22.4 0 a11.2 11.2 0 1 0 -22.4 0zM1413.46 1195.96 a11.2 11.2 0 1 0 22.4 0 a11.2 11.2 0 1 0 -22.4 0zM1413.46 1307.96 a11.2 11.2 0 1 0 22.4 0 a11.2 11.2 0 1 0 -22.4 0zM1510.45 1363.96 a11.2 11.2 0 1 0 22.4 0 a11.2 11.2 0 1 0 -22.4 0zM1510.45 1475.96 a11.2 11.2 0 1 0 22.4 0 a11.2 11.2 0 1 0 -22.4 0zM1510.45 2483.96 a11.2 11.2 0 1 0 22.4 0 a11.2 11.2 0 1 0 -22.4 0zM1607.45 2539.96 a11.2 11.2 0 1 0 22.4 0 a11.2 11.2 0 1 0 -22.4 0zM1607.45 2651.96 a11.2 11.2 0 1 0 22.4 0 a11.2 11.2 0 1 0 -22.4 0zM1510.45 2707.96 a11.2 11.2 0 1 0 22.4 0 a11.2 11.2 0 1 0 -22.4 0zM1413.46 2651.96 a11.2 11.2 0 1 0 22.4 0 a11.2 11.2 0 1 0 -22.4 0zM1413.46 2539.96 a11.2 11.2 0 1 0 22.4 0 a11.2 11.2 0 1 0 -22.4 0zM1510.45 2819.96 a11.2 11.2 0 1 0 22.4 0 a11.2 11.2 0 1 0 -22.4 0zM1413.46 2875.96 a11.2 11.2 0 1 0 22.4 0 a11.2 11.2 0 1 0 -22.4 0zM1510.45 3379.96 a11.2 11.2 0 1 0 22.4 0 a11.2 11.2 0 1 0 -22.4 0zM1510.45 3491.96 a11.2 11.2 0 1 0 22.4 0 a11.2 11.2 0 1 0 -22.4 0zM1510.45 3715.96 a11.2 11.2 0 1 0 22.4 0 a11.2 11.2 0 1 0 -22.4 0zM1510.45 3827.96 a11.2 11.2 0 1 0 22.4 0 a11.2 11.2 0 1 0 -22.4 0zM1413.46 3883.96 a11.2 11.2 0 1 0 22.4 0 a11.2 11.2 0 1 0 -22.4 0zM1316.46 3827.96 a11.2 11.2 0 1 0 22.4 0 a11.2 11.2 0 1 0 -22.4 0zM1510.45 4387.96 a11.2 11.2 0 1 0 22.4 0 a11.2 11.2 0 1 0 -22.4 0zM1510.45 4499.96 a11.2 11.2 0 1 0 22.4 0 a11.2 11.2 0 1 0 -22.4 0zM1413.46 4555.96 a11.2 11.2 0 1 0 22.4 0 a11.2 11.2 0 1 0 -22.4 0zM1316.46 4499.96 a11.2 11.2 0 1 0 22.4 0 a11.2 11.2 0 1 0 -22.4 0zM1413.46 4667.96 a11.2 11.2 0 1 0 22.4 0 a11.2 11.2 0 1 0 -22.4 0zM1510.45 4723.96 a11.2 11.2 0 1 0 22.4 0 a11.2 11.2 0 1 0 -22.4 0zM1510.45 4835.96 a11.2 11.2 0 1 0 22.4 0 a11.2 11.2 0 1 0 -22.4 0zM1316.46 4723.96 a11.2 11.2 0 1 0 22.4 0 a11.2 11.2 0 1 0 -22.4 0zM1607.45 4891.96 a11.2 11.2 0 1 0 22.4 0 a11.2 11.2 0 1 0 -22.4 0zM1607.45 5003.96 a11.2 11.2 0 1 0 22.4 0 a11.2 11.2 0 1 0 -22.4 0zM1510.45 5059.96 a11.2 11.2 0 1 0 22.4 0 a11.2 11.2 0 1 0 -22.4 0zM1510.45 5171.96 a11.2 11.2 0 1 0 22.4 0 a11.2 11.2 0 1 0 -22.4 0zM1413.46 5227.96 a11.2 11.2 0 1 0 22.4 0 a11.2 11.2 0 1 0 -22.4 0zM1316.46 5171.96 a11.2 11.2 0 1 0 22.4 0 a11.2 11.2 0 1 0 -22.4 0zM1704.45 691.96 a11.2 11.2 0 1 0 22.4 0 a11.2 11.2 0 1 0 -22.4 0zM1704.45 803.96 a11.2 11.2 0 1 0 22.4 0 a11.2 11.2 0 1 0 -22.4 0zM1607.45 859.96 a11.2 11.2 0 1 0 22.4 0 a11.2 11.2 0 1 0 -22.4 0zM1801.45 859.96 a11.2 11.2 0 1 0 22.4 0 a11.2 11.2 0 1 0 -22.4 0zM1801.45 971.96 a11.2 11.2 0 1 0 22.4 0 a11.2 11.2 0 1 0 -22.4 0zM1704.45 1027.96 a11.2 11.2 0 1 0 22.4 0 a11.2 11.2 0 1 0 -22.4 0zM1607.45 971.96 a11.2 11.2 0 1 0 22.4 0 a11.2 11.2 0 1 0 -22.4 0zM1704.45 1139.96 a11.2 11.2 0 1 0 22.4 0 a11.2 11.2 0 1 0 -22.4 0zM1801.45 1195.96 a11.2 11.2 0 1 0 22.4 0 a11.2 11.2 0 1 0 -22.4 0zM1801.45 1307.96 a11.2 11.2 0 1 0 22.4 0 a11.2 11.2 0 1 0 -22.4 0zM1704.45 1363.96 a11.2 11.2 0 1 0 22.4 0 a11.2 11.2 0 1 0 -22.4 0zM1607.45 1307.96 a11.2 11.2 0 1 0 22.4 0 a11.2 11.2 0 1 0 -22.4 0zM1607.45 1195.96 a11.2 11.2 0 1 0 22.4 0 a11.2 11.2 0 1 0 -22.4 0zM1704.45 1475.96 a11.2 11.2 0 1 0 22.4 0 a11.2 11.2 0 1 0 -22.4 0zM1801.45 1531.96 a11.2 11.2 0 1 0 22.4 0 a11.2 11.2 0 1 0 -22.4 0zM1801.45 1643.96 a11.2 11.2 0 1 0 22.4 0 a11.2 11.2 0 1 0 -22.4 0zM1704.45 1699.96 a11.2 11.2 0 1 0 22.4 0 a11.2 11.2 0 1 0 -22.4 0zM1607.45 1643.96 a11.2 11.2 0 1 0 22.4 0 a11.2 11.2 0 1 0 -22.4 0zM1607.45 1531.96 a11.2 11.2 0 1 0 22.4 0 a11.2 11.2 0 1 0 -22.4 0zM1704.45 2707.96 a11.2 11.2 0 1 0 22.4 0 a11.2 11.2 0 1 0 -22.4 0zM1704.45 2819.96 a11.2 11.2 0 1 0 22.4 0 a11.2 11.2 0 1 0 -22.4 0zM1607.45 2875.96 a11.2 11.2 0 1 0 22.4 0 a11.2 11.2 0 1 0 -22.4 0zM1801.45 2875.96 a11.2 11.2 0 1 0 22.4 0 a11.2 11.2 0 1 0 -22.4 0zM1801.45 2987.96 a11.2 11.2 0 1 0 22.4 0 a11.2 11.2 0 1 0 -22.4 0zM1704.45 3043.96 a11.2 11.2 0 1 0 22.4 0 a11.2 11.2 0 1 0 -22.4 0zM1607.45 2987.96 a11.2 11.2 0 1 0 22.4 0 a11.2 11.2 0 1 0 -22.4 0zM1704.45 3155.96 a11.2 11.2 0 1 0 22.4 0 a11.2 11.2 0 1 0 -22.4 0zM1607.45 3211.96 a11.2 11.2 0 1 0 22.4 0 a11.2 11.2 0 1 0 -22.4 0zM1510.45 3155.96 a11.2 11.2 0 1 0 22.4 0 a11.2 11.2 0 1 0 -22.4 0zM1510.45 3043.96 a11.2 11.2 0 1 0 22.4 0 a11.2 11.2 0 1 0 -22.4 0zM1801.45 3211.96 a11.2 11.2 0 1 0 22.4 0 a11.2 11.2 0 1 0 -22.4 0zM1801.45 3323.96 a11.2 11.2 0 1 0 22.4 0 a11.2 11.2 0 1 0 -22.4 0zM1704.45 3379.96 a11.2 11.2 0 1 0 22.4 0 a11.2 11.2 0 1 0 -22.4 0zM1607.45 3323.96 a11.2 11.2 0 1 0 22.4 0 a11.2 11.2 0 1 0 -22.4 0zM1704.45 3491.96 a11.2 11.2 0 1 0 22.4 0 a11.2 11.2 0 1 0 -22.4 0zM1607.45 3547.96 a11.2 11.2 0 1 0 22.4 0 a11.2 11.2 0 1 0 -22.4 0zM1801.45 3547.96 a11.2 11.2 0 1 0 22.4 0 a11.2 11.2 0 1 0 -22.4 0zM1801.45 3659.96 a11.2 11.2 0 1 0 22.4 0 a11.2 11.2 0 1 0 -22.4 0zM1704.45 3715.96 a11.2 11.2 0 1 0 22.4 0 a11.2 11.2 0 1 0 -22.4 0zM1607.45 3659.96 a11.2 11.2 0 1 0 22.4 0 a11.2 11.2 0 1 0 -22.4 0zM1704.45 3827.96 a11.2 11.2 0 1 0 22.4 0 a11.2 11.2 0 1 0 -22.4 0zM1607.45 3883.96 a11.2 11.2 0 1 0 22.4 0 a11.2 11.2 0 1 0 -22.4 0zM1801.45 3883.96 a11.2 11.2 0 1 0 22.4 0 a11.2 11.2 0 1 0 -22.4 0zM1801.45 3995.96 a11.2 11.2 0 1 0 22.4 0 a11.2 11.2 0 1 0 -22.4 0zM1704.45 4051.96 a11.2 11.2 0 1 0 22.4 0 a11.2 11.2 0 1 0 -22.4 0zM1607.45 3995.96 a11.2 11.2 0 1 0 22.4 0 a11.2 11.2 0 1 0 -22.4 0zM1704.45 4163.96 a11.2 11.2 0 1 0 22.4 0 a11.2 11.2 0 1 0 -22.4 0zM1801.45 4219.96 a11.2 11.2 0 1 0 22.4 0 a11.2 11.2 0 1 0 -22.4 0zM1801.45 4331.96 a11.2 11.2 0 1 0 22.4 0 a11.2 11.2 0 1 0 -22.4 0zM1704.45 4387.96 a11.2 11.2 0 1 0 22.4 0 a11.2 11.2 0 1 0 -22.4 0zM1607.45 4331.96 a11.2 11.2 0 1 0 22.4 0 a11.2 11.2 0 1 0 -22.4 0zM1607.45 4219.96 a11.2 11.2 0 1 0 22.4 0 a11.2 11.2 0 1 0 -22.4 0zM1704.45 4499.96 a11.2 11.2 0 1 0 22.4 0 a11.2 11.2 0 1 0 -22.4 0zM1607.45 4555.96 a11.2 11.2 0 1 0 22.4 0 a11.2 11.2 0 1 0 -22.4 0zM1801.45 4555.96 a11.2 11.2 0 1 0 22.4 0 a11.2 11.2 0 1 0 -22.4 0zM1801.45 4667.96 a11.2 11.2 0 1 0 22.4 0 a11.2 11.2 0 1 0 -22.4 0zM1704.45 4723.96 a11.2 11.2 0 1 0 22.4 0 a11.2 11.2 0 1 0 -22.4 0zM1607.45 4667.96 a11.2 11.2 0 1 0 22.4 0 a11.2 11.2 0 1 0 -22.4 0zM1801.45 299.96 a11.2 11.2 0 1 0 22.4 0 a11.2 11.2 0 1 0 -22.4 0zM1898.44 355.96 a11.2 11.2 0 1 0 22.4 0 a11.2 11.2 0 1 0 -22.4 0zM1898.44 467.96 a11.2 11.2 0 1 0 22.4 0 a11.2 11.2 0 1 0 -22.4 0zM1801.45 523.96 a11.2 11.2 0 1 0 22.4 0 a11.2 11.2 0 1 0 -22.4 0zM1704.45 467.96 a11.2 11.2 0 1 0 22.4 0 a11.2 11.2 0 1 0 -22.4 0zM1704.45 355.96 a11.2 11.2 0 1 0 22.4 0 a11.2 11.2 0 1 0 -22.4 0zM1898.44 1027.96 a11.2 11.2 0 1 0 22.4 0 a11.2 11.2 0 1 0 -22.4 0zM1898.44 1139.96 a11.2 11.2 0 1 0 22.4 0 a11.2 11.2 0 1 0 -22.4 0zM1898.44 1363.96 a11.2 11.2 0 1 0 22.4 0 a11.2 11.2 0 1 0 -22.4 0zM1898.44 1475.96 a11.2 11.2 0 1 0 22.4 0 a11.2 11.2 0 1 0 -22.4 0zM1995.44 1531.96 a11.2 11.2 0 1 0 22.4 0 a11.2 11.2 0 1 0 -22.4 0zM1995.44 1643.96 a11.2 11.2 0 1 0 22.4 0 a11.2 11.2 0 1 0 -22.4 0zM1898.44 1699.96 a11.2 11.2 0 1 0 22.4 0 a11.2 11.2 0 1 0 -22.4 0zM1801.45 1979.96 a11.2 11.2 0 1 0 22.4 0 a11.2 11.2 0 1 0 -22.4 0zM1898.44 2035.96 a11.2 11.2 0 1 0 22.4 0 a11.2 11.2 0 1 0 -22.4 0zM1898.44 2147.96 a11.2 11.2 0 1 0 22.4 0 a11.2 11.2 0 1 0 -22.4 0zM1801.45 2203.96 a11.2 11.2 0 1 0 22.4 0 a11.2 11.2 0 1 0 -22.4 0zM1704.45 2147.96 a11.2 11.2 0 1 0 22.4 0 a11.2 11.2 0 1 0 -22.4 0zM1704.45 2035.96 a11.2 11.2 0 1 0 22.4 0 a11.2 11.2 0 1 0 -22.4 0zM1801.45 2315.96 a11.2 11.2 0 1 0 22.4 0 a11.2 11.2 0 1 0 -22.4 0zM1898.44 2371.96 a11.2 11.2 0 1 0 22.4 0 a11.2 11.2 0 1 0 -22.4 0zM1898.44 2483.96 a11.2 11.2 0 1 0 22.4 0 a11.2 11.2 0 1 0 -22.4 0zM1801.45 2539.96 a11.2 11.2 0 1 0 22.4 0 a11.2 11.2 0 1 0 -22.4 0zM1704.45 2483.96 a11.2 11.2 0 1 0 22.4 0 a11.2 11.2 0 1 0 -22.4 0zM1704.45 2371.96 a11.2 11.2 0 1 0 22.4 0 a11.2 11.2 0 1 0 -22.4 0zM1995.44 2539.96 a11.2 11.2 0 1 0 22.4 0 a11.2 11.2 0 1 0 -22.4 0zM1995.44 2651.96 a11.2 11.2 0 1 0 22.4 0 a11.2 11.2 0 1 0 -22.4 0zM1898.44 2707.96 a11.2 11.2 0 1 0 22.4 0 a11.2 11.2 0 1 0 -22.4 0zM1801.45 2651.96 a11.2 11.2 0 1 0 22.4 0 a11.2 11.2 0 1 0 -22.4 0zM1898.44 2819.96 a11.2 11.2 0 1 0 22.4 0 a11.2 11.2 0 1 0 -22.4 0zM1995.44 2875.96 a11.2 11.2 0 1 0 22.4 0 a11.2 11.2 0 1 0 -22.4 0zM1995.44 2987.96 a11.2 11.2 0 1 0 22.4 0 a11.2 11.2 0 1 0 -22.4 0zM1898.44 3043.96 a11.2 11.2 0 1 0 22.4 0 a11.2 11.2 0 1 0 -22.4 0zM1898.44 3827.96 a11.2 11.2 0 1 0 22.4 0 a11.2 11.2 0 1 0 -22.4 0zM1995.44 3883.96 a11.2 11.2 0 1 0 22.4 0 a11.2 11.2 0 1 0 -22.4 0zM1995.44 3995.96 a11.2 11.2 0 1 0 22.4 0 a11.2 11.2 0 1 0 -22.4 0zM1898.44 4051.96 a11.2 11.2 0 1 0 22.4 0 a11.2 11.2 0 1 0 -22.4 0zM1898.44 4163.96 a11.2 11.2 0 1 0 22.4 0 a11.2 11.2 0 1 0 -22.4 0zM1898.44 4387.96 a11.2 11.2 0 1 0 22.4 0 a11.2 11.2 0 1 0 -22.4 0zM1898.44 4499.96 a11.2 11.2 0 1 0 22.4 0 a11.2 11.2 0 1 0 -22.4 0zM1995.44 4555.96 a11.2 11.2 0 1 0 22.4 0 a11.2 11.2 0 1 0 -22.4 0zM1995.44 4667.96 a11.2 11.2 0 1 0 22.4 0 a11.2 11.2 0 1 0 -22.4 0zM1898.44 4723.96 a11.2 11.2 0 1 0 22.4 0 a11.2 11.2 0 1 0 -22.4 0zM1898.44 4835.96 a11.2 11.2 0 1 0 22.4 0 a11.2 11.2 0 1 0 -22.4 0zM1801.45 4891.96 a11.2 11.2 0 1 0 22.4 0 a11.2 11.2 0 1 0 -22.4 0zM1704.45 4835.96 a11.2 11.2 0 1 0 22.4 0 a11.2 11.2 0 1 0 -22.4 0z" fill="rgba(6, 57, 66, 1)"></path><path d="M179.35 546.01L338.7 638.01L338.7 822.01L179.35 914.01L20 822.01L20 638.01zM179.35 1098.01L338.7 1190.01L338.7 1374.01L179.35 1466.01L20 1374.01L20 1190.01zM338.7 1374.01L498.06 1466.01L498.06 1650.01L338.7 1742.01L179.35 1650.01L179.35 1466.01zM179.35 1650.01L338.7 1742.01L338.7 1926.01L179.35 2018.01L20 1926.01L20 1742.01zM338.7 1926.01L498.06 2018.01L498.06 2202.01L338.7 2294.01L179.35 2202.01L179.35 2018.01zM179.35 2202.01L338.7 2294.01L338.7 2478.01L179.35 2570.01L20 2478.01L20 2294.01zM179.35 2754.01L338.7 2846.01L338.7 3030.01L179.35 3122.01L20 3030.01L20 2846.01zM338.7 3030.01L498.06 3122.01L498.06 3306.01L338.7 3398.01L179.35 3306.01L179.35 3122.01zM179.35 3306.01L338.7 3398.01L338.7 3582.01L179.35 3674.01L20 3582.01L20 3398.01zM338.7 3582.01L498.06 3674.01L498.06 3858.01L338.7 3950.01L179.35 3858.01L179.35 3674.01zM498.06 1098.01L657.41 1190.01L657.41 1374.01L498.06 1466.01L338.7 1374.01L338.7 1190.01zM498.06 1650.01L657.41 1742.01L657.41 1926.01L498.06 2018.01L338.7 1926.01L338.7 1742.01zM498.06 4962.01L657.41 5054.01L657.41 5238.01L498.06 5330.01L338.7 5238.01L338.7 5054.01zM816.76 -5.99L976.12 86.01L976.12 270.01L816.76 362.01L657.41 270.01L657.41 86.01zM816.76 546.01L976.12 638.01L976.12 822.01L816.76 914.01L657.41 822.01L657.41 638.01zM976.12 822.01L1135.47 914.01L1135.47 1098.01L976.12 1190.01L816.76 1098.01L816.76 914.01zM816.76 1650.01L976.12 1742.01L976.12 1926.01L816.76 2018.01L657.41 1926.01L657.41 1742.01zM816.76 2202.01L976.12 2294.01L976.12 2478.01L816.76 2570.01L657.41 2478.01L657.41 2294.01zM976.12 2478.01L1135.47 2570.01L1135.47 2754.01L976.12 2846.01L816.76 2754.01L816.76 2570.01zM976.12 4134.01L1135.47 4226.01L1135.47 4410.01L976.12 4502.01L816.76 4410.01L816.76 4226.01zM976.12 4686.01L1135.47 4778.01L1135.47 4962.01L976.12 5054.01L816.76 4962.01L816.76 4778.01zM816.76 4962.01L976.12 5054.01L976.12 5238.01L816.76 5330.01L657.41 5238.01L657.41 5054.01zM1135.47 -5.99L1294.82 86.01L1294.82 270.01L1135.47 362.01L976.12 270.01L976.12 86.01zM1294.82 822.01L1454.18 914.01L1454.18 1098.01L1294.82 1190.01L1135.47 1098.01L1135.47 914.01zM1135.47 1098.01L1294.82 1190.01L1294.82 1374.01L1135.47 1466.01L976.12 1374.01L976.12 1190.01zM1294.82 1374.01L1454.18 1466.01L1454.18 1650.01L1294.82 1742.01L1135.47 1650.01L1135.47 1466.01zM1135.47 1650.01L1294.82 1742.01L1294.82 1926.01L1135.47 2018.01L976.12 1926.01L976.12 1742.01zM1294.82 3582.01L1454.18 3674.01L1454.18 3858.01L1294.82 3950.01L1135.47 3858.01L1135.47 3674.01zM1613.53 270.01L1772.88 362.01L1772.88 546.01L1613.53 638.01L1454.18 546.01L1454.18 362.01zM1613.53 822.01L1772.88 914.01L1772.88 1098.01L1613.53 1190.01L1454.18 1098.01L1454.18 914.01zM1613.53 1926.01L1772.88 2018.01L1772.88 2202.01L1613.53 2294.01L1454.18 2202.01L1454.18 2018.01zM1613.53 2478.01L1772.88 2570.01L1772.88 2754.01L1613.53 2846.01L1454.18 2754.01L1454.18 2570.01zM1454.18 2754.01L1613.53 2846.01L1613.53 3030.01L1454.18 3122.01L1294.82 3030.01L1294.82 2846.01zM1454.18 4410.01L1613.53 4502.01L1613.53 4686.01L1454.18 4778.01L1294.82 4686.01L1294.82 4502.01zM1613.53 4686.01L1772.88 4778.01L1772.88 4962.01L1613.53 5054.01L1454.18 4962.01L1454.18 4778.01zM1772.88 -5.99L1932.24 86.01L1932.24 270.01L1772.88 362.01L1613.53 270.01L1613.53 86.01zM1772.88 546.01L1932.24 638.01L1932.24 822.01L1772.88 914.01L1613.53 822.01L1613.53 638.01zM1932.24 2478.01L2091.59 2570.01L2091.59 2754.01L1932.24 2846.01L1772.88 2754.01L1772.88 2570.01zM1932.24 3030.01L2091.59 3122.01L2091.59 3306.01L1932.24 3398.01L1772.88 3306.01L1772.88 3122.01zM1772.88 3306.01L1932.24 3398.01L1932.24 3582.01L1772.88 3674.01L1613.53 3582.01L1613.53 3398.01zM1932.24 4134.01L2091.59 4226.01L2091.59 4410.01L1932.24 4502.01L1772.88 4410.01L1772.88 4226.01zM1932.24 4686.01L2091.59 4778.01L2091.59 4962.01L1932.24 5054.01L1772.88 4962.01L1772.88 4778.01zM1772.88 4962.01L1932.24 5054.01L1932.24 5238.01L1772.88 5330.01L1613.53 5238.01L1613.53 5054.01zM2091.59 1650.01L2250.94 1742.01L2250.94 1926.01L2091.59 2018.01L1932.24 1926.01L1932.24 1742.01zM2250.94 1926.01L2410.29 2018.01L2410.29 2202.01L2250.94 2294.01L2091.59 2202.01L2091.59 2018.01zM2250.94 2478.01L2410.29 2570.01L2410.29 2754.01L2250.94 2846.01L2091.59 2754.01L2091.59 2570.01zM2091.59 2754.01L2250.94 2846.01L2250.94 3030.01L2091.59 3122.01L1932.24 3030.01L1932.24 2846.01zM2250.94 3030.01L2410.29 3122.01L2410.29 3306.01L2250.94 3398.01L2091.59 3306.01L2091.59 3122.01z" stroke="rgba(7, 95, 110, 1)" stroke-width="2"></path></g><defs><mask id="SvgjsMask3148"><rect width="1920" height="5000" fill="#ffffff"></rect></mask><linearGradient x1="-40.1%" y1="15.4%" x2="140.1%" y2="84.6%" gradientUnits="userSpaceOnUse" id="SvgjsLinearGradient3149"><stop stop-color="rgba(5, 89, 102, 1)" offset="0"></stop><stop stop-color="rgba(0, 36, 37, 1)" offset="1"></stop></linearGradient></defs></svg>