<svg xmlns="http://www.w3.org/2000/svg" version="1.1" xmlns:xlink="http://www.w3.org/1999/xlink" xmlns:svgjs="http://svgjs.dev/svgjs" width="1920" height="7000" preserveAspectRatio="none" viewBox="0 0 1920 7000"><g mask="url(&quot;#SvgjsMask3482&quot;)" fill="none"><rect width="1920" height="7000" x="0" y="0" fill="url(&quot;#SvgjsLinearGradient3483&quot;)"></rect><path d="M133.69 -80.06L250.61 -12.56L250.61 122.44L133.69 189.94L16.77 122.44L16.77 -12.56zM250.61 122.44L367.52 189.94L367.52 324.94L250.61 392.44L133.69 324.94L133.69 189.94zM133.69 324.94L250.61 392.44L250.61 527.44L133.69 594.94L16.77 527.44L16.77 392.44zM250.61 1337.44L367.52 1404.94L367.52 1539.94L250.61 1607.44L133.69 1539.94L133.69 1404.94zM133.69 1539.94L250.61 1607.44L250.61 1742.44L133.69 1809.94L16.77 1742.44L16.77 1607.44zM250.61 1742.44L367.52 1809.94L367.52 1944.94L250.61 2012.44L133.69 1944.94L133.69 1809.94zM133.69 1944.94L250.61 2012.44L250.61 2147.44L133.69 2214.94L16.77 2147.44L16.77 2012.44zM250.61 2147.44L367.52 2214.94L367.52 2349.94L250.61 2417.44L133.69 2349.94L133.69 2214.94zM133.69 2349.94L250.61 2417.44L250.61 2552.44L133.69 2619.94L16.77 2552.44L16.77 2417.44zM250.61 2552.44L367.52 2619.94L367.52 2754.94L250.61 2822.44L133.69 2754.94L133.69 2619.94zM250.61 2957.44L367.52 3024.94L367.52 3159.94L250.61 3227.44L133.69 3159.94L133.69 3024.94zM250.61 3362.44L367.52 3429.94L367.52 3564.94L250.61 3632.44L133.69 3564.94L133.69 3429.94zM133.69 3564.94L250.61 3632.44L250.61 3767.44L133.69 3834.94L16.77 3767.44L16.77 3632.44zM250.61 3767.44L367.52 3834.94L367.52 3969.94L250.61 4037.44L133.69 3969.94L133.69 3834.94zM133.69 4374.94L250.61 4442.44L250.61 4577.44L133.69 4644.94L16.77 4577.44L16.77 4442.44zM133.69 4779.94L250.61 4847.44L250.61 4982.44L133.69 5049.94L16.77 4982.44L16.77 4847.44zM250.61 4982.44L367.52 5049.94L367.52 5184.94L250.61 5252.44L133.69 5184.94L133.69 5049.94zM133.69 5184.94L250.61 5252.44L250.61 5387.44L133.69 5454.94L16.77 5387.44L16.77 5252.44zM250.61 5387.44L367.52 5454.94L367.52 5589.94L250.61 5657.44L133.69 5589.94L133.69 5454.94zM133.69 5589.94L250.61 5657.44L250.61 5792.44L133.69 5859.94L16.77 5792.44L16.77 5657.44zM133.69 5994.94L250.61 6062.44L250.61 6197.44L133.69 6264.94L16.77 6197.44L16.77 6062.44zM250.61 6197.44L367.52 6264.94L367.52 6399.94L250.61 6467.44L133.69 6399.94L133.69 6264.94zM133.69 6399.94L250.61 6467.44L250.61 6602.44L133.69 6669.94L16.77 6602.44L16.77 6467.44zM484.44 122.44L601.36 189.94L601.36 324.94L484.44 392.44L367.52 324.94L367.52 189.94zM367.52 324.94L484.44 392.44L484.44 527.44L367.52 594.94L250.61 527.44L250.61 392.44zM484.44 1337.44L601.36 1404.94L601.36 1539.94L484.44 1607.44L367.52 1539.94L367.52 1404.94zM367.52 1539.94L484.44 1607.44L484.44 1742.44L367.52 1809.94L250.61 1742.44L250.61 1607.44zM484.44 1742.44L601.36 1809.94L601.36 1944.94L484.44 2012.44L367.52 1944.94L367.52 1809.94zM484.44 2147.44L601.36 2214.94L601.36 2349.94L484.44 2417.44L367.52 2349.94L367.52 2214.94zM484.44 2552.44L601.36 2619.94L601.36 2754.94L484.44 2822.44L367.52 2754.94L367.52 2619.94zM367.52 2754.94L484.44 2822.44L484.44 2957.44L367.52 3024.94L250.61 2957.44L250.61 2822.44zM484.44 2957.44L601.36 3024.94L601.36 3159.94L484.44 3227.44L367.52 3159.94L367.52 3024.94zM367.52 3159.94L484.44 3227.44L484.44 3362.44L367.52 3429.94L250.61 3362.44L250.61 3227.44zM484.44 3362.44L601.36 3429.94L601.36 3564.94L484.44 3632.44L367.52 3564.94L367.52 3429.94zM367.52 3564.94L484.44 3632.44L484.44 3767.44L367.52 3834.94L250.61 3767.44L250.61 3632.44zM484.44 4172.44L601.36 4239.94L601.36 4374.94L484.44 4442.44L367.52 4374.94L367.52 4239.94zM367.52 4374.94L484.44 4442.44L484.44 4577.44L367.52 4644.94L250.61 4577.44L250.61 4442.44zM484.44 4577.44L601.36 4644.94L601.36 4779.94L484.44 4847.44L367.52 4779.94L367.52 4644.94zM367.52 4779.94L484.44 4847.44L484.44 4982.44L367.52 5049.94L250.61 4982.44L250.61 4847.44zM367.52 5184.94L484.44 5252.44L484.44 5387.44L367.52 5454.94L250.61 5387.44L250.61 5252.44zM367.52 5994.94L484.44 6062.44L484.44 6197.44L367.52 6264.94L250.61 6197.44L250.61 6062.44zM601.36 324.94L718.27 392.44L718.27 527.44L601.36 594.94L484.44 527.44L484.44 392.44zM718.27 932.44L835.19 999.94L835.19 1134.94L718.27 1202.44L601.36 1134.94L601.36 999.94zM601.36 1134.94L718.27 1202.44L718.27 1337.44L601.36 1404.94L484.44 1337.44L484.44 1202.44zM601.36 1539.94L718.27 1607.44L718.27 1742.44L601.36 1809.94L484.44 1742.44L484.44 1607.44zM718.27 1742.44L835.19 1809.94L835.19 1944.94L718.27 2012.44L601.36 1944.94L601.36 1809.94zM601.36 1944.94L718.27 2012.44L718.27 2147.44L601.36 2214.94L484.44 2147.44L484.44 2012.44zM718.27 2552.44L835.19 2619.94L835.19 2754.94L718.27 2822.44L601.36 2754.94L601.36 2619.94zM718.27 2957.44L835.19 3024.94L835.19 3159.94L718.27 3227.44L601.36 3159.94L601.36 3024.94zM718.27 3362.44L835.19 3429.94L835.19 3564.94L718.27 3632.44L601.36 3564.94L601.36 3429.94zM601.36 3969.94L718.27 4037.44L718.27 4172.44L601.36 4239.94L484.44 4172.44L484.44 4037.44zM718.27 4172.44L835.19 4239.94L835.19 4374.94L718.27 4442.44L601.36 4374.94L601.36 4239.94zM601.36 4779.94L718.27 4847.44L718.27 4982.44L601.36 5049.94L484.44 4982.44L484.44 4847.44zM718.27 4982.44L835.19 5049.94L835.19 5184.94L718.27 5252.44L601.36 5184.94L601.36 5049.94zM601.36 5184.94L718.27 5252.44L718.27 5387.44L601.36 5454.94L484.44 5387.44L484.44 5252.44zM718.27 5387.44L835.19 5454.94L835.19 5589.94L718.27 5657.44L601.36 5589.94L601.36 5454.94zM601.36 5589.94L718.27 5657.44L718.27 5792.44L601.36 5859.94L484.44 5792.44L484.44 5657.44zM601.36 5994.94L718.27 6062.44L718.27 6197.44L601.36 6264.94L484.44 6197.44L484.44 6062.44zM601.36 6399.94L718.27 6467.44L718.27 6602.44L601.36 6669.94L484.44 6602.44L484.44 6467.44zM952.11 527.44L1069.02 594.94L1069.02 729.94L952.11 797.44L835.19 729.94L835.19 594.94zM835.19 729.94L952.11 797.44L952.11 932.44L835.19 999.94L718.27 932.44L718.27 797.44zM835.19 1539.94L952.11 1607.44L952.11 1742.44L835.19 1809.94L718.27 1742.44L718.27 1607.44zM835.19 1944.94L952.11 2012.44L952.11 2147.44L835.19 2214.94L718.27 2147.44L718.27 2012.44zM952.11 2552.44L1069.02 2619.94L1069.02 2754.94L952.11 2822.44L835.19 2754.94L835.19 2619.94zM952.11 2957.44L1069.02 3024.94L1069.02 3159.94L952.11 3227.44L835.19 3159.94L835.19 3024.94zM835.19 3969.94L952.11 4037.44L952.11 4172.44L835.19 4239.94L718.27 4172.44L718.27 4037.44zM952.11 4172.44L1069.02 4239.94L1069.02 4374.94L952.11 4442.44L835.19 4374.94L835.19 4239.94zM952.11 4982.44L1069.02 5049.94L1069.02 5184.94L952.11 5252.44L835.19 5184.94L835.19 5049.94zM835.19 5184.94L952.11 5252.44L952.11 5387.44L835.19 5454.94L718.27 5387.44L718.27 5252.44zM952.11 5792.44L1069.02 5859.94L1069.02 5994.94L952.11 6062.44L835.19 5994.94L835.19 5859.94zM835.19 6804.94L952.11 6872.44L952.11 7007.44L835.19 7074.94L718.27 7007.44L718.27 6872.44zM1069.02 729.94L1185.94 797.44L1185.94 932.44L1069.02 999.94L952.11 932.44L952.11 797.44zM1185.94 1337.44L1302.86 1404.94L1302.86 1539.94L1185.94 1607.44L1069.02 1539.94L1069.02 1404.94zM1185.94 2147.44L1302.86 2214.94L1302.86 2349.94L1185.94 2417.44L1069.02 2349.94L1069.02 2214.94zM1185.94 2552.44L1302.86 2619.94L1302.86 2754.94L1185.94 2822.44L1069.02 2754.94L1069.02 2619.94zM1185.94 2957.44L1302.86 3024.94L1302.86 3159.94L1185.94 3227.44L1069.02 3159.94L1069.02 3024.94zM1069.02 3564.94L1185.94 3632.44L1185.94 3767.44L1069.02 3834.94L952.11 3767.44L952.11 3632.44zM1069.02 4779.94L1185.94 4847.44L1185.94 4982.44L1069.02 5049.94L952.11 4982.44L952.11 4847.44zM1069.02 6399.94L1185.94 6467.44L1185.94 6602.44L1069.02 6669.94L952.11 6602.44L952.11 6467.44zM1185.94 6602.44L1302.86 6669.94L1302.86 6804.94L1185.94 6872.44L1069.02 6804.94L1069.02 6669.94zM1069.02 6804.94L1185.94 6872.44L1185.94 7007.44L1069.02 7074.94L952.11 7007.44L952.11 6872.44zM1419.77 122.44L1536.69 189.94L1536.69 324.94L1419.77 392.44L1302.86 324.94L1302.86 189.94zM1419.77 527.44L1536.69 594.94L1536.69 729.94L1419.77 797.44L1302.86 729.94L1302.86 594.94zM1302.86 729.94L1419.77 797.44L1419.77 932.44L1302.86 999.94L1185.94 932.44L1185.94 797.44zM1419.77 932.44L1536.69 999.94L1536.69 1134.94L1419.77 1202.44L1302.86 1134.94L1302.86 999.94zM1302.86 1134.94L1419.77 1202.44L1419.77 1337.44L1302.86 1404.94L1185.94 1337.44L1185.94 1202.44zM1419.77 1337.44L1536.69 1404.94L1536.69 1539.94L1419.77 1607.44L1302.86 1539.94L1302.86 1404.94zM1302.86 1539.94L1419.77 1607.44L1419.77 1742.44L1302.86 1809.94L1185.94 1742.44L1185.94 1607.44zM1419.77 2147.44L1536.69 2214.94L1536.69 2349.94L1419.77 2417.44L1302.86 2349.94L1302.86 2214.94zM1419.77 2552.44L1536.69 2619.94L1536.69 2754.94L1419.77 2822.44L1302.86 2754.94L1302.86 2619.94zM1419.77 2957.44L1536.69 3024.94L1536.69 3159.94L1419.77 3227.44L1302.86 3159.94L1302.86 3024.94zM1419.77 3362.44L1536.69 3429.94L1536.69 3564.94L1419.77 3632.44L1302.86 3564.94L1302.86 3429.94zM1419.77 3767.44L1536.69 3834.94L1536.69 3969.94L1419.77 4037.44L1302.86 3969.94L1302.86 3834.94zM1302.86 4374.94L1419.77 4442.44L1419.77 4577.44L1302.86 4644.94L1185.94 4577.44L1185.94 4442.44zM1419.77 4577.44L1536.69 4644.94L1536.69 4779.94L1419.77 4847.44L1302.86 4779.94L1302.86 4644.94zM1302.86 4779.94L1419.77 4847.44L1419.77 4982.44L1302.86 5049.94L1185.94 4982.44L1185.94 4847.44zM1302.86 5184.94L1419.77 5252.44L1419.77 5387.44L1302.86 5454.94L1185.94 5387.44L1185.94 5252.44zM1302.86 5589.94L1419.77 5657.44L1419.77 5792.44L1302.86 5859.94L1185.94 5792.44L1185.94 5657.44zM1302.86 5994.94L1419.77 6062.44L1419.77 6197.44L1302.86 6264.94L1185.94 6197.44L1185.94 6062.44zM1419.77 6602.44L1536.69 6669.94L1536.69 6804.94L1419.77 6872.44L1302.86 6804.94L1302.86 6669.94zM1419.77 7007.44L1536.69 7074.94L1536.69 7209.94L1419.77 7277.44L1302.86 7209.94L1302.86 7074.94zM1653.61 122.44L1770.52 189.94L1770.52 324.94L1653.61 392.44L1536.69 324.94L1536.69 189.94zM1653.61 527.44L1770.52 594.94L1770.52 729.94L1653.61 797.44L1536.69 729.94L1536.69 594.94zM1536.69 1539.94L1653.61 1607.44L1653.61 1742.44L1536.69 1809.94L1419.77 1742.44L1419.77 1607.44zM1653.61 2147.44L1770.52 2214.94L1770.52 2349.94L1653.61 2417.44L1536.69 2349.94L1536.69 2214.94zM1653.61 2957.44L1770.52 3024.94L1770.52 3159.94L1653.61 3227.44L1536.69 3159.94L1536.69 3024.94zM1653.61 3362.44L1770.52 3429.94L1770.52 3564.94L1653.61 3632.44L1536.69 3564.94L1536.69 3429.94zM1536.69 3564.94L1653.61 3632.44L1653.61 3767.44L1536.69 3834.94L1419.77 3767.44L1419.77 3632.44zM1536.69 4779.94L1653.61 4847.44L1653.61 4982.44L1536.69 5049.94L1419.77 4982.44L1419.77 4847.44zM1536.69 5184.94L1653.61 5252.44L1653.61 5387.44L1536.69 5454.94L1419.77 5387.44L1419.77 5252.44zM1653.61 5387.44L1770.52 5454.94L1770.52 5589.94L1653.61 5657.44L1536.69 5589.94L1536.69 5454.94zM1536.69 5589.94L1653.61 5657.44L1653.61 5792.44L1536.69 5859.94L1419.77 5792.44L1419.77 5657.44zM1536.69 5994.94L1653.61 6062.44L1653.61 6197.44L1536.69 6264.94L1419.77 6197.44L1419.77 6062.44zM1536.69 6399.94L1653.61 6467.44L1653.61 6602.44L1536.69 6669.94L1419.77 6602.44L1419.77 6467.44zM1653.61 6602.44L1770.52 6669.94L1770.52 6804.94L1653.61 6872.44L1536.69 6804.94L1536.69 6669.94zM1536.69 6804.94L1653.61 6872.44L1653.61 7007.44L1536.69 7074.94L1419.77 7007.44L1419.77 6872.44zM1770.52 -80.06L1887.44 -12.56L1887.44 122.44L1770.52 189.94L1653.61 122.44L1653.61 -12.56zM1887.44 932.44L2004.36 999.94L2004.36 1134.94L1887.44 1202.44L1770.52 1134.94L1770.52 999.94zM1770.52 1134.94L1887.44 1202.44L1887.44 1337.44L1770.52 1404.94L1653.61 1337.44L1653.61 1202.44zM1887.44 1337.44L2004.36 1404.94L2004.36 1539.94L1887.44 1607.44L1770.52 1539.94L1770.52 1404.94zM1770.52 1944.94L1887.44 2012.44L1887.44 2147.44L1770.52 2214.94L1653.61 2147.44L1653.61 2012.44zM1770.52 2349.94L1887.44 2417.44L1887.44 2552.44L1770.52 2619.94L1653.61 2552.44L1653.61 2417.44zM1887.44 2552.44L2004.36 2619.94L2004.36 2754.94L1887.44 2822.44L1770.52 2754.94L1770.52 2619.94zM1770.52 2754.94L1887.44 2822.44L1887.44 2957.44L1770.52 3024.94L1653.61 2957.44L1653.61 2822.44zM1887.44 2957.44L2004.36 3024.94L2004.36 3159.94L1887.44 3227.44L1770.52 3159.94L1770.52 3024.94zM1770.52 3159.94L1887.44 3227.44L1887.44 3362.44L1770.52 3429.94L1653.61 3362.44L1653.61 3227.44zM1887.44 3362.44L2004.36 3429.94L2004.36 3564.94L1887.44 3632.44L1770.52 3564.94L1770.52 3429.94zM1770.52 4374.94L1887.44 4442.44L1887.44 4577.44L1770.52 4644.94L1653.61 4577.44L1653.61 4442.44zM1887.44 4577.44L2004.36 4644.94L2004.36 4779.94L1887.44 4847.44L1770.52 4779.94L1770.52 4644.94zM1770.52 4779.94L1887.44 4847.44L1887.44 4982.44L1770.52 5049.94L1653.61 4982.44L1653.61 4847.44zM1887.44 5792.44L2004.36 5859.94L2004.36 5994.94L1887.44 6062.44L1770.52 5994.94L1770.52 5859.94zM1770.52 5994.94L1887.44 6062.44L1887.44 6197.44L1770.52 6264.94L1653.61 6197.44L1653.61 6062.44zM2004.36 -80.06L2121.27 -12.56L2121.27 122.44L2004.36 189.94L1887.44 122.44L1887.44 -12.56zM2004.36 1134.94L2121.27 1202.44L2121.27 1337.44L2004.36 1404.94L1887.44 1337.44L1887.44 1202.44zM2121.27 1337.44L2238.19 1404.94L2238.19 1539.94L2121.27 1607.44L2004.36 1539.94L2004.36 1404.94zM2004.36 1944.94L2121.27 2012.44L2121.27 2147.44L2004.36 2214.94L1887.44 2147.44L1887.44 2012.44zM2121.27 2147.44L2238.19 2214.94L2238.19 2349.94L2121.27 2417.44L2004.36 2349.94L2004.36 2214.94zM2004.36 2349.94L2121.27 2417.44L2121.27 2552.44L2004.36 2619.94L1887.44 2552.44L1887.44 2417.44zM2004.36 2754.94L2121.27 2822.44L2121.27 2957.44L2004.36 3024.94L1887.44 2957.44L1887.44 2822.44zM2121.27 3362.44L2238.19 3429.94L2238.19 3564.94L2121.27 3632.44L2004.36 3564.94L2004.36 3429.94zM2004.36 3564.94L2121.27 3632.44L2121.27 3767.44L2004.36 3834.94L1887.44 3767.44L1887.44 3632.44zM2004.36 3969.94L2121.27 4037.44L2121.27 4172.44L2004.36 4239.94L1887.44 4172.44L1887.44 4037.44zM2004.36 4374.94L2121.27 4442.44L2121.27 4577.44L2004.36 4644.94L1887.44 4577.44L1887.44 4442.44zM2121.27 4577.44L2238.19 4644.94L2238.19 4779.94L2121.27 4847.44L2004.36 4779.94L2004.36 4644.94zM2004.36 5184.94L2121.27 5252.44L2121.27 5387.44L2004.36 5454.94L1887.44 5387.44L1887.44 5252.44zM2004.36 5589.94L2121.27 5657.44L2121.27 5792.44L2004.36 5859.94L1887.44 5792.44L1887.44 5657.44zM2004.36 5994.94L2121.27 6062.44L2121.27 6197.44L2004.36 6264.94L1887.44 6197.44L1887.44 6062.44zM2121.27 6197.44L2238.19 6264.94L2238.19 6399.94L2121.27 6467.44L2004.36 6399.94L2004.36 6264.94zM2121.27 6602.44L2238.19 6669.94L2238.19 6804.94L2121.27 6872.44L2004.36 6804.94L2004.36 6669.94zM2004.36 6804.94L2121.27 6872.44L2121.27 7007.44L2004.36 7074.94L1887.44 7007.44L1887.44 6872.44zM2121.27 7007.44L2238.19 7074.94L2238.19 7209.94L2121.27 7277.44L2004.36 7209.94L2004.36 7074.94z" stroke="url(&quot;#SvgjsLinearGradient3484&quot;)" stroke-width="2"></path><path d="M120.19 -80.06 a13.5 13.5 0 1 0 27 0 a13.5 13.5 0 1 0 -27 0zM237.11 -12.56 a13.5 13.5 0 1 0 27 0 a13.5 13.5 0 1 0 -27 0zM237.11 122.44 a13.5 13.5 0 1 0 27 0 a13.5 13.5 0 1 0 -27 0zM120.19 189.94 a13.5 13.5 0 1 0 27 0 a13.5 13.5 0 1 0 -27 0zM3.27 122.44 a13.5 13.5 0 1 0 27 0 a13.5 13.5 0 1 0 -27 0zM3.27 -12.56 a13.5 13.5 0 1 0 27 0 a13.5 13.5 0 1 0 -27 0zM354.02 189.94 a13.5 13.5 0 1 0 27 0 a13.5 13.5 0 1 0 -27 0zM354.02 324.94 a13.5 13.5 0 1 0 27 0 a13.5 13.5 0 1 0 -27 0zM237.11 392.44 a13.5 13.5 0 1 0 27 0 a13.5 13.5 0 1 0 -27 0zM120.19 324.94 a13.5 13.5 0 1 0 27 0 a13.5 13.5 0 1 0 -27 0zM237.11 527.44 a13.5 13.5 0 1 0 27 0 a13.5 13.5 0 1 0 -27 0zM120.19 594.94 a13.5 13.5 0 1 0 27 0 a13.5 13.5 0 1 0 -27 0zM3.27 527.44 a13.5 13.5 0 1 0 27 0 a13.5 13.5 0 1 0 -27 0zM3.27 392.44 a13.5 13.5 0 1 0 27 0 a13.5 13.5 0 1 0 -27 0zM237.11 1337.44 a13.5 13.5 0 1 0 27 0 a13.5 13.5 0 1 0 -27 0zM354.02 1404.94 a13.5 13.5 0 1 0 27 0 a13.5 13.5 0 1 0 -27 0zM354.02 1539.94 a13.5 13.5 0 1 0 27 0 a13.5 13.5 0 1 0 -27 0zM237.11 1607.44 a13.5 13.5 0 1 0 27 0 a13.5 13.5 0 1 0 -27 0zM120.19 1539.94 a13.5 13.5 0 1 0 27 0 a13.5 13.5 0 1 0 -27 0zM120.19 1404.94 a13.5 13.5 0 1 0 27 0 a13.5 13.5 0 1 0 -27 0zM237.11 1742.44 a13.5 13.5 0 1 0 27 0 a13.5 13.5 0 1 0 -27 0zM120.19 1809.94 a13.5 13.5 0 1 0 27 0 a13.5 13.5 0 1 0 -27 0zM3.27 1742.44 a13.5 13.5 0 1 0 27 0 a13.5 13.5 0 1 0 -27 0zM3.27 1607.44 a13.5 13.5 0 1 0 27 0 a13.5 13.5 0 1 0 -27 0zM354.02 1809.94 a13.5 13.5 0 1 0 27 0 a13.5 13.5 0 1 0 -27 0zM354.02 1944.94 a13.5 13.5 0 1 0 27 0 a13.5 13.5 0 1 0 -27 0zM237.11 2012.44 a13.5 13.5 0 1 0 27 0 a13.5 13.5 0 1 0 -27 0zM120.19 1944.94 a13.5 13.5 0 1 0 27 0 a13.5 13.5 0 1 0 -27 0zM237.11 2147.44 a13.5 13.5 0 1 0 27 0 a13.5 13.5 0 1 0 -27 0zM120.19 2214.94 a13.5 13.5 0 1 0 27 0 a13.5 13.5 0 1 0 -27 0zM3.27 2147.44 a13.5 13.5 0 1 0 27 0 a13.5 13.5 0 1 0 -27 0zM3.27 2012.44 a13.5 13.5 0 1 0 27 0 a13.5 13.5 0 1 0 -27 0zM354.02 2214.94 a13.5 13.5 0 1 0 27 0 a13.5 13.5 0 1 0 -27 0zM354.02 2349.94 a13.5 13.5 0 1 0 27 0 a13.5 13.5 0 1 0 -27 0zM237.11 2417.44 a13.5 13.5 0 1 0 27 0 a13.5 13.5 0 1 0 -27 0zM120.19 2349.94 a13.5 13.5 0 1 0 27 0 a13.5 13.5 0 1 0 -27 0zM237.11 2552.44 a13.5 13.5 0 1 0 27 0 a13.5 13.5 0 1 0 -27 0zM120.19 2619.94 a13.5 13.5 0 1 0 27 0 a13.5 13.5 0 1 0 -27 0zM3.27 2552.44 a13.5 13.5 0 1 0 27 0 a13.5 13.5 0 1 0 -27 0zM3.27 2417.44 a13.5 13.5 0 1 0 27 0 a13.5 13.5 0 1 0 -27 0zM354.02 2619.94 a13.5 13.5 0 1 0 27 0 a13.5 13.5 0 1 0 -27 0zM354.02 2754.94 a13.5 13.5 0 1 0 27 0 a13.5 13.5 0 1 0 -27 0zM237.11 2822.44 a13.5 13.5 0 1 0 27 0 a13.5 13.5 0 1 0 -27 0zM120.19 2754.94 a13.5 13.5 0 1 0 27 0 a13.5 13.5 0 1 0 -27 0zM237.11 2957.44 a13.5 13.5 0 1 0 27 0 a13.5 13.5 0 1 0 -27 0zM354.02 3024.94 a13.5 13.5 0 1 0 27 0 a13.5 13.5 0 1 0 -27 0zM354.02 3159.94 a13.5 13.5 0 1 0 27 0 a13.5 13.5 0 1 0 -27 0zM237.11 3227.44 a13.5 13.5 0 1 0 27 0 a13.5 13.5 0 1 0 -27 0zM120.19 3159.94 a13.5 13.5 0 1 0 27 0 a13.5 13.5 0 1 0 -27 0zM120.19 3024.94 a13.5 13.5 0 1 0 27 0 a13.5 13.5 0 1 0 -27 0zM237.11 3362.44 a13.5 13.5 0 1 0 27 0 a13.5 13.5 0 1 0 -27 0zM354.02 3429.94 a13.5 13.5 0 1 0 27 0 a13.5 13.5 0 1 0 -27 0zM354.02 3564.94 a13.5 13.5 0 1 0 27 0 a13.5 13.5 0 1 0 -27 0zM237.11 3632.44 a13.5 13.5 0 1 0 27 0 a13.5 13.5 0 1 0 -27 0zM120.19 3564.94 a13.5 13.5 0 1 0 27 0 a13.5 13.5 0 1 0 -27 0zM120.19 3429.94 a13.5 13.5 0 1 0 27 0 a13.5 13.5 0 1 0 -27 0zM237.11 3767.44 a13.5 13.5 0 1 0 27 0 a13.5 13.5 0 1 0 -27 0zM120.19 3834.94 a13.5 13.5 0 1 0 27 0 a13.5 13.5 0 1 0 -27 0zM3.27 3767.44 a13.5 13.5 0 1 0 27 0 a13.5 13.5 0 1 0 -27 0zM3.27 3632.44 a13.5 13.5 0 1 0 27 0 a13.5 13.5 0 1 0 -27 0zM354.02 3834.94 a13.5 13.5 0 1 0 27 0 a13.5 13.5 0 1 0 -27 0zM354.02 3969.94 a13.5 13.5 0 1 0 27 0 a13.5 13.5 0 1 0 -27 0zM237.11 4037.44 a13.5 13.5 0 1 0 27 0 a13.5 13.5 0 1 0 -27 0zM120.19 3969.94 a13.5 13.5 0 1 0 27 0 a13.5 13.5 0 1 0 -27 0zM120.19 4374.94 a13.5 13.5 0 1 0 27 0 a13.5 13.5 0 1 0 -27 0zM237.11 4442.44 a13.5 13.5 0 1 0 27 0 a13.5 13.5 0 1 0 -27 0zM237.11 4577.44 a13.5 13.5 0 1 0 27 0 a13.5 13.5 0 1 0 -27 0zM120.19 4644.94 a13.5 13.5 0 1 0 27 0 a13.5 13.5 0 1 0 -27 0zM3.27 4577.44 a13.5 13.5 0 1 0 27 0 a13.5 13.5 0 1 0 -27 0zM3.27 4442.44 a13.5 13.5 0 1 0 27 0 a13.5 13.5 0 1 0 -27 0zM120.19 4779.94 a13.5 13.5 0 1 0 27 0 a13.5 13.5 0 1 0 -27 0zM237.11 4847.44 a13.5 13.5 0 1 0 27 0 a13.5 13.5 0 1 0 -27 0zM237.11 4982.44 a13.5 13.5 0 1 0 27 0 a13.5 13.5 0 1 0 -27 0zM120.19 5049.94 a13.5 13.5 0 1 0 27 0 a13.5 13.5 0 1 0 -27 0zM3.27 4982.44 a13.5 13.5 0 1 0 27 0 a13.5 13.5 0 1 0 -27 0zM3.27 4847.44 a13.5 13.5 0 1 0 27 0 a13.5 13.5 0 1 0 -27 0zM354.02 5049.94 a13.5 13.5 0 1 0 27 0 a13.5 13.5 0 1 0 -27 0zM354.02 5184.94 a13.5 13.5 0 1 0 27 0 a13.5 13.5 0 1 0 -27 0zM237.11 5252.44 a13.5 13.5 0 1 0 27 0 a13.5 13.5 0 1 0 -27 0zM120.19 5184.94 a13.5 13.5 0 1 0 27 0 a13.5 13.5 0 1 0 -27 0zM237.11 5387.44 a13.5 13.5 0 1 0 27 0 a13.5 13.5 0 1 0 -27 0zM120.19 5454.94 a13.5 13.5 0 1 0 27 0 a13.5 13.5 0 1 0 -27 0zM3.27 5387.44 a13.5 13.5 0 1 0 27 0 a13.5 13.5 0 1 0 -27 0zM3.27 5252.44 a13.5 13.5 0 1 0 27 0 a13.5 13.5 0 1 0 -27 0zM354.02 5454.94 a13.5 13.5 0 1 0 27 0 a13.5 13.5 0 1 0 -27 0zM354.02 5589.94 a13.5 13.5 0 1 0 27 0 a13.5 13.5 0 1 0 -27 0zM237.11 5657.44 a13.5 13.5 0 1 0 27 0 a13.5 13.5 0 1 0 -27 0zM120.19 5589.94 a13.5 13.5 0 1 0 27 0 a13.5 13.5 0 1 0 -27 0zM237.11 5792.44 a13.5 13.5 0 1 0 27 0 a13.5 13.5 0 1 0 -27 0zM120.19 5859.94 a13.5 13.5 0 1 0 27 0 a13.5 13.5 0 1 0 -27 0zM3.27 5792.44 a13.5 13.5 0 1 0 27 0 a13.5 13.5 0 1 0 -27 0zM3.27 5657.44 a13.5 13.5 0 1 0 27 0 a13.5 13.5 0 1 0 -27 0zM120.19 5994.94 a13.5 13.5 0 1 0 27 0 a13.5 13.5 0 1 0 -27 0zM237.11 6062.44 a13.5 13.5 0 1 0 27 0 a13.5 13.5 0 1 0 -27 0zM237.11 6197.44 a13.5 13.5 0 1 0 27 0 a13.5 13.5 0 1 0 -27 0zM120.19 6264.94 a13.5 13.5 0 1 0 27 0 a13.5 13.5 0 1 0 -27 0zM3.27 6197.44 a13.5 13.5 0 1 0 27 0 a13.5 13.5 0 1 0 -27 0zM3.27 6062.44 a13.5 13.5 0 1 0 27 0 a13.5 13.5 0 1 0 -27 0zM354.02 6264.94 a13.5 13.5 0 1 0 27 0 a13.5 13.5 0 1 0 -27 0zM354.02 6399.94 a13.5 13.5 0 1 0 27 0 a13.5 13.5 0 1 0 -27 0zM237.11 6467.44 a13.5 13.5 0 1 0 27 0 a13.5 13.5 0 1 0 -27 0zM120.19 6399.94 a13.5 13.5 0 1 0 27 0 a13.5 13.5 0 1 0 -27 0zM237.11 6602.44 a13.5 13.5 0 1 0 27 0 a13.5 13.5 0 1 0 -27 0zM120.19 6669.94 a13.5 13.5 0 1 0 27 0 a13.5 13.5 0 1 0 -27 0zM3.27 6602.44 a13.5 13.5 0 1 0 27 0 a13.5 13.5 0 1 0 -27 0zM3.27 6467.44 a13.5 13.5 0 1 0 27 0 a13.5 13.5 0 1 0 -27 0zM470.94 122.44 a13.5 13.5 0 1 0 27 0 a13.5 13.5 0 1 0 -27 0zM587.86 189.94 a13.5 13.5 0 1 0 27 0 a13.5 13.5 0 1 0 -27 0zM587.86 324.94 a13.5 13.5 0 1 0 27 0 a13.5 13.5 0 1 0 -27 0zM470.94 392.44 a13.5 13.5 0 1 0 27 0 a13.5 13.5 0 1 0 -27 0zM470.94 527.44 a13.5 13.5 0 1 0 27 0 a13.5 13.5 0 1 0 -27 0zM354.02 594.94 a13.5 13.5 0 1 0 27 0 a13.5 13.5 0 1 0 -27 0zM470.94 1337.44 a13.5 13.5 0 1 0 27 0 a13.5 13.5 0 1 0 -27 0zM587.86 1404.94 a13.5 13.5 0 1 0 27 0 a13.5 13.5 0 1 0 -27 0zM587.86 1539.94 a13.5 13.5 0 1 0 27 0 a13.5 13.5 0 1 0 -27 0zM470.94 1607.44 a13.5 13.5 0 1 0 27 0 a13.5 13.5 0 1 0 -27 0zM470.94 1742.44 a13.5 13.5 0 1 0 27 0 a13.5 13.5 0 1 0 -27 0zM587.86 1809.94 a13.5 13.5 0 1 0 27 0 a13.5 13.5 0 1 0 -27 0zM587.86 1944.94 a13.5 13.5 0 1 0 27 0 a13.5 13.5 0 1 0 -27 0zM470.94 2012.44 a13.5 13.5 0 1 0 27 0 a13.5 13.5 0 1 0 -27 0zM470.94 2147.44 a13.5 13.5 0 1 0 27 0 a13.5 13.5 0 1 0 -27 0zM587.86 2214.94 a13.5 13.5 0 1 0 27 0 a13.5 13.5 0 1 0 -27 0zM587.86 2349.94 a13.5 13.5 0 1 0 27 0 a13.5 13.5 0 1 0 -27 0zM470.94 2417.44 a13.5 13.5 0 1 0 27 0 a13.5 13.5 0 1 0 -27 0zM470.94 2552.44 a13.5 13.5 0 1 0 27 0 a13.5 13.5 0 1 0 -27 0zM587.86 2619.94 a13.5 13.5 0 1 0 27 0 a13.5 13.5 0 1 0 -27 0zM587.86 2754.94 a13.5 13.5 0 1 0 27 0 a13.5 13.5 0 1 0 -27 0zM470.94 2822.44 a13.5 13.5 0 1 0 27 0 a13.5 13.5 0 1 0 -27 0zM470.94 2957.44 a13.5 13.5 0 1 0 27 0 a13.5 13.5 0 1 0 -27 0zM587.86 3024.94 a13.5 13.5 0 1 0 27 0 a13.5 13.5 0 1 0 -27 0zM587.86 3159.94 a13.5 13.5 0 1 0 27 0 a13.5 13.5 0 1 0 -27 0zM470.94 3227.44 a13.5 13.5 0 1 0 27 0 a13.5 13.5 0 1 0 -27 0zM470.94 3362.44 a13.5 13.5 0 1 0 27 0 a13.5 13.5 0 1 0 -27 0zM587.86 3429.94 a13.5 13.5 0 1 0 27 0 a13.5 13.5 0 1 0 -27 0zM587.86 3564.94 a13.5 13.5 0 1 0 27 0 a13.5 13.5 0 1 0 -27 0zM470.94 3632.44 a13.5 13.5 0 1 0 27 0 a13.5 13.5 0 1 0 -27 0zM470.94 3767.44 a13.5 13.5 0 1 0 27 0 a13.5 13.5 0 1 0 -27 0zM470.94 4172.44 a13.5 13.5 0 1 0 27 0 a13.5 13.5 0 1 0 -27 0zM587.86 4239.94 a13.5 13.5 0 1 0 27 0 a13.5 13.5 0 1 0 -27 0zM587.86 4374.94 a13.5 13.5 0 1 0 27 0 a13.5 13.5 0 1 0 -27 0zM470.94 4442.44 a13.5 13.5 0 1 0 27 0 a13.5 13.5 0 1 0 -27 0zM354.02 4374.94 a13.5 13.5 0 1 0 27 0 a13.5 13.5 0 1 0 -27 0zM354.02 4239.94 a13.5 13.5 0 1 0 27 0 a13.5 13.5 0 1 0 -27 0zM470.94 4577.44 a13.5 13.5 0 1 0 27 0 a13.5 13.5 0 1 0 -27 0zM354.02 4644.94 a13.5 13.5 0 1 0 27 0 a13.5 13.5 0 1 0 -27 0zM587.86 4644.94 a13.5 13.5 0 1 0 27 0 a13.5 13.5 0 1 0 -27 0zM587.86 4779.94 a13.5 13.5 0 1 0 27 0 a13.5 13.5 0 1 0 -27 0zM470.94 4847.44 a13.5 13.5 0 1 0 27 0 a13.5 13.5 0 1 0 -27 0zM354.02 4779.94 a13.5 13.5 0 1 0 27 0 a13.5 13.5 0 1 0 -27 0zM470.94 4982.44 a13.5 13.5 0 1 0 27 0 a13.5 13.5 0 1 0 -27 0zM470.94 5252.44 a13.5 13.5 0 1 0 27 0 a13.5 13.5 0 1 0 -27 0zM470.94 5387.44 a13.5 13.5 0 1 0 27 0 a13.5 13.5 0 1 0 -27 0zM354.02 5994.94 a13.5 13.5 0 1 0 27 0 a13.5 13.5 0 1 0 -27 0zM470.94 6062.44 a13.5 13.5 0 1 0 27 0 a13.5 13.5 0 1 0 -27 0zM470.94 6197.44 a13.5 13.5 0 1 0 27 0 a13.5 13.5 0 1 0 -27 0zM704.77 392.44 a13.5 13.5 0 1 0 27 0 a13.5 13.5 0 1 0 -27 0zM704.77 527.44 a13.5 13.5 0 1 0 27 0 a13.5 13.5 0 1 0 -27 0zM587.86 594.94 a13.5 13.5 0 1 0 27 0 a13.5 13.5 0 1 0 -27 0zM704.77 932.44 a13.5 13.5 0 1 0 27 0 a13.5 13.5 0 1 0 -27 0zM821.69 999.94 a13.5 13.5 0 1 0 27 0 a13.5 13.5 0 1 0 -27 0zM821.69 1134.94 a13.5 13.5 0 1 0 27 0 a13.5 13.5 0 1 0 -27 0zM704.77 1202.44 a13.5 13.5 0 1 0 27 0 a13.5 13.5 0 1 0 -27 0zM587.86 1134.94 a13.5 13.5 0 1 0 27 0 a13.5 13.5 0 1 0 -27 0zM587.86 999.94 a13.5 13.5 0 1 0 27 0 a13.5 13.5 0 1 0 -27 0zM704.77 1337.44 a13.5 13.5 0 1 0 27 0 a13.5 13.5 0 1 0 -27 0zM470.94 1202.44 a13.5 13.5 0 1 0 27 0 a13.5 13.5 0 1 0 -27 0zM704.77 1607.44 a13.5 13.5 0 1 0 27 0 a13.5 13.5 0 1 0 -27 0zM704.77 1742.44 a13.5 13.5 0 1 0 27 0 a13.5 13.5 0 1 0 -27 0zM821.69 1809.94 a13.5 13.5 0 1 0 27 0 a13.5 13.5 0 1 0 -27 0zM821.69 1944.94 a13.5 13.5 0 1 0 27 0 a13.5 13.5 0 1 0 -27 0zM704.77 2012.44 a13.5 13.5 0 1 0 27 0 a13.5 13.5 0 1 0 -27 0zM704.77 2147.44 a13.5 13.5 0 1 0 27 0 a13.5 13.5 0 1 0 -27 0zM704.77 2552.44 a13.5 13.5 0 1 0 27 0 a13.5 13.5 0 1 0 -27 0zM821.69 2619.94 a13.5 13.5 0 1 0 27 0 a13.5 13.5 0 1 0 -27 0zM821.69 2754.94 a13.5 13.5 0 1 0 27 0 a13.5 13.5 0 1 0 -27 0zM704.77 2822.44 a13.5 13.5 0 1 0 27 0 a13.5 13.5 0 1 0 -27 0zM704.77 2957.44 a13.5 13.5 0 1 0 27 0 a13.5 13.5 0 1 0 -27 0zM821.69 3024.94 a13.5 13.5 0 1 0 27 0 a13.5 13.5 0 1 0 -27 0zM821.69 3159.94 a13.5 13.5 0 1 0 27 0 a13.5 13.5 0 1 0 -27 0zM704.77 3227.44 a13.5 13.5 0 1 0 27 0 a13.5 13.5 0 1 0 -27 0zM704.77 3362.44 a13.5 13.5 0 1 0 27 0 a13.5 13.5 0 1 0 -27 0zM821.69 3429.94 a13.5 13.5 0 1 0 27 0 a13.5 13.5 0 1 0 -27 0zM821.69 3564.94 a13.5 13.5 0 1 0 27 0 a13.5 13.5 0 1 0 -27 0zM704.77 3632.44 a13.5 13.5 0 1 0 27 0 a13.5 13.5 0 1 0 -27 0zM587.86 3969.94 a13.5 13.5 0 1 0 27 0 a13.5 13.5 0 1 0 -27 0zM704.77 4037.44 a13.5 13.5 0 1 0 27 0 a13.5 13.5 0 1 0 -27 0zM704.77 4172.44 a13.5 13.5 0 1 0 27 0 a13.5 13.5 0 1 0 -27 0zM470.94 4037.44 a13.5 13.5 0 1 0 27 0 a13.5 13.5 0 1 0 -27 0zM821.69 4239.94 a13.5 13.5 0 1 0 27 0 a13.5 13.5 0 1 0 -27 0zM821.69 4374.94 a13.5 13.5 0 1 0 27 0 a13.5 13.5 0 1 0 -27 0zM704.77 4442.44 a13.5 13.5 0 1 0 27 0 a13.5 13.5 0 1 0 -27 0zM704.77 4847.44 a13.5 13.5 0 1 0 27 0 a13.5 13.5 0 1 0 -27 0zM704.77 4982.44 a13.5 13.5 0 1 0 27 0 a13.5 13.5 0 1 0 -27 0zM587.86 5049.94 a13.5 13.5 0 1 0 27 0 a13.5 13.5 0 1 0 -27 0zM821.69 5049.94 a13.5 13.5 0 1 0 27 0 a13.5 13.5 0 1 0 -27 0zM821.69 5184.94 a13.5 13.5 0 1 0 27 0 a13.5 13.5 0 1 0 -27 0zM704.77 5252.44 a13.5 13.5 0 1 0 27 0 a13.5 13.5 0 1 0 -27 0zM587.86 5184.94 a13.5 13.5 0 1 0 27 0 a13.5 13.5 0 1 0 -27 0zM704.77 5387.44 a13.5 13.5 0 1 0 27 0 a13.5 13.5 0 1 0 -27 0zM587.86 5454.94 a13.5 13.5 0 1 0 27 0 a13.5 13.5 0 1 0 -27 0zM821.69 5454.94 a13.5 13.5 0 1 0 27 0 a13.5 13.5 0 1 0 -27 0zM821.69 5589.94 a13.5 13.5 0 1 0 27 0 a13.5 13.5 0 1 0 -27 0zM704.77 5657.44 a13.5 13.5 0 1 0 27 0 a13.5 13.5 0 1 0 -27 0zM587.86 5589.94 a13.5 13.5 0 1 0 27 0 a13.5 13.5 0 1 0 -27 0zM704.77 5792.44 a13.5 13.5 0 1 0 27 0 a13.5 13.5 0 1 0 -27 0zM587.86 5859.94 a13.5 13.5 0 1 0 27 0 a13.5 13.5 0 1 0 -27 0zM470.94 5792.44 a13.5 13.5 0 1 0 27 0 a13.5 13.5 0 1 0 -27 0zM470.94 5657.44 a13.5 13.5 0 1 0 27 0 a13.5 13.5 0 1 0 -27 0zM587.86 5994.94 a13.5 13.5 0 1 0 27 0 a13.5 13.5 0 1 0 -27 0zM704.77 6062.44 a13.5 13.5 0 1 0 27 0 a13.5 13.5 0 1 0 -27 0zM704.77 6197.44 a13.5 13.5 0 1 0 27 0 a13.5 13.5 0 1 0 -27 0zM587.86 6264.94 a13.5 13.5 0 1 0 27 0 a13.5 13.5 0 1 0 -27 0zM587.86 6399.94 a13.5 13.5 0 1 0 27 0 a13.5 13.5 0 1 0 -27 0zM704.77 6467.44 a13.5 13.5 0 1 0 27 0 a13.5 13.5 0 1 0 -27 0zM704.77 6602.44 a13.5 13.5 0 1 0 27 0 a13.5 13.5 0 1 0 -27 0zM587.86 6669.94 a13.5 13.5 0 1 0 27 0 a13.5 13.5 0 1 0 -27 0zM470.94 6602.44 a13.5 13.5 0 1 0 27 0 a13.5 13.5 0 1 0 -27 0zM470.94 6467.44 a13.5 13.5 0 1 0 27 0 a13.5 13.5 0 1 0 -27 0zM938.61 527.44 a13.5 13.5 0 1 0 27 0 a13.5 13.5 0 1 0 -27 0zM1055.52 594.94 a13.5 13.5 0 1 0 27 0 a13.5 13.5 0 1 0 -27 0zM1055.52 729.94 a13.5 13.5 0 1 0 27 0 a13.5 13.5 0 1 0 -27 0zM938.61 797.44 a13.5 13.5 0 1 0 27 0 a13.5 13.5 0 1 0 -27 0zM821.69 729.94 a13.5 13.5 0 1 0 27 0 a13.5 13.5 0 1 0 -27 0zM821.69 594.94 a13.5 13.5 0 1 0 27 0 a13.5 13.5 0 1 0 -27 0zM938.61 932.44 a13.5 13.5 0 1 0 27 0 a13.5 13.5 0 1 0 -27 0zM704.77 797.44 a13.5 13.5 0 1 0 27 0 a13.5 13.5 0 1 0 -27 0zM821.69 1539.94 a13.5 13.5 0 1 0 27 0 a13.5 13.5 0 1 0 -27 0zM938.61 1607.44 a13.5 13.5 0 1 0 27 0 a13.5 13.5 0 1 0 -27 0zM938.61 1742.44 a13.5 13.5 0 1 0 27 0 a13.5 13.5 0 1 0 -27 0zM938.61 2012.44 a13.5 13.5 0 1 0 27 0 a13.5 13.5 0 1 0 -27 0zM938.61 2147.44 a13.5 13.5 0 1 0 27 0 a13.5 13.5 0 1 0 -27 0zM821.69 2214.94 a13.5 13.5 0 1 0 27 0 a13.5 13.5 0 1 0 -27 0zM938.61 2552.44 a13.5 13.5 0 1 0 27 0 a13.5 13.5 0 1 0 -27 0zM1055.52 2619.94 a13.5 13.5 0 1 0 27 0 a13.5 13.5 0 1 0 -27 0zM1055.52 2754.94 a13.5 13.5 0 1 0 27 0 a13.5 13.5 0 1 0 -27 0zM938.61 2822.44 a13.5 13.5 0 1 0 27 0 a13.5 13.5 0 1 0 -27 0zM938.61 2957.44 a13.5 13.5 0 1 0 27 0 a13.5 13.5 0 1 0 -27 0zM1055.52 3024.94 a13.5 13.5 0 1 0 27 0 a13.5 13.5 0 1 0 -27 0zM1055.52 3159.94 a13.5 13.5 0 1 0 27 0 a13.5 13.5 0 1 0 -27 0zM938.61 3227.44 a13.5 13.5 0 1 0 27 0 a13.5 13.5 0 1 0 -27 0zM821.69 3969.94 a13.5 13.5 0 1 0 27 0 a13.5 13.5 0 1 0 -27 0zM938.61 4037.44 a13.5 13.5 0 1 0 27 0 a13.5 13.5 0 1 0 -27 0zM938.61 4172.44 a13.5 13.5 0 1 0 27 0 a13.5 13.5 0 1 0 -27 0zM1055.52 4239.94 a13.5 13.5 0 1 0 27 0 a13.5 13.5 0 1 0 -27 0zM1055.52 4374.94 a13.5 13.5 0 1 0 27 0 a13.5 13.5 0 1 0 -27 0zM938.61 4442.44 a13.5 13.5 0 1 0 27 0 a13.5 13.5 0 1 0 -27 0zM938.61 4982.44 a13.5 13.5 0 1 0 27 0 a13.5 13.5 0 1 0 -27 0zM1055.52 5049.94 a13.5 13.5 0 1 0 27 0 a13.5 13.5 0 1 0 -27 0zM1055.52 5184.94 a13.5 13.5 0 1 0 27 0 a13.5 13.5 0 1 0 -27 0zM938.61 5252.44 a13.5 13.5 0 1 0 27 0 a13.5 13.5 0 1 0 -27 0zM938.61 5387.44 a13.5 13.5 0 1 0 27 0 a13.5 13.5 0 1 0 -27 0zM938.61 5792.44 a13.5 13.5 0 1 0 27 0 a13.5 13.5 0 1 0 -27 0zM1055.52 5859.94 a13.5 13.5 0 1 0 27 0 a13.5 13.5 0 1 0 -27 0zM1055.52 5994.94 a13.5 13.5 0 1 0 27 0 a13.5 13.5 0 1 0 -27 0zM938.61 6062.44 a13.5 13.5 0 1 0 27 0 a13.5 13.5 0 1 0 -27 0zM821.69 5994.94 a13.5 13.5 0 1 0 27 0 a13.5 13.5 0 1 0 -27 0zM821.69 5859.94 a13.5 13.5 0 1 0 27 0 a13.5 13.5 0 1 0 -27 0zM821.69 6804.94 a13.5 13.5 0 1 0 27 0 a13.5 13.5 0 1 0 -27 0zM938.61 6872.44 a13.5 13.5 0 1 0 27 0 a13.5 13.5 0 1 0 -27 0zM938.61 7007.44 a13.5 13.5 0 1 0 27 0 a13.5 13.5 0 1 0 -27 0zM821.69 7074.94 a13.5 13.5 0 1 0 27 0 a13.5 13.5 0 1 0 -27 0zM704.77 7007.44 a13.5 13.5 0 1 0 27 0 a13.5 13.5 0 1 0 -27 0zM704.77 6872.44 a13.5 13.5 0 1 0 27 0 a13.5 13.5 0 1 0 -27 0zM1172.44 797.44 a13.5 13.5 0 1 0 27 0 a13.5 13.5 0 1 0 -27 0zM1172.44 932.44 a13.5 13.5 0 1 0 27 0 a13.5 13.5 0 1 0 -27 0zM1055.52 999.94 a13.5 13.5 0 1 0 27 0 a13.5 13.5 0 1 0 -27 0zM1172.44 1337.44 a13.5 13.5 0 1 0 27 0 a13.5 13.5 0 1 0 -27 0zM1289.36 1404.94 a13.5 13.5 0 1 0 27 0 a13.5 13.5 0 1 0 -27 0zM1289.36 1539.94 a13.5 13.5 0 1 0 27 0 a13.5 13.5 0 1 0 -27 0zM1172.44 1607.44 a13.5 13.5 0 1 0 27 0 a13.5 13.5 0 1 0 -27 0zM1055.52 1539.94 a13.5 13.5 0 1 0 27 0 a13.5 13.5 0 1 0 -27 0zM1055.52 1404.94 a13.5 13.5 0 1 0 27 0 a13.5 13.5 0 1 0 -27 0zM1172.44 2147.44 a13.5 13.5 0 1 0 27 0 a13.5 13.5 0 1 0 -27 0zM1289.36 2214.94 a13.5 13.5 0 1 0 27 0 a13.5 13.5 0 1 0 -27 0zM1289.36 2349.94 a13.5 13.5 0 1 0 27 0 a13.5 13.5 0 1 0 -27 0zM1172.44 2417.44 a13.5 13.5 0 1 0 27 0 a13.5 13.5 0 1 0 -27 0zM1055.52 2349.94 a13.5 13.5 0 1 0 27 0 a13.5 13.5 0 1 0 -27 0zM1055.52 2214.94 a13.5 13.5 0 1 0 27 0 a13.5 13.5 0 1 0 -27 0zM1172.44 2552.44 a13.5 13.5 0 1 0 27 0 a13.5 13.5 0 1 0 -27 0zM1289.36 2619.94 a13.5 13.5 0 1 0 27 0 a13.5 13.5 0 1 0 -27 0zM1289.36 2754.94 a13.5 13.5 0 1 0 27 0 a13.5 13.5 0 1 0 -27 0zM1172.44 2822.44 a13.5 13.5 0 1 0 27 0 a13.5 13.5 0 1 0 -27 0zM1172.44 2957.44 a13.5 13.5 0 1 0 27 0 a13.5 13.5 0 1 0 -27 0zM1289.36 3024.94 a13.5 13.5 0 1 0 27 0 a13.5 13.5 0 1 0 -27 0zM1289.36 3159.94 a13.5 13.5 0 1 0 27 0 a13.5 13.5 0 1 0 -27 0zM1172.44 3227.44 a13.5 13.5 0 1 0 27 0 a13.5 13.5 0 1 0 -27 0zM1055.52 3564.94 a13.5 13.5 0 1 0 27 0 a13.5 13.5 0 1 0 -27 0zM1172.44 3632.44 a13.5 13.5 0 1 0 27 0 a13.5 13.5 0 1 0 -27 0zM1172.44 3767.44 a13.5 13.5 0 1 0 27 0 a13.5 13.5 0 1 0 -27 0zM1055.52 3834.94 a13.5 13.5 0 1 0 27 0 a13.5 13.5 0 1 0 -27 0zM938.61 3767.44 a13.5 13.5 0 1 0 27 0 a13.5 13.5 0 1 0 -27 0zM938.61 3632.44 a13.5 13.5 0 1 0 27 0 a13.5 13.5 0 1 0 -27 0zM1055.52 4779.94 a13.5 13.5 0 1 0 27 0 a13.5 13.5 0 1 0 -27 0zM1172.44 4847.44 a13.5 13.5 0 1 0 27 0 a13.5 13.5 0 1 0 -27 0zM1172.44 4982.44 a13.5 13.5 0 1 0 27 0 a13.5 13.5 0 1 0 -27 0zM938.61 4847.44 a13.5 13.5 0 1 0 27 0 a13.5 13.5 0 1 0 -27 0zM1055.52 6399.94 a13.5 13.5 0 1 0 27 0 a13.5 13.5 0 1 0 -27 0zM1172.44 6467.44 a13.5 13.5 0 1 0 27 0 a13.5 13.5 0 1 0 -27 0zM1172.44 6602.44 a13.5 13.5 0 1 0 27 0 a13.5 13.5 0 1 0 -27 0zM1055.52 6669.94 a13.5 13.5 0 1 0 27 0 a13.5 13.5 0 1 0 -27 0zM938.61 6602.44 a13.5 13.5 0 1 0 27 0 a13.5 13.5 0 1 0 -27 0zM938.61 6467.44 a13.5 13.5 0 1 0 27 0 a13.5 13.5 0 1 0 -27 0zM1289.36 6669.94 a13.5 13.5 0 1 0 27 0 a13.5 13.5 0 1 0 -27 0zM1289.36 6804.94 a13.5 13.5 0 1 0 27 0 a13.5 13.5 0 1 0 -27 0zM1172.44 6872.44 a13.5 13.5 0 1 0 27 0 a13.5 13.5 0 1 0 -27 0zM1055.52 6804.94 a13.5 13.5 0 1 0 27 0 a13.5 13.5 0 1 0 -27 0zM1172.44 7007.44 a13.5 13.5 0 1 0 27 0 a13.5 13.5 0 1 0 -27 0zM1055.52 7074.94 a13.5 13.5 0 1 0 27 0 a13.5 13.5 0 1 0 -27 0zM1406.27 122.44 a13.5 13.5 0 1 0 27 0 a13.5 13.5 0 1 0 -27 0zM1523.19 189.94 a13.5 13.5 0 1 0 27 0 a13.5 13.5 0 1 0 -27 0zM1523.19 324.94 a13.5 13.5 0 1 0 27 0 a13.5 13.5 0 1 0 -27 0zM1406.27 392.44 a13.5 13.5 0 1 0 27 0 a13.5 13.5 0 1 0 -27 0zM1289.36 324.94 a13.5 13.5 0 1 0 27 0 a13.5 13.5 0 1 0 -27 0zM1289.36 189.94 a13.5 13.5 0 1 0 27 0 a13.5 13.5 0 1 0 -27 0zM1406.27 527.44 a13.5 13.5 0 1 0 27 0 a13.5 13.5 0 1 0 -27 0zM1523.19 594.94 a13.5 13.5 0 1 0 27 0 a13.5 13.5 0 1 0 -27 0zM1523.19 729.94 a13.5 13.5 0 1 0 27 0 a13.5 13.5 0 1 0 -27 0zM1406.27 797.44 a13.5 13.5 0 1 0 27 0 a13.5 13.5 0 1 0 -27 0zM1289.36 729.94 a13.5 13.5 0 1 0 27 0 a13.5 13.5 0 1 0 -27 0zM1289.36 594.94 a13.5 13.5 0 1 0 27 0 a13.5 13.5 0 1 0 -27 0zM1406.27 932.44 a13.5 13.5 0 1 0 27 0 a13.5 13.5 0 1 0 -27 0zM1289.36 999.94 a13.5 13.5 0 1 0 27 0 a13.5 13.5 0 1 0 -27 0zM1523.19 999.94 a13.5 13.5 0 1 0 27 0 a13.5 13.5 0 1 0 -27 0zM1523.19 1134.94 a13.5 13.5 0 1 0 27 0 a13.5 13.5 0 1 0 -27 0zM1406.27 1202.44 a13.5 13.5 0 1 0 27 0 a13.5 13.5 0 1 0 -27 0zM1289.36 1134.94 a13.5 13.5 0 1 0 27 0 a13.5 13.5 0 1 0 -27 0zM1406.27 1337.44 a13.5 13.5 0 1 0 27 0 a13.5 13.5 0 1 0 -27 0zM1172.44 1202.44 a13.5 13.5 0 1 0 27 0 a13.5 13.5 0 1 0 -27 0zM1523.19 1404.94 a13.5 13.5 0 1 0 27 0 a13.5 13.5 0 1 0 -27 0zM1523.19 1539.94 a13.5 13.5 0 1 0 27 0 a13.5 13.5 0 1 0 -27 0zM1406.27 1607.44 a13.5 13.5 0 1 0 27 0 a13.5 13.5 0 1 0 -27 0zM1406.27 1742.44 a13.5 13.5 0 1 0 27 0 a13.5 13.5 0 1 0 -27 0zM1289.36 1809.94 a13.5 13.5 0 1 0 27 0 a13.5 13.5 0 1 0 -27 0zM1172.44 1742.44 a13.5 13.5 0 1 0 27 0 a13.5 13.5 0 1 0 -27 0zM1406.27 2147.44 a13.5 13.5 0 1 0 27 0 a13.5 13.5 0 1 0 -27 0zM1523.19 2214.94 a13.5 13.5 0 1 0 27 0 a13.5 13.5 0 1 0 -27 0zM1523.19 2349.94 a13.5 13.5 0 1 0 27 0 a13.5 13.5 0 1 0 -27 0zM1406.27 2417.44 a13.5 13.5 0 1 0 27 0 a13.5 13.5 0 1 0 -27 0zM1406.27 2552.44 a13.5 13.5 0 1 0 27 0 a13.5 13.5 0 1 0 -27 0zM1523.19 2619.94 a13.5 13.5 0 1 0 27 0 a13.5 13.5 0 1 0 -27 0zM1523.19 2754.94 a13.5 13.5 0 1 0 27 0 a13.5 13.5 0 1 0 -27 0zM1406.27 2822.44 a13.5 13.5 0 1 0 27 0 a13.5 13.5 0 1 0 -27 0zM1406.27 2957.44 a13.5 13.5 0 1 0 27 0 a13.5 13.5 0 1 0 -27 0zM1523.19 3024.94 a13.5 13.5 0 1 0 27 0 a13.5 13.5 0 1 0 -27 0zM1523.19 3159.94 a13.5 13.5 0 1 0 27 0 a13.5 13.5 0 1 0 -27 0zM1406.27 3227.44 a13.5 13.5 0 1 0 27 0 a13.5 13.5 0 1 0 -27 0zM1406.27 3362.44 a13.5 13.5 0 1 0 27 0 a13.5 13.5 0 1 0 -27 0zM1523.19 3429.94 a13.5 13.5 0 1 0 27 0 a13.5 13.5 0 1 0 -27 0zM1523.19 3564.94 a13.5 13.5 0 1 0 27 0 a13.5 13.5 0 1 0 -27 0zM1406.27 3632.44 a13.5 13.5 0 1 0 27 0 a13.5 13.5 0 1 0 -27 0zM1289.36 3564.94 a13.5 13.5 0 1 0 27 0 a13.5 13.5 0 1 0 -27 0zM1289.36 3429.94 a13.5 13.5 0 1 0 27 0 a13.5 13.5 0 1 0 -27 0zM1406.27 3767.44 a13.5 13.5 0 1 0 27 0 a13.5 13.5 0 1 0 -27 0zM1523.19 3834.94 a13.5 13.5 0 1 0 27 0 a13.5 13.5 0 1 0 -27 0zM1523.19 3969.94 a13.5 13.5 0 1 0 27 0 a13.5 13.5 0 1 0 -27 0zM1406.27 4037.44 a13.5 13.5 0 1 0 27 0 a13.5 13.5 0 1 0 -27 0zM1289.36 3969.94 a13.5 13.5 0 1 0 27 0 a13.5 13.5 0 1 0 -27 0zM1289.36 3834.94 a13.5 13.5 0 1 0 27 0 a13.5 13.5 0 1 0 -27 0zM1289.36 4374.94 a13.5 13.5 0 1 0 27 0 a13.5 13.5 0 1 0 -27 0zM1406.27 4442.44 a13.5 13.5 0 1 0 27 0 a13.5 13.5 0 1 0 -27 0zM1406.27 4577.44 a13.5 13.5 0 1 0 27 0 a13.5 13.5 0 1 0 -27 0zM1289.36 4644.94 a13.5 13.5 0 1 0 27 0 a13.5 13.5 0 1 0 -27 0zM1172.44 4577.44 a13.5 13.5 0 1 0 27 0 a13.5 13.5 0 1 0 -27 0zM1172.44 4442.44 a13.5 13.5 0 1 0 27 0 a13.5 13.5 0 1 0 -27 0zM1523.19 4644.94 a13.5 13.5 0 1 0 27 0 a13.5 13.5 0 1 0 -27 0zM1523.19 4779.94 a13.5 13.5 0 1 0 27 0 a13.5 13.5 0 1 0 -27 0zM1406.27 4847.44 a13.5 13.5 0 1 0 27 0 a13.5 13.5 0 1 0 -27 0zM1289.36 4779.94 a13.5 13.5 0 1 0 27 0 a13.5 13.5 0 1 0 -27 0zM1406.27 4982.44 a13.5 13.5 0 1 0 27 0 a13.5 13.5 0 1 0 -27 0zM1289.36 5049.94 a13.5 13.5 0 1 0 27 0 a13.5 13.5 0 1 0 -27 0zM1289.36 5184.94 a13.5 13.5 0 1 0 27 0 a13.5 13.5 0 1 0 -27 0zM1406.27 5252.44 a13.5 13.5 0 1 0 27 0 a13.5 13.5 0 1 0 -27 0zM1406.27 5387.44 a13.5 13.5 0 1 0 27 0 a13.5 13.5 0 1 0 -27 0zM1289.36 5454.94 a13.5 13.5 0 1 0 27 0 a13.5 13.5 0 1 0 -27 0zM1172.44 5387.44 a13.5 13.5 0 1 0 27 0 a13.5 13.5 0 1 0 -27 0zM1172.44 5252.44 a13.5 13.5 0 1 0 27 0 a13.5 13.5 0 1 0 -27 0zM1289.36 5589.94 a13.5 13.5 0 1 0 27 0 a13.5 13.5 0 1 0 -27 0zM1406.27 5657.44 a13.5 13.5 0 1 0 27 0 a13.5 13.5 0 1 0 -27 0zM1406.27 5792.44 a13.5 13.5 0 1 0 27 0 a13.5 13.5 0 1 0 -27 0zM1289.36 5859.94 a13.5 13.5 0 1 0 27 0 a13.5 13.5 0 1 0 -27 0zM1172.44 5792.44 a13.5 13.5 0 1 0 27 0 a13.5 13.5 0 1 0 -27 0zM1172.44 5657.44 a13.5 13.5 0 1 0 27 0 a13.5 13.5 0 1 0 -27 0zM1289.36 5994.94 a13.5 13.5 0 1 0 27 0 a13.5 13.5 0 1 0 -27 0zM1406.27 6062.44 a13.5 13.5 0 1 0 27 0 a13.5 13.5 0 1 0 -27 0zM1406.27 6197.44 a13.5 13.5 0 1 0 27 0 a13.5 13.5 0 1 0 -27 0zM1289.36 6264.94 a13.5 13.5 0 1 0 27 0 a13.5 13.5 0 1 0 -27 0zM1172.44 6197.44 a13.5 13.5 0 1 0 27 0 a13.5 13.5 0 1 0 -27 0zM1172.44 6062.44 a13.5 13.5 0 1 0 27 0 a13.5 13.5 0 1 0 -27 0zM1406.27 6602.44 a13.5 13.5 0 1 0 27 0 a13.5 13.5 0 1 0 -27 0zM1523.19 6669.94 a13.5 13.5 0 1 0 27 0 a13.5 13.5 0 1 0 -27 0zM1523.19 6804.94 a13.5 13.5 0 1 0 27 0 a13.5 13.5 0 1 0 -27 0zM1406.27 6872.44 a13.5 13.5 0 1 0 27 0 a13.5 13.5 0 1 0 -27 0zM1406.27 7007.44 a13.5 13.5 0 1 0 27 0 a13.5 13.5 0 1 0 -27 0zM1523.19 7074.94 a13.5 13.5 0 1 0 27 0 a13.5 13.5 0 1 0 -27 0zM1523.19 7209.94 a13.5 13.5 0 1 0 27 0 a13.5 13.5 0 1 0 -27 0zM1406.27 7277.44 a13.5 13.5 0 1 0 27 0 a13.5 13.5 0 1 0 -27 0zM1289.36 7209.94 a13.5 13.5 0 1 0 27 0 a13.5 13.5 0 1 0 -27 0zM1289.36 7074.94 a13.5 13.5 0 1 0 27 0 a13.5 13.5 0 1 0 -27 0zM1640.11 122.44 a13.5 13.5 0 1 0 27 0 a13.5 13.5 0 1 0 -27 0zM1757.02 189.94 a13.5 13.5 0 1 0 27 0 a13.5 13.5 0 1 0 -27 0zM1757.02 324.94 a13.5 13.5 0 1 0 27 0 a13.5 13.5 0 1 0 -27 0zM1640.11 392.44 a13.5 13.5 0 1 0 27 0 a13.5 13.5 0 1 0 -27 0zM1640.11 527.44 a13.5 13.5 0 1 0 27 0 a13.5 13.5 0 1 0 -27 0zM1757.02 594.94 a13.5 13.5 0 1 0 27 0 a13.5 13.5 0 1 0 -27 0zM1757.02 729.94 a13.5 13.5 0 1 0 27 0 a13.5 13.5 0 1 0 -27 0zM1640.11 797.44 a13.5 13.5 0 1 0 27 0 a13.5 13.5 0 1 0 -27 0zM1640.11 1607.44 a13.5 13.5 0 1 0 27 0 a13.5 13.5 0 1 0 -27 0zM1640.11 1742.44 a13.5 13.5 0 1 0 27 0 a13.5 13.5 0 1 0 -27 0zM1523.19 1809.94 a13.5 13.5 0 1 0 27 0 a13.5 13.5 0 1 0 -27 0zM1640.11 2147.44 a13.5 13.5 0 1 0 27 0 a13.5 13.5 0 1 0 -27 0zM1757.02 2214.94 a13.5 13.5 0 1 0 27 0 a13.5 13.5 0 1 0 -27 0zM1757.02 2349.94 a13.5 13.5 0 1 0 27 0 a13.5 13.5 0 1 0 -27 0zM1640.11 2417.44 a13.5 13.5 0 1 0 27 0 a13.5 13.5 0 1 0 -27 0zM1640.11 2957.44 a13.5 13.5 0 1 0 27 0 a13.5 13.5 0 1 0 -27 0zM1757.02 3024.94 a13.5 13.5 0 1 0 27 0 a13.5 13.5 0 1 0 -27 0zM1757.02 3159.94 a13.5 13.5 0 1 0 27 0 a13.5 13.5 0 1 0 -27 0zM1640.11 3227.44 a13.5 13.5 0 1 0 27 0 a13.5 13.5 0 1 0 -27 0zM1640.11 3362.44 a13.5 13.5 0 1 0 27 0 a13.5 13.5 0 1 0 -27 0zM1757.02 3429.94 a13.5 13.5 0 1 0 27 0 a13.5 13.5 0 1 0 -27 0zM1757.02 3564.94 a13.5 13.5 0 1 0 27 0 a13.5 13.5 0 1 0 -27 0zM1640.11 3632.44 a13.5 13.5 0 1 0 27 0 a13.5 13.5 0 1 0 -27 0zM1640.11 3767.44 a13.5 13.5 0 1 0 27 0 a13.5 13.5 0 1 0 -27 0zM1640.11 4847.44 a13.5 13.5 0 1 0 27 0 a13.5 13.5 0 1 0 -27 0zM1640.11 4982.44 a13.5 13.5 0 1 0 27 0 a13.5 13.5 0 1 0 -27 0zM1523.19 5049.94 a13.5 13.5 0 1 0 27 0 a13.5 13.5 0 1 0 -27 0zM1523.19 5184.94 a13.5 13.5 0 1 0 27 0 a13.5 13.5 0 1 0 -27 0zM1640.11 5252.44 a13.5 13.5 0 1 0 27 0 a13.5 13.5 0 1 0 -27 0zM1640.11 5387.44 a13.5 13.5 0 1 0 27 0 a13.5 13.5 0 1 0 -27 0zM1523.19 5454.94 a13.5 13.5 0 1 0 27 0 a13.5 13.5 0 1 0 -27 0zM1757.02 5454.94 a13.5 13.5 0 1 0 27 0 a13.5 13.5 0 1 0 -27 0zM1757.02 5589.94 a13.5 13.5 0 1 0 27 0 a13.5 13.5 0 1 0 -27 0zM1640.11 5657.44 a13.5 13.5 0 1 0 27 0 a13.5 13.5 0 1 0 -27 0zM1523.19 5589.94 a13.5 13.5 0 1 0 27 0 a13.5 13.5 0 1 0 -27 0zM1640.11 5792.44 a13.5 13.5 0 1 0 27 0 a13.5 13.5 0 1 0 -27 0zM1523.19 5859.94 a13.5 13.5 0 1 0 27 0 a13.5 13.5 0 1 0 -27 0zM1523.19 5994.94 a13.5 13.5 0 1 0 27 0 a13.5 13.5 0 1 0 -27 0zM1640.11 6062.44 a13.5 13.5 0 1 0 27 0 a13.5 13.5 0 1 0 -27 0zM1640.11 6197.44 a13.5 13.5 0 1 0 27 0 a13.5 13.5 0 1 0 -27 0zM1523.19 6264.94 a13.5 13.5 0 1 0 27 0 a13.5 13.5 0 1 0 -27 0zM1523.19 6399.94 a13.5 13.5 0 1 0 27 0 a13.5 13.5 0 1 0 -27 0zM1640.11 6467.44 a13.5 13.5 0 1 0 27 0 a13.5 13.5 0 1 0 -27 0zM1640.11 6602.44 a13.5 13.5 0 1 0 27 0 a13.5 13.5 0 1 0 -27 0zM1406.27 6467.44 a13.5 13.5 0 1 0 27 0 a13.5 13.5 0 1 0 -27 0zM1757.02 6669.94 a13.5 13.5 0 1 0 27 0 a13.5 13.5 0 1 0 -27 0zM1757.02 6804.94 a13.5 13.5 0 1 0 27 0 a13.5 13.5 0 1 0 -27 0zM1640.11 6872.44 a13.5 13.5 0 1 0 27 0 a13.5 13.5 0 1 0 -27 0zM1640.11 7007.44 a13.5 13.5 0 1 0 27 0 a13.5 13.5 0 1 0 -27 0zM1757.02 -80.06 a13.5 13.5 0 1 0 27 0 a13.5 13.5 0 1 0 -27 0zM1873.94 -12.56 a13.5 13.5 0 1 0 27 0 a13.5 13.5 0 1 0 -27 0zM1873.94 122.44 a13.5 13.5 0 1 0 27 0 a13.5 13.5 0 1 0 -27 0zM1640.11 -12.56 a13.5 13.5 0 1 0 27 0 a13.5 13.5 0 1 0 -27 0zM1873.94 932.44 a13.5 13.5 0 1 0 27 0 a13.5 13.5 0 1 0 -27 0zM1990.86 999.94 a13.5 13.5 0 1 0 27 0 a13.5 13.5 0 1 0 -27 0zM1990.86 1134.94 a13.5 13.5 0 1 0 27 0 a13.5 13.5 0 1 0 -27 0zM1873.94 1202.44 a13.5 13.5 0 1 0 27 0 a13.5 13.5 0 1 0 -27 0zM1757.02 1134.94 a13.5 13.5 0 1 0 27 0 a13.5 13.5 0 1 0 -27 0zM1757.02 999.94 a13.5 13.5 0 1 0 27 0 a13.5 13.5 0 1 0 -27 0zM1873.94 1337.44 a13.5 13.5 0 1 0 27 0 a13.5 13.5 0 1 0 -27 0zM1757.02 1404.94 a13.5 13.5 0 1 0 27 0 a13.5 13.5 0 1 0 -27 0zM1640.11 1337.44 a13.5 13.5 0 1 0 27 0 a13.5 13.5 0 1 0 -27 0zM1640.11 1202.44 a13.5 13.5 0 1 0 27 0 a13.5 13.5 0 1 0 -27 0zM1990.86 1404.94 a13.5 13.5 0 1 0 27 0 a13.5 13.5 0 1 0 -27 0zM1990.86 1539.94 a13.5 13.5 0 1 0 27 0 a13.5 13.5 0 1 0 -27 0zM1873.94 1607.44 a13.5 13.5 0 1 0 27 0 a13.5 13.5 0 1 0 -27 0zM1757.02 1539.94 a13.5 13.5 0 1 0 27 0 a13.5 13.5 0 1 0 -27 0zM1757.02 1944.94 a13.5 13.5 0 1 0 27 0 a13.5 13.5 0 1 0 -27 0zM1873.94 2012.44 a13.5 13.5 0 1 0 27 0 a13.5 13.5 0 1 0 -27 0zM1873.94 2147.44 a13.5 13.5 0 1 0 27 0 a13.5 13.5 0 1 0 -27 0zM1640.11 2012.44 a13.5 13.5 0 1 0 27 0 a13.5 13.5 0 1 0 -27 0zM1873.94 2417.44 a13.5 13.5 0 1 0 27 0 a13.5 13.5 0 1 0 -27 0zM1873.94 2552.44 a13.5 13.5 0 1 0 27 0 a13.5 13.5 0 1 0 -27 0zM1757.02 2619.94 a13.5 13.5 0 1 0 27 0 a13.5 13.5 0 1 0 -27 0zM1640.11 2552.44 a13.5 13.5 0 1 0 27 0 a13.5 13.5 0 1 0 -27 0zM1990.86 2619.94 a13.5 13.5 0 1 0 27 0 a13.5 13.5 0 1 0 -27 0zM1990.86 2754.94 a13.5 13.5 0 1 0 27 0 a13.5 13.5 0 1 0 -27 0zM1873.94 2822.44 a13.5 13.5 0 1 0 27 0 a13.5 13.5 0 1 0 -27 0zM1757.02 2754.94 a13.5 13.5 0 1 0 27 0 a13.5 13.5 0 1 0 -27 0zM1873.94 2957.44 a13.5 13.5 0 1 0 27 0 a13.5 13.5 0 1 0 -27 0zM1640.11 2822.44 a13.5 13.5 0 1 0 27 0 a13.5 13.5 0 1 0 -27 0zM1990.86 3024.94 a13.5 13.5 0 1 0 27 0 a13.5 13.5 0 1 0 -27 0zM1990.86 3159.94 a13.5 13.5 0 1 0 27 0 a13.5 13.5 0 1 0 -27 0zM1873.94 3227.44 a13.5 13.5 0 1 0 27 0 a13.5 13.5 0 1 0 -27 0zM1873.94 3362.44 a13.5 13.5 0 1 0 27 0 a13.5 13.5 0 1 0 -27 0zM1990.86 3429.94 a13.5 13.5 0 1 0 27 0 a13.5 13.5 0 1 0 -27 0zM1990.86 3564.94 a13.5 13.5 0 1 0 27 0 a13.5 13.5 0 1 0 -27 0zM1873.94 3632.44 a13.5 13.5 0 1 0 27 0 a13.5 13.5 0 1 0 -27 0zM1757.02 4374.94 a13.5 13.5 0 1 0 27 0 a13.5 13.5 0 1 0 -27 0zM1873.94 4442.44 a13.5 13.5 0 1 0 27 0 a13.5 13.5 0 1 0 -27 0zM1873.94 4577.44 a13.5 13.5 0 1 0 27 0 a13.5 13.5 0 1 0 -27 0zM1757.02 4644.94 a13.5 13.5 0 1 0 27 0 a13.5 13.5 0 1 0 -27 0zM1640.11 4577.44 a13.5 13.5 0 1 0 27 0 a13.5 13.5 0 1 0 -27 0zM1640.11 4442.44 a13.5 13.5 0 1 0 27 0 a13.5 13.5 0 1 0 -27 0zM1990.86 4644.94 a13.5 13.5 0 1 0 27 0 a13.5 13.5 0 1 0 -27 0zM1990.86 4779.94 a13.5 13.5 0 1 0 27 0 a13.5 13.5 0 1 0 -27 0zM1873.94 4847.44 a13.5 13.5 0 1 0 27 0 a13.5 13.5 0 1 0 -27 0zM1757.02 4779.94 a13.5 13.5 0 1 0 27 0 a13.5 13.5 0 1 0 -27 0zM1873.94 4982.44 a13.5 13.5 0 1 0 27 0 a13.5 13.5 0 1 0 -27 0zM1757.02 5049.94 a13.5 13.5 0 1 0 27 0 a13.5 13.5 0 1 0 -27 0zM1873.94 5792.44 a13.5 13.5 0 1 0 27 0 a13.5 13.5 0 1 0 -27 0zM1990.86 5859.94 a13.5 13.5 0 1 0 27 0 a13.5 13.5 0 1 0 -27 0zM1990.86 5994.94 a13.5 13.5 0 1 0 27 0 a13.5 13.5 0 1 0 -27 0zM1873.94 6062.44 a13.5 13.5 0 1 0 27 0 a13.5 13.5 0 1 0 -27 0zM1757.02 5994.94 a13.5 13.5 0 1 0 27 0 a13.5 13.5 0 1 0 -27 0zM1757.02 5859.94 a13.5 13.5 0 1 0 27 0 a13.5 13.5 0 1 0 -27 0zM1873.94 6197.44 a13.5 13.5 0 1 0 27 0 a13.5 13.5 0 1 0 -27 0zM1757.02 6264.94 a13.5 13.5 0 1 0 27 0 a13.5 13.5 0 1 0 -27 0zM1990.86 -80.06 a13.5 13.5 0 1 0 27 0 a13.5 13.5 0 1 0 -27 0zM2107.77 -12.56 a13.5 13.5 0 1 0 27 0 a13.5 13.5 0 1 0 -27 0zM2107.77 122.44 a13.5 13.5 0 1 0 27 0 a13.5 13.5 0 1 0 -27 0zM1990.86 189.94 a13.5 13.5 0 1 0 27 0 a13.5 13.5 0 1 0 -27 0zM2107.77 1202.44 a13.5 13.5 0 1 0 27 0 a13.5 13.5 0 1 0 -27 0zM2107.77 1337.44 a13.5 13.5 0 1 0 27 0 a13.5 13.5 0 1 0 -27 0zM2224.69 1404.94 a13.5 13.5 0 1 0 27 0 a13.5 13.5 0 1 0 -27 0zM2224.69 1539.94 a13.5 13.5 0 1 0 27 0 a13.5 13.5 0 1 0 -27 0zM2107.77 1607.44 a13.5 13.5 0 1 0 27 0 a13.5 13.5 0 1 0 -27 0zM1990.86 1944.94 a13.5 13.5 0 1 0 27 0 a13.5 13.5 0 1 0 -27 0zM2107.77 2012.44 a13.5 13.5 0 1 0 27 0 a13.5 13.5 0 1 0 -27 0zM2107.77 2147.44 a13.5 13.5 0 1 0 27 0 a13.5 13.5 0 1 0 -27 0zM1990.86 2214.94 a13.5 13.5 0 1 0 27 0 a13.5 13.5 0 1 0 -27 0zM2224.69 2214.94 a13.5 13.5 0 1 0 27 0 a13.5 13.5 0 1 0 -27 0zM2224.69 2349.94 a13.5 13.5 0 1 0 27 0 a13.5 13.5 0 1 0 -27 0zM2107.77 2417.44 a13.5 13.5 0 1 0 27 0 a13.5 13.5 0 1 0 -27 0zM1990.86 2349.94 a13.5 13.5 0 1 0 27 0 a13.5 13.5 0 1 0 -27 0zM2107.77 2552.44 a13.5 13.5 0 1 0 27 0 a13.5 13.5 0 1 0 -27 0zM2107.77 2822.44 a13.5 13.5 0 1 0 27 0 a13.5 13.5 0 1 0 -27 0zM2107.77 2957.44 a13.5 13.5 0 1 0 27 0 a13.5 13.5 0 1 0 -27 0zM2107.77 3362.44 a13.5 13.5 0 1 0 27 0 a13.5 13.5 0 1 0 -27 0zM2224.69 3429.94 a13.5 13.5 0 1 0 27 0 a13.5 13.5 0 1 0 -27 0zM2224.69 3564.94 a13.5 13.5 0 1 0 27 0 a13.5 13.5 0 1 0 -27 0zM2107.77 3632.44 a13.5 13.5 0 1 0 27 0 a13.5 13.5 0 1 0 -27 0zM2107.77 3767.44 a13.5 13.5 0 1 0 27 0 a13.5 13.5 0 1 0 -27 0zM1990.86 3834.94 a13.5 13.5 0 1 0 27 0 a13.5 13.5 0 1 0 -27 0zM1873.94 3767.44 a13.5 13.5 0 1 0 27 0 a13.5 13.5 0 1 0 -27 0zM1990.86 3969.94 a13.5 13.5 0 1 0 27 0 a13.5 13.5 0 1 0 -27 0zM2107.77 4037.44 a13.5 13.5 0 1 0 27 0 a13.5 13.5 0 1 0 -27 0zM2107.77 4172.44 a13.5 13.5 0 1 0 27 0 a13.5 13.5 0 1 0 -27 0zM1990.86 4239.94 a13.5 13.5 0 1 0 27 0 a13.5 13.5 0 1 0 -27 0zM1873.94 4172.44 a13.5 13.5 0 1 0 27 0 a13.5 13.5 0 1 0 -27 0zM1873.94 4037.44 a13.5 13.5 0 1 0 27 0 a13.5 13.5 0 1 0 -27 0zM1990.86 4374.94 a13.5 13.5 0 1 0 27 0 a13.5 13.5 0 1 0 -27 0zM2107.77 4442.44 a13.5 13.5 0 1 0 27 0 a13.5 13.5 0 1 0 -27 0zM2107.77 4577.44 a13.5 13.5 0 1 0 27 0 a13.5 13.5 0 1 0 -27 0zM2224.69 4644.94 a13.5 13.5 0 1 0 27 0 a13.5 13.5 0 1 0 -27 0zM2224.69 4779.94 a13.5 13.5 0 1 0 27 0 a13.5 13.5 0 1 0 -27 0zM2107.77 4847.44 a13.5 13.5 0 1 0 27 0 a13.5 13.5 0 1 0 -27 0zM1990.86 5184.94 a13.5 13.5 0 1 0 27 0 a13.5 13.5 0 1 0 -27 0zM2107.77 5252.44 a13.5 13.5 0 1 0 27 0 a13.5 13.5 0 1 0 -27 0zM2107.77 5387.44 a13.5 13.5 0 1 0 27 0 a13.5 13.5 0 1 0 -27 0zM1990.86 5454.94 a13.5 13.5 0 1 0 27 0 a13.5 13.5 0 1 0 -27 0zM1873.94 5387.44 a13.5 13.5 0 1 0 27 0 a13.5 13.5 0 1 0 -27 0zM1873.94 5252.44 a13.5 13.5 0 1 0 27 0 a13.5 13.5 0 1 0 -27 0zM1990.86 5589.94 a13.5 13.5 0 1 0 27 0 a13.5 13.5 0 1 0 -27 0zM2107.77 5657.44 a13.5 13.5 0 1 0 27 0 a13.5 13.5 0 1 0 -27 0zM2107.77 5792.44 a13.5 13.5 0 1 0 27 0 a13.5 13.5 0 1 0 -27 0zM1873.94 5657.44 a13.5 13.5 0 1 0 27 0 a13.5 13.5 0 1 0 -27 0zM2107.77 6062.44 a13.5 13.5 0 1 0 27 0 a13.5 13.5 0 1 0 -27 0zM2107.77 6197.44 a13.5 13.5 0 1 0 27 0 a13.5 13.5 0 1 0 -27 0zM1990.86 6264.94 a13.5 13.5 0 1 0 27 0 a13.5 13.5 0 1 0 -27 0zM2224.69 6264.94 a13.5 13.5 0 1 0 27 0 a13.5 13.5 0 1 0 -27 0zM2224.69 6399.94 a13.5 13.5 0 1 0 27 0 a13.5 13.5 0 1 0 -27 0zM2107.77 6467.44 a13.5 13.5 0 1 0 27 0 a13.5 13.5 0 1 0 -27 0zM1990.86 6399.94 a13.5 13.5 0 1 0 27 0 a13.5 13.5 0 1 0 -27 0zM2107.77 6602.44 a13.5 13.5 0 1 0 27 0 a13.5 13.5 0 1 0 -27 0zM2224.69 6669.94 a13.5 13.5 0 1 0 27 0 a13.5 13.5 0 1 0 -27 0zM2224.69 6804.94 a13.5 13.5 0 1 0 27 0 a13.5 13.5 0 1 0 -27 0zM2107.77 6872.44 a13.5 13.5 0 1 0 27 0 a13.5 13.5 0 1 0 -27 0zM1990.86 6804.94 a13.5 13.5 0 1 0 27 0 a13.5 13.5 0 1 0 -27 0zM1990.86 6669.94 a13.5 13.5 0 1 0 27 0 a13.5 13.5 0 1 0 -27 0zM2107.77 7007.44 a13.5 13.5 0 1 0 27 0 a13.5 13.5 0 1 0 -27 0zM1990.86 7074.94 a13.5 13.5 0 1 0 27 0 a13.5 13.5 0 1 0 -27 0zM1873.94 7007.44 a13.5 13.5 0 1 0 27 0 a13.5 13.5 0 1 0 -27 0zM1873.94 6872.44 a13.5 13.5 0 1 0 27 0 a13.5 13.5 0 1 0 -27 0zM2224.69 7074.94 a13.5 13.5 0 1 0 27 0 a13.5 13.5 0 1 0 -27 0zM2224.69 7209.94 a13.5 13.5 0 1 0 27 0 a13.5 13.5 0 1 0 -27 0zM2107.77 7277.44 a13.5 13.5 0 1 0 27 0 a13.5 13.5 0 1 0 -27 0zM1990.86 7209.94 a13.5 13.5 0 1 0 27 0 a13.5 13.5 0 1 0 -27 0z" fill="url(&quot;#SvgjsLinearGradient3484&quot;)"></path><path d="M226.13 1840.22L349.97 1911.72L349.97 2054.72L226.13 2126.22L102.28 2054.72L102.28 1911.72zM102.28 2054.72L226.13 2126.22L226.13 2269.22L102.28 2340.72L-21.57 2269.22L-21.57 2126.22zM226.13 2269.22L349.97 2340.72L349.97 2483.72L226.13 2555.22L102.28 2483.72L102.28 2340.72zM102.28 2483.72L226.13 2555.22L226.13 2698.22L102.28 2769.72L-21.57 2698.22L-21.57 2555.22zM102.28 2912.72L226.13 2984.22L226.13 3127.22L102.28 3198.72L-21.57 3127.22L-21.57 2984.22zM102.28 3341.72L226.13 3413.22L226.13 3556.22L102.28 3627.72L-21.57 3556.22L-21.57 3413.22zM102.28 3770.72L226.13 3842.22L226.13 3985.22L102.28 4056.72L-21.57 3985.22L-21.57 3842.22zM226.13 3985.22L349.97 4056.72L349.97 4199.72L226.13 4271.22L102.28 4199.72L102.28 4056.72zM102.28 4628.72L226.13 4700.22L226.13 4843.22L102.28 4914.72L-21.57 4843.22L-21.57 4700.22zM226.13 5272.22L349.97 5343.72L349.97 5486.72L226.13 5558.22L102.28 5486.72L102.28 5343.72zM102.28 5486.72L226.13 5558.22L226.13 5701.22L102.28 5772.72L-21.57 5701.22L-21.57 5558.22zM226.13 5701.22L349.97 5772.72L349.97 5915.72L226.13 5987.22L102.28 5915.72L102.28 5772.72zM102.28 5915.72L226.13 5987.22L226.13 6130.22L102.28 6201.72L-21.57 6130.22L-21.57 5987.22zM226.13 6559.22L349.97 6630.72L349.97 6773.72L226.13 6845.22L102.28 6773.72L102.28 6630.72zM349.97 -90.28L473.82 -18.78L473.82 124.22L349.97 195.72L226.13 124.22L226.13 -18.78zM473.82 124.22L597.66 195.72L597.66 338.72L473.82 410.22L349.97 338.72L349.97 195.72zM473.82 553.22L597.66 624.72L597.66 767.72L473.82 839.22L349.97 767.72L349.97 624.72zM349.97 767.72L473.82 839.22L473.82 982.22L349.97 1053.72L226.13 982.22L226.13 839.22zM473.82 982.22L597.66 1053.72L597.66 1196.72L473.82 1268.22L349.97 1196.72L349.97 1053.72zM473.82 2269.22L597.66 2340.72L597.66 2483.72L473.82 2555.22L349.97 2483.72L349.97 2340.72zM473.82 2698.22L597.66 2769.72L597.66 2912.72L473.82 2984.22L349.97 2912.72L349.97 2769.72zM349.97 3341.72L473.82 3413.22L473.82 3556.22L349.97 3627.72L226.13 3556.22L226.13 3413.22zM349.97 3770.72L473.82 3842.22L473.82 3985.22L349.97 4056.72L226.13 3985.22L226.13 3842.22zM473.82 3985.22L597.66 4056.72L597.66 4199.72L473.82 4271.22L349.97 4199.72L349.97 4056.72zM349.97 4199.72L473.82 4271.22L473.82 4414.22L349.97 4485.72L226.13 4414.22L226.13 4271.22zM473.82 4843.22L597.66 4914.72L597.66 5057.72L473.82 5129.22L349.97 5057.72L349.97 4914.72zM349.97 6344.72L473.82 6416.22L473.82 6559.22L349.97 6630.72L226.13 6559.22L226.13 6416.22zM473.82 6559.22L597.66 6630.72L597.66 6773.72L473.82 6845.22L349.97 6773.72L349.97 6630.72zM597.66 338.72L721.51 410.22L721.51 553.22L597.66 624.72L473.82 553.22L473.82 410.22zM721.51 982.22L845.35 1053.72L845.35 1196.72L721.51 1268.22L597.66 1196.72L597.66 1053.72zM721.51 1840.22L845.35 1911.72L845.35 2054.72L721.51 2126.22L597.66 2054.72L597.66 1911.72zM597.66 2054.72L721.51 2126.22L721.51 2269.22L597.66 2340.72L473.82 2269.22L473.82 2126.22zM597.66 5057.72L721.51 5129.22L721.51 5272.22L597.66 5343.72L473.82 5272.22L473.82 5129.22zM721.51 5272.22L845.35 5343.72L845.35 5486.72L721.51 5558.22L597.66 5486.72L597.66 5343.72zM597.66 5486.72L721.51 5558.22L721.51 5701.22L597.66 5772.72L473.82 5701.22L473.82 5558.22zM721.51 5701.22L845.35 5772.72L845.35 5915.72L721.51 5987.22L597.66 5915.72L597.66 5772.72zM721.51 6130.22L845.35 6201.72L845.35 6344.72L721.51 6416.22L597.66 6344.72L597.66 6201.72zM721.51 6559.22L845.35 6630.72L845.35 6773.72L721.51 6845.22L597.66 6773.72L597.66 6630.72zM845.35 -90.28L969.2 -18.78L969.2 124.22L845.35 195.72L721.51 124.22L721.51 -18.78zM969.2 124.22L1093.04 195.72L1093.04 338.72L969.2 410.22L845.35 338.72L845.35 195.72zM969.2 553.22L1093.04 624.72L1093.04 767.72L969.2 839.22L845.35 767.72L845.35 624.72zM845.35 1196.72L969.2 1268.22L969.2 1411.22L845.35 1482.72L721.51 1411.22L721.51 1268.22zM969.2 1840.22L1093.04 1911.72L1093.04 2054.72L969.2 2126.22L845.35 2054.72L845.35 1911.72zM845.35 2054.72L969.2 2126.22L969.2 2269.22L845.35 2340.72L721.51 2269.22L721.51 2126.22zM969.2 2269.22L1093.04 2340.72L1093.04 2483.72L969.2 2555.22L845.35 2483.72L845.35 2340.72zM845.35 2483.72L969.2 2555.22L969.2 2698.22L845.35 2769.72L721.51 2698.22L721.51 2555.22zM969.2 2698.22L1093.04 2769.72L1093.04 2912.72L969.2 2984.22L845.35 2912.72L845.35 2769.72zM969.2 3127.22L1093.04 3198.72L1093.04 3341.72L969.2 3413.22L845.35 3341.72L845.35 3198.72zM845.35 4199.72L969.2 4271.22L969.2 4414.22L845.35 4485.72L721.51 4414.22L721.51 4271.22zM969.2 4414.22L1093.04 4485.72L1093.04 4628.72L969.2 4700.22L845.35 4628.72L845.35 4485.72zM969.2 4843.22L1093.04 4914.72L1093.04 5057.72L969.2 5129.22L845.35 5057.72L845.35 4914.72zM845.35 5057.72L969.2 5129.22L969.2 5272.22L845.35 5343.72L721.51 5272.22L721.51 5129.22zM969.2 5272.22L1093.04 5343.72L1093.04 5486.72L969.2 5558.22L845.35 5486.72L845.35 5343.72zM845.35 5915.72L969.2 5987.22L969.2 6130.22L845.35 6201.72L721.51 6130.22L721.51 5987.22zM969.2 6559.22L1093.04 6630.72L1093.04 6773.72L969.2 6845.22L845.35 6773.72L845.35 6630.72zM969.2 6988.22L1093.04 7059.72L1093.04 7202.72L969.2 7274.22L845.35 7202.72L845.35 7059.72zM1093.04 -90.28L1216.89 -18.78L1216.89 124.22L1093.04 195.72L969.2 124.22L969.2 -18.78zM1093.04 1196.72L1216.89 1268.22L1216.89 1411.22L1093.04 1482.72L969.2 1411.22L969.2 1268.22zM1216.89 1411.22L1340.73 1482.72L1340.73 1625.72L1216.89 1697.22L1093.04 1625.72L1093.04 1482.72zM1093.04 1625.72L1216.89 1697.22L1216.89 1840.22L1093.04 1911.72L969.2 1840.22L969.2 1697.22zM1093.04 2054.72L1216.89 2126.22L1216.89 2269.22L1093.04 2340.72L969.2 2269.22L969.2 2126.22zM1216.89 2269.22L1340.73 2340.72L1340.73 2483.72L1216.89 2555.22L1093.04 2483.72L1093.04 2340.72zM1093.04 2483.72L1216.89 2555.22L1216.89 2698.22L1093.04 2769.72L969.2 2698.22L969.2 2555.22zM1216.89 2698.22L1340.73 2769.72L1340.73 2912.72L1216.89 2984.22L1093.04 2912.72L1093.04 2769.72zM1216.89 3127.22L1340.73 3198.72L1340.73 3341.72L1216.89 3413.22L1093.04 3341.72L1093.04 3198.72zM1216.89 3556.22L1340.73 3627.72L1340.73 3770.72L1216.89 3842.22L1093.04 3770.72L1093.04 3627.72zM1093.04 3770.72L1216.89 3842.22L1216.89 3985.22L1093.04 4056.72L969.2 3985.22L969.2 3842.22zM1216.89 4414.22L1340.73 4485.72L1340.73 4628.72L1216.89 4700.22L1093.04 4628.72L1093.04 4485.72zM1216.89 4843.22L1340.73 4914.72L1340.73 5057.72L1216.89 5129.22L1093.04 5057.72L1093.04 4914.72zM1216.89 5272.22L1340.73 5343.72L1340.73 5486.72L1216.89 5558.22L1093.04 5486.72L1093.04 5343.72zM1093.04 5486.72L1216.89 5558.22L1216.89 5701.22L1093.04 5772.72L969.2 5701.22L969.2 5558.22zM1216.89 5701.22L1340.73 5772.72L1340.73 5915.72L1216.89 5987.22L1093.04 5915.72L1093.04 5772.72zM1340.73 -90.28L1464.58 -18.78L1464.58 124.22L1340.73 195.72L1216.89 124.22L1216.89 -18.78zM1464.58 124.22L1588.42 195.72L1588.42 338.72L1464.58 410.22L1340.73 338.72L1340.73 195.72zM1340.73 767.72L1464.58 839.22L1464.58 982.22L1340.73 1053.72L1216.89 982.22L1216.89 839.22zM1464.58 982.22L1588.42 1053.72L1588.42 1196.72L1464.58 1268.22L1340.73 1196.72L1340.73 1053.72zM1464.58 1411.22L1588.42 1482.72L1588.42 1625.72L1464.58 1697.22L1340.73 1625.72L1340.73 1482.72zM1464.58 2698.22L1588.42 2769.72L1588.42 2912.72L1464.58 2984.22L1340.73 2912.72L1340.73 2769.72zM1340.73 2912.72L1464.58 2984.22L1464.58 3127.22L1340.73 3198.72L1216.89 3127.22L1216.89 2984.22zM1464.58 3556.22L1588.42 3627.72L1588.42 3770.72L1464.58 3842.22L1340.73 3770.72L1340.73 3627.72zM1464.58 6130.22L1588.42 6201.72L1588.42 6344.72L1464.58 6416.22L1340.73 6344.72L1340.73 6201.72zM1340.73 6344.72L1464.58 6416.22L1464.58 6559.22L1340.73 6630.72L1216.89 6559.22L1216.89 6416.22zM1340.73 6773.72L1464.58 6845.22L1464.58 6988.22L1340.73 7059.72L1216.89 6988.22L1216.89 6845.22zM1712.27 982.22L1836.11 1053.72L1836.11 1196.72L1712.27 1268.22L1588.42 1196.72L1588.42 1053.72zM1712.27 1411.22L1836.11 1482.72L1836.11 1625.72L1712.27 1697.22L1588.42 1625.72L1588.42 1482.72zM1588.42 1625.72L1712.27 1697.22L1712.27 1840.22L1588.42 1911.72L1464.58 1840.22L1464.58 1697.22zM1588.42 2054.72L1712.27 2126.22L1712.27 2269.22L1588.42 2340.72L1464.58 2269.22L1464.58 2126.22zM1712.27 2269.22L1836.11 2340.72L1836.11 2483.72L1712.27 2555.22L1588.42 2483.72L1588.42 2340.72zM1712.27 3127.22L1836.11 3198.72L1836.11 3341.72L1712.27 3413.22L1588.42 3341.72L1588.42 3198.72zM1588.42 3341.72L1712.27 3413.22L1712.27 3556.22L1588.42 3627.72L1464.58 3556.22L1464.58 3413.22zM1712.27 3556.22L1836.11 3627.72L1836.11 3770.72L1712.27 3842.22L1588.42 3770.72L1588.42 3627.72zM1588.42 3770.72L1712.27 3842.22L1712.27 3985.22L1588.42 4056.72L1464.58 3985.22L1464.58 3842.22zM1588.42 4199.72L1712.27 4271.22L1712.27 4414.22L1588.42 4485.72L1464.58 4414.22L1464.58 4271.22zM1588.42 4628.72L1712.27 4700.22L1712.27 4843.22L1588.42 4914.72L1464.58 4843.22L1464.58 4700.22zM1712.27 6130.22L1836.11 6201.72L1836.11 6344.72L1712.27 6416.22L1588.42 6344.72L1588.42 6201.72zM1588.42 6344.72L1712.27 6416.22L1712.27 6559.22L1588.42 6630.72L1464.58 6559.22L1464.58 6416.22zM1588.42 6773.72L1712.27 6845.22L1712.27 6988.22L1588.42 7059.72L1464.58 6988.22L1464.58 6845.22zM1959.96 124.22L2083.8 195.72L2083.8 338.72L1959.96 410.22L1836.11 338.72L1836.11 195.72zM1836.11 338.72L1959.96 410.22L1959.96 553.22L1836.11 624.72L1712.27 553.22L1712.27 410.22zM1959.96 1411.22L2083.8 1482.72L2083.8 1625.72L1959.96 1697.22L1836.11 1625.72L1836.11 1482.72zM1836.11 1625.72L1959.96 1697.22L1959.96 1840.22L1836.11 1911.72L1712.27 1840.22L1712.27 1697.22zM1836.11 2054.72L1959.96 2126.22L1959.96 2269.22L1836.11 2340.72L1712.27 2269.22L1712.27 2126.22zM1836.11 3341.72L1959.96 3413.22L1959.96 3556.22L1836.11 3627.72L1712.27 3556.22L1712.27 3413.22zM1959.96 3556.22L2083.8 3627.72L2083.8 3770.72L1959.96 3842.22L1836.11 3770.72L1836.11 3627.72zM1959.96 3985.22L2083.8 4056.72L2083.8 4199.72L1959.96 4271.22L1836.11 4199.72L1836.11 4056.72zM1959.96 4843.22L2083.8 4914.72L2083.8 5057.72L1959.96 5129.22L1836.11 5057.72L1836.11 4914.72zM1836.11 5057.72L1959.96 5129.22L1959.96 5272.22L1836.11 5343.72L1712.27 5272.22L1712.27 5129.22zM1959.96 5272.22L2083.8 5343.72L2083.8 5486.72L1959.96 5558.22L1836.11 5486.72L1836.11 5343.72zM1836.11 5486.72L1959.96 5558.22L1959.96 5701.22L1836.11 5772.72L1712.27 5701.22L1712.27 5558.22zM1836.11 5915.72L1959.96 5987.22L1959.96 6130.22L1836.11 6201.72L1712.27 6130.22L1712.27 5987.22zM1959.96 6559.22L2083.8 6630.72L2083.8 6773.72L1959.96 6845.22L1836.11 6773.72L1836.11 6630.72z" stroke="url(&quot;#SvgjsLinearGradient3485&quot;)" stroke-width="2"></path></g><defs><mask id="SvgjsMask3482"><rect width="1920" height="7000" fill="#ffffff"></rect></mask><linearGradient x1="-66.15%" y1="18.14%" x2="166.15%" y2="81.86%" gradientUnits="userSpaceOnUse" id="SvgjsLinearGradient3483"><stop stop-color="rgba(2, 58, 67, 1)" offset="0"></stop><stop stop-color="rgba(0, 36, 37, 1)" offset="1"></stop></linearGradient><linearGradient x1="-1270.0800000000002" y1="1269.8" x2="3190.08" y2="5730.2" gradientUnits="userSpaceOnUse" id="SvgjsLinearGradient3484"><stop stop-color="rgba(3, 54, 64, 1)" offset="0"></stop><stop stop-color="rgba(7, 77, 89, 1)" offset="1"></stop></linearGradient><linearGradient x1="-1270.0800000000002" y1="1269.8" x2="3190.08" y2="5730.2" gradientUnits="userSpaceOnUse" id="SvgjsLinearGradient3485"><stop stop-color="#0e2a47" offset="0"></stop><stop stop-color="rgba(9, 71, 82, 1)" offset="1"></stop></linearGradient></defs></svg>