<?xml version="1.0"?>
<svg width="290" height="100" xmlns="http://www.w3.org/2000/svg" xmlns:svg="http://www.w3.org/2000/svg" xmlns:xlink="http://www.w3.org/1999/xlink" version="1.0">
 <metadata id="metadata16">image/svg+xml</metadata>
 <defs id="defs4">
  <symbol height="70" id="svg_1" viewBox="0 0 200 70" width="200" xmlns="http://www.w3.org/2000/svg">
   <path clip-rule="evenodd" d="m6.92,37.77c0.02,2.21 0.16,3.99 0.4,5.35c0.46,2.56 1.39,2.92 3.92,3.29c1.36,0.21 2.97,0.33 5.02,0.37c1.13,0.02 2.24,0.01 3.37,0c1.95,-0.03 3.54,-0.1 4.79,-0.21c1.5,-0.13 2.49,-0.32 2.95,-0.55c0.97,-0.49 1.41,-1.36 1.41,-2.66l0,-3.28l6.92,0l-0.01,3.3c0,3.4 -1,6.3 -3.49,7.87c-1.12,0.71 -2.91,1.22 -5.36,1.55c-1.81,0.25 -4,0.39 -6.57,0.45c-1.5,0.03 -2.98,0.03 -4.48,-0.01c-2.77,-0.07 -5.1,-0.28 -7,-0.64c-0.81,-0.15 -1.54,-0.33 -2.21,-0.53c-1.4,-0.44 -2.5,-1.01 -3.27,-1.7c-2.05,-1.84 -3.15,-5.85 -3.29,-12.02c-0.03,-1.31 -0.02,-2.6 0.03,-3.91c0.1,-2.33 0.33,-4.32 0.7,-5.95c0.17,-0.76 0.37,-1.44 0.6,-2.06c0.65,-1.72 1.57,-3.02 3.13,-3.89c0.43,-0.24 0.92,-0.46 1.46,-0.66c2.6,-0.95 6.59,-1.42 11.97,-1.42c7.41,0 12.18,0.67 14.31,2c2.93,1.84 3.48,5.07 3.48,8.21l0,2.99l-6.92,0l0.01,-3.01c-0.01,-2.94 -1.94,-3.2 -4.32,-3.43c-1.24,-0.12 -2.79,-0.19 -4.62,-0.22c-1.26,-0.02 -2.5,-0.02 -3.76,0.01c-2.06,0.04 -3.75,0.15 -5.07,0.35c-2.56,0.37 -3.24,0.7 -3.7,3.29c-0.2,1.15 -0.33,2.61 -0.38,4.38c-0.02,0.92 -0.03,1.83 -0.02,2.74z" fill="white" fill-rule="evenodd" id="svg_3"/>
   <path clip-rule="evenodd" d="m38.58,20.89l30.76,0l1.27,0l0,1.26l0,3.96l0,1.26l-1.27,0l-11.9,0l0,24.21l0,1.26l-1.26,0l-4.39,0l-1.26,0l0,-1.26l0,-24.21l-11.95,0l-1.26,0l0,-1.26l0,-3.96l0,-1.26l1.26,0z" fill="white" fill-rule="evenodd" id="svg_15"/>
   <path clip-rule="evenodd" d="m73.97,20.89l28.18,0l1.26,0l0,1.26l0,3.96l0,1.27l-1.26,0l-22.53,0l0,6.03l21.71,0l1.26,0l0,1.26l0,3.96l0,1.26l-1.26,0l-21.71,0l0,6.47l22.53,0l1.26,0l0,1.26l0,3.96l0,1.26l-1.26,0l-28.18,0l-1.27,0l0,-1.26l0,-29.43l0,-1.26l1.27,0z" fill="white" fill-rule="evenodd" id="svg_19"/>
   <path clip-rule="evenodd" d="m105.84,51.58l0,-29.43l0,-1.26l1.27,0l24,0c1.45,0 2.77,0.22 3.93,0.66c1.21,0.46 2.24,1.14 3.12,2.06l0,0.01c0.25,0.25 0.48,0.53 0.69,0.83c0.22,0.31 0.41,0.62 0.58,0.93l0,0.01c0.86,1.62 1.29,3.67 1.29,6.14c0,3.5 -0.87,6.14 -2.62,7.92l-0.01,0.01l0,0.01l-0.01,-0.01c-0.24,0.25 -0.5,0.48 -0.77,0.7c-0.3,0.23 -0.59,0.43 -0.87,0.6l0,0c-1.52,0.91 -3.35,1.37 -5.5,1.37l-18.19,0l0,9.45l0,1.26l-1.26,0l-4.38,0l-1.27,0l0,-1.26zm6.92,-15.94l18.18,0c0.46,0 0.86,-0.07 1.2,-0.21c0.33,-0.14 0.61,-0.35 0.85,-0.63l0.01,-0.01l0,0c0.07,-0.08 0.13,-0.16 0.19,-0.25c0.05,-0.09 0.11,-0.19 0.16,-0.3c0.3,-0.65 0.46,-1.55 0.46,-2.71l0,-0.01l0,0c0,-0.81 -0.08,-1.51 -0.24,-2.09c-0.03,-0.13 -0.06,-0.22 -0.07,-0.26l0,0c-0.13,-0.38 -0.3,-0.7 -0.5,-0.94c-0.23,-0.28 -0.51,-0.49 -0.84,-0.63c-0.35,-0.15 -0.77,-0.22 -1.26,-0.22l-18.14,0l0,8.26z" fill="white" fill-rule="evenodd" id="svg_20"/>
   <path clip-rule="evenodd" d="m135.98,15.31c6.67,3.18 11.54,10.06 9.54,19.73c-1.19,5.74 -4.99,9.84 -8.65,13.7l1.88,0.01l40.19,-39.38l-10.23,4.58c-0.98,3.14 -2.53,5.36 -4.7,6.54c-3.49,1.91 -6.75,0.5 -9.6,-1.96l-21.43,-18.53l3,15.31z" fill="#0DBCDA" fill-rule="evenodd" id="svg_21"/>
   <path clip-rule="evenodd" d="m161.07,29.47l9.61,-9.36l9.88,0.01l-14.64,13.96l-4.85,-4.61z" fill="white" fill-rule="evenodd" id="svg_22"/>
   <path clip-rule="evenodd" d="m159.31,31.12l22.26,21.72l-9.56,0l-12.69,-12.62l-12.64,12.62l-9.43,0l22.06,-21.72zm14.43,17.24c0.75,0 1.36,0.61 1.36,1.36c0,0.76 -0.61,1.37 -1.36,1.37c-0.75,0 -1.36,-0.61 -1.36,-1.37c0,-0.75 0.61,-1.36 1.36,-1.36zm-28.92,0c0.75,0 1.36,0.61 1.36,1.36c0,0.76 -0.61,1.37 -1.36,1.37c-0.76,0 -1.37,-0.61 -1.37,-1.37c0,-0.75 0.61,-1.36 1.37,-1.36zm14.59,-13.44c0.75,0 1.37,0.61 1.37,1.36c0,0.76 -0.62,1.37 -1.37,1.37c-0.75,0 -1.36,-0.61 -1.36,-1.37c0,-0.75 0.61,-1.36 1.36,-1.36z" fill="white" fill-rule="evenodd" id="svg_23"/>
   <path clip-rule="evenodd" d="m187.48,28.19l0,-7.12l-2.66,0l0,-0.96l6.41,0l0,0.96l-2.68,0l0,7.12l-1.07,0zm4.81,0l0,-8.08l1.61,0l1.91,5.72c0.18,0.54 0.31,0.93 0.39,1.2c0.09,-0.29 0.23,-0.73 0.43,-1.3l1.93,-5.62l1.44,0l0,8.08l-1.03,0l0,-6.76l-2.35,6.76l-0.96,0l-2.34,-6.88l0,6.88l-1.03,0z" fill="white" fill-rule="evenodd" id="svg_24"/>
   <path clip-rule="evenodd" d="m7.38,65.09c0,0.1 -0.01,0.18 -0.01,0.25c-0.01,0.07 -0.02,0.13 -0.03,0.17c-0.02,0.05 -0.03,0.1 -0.05,0.13c-0.02,0.04 -0.07,0.09 -0.14,0.16c-0.07,0.07 -0.19,0.16 -0.35,0.26c-0.17,0.1 -0.36,0.19 -0.57,0.27c-0.2,0.09 -0.43,0.15 -0.68,0.2c-0.24,0.05 -0.5,0.08 -0.76,0.08c-0.54,0 -1.02,-0.09 -1.44,-0.27c-0.41,-0.18 -0.76,-0.44 -1.05,-0.78c-0.28,-0.35 -0.49,-0.77 -0.64,-1.26c-0.15,-0.5 -0.22,-1.08 -0.22,-1.73c0,-0.74 0.09,-1.38 0.27,-1.91c0.18,-0.53 0.43,-0.97 0.75,-1.31c0.31,-0.34 0.68,-0.59 1.11,-0.76c0.42,-0.16 0.88,-0.24 1.38,-0.24c0.24,0 0.47,0.02 0.7,0.06c0.22,0.05 0.43,0.11 0.62,0.18c0.19,0.07 0.36,0.16 0.51,0.25c0.14,0.09 0.25,0.17 0.32,0.24c0.07,0.07 0.11,0.12 0.14,0.16c0.02,0.04 0.04,0.08 0.06,0.14c0.02,0.05 0.03,0.11 0.03,0.18c0.01,0.06 0.01,0.15 0.01,0.25c0,0.22 -0.02,0.37 -0.07,0.45c-0.05,0.09 -0.11,0.13 -0.19,0.13c-0.08,0 -0.18,-0.04 -0.29,-0.13c-0.1,-0.1 -0.24,-0.2 -0.41,-0.31c-0.17,-0.11 -0.37,-0.21 -0.61,-0.3c-0.23,-0.1 -0.51,-0.14 -0.84,-0.14c-0.66,0 -1.17,0.25 -1.52,0.76c-0.35,0.51 -0.53,1.25 -0.53,2.22c0,0.49 0.04,0.91 0.14,1.28c0.09,0.36 0.22,0.67 0.4,0.91c0.18,0.25 0.4,0.43 0.66,0.55c0.26,0.12 0.55,0.18 0.89,0.18c0.31,0 0.59,-0.05 0.83,-0.15c0.24,-0.1 0.45,-0.21 0.63,-0.33c0.17,-0.12 0.32,-0.23 0.44,-0.33c0.12,-0.09 0.21,-0.14 0.28,-0.14c0.04,0 0.07,0.01 0.1,0.03c0.03,0.02 0.05,0.06 0.07,0.11c0.02,0.06 0.03,0.12 0.04,0.2c0.01,0.09 0.02,0.18 0.02,0.29z" fill="white" fill-rule="evenodd" id="svg_25"/>
   <path clip-rule="evenodd" d="m14.91,59.12c0,0.12 -0.01,0.21 -0.02,0.29c-0.01,0.08 -0.03,0.14 -0.06,0.19c-0.02,0.05 -0.05,0.09 -0.08,0.11c-0.03,0.03 -0.08,0.04 -0.13,0.04l-2.26,0l0,6.49c0,0.04 -0.01,0.08 -0.03,0.11c-0.02,0.03 -0.06,0.06 -0.11,0.08c-0.05,0.02 -0.12,0.04 -0.21,0.05c-0.09,0.01 -0.2,0.02 -0.34,0.02c-0.13,0 -0.25,-0.01 -0.33,-0.02c-0.09,-0.01 -0.16,-0.03 -0.22,-0.05c-0.05,-0.02 -0.09,-0.05 -0.11,-0.08c-0.02,-0.03 -0.02,-0.07 -0.02,-0.11l0,-6.49l-2.26,0c-0.05,0 -0.09,-0.01 -0.12,-0.04c-0.04,-0.02 -0.07,-0.06 -0.09,-0.11c-0.02,-0.05 -0.04,-0.12 -0.05,-0.2c-0.02,-0.08 -0.03,-0.17 -0.03,-0.28c0,-0.11 0.01,-0.2 0.03,-0.27c0.01,-0.08 0.03,-0.14 0.05,-0.2c0.03,-0.05 0.06,-0.09 0.09,-0.12c0.04,-0.02 0.07,-0.03 0.12,-0.03l5.89,0c0.05,0 0.09,0.01 0.12,0.03c0.04,0.03 0.07,0.07 0.09,0.12c0.02,0.06 0.04,0.12 0.06,0.2c0.01,0.08 0.02,0.17 0.02,0.27z" fill="white" fill-rule="evenodd" id="svg_26"/>
   <path clip-rule="evenodd" d="m23.62,62.36c0,0.66 -0.07,1.25 -0.21,1.77c-0.14,0.52 -0.35,0.97 -0.63,1.34c-0.27,0.36 -0.61,0.64 -1.02,0.84c-0.41,0.2 -0.87,0.3 -1.4,0.3c-0.22,0 -0.43,-0.03 -0.61,-0.07c-0.2,-0.04 -0.38,-0.12 -0.56,-0.21c-0.18,-0.09 -0.36,-0.21 -0.54,-0.36c-0.18,-0.14 -0.37,-0.31 -0.57,-0.51l0,3.76c0,0.05 -0.01,0.09 -0.03,0.12c-0.03,0.03 -0.06,0.06 -0.11,0.08c-0.05,0.03 -0.12,0.04 -0.21,0.05c-0.09,0.01 -0.2,0.02 -0.34,0.02c-0.14,0 -0.25,-0.01 -0.34,-0.02c-0.09,-0.01 -0.16,-0.02 -0.21,-0.05c-0.05,-0.02 -0.09,-0.05 -0.11,-0.08c-0.02,-0.03 -0.03,-0.07 -0.03,-0.12l0,-10.51c0,-0.05 0.01,-0.09 0.03,-0.12c0.01,-0.03 0.05,-0.05 0.1,-0.08c0.05,-0.02 0.11,-0.03 0.19,-0.04c0.08,-0.01 0.17,-0.02 0.28,-0.02c0.12,0 0.22,0.01 0.29,0.02c0.08,0.01 0.14,0.02 0.19,0.04c0.05,0.03 0.09,0.05 0.11,0.08c0.02,0.03 0.02,0.07 0.02,0.12l0,1.02c0.23,-0.24 0.45,-0.44 0.67,-0.61c0.21,-0.18 0.42,-0.32 0.63,-0.43c0.22,-0.12 0.44,-0.21 0.66,-0.26c0.23,-0.06 0.47,-0.09 0.72,-0.09c0.55,0 1.01,0.1 1.4,0.32c0.38,0.21 0.69,0.5 0.93,0.86c0.25,0.37 0.42,0.8 0.54,1.29c0.11,0.49 0.16,1 0.16,1.55zm-1.45,0.16c0,-0.39 -0.03,-0.76 -0.09,-1.12c-0.06,-0.36 -0.16,-0.68 -0.3,-0.96c-0.14,-0.27 -0.33,-0.5 -0.57,-0.66c-0.24,-0.17 -0.54,-0.26 -0.9,-0.26c-0.18,0 -0.35,0.03 -0.52,0.08c-0.18,0.06 -0.35,0.14 -0.53,0.25c-0.18,0.12 -0.36,0.27 -0.56,0.46c-0.2,0.18 -0.4,0.41 -0.62,0.69l0,2.99c0.38,0.46 0.74,0.82 1.08,1.06c0.34,0.25 0.7,0.37 1.07,0.37c0.35,0 0.64,-0.09 0.89,-0.25c0.25,-0.17 0.45,-0.39 0.6,-0.67c0.15,-0.28 0.27,-0.59 0.34,-0.94c0.07,-0.34 0.11,-0.69 0.11,-1.04z" fill="white" fill-rule="evenodd" id="svg_27"/>
   <path clip-rule="evenodd" d="m33.13,62.39c0,0.62 -0.08,1.18 -0.25,1.69c-0.16,0.52 -0.4,0.97 -0.72,1.34c-0.32,0.37 -0.72,0.66 -1.2,0.87c-0.48,0.21 -1.04,0.32 -1.68,0.32c-0.62,0 -1.16,-0.1 -1.62,-0.28c-0.46,-0.18 -0.84,-0.45 -1.15,-0.8c-0.3,-0.35 -0.53,-0.78 -0.68,-1.28c-0.15,-0.5 -0.23,-1.07 -0.23,-1.71c0,-0.61 0.08,-1.18 0.24,-1.69c0.16,-0.52 0.4,-0.96 0.72,-1.33c0.32,-0.38 0.72,-0.67 1.2,-0.87c0.48,-0.21 1.04,-0.31 1.68,-0.31c0.62,0 1.16,0.09 1.62,0.27c0.46,0.19 0.84,0.45 1.15,0.81c0.31,0.35 0.53,0.77 0.69,1.27c0.15,0.51 0.23,1.07 0.23,1.7zm-1.46,0.09c0,-0.4 -0.04,-0.79 -0.11,-1.15c-0.07,-0.36 -0.2,-0.68 -0.37,-0.95c-0.18,-0.28 -0.41,-0.49 -0.7,-0.65c-0.3,-0.16 -0.67,-0.24 -1.11,-0.24c-0.41,0 -0.75,0.07 -1.05,0.22c-0.29,0.14 -0.53,0.35 -0.72,0.61c-0.19,0.27 -0.33,0.58 -0.42,0.94c-0.09,0.37 -0.14,0.76 -0.14,1.19c0,0.41 0.04,0.8 0.11,1.16c0.08,0.37 0.2,0.68 0.38,0.95c0.17,0.27 0.41,0.49 0.7,0.65c0.3,0.16 0.67,0.23 1.11,0.23c0.4,0 0.75,-0.07 1.04,-0.21c0.3,-0.15 0.54,-0.35 0.73,-0.61c0.19,-0.26 0.33,-0.58 0.42,-0.94c0.09,-0.36 0.13,-0.76 0.13,-1.2z" fill="white" fill-rule="evenodd" id="svg_28"/>
   <path clip-rule="evenodd" d="m42.29,66.25c0,0.03 -0.01,0.07 -0.04,0.11c-0.02,0.03 -0.05,0.06 -0.1,0.08c-0.05,0.01 -0.12,0.03 -0.21,0.04c-0.09,0.01 -0.2,0.02 -0.34,0.02c-0.13,0 -0.24,-0.01 -0.33,-0.02c-0.09,-0.01 -0.16,-0.03 -0.22,-0.04c-0.05,-0.02 -0.09,-0.05 -0.12,-0.08c-0.02,-0.04 -0.03,-0.08 -0.03,-0.11l0,-4.33c0,-0.22 0.01,-0.44 0.02,-0.67c0.01,-0.22 0.02,-0.45 0.04,-0.66c-0.13,0.22 -0.27,0.44 -0.42,0.65c-0.16,0.22 -0.31,0.43 -0.47,0.64l-3.19,4.37c-0.04,0.04 -0.07,0.08 -0.1,0.11c-0.04,0.04 -0.08,0.06 -0.12,0.08c-0.05,0.02 -0.11,0.04 -0.18,0.04c-0.08,0.01 -0.16,0.02 -0.27,0.02c-0.12,0 -0.22,-0.01 -0.3,-0.02c-0.08,-0.01 -0.14,-0.03 -0.19,-0.04c-0.05,-0.02 -0.08,-0.05 -0.1,-0.08c-0.02,-0.04 -0.03,-0.08 -0.03,-0.11l0,-7.54c0,-0.04 0.01,-0.08 0.03,-0.11c0.02,-0.04 0.06,-0.06 0.11,-0.09c0.05,-0.02 0.12,-0.03 0.21,-0.04c0.09,-0.01 0.2,-0.02 0.33,-0.02c0.27,0 0.45,0.03 0.55,0.07c0.1,0.04 0.15,0.1 0.15,0.19l0,4.35c0,0.22 0,0.43 -0.01,0.65c-0.02,0.21 -0.03,0.43 -0.05,0.64c0.13,-0.21 0.26,-0.42 0.39,-0.63c0.13,-0.2 0.27,-0.4 0.42,-0.59l3.24,-4.42c0.03,-0.05 0.07,-0.09 0.1,-0.12c0.04,-0.04 0.08,-0.06 0.14,-0.08c0.05,-0.02 0.11,-0.03 0.19,-0.04c0.07,-0.01 0.16,-0.02 0.28,-0.02c0.12,0 0.22,0.01 0.3,0.02c0.08,0.01 0.14,0.02 0.19,0.04c0.05,0.03 0.08,0.05 0.1,0.09c0.02,0.03 0.03,0.07 0.03,0.11l0,7.54z" fill="white" fill-rule="evenodd" id="svg_29"/>
   <path clip-rule="evenodd" d="m50.55,59.12c0,0.12 -0.01,0.21 -0.02,0.29c-0.01,0.08 -0.03,0.14 -0.05,0.19c-0.03,0.05 -0.06,0.09 -0.09,0.11c-0.03,0.03 -0.08,0.04 -0.13,0.04l-2.26,0l0,6.49c0,0.04 -0.01,0.08 -0.03,0.11c-0.02,0.03 -0.06,0.06 -0.11,0.08c-0.05,0.02 -0.11,0.04 -0.21,0.05c-0.08,0.01 -0.2,0.02 -0.34,0.02c-0.13,0 -0.24,-0.01 -0.33,-0.02c-0.09,-0.01 -0.16,-0.03 -0.22,-0.05c-0.05,-0.02 -0.09,-0.05 -0.11,-0.08c-0.02,-0.03 -0.02,-0.07 -0.02,-0.11l0,-6.49l-2.26,0c-0.05,0 -0.09,-0.01 -0.12,-0.04c-0.04,-0.02 -0.07,-0.06 -0.09,-0.11c-0.02,-0.05 -0.04,-0.12 -0.05,-0.2c-0.02,-0.08 -0.03,-0.17 -0.03,-0.28c0,-0.11 0.01,-0.2 0.03,-0.27c0.01,-0.08 0.03,-0.14 0.05,-0.2c0.03,-0.05 0.06,-0.09 0.09,-0.12c0.04,-0.02 0.07,-0.03 0.12,-0.03l5.89,0c0.05,0 0.09,0.01 0.12,0.03c0.04,0.03 0.07,0.07 0.09,0.12c0.02,0.06 0.04,0.12 0.06,0.2c0.01,0.08 0.02,0.17 0.02,0.27z" fill="white" fill-rule="evenodd" id="svg_30"/>
   <path clip-rule="evenodd" d="m58.61,62.15c0,0.22 -0.05,0.37 -0.16,0.46c-0.11,0.1 -0.23,0.14 -0.37,0.14l-4.94,0c0,0.42 0.05,0.79 0.13,1.13c0.08,0.34 0.22,0.62 0.42,0.86c0.19,0.24 0.45,0.43 0.76,0.55c0.31,0.13 0.69,0.2 1.15,0.2c0.35,0 0.67,-0.03 0.95,-0.09c0.28,-0.06 0.52,-0.13 0.72,-0.2c0.2,-0.07 0.37,-0.14 0.5,-0.19c0.13,-0.06 0.23,-0.09 0.3,-0.09c0.04,0 0.07,0.01 0.1,0.03c0.03,0.02 0.06,0.04 0.07,0.08c0.02,0.04 0.03,0.1 0.04,0.17c0.01,0.07 0.01,0.15 0.01,0.25c0,0.08 0,0.14 0,0.19c-0.01,0.05 -0.02,0.1 -0.02,0.14c-0.01,0.05 -0.03,0.08 -0.05,0.12c-0.02,0.03 -0.04,0.06 -0.07,0.09c-0.03,0.03 -0.12,0.08 -0.27,0.15c-0.15,0.07 -0.35,0.14 -0.59,0.21c-0.24,0.06 -0.52,0.12 -0.83,0.18c-0.31,0.05 -0.65,0.08 -1.01,0.08c-0.62,0 -1.16,-0.09 -1.62,-0.26c-0.47,-0.18 -0.86,-0.43 -1.18,-0.77c-0.32,-0.34 -0.56,-0.77 -0.72,-1.28c-0.16,-0.52 -0.24,-1.11 -0.24,-1.79c0,-0.65 0.08,-1.23 0.25,-1.74c0.17,-0.52 0.41,-0.96 0.72,-1.32c0.32,-0.36 0.7,-0.63 1.15,-0.82c0.44,-0.2 0.94,-0.29 1.49,-0.29c0.59,0 1.09,0.09 1.51,0.28c0.41,0.19 0.76,0.45 1.03,0.77c0.26,0.32 0.46,0.69 0.58,1.12c0.13,0.44 0.19,0.9 0.19,1.39l0,0.25zm-1.39,-0.41c0.02,-0.72 -0.14,-1.29 -0.48,-1.71c-0.33,-0.41 -0.83,-0.61 -1.5,-0.61c-0.34,0 -0.64,0.06 -0.89,0.19c-0.26,0.13 -0.47,0.3 -0.64,0.51c-0.18,0.21 -0.31,0.46 -0.41,0.74c-0.09,0.28 -0.14,0.57 -0.16,0.88l4.08,0z" fill="white" fill-rule="evenodd" id="svg_31"/>
   <path clip-rule="evenodd" d="m67.03,66.24c0,0.04 -0.01,0.08 -0.03,0.11c-0.02,0.03 -0.06,0.06 -0.11,0.08c-0.05,0.02 -0.12,0.04 -0.21,0.05c-0.08,0.01 -0.2,0.02 -0.33,0.02c-0.14,0 -0.25,-0.01 -0.34,-0.02c-0.09,-0.01 -0.16,-0.03 -0.22,-0.05c-0.05,-0.02 -0.09,-0.05 -0.11,-0.08c-0.02,-0.03 -0.03,-0.07 -0.03,-0.11l0,-6.57l-2.08,0c-0.09,0.88 -0.19,1.67 -0.32,2.36c-0.12,0.69 -0.26,1.3 -0.42,1.81c-0.16,0.51 -0.33,0.94 -0.53,1.29c-0.19,0.36 -0.4,0.64 -0.64,0.85c-0.23,0.22 -0.48,0.37 -0.75,0.47c-0.27,0.09 -0.56,0.14 -0.86,0.14c-0.06,0 -0.1,-0.01 -0.13,-0.03c-0.04,-0.01 -0.07,-0.04 -0.09,-0.09c-0.02,-0.04 -0.04,-0.11 -0.05,-0.19c-0.01,-0.08 -0.02,-0.18 -0.02,-0.31c0,-0.13 0.01,-0.24 0.02,-0.32c0,-0.09 0.02,-0.16 0.04,-0.21c0.02,-0.05 0.04,-0.08 0.07,-0.1c0.03,-0.01 0.07,-0.02 0.11,-0.02c0.19,0 0.36,-0.05 0.53,-0.13c0.17,-0.09 0.32,-0.23 0.47,-0.43c0.14,-0.2 0.28,-0.45 0.41,-0.78c0.13,-0.32 0.25,-0.71 0.35,-1.18c0.11,-0.46 0.21,-1.01 0.3,-1.64c0.1,-0.63 0.19,-1.35 0.27,-2.16c0.01,-0.17 0.05,-0.29 0.12,-0.37c0.07,-0.08 0.17,-0.12 0.3,-0.12l3.86,0c0.13,0 0.24,0.04 0.31,0.12c0.08,0.08 0.11,0.2 0.11,0.37l0,7.24z" fill="white" fill-rule="evenodd" id="svg_32"/>
   <path clip-rule="evenodd" d="m76.28,63.85c0,0.38 -0.08,0.74 -0.22,1.08c-0.14,0.33 -0.36,0.62 -0.66,0.86c-0.3,0.25 -0.69,0.44 -1.16,0.59c-0.46,0.14 -1.03,0.21 -1.68,0.21c-0.15,0 -0.3,0 -0.47,-0.01c-0.16,0 -0.31,0 -0.47,-0.01c-0.16,-0.01 -0.31,-0.02 -0.46,-0.03c-0.15,-0.01 -0.3,-0.03 -0.45,-0.04c-0.23,-0.03 -0.4,-0.11 -0.51,-0.23c-0.11,-0.12 -0.17,-0.31 -0.17,-0.56l0,-7c0,-0.04 0.01,-0.08 0.03,-0.11c0.02,-0.03 0.05,-0.06 0.11,-0.08c0.05,-0.03 0.12,-0.04 0.21,-0.05c0.09,-0.01 0.2,-0.02 0.33,-0.02c0.14,0 0.25,0.01 0.34,0.02c0.09,0.01 0.16,0.02 0.21,0.05c0.06,0.02 0.09,0.05 0.12,0.08c0.02,0.03 0.03,0.07 0.03,0.11l0,2.65c0.2,-0.01 0.43,-0.03 0.67,-0.03c0.24,-0.01 0.48,-0.02 0.73,-0.02c0.61,0 1.13,0.06 1.57,0.18c0.44,0.12 0.8,0.29 1.08,0.52c0.27,0.22 0.48,0.49 0.61,0.8c0.14,0.31 0.21,0.65 0.21,1.04zm-1.46,0.09c0,-0.23 -0.04,-0.44 -0.11,-0.62c-0.07,-0.19 -0.19,-0.35 -0.36,-0.48c-0.17,-0.13 -0.38,-0.23 -0.65,-0.3c-0.27,-0.07 -0.6,-0.11 -0.99,-0.11c-0.23,0 -0.46,0.01 -0.69,0.02c-0.22,0.01 -0.43,0.02 -0.61,0.04l0,2.9c0.19,0.02 0.4,0.04 0.62,0.05c0.23,0.02 0.48,0.03 0.75,0.03c0.69,0 1.2,-0.14 1.54,-0.41c0.33,-0.27 0.5,-0.64 0.5,-1.12z" fill="white" fill-rule="evenodd" id="svg_33"/>
   <path clip-rule="evenodd" d="m85.1,66.24c0,0.04 -0.01,0.08 -0.03,0.11c-0.03,0.03 -0.06,0.06 -0.11,0.08c-0.05,0.02 -0.12,0.04 -0.21,0.05c-0.09,0.01 -0.2,0.02 -0.33,0.02c-0.14,0 -0.26,-0.01 -0.35,-0.02c-0.09,-0.01 -0.16,-0.03 -0.21,-0.05c-0.05,-0.02 -0.08,-0.05 -0.11,-0.08c-0.02,-0.03 -0.03,-0.07 -0.03,-0.11l0,-3.3l-3.84,0l0,3.3c0,0.04 -0.01,0.08 -0.03,0.11c-0.02,0.03 -0.06,0.06 -0.11,0.08c-0.05,0.02 -0.12,0.04 -0.21,0.05c-0.09,0.01 -0.2,0.02 -0.34,0.02c-0.13,0 -0.24,-0.01 -0.34,-0.02c-0.08,-0.01 -0.16,-0.03 -0.21,-0.05c-0.05,-0.02 -0.09,-0.05 -0.11,-0.08c-0.02,-0.03 -0.03,-0.07 -0.03,-0.11l0,-7.53c0,-0.04 0.01,-0.08 0.03,-0.11c0.02,-0.03 0.06,-0.06 0.11,-0.08c0.05,-0.03 0.13,-0.04 0.21,-0.05c0.1,-0.01 0.21,-0.02 0.34,-0.02c0.14,0 0.25,0.01 0.34,0.02c0.09,0.01 0.16,0.02 0.21,0.05c0.05,0.02 0.09,0.05 0.11,0.08c0.02,0.03 0.03,0.07 0.03,0.11l0,3.06l3.84,0l0,-3.06c0,-0.04 0.01,-0.08 0.03,-0.11c0.03,-0.03 0.06,-0.06 0.11,-0.08c0.05,-0.03 0.12,-0.04 0.21,-0.05c0.09,-0.01 0.21,-0.02 0.35,-0.02c0.13,0 0.24,0.01 0.33,0.02c0.09,0.01 0.16,0.02 0.21,0.05c0.05,0.02 0.08,0.05 0.11,0.08c0.02,0.03 0.03,0.07 0.03,0.11l0,7.53z" fill="white" fill-rule="evenodd" id="svg_34"/>
   <path clip-rule="evenodd" d="m93.76,66.25c0,0.06 -0.02,0.11 -0.07,0.15c-0.04,0.03 -0.1,0.06 -0.18,0.07c-0.08,0.02 -0.19,0.03 -0.34,0.03c-0.15,0 -0.26,-0.01 -0.35,-0.03c-0.09,-0.01 -0.15,-0.04 -0.19,-0.07c-0.04,-0.04 -0.06,-0.09 -0.06,-0.15l0,-0.76c-0.33,0.35 -0.69,0.63 -1.1,0.82c-0.4,0.2 -0.83,0.3 -1.28,0.3c-0.39,0 -0.75,-0.05 -1.07,-0.16c-0.32,-0.1 -0.6,-0.25 -0.82,-0.45c-0.23,-0.19 -0.41,-0.43 -0.53,-0.71c-0.12,-0.29 -0.19,-0.61 -0.19,-0.97c0,-0.43 0.09,-0.8 0.26,-1.11c0.17,-0.31 0.42,-0.57 0.75,-0.78c0.32,-0.2 0.71,-0.36 1.18,-0.46c0.47,-0.1 1,-0.15 1.58,-0.15l1.04,0l0,-0.59c0,-0.29 -0.03,-0.55 -0.09,-0.77c-0.06,-0.22 -0.16,-0.41 -0.3,-0.55c-0.14,-0.15 -0.31,-0.26 -0.53,-0.34c-0.22,-0.07 -0.48,-0.11 -0.8,-0.11c-0.34,0 -0.65,0.04 -0.92,0.12c-0.27,0.08 -0.51,0.17 -0.71,0.27c-0.2,0.09 -0.37,0.18 -0.51,0.26c-0.14,0.08 -0.24,0.12 -0.3,0.12c-0.05,0 -0.09,-0.01 -0.12,-0.03c-0.04,-0.02 -0.06,-0.05 -0.09,-0.1c-0.02,-0.04 -0.04,-0.1 -0.05,-0.17c-0.02,-0.07 -0.02,-0.15 -0.02,-0.23c0,-0.14 0.01,-0.25 0.03,-0.33c0.02,-0.08 0.07,-0.16 0.14,-0.23c0.08,-0.07 0.21,-0.16 0.39,-0.26c0.18,-0.09 0.39,-0.18 0.63,-0.26c0.24,-0.08 0.51,-0.15 0.79,-0.2c0.28,-0.06 0.57,-0.08 0.86,-0.08c0.54,0 1,0.06 1.38,0.18c0.38,0.13 0.69,0.31 0.92,0.54c0.24,0.24 0.41,0.53 0.51,0.88c0.11,0.35 0.16,0.76 0.16,1.23l0,5.08zm-1.37,-3.44l-1.18,0c-0.38,0 -0.71,0.03 -0.99,0.1c-0.27,0.06 -0.5,0.16 -0.69,0.28c-0.18,0.13 -0.32,0.28 -0.41,0.45c-0.08,0.18 -0.12,0.38 -0.12,0.61c0,0.39 0.12,0.7 0.37,0.93c0.25,0.23 0.59,0.35 1.04,0.35c0.36,0 0.7,-0.09 1.01,-0.28c0.3,-0.18 0.63,-0.46 0.97,-0.84l0,-1.6z" fill="white" fill-rule="evenodd" id="svg_35"/>
   <path clip-rule="evenodd" d="m102.28,66.24c0,0.04 0,0.08 -0.02,0.12c-0.02,0.03 -0.06,0.06 -0.11,0.08c-0.05,0.01 -0.12,0.03 -0.21,0.04c-0.08,0.01 -0.2,0.02 -0.35,0.02c-0.13,0 -0.24,-0.01 -0.33,-0.02c-0.09,-0.01 -0.16,-0.03 -0.22,-0.04c-0.05,-0.02 -0.08,-0.05 -0.1,-0.08c-0.02,-0.04 -0.03,-0.08 -0.03,-0.12l0,-3.17l-0.8,0c-0.34,0 -0.61,0.03 -0.8,0.08c-0.19,0.06 -0.37,0.15 -0.52,0.28c-0.15,0.13 -0.29,0.3 -0.42,0.51c-0.12,0.2 -0.24,0.45 -0.35,0.74l-0.61,1.47c-0.02,0.08 -0.06,0.13 -0.09,0.18c-0.03,0.05 -0.08,0.08 -0.15,0.11c-0.06,0.02 -0.14,0.04 -0.24,0.04c-0.1,0.01 -0.22,0.02 -0.36,0.02c-0.11,0 -0.2,0 -0.28,-0.01c-0.08,-0.01 -0.15,-0.02 -0.21,-0.03c-0.05,-0.01 -0.1,-0.04 -0.12,-0.07c-0.03,-0.03 -0.04,-0.07 -0.04,-0.11c0,-0.04 0.01,-0.1 0.04,-0.19c0.03,-0.09 0.1,-0.24 0.19,-0.45l0.6,-1.42c0.16,-0.35 0.35,-0.66 0.58,-0.92c0.23,-0.26 0.49,-0.45 0.79,-0.57c-0.55,-0.1 -0.98,-0.32 -1.3,-0.65c-0.32,-0.33 -0.48,-0.77 -0.48,-1.32c0,-0.36 0.08,-0.69 0.23,-0.98c0.15,-0.29 0.37,-0.54 0.66,-0.74c0.3,-0.21 0.66,-0.36 1.08,-0.47c0.43,-0.11 0.92,-0.16 1.47,-0.16c0.13,0 0.29,0 0.46,0c0.18,0.01 0.36,0.02 0.55,0.03c0.18,0.01 0.37,0.02 0.54,0.04c0.18,0.01 0.33,0.02 0.46,0.03c0.16,0.02 0.29,0.08 0.37,0.19c0.09,0.1 0.12,0.23 0.12,0.39l0,7.15zm-1.37,-6.72c-0.2,-0.03 -0.41,-0.05 -0.62,-0.06c-0.21,-0.01 -0.41,-0.01 -0.59,-0.01c-0.38,0 -0.69,0.03 -0.94,0.1c-0.26,0.06 -0.46,0.15 -0.62,0.27c-0.15,0.12 -0.26,0.26 -0.32,0.42c-0.07,0.17 -0.1,0.34 -0.1,0.54c0,0.2 0.04,0.38 0.11,0.54c0.08,0.16 0.19,0.29 0.35,0.4c0.15,0.11 0.35,0.19 0.59,0.25c0.24,0.06 0.57,0.09 1,0.09l1.14,0l0,-2.54z" fill="white" fill-rule="evenodd" id="svg_36"/>
   <path clip-rule="evenodd" d="m115.29,66.3c0,0.03 -0.01,0.06 -0.04,0.08c-0.01,0.03 -0.05,0.05 -0.1,0.07c-0.06,0.01 -0.13,0.03 -0.21,0.03c-0.09,0.01 -0.2,0.02 -0.33,0.02c-0.16,0 -0.28,-0.01 -0.38,-0.02c-0.1,-0.01 -0.18,-0.03 -0.24,-0.04c-0.06,-0.02 -0.11,-0.05 -0.13,-0.08c-0.03,-0.03 -0.05,-0.07 -0.06,-0.1l-0.8,-1.95c-0.11,-0.25 -0.21,-0.47 -0.33,-0.65c-0.11,-0.18 -0.24,-0.33 -0.39,-0.44c-0.15,-0.11 -0.32,-0.19 -0.51,-0.24c-0.19,-0.05 -0.41,-0.08 -0.66,-0.08l-0.58,0l0,3.39c0,0.03 -0.01,0.05 -0.04,0.08c-0.03,0.03 -0.07,0.05 -0.13,0.07c-0.05,0.02 -0.13,0.03 -0.22,0.04c-0.08,0.01 -0.19,0.02 -0.31,0.02c-0.11,0 -0.22,-0.01 -0.3,-0.02c-0.09,-0.01 -0.17,-0.02 -0.22,-0.04c-0.06,-0.02 -0.1,-0.04 -0.12,-0.07c-0.03,-0.03 -0.04,-0.05 -0.04,-0.08l0,-7.64c0,-0.03 0.01,-0.06 0.04,-0.08c0.02,-0.03 0.06,-0.05 0.12,-0.06c0.05,-0.02 0.13,-0.03 0.22,-0.04c0.08,-0.01 0.19,-0.02 0.3,-0.02c0.12,0 0.23,0.01 0.31,0.02c0.09,0.01 0.17,0.02 0.22,0.04c0.06,0.01 0.1,0.03 0.13,0.06c0.03,0.02 0.04,0.05 0.04,0.08l0,3.15l0.58,0c0.22,0 0.41,-0.02 0.58,-0.07c0.18,-0.05 0.34,-0.13 0.49,-0.24c0.14,-0.11 0.27,-0.25 0.38,-0.42c0.12,-0.17 0.22,-0.38 0.32,-0.63l0.7,-1.73c0.01,-0.04 0.03,-0.08 0.06,-0.11c0.03,-0.04 0.07,-0.06 0.12,-0.09c0.06,-0.02 0.13,-0.03 0.22,-0.04c0.1,-0.01 0.22,-0.02 0.37,-0.02c0.13,0 0.24,0.01 0.33,0.02c0.09,0.01 0.15,0.02 0.2,0.04c0.05,0.01 0.08,0.03 0.1,0.06c0.01,0.02 0.02,0.05 0.02,0.08c0,0.05 0,0.1 -0.02,0.15c-0.01,0.06 -0.04,0.12 -0.06,0.2l-0.72,1.65c-0.11,0.28 -0.23,0.51 -0.37,0.71c-0.13,0.18 -0.26,0.34 -0.39,0.47c-0.14,0.12 -0.27,0.22 -0.41,0.29c-0.14,0.07 -0.28,0.12 -0.4,0.16l0,0.02c0.19,0.07 0.37,0.15 0.54,0.24c0.16,0.1 0.31,0.21 0.46,0.35c0.14,0.14 0.27,0.31 0.39,0.5c0.12,0.19 0.24,0.41 0.34,0.67l0.83,1.9c0.03,0.04 0.04,0.08 0.05,0.11c0.01,0.03 0.02,0.07 0.03,0.1c0.01,0.03 0.01,0.05 0.01,0.07c0,0.02 0.01,0.04 0.01,0.06z" fill="white" fill-rule="evenodd" id="svg_37"/>
   <path clip-rule="evenodd" d="m124.28,62.39c0,0.62 -0.08,1.18 -0.24,1.69c-0.16,0.52 -0.41,0.97 -0.73,1.34c-0.32,0.37 -0.72,0.66 -1.2,0.87c-0.48,0.21 -1.04,0.32 -1.68,0.32c-0.62,0 -1.15,-0.1 -1.61,-0.28c-0.46,-0.18 -0.85,-0.45 -1.15,-0.8c-0.31,-0.35 -0.54,-0.78 -0.69,-1.28c-0.15,-0.5 -0.22,-1.07 -0.22,-1.71c0,-0.61 0.08,-1.18 0.23,-1.69c0.16,-0.52 0.4,-0.96 0.72,-1.33c0.32,-0.38 0.72,-0.67 1.2,-0.87c0.48,-0.21 1.04,-0.31 1.68,-0.31c0.62,0 1.16,0.09 1.62,0.27c0.46,0.19 0.84,0.45 1.15,0.81c0.31,0.35 0.54,0.77 0.69,1.27c0.15,0.51 0.23,1.07 0.23,1.7zm-1.45,0.09c0,-0.4 -0.05,-0.79 -0.12,-1.15c-0.07,-0.36 -0.2,-0.68 -0.37,-0.95c-0.17,-0.28 -0.41,-0.49 -0.7,-0.65c-0.3,-0.16 -0.67,-0.24 -1.11,-0.24c-0.4,0 -0.75,0.07 -1.05,0.22c-0.29,0.14 -0.53,0.35 -0.72,0.61c-0.19,0.27 -0.33,0.58 -0.42,0.94c-0.09,0.37 -0.14,0.76 -0.14,1.19c0,0.41 0.04,0.8 0.11,1.16c0.08,0.37 0.2,0.68 0.38,0.95c0.17,0.27 0.41,0.49 0.7,0.65c0.3,0.16 0.67,0.23 1.11,0.23c0.4,0 0.75,-0.07 1.04,-0.21c0.3,-0.15 0.54,-0.35 0.73,-0.61c0.19,-0.26 0.33,-0.58 0.42,-0.94c0.09,-0.36 0.14,-0.76 0.14,-1.2z" fill="white" fill-rule="evenodd" id="svg_38"/>
   <path clip-rule="evenodd" d="m136.24,66.16c0.01,0.12 -0.03,0.21 -0.12,0.26c-0.08,0.05 -0.25,0.08 -0.5,0.08c-0.15,0 -0.26,0 -0.35,-0.01c-0.09,-0.01 -0.16,-0.02 -0.21,-0.03c-0.05,-0.02 -0.08,-0.04 -0.1,-0.08c-0.02,-0.03 -0.03,-0.07 -0.04,-0.12l-0.54,-4.39c-0.02,-0.15 -0.04,-0.32 -0.05,-0.5c-0.02,-0.18 -0.04,-0.36 -0.05,-0.54c-0.02,-0.18 -0.03,-0.37 -0.05,-0.55c-0.01,-0.19 -0.03,-0.36 -0.04,-0.52l-0.01,-0.19c-0.05,0.16 -0.11,0.33 -0.16,0.51c-0.06,0.17 -0.12,0.36 -0.18,0.54c-0.06,0.18 -0.13,0.37 -0.18,0.55c-0.07,0.19 -0.12,0.36 -0.17,0.52l-1.58,4.46c-0.02,0.06 -0.05,0.12 -0.08,0.16c-0.03,0.05 -0.07,0.08 -0.12,0.11c-0.06,0.03 -0.12,0.05 -0.2,0.06c-0.09,0.01 -0.18,0.02 -0.3,0.02c-0.12,0 -0.21,-0.01 -0.3,-0.02c-0.07,-0.01 -0.14,-0.03 -0.19,-0.05c-0.05,-0.03 -0.1,-0.06 -0.13,-0.11c-0.03,-0.04 -0.06,-0.1 -0.08,-0.17l-1.53,-4.46c-0.05,-0.16 -0.11,-0.32 -0.17,-0.5c-0.06,-0.18 -0.12,-0.36 -0.17,-0.55c-0.06,-0.19 -0.12,-0.37 -0.17,-0.55c-0.06,-0.19 -0.11,-0.36 -0.15,-0.52l0,0.19c-0.02,0.16 -0.04,0.33 -0.06,0.52c-0.01,0.18 -0.03,0.37 -0.05,0.55c-0.02,0.18 -0.04,0.36 -0.06,0.54c-0.02,0.18 -0.03,0.35 -0.04,0.5l-0.52,4.32c-0.01,0.07 -0.02,0.12 -0.04,0.16c-0.02,0.04 -0.06,0.07 -0.11,0.09c-0.06,0.02 -0.13,0.04 -0.22,0.04c-0.09,0.01 -0.21,0.02 -0.35,0.02c-0.14,0 -0.25,-0.01 -0.33,-0.02c-0.08,-0.01 -0.14,-0.03 -0.18,-0.06c-0.05,-0.03 -0.07,-0.06 -0.08,-0.1c-0.02,-0.04 -0.02,-0.1 0,-0.16l0.82,-7.12c0.03,-0.18 0.09,-0.31 0.19,-0.41c0.1,-0.09 0.25,-0.13 0.44,-0.13l0.66,0c0.16,0 0.3,0.01 0.41,0.03c0.12,0.03 0.22,0.07 0.3,0.13c0.08,0.07 0.15,0.15 0.2,0.25c0.06,0.1 0.11,0.23 0.16,0.39l1.11,3.2c0.07,0.2 0.13,0.39 0.19,0.59c0.07,0.2 0.14,0.39 0.19,0.59c0.06,0.19 0.12,0.38 0.17,0.56c0.05,0.18 0.1,0.36 0.15,0.53l0.01,0c0.06,-0.18 0.11,-0.36 0.16,-0.55c0.05,-0.19 0.11,-0.39 0.17,-0.59c0.06,-0.19 0.12,-0.39 0.19,-0.58c0.06,-0.2 0.13,-0.39 0.19,-0.57l1.11,-3.18c0.04,-0.14 0.09,-0.26 0.14,-0.36c0.06,-0.11 0.12,-0.19 0.2,-0.25c0.08,-0.07 0.17,-0.12 0.28,-0.15c0.11,-0.03 0.24,-0.04 0.4,-0.04l0.65,0c0.2,0 0.35,0.04 0.45,0.12c0.11,0.09 0.17,0.22 0.18,0.4l0.84,7.14z" fill="white" fill-rule="evenodd" id="svg_39"/>
   <path clip-rule="evenodd" d="m145.11,66.24c0,0.04 -0.01,0.08 -0.03,0.11c-0.02,0.03 -0.06,0.06 -0.11,0.08c-0.05,0.02 -0.12,0.04 -0.21,0.05c-0.09,0.01 -0.2,0.02 -0.33,0.02c-0.14,0 -0.26,-0.01 -0.35,-0.02c-0.09,-0.01 -0.16,-0.03 -0.21,-0.05c-0.05,-0.02 -0.09,-0.05 -0.11,-0.08c-0.03,-0.03 -0.04,-0.07 -0.04,-0.11l0,-6.57l-3.58,0l0,6.57c0,0.04 -0.01,0.08 -0.04,0.11c-0.02,0.03 -0.06,0.06 -0.11,0.08c-0.05,0.02 -0.12,0.04 -0.21,0.05c-0.09,0.01 -0.2,0.02 -0.34,0.02c-0.13,0 -0.24,-0.01 -0.33,-0.02c-0.09,-0.01 -0.16,-0.03 -0.21,-0.05c-0.06,-0.02 -0.09,-0.05 -0.11,-0.08c-0.02,-0.03 -0.03,-0.07 -0.03,-0.11l0,-7.25c0,-0.17 0.03,-0.29 0.11,-0.37c0.07,-0.08 0.18,-0.12 0.32,-0.12l5.5,0c0.14,0 0.24,0.04 0.31,0.12c0.07,0.08 0.11,0.2 0.11,0.37l0,7.25z" fill="white" fill-rule="evenodd" id="svg_40"/>
   <path clip-rule="evenodd" d="m153.77,66.25c0,0.06 -0.02,0.11 -0.07,0.15c-0.04,0.03 -0.1,0.06 -0.18,0.07c-0.08,0.02 -0.19,0.03 -0.34,0.03c-0.15,0 -0.26,-0.01 -0.35,-0.03c-0.08,-0.01 -0.15,-0.04 -0.19,-0.07c-0.04,-0.04 -0.05,-0.09 -0.05,-0.15l0,-0.76c-0.34,0.35 -0.7,0.63 -1.11,0.82c-0.4,0.2 -0.83,0.3 -1.28,0.3c-0.39,0 -0.75,-0.05 -1.07,-0.16c-0.32,-0.1 -0.6,-0.25 -0.82,-0.45c-0.23,-0.19 -0.4,-0.43 -0.53,-0.71c-0.12,-0.29 -0.19,-0.61 -0.19,-0.97c0,-0.43 0.09,-0.8 0.26,-1.11c0.18,-0.31 0.42,-0.57 0.75,-0.78c0.32,-0.2 0.71,-0.36 1.18,-0.46c0.47,-0.1 1,-0.15 1.58,-0.15l1.04,0l0,-0.59c0,-0.29 -0.03,-0.55 -0.09,-0.77c-0.06,-0.22 -0.16,-0.41 -0.3,-0.55c-0.13,-0.15 -0.31,-0.26 -0.53,-0.34c-0.22,-0.07 -0.48,-0.11 -0.8,-0.11c-0.34,0 -0.65,0.04 -0.92,0.12c-0.27,0.08 -0.51,0.17 -0.71,0.27c-0.2,0.09 -0.37,0.18 -0.51,0.26c-0.13,0.08 -0.23,0.12 -0.3,0.12c-0.05,0 -0.09,-0.01 -0.12,-0.03c-0.03,-0.02 -0.06,-0.05 -0.09,-0.1c-0.02,-0.04 -0.04,-0.1 -0.05,-0.17c-0.01,-0.07 -0.02,-0.15 -0.02,-0.23c0,-0.14 0.01,-0.25 0.03,-0.33c0.02,-0.08 0.07,-0.16 0.14,-0.23c0.08,-0.07 0.21,-0.16 0.39,-0.26c0.18,-0.09 0.39,-0.18 0.64,-0.26c0.24,-0.08 0.5,-0.15 0.78,-0.2c0.28,-0.06 0.57,-0.08 0.87,-0.08c0.53,0 0.99,0.06 1.37,0.18c0.38,0.13 0.69,0.31 0.92,0.54c0.24,0.24 0.41,0.53 0.51,0.88c0.11,0.35 0.16,0.76 0.16,1.23l0,5.08zm-1.37,-3.44l-1.18,0c-0.38,0 -0.71,0.03 -0.99,0.1c-0.27,0.06 -0.5,0.16 -0.69,0.28c-0.18,0.13 -0.32,0.28 -0.41,0.45c-0.08,0.18 -0.12,0.38 -0.12,0.61c0,0.39 0.12,0.7 0.37,0.93c0.25,0.23 0.59,0.35 1.04,0.35c0.36,0 0.7,-0.09 1.01,-0.28c0.31,-0.18 0.63,-0.46 0.97,-0.84l0,-1.6z" fill="white" fill-rule="evenodd" id="svg_41"/>
   <path clip-rule="evenodd" d="m163.34,66.24c0,0.04 -0.02,0.08 -0.04,0.11c-0.02,0.03 -0.06,0.06 -0.11,0.08c-0.05,0.02 -0.12,0.04 -0.21,0.05c-0.09,0.01 -0.2,0.02 -0.33,0.02c-0.14,0 -0.25,-0.01 -0.34,-0.02c-0.09,-0.01 -0.16,-0.03 -0.21,-0.05c-0.05,-0.02 -0.09,-0.05 -0.11,-0.08c-0.02,-0.03 -0.04,-0.07 -0.04,-0.11l0,-3.3l-3.83,0l0,3.3c0,0.04 -0.01,0.08 -0.04,0.11c-0.02,0.03 -0.06,0.06 -0.1,0.08c-0.06,0.02 -0.12,0.04 -0.21,0.05c-0.09,0.01 -0.21,0.02 -0.35,0.02c-0.13,0 -0.24,-0.01 -0.33,-0.02c-0.09,-0.01 -0.16,-0.03 -0.21,-0.05c-0.06,-0.02 -0.09,-0.05 -0.11,-0.08c-0.02,-0.03 -0.03,-0.07 -0.03,-0.11l0,-7.53c0,-0.04 0.01,-0.08 0.03,-0.11c0.02,-0.03 0.05,-0.06 0.11,-0.08c0.05,-0.03 0.12,-0.04 0.21,-0.05c0.09,-0.01 0.2,-0.02 0.33,-0.02c0.14,0 0.26,0.01 0.35,0.02c0.09,0.01 0.15,0.02 0.21,0.05c0.04,0.02 0.08,0.05 0.1,0.08c0.03,0.03 0.04,0.07 0.04,0.11l0,3.06l3.83,0l0,-3.06c0,-0.04 0.02,-0.08 0.04,-0.11c0.02,-0.03 0.06,-0.06 0.11,-0.08c0.05,-0.03 0.12,-0.04 0.21,-0.05c0.09,-0.01 0.2,-0.02 0.34,-0.02c0.13,0 0.24,0.01 0.33,0.02c0.09,0.01 0.16,0.02 0.21,0.05c0.05,0.02 0.09,0.05 0.11,0.08c0.02,0.03 0.04,0.07 0.04,0.11l0,7.53z" fill="white" fill-rule="evenodd" id="svg_42"/>
   <path clip-rule="evenodd" d="m173.02,66.25c0,0.03 -0.01,0.07 -0.03,0.11c-0.02,0.03 -0.06,0.06 -0.11,0.08c-0.05,0.01 -0.12,0.03 -0.21,0.04c-0.09,0.01 -0.2,0.02 -0.33,0.02c-0.14,0 -0.25,-0.01 -0.34,-0.02c-0.09,-0.01 -0.16,-0.03 -0.22,-0.04c-0.05,-0.02 -0.09,-0.05 -0.11,-0.08c-0.02,-0.04 -0.03,-0.08 -0.03,-0.11l0,-4.33c0,-0.22 0,-0.44 0.01,-0.67c0.01,-0.22 0.03,-0.45 0.04,-0.66c-0.13,0.22 -0.26,0.44 -0.42,0.65c-0.15,0.22 -0.31,0.43 -0.46,0.64l-3.2,4.37c-0.04,0.04 -0.07,0.08 -0.1,0.11c-0.03,0.04 -0.07,0.06 -0.12,0.08c-0.05,0.02 -0.11,0.04 -0.18,0.04c-0.07,0.01 -0.16,0.02 -0.27,0.02c-0.12,0 -0.22,-0.01 -0.29,-0.02c-0.09,-0.01 -0.15,-0.03 -0.19,-0.04c-0.05,-0.02 -0.09,-0.05 -0.1,-0.08c-0.02,-0.04 -0.04,-0.08 -0.04,-0.11l0,-7.54c0,-0.04 0.02,-0.08 0.04,-0.11c0.01,-0.04 0.05,-0.06 0.11,-0.09c0.05,-0.02 0.12,-0.03 0.21,-0.04c0.09,-0.01 0.2,-0.02 0.32,-0.02c0.27,0 0.46,0.03 0.56,0.07c0.1,0.04 0.15,0.1 0.15,0.19l0,4.35c0,0.22 -0.01,0.43 -0.02,0.65c-0.01,0.21 -0.03,0.43 -0.04,0.64c0.13,-0.21 0.25,-0.42 0.38,-0.63c0.14,-0.2 0.28,-0.4 0.43,-0.59l3.23,-4.42c0.04,-0.05 0.07,-0.09 0.11,-0.12c0.03,-0.04 0.08,-0.06 0.13,-0.08c0.05,-0.02 0.12,-0.03 0.19,-0.04c0.07,-0.01 0.17,-0.02 0.28,-0.02c0.12,0 0.22,0.01 0.3,0.02c0.08,0.01 0.15,0.02 0.19,0.04c0.05,0.03 0.08,0.05 0.1,0.09c0.02,0.03 0.03,0.07 0.03,0.11l0,7.54z" fill="white" fill-rule="evenodd" id="svg_43"/>
   <path clip-rule="evenodd" d="m181.57,66.24c0,0.04 -0.01,0.08 -0.03,0.12c-0.02,0.03 -0.05,0.06 -0.1,0.08c-0.05,0.01 -0.12,0.03 -0.21,0.04c-0.09,0.01 -0.21,0.02 -0.35,0.02c-0.13,0 -0.25,-0.01 -0.34,-0.02c-0.08,-0.01 -0.16,-0.03 -0.21,-0.04c-0.05,-0.02 -0.09,-0.05 -0.11,-0.08c-0.01,-0.04 -0.03,-0.08 -0.03,-0.12l0,-3.17l-0.79,0c-0.34,0 -0.62,0.03 -0.81,0.08c-0.19,0.06 -0.36,0.15 -0.52,0.28c-0.15,0.13 -0.29,0.3 -0.41,0.51c-0.12,0.2 -0.24,0.45 -0.35,0.74l-0.61,1.47c-0.03,0.08 -0.06,0.13 -0.09,0.18c-0.04,0.05 -0.09,0.08 -0.15,0.11c-0.06,0.02 -0.14,0.04 -0.24,0.04c-0.1,0.01 -0.22,0.02 -0.36,0.02c-0.11,0 -0.2,0 -0.29,-0.01c-0.08,-0.01 -0.14,-0.02 -0.2,-0.03c-0.06,-0.01 -0.1,-0.04 -0.12,-0.07c-0.03,-0.03 -0.05,-0.07 -0.05,-0.11c0,-0.04 0.02,-0.1 0.05,-0.19c0.03,-0.09 0.09,-0.24 0.19,-0.45l0.6,-1.42c0.16,-0.35 0.35,-0.66 0.58,-0.92c0.22,-0.26 0.49,-0.45 0.78,-0.57c-0.54,-0.1 -0.97,-0.32 -1.29,-0.65c-0.32,-0.33 -0.48,-0.77 -0.48,-1.32c0,-0.36 0.08,-0.69 0.23,-0.98c0.14,-0.29 0.37,-0.54 0.66,-0.74c0.29,-0.21 0.65,-0.36 1.08,-0.47c0.43,-0.11 0.91,-0.16 1.47,-0.16c0.13,0 0.28,0 0.46,0c0.18,0.01 0.35,0.02 0.54,0.03c0.19,0.01 0.37,0.02 0.55,0.04c0.17,0.01 0.32,0.02 0.45,0.03c0.17,0.02 0.29,0.08 0.38,0.19c0.08,0.1 0.12,0.23 0.12,0.39l0,7.15zm-1.38,-6.72c-0.2,-0.03 -0.4,-0.05 -0.62,-0.06c-0.21,-0.01 -0.4,-0.01 -0.58,-0.01c-0.38,0 -0.69,0.03 -0.95,0.1c-0.25,0.06 -0.45,0.15 -0.61,0.27c-0.15,0.12 -0.26,0.26 -0.32,0.42c-0.07,0.17 -0.1,0.34 -0.1,0.54c0,0.2 0.04,0.38 0.11,0.54c0.08,0.16 0.19,0.29 0.35,0.4c0.15,0.11 0.34,0.19 0.58,0.25c0.24,0.06 0.58,0.09 1.01,0.09l1.13,0l0,-2.54z" fill="white" fill-rule="evenodd" id="svg_44"/>
  </symbol>
  <symbol height="285.17" id="svg_17" width="410.44" xmlns="http://www.w3.org/2000/svg" xmlns:cc="http://web.resource.org/cc/" xmlns:dc="http://purl.org/dc/elements/1.1/" xmlns:inkscape="http://www.inkscape.org/namespaces/inkscape" xmlns:rdf="http://www.w3.org/1999/02/22-rdf-syntax-ns#" xmlns:sodipodi="http://sodipodi.sourceforge.net/DTD/sodipodi-0.dtd" xmlns:svg="http://www.w3.org/2000/svg">
   <metadata id="svg_16">image/svg+xml</metadata>
   <g id="svg_4" transform="translate(-8.9025329,-24.385462)">
    <path d="m234.1,28.78c-28.1,7.74 -56.9,23.12 -77.16,38.01c-20.27,14.89 -73.19,52.42 -85.28,64.31c-11.71,11.53 -25.55,15.55 -31.61,29.75c-2.33,5.48 15.84,22.01 19.4,23.72c9.24,4.46 24.3,-3.44 31.18,-3.91c22.3,-1.53 45.16,-4.5 67.76,10.79c-4.18,4.22 2.45,-0.32 -6.09,36.7c-3.01,13.05 -9.6,46.92 -1.51,53.38c8.04,6.42 12.95,-18.61 20.94,-14.78c-0.01,0.01 0,0.02 -0.01,0.03c0,0 0,0.02 0,0.02c0,0.01 -0.01,0.03 0,0.03c0,0 0.02,0 0.02,0.01c0.02,0 0.08,0 0.13,-0.01c0.01,0.01 0.03,0.01 0.05,0.01c0.06,0.03 0.11,0.06 0.16,0.09l0.05,-0.13c3.78,-0.97 33.26,-13.96 60.18,-8.74c15.17,2.94 39.37,-5.31 53.29,-9.62c22.07,-6.82 53.07,-12.99 72.73,-13.35c14.48,-0.26 27.58,-8.46 41.52,-9.41c8.22,-0.56 0.59,-27.07 0.42,-29.87c-0.81,-13.45 -17.56,-34.13 -26.19,-52.5c-8.62,-18.37 -23.08,-41.7 -39,-59.99c-15.92,-18.29 -37.4,-41.97 -52.53,-49.26c-15.12,-7.28 -17.95,-13.67 -48.45,-5.28z" fill="#d00000" fill-rule="evenodd" id="svg_14" stroke="#000000" stroke-width="0.83px"/>
    <path d="m166.96,93.34c-18.24,4.42 -33.85,62.7 -56.32,72.83c-14.7,6.62 -54.75,16.69 -51.19,18.4c9.24,4.46 24.3,-3.44 31.18,-3.91c22.3,-1.53 45.16,-4.5 67.76,10.79c-4.18,4.22 2.45,-0.32 -6.09,36.7c-3.01,13.05 -9.6,46.92 -1.51,53.38c8.04,6.42 12.95,-18.61 20.94,-14.78c-0.01,0.01 0,0.02 -0.01,0.03c0,0 0,0.02 0,0.02c0,0.01 -0.01,0.03 0,0.03c0,0 0.02,0 0.02,0.01c0.02,0 0.08,0 0.13,-0.01c0.01,0.01 0.03,0.01 0.05,0.01c0.06,0.03 0.11,0.06 0.16,0.09l0.05,-0.13c3.78,-0.97 33.26,-13.96 60.18,-8.74c15.17,2.94 39.37,-5.31 53.29,-9.62c22.07,-6.82 53.07,-12.99 72.73,-13.35c14.48,-0.26 27.58,-8.46 41.52,-9.41c8.22,-0.56 -51.09,4.52 -27.45,-12.58c10.48,-7.58 -104.99,15.81 -149.32,-34.77c-43.89,-50.09 -37.45,-89.51 -56.12,-84.99z" fill="#0e0000" fill-rule="evenodd" id="svg_13" opacity="0.1" stroke-width="1px"/>
    <path d="m41.92,154.63c3.55,2.36 27.4,32.52 30.22,30.41c0.34,-3.33 -2.44,-4.64 -4.4,-5.02c2.62,-3.33 3.11,-6.82 -1.43,-7.11c-5.04,-0.89 -10.54,-1.52 -5.13,-6.94c2.49,-3.04 -0.17,-8.44 -1.71,-11.18c-4.02,-2.18 -7.06,-6.11 -8.71,-8.79" fill="#000000" fill-rule="evenodd" id="svg_12" opacity="0.27" stroke="#000000" stroke-miterlimit="4" stroke-width="0.83"/>
    <path d="m365.6,219.59c-7.45,-2.65 -16.8,-5.7 -23.39,-5.29c-4.53,-3.82 -8,0.89 -11.92,2.14c-0.66,-7.36 -11.51,3.11 -16.29,3.17c-3.4,1.95 -1.06,-5.8 -7.14,-2.85c-7.55,0.71 -12.23,1.23 -17.83,3.66c-1.35,8.01 -13.45,12.53 -15.27,3.74c-6.59,2.88 -18.86,8.45 -18.94,-0.64c-10.57,8.2 -10.9,15.6 -21.22,19.56c0.92,-7.1 -22.37,-10.91 -25.54,-3.47c-6.39,2.57 1.33,-9.32 -7.91,-6.05c-10.4,-3.02 -4.34,17.93 -25.55,9.37c-11.81,-0.38 -5.27,16.71 -13.06,23.88c-2.08,7.53 -11.08,-2.63 -14.73,-2.06c0.85,11.92 3.41,7.88 0.72,15.99c-1.61,10.17 -3.75,15.26 7.43,17.38c3.62,-4.91 -0.18,-2.83 0.63,6.21c6.46,-1.88 14.94,-12.64 14.07,-1.58c4.39,-6.67 18.26,-10.15 18.08,-17.34c7.03,0.74 14.91,8.58 20.83,-0.95c5.95,-7.04 14.51,-10.31 14.6,-4.87c7.23,6.76 7.95,5.39 15.48,3.67c-1.94,-8.71 17.59,-0.6 7.28,-9.27c4.1,-4.11 15.19,-6.5 21.59,-5.08c5.67,8.26 22.95,8.94 25.64,-1.74c0.56,-8.41 13.68,-11.28 18.58,-5.47c8.53,-7.48 21.99,3.39 29.33,-2.35c-6.6,-8.56 9.32,-14.16 12.3,-7.59c5.84,-3.14 11.27,-14.42 17.66,-6.34c7.35,-2.4 16.33,-5.73 22.55,-8.22c4.66,7.69 16.74,-0.23 11.51,-9.54c-2.84,-6.65 9.31,3.28 6,-5.16c-3.76,-9.08 -9.04,-21.69 -15.51,-21.28c-8.82,-2.2 -14.04,3.75 -14.41,12.16c-0.11,-6.14 -10.52,-0.15 -15.98,2.08l-2.99,0.71l-3.58,-2.52" fill="#000000" fill-rule="evenodd" id="svg_11" opacity="0.29" stroke="#000000" stroke-width="0.6px"/>
    <path d="m370.52,221.83c-7.45,-2.64 -14.35,-3.01 -20.94,-2.61c-4.53,-3.82 -9.9,-2.56 -13.82,-1.31c-0.65,-7.36 -9.61,6.57 -14.39,6.63c-3.4,1.95 -1.06,-5.8 -7.13,-2.86c-7.56,0.72 -16.32,-3.97 -21.93,-1.54c-1.35,8.01 -13.45,12.53 -15.26,3.74c-6.6,2.88 -14.78,13.65 -14.86,4.57c-12.39,-0.54 -17.69,11.63 -28.01,15.59c0.92,-7.1 -15.58,-6.95 -18.75,0.5c-6.39,2.57 -1.7,-13.44 -10.93,-10.17c-10.4,-3.03 -10.12,17.69 -22.53,13.48c-11.81,-0.38 -10.16,11.36 -17.95,18.52c-2.08,7.53 -6.19,2.74 -9.84,3.3c6,8.52 -18.39,6.74 -11.15,19.87c-1.6,10.17 0.85,17.47 12.03,19.59c3.62,-4.9 7.09,-8.92 7.9,0.13c6.46,-1.88 14.95,-12.64 14.08,-1.58c4.38,-6.68 18.25,-10.15 18.08,-17.34c7.02,0.74 14.9,8.58 20.82,-0.95c5.96,-7.05 6.94,-1.3 7.03,4.14c7.23,6.75 15.53,-3.63 23.05,-5.35c-1.94,-8.71 17.6,-0.59 7.28,-9.27c4.1,-4.1 15.19,-6.5 21.6,-5.07c5.62,5.33 22.94,8.93 25.63,-1.75c0.56,-8.4 13.68,-11.28 18.59,-5.47c8.52,-7.48 21.98,3.39 29.32,-2.34c-6.6,-8.57 9.32,-14.16 12.3,-7.6c5.84,-3.13 11.28,-14.42 17.67,-6.34c7.35,-2.39 16.32,-5.72 22.54,-8.22c4.66,7.69 16.75,-0.22 11.51,-9.53c-2.84,-6.65 9.31,3.27 6,-5.17c0.08,-9.65 -3.56,-24.6 -15.51,-21.27c-8.81,-2.2 -14.04,3.74 -14.41,12.16c-0.11,-6.14 -14.02,-3.92 -19.48,-1.7l-1.79,0.95l-1.28,1.01" fill="#ffffff" fill-rule="evenodd" id="svg_10" stroke="#000000" stroke-width="0.6px"/>
    <path d="m155.68,210.89c3.14,-40.85 23.79,-59.45 20.15,-92.12c-2.15,-19.31 -19.54,-4.68 -13.87,13.44" fill="none" fill-opacity="0.75" fill-rule="evenodd" id="svg_9" stroke="#000000" stroke-width="0.83px"/>
    <path d="m163.98,266.62c-2.08,7.53 -6.2,2.74 -9.84,3.3c6,8.51 -18.39,6.74 -11.15,19.87c-1.61,10.17 0.85,17.47 12.03,19.59c3.62,-4.9 7.09,-8.92 7.9,0.13c6.46,-1.88 14.94,-12.64 14.07,-1.58c4.38,-6.68 18.26,-10.16 18.08,-17.34c7.02,0.73 14.57,7.35 20.5,-2.19c5.95,-7.04 7.27,-0.06 7.36,5.38c7.23,6.75 15.52,-3.63 23.04,-5.35c-1.93,-8.71 8.87,-1.54 7.29,-9.27c-1.04,-5.06 33.64,-3.56 28.65,-8.51c-14.9,-14.79 -38.19,7.49 -41.56,6.07c-3.36,-1.42 -7.09,-0.56 -2.38,-2.72c4.71,-2.16 -6.74,1.39 -16.28,-1.99c-9.53,-3.39 -16.51,0.89 -17.15,9.34c-7.18,-4.47 -7.7,0.61 -18.88,3.72c7.12,-10.43 -12.6,-2.77 -12.6,-2.77c0,0 3.43,-11.43 -2.74,-9.92c3.32,-5.97 -0.37,-7.8 -0.37,-7.8c0,0 1.82,-5.12 -5.97,2.04z" fill="#000000" fill-rule="evenodd" id="svg_8" opacity="0.11" stroke-width="0.72px"/>
    <path d="m46.94,146.24c-1.3,-2.31 -5.35,-2.95 -5.87,-4.92c0.9,-2.28 -2.66,-0.62 -3.37,-1.88c-4.19,3.43 -9.98,4.92 -13.09,9.64c1.65,-0.36 1.65,-2.78 -0.16,-0.99c-3.4,1.69 -6.68,4.65 -5.41,8.89c0.31,2.17 -2.42,4.04 0.92,4.56c-0.44,3.48 -5.66,3.33 -5.66,6.4c1.16,3.35 0.65,6.84 -2.1,9.19c-2.72,2.54 -1.6,6.28 -1.5,9.37c-1.37,2.07 -2.14,3.99 -0.33,5.95c0.38,3.55 3.32,5.9 3.34,9.59c1.24,1.94 3.73,1.82 5,4.01c3.71,0.31 3.98,5.49 7.52,6.21c3.03,0.99 6.63,0.3 9.36,1.03c2.25,1.82 4.82,3.09 7.65,3.6c3.55,2.26 4.75,-3.37 6.9,-5.18c0.11,-2.83 2.15,-3.05 3.51,-0.67c3.1,2.11 6.32,-1.51 8.54,-3.43c2.17,-2.37 4.61,-4.42 7.03,-6.5c3.44,-3.88 4.66,-9.43 4.46,-14.53c0.35,-3.2 -2.63,-3.38 -4.59,-3.74c0.89,-2.69 3.12,-6.54 -1.43,-6.83c-2.61,-0.68 -8.52,-3.6 -5.13,-6.66c2.5,-2.92 -0.94,-6.85 -2.47,-9.49c-2.66,-2.11 -4.2,-5.06 -5.86,-7.63c-3.19,-0.51 -6.19,-2.45 -7.01,-5.84c-0.85,-2.7 -0.23,-0.7 0.04,0.61" fill="#ffffff" fill-rule="evenodd" id="svg_7" stroke="#000000" stroke-miterlimit="4" stroke-width="0.81"/>
    <path d="m20.4,181.85c-1.6,-1.97 4.73,-1.05 4.2,-3.01c0.91,-2.28 -0.17,-2.38 -0.88,-3.63c-4.19,3.43 -3.2,-4.71 -6.31,0.02c1.65,-0.37 1.38,-6.34 -0.43,-4.55c-3.4,1.69 -2.68,-5.81 -2.68,-2.74c1.16,3.35 0.65,6.84 -2.1,9.19c-2.72,2.54 -1.6,6.28 -1.5,9.37c-1.37,2.07 -2.14,3.99 -0.33,5.95c0.38,3.55 3.32,5.9 3.34,9.59c1.24,1.94 3.73,1.82 5,4.01c3.71,0.31 3.98,5.49 7.52,6.21c3.03,0.99 6.63,0.3 9.36,1.03c2.25,1.82 4.82,3.09 7.65,3.6c3.55,2.26 4.75,-3.37 6.9,-5.18c0.11,-2.83 2.15,-3.05 3.51,-0.67c3.1,2.11 6.32,-1.51 8.54,-3.43c2.17,-2.37 -8.35,0.36 -5.93,-1.72c3.44,-3.88 -7.75,5.42 -7.94,0.31c0.34,-3.2 -12.37,4.07 -9.68,-1.55c0.88,-2.69 1.54,-0.75 -3.01,-1.04c-2.61,-0.68 -9.8,-5.49 -6.42,-8.56c2.5,-2.92 -1.34,0.46 -2.87,-2.18c-2.66,-2.11 -0.96,-0.95 -2.62,-3.52c-3.19,-0.51 -1.79,-1.82 -2.6,-5.21c-1.39,3.98 -0.98,-3.61 -0.72,-2.29z" fill="#000000" fill-rule="evenodd" id="svg_6" opacity="0.1" stroke-miterlimit="4"/>
    <path d="m157.67,192.36c0,0 13.14,-33.51 16.3,-46.88c2.96,-12.51 2.58,-31.6 -1.85,-35.14c-4.43,-3.53 -10.25,2.58 -10.86,9.82c-0.61,7.24 -1.13,9.06 1.84,22.87c1.35,6.25 0.68,21.09 -1.15,28.09c-1.83,7 -5.83,22.95 -4.28,21.24z" fill="#000000" fill-opacity="0.22" fill-rule="evenodd" id="svg_5" stroke-width="1px"/>
   </g>
  </symbol>
 </defs>
 <g class="layer">
  <title>Layer 1</title>
  <use fill="#7f7f7f" id="svg_2" transform="matrix(1.21888 0 0 1.18782 -167.13 -160.705)" x="168.82" xlink:href="#svg_1" y="145.51"/>
  <use id="svg_18" transform="rotate(-5.34647 38.9638 37.0658) matrix(0.13567 -0.0361562 0.0361562 0.13567 32.143 51.3442)" x="-132.14" xlink:href="#svg_17" y="-228.53"/>
 </g>
</svg>