<svg width="200" height="70" viewBox="0 0 200 70" fill="none" xmlns="http://www.w3.org/2000/svg">
<path fill-rule="evenodd" clip-rule="evenodd" d="M6.91577 37.7709C6.94358 39.9788 7.0801 41.7625 7.32285 43.1167C7.77545 45.6777 8.70947 46.0443 11.2391 46.415C12.604 46.6153 14.2142 46.7362 16.2598 46.7771C17.3865 46.7988 18.5017 46.7902 19.6289 46.7771C21.5754 46.7519 23.1719 46.6835 24.418 46.5718C25.924 46.4363 26.9092 46.2532 27.3704 46.0236C28.3409 45.5265 28.7804 44.6607 28.7804 43.363V40.0764H35.6971L35.692 43.3777C35.6915 46.7837 34.6896 49.6819 32.2 51.2477C31.0773 51.9552 29.2891 52.474 26.8404 52.8022C25.0295 53.0455 22.8382 53.1947 20.2681 53.2497C18.7708 53.2816 17.287 53.2806 15.7926 53.2427C13.0232 53.1724 10.6869 52.9585 8.78889 52.6024C7.98075 52.4508 7.24546 52.2723 6.58496 52.0669C5.17805 51.6305 4.08424 51.0635 3.3064 50.3667C1.25726 48.5319 0.159833 44.5247 0.0152398 38.3479C-0.0141423 37.0421 -0.000427893 35.7464 0.0511066 34.4402C0.145185 32.1083 0.3783 30.1234 0.750071 28.4895C0.922471 27.7318 1.12481 27.0455 1.35486 26.4346C2.00423 24.7097 2.91701 23.4136 4.47964 22.5417C4.91203 22.3005 5.40014 22.08 5.93967 21.8827C8.54161 20.934 12.5338 20.4587 17.9125 20.4587C25.3167 20.4587 30.0851 21.1271 32.2167 22.4633C35.1524 24.3031 35.6971 27.5316 35.6971 30.667V33.6563H28.7804L28.7854 30.6523C28.7849 27.7075 26.8491 27.4451 24.4732 27.2205C23.2261 27.1022 21.6831 27.0289 19.8464 26.9985C18.5917 26.9794 17.3486 26.9813 16.094 27.0061C14.0326 27.0481 12.3405 27.1649 11.0191 27.3556C8.45558 27.7258 7.77545 28.0605 7.32081 30.6467C7.11903 31.7973 6.99204 33.2598 6.94097 35.0328C6.91521 35.9472 6.90557 36.861 6.91577 37.7709Z" fill="white"/>
<path fill-rule="evenodd" clip-rule="evenodd" d="M38.5829 20.889H69.3425H70.6068V22.1533V26.111V27.3702H69.3425H57.4375V51.5794V52.8437H56.1782H51.7902H50.5309V51.5794V27.3702H38.5829H37.3186V26.111V22.1533V20.889H38.5829Z" fill="white"/>
<path fill-rule="evenodd" clip-rule="evenodd" d="M73.9677 20.889H102.146H103.41V22.1533V26.111V27.3753H102.146H79.62V33.408H101.329H102.593V34.6723V38.6301V39.8943H101.329H79.62V46.3573H102.146H103.41V47.6216V51.5794V52.8437H102.146H73.9677H72.7034V51.5794V22.1533V20.889H73.9677Z" fill="white"/>
<path fill-rule="evenodd" clip-rule="evenodd" d="M105.841 51.5794V22.1533V20.889H107.105H131.111C132.564 20.889 133.876 21.111 135.045 21.5535C136.247 22.0086 137.284 22.6944 138.155 23.6072L138.164 23.6162C138.407 23.8722 138.637 24.1509 138.851 24.4507C139.069 24.7557 139.262 25.0672 139.429 25.3812V25.3863C140.289 27.0097 140.721 29.0588 140.721 31.5318C140.721 35.0273 139.846 37.6667 138.097 39.4498L138.092 39.4599L138.086 39.4659L138.083 39.4634C137.845 39.7051 137.584 39.9378 137.305 40.1577C137.012 40.3894 136.724 40.5901 136.441 40.7601H136.436C134.918 41.6739 133.085 42.1316 130.939 42.1316H112.753V51.5794V52.8437H111.493H107.105H105.841V51.5794ZM112.758 35.6448H130.939C131.401 35.6448 131.804 35.5714 132.144 35.4258C132.465 35.2883 132.749 35.0783 132.993 34.7992L132.998 34.7916L133.003 34.7866C133.07 34.7087 133.132 34.6268 133.185 34.5428C133.244 34.4503 133.3 34.3465 133.352 34.2353C133.653 33.591 133.805 32.6889 133.805 31.5318V31.5161H133.81C133.809 30.7089 133.73 30.0115 133.573 29.427C133.539 29.2975 133.513 29.2105 133.501 29.1716H133.496C133.369 28.7867 133.203 28.4727 133.004 28.2335C132.767 27.9502 132.485 27.7379 132.16 27.5998C131.81 27.4501 131.388 27.3753 130.896 27.3753H112.758V35.6448Z" fill="white"/>
<path fill-rule="evenodd" clip-rule="evenodd" d="M135.98 15.3132C142.653 18.492 147.524 25.3724 145.521 35.0413C144.333 40.7813 140.529 44.8787 136.869 48.7399L138.746 48.7459L178.941 9.37298L168.707 13.9512C167.729 17.0929 166.181 19.3072 164.013 20.4944C160.524 22.4035 157.258 20.9917 154.409 18.528L132.979 0L135.98 15.3132Z" fill="#0DBCDA"/>
<path fill-rule="evenodd" clip-rule="evenodd" d="M161.068 29.4663L170.682 20.1118L180.559 20.1237L165.916 34.0815L161.068 29.4663Z" fill="white"/>
<path fill-rule="evenodd" clip-rule="evenodd" d="M159.311 31.1181L181.572 52.8436H172.007L159.319 40.2177L146.676 52.8436H137.249L159.311 31.1181ZM173.74 48.3576C174.493 48.3576 175.104 48.9687 175.104 49.7223C175.104 50.4759 174.493 51.0873 173.74 51.0873C172.986 51.0873 172.375 50.4759 172.375 49.7223C172.375 48.9687 172.986 48.3576 173.74 48.3576ZM144.817 48.3576C145.571 48.3576 146.182 48.9687 146.182 49.7223C146.182 50.4759 145.571 51.0873 144.817 51.0873C144.064 51.0873 143.453 50.4759 143.453 49.7223C143.453 48.9687 144.064 48.3576 144.817 48.3576ZM159.41 34.9203C160.164 34.9203 160.775 35.531 160.775 36.2847C160.775 37.0383 160.164 37.6497 159.41 37.6497C158.656 37.6497 158.046 37.0383 158.046 36.2847C158.046 35.531 158.656 34.9203 159.41 34.9203Z" fill="white"/>
<path fill-rule="evenodd" clip-rule="evenodd" d="M187.484 28.1918V21.0655H184.822V20.1118H191.226V21.0655H188.552V28.1918H187.484ZM192.289 28.1918V20.1118H193.899L195.81 25.8328C195.987 26.3653 196.117 26.7639 196.196 27.0291C196.288 26.7359 196.431 26.3032 196.627 25.733L198.561 20.1118H200V28.1918H198.969V21.4289L196.621 28.1918H195.656L193.32 21.314V28.1918H192.289Z" fill="white"/>
<path fill-rule="evenodd" clip-rule="evenodd" d="M7.37586 65.0917C7.37586 65.1886 7.37271 65.2686 7.36715 65.3399C7.36158 65.4085 7.3501 65.4683 7.3386 65.5141C7.32442 65.5624 7.30736 65.6053 7.28715 65.6397C7.26732 65.6765 7.22459 65.7308 7.15332 65.7993C7.08482 65.8678 6.96479 65.9564 6.79924 66.0591C6.63102 66.1616 6.44249 66.253 6.23422 66.333C6.02595 66.4158 5.79785 66.4811 5.55232 66.5299C5.30679 66.5813 5.05301 66.6071 4.79042 66.6071C4.25107 66.6071 3.7715 66.5156 3.35496 66.3386C2.93563 66.1589 2.58713 65.8991 2.3048 65.557C2.02248 65.2144 1.80818 64.7919 1.6597 64.2953C1.51436 63.796 1.43994 63.2198 1.43994 62.5692C1.43994 61.8271 1.52864 61.1907 1.71123 60.6569C1.89096 60.1263 2.13927 59.6895 2.45608 59.3502C2.77011 59.0104 3.14076 58.7566 3.56601 58.5939C3.99414 58.4283 4.4534 58.3455 4.95002 58.3455C5.18999 58.3455 5.42403 58.3685 5.64936 58.414C5.87468 58.4568 6.08295 58.517 6.27138 58.5883C6.45954 58.6596 6.63101 58.7451 6.77635 58.8393C6.92483 58.9336 7.03328 59.0135 7.09909 59.0817C7.16759 59.1474 7.2131 59.2017 7.23608 59.2416C7.26139 59.2789 7.28438 59.3244 7.29865 59.3787C7.31571 59.433 7.32711 59.4899 7.33313 59.5584C7.3386 59.6242 7.34138 59.7097 7.34138 59.8096C7.34138 60.0266 7.31571 60.1778 7.26732 60.2633C7.21588 60.3516 7.1561 60.3944 7.08167 60.3944C6.9989 60.3944 6.90186 60.3488 6.79379 60.2573C6.68525 60.1635 6.54825 60.0634 6.37993 59.9521C6.21439 59.8408 6.01168 59.7383 5.77486 59.6468C5.53804 59.5525 5.25849 59.5069 4.93297 59.5069C4.2709 59.5069 3.76278 59.7639 3.40918 60.2716C3.0552 60.7825 2.87818 61.5218 2.87818 62.4919C2.87818 62.9771 2.92415 63.4023 3.01517 63.7674C3.10665 64.1329 3.24374 64.4382 3.42068 64.6834C3.60049 64.9289 3.81711 65.1114 4.07682 65.2315C4.33662 65.3514 4.63322 65.4112 4.96745 65.4112C5.28379 65.4112 5.5638 65.3597 5.8034 65.2599C6.04291 65.1602 6.25128 65.0488 6.42544 64.9289C6.60248 64.8093 6.75059 64.7008 6.87053 64.6037C6.99056 64.5067 7.08167 64.4581 7.15016 64.4581C7.18733 64.4581 7.22182 64.4696 7.25037 64.4894C7.27882 64.5123 7.30143 64.5495 7.32163 64.6037C7.34138 64.658 7.35287 64.7233 7.36159 64.8033C7.36993 64.8861 7.37586 64.9803 7.37586 65.0917Z" fill="white"/>
<path fill-rule="evenodd" clip-rule="evenodd" d="M14.906 59.1249C14.906 59.2361 14.9005 59.33 14.889 59.4072C14.8775 59.4872 14.8605 59.5498 14.8348 59.6012C14.809 59.65 14.7805 59.6867 14.7464 59.7125C14.7152 59.7383 14.672 59.7497 14.6209 59.7497H12.3633V66.2388C12.3633 66.2816 12.3523 66.3216 12.3321 66.3501C12.3095 66.3814 12.2723 66.4071 12.2236 66.4301C12.1725 66.4527 12.104 66.4701 12.0125 66.4811C11.9242 66.4926 11.8098 66.4986 11.67 66.4986C11.5362 66.4986 11.4249 66.4926 11.3362 66.4811C11.2478 66.4701 11.1766 66.4527 11.1223 66.4301C11.0709 66.4071 11.0336 66.3814 11.0138 66.3501C10.9937 66.3216 10.9853 66.2816 10.9853 66.2388V59.7497H8.72819C8.68222 59.7497 8.64228 59.7383 8.60539 59.7125C8.571 59.6867 8.53966 59.65 8.51992 59.6012C8.49693 59.5498 8.47988 59.4844 8.46561 59.4044C8.45134 59.3216 8.44263 59.2274 8.44263 59.1162C8.44263 59.0136 8.45134 58.9248 8.46561 58.848C8.47988 58.7708 8.49693 58.7051 8.52261 58.6509C8.54837 58.5998 8.57693 58.5597 8.61094 58.534C8.64542 58.5083 8.68222 58.4968 8.72819 58.4968H14.6209C14.6664 58.4968 14.7065 58.5083 14.7436 58.534C14.7805 58.5597 14.809 58.5998 14.832 58.6509C14.8518 58.7051 14.8719 58.7708 14.8862 58.8508C14.9005 58.9336 14.906 59.0219 14.906 59.1249Z" fill="white"/>
<path fill-rule="evenodd" clip-rule="evenodd" d="M23.6237 62.3577C23.6237 63.017 23.5525 63.6078 23.4099 64.1297C23.2698 64.6548 23.0587 65.1004 22.7846 65.4655C22.5079 65.8306 22.1657 66.1104 21.7602 66.3101C21.3524 66.5069 20.8871 66.6071 20.362 66.6071C20.1395 66.6071 19.9339 66.5841 19.7459 66.5386C19.5545 66.4958 19.3689 66.4241 19.1891 66.3302C19.0065 66.2361 18.8268 66.116 18.6497 65.9707C18.47 65.825 18.2818 65.6566 18.0819 65.4599V69.2237C18.0819 69.2665 18.0704 69.3065 18.0478 69.3406C18.0248 69.3719 17.9877 69.4008 17.9394 69.4233C17.8878 69.4463 17.8193 69.4634 17.731 69.4749C17.6396 69.4836 17.5255 69.4891 17.3857 69.4891C17.2543 69.4891 17.143 69.4836 17.0519 69.4749C16.9632 69.4634 16.8919 69.4463 16.8408 69.4233C16.7866 69.4008 16.7493 69.3719 16.7324 69.3406C16.7122 69.3065 16.7007 69.2665 16.7007 69.2237V58.7138C16.7007 58.6623 16.7094 58.6223 16.7264 58.5939C16.7439 58.5625 16.7779 58.5368 16.8266 58.5139C16.8777 58.4912 16.9407 58.477 17.0206 58.4683C17.0975 58.4596 17.1917 58.454 17.303 58.454C17.4198 58.454 17.5168 58.4596 17.5912 58.4683C17.6681 58.477 17.731 58.4912 17.7794 58.5139C17.8308 58.5368 17.8653 58.5625 17.885 58.5939C17.9052 58.6223 17.9136 58.6623 17.9136 58.7138V59.7268C18.1421 59.49 18.3618 59.2871 18.5757 59.1161C18.7867 58.9419 18.9982 58.7993 19.2148 58.6852C19.429 58.5712 19.6488 58.4825 19.8741 58.4255C20.0995 58.3657 20.3394 58.3372 20.5905 58.3372C21.1353 58.3372 21.6006 58.4426 21.9859 58.6568C22.3709 58.8678 22.6821 59.1561 22.9245 59.524C23.1672 59.8922 23.3442 60.3203 23.4555 60.8082C23.5695 61.2964 23.6237 61.8128 23.6237 62.3577ZM22.1685 62.5177C22.1685 62.1324 22.14 61.7613 22.083 61.4017C22.0228 61.0422 21.923 60.7226 21.7804 60.443C21.6375 60.1663 21.4466 59.9437 21.2066 59.7754C20.9671 59.6099 20.67 59.524 20.3137 59.524C20.1339 59.524 19.9597 59.5497 19.7854 59.604C19.6143 59.6583 19.4374 59.7409 19.2607 59.855C19.081 59.9695 18.8953 60.1208 18.6985 60.3061C18.5044 60.4946 18.2989 60.7226 18.0819 60.9967V63.9899C18.4589 64.4525 18.8184 64.8061 19.1605 65.0516C19.5003 65.2971 19.8571 65.4199 20.2309 65.4199C20.5762 65.4199 20.8728 65.3344 21.1212 65.1689C21.3666 65.0002 21.569 64.7776 21.7234 64.498C21.8747 64.2212 21.9887 63.9072 22.06 63.5619C22.134 63.2166 22.1685 62.8685 22.1685 62.5177Z" fill="white"/>
<path fill-rule="evenodd" clip-rule="evenodd" d="M33.1259 62.3921C33.1259 63.0055 33.0464 63.5706 32.8837 64.0842C32.7237 64.6009 32.4813 65.0461 32.1617 65.4199C31.8422 65.7937 31.4395 66.0848 30.9575 66.2931C30.4753 66.5013 29.9157 66.6071 29.2821 66.6071C28.6632 66.6071 28.1239 66.5128 27.6641 66.3302C27.2048 66.1474 26.8195 65.8792 26.5141 65.5284C26.2088 65.1771 25.9807 64.749 25.8295 64.247C25.6782 63.7476 25.6038 63.177 25.6038 62.5433C25.6038 61.9296 25.6838 61.3649 25.841 60.851C26.0006 60.3346 26.2402 59.8895 26.5601 59.5156C26.8796 59.1418 27.282 58.8535 27.7611 58.6481C28.2406 58.4398 28.8002 58.3372 29.4393 58.3372C30.0586 58.3372 30.598 58.4283 31.0573 58.6139C31.5167 58.7965 31.902 59.0646 32.2073 59.4159C32.5154 59.7667 32.7439 60.1948 32.8979 60.6942C33.052 61.1963 33.1259 61.7614 33.1259 62.3921ZM31.6735 62.4832C31.6735 62.0782 31.6335 61.6928 31.5594 61.3304C31.4854 60.9681 31.3599 60.6513 31.1884 60.3774C31.0146 60.1034 30.7806 59.8895 30.4868 59.7295C30.1897 59.5699 29.8214 59.49 29.3823 59.49C28.974 59.49 28.6259 59.564 28.3321 59.7097C28.0411 59.8522 27.7983 60.0577 27.6103 60.3231C27.419 60.5884 27.2792 60.9024 27.1877 61.2647C27.0962 61.6275 27.0507 62.0211 27.0507 62.452C27.0507 62.863 27.0879 63.251 27.1619 63.6133C27.236 63.9757 27.362 64.2925 27.5385 64.561C27.7128 64.8318 27.9496 65.046 28.2434 65.2056C28.5404 65.3656 28.9083 65.4424 29.3478 65.4424C29.7502 65.4424 30.0982 65.3712 30.3925 65.2258C30.6891 65.0801 30.9318 64.8778 31.1199 64.6152C31.3112 64.3554 31.451 64.0415 31.5397 63.6791C31.6279 63.3168 31.6735 62.9199 31.6735 62.4832Z" fill="white"/>
<path fill-rule="evenodd" clip-rule="evenodd" d="M42.289 66.2475C42.289 66.2843 42.2775 66.3215 42.2546 66.3556C42.232 66.3873 42.1976 66.4158 42.1461 66.4356C42.0978 66.4527 42.0265 66.4701 41.9378 66.4811C41.8495 66.4926 41.7383 66.4985 41.604 66.4985C41.4698 66.4985 41.3584 66.4926 41.2702 66.4811C41.1787 66.4701 41.1075 66.4527 41.0504 66.4356C40.9961 66.4158 40.9562 66.3873 40.9336 66.3556C40.9134 66.3215 40.902 66.2843 40.902 66.2475V61.9154C40.902 61.6988 40.9079 61.4762 40.9161 61.2504C40.9276 61.0251 40.9419 60.8026 40.9593 60.5856C40.8307 60.8081 40.6908 61.0279 40.5368 61.2422C40.3828 61.4561 40.2288 61.6702 40.0747 61.8813L36.8783 66.2475C36.8414 66.2903 36.807 66.3302 36.7757 66.3643C36.7444 66.3956 36.7044 66.4241 36.6589 66.4443C36.6101 66.4614 36.5503 66.4756 36.4791 66.4843C36.4046 66.4926 36.3163 66.4985 36.2106 66.4985C36.0878 66.4985 35.9881 66.4926 35.9113 66.4811C35.8313 66.4701 35.7682 66.4527 35.7227 66.4356C35.6741 66.4158 35.64 66.3873 35.623 66.3556C35.6028 66.3215 35.5913 66.2843 35.5913 66.2475V58.7051C35.5913 58.6651 35.6028 58.631 35.623 58.5965C35.64 58.5625 35.6772 58.5368 35.7315 58.5139C35.7825 58.4912 35.8538 58.477 35.9425 58.4683C36.0336 58.4595 36.1421 58.4539 36.2708 58.4539C36.5361 58.4539 36.7214 58.4769 36.8213 58.517C36.9214 58.5597 36.9725 58.6223 36.9725 58.7051V63.0598C36.9725 63.2796 36.967 63.4934 36.9555 63.7104C36.944 63.9246 36.9297 64.1356 36.9127 64.3495C37.041 64.1356 37.1697 63.9302 37.3008 63.7247C37.4323 63.5223 37.5748 63.3223 37.7233 63.1283L40.9593 58.7051C40.9934 58.6596 41.0278 58.6223 41.0646 58.5883C41.0991 58.5538 41.1446 58.528 41.1989 58.5083C41.2504 58.4884 41.3129 58.477 41.3874 58.4683C41.4586 58.4595 41.5525 58.4539 41.6698 58.4539C41.7866 58.4539 41.8868 58.4595 41.9663 58.4683C42.0463 58.477 42.1121 58.4912 42.1604 58.5139C42.2063 58.5368 42.2404 58.5625 42.2606 58.5965C42.2803 58.631 42.289 58.6683 42.289 58.7138V66.2475Z" fill="white"/>
<path fill-rule="evenodd" clip-rule="evenodd" d="M50.5472 59.1249C50.5472 59.2361 50.5416 59.33 50.5301 59.4072C50.5186 59.4872 50.5017 59.5498 50.4759 59.6012C50.4501 59.65 50.4217 59.6867 50.3875 59.7125C50.3563 59.7383 50.3131 59.7497 50.2621 59.7497H48.0045V66.2388C48.0045 66.2816 47.9934 66.3216 47.9732 66.3501C47.9506 66.3814 47.9134 66.4071 47.8647 66.4301C47.8136 66.4527 47.7451 66.4701 47.6536 66.4811C47.5653 66.4926 47.4509 66.4986 47.3111 66.4986C47.1773 66.4986 47.066 66.4926 46.9773 66.4811C46.889 66.4701 46.8177 66.4527 46.7634 66.4301C46.712 66.4071 46.6747 66.3814 46.6549 66.3501C46.6348 66.3216 46.6265 66.2816 46.6265 66.2388V59.7497H44.3693C44.3233 59.7497 44.2834 59.7383 44.2465 59.7125C44.2121 59.6867 44.1808 59.65 44.161 59.6012C44.1381 59.5498 44.121 59.4844 44.1067 59.4044C44.0925 59.3216 44.0837 59.2274 44.0837 59.1162C44.0837 59.0136 44.0925 58.9248 44.1067 58.848C44.121 58.7708 44.1381 58.7051 44.1637 58.6509C44.1895 58.5998 44.2181 58.5597 44.2521 58.534C44.2866 58.5083 44.3233 58.4968 44.3693 58.4968H50.2621C50.3076 58.4968 50.3476 58.5083 50.3848 58.534C50.4217 58.5597 50.4501 58.5998 50.4731 58.6509C50.4929 58.7051 50.513 58.7708 50.5273 58.8508C50.5416 58.9336 50.5472 59.0219 50.5472 59.1249Z" fill="white"/>
<path fill-rule="evenodd" clip-rule="evenodd" d="M58.6115 62.1494C58.6115 62.3664 58.5573 62.5232 58.4488 62.6146C58.3403 62.7057 58.2175 62.7517 58.0777 62.7517H53.1437C53.1437 63.1711 53.1865 63.5449 53.2693 63.8819C53.352 64.2157 53.4922 64.5007 53.689 64.7407C53.883 64.9803 54.1368 65.1657 54.4481 65.2943C54.7617 65.4226 55.1415 65.4852 55.5953 65.4852C55.9517 65.4852 56.2685 65.4567 56.5484 65.397C56.8252 65.3399 57.0675 65.2741 57.2703 65.2001C57.4727 65.1288 57.6414 65.0631 57.7724 65.0061C57.904 64.9459 58.0009 64.9174 58.069 64.9174C58.1063 64.9174 58.1435 64.9261 58.172 64.9458C58.2032 64.9661 58.2262 64.9946 58.2433 65.0346C58.2603 65.0746 58.2745 65.1288 58.2832 65.1973C58.2888 65.2658 58.2947 65.3513 58.2947 65.4512C58.2947 65.5252 58.2919 65.5882 58.286 65.6397C58.2804 65.6939 58.2745 65.7394 58.2663 65.7823C58.2575 65.825 58.2433 65.8622 58.2234 65.8963C58.2032 65.9275 58.1776 65.962 58.149 65.9905C58.1178 66.0217 58.0263 66.0733 57.875 66.1418C57.7269 66.2103 57.5297 66.2788 57.2901 66.3473C57.0506 66.413 56.7737 66.4728 56.4597 66.5271C56.1457 66.5782 55.8091 66.6071 55.4524 66.6071C54.8334 66.6071 54.2909 66.5184 53.8259 66.3473C53.3607 66.173 52.9699 65.9165 52.6503 65.5767C52.3335 65.2374 52.0935 64.812 51.9311 64.2984C51.7711 63.7845 51.6885 63.1881 51.6885 62.509C51.6885 61.8643 51.7739 61.2822 51.9395 60.7654C52.1078 60.2519 52.3478 59.8122 52.6646 59.4527C52.9781 59.0931 53.358 58.8192 53.8058 58.6251C54.2509 58.4342 54.7506 58.3372 55.3011 58.3372C55.8919 58.3372 56.394 58.4311 56.8106 58.6223C57.2244 58.8108 57.5669 59.0674 57.8354 59.3873C58.1035 59.7069 58.2975 60.0835 58.423 60.5143C58.5486 60.9479 58.6115 61.4078 58.6115 61.8984V62.1494ZM57.2244 61.7415C57.2418 61.0164 57.0818 60.4458 56.7425 60.0348C56.4055 59.621 55.9062 59.4159 55.2441 59.4159C54.9015 59.4159 54.6049 59.4812 54.3479 59.6099C54.0913 59.7355 53.8771 59.9065 53.706 60.1175C53.5318 60.329 53.3979 60.5774 53.3037 60.8569C53.2094 61.1392 53.1552 61.4331 53.1437 61.7415H57.2244Z" fill="white"/>
<path fill-rule="evenodd" clip-rule="evenodd" d="M67.0349 66.2388C67.0349 66.2816 67.0234 66.3216 67.0036 66.3501C66.9806 66.3814 66.9439 66.4071 66.8923 66.43C66.8437 66.4527 66.7724 66.4701 66.684 66.4811C66.5953 66.4926 66.4841 66.4985 66.3503 66.4985C66.2104 66.4985 66.096 66.4926 66.0077 66.4811C65.919 66.4701 65.8477 66.4527 65.7935 66.43C65.7424 66.4071 65.7024 66.3814 65.6822 66.3501C65.6597 66.3216 65.6482 66.2816 65.6482 66.2388V59.6669H63.5735C63.4848 60.5544 63.3795 61.3419 63.254 62.0326C63.1284 62.7232 62.9855 63.3251 62.8314 63.8387C62.6746 64.3527 62.4976 64.7835 62.3036 65.1344C62.1096 65.4852 61.8958 65.768 61.6645 65.9818C61.4332 66.1988 61.1822 66.3529 60.9109 66.4471C60.6428 66.5414 60.3518 66.5897 60.0465 66.5897C59.995 66.5897 59.9522 66.5813 59.9182 66.5639C59.8809 66.5468 59.8524 66.5156 59.8295 66.4728C59.8069 66.4273 59.7895 66.3644 59.778 66.2844C59.7669 66.2044 59.761 66.099 59.761 65.9707C59.761 65.8365 59.7669 65.728 59.7752 65.6452C59.7839 65.5598 59.7981 65.4939 59.818 65.4425C59.8354 65.3942 59.8607 65.3597 59.8924 65.3427C59.9236 65.3257 59.9609 65.317 60.0037 65.317C60.189 65.317 60.3633 65.2742 60.5315 65.1886C60.6998 65.1032 60.8539 64.9606 60.9996 64.7634C61.1449 64.5638 61.2819 64.3068 61.4103 63.9844C61.5389 63.6649 61.6558 63.2709 61.7615 62.8032C61.8669 62.3351 61.967 61.787 62.0612 61.1594C62.1551 60.5314 62.2466 59.8122 62.3294 58.9989C62.3409 58.8306 62.3808 58.7079 62.4493 58.6251C62.5206 58.5455 62.6176 58.5055 62.7459 58.5055H66.6096C66.7438 58.5055 66.8468 58.5455 66.9236 58.6251C66.9977 58.7079 67.0349 58.8306 67.0349 58.9989V66.2388Z" fill="white"/>
<path fill-rule="evenodd" clip-rule="evenodd" d="M76.275 63.8474C76.275 64.2327 76.2037 64.5922 76.0612 64.9261C75.9183 65.2599 75.6985 65.551 75.3963 65.7936C75.0966 66.0388 74.7113 66.2333 74.2432 66.3758C73.7751 66.5184 73.2133 66.5897 72.5626 66.5897C72.4113 66.5897 72.2573 66.5868 72.0945 66.5841C71.9318 66.5813 71.775 66.5754 71.6178 66.567C71.461 66.5611 71.307 66.5496 71.1585 66.5386C71.0072 66.5271 70.8587 66.5128 70.7134 66.4985C70.4793 66.4701 70.3082 66.3928 70.197 66.2701C70.0857 66.1505 70.0283 65.962 70.0283 65.711V58.7138C70.0283 58.6683 70.0398 58.631 70.0599 58.5997C70.077 58.5712 70.1142 58.5423 70.1684 58.517C70.2195 58.4912 70.2908 58.477 70.3795 58.4683C70.4706 58.4595 70.5818 58.4539 70.7134 58.4539C70.8476 58.4539 70.9589 58.4595 71.0499 58.4683C71.1386 58.477 71.2099 58.4912 71.2614 58.517C71.3153 58.5423 71.3525 58.5712 71.3754 58.5997C71.3981 58.631 71.4094 58.6683 71.4094 58.7138V61.3649C71.615 61.3475 71.8376 61.3332 72.0775 61.3278C72.3171 61.3191 72.5626 61.3135 72.8137 61.3135C73.4215 61.3135 73.9438 61.3732 74.3802 61.4932C74.817 61.6128 75.1766 61.7843 75.4561 62.0068C75.7329 62.2294 75.9412 62.4975 76.0723 62.8059C76.2065 63.1168 76.275 63.4621 76.275 63.8474ZM74.8197 63.9389C74.8197 63.7104 74.7826 63.5021 74.7113 63.3167C74.6372 63.1283 74.5172 62.9715 74.3517 62.8399C74.1834 62.7089 73.9664 62.6087 73.6983 62.5374C73.433 62.469 73.1019 62.4349 72.7139 62.4349C72.4798 62.4349 72.2486 62.4405 72.0232 62.452C71.7975 62.4634 71.5924 62.4749 71.4094 62.4919V65.3855C71.6035 65.4085 71.8118 65.4282 72.0343 65.4424C72.26 65.4599 72.5056 65.4682 72.7792 65.4682C73.4698 65.4682 73.9834 65.3344 74.3176 65.0631C74.6515 64.7919 74.8197 64.418 74.8197 63.9389Z" fill="white"/>
<path fill-rule="evenodd" clip-rule="evenodd" d="M85.1008 66.2388C85.1008 66.2815 85.0897 66.3215 85.0668 66.3501C85.0438 66.3814 85.0097 66.407 84.9582 66.43C84.9068 66.4526 84.8383 66.4701 84.75 66.4811C84.6585 66.4926 84.5472 66.4985 84.4161 66.4985C84.2763 66.4985 84.1623 66.4926 84.0708 66.4811C83.9825 66.4701 83.914 66.4526 83.8626 66.43C83.8138 66.407 83.777 66.3814 83.754 66.3501C83.7311 66.3215 83.72 66.2815 83.72 66.2388V62.937H79.8844V66.2388C79.8844 66.2815 79.8729 66.3215 79.8504 66.3501C79.8274 66.3814 79.7901 66.407 79.7419 66.43C79.6904 66.4526 79.6219 66.4701 79.5336 66.4811C79.4421 66.4926 79.3281 66.4985 79.1882 66.4985C79.0568 66.4985 78.9455 66.4926 78.8545 66.4811C78.7658 66.4701 78.6945 66.4526 78.6434 66.43C78.5891 66.407 78.5519 66.3814 78.5349 66.3501C78.5146 66.3215 78.5032 66.2815 78.5032 66.2388V58.7138C78.5032 58.6683 78.5146 58.631 78.5349 58.5997C78.5519 58.5712 78.5891 58.5423 78.6434 58.517C78.6945 58.4912 78.7658 58.477 78.8545 58.4683C78.9455 58.4595 79.0568 58.4539 79.1882 58.4539C79.3281 58.4539 79.4421 58.4595 79.5336 58.4683C79.6219 58.477 79.6904 58.4912 79.7419 58.517C79.7901 58.5423 79.8274 58.5712 79.8504 58.5997C79.8729 58.631 79.8844 58.6683 79.8844 58.7138V61.7728H83.72V58.7138C83.72 58.6683 83.7311 58.631 83.754 58.5997C83.777 58.5712 83.8138 58.5423 83.8626 58.517C83.914 58.4912 83.9825 58.477 84.0708 58.4683C84.1623 58.4595 84.2763 58.4539 84.4161 58.4539C84.5472 58.4539 84.6585 58.4595 84.75 58.4683C84.8383 58.477 84.9068 58.4912 84.9582 58.517C85.0097 58.5423 85.0438 58.5712 85.0668 58.5997C85.0897 58.631 85.1008 58.6683 85.1008 58.7138V66.2388Z" fill="white"/>
<path fill-rule="evenodd" clip-rule="evenodd" d="M93.7616 66.2475C93.7616 66.3128 93.7391 66.3643 93.6931 66.3956C93.6504 66.43 93.5878 66.4558 93.5106 66.4728C93.4306 66.4898 93.3165 66.4985 93.1685 66.4985C93.0227 66.4985 92.9059 66.4898 92.82 66.4728C92.7344 66.4558 92.6719 66.43 92.6319 66.3956C92.5919 66.3643 92.5748 66.3128 92.5748 66.2475V65.4939C92.2438 65.8448 91.8783 66.1188 91.4732 66.3128C91.0709 66.5069 90.6428 66.6071 90.1918 66.6071C89.7954 66.6071 89.4358 66.5555 89.1163 66.4499C88.7963 66.3473 88.5227 66.1988 88.297 66.0048C88.0717 65.8079 87.8946 65.5679 87.7691 65.2856C87.6463 65.0001 87.5837 64.6778 87.5837 64.3155C87.5837 63.8902 87.6693 63.525 87.8404 63.2111C88.0147 62.9002 88.2629 62.6404 88.5852 62.4349C88.9076 62.2267 89.3043 62.0726 89.7724 61.9696C90.2405 61.867 90.7683 61.8156 91.3532 61.8156H92.3892V61.2307C92.3892 60.9397 92.3578 60.6827 92.298 60.4601C92.2351 60.2376 92.1381 60.0522 92.0011 59.9065C91.8641 59.758 91.687 59.6468 91.4704 59.57C91.2534 59.4955 90.9853 59.4586 90.6686 59.4586C90.326 59.4586 90.0235 59.4987 89.7526 59.5783C89.4813 59.6609 89.2445 59.7497 89.0418 59.8467C88.8363 59.9438 88.668 60.0321 88.531 60.1147C88.3939 60.1947 88.2942 60.2348 88.2257 60.2348C88.1829 60.2348 88.1429 60.2233 88.1088 60.2035C88.0744 60.1806 88.0459 60.1461 88.0201 60.1005C87.9976 60.0577 87.9774 60.0007 87.9659 59.9295C87.9548 59.861 87.9489 59.7837 87.9489 59.701C87.9489 59.5612 87.9603 59.4499 87.9802 59.3699C88.0004 59.2904 88.0459 59.2131 88.1231 59.1391C88.1972 59.0674 88.3254 58.9818 88.5112 58.8849C88.6938 58.7878 88.9048 58.6995 89.1448 58.6167C89.3843 58.5367 89.6469 58.471 89.9324 58.4168C90.2147 58.3626 90.5031 58.3372 90.7941 58.3372C91.3335 58.3372 91.7928 58.3998 92.1721 58.5226C92.5519 58.6453 92.8571 58.8251 93.0912 59.0618C93.3252 59.2986 93.4963 59.5924 93.6021 59.9437C93.7077 60.2946 93.7616 60.7028 93.7616 61.1704V66.2475ZM92.3892 62.8115H91.2106C90.8312 62.8115 90.503 62.8428 90.2234 62.9058C89.9466 62.9715 89.7154 63.0653 89.5296 63.1913C89.3471 63.3168 89.2102 63.468 89.1246 63.6419C89.039 63.8189 88.9963 64.0185 88.9963 64.247C88.9963 64.6378 89.119 64.9491 89.3674 65.1799C89.6156 65.4111 89.9637 65.5284 90.4088 65.5284C90.7711 65.5284 91.105 65.4369 91.4162 65.2516C91.7242 65.0687 92.0497 64.7863 92.3892 64.4066V62.8115Z" fill="white"/>
<path fill-rule="evenodd" clip-rule="evenodd" d="M102.285 66.2388C102.285 66.2815 102.277 66.3215 102.257 66.3556C102.237 66.3873 102.203 66.4158 102.154 66.4356C102.103 66.4527 102.034 66.4701 101.943 66.4811C101.855 66.4926 101.738 66.4985 101.592 66.4985C101.458 66.4985 101.346 66.4926 101.258 66.4811C101.17 66.4701 101.099 66.4527 101.044 66.4356C100.993 66.4158 100.956 66.3873 100.936 66.3556C100.919 66.3215 100.907 66.2815 100.907 66.2388V63.0686H100.114C99.7685 63.0686 99.4976 63.097 99.3063 63.154C99.1151 63.2083 98.9412 63.3025 98.7868 63.4336C98.6356 63.565 98.4958 63.7306 98.373 63.9357C98.2506 64.1384 98.1335 64.3868 98.0221 64.6834L97.4115 66.1533C97.3857 66.2273 97.3545 66.2844 97.32 66.3302C97.2888 66.3758 97.2372 66.4099 97.1747 66.4356C97.1117 66.4586 97.029 66.4756 96.9319 66.4843C96.835 66.4926 96.7122 66.4985 96.5696 66.4985C96.4612 66.4985 96.3701 66.4958 96.2873 66.4898C96.2073 66.4843 96.1388 66.4728 96.0846 66.4586C96.0275 66.4471 95.9848 66.4241 95.959 66.3928C95.9305 66.3616 95.9163 66.3243 95.9163 66.2788C95.9163 66.2415 95.9305 66.179 95.9618 66.0903C95.9931 66.0048 96.056 65.8535 96.1503 65.6364L96.7522 64.224C96.9094 63.8672 97.1003 63.5591 97.3287 63.2993C97.5568 63.04 97.8194 62.8487 98.1164 62.726C97.5743 62.6261 97.1434 62.4091 96.8235 62.0781C96.5039 61.7471 96.3415 61.3076 96.3415 60.7627C96.3415 60.4004 96.4183 60.072 96.5696 59.781C96.7181 59.4872 96.9407 59.2389 97.2318 59.0361C97.5256 58.8338 97.8851 58.6765 98.3104 58.5681C98.7385 58.4595 99.2263 58.4057 99.7799 58.4057C99.9114 58.4057 100.068 58.4085 100.242 58.414C100.419 58.4199 100.599 58.4255 100.787 58.437C100.973 58.4485 101.156 58.4627 101.329 58.477C101.506 58.4885 101.658 58.5027 101.786 58.5139C101.952 58.5313 102.077 58.591 102.163 58.6967C102.245 58.8021 102.285 58.9335 102.285 59.0903V66.2388ZM100.907 59.5156C100.707 59.4899 100.502 59.4701 100.288 59.4614C100.077 59.4527 99.8829 59.4499 99.7031 59.4499C99.3234 59.4499 99.0097 59.4812 98.7555 59.5469C98.5017 59.6099 98.2989 59.701 98.1448 59.8209C97.9909 59.9409 97.8824 60.0835 97.8194 60.2431C97.7541 60.4059 97.7224 60.5828 97.7224 60.7797C97.7224 60.9796 97.7596 61.1595 97.8336 61.3191C97.9109 61.4763 98.0249 61.6101 98.179 61.7185C98.3302 61.8271 98.5274 61.9126 98.767 61.9696C99.0066 62.0298 99.3404 62.0583 99.7716 62.0583H100.907V59.5156Z" fill="white"/>
<path fill-rule="evenodd" clip-rule="evenodd" d="M115.286 66.2958C115.286 66.3302 115.275 66.3588 115.255 66.3841C115.238 66.4098 115.201 66.43 115.147 66.4471C115.095 66.4641 115.024 66.4756 114.938 66.4843C114.853 66.4926 114.742 66.4985 114.607 66.4985C114.453 66.4985 114.325 66.4926 114.228 66.4811C114.131 66.4701 114.051 66.4527 113.991 66.4356C113.928 66.4158 113.883 66.3901 113.857 66.3588C113.828 66.3271 113.808 66.293 113.797 66.2558L112.995 64.3067C112.895 64.0557 112.787 63.8387 112.672 63.6589C112.558 63.4763 112.427 63.331 112.276 63.2198C112.125 63.1084 111.956 63.0285 111.765 62.9771C111.577 62.9287 111.36 62.903 111.115 62.903H110.529V66.2871C110.529 66.316 110.515 66.3445 110.487 66.373C110.458 66.3984 110.418 66.4213 110.361 66.4384C110.307 66.4558 110.233 66.4701 110.144 66.4811C110.056 66.4926 109.95 66.4985 109.833 66.4985C109.716 66.4985 109.613 66.4926 109.525 66.4811C109.436 66.4701 109.362 66.4558 109.308 66.4384C109.251 66.4213 109.211 66.3984 109.185 66.373C109.162 66.3445 109.148 66.316 109.148 66.2871V58.648C109.148 58.6195 109.162 58.5938 109.185 58.5681C109.211 58.5423 109.251 58.5225 109.308 58.5055C109.362 58.4884 109.436 58.477 109.525 58.4683C109.613 58.4595 109.716 58.4539 109.833 58.4539C109.95 58.4539 110.056 58.4595 110.144 58.4683C110.233 58.477 110.307 58.4884 110.361 58.5055C110.418 58.5225 110.458 58.5423 110.487 58.5681C110.515 58.5938 110.529 58.6195 110.529 58.648V61.7985H111.115C111.326 61.7985 111.52 61.7755 111.694 61.7272C111.871 61.6813 112.031 61.6017 112.176 61.4932C112.322 61.3847 112.45 61.245 112.564 61.0708C112.678 60.8997 112.784 60.6886 112.878 60.443L113.58 58.7138C113.592 58.6683 113.611 58.631 113.637 58.5965C113.666 58.5625 113.708 58.5368 113.763 58.5139C113.82 58.4912 113.894 58.477 113.985 58.4683C114.077 58.4595 114.199 58.4539 114.351 58.4539C114.482 58.4539 114.593 58.4595 114.679 58.4683C114.767 58.477 114.833 58.4884 114.881 58.5055C114.927 58.5225 114.959 58.5423 114.976 58.5681C114.993 58.5938 115.001 58.6195 115.001 58.648C115.001 58.6967 114.995 58.751 114.981 58.8049C114.967 58.8622 114.944 58.9248 114.919 58.9989L114.199 60.6541C114.088 60.931 113.965 61.165 113.834 61.3562C113.703 61.5447 113.571 61.7016 113.438 61.8271C113.303 61.9526 113.166 62.0496 113.029 62.1209C112.889 62.1894 112.755 62.2436 112.627 62.2837V62.3007C112.821 62.3664 113.001 62.4492 113.166 62.5433C113.332 62.6376 113.483 62.7545 113.626 62.8942C113.768 63.034 113.9 63.1996 114.022 63.3908C114.145 63.5849 114.259 63.8047 114.365 64.0557L115.192 65.962C115.215 66.002 115.232 66.036 115.244 66.0705C115.255 66.1045 115.264 66.1362 115.269 66.1675C115.275 66.1988 115.278 66.2218 115.281 66.2415C115.284 66.2617 115.286 66.2788 115.286 66.2958Z" fill="white"/>
<path fill-rule="evenodd" clip-rule="evenodd" d="M124.278 62.3921C124.278 63.0055 124.198 63.5706 124.036 64.0842C123.876 64.6009 123.633 65.0461 123.314 65.4199C122.994 65.7937 122.591 66.0848 122.109 66.2931C121.627 66.5013 121.068 66.6071 120.434 66.6071C119.815 66.6071 119.276 66.5128 118.816 66.3302C118.357 66.1474 117.971 65.8792 117.666 65.5284C117.361 65.1771 117.133 64.749 116.981 64.247C116.83 63.7476 116.756 63.177 116.756 62.5433C116.756 61.9296 116.836 61.3649 116.993 60.851C117.152 60.3346 117.392 59.8895 117.712 59.5156C118.031 59.1418 118.434 58.8535 118.913 58.6481C119.393 58.4398 119.952 58.3372 120.591 58.3372C121.21 58.3372 121.75 58.4283 122.209 58.6139C122.669 58.7965 123.054 59.0646 123.359 59.4159C123.667 59.7667 123.896 60.1948 124.05 60.6942C124.204 61.1963 124.278 61.7614 124.278 62.3921ZM122.825 62.4832C122.825 62.0782 122.785 61.6928 122.711 61.3304C122.637 60.9681 122.512 60.6513 122.34 60.3774C122.166 60.1034 121.932 59.8895 121.639 59.7295C121.342 59.5699 120.973 59.49 120.534 59.49C120.126 59.49 119.778 59.564 119.484 59.7097C119.193 59.8522 118.95 60.0577 118.762 60.3231C118.571 60.5884 118.431 60.9024 118.34 61.2647C118.248 61.6275 118.203 62.0211 118.203 62.452C118.203 62.863 118.24 63.251 118.314 63.6133C118.388 63.9757 118.514 64.2925 118.69 64.561C118.865 64.8318 119.101 65.046 119.395 65.2056C119.692 65.3656 120.06 65.4424 120.5 65.4424C120.902 65.4424 121.25 65.3712 121.544 65.2258C121.841 65.0801 122.084 64.8778 122.272 64.6152C122.463 64.3554 122.603 64.0415 122.691 63.6791C122.78 63.3168 122.825 62.9199 122.825 62.4832Z" fill="white"/>
<path fill-rule="evenodd" clip-rule="evenodd" d="M136.24 66.1616C136.246 66.2844 136.209 66.3731 136.123 66.4213C136.041 66.4728 135.869 66.4986 135.615 66.4986C135.475 66.4986 135.361 66.4958 135.273 66.4899C135.182 66.4843 135.113 66.4728 135.062 66.4559C135.013 66.4384 134.979 66.4158 134.959 66.3841C134.939 66.3529 134.925 66.3128 134.919 66.2645L134.377 61.8726C134.36 61.7185 134.343 61.5503 134.326 61.3733C134.311 61.1935 134.294 61.0138 134.277 60.8284C134.26 60.6459 134.246 60.4601 134.231 60.2775C134.217 60.0919 134.203 59.9208 134.186 59.758L134.177 59.5672C134.126 59.7295 134.075 59.8978 134.017 60.0776C133.963 60.2546 133.903 60.4372 133.837 60.6201C133.775 60.8026 133.712 60.988 133.655 61.1705C133.595 61.3562 133.541 61.5273 133.492 61.6901L131.911 66.1474C131.888 66.2131 131.863 66.2673 131.831 66.3128C131.8 66.3588 131.76 66.3928 131.706 66.4213C131.651 66.4499 131.586 66.4701 131.506 66.4811C131.423 66.4926 131.326 66.4986 131.209 66.4986C131.092 66.4986 130.995 66.4926 130.915 66.4811C130.839 66.4701 130.773 66.4499 130.718 66.4273C130.667 66.4015 130.624 66.3672 130.59 66.3215C130.556 66.276 130.527 66.2218 130.507 66.1533L128.983 61.6901C128.929 61.5333 128.872 61.3677 128.812 61.1879C128.755 61.011 128.695 60.8284 128.638 60.6399C128.578 60.4546 128.521 60.2688 128.467 60.0863C128.41 59.9009 128.364 59.7295 128.324 59.5672L128.316 59.758C128.299 59.9208 128.282 60.0919 128.264 60.2775C128.25 60.4601 128.23 60.6459 128.21 60.8284C128.193 61.0138 128.173 61.1935 128.153 61.3733C128.133 61.5503 128.119 61.7185 128.107 61.8726L127.588 66.1874C127.582 66.2559 127.571 66.3102 127.551 66.3501C127.531 66.3928 127.494 66.4242 127.437 66.4444C127.383 66.4614 127.308 66.4756 127.22 66.4843C127.131 66.4926 127.014 66.4986 126.869 66.4986C126.729 66.4986 126.621 66.4926 126.538 66.4811C126.458 66.4701 126.398 66.4499 126.355 66.4213C126.312 66.3928 126.287 66.3588 126.275 66.3188C126.264 66.276 126.264 66.2246 126.275 66.1616L127.103 59.0389C127.131 58.8623 127.194 58.7253 127.291 58.6338C127.388 58.5423 127.537 58.4968 127.731 58.4968H128.39C128.552 58.4968 128.689 58.5083 128.803 58.534C128.918 58.5597 129.018 58.6026 129.098 58.6623C129.177 58.7253 129.246 58.8081 129.303 58.9106C129.357 59.0136 129.411 59.1418 129.46 59.2987L130.573 62.5007C130.636 62.6974 130.698 62.8915 130.764 63.0911C130.833 63.2883 130.896 63.4823 130.953 63.6763C131.012 63.8673 131.067 64.0557 131.121 64.2414C131.172 64.424 131.223 64.601 131.266 64.7661H131.284C131.335 64.595 131.386 64.4126 131.438 64.2185C131.492 64.0273 131.549 63.8303 131.609 63.6336C131.672 63.4363 131.734 63.2396 131.797 63.0456C131.863 62.8487 131.925 62.663 131.985 62.4832L133.098 59.2987C133.141 59.1589 133.193 59.0389 133.244 58.9363C133.298 58.8338 133.364 58.7478 133.441 58.6853C133.518 58.6195 133.612 58.5741 133.72 58.5424C133.829 58.5111 133.963 58.4968 134.117 58.4968H134.771C134.97 58.4968 135.122 58.5396 135.224 58.6223C135.33 58.7051 135.39 58.8393 135.404 59.0219L136.24 66.1616Z" fill="white"/>
<path fill-rule="evenodd" clip-rule="evenodd" d="M145.112 66.2388C145.112 66.2816 145.101 66.3216 145.078 66.3501C145.055 66.3814 145.021 66.4071 144.97 66.4301C144.918 66.4527 144.849 66.4701 144.761 66.4811C144.672 66.4926 144.558 66.4986 144.427 66.4986C144.287 66.4986 144.173 66.4926 144.082 66.4811C143.993 66.4701 143.922 66.4527 143.871 66.4301C143.816 66.4071 143.78 66.3814 143.757 66.3501C143.734 66.3216 143.722 66.2816 143.722 66.2388V59.6669H140.138V66.2388C140.138 66.2816 140.126 66.3216 140.104 66.3501C140.081 66.3814 140.044 66.4071 139.99 66.4301C139.938 66.4527 139.867 66.4701 139.778 66.4811C139.687 66.4926 139.576 66.4986 139.442 66.4986C139.31 66.4986 139.199 66.4926 139.108 66.4811C139.019 66.4701 138.948 66.4527 138.897 66.4301C138.843 66.4071 138.805 66.3814 138.788 66.3501C138.768 66.3216 138.757 66.2816 138.757 66.2388V58.9906C138.757 58.8223 138.794 58.6995 138.871 58.6167C138.945 58.5368 139.051 58.4968 139.185 58.4968H144.693C144.826 58.4968 144.929 58.5368 145.004 58.6167C145.075 58.6995 145.112 58.8223 145.112 58.9906V66.2388Z" fill="white"/>
<path fill-rule="evenodd" clip-rule="evenodd" d="M153.772 66.2475C153.772 66.3128 153.75 66.3643 153.704 66.3956C153.661 66.43 153.598 66.4558 153.521 66.4728C153.441 66.4898 153.327 66.4985 153.179 66.4985C153.033 66.4985 152.917 66.4898 152.831 66.4728C152.745 66.4558 152.683 66.43 152.643 66.3956C152.603 66.3643 152.586 66.3128 152.586 66.2475V65.4939C152.254 65.8448 151.889 66.1188 151.484 66.3128C151.082 66.5069 150.653 66.6071 150.202 66.6071C149.806 66.6071 149.447 66.5555 149.127 66.4499C148.807 66.3473 148.533 66.1988 148.308 66.0048C148.082 65.8079 147.905 65.5679 147.78 65.2856C147.657 65.0001 147.594 64.6778 147.594 64.3155C147.594 63.8902 147.68 63.525 147.851 63.2111C148.025 62.9002 148.274 62.6404 148.596 62.4349C148.918 62.2267 149.315 62.0726 149.783 61.9696C150.251 61.867 150.779 61.8156 151.364 61.8156H152.4V61.2307C152.4 60.9397 152.368 60.6827 152.309 60.4601C152.246 60.2376 152.149 60.0522 152.012 59.9065C151.875 59.758 151.698 59.6468 151.481 59.57C151.264 59.4955 150.996 59.4586 150.679 59.4586C150.337 59.4586 150.034 59.4987 149.763 59.5783C149.492 59.6609 149.255 59.7497 149.052 59.8467C148.847 59.9438 148.679 60.0321 148.542 60.1147C148.405 60.1947 148.305 60.2348 148.236 60.2348C148.194 60.2348 148.154 60.2233 148.12 60.2035C148.085 60.1806 148.057 60.1461 148.031 60.1005C148.008 60.0577 147.988 60.0007 147.977 59.9295C147.966 59.861 147.96 59.7837 147.96 59.701C147.96 59.5612 147.971 59.4499 147.991 59.3699C148.011 59.2904 148.057 59.2131 148.134 59.1391C148.208 59.0674 148.336 58.9818 148.522 58.8849C148.704 58.7878 148.915 58.6995 149.155 58.6167C149.395 58.5367 149.658 58.471 149.943 58.4168C150.225 58.3626 150.514 58.3372 150.805 58.3372C151.344 58.3372 151.803 58.3998 152.183 58.5226C152.563 58.6453 152.868 58.8251 153.102 59.0618C153.336 59.2986 153.507 59.5924 153.613 59.9437C153.718 60.2946 153.772 60.7028 153.772 61.1704V66.2475ZM152.4 62.8115H151.221C150.842 62.8115 150.514 62.8428 150.234 62.9058C149.957 62.9715 149.726 63.0653 149.54 63.1913C149.358 63.3168 149.221 63.468 149.135 63.6419C149.05 63.8189 149.007 64.0185 149.007 64.247C149.007 64.6378 149.13 64.9491 149.378 65.1799C149.626 65.4111 149.974 65.5284 150.419 65.5284C150.782 65.5284 151.116 65.4369 151.427 65.2516C151.735 65.0687 152.06 64.7863 152.4 64.4066V62.8115Z" fill="white"/>
<path fill-rule="evenodd" clip-rule="evenodd" d="M163.335 66.2388C163.335 66.2815 163.324 66.3215 163.301 66.3501C163.278 66.3814 163.244 66.407 163.192 66.43C163.141 66.4526 163.072 66.4701 162.984 66.4811C162.892 66.4926 162.781 66.4985 162.65 66.4985C162.51 66.4985 162.396 66.4926 162.305 66.4811C162.216 66.4701 162.148 66.4526 162.096 66.43C162.048 66.407 162.011 66.3814 161.988 66.3501C161.965 66.3215 161.954 66.2815 161.954 66.2388V62.937H158.118V66.2388C158.118 66.2815 158.107 66.3215 158.084 66.3501C158.061 66.3814 158.024 66.407 157.976 66.43C157.924 66.4526 157.856 66.4701 157.767 66.4811C157.676 66.4926 157.562 66.4985 157.422 66.4985C157.291 66.4985 157.179 66.4926 157.088 66.4811C157 66.4701 156.928 66.4526 156.877 66.43C156.823 66.407 156.786 66.3814 156.769 66.3501C156.749 66.3215 156.737 66.2815 156.737 66.2388V58.7138C156.737 58.6683 156.749 58.631 156.769 58.5997C156.786 58.5712 156.823 58.5423 156.877 58.517C156.928 58.4912 157 58.477 157.088 58.4683C157.179 58.4595 157.291 58.4539 157.422 58.4539C157.562 58.4539 157.676 58.4595 157.767 58.4683C157.856 58.477 157.924 58.4912 157.976 58.517C158.024 58.5423 158.061 58.5712 158.084 58.5997C158.107 58.631 158.118 58.6683 158.118 58.7138V61.7728H161.954V58.7138C161.954 58.6683 161.965 58.631 161.988 58.5997C162.011 58.5712 162.048 58.5423 162.096 58.517C162.148 58.4912 162.216 58.477 162.305 58.4683C162.396 58.4595 162.51 58.4539 162.65 58.4539C162.781 58.4539 162.892 58.4595 162.984 58.4683C163.072 58.477 163.141 58.4912 163.192 58.517C163.244 58.5423 163.278 58.5712 163.301 58.5997C163.324 58.631 163.335 58.6683 163.335 58.7138V66.2388Z" fill="white"/>
<path fill-rule="evenodd" clip-rule="evenodd" d="M173.023 66.2475C173.023 66.2843 173.012 66.3215 172.989 66.3556C172.966 66.3873 172.932 66.4158 172.88 66.4356C172.832 66.4527 172.761 66.4701 172.672 66.4811C172.583 66.4926 172.472 66.4985 172.338 66.4985C172.204 66.4985 172.092 66.4926 172.004 66.4811C171.913 66.4701 171.841 66.4527 171.784 66.4356C171.73 66.4158 171.69 66.3873 171.668 66.3556C171.647 66.3215 171.636 66.2843 171.636 66.2475V61.9154C171.636 61.6988 171.642 61.4762 171.65 61.2504C171.662 61.0251 171.676 60.8026 171.693 60.5856C171.565 60.8081 171.425 61.0279 171.271 61.2422C171.117 61.4561 170.963 61.6702 170.809 61.8813L167.612 66.2475C167.575 66.2903 167.541 66.3302 167.51 66.3643C167.478 66.3956 167.438 66.4241 167.393 66.4443C167.344 66.4614 167.284 66.4756 167.213 66.4843C167.139 66.4926 167.05 66.4985 166.945 66.4985C166.822 66.4985 166.722 66.4926 166.645 66.4811C166.565 66.4701 166.502 66.4527 166.457 66.4356C166.408 66.4158 166.374 66.3873 166.357 66.3556C166.337 66.3215 166.325 66.2843 166.325 66.2475V58.7051C166.325 58.6651 166.337 58.631 166.357 58.5965C166.374 58.5625 166.411 58.5368 166.465 58.5139C166.517 58.4912 166.588 58.477 166.676 58.4683C166.768 58.4595 166.876 58.4539 167.005 58.4539C167.27 58.4539 167.455 58.4769 167.555 58.517C167.655 58.5597 167.706 58.6223 167.706 58.7051V63.0598C167.706 63.2796 167.701 63.4934 167.689 63.7104C167.678 63.9246 167.664 64.1356 167.647 64.3495C167.775 64.1356 167.904 63.9302 168.035 63.7247C168.166 63.5223 168.309 63.3223 168.457 63.1283L171.693 58.7051C171.727 58.6596 171.762 58.6223 171.799 58.5883C171.833 58.5538 171.879 58.528 171.933 58.5083C171.984 58.4884 172.047 58.477 172.121 58.4683C172.193 58.4595 172.287 58.4539 172.404 58.4539C172.52 58.4539 172.621 58.4595 172.7 58.4683C172.78 58.477 172.846 58.4912 172.894 58.5139C172.94 58.5368 172.974 58.5625 172.994 58.5965C173.014 58.631 173.023 58.6683 173.023 58.7138V66.2475Z" fill="white"/>
<path fill-rule="evenodd" clip-rule="evenodd" d="M181.572 66.2388C181.572 66.2815 181.564 66.3215 181.544 66.3556C181.524 66.3873 181.489 66.4158 181.441 66.4356C181.389 66.4527 181.321 66.4701 181.23 66.4811C181.141 66.4926 181.024 66.4985 180.879 66.4985C180.745 66.4985 180.633 66.4926 180.545 66.4811C180.457 66.4701 180.385 66.4527 180.331 66.4356C180.279 66.4158 180.242 66.3873 180.223 66.3556C180.205 66.3215 180.194 66.2815 180.194 66.2388V63.0686H179.4C179.055 63.0686 178.784 63.097 178.593 63.154C178.402 63.2083 178.228 63.3025 178.073 63.4336C177.922 63.565 177.782 63.7306 177.66 63.9357C177.537 64.1384 177.42 64.3868 177.309 64.6834L176.698 66.1533C176.672 66.2273 176.641 66.2844 176.607 66.3302C176.575 66.3758 176.524 66.4099 176.461 66.4356C176.398 66.4586 176.316 66.4756 176.219 66.4843C176.122 66.4926 175.999 66.4985 175.856 66.4985C175.748 66.4985 175.657 66.4958 175.574 66.4898C175.494 66.4843 175.425 66.4728 175.371 66.4586C175.314 66.4471 175.271 66.4241 175.246 66.3928C175.217 66.3616 175.203 66.3243 175.203 66.2788C175.203 66.2415 175.217 66.179 175.248 66.0903C175.28 66.0048 175.343 65.8535 175.437 65.6364L176.039 64.224C176.196 63.8672 176.387 63.5591 176.615 63.2993C176.843 63.04 177.106 62.8487 177.403 62.726C176.861 62.6261 176.43 62.4091 176.11 62.0781C175.791 61.7471 175.628 61.3076 175.628 60.7627C175.628 60.4004 175.705 60.072 175.856 59.781C176.005 59.4872 176.227 59.2389 176.518 59.0361C176.812 58.8338 177.172 58.6765 177.597 58.5681C178.025 58.4595 178.513 58.4057 179.067 58.4057C179.198 58.4057 179.355 58.4085 179.529 58.414C179.706 58.4199 179.885 58.4255 180.074 58.437C180.259 58.4485 180.442 58.4627 180.616 58.477C180.793 58.4885 180.944 58.5027 181.073 58.5139C181.238 58.5313 181.364 58.591 181.45 58.6967C181.532 58.8021 181.572 58.9335 181.572 59.0903V66.2388ZM180.194 59.5156C179.994 59.4899 179.788 59.4701 179.575 59.4614C179.364 59.4527 179.17 59.4499 178.99 59.4499C178.61 59.4499 178.296 59.4812 178.042 59.5469C177.788 59.6099 177.586 59.701 177.432 59.8209C177.278 59.9409 177.169 60.0835 177.106 60.2431C177.041 60.4059 177.009 60.5828 177.009 60.7797C177.009 60.9796 177.046 61.1595 177.12 61.3191C177.198 61.4763 177.312 61.6101 177.466 61.7185C177.617 61.8271 177.814 61.9126 178.054 61.9696C178.293 62.0298 178.627 62.0583 179.058 62.0583H180.194V59.5156Z" fill="white"/>
</svg>
