<svg xmlns="http://www.w3.org/2000/svg" version="1.1" xmlns:xlink="http://www.w3.org/1999/xlink" xmlns:svgjs="http://svgjs.dev/svgjs" width="1920" height="4000" preserveAspectRatio="none" viewBox="0 0 1920 4000"><g mask="url(&quot;#SvgjsMask1199&quot;)" fill="none"><rect width="1920" height="4000" x="0" y="0" fill="url(&quot;#SvgjsLinearGradient1200&quot;)"></rect><path d="M1595 1554L1594 2655" stroke-width="8" stroke="url(&quot;#SvgjsLinearGradient1201&quot;)" stroke-linecap="round" class="Up"></path><path d="M1303 3052L1302 4094" stroke-width="6" stroke="url(&quot;#SvgjsLinearGradient1201&quot;)" stroke-linecap="round" class="Up"></path><path d="M180 2718L179 5118" stroke-width="8" stroke="url(&quot;#SvgjsLinearGradient1202&quot;)" stroke-linecap="round" class="Down"></path><path d="M1773 2035L1772 -467" stroke-width="10" stroke="url(&quot;#SvgjsLinearGradient1201&quot;)" stroke-linecap="round" class="Up"></path><path d="M1866 962L1865 2839" stroke-width="6" stroke="url(&quot;#SvgjsLinearGradient1202&quot;)" stroke-linecap="round" class="Down"></path><path d="M1842 232L1841 -2478" stroke-width="10" stroke="url(&quot;#SvgjsLinearGradient1201&quot;)" stroke-linecap="round" class="Up"></path><path d="M1419 259L1418 -1122" stroke-width="10" stroke="url(&quot;#SvgjsLinearGradient1202&quot;)" stroke-linecap="round" class="Down"></path><path d="M1911 3348L1910 4453" stroke-width="6" stroke="url(&quot;#SvgjsLinearGradient1201&quot;)" stroke-linecap="round" class="Up"></path><path d="M572 715L571 -2198" stroke-width="10" stroke="url(&quot;#SvgjsLinearGradient1201&quot;)" stroke-linecap="round" class="Up"></path><path d="M1907 149L1906 -1236" stroke-width="10" stroke="url(&quot;#SvgjsLinearGradient1202&quot;)" stroke-linecap="round" class="Down"></path><path d="M847 3349L846 4553" stroke-width="6" stroke="url(&quot;#SvgjsLinearGradient1202&quot;)" stroke-linecap="round" class="Down"></path><path d="M183 1513L182 3753" stroke-width="6" stroke="url(&quot;#SvgjsLinearGradient1202&quot;)" stroke-linecap="round" class="Down"></path><path d="M1765 198L1764 1553" stroke-width="10" stroke="url(&quot;#SvgjsLinearGradient1201&quot;)" stroke-linecap="round" class="Up"></path><path d="M782 188L781 2070" stroke-width="10" stroke="url(&quot;#SvgjsLinearGradient1202&quot;)" stroke-linecap="round" class="Down"></path><path d="M1304 1419L1303 3048" stroke-width="10" stroke="url(&quot;#SvgjsLinearGradient1201&quot;)" stroke-linecap="round" class="Up"></path><path d="M697 889L696 -1129" stroke-width="10" stroke="url(&quot;#SvgjsLinearGradient1202&quot;)" stroke-linecap="round" class="Down"></path><path d="M652 625L651 -1115" stroke-width="8" stroke="url(&quot;#SvgjsLinearGradient1202&quot;)" stroke-linecap="round" class="Down"></path><path d="M767 2152L766 4963" stroke-width="10" stroke="url(&quot;#SvgjsLinearGradient1202&quot;)" stroke-linecap="round" class="Down"></path><path d="M620 335L619 -2537" stroke-width="6" stroke="url(&quot;#SvgjsLinearGradient1201&quot;)" stroke-linecap="round" class="Up"></path><path d="M39 791L38 2130" stroke-width="8" stroke="url(&quot;#SvgjsLinearGradient1201&quot;)" stroke-linecap="round" class="Up"></path><path d="M1606 3220L1605 5092" stroke-width="6" stroke="url(&quot;#SvgjsLinearGradient1202&quot;)" stroke-linecap="round" class="Down"></path><path d="M124 3992L123 2781" stroke-width="10" stroke="url(&quot;#SvgjsLinearGradient1201&quot;)" stroke-linecap="round" class="Up"></path><path d="M504 1787L503 -1205" stroke-width="8" stroke="url(&quot;#SvgjsLinearGradient1202&quot;)" stroke-linecap="round" class="Down"></path><path d="M608 34L607 -1770" stroke-width="6" stroke="url(&quot;#SvgjsLinearGradient1202&quot;)" stroke-linecap="round" class="Down"></path><path d="M221 2430L220 4299" stroke-width="8" stroke="url(&quot;#SvgjsLinearGradient1202&quot;)" stroke-linecap="round" class="Down"></path><path d="M469 2035L468 -31" stroke-width="8" stroke="url(&quot;#SvgjsLinearGradient1201&quot;)" stroke-linecap="round" class="Up"></path><path d="M1326 972L1325 2838" stroke-width="6" stroke="url(&quot;#SvgjsLinearGradient1202&quot;)" stroke-linecap="round" class="Down"></path><path d="M1169 2679L1168 -235" stroke-width="6" stroke="url(&quot;#SvgjsLinearGradient1201&quot;)" stroke-linecap="round" class="Up"></path><path d="M310 2358L309 3550" stroke-width="6" stroke="url(&quot;#SvgjsLinearGradient1202&quot;)" stroke-linecap="round" class="Down"></path><path d="M179 2786L178 1352" stroke-width="10" stroke="url(&quot;#SvgjsLinearGradient1201&quot;)" stroke-linecap="round" class="Up"></path><path d="M279 1072L278 -1076" stroke-width="10" stroke="url(&quot;#SvgjsLinearGradient1201&quot;)" stroke-linecap="round" class="Up"></path><path d="M1898 3739L1897 4759" stroke-width="6" stroke="url(&quot;#SvgjsLinearGradient1201&quot;)" stroke-linecap="round" class="Up"></path><path d="M567 2121L566 392" stroke-width="8" stroke="url(&quot;#SvgjsLinearGradient1201&quot;)" stroke-linecap="round" class="Up"></path><path d="M287 2116L286 -207" stroke-width="6" stroke="url(&quot;#SvgjsLinearGradient1201&quot;)" stroke-linecap="round" class="Up"></path><path d="M1375 3267L1374 2176" stroke-width="6" stroke="url(&quot;#SvgjsLinearGradient1202&quot;)" stroke-linecap="round" class="Down"></path><path d="M74 231L73 -2177" stroke-width="8" stroke="url(&quot;#SvgjsLinearGradient1202&quot;)" stroke-linecap="round" class="Down"></path><path d="M525 3123L524 1605" stroke-width="8" stroke="url(&quot;#SvgjsLinearGradient1202&quot;)" stroke-linecap="round" class="Down"></path><path d="M727 926L726 2709" stroke-width="10" stroke="url(&quot;#SvgjsLinearGradient1201&quot;)" stroke-linecap="round" class="Up"></path><path d="M417 3369L416 5834" stroke-width="10" stroke="url(&quot;#SvgjsLinearGradient1201&quot;)" stroke-linecap="round" class="Up"></path><path d="M1302 2676L1301 -10" stroke-width="6" stroke="url(&quot;#SvgjsLinearGradient1201&quot;)" stroke-linecap="round" class="Up"></path><path d="M753 339L752 -705" stroke-width="6" stroke="url(&quot;#SvgjsLinearGradient1201&quot;)" stroke-linecap="round" class="Up"></path><path d="M1052 1544L1051 4433" stroke-width="10" stroke="url(&quot;#SvgjsLinearGradient1201&quot;)" stroke-linecap="round" class="Up"></path><path d="M1103 1991L1102 4857" stroke-width="6" stroke="url(&quot;#SvgjsLinearGradient1202&quot;)" stroke-linecap="round" class="Down"></path><path d="M1250 1491L1249 -84" stroke-width="8" stroke="url(&quot;#SvgjsLinearGradient1201&quot;)" stroke-linecap="round" class="Up"></path><path d="M183 1338L182 2639" stroke-width="10" stroke="url(&quot;#SvgjsLinearGradient1202&quot;)" stroke-linecap="round" class="Down"></path><path d="M1539 793L1538 -721" stroke-width="6" stroke="url(&quot;#SvgjsLinearGradient1202&quot;)" stroke-linecap="round" class="Down"></path><path d="M78 2213L77 -102" stroke-width="10" stroke="url(&quot;#SvgjsLinearGradient1202&quot;)" stroke-linecap="round" class="Down"></path><path d="M1826 3203L1825 4842" stroke-width="6" stroke="url(&quot;#SvgjsLinearGradient1202&quot;)" stroke-linecap="round" class="Down"></path></g><defs><mask id="SvgjsMask1199"><rect width="1920" height="4000" fill="#ffffff"></rect></mask><linearGradient x1="-27.08%" y1="13%" x2="127.08%" y2="87%" gradientUnits="userSpaceOnUse" id="SvgjsLinearGradient1200"><stop stop-color="rgba(3, 14, 16, 1)" offset="0"></stop><stop stop-color="rgba(10, 84, 97, 1)" offset="1"></stop></linearGradient><linearGradient x1="0%" y1="100%" x2="0%" y2="0%" id="SvgjsLinearGradient1201"><stop stop-color="rgba(13, 188, 218, 0)" offset="0"></stop><stop stop-color="rgba(13, 188, 218, 1)" offset="1"></stop></linearGradient><linearGradient x1="0%" y1="0%" x2="0%" y2="100%" id="SvgjsLinearGradient1202"><stop stop-color="rgba(13, 188, 218, 0)" offset="0"></stop><stop stop-color="rgba(13, 188, 218, 1)" offset="1"></stop></linearGradient></defs></svg>