<svg xmlns="http://www.w3.org/2000/svg" version="1.1" xmlns:xlink="http://www.w3.org/1999/xlink" xmlns:svgjs="http://svgjs.dev/svgjs" width="1920" height="4000" preserveAspectRatio="none" viewBox="0 0 1920 4000"><g mask="url(&quot;#SvgjsMask1044&quot;)" fill="none"><rect width="1920" height="4000" x="0" y="0" fill="url(&quot;#SvgjsLinearGradient1045&quot;)"></rect><path d="M0 0L506.13 0L0 1998.25z" fill="rgba(255, 255, 255, .1)"></path><path d="M0 1998.25L506.13 0L691.13 0L0 2155.58z" fill="rgba(255, 255, 255, .075)"></path><path d="M0 2155.58L691.13 0L715.85 0L0 2384.15z" fill="rgba(255, 255, 255, .05)"></path><path d="M0 2384.15L715.85 0L856.64 0L0 3329.54z" fill="rgba(255, 255, 255, .025)"></path><path d="M1920 4000L1421.52 4000L1920 3122.31z" fill="rgba(0, 0, 0, .1)"></path><path d="M1920 3122.31L1421.52 4000L807.9399999999999 4000L1920 1935.73z" fill="rgba(0, 0, 0, .075)"></path><path d="M1920 1935.73L807.94 4000L331.33000000000004 4000L1920 1621.05z" fill="rgba(0, 0, 0, .05)"></path><path d="M1920 1621.0500000000002L331.3299999999999 4000L166.13999999999993 4000L1920 1528.4400000000003z" fill="rgba(0, 0, 0, .025)"></path></g><defs><mask id="SvgjsMask1044"><rect width="1920" height="4000" fill="#ffffff"></rect></mask><linearGradient x1="-27.08%" y1="13%" x2="127.08%" y2="87%" gradientUnits="userSpaceOnUse" id="SvgjsLinearGradient1045"><stop stop-color="#0e2a47" offset="0"></stop><stop stop-color="#00459e" offset="1"></stop></linearGradient></defs></svg>