<svg xmlns="http://www.w3.org/2000/svg" version="1.1" xmlns:xlink="http://www.w3.org/1999/xlink" xmlns:svgjs="http://svgjs.dev/svgjs" width="1920" height="4000" preserveAspectRatio="none" viewBox="0 0 1920 4000"><g mask="url(&quot;#SvgjsMask1117&quot;)" fill="none"><rect width="1920" height="4000" x="0" y="0" fill="url(&quot;#SvgjsLinearGradient1118&quot;)"></rect><circle r="26.405" cx="997.795" cy="184.875" filter="url(#SvgjsFilter1119)" fill="rgba(13, 188, 218, 1)"></circle><circle r="18.755" cx="1328.355" cy="1209.255" filter="url(#SvgjsFilter1119)" fill="rgba(13, 188, 218, 1)"></circle><circle r="16.75" cx="1365.81" cy="3925.7" filter="url(#SvgjsFilter1119)" fill="rgba(13, 188, 218, 1)"></circle><circle r="20.375" cx="1217.905" cy="3833.365" filter="url(#SvgjsFilter1119)" fill="rgba(13, 188, 218, 1)"></circle><circle r="25.275" cx="728.535" cy="1931.7150000000001" filter="url(#SvgjsFilter1119)" fill="rgba(13, 188, 218, 1)"></circle><circle r="27.805" cx="634.3249999999999" cy="1273.9350000000002" filter="url(#SvgjsFilter1119)" fill="rgba(13, 188, 218, 1)"></circle><circle r="27.315" cx="1037.475" cy="3497.5950000000003" filter="url(#SvgjsFilter1119)" fill="rgba(13, 188, 218, 1)"></circle><circle r="22.06" cx="974.55" cy="1571.9199999999998" filter="url(#SvgjsFilter1119)" fill="rgba(13, 188, 218, 1)"></circle><circle r="18.58" cx="1215.85" cy="3202.88" filter="url(#SvgjsFilter1119)" fill="rgba(13, 188, 218, 1)"></circle><circle r="21.94" cx="495.13" cy="2751.37" filter="url(#SvgjsFilter1119)" fill="rgba(13, 188, 218, 1)"></circle><circle r="20.19" cx="84.75999999999999" cy="2706.2400000000002" filter="url(#SvgjsFilter1119)" fill="rgba(13, 188, 218, 1)"></circle><circle r="30.885" cx="185.065" cy="1144.705" filter="url(#SvgjsFilter1119)" fill="rgba(13, 188, 218, 1)"></circle><circle r="18.93" cx="1170.8300000000002" cy="2520.7799999999997" filter="url(#SvgjsFilter1119)" fill="rgba(13, 188, 218, 1)"></circle><circle r="18.48" cx="769.44" cy="3278.83" filter="url(#SvgjsFilter1119)" fill="rgba(13, 188, 218, 1)"></circle><circle r="21.43" cx="1456.69" cy="3404.7" filter="url(#SvgjsFilter1119)" fill="rgba(13, 188, 218, 1)"></circle><circle r="16.17" cx="1343.79" cy="3072.5" filter="url(#SvgjsFilter1119)" fill="rgba(13, 188, 218, 1)"></circle><circle r="21.215" cx="496.28499999999997" cy="202.04500000000002" filter="url(#SvgjsFilter1119)" fill="rgba(13, 188, 218, 1)"></circle><circle r="27.51" cx="197.04999999999998" cy="1514.97" filter="url(#SvgjsFilter1119)" fill="rgba(13, 188, 218, 1)"></circle><circle r="23.92" cx="238.95999999999998" cy="3245.17" filter="url(#SvgjsFilter1119)" fill="rgba(13, 188, 218, 1)"></circle><circle r="26" cx="694.33" cy="3842.98" filter="url(#SvgjsFilter1119)" fill="rgba(13, 188, 218, 1)"></circle><path d="M924.6 3925.9L978.9 3912.9 969.5 3949.2C968.2 3952.9 970.6 3958 975.6 3960.6 980.7 3960.7 985.7 3958.2 987 3954.5L1000.3 3906.9 1050.8 3895.1 1022.9 3991.5C1021.6 3997.7 1024 4002.8 1029.1 4002.9 1034 4005.5 1039.1 4003 1040.5 3996.8L1071 3890.3 1116.4 3878.5 1191.9 3956.3 1181.3 3996.4 1066.5 4023.5C1065.2 4024.8 1063.9 4026 1062.6 4027.3 1061.4 4028.5 1060 4032.2 1060 4034.8 1061.2 4041.1 1066.2 4043.7 1071.2 4041.2L1175.9 4016.4 1161.4 4065.2 1108.4 4079.5C1107.1 4078.2 1105.9 4079.5 1104.6 4080.7 1102 4083.2 1100.7 4086.9 1101.9 4090.7 1103.1 4094.5 1108.1 4097.1 1113.1 4097.2L1156.1 4085.2 1138.8 4146.6C1137.5 4150.3 1139.9 4155.4 1144.9 4158 1149.9 4158.1 1155 4155.6 1156.3 4151.9L1172.3 4094.3 1198.3 4121.1C1202 4124.9 1208.3 4123.7 1210.8 4121.3 1214.7 4117.5 1216 4111.3 1212.3 4107.5L1178.9 4073 1193.4 4024.2 1262.8 4095.6C1266.5 4099.5 1271.5 4099.5 1275.3 4095.8 1279.2 4092.1 1279.2 4087.1 1275.5 4083.3L1198.8 4004.2 1209.5 3961.6 1315.5 3935.5 1343.9 3964.8 1313.4 4073.8C1310.8 4078.8 1314.5 4085.1 1319.5 4085.2 1324.5 4087.8 1328.3 4084 1330.9 4079.1L1358.8 3980.2 1394.7 4017.2 1380.1 4066C1378.8 4069.7 1382.5 4076.1 1386.2 4077.4S1396.3 4075 1398.9 4070L1409.5 4032.5 1452.9 4077.1C1456.6 4080.9 1462.9 4079.8 1466.7 4076.1 1469.3 4073.6 1470.6 4067.3 1466.9 4063.5L1423.6 4018.8 1462.7 4008.1C1466.5 4006.9 1470.3 4003.2 1469.2 3996.9 1468 3993.1 1461.7 3989.2 1458 3990.4L1408.7 4003.5 1372.8 3966.5 1472.5 3941.6C1477.6 3939.2 1481.4 3935.5 1480.2 3929.2 1479 3925.4 1472.8 3921.5 1469 3922.7L1358 3951.2 1329.5 3921.9 1358.7 3816.7 1401.6 3807.3 1478.4 3886.4C1482.1 3890.2 1487.1 3890.3 1490.9 3886.6 1494.8 3882.9 1496.1 3876.6 1492.4 3872.8L1423.1 3801.3 1472.3 3788.2 1505.7 3822.7C1509.4 3826.5 1514.5 3826.6 1518.3 3822.9 1522.1 3819.2 1522.2 3814.1 1518.5 3810.3L1492.5 3783.5 1550.5 3769.3C1554.3 3768.1 1558.2 3761.9 1557 3758.1 1554.6 3753 1550.8 3749.2 1545.8 3751.6L1485.2 3765.8 1497.1 3724.5C1497.2 3719.5 1494.8 3714.4 1491 3713.1 1487.3 3711.8 1483.5 3713 1480.9 3715.5 1480.9 3715.5 1479.7 3716.7 1479.6 3719.2L1463.8 3771.8 1414.5 3784.9 1442.5 3680.9C1445.1 3675.9 1442.6 3670.9 1436.4 3669.5 1433.9 3669.5 1431.3 3669.5 1428.8 3671.9 1427.5 3673.2 1426.2 3674.4 1425 3675.6L1394.3 3789.6 1354 3799 1278.4 3721.2 1291.7 3676.2 1399 3648.9C1405.3 3647.7 1407.9 3642.7 1405.4 3637.6 1405.5 3632.6 1400.5 3630 1394.2 3631.2L1297 3656.1 1310.3 3606 1358.3 3594.2C1362.1 3593 1364.7 3588 1364.7 3583 1362.3 3577.9 1358.6 3574.1 1353.5 3576.5L1316.9 3584.8 1331.6 3530.9C1334.2 3525.9 1330.5 3522.1 1325.5 3519.5 1323 3519.5 1319.2 3520.7 1316.6 3523.2 1316.6 3523.2 1315.3 3524.4 1314.1 3525.6L1298.1 3583.2 1267.2 3551.3C1264.7 3548.8 1258.4 3547.4 1254.6 3551.1 1250.8 3554.9 1251.9 3561.2 1254.4 3563.7L1292.8 3603.3 1279.5 3653.3 1203.9 3575.5C1200.2 3571.7 1193.9 3572.9 1190.1 3576.6S1186.2 3585.3 1189.9 3589.1L1272.9 3674.6 1260.9 3715.9 1154.9 3742 1122.7 3708.8 1154.6 3598.7C1154.6 3593.6 1152.2 3588.6 1147.2 3586 1144.7 3585.9 1140.9 3587.1 1138.4 3589.6 1137.1 3590.9 1135.8 3592.1 1135.8 3594.6L1107.9 3693.5 1072 3656.5 1085.3 3606.4C1086.6 3602.7 1084.2 3597.6 1079.2 3595 1074.2 3594.9 1069.1 3597.4 1067.8 3601.1L1057.1 3641.2 1017.5 3600.4C1015 3597.8 1007.5 3597.7 1004.9 3600.2 1001.1 3603.9 1001 3611.5 1003.5 3614L1043.1 3654.8 1004 3663C1002.7 3664.3 1001.4 3665.5 1000.2 3666.8 997.6 3669.2 996.3 3673 996.3 3675.5 998.7 3680.6 1003.7 3683.2 1008.7 3683.2L1057.9 3670.1 1093.8 3707.1 994.1 3732C987.8 3733.2 985.3 3738.2 986.5 3742 987.6 3748.3 992.6 3750.9 997.6 3751L1108.7 3722.4 1140.9 3755.6 1111.6 3860.8 1070 3871.5 987.1 3786C983.3 3782.2 978.3 3782.1 974.5 3785.8 970.7 3789.5 970.6 3794.5 974.3 3798.4L1049.8 3876.2 999.3 3888 961 3848.5C958.5 3845.9 951 3845.8 947.1 3849.5 943.3 3853.2 944.5 3859.5 946.9 3862.1L977.9 3894 919.8 3908.2C918.6 3909.4 918.6 3909.4 917.3 3910.7 914.7 3913.1 913.4 3916.9 913.4 3919.4 915.8 3924.5 920.8 3927.1 924.6 3925.9ZM1155.7 3770.9L1159.7 3759.7 1169.8 3757.3 1255.6 3736 1265.7 3733.6 1273.1 3741.3 1333.8 3803.8 1341.2 3811.4 1338.5 3821.4 1314.6 3906.6 1312 3916.6 1300.6 3920.2 1216.1 3940.3 1204.7 3943.9 1197.3 3936.2 1136.6 3873.7 1129.2 3866.1 1133.1 3854.8 1155.7 3770.9Z" fill="rgba(13, 188, 218, 1)"></path><path d="M834.1 358.8L798 477.6 757.5 498.1 769.8 458C772.3 454.1 769.2 450.3 765.2 447.8 761.8 447.5 756.7 449.7 756.3 453.2L738.4 508.1 699.2 529.4 701.5 484.9 744.5 445.8C744.5 445.8 745.3 444.4 745.3 444.4 747 441.8 746 437.5 744.2 434.5 740.2 432.1 736.8 431.7 733 434.8L702.2 463.3 704.5 418.8 794.6 333.9C794.6 333.9 796.7 333.5 796.7 333.5 798.4 330.8 797.4 326.5 795.6 323.6 792.5 319.8 786.9 319.9 784.4 323.9L705.2 397.2 706.4 342.8 741.7 309.9C741.7 309.9 741.7 309.9 742.6 308.6 744.2 305.9 744.6 302.5 742.8 299.5 738.8 297 734 295.8 730.2 299L707.1 321.2 708.2 281.4C709.3 276.6 705.4 274.2 701.9 273.8 697.2 272.7 693.4 275.8 693.5 281.4L691.1 320.3 671 296.6C667.1 294.2 662.3 293 659.8 296.9 656 300.1 655.7 303.5 658.8 307.3L691.7 342.7 689.2 396.3 614.6 316.3C612.8 313.3 607.2 313.4 603.4 316.6 601.7 319.2 600.6 324 603.7 327.8L688.5 417.9 686.2 462.4 657.8 431.7C654.7 427.9 650.4 428.8 646.6 432 643.6 433.8 643.8 439.4 645.6 442.3L685.5 484 684.5 529.3 646.4 505.3 633.7 449.6C632.7 445.3 628.7 442.8 624.4 443.8 621 443.4 617.7 448.7 618.6 453L627.9 493.7 589.7 469.7 563.2 348.3C562.2 344 558.3 341.5 554 342.5 549.7 343.5 547.2 347.4 548.2 351.7L571.3 458.1 526.5 430 515.8 382.8C514.8 378.5 510.9 376 506.6 377 502.3 377.9 499.8 381.9 500.8 386.2L506.8 417.5 473.9 396.8C469.9 394.3 465.6 395.3 463.1 399.3 460.7 403.2 461.6 407.5 465.6 410L498.5 430.7 468.5 437.5C464.2 438.5 461.7 442.5 462.7 446.8S467.6 453.5 471.9 452.6L516.9 442.3 563 471.3 457.9 495.2C453.6 496.2 451.2 500.2 452.1 504.4 453.1 508.7 457.1 511.2 461.3 510.2L581.5 482.9 619.6 506.9 578.9 516.2C574.6 517.2 572.1 521.1 573.1 525.4 574.1 529.7 578 532.2 582.3 531.2L638.1 518.5 675 541.7 636.6 561.7 581 545C577.5 544.7 572.4 547 572 550.5 570.9 555.2 572.7 558.2 576.6 560.7L616.7 573 578.3 593 459.6 556.9C454.8 555.7 451.8 557.5 449.3 561.5 448.2 566.3 451.3 570.1 453.9 571.7L558.4 604.3 509.8 628.9 465 615.4C461 613 457.2 616.1 454.8 620 454.4 623.5 456.7 628.6 461.5 629.8L490.7 638.9 456.6 658C452.3 658.9 451.2 663.7 453.5 668.8 455.3 671.8 460.1 673 463 671.2L498.4 653 488.4 683.4C487.2 688.2 490.3 692 493.8 692.4 497.7 694.9 500.7 693 502.4 690.4 503.2 689.1 503.2 689.1 504 687.8L517.5 643 566.1 618.4 534.3 721.5C531.8 725.5 534.9 729.3 538.9 731.7 542.3 732.1 545.3 730.3 547 727.6 547.8 726.3 547.8 726.3 547.8 726.3L586.1 607.1 624.4 587 612 627.1C610.9 631.9 612.7 634.8 616.6 637.3 620.1 637.7 624.4 636.7 626 634 626.9 632.7 626.9 632.7 627.7 631.4L644.3 575.7 682.7 555.7 681.2 598.9 639.6 638.9C635.7 642 635.9 647.6 637.7 650.6 641.7 653.1 646.4 654.2 648.9 650.3L679.7 621.8 679.5 665.9 587.3 751.2C584.3 753 584.5 758.6 586.3 761.6 590.2 764 595 765.2 598.8 762.1L678 688.8 675.5 742.4 641 773.9C637.2 777 637.3 782.6 641.3 785.1 643.1 788.1 647.9 789.3 651.7 786.1L674.8 764 673.7 803.7C673.4 807.2 676.5 811 681.3 812.1 683.4 811.6 686.4 809.8 688 807.2 688 807.2 688.9 805.9 689.7 804.6L690.8 764.8 713 788C714.8 790.9 720.4 790.8 723.4 789 724.2 787.7 724.2 787.7 724.2 787.7 726.7 783.7 725.7 779.4 723.1 777.8L691.5 743.2 692.7 688.8 767.3 768.8C771.2 771.3 774.7 771.7 778.5 768.5 778.5 768.5 779.3 767.2 779.3 767.2 781 764.6 781.3 761.1 778.2 757.3L694.2 665.9 695.7 622.7 724.1 653.5C728 655.9 732.8 657.1 735.3 653.2 736.6 654 737.5 652.7 737.5 652.7 739.1 650 738.1 645.7 736.3 642.8L696.4 601.1 698.7 556.6 735.5 579.8 748.2 635.6C749.2 639.8 754.5 643.2 758.8 642.2 761.7 640.4 764.2 636.4 764.6 633L754 591.4 792.1 615.4 819.5 735.5C820.5 739.8 824.4 742.3 828.7 741.3 833 740.3 835.5 736.4 834.5 732.1L810.6 627 856.7 656 866.9 701C867.9 705.3 871.8 707.8 876.1 706.8S882.9 701.9 881.9 697.6L875.1 667.6 908 688.3C912 690.8 916.3 689.8 918.7 685.8 921.2 681.9 920.2 677.6 916.3 675.1L883.4 654.4 914.2 646.3C916.4 645.8 918.5 645.3 919.4 644 920.2 642.6 920.5 639.2 920 637 919.1 632.7 915.1 630.3 910.8 631.2L864.9 642.8 818.9 613.8 924.8 588.6C926.9 588.1 929.1 587.6 929.9 586.3 930.7 585 931.1 581.5 930.6 579.4 929.6 575.1 925.7 572.6 921.4 573.6L800.4 602.2 762.2 578.2 804.3 569.8C806.5 569.3 808.1 566.6 808.9 565.3 809.8 564 810.6 562.7 810.1 560.5 809.1 556.3 803.9 552.9 800.9 554.7L743.8 566.6 706.9 543.4 746.1 522.1 800.9 540.1C804.4 540.4 808.7 539.4 810.3 536.8 811.2 535.5 811.2 535.5 809.9 534.7 812.3 530.7 810 525.6 805.3 524.4L765.2 512.1 804.4 490.8 923.6 529C927.1 529.4 930.1 527.6 931.7 524.9 932.6 523.6 932.6 523.6 932.6 523.6 933.7 518.9 932.8 514.6 928 513.4L823.5 480.8 872.1 456.2 916.9 469.7C921.7 470.8 924.6 469 926.3 466.4 926.3 466.4 927.1 465.1 927.1 465.1 928.3 460.3 925.2 456.5 922.5 454.8L891.2 446.2 926.6 428C927.4 426.7 928.2 425.3 929.1 424 929.9 422.7 930.2 419.2 929.7 417.1 926.6 413.3 922.7 410.8 918.9 413.9L883.5 432.1 893.5 401.7C894.7 396.9 891.5 393.1 888.9 391.4 884.1 390.3 880.3 393.4 877.8 397.3L864.4 442.1 817.1 467.6 848.9 364.4C850.1 359.7 847.8 354.5 844.3 354.2 839.6 353 835.3 354 834.1 358.8Z" fill="rgba(13, 188, 218, 1)"></path><path d="M1664.5 2396.9L1518.2 2411.7 1486.1 2386.9 1500.2 2297.3 1538.6 2281.8 1673 2342.5C1674.8 2342.8 1674.8 2342.8 1676.5 2343.1 1680 2343.6 1683.8 2342.4 1686.4 2337.4 1687.3 2332.1 1686 2328.4 1681.1 2325.8L1563.4 2273.1 1622.8 2250 1675 2272.6C1675 2272.6 1676.8 2272.9 1676.8 2272.9 1680.3 2273.5 1684.1 2272.3 1686.7 2267.3 1689 2264 1686.3 2258.2 1681.3 2255.6L1647.8 2239.6 1691.8 2223.1C1695.6 2221.9 1698.2 2216.9 1697.3 2211.3S1689.3 2204.7 1683.8 2205.6L1641.5 2222.4 1655.8 2188.6C1658.4 2183.6 1655.7 2177.8 1650.7 2175.2 1647.2 2174.7 1641.7 2175.6 1639.1 2180.6L1616.5 2232.8 1555.3 2255.6 1608 2137.9C1610.6 2132.9 1607.9 2127.1 1604.7 2124.8 1599.4 2124 1593.9 2124.9 1591.3 2129.9L1532.3 2264.6 1492.1 2279.9 1423.5 2224.1 1430.1 2181.9 1548.3 2094.3C1552.4 2091.4 1553.2 2086.1 1550.2 2082S1542 2077.1 1537.9 2080.1L1434 2157.3 1444.2 2092.4 1488.9 2059.8C1493 2056.8 1493.8 2051.6 1491.2 2045.7S1482.9 2040.9 1478.9 2043.8L1448.1 2067.8 1455.6 2020.4C1456.4 2015.1 1451.7 2010.7 1446.4 2009.9 1441.1 2009.1 1437.1 2012 1436.2 2017.3L1428.8 2064.7 1406.6 2034.2C1403.9 2028.4 1398.6 2027.6 1394.3 2032.3 1390.2 2035.3 1389.4 2040.5 1392.4 2044.6L1424.9 2089.3 1414.7 2154.3 1339.5 2048.9C1336.5 2044.8 1329.5 2043.7 1325.4 2046.7S1320.5 2054.9 1323.5 2059L1410.8 2178.9 1404.2 2221 1320 2252.8 1288.2 2226.2 1273.4 2079.9C1272.5 2074.3 1267.5 2071.8 1262.2 2070.9 1256.7 2071.9 1254.1 2076.8 1253.3 2082.1L1267.3 2210.3 1217.8 2170.1 1212.4 2113.5C1211.4 2107.9 1206.4 2105.3 1201.2 2104.5 1197.4 2105.7 1193 2110.4 1194 2116L1197.2 2152.5 1160.4 2123.3C1157.2 2121 1151.6 2121.9 1147.6 2124.9 1145 2129.9 1145.9 2135.4 1149.2 2137.7L1186 2166.9 1147.4 2171.6C1143.6 2172.8 1139.3 2177.6 1140.5 2181.3 1139.7 2186.6 1142.9 2188.9 1148.2 2189.8 1148.2 2189.8 1149.9 2190 1149.9 2190L1206.6 2184.5 1256 2224.7 1127.9 2238.7C1122.3 2239.7 1118.2 2242.6 1119.2 2248.2 1120.1 2253.7 1123.3 2256 1126.9 2256.6 1128.6 2256.9 1128.6 2256.9 1128.6 2256.9L1276.9 2240.6 1308.7 2267.2 1294.7 2356.8 1256.5 2370.6 1120 2311.3C1116.8 2309 1111 2311.7 1108.7 2314.9 1106.1 2319.9 1108.8 2325.7 1113.8 2328.3L1231.5 2381 1172 2404.1 1119.8 2381.5C1114.8 2378.9 1109.3 2379.8 1108.4 2385.1 1105.9 2390.1 1108.5 2395.9 1111.8 2398.2L1147.3 2412.8 1103.3 2429.2C1099.2 2432.2 1096.6 2437.2 1097.6 2442.7 1099 2444.8 1102.3 2447.1 1105.8 2447.6 1107.6 2447.9 1107.6 2447.9 1109.6 2446.4L1153.6 2430 1139 2465.5C1136.4 2470.4 1139.4 2474.5 1142.6 2476.8 1144.4 2477.1 1144.4 2477.1 1146.1 2477.4 1149.6 2477.9 1153.4 2476.7 1155.7 2473.5L1178.3 2421.3 1237.7 2398.2 1185 2515.9C1184.2 2521.2 1185.1 2526.7 1190.4 2527.5 1191.9 2529.6 1191.9 2529.6 1193.6 2529.8 1197.2 2530.4 1201.2 2527.4 1203.5 2524.2L1262.8 2387.7 1301 2374 1371.3 2430 1365 2470.4 1245 2557.7C1241 2560.7 1239.9 2567.7 1242.8 2571.8S1252.8 2576.9 1256.9 2574L1360.8 2496.8 1350.9 2560 1305.9 2594.3C1301.8 2597.2 1301 2602.5 1303.9 2606.6 1306.9 2610.6 1312.2 2611.5 1316.2 2608.5L1346.7 2586.3 1339.3 2633.7C1338.7 2637.2 1341.4 2643.1 1346.7 2643.9 1351.9 2644.7 1358 2640.3 1358.6 2636.8L1366 2589.4 1388.2 2619.8C1389.7 2621.9 1391.2 2623.9 1393 2624.2 1396.5 2624.7 1398.5 2623.3 1400.5 2621.8 1404.6 2618.8 1405.4 2613.5 1402.5 2609.5L1370.2 2563 1380.1 2499.8 1455.3 2605.2C1456.8 2607.2 1458.6 2607.5 1462.1 2608.1 1463.8 2608.3 1465.6 2608.6 1467.6 2607.1 1471.7 2604.2 1472.8 2597.2 1469.8 2593.1L1384.3 2473.4 1390.6 2433.1 1473.1 2401 1506.9 2426.2 1521.4 2574.2C1522.6 2578 1525.6 2582.1 1529.1 2582.6 1530.8 2582.9 1530.8 2582.9 1531.1 2581.1 1536.4 2582 1540.7 2577.2 1539.8 2571.7L1525.8 2443.5 1577 2484 1582.5 2540.6C1583.7 2544.4 1586.9 2546.7 1590.4 2547.3 1590.4 2547.3 1592.2 2547.5 1592.2 2547.5 1597.4 2548.4 1601.8 2543.7 1600.9 2538.1L1596.1 2499.6 1632.9 2528.8C1634.4 2530.8 1636.2 2531.1 1637.9 2531.3 1641.4 2531.9 1645.2 2530.7 1645.5 2528.9 1649.8 2524.2 1648.9 2518.7 1646 2514.6L1609.1 2485.4 1645.7 2482.2C1651.2 2481.2 1655.5 2476.5 1654.6 2471 1653.4 2467.2 1648.7 2462.9 1644.9 2464.1L1588.3 2469.5 1538.8 2429.4 1667 2415.3C1672.5 2414.4 1675.1 2409.4 1675.9 2404.2 1674.7 2400.4 1670 2396 1664.5 2396.9ZM1479.2 2304.8L1468.4 2373.3 1466.8 2383.8 1457.2 2387.7 1393.9 2412 1382.6 2415.6 1374.6 2408.9 1321.9 2366.5 1314 2359.8 1315.6 2349.3 1326.4 2280.8 1328.1 2270.2 1337.7 2266.4 1400.9 2242.1 1410.5 2238.2 1420.2 2245.1 1472.9 2287.6 1480.9 2294.3 1479.2 2304.8Z" fill="rgba(13, 188, 218, 1)"></path><path d="M1841.1 2768.4L1847.2 2806.8 1825 2799.3C1822.7 2798.3 1819.4 2799.6 1817.6 2802.6 1817.3 2805.7 1818.6 2809 1821.7 2809.3L1849.2 2819.6 1855.2 2849.3 1798 2827.7C1794.9 2827.4 1791.6 2828.7 1790.6 2831 1789.5 2834.8 1790.8 2838.1 1793.9 2838.4L1857.2 2862.1 1865 2907.8 1817.5 2883.8 1832.6 2934.9 1789.1 2919.2 1776.9 2852.6C1777.7 2851.9 1777 2851.1 1776.3 2850.2 1774.9 2848.5 1772.6 2847.5 1770.2 2848.1 1767.7 2848.7 1765.9 2851.7 1765.6 2854.8L1776.8 2914.9 1748.6 2903.8 1743.3 2874.9C1743.5 2873.3 1742.7 2872.5 1742 2871.6 1741.3 2870.8 1739 2869.8 1736.6 2870.3 1734.2 2870.9 1732.4 2873.9 1732.9 2876.3L1736.4 2899.5 1699.7 2886.8C1696.7 2884.9 1694.1 2887.1 1692.3 2890.1 1691.3 2892.3 1692.6 2895.6 1696.4 2896.7L1732.3 2910.2 1714.4 2925.2C1711.8 2927.3 1712.3 2931.3 1713.7 2933 1715.8 2935.5 1719 2935.8 1721.5 2933.7L1744.5 2914.4 1772.7 2925.6 1726.7 2964.1C1724.2 2966.3 1723.9 2969.4 1726 2971.9 1727.4 2973.7 1731.3 2974.8 1733.8 2972.6L1785 2929.9 1828.5 2945.6 1784.9 2974.8 1835.9 2987.2 1800.1 3017.2 1737.4 2994.3C1733.6 2993.1 1731 2995.3 1730.1 2997.5 1729.1 2999.8 1730.3 3003.1 1733.3 3004.9L1790.7 3025 1767.7 3044.3 1739.4 3034.7C1736.4 3032.8 1733.1 3034.1 1732 3037.9 1731 3040.2 1732.3 3043.5 1736.1 3044.6L1757.5 3052.8 1727.6 3077.8C1725.1 3079.9 1724.8 3083.1 1727 3085.6S1732.2 3088.4 1734.8 3086.3L1764.6 3061.4 1768.9 3083.8C1769.4 3087.8 1772.3 3089.6 1774.8 3089.1 1778.7 3088.6 1780.6 3085.6 1779.3 3082.4L1774.8 3052.8 1797.8 3033.5 1807.5 3093.6C1808.8 3096.8 1811.8 3098.7 1814.2 3098.1 1818.2 3097.7 1820 3094.7 1818.7 3091.4L1807.2 3025.7 1843 2995.8 1846.2 3048.1 1882.7 3010.3 1890.5 3056 1839.4 3098.8C1836.8 3100.9 1837.2 3104.9 1838.7 3106.6 1840.8 3109.1 1843.9 3109.4 1846.5 3107.3L1893.4 3068.1 1898.5 3098.5 1875.5 3117.8C1873 3119.9 1872.7 3123 1874.8 3125.6 1876.3 3127.3 1880.1 3128.4 1882.7 3126.3L1900.6 3111.3 1907.5 3149C1907.9 3153 1910.9 3154.8 1914.2 3153.5 1916.6 3153 1919.1 3150.8 1917.9 3147.5L1911.8 3109.1 1934 3116.6C1936.3 3117.6 1939.6 3116.3 1940.5 3114.1 1941.5 3111.8 1941 3109.4 1940.3 3108.5 1939.5 3107.7 1938.8 3106.8 1937.3 3106.7L1909.8 3096.3 1903.7 3066.6 1961 3088.3C1964.1 3088.6 1967.4 3087.3 1968.4 3085 1969.4 3082.7 1968.8 3080.3 1967.4 3078.6 1966.7 3077.7 1966.7 3077.7 1965.1 3077.6L1901.7 3053.8 1894 3008.2 1941.5 3032.1 1926.3 2981.1 1969.9 2996.8 1982.1 3063.3C1982.7 3065.8 1984.8 3068.3 1988.8 3067.9 1991.2 3067.3 1993.1 3064.3 1993.4 3061.2L1982.1 3001 2010.3 3012.2 2015.7 3041.1C2015.4 3044.2 2018.4 3046.1 2022.4 3045.6 2024.8 3045 2026.6 3042.1 2026.9 3038.9L2022.6 3016.5 2059.3 3029.2C2062.3 3031 2064.9 3028.9 2066.7 3025.9 2066.8 3024.3 2066.3 3021.9 2065.6 3021.1 2064.8 3020.2 2064.1 3019.4 2062.6 3019.2L2026.7 3005.8 2044.6 2990.8C2047.1 2988.7 2046.7 2984.7 2045.3 2983L2045.3 2983C2043.1 2980.4 2040 2980.1 2037.5 2982.3L2014.4 3001.5 1986.3 2990.3 2032.3 2951.8C2034.8 2949.7 2035.1 2946.6 2033 2944S2027.7 2941.2 2025.1 2943.3L1974 2986.1 1930.4 2970.4 1974.1 2941.1 1923.1 2928.7 1958.9 2898.8 2021.5 2921.7C2025.4 2922.8 2027.9 2920.7 2028.9 2918.4 2029.9 2916.1 2028.6 2912.9 2025.6 2911L1969.1 2890.2 1991.3 2871.7 2019.6 2881.3C2022.6 2883.2 2025.9 2881.9 2027 2878 2028 2875.7 2026.7 2872.5 2023.7 2870.6L2001.5 2863.1 2031.3 2838.2C2033.9 2836 2034.2 2832.9 2032 2830.4S2026.8 2827.5 2024.2 2829.7L1994.4 2854.6 1990.1 2832.1C1990.2 2830.6 1989.5 2829.7 1988.8 2828.9 1987.3 2827.2 1985.8 2827 1984.2 2826.9 1980.2 2827.3 1978.4 2830.3 1979.7 2833.6L1984.1 2863.2 1961.1 2882.4 1951.5 2822.4C1950.8 2821.6 1950.1 2820.7 1949.4 2819.8 1947.9 2818.1 1946.4 2818 1944.8 2817.9 1940.8 2818.3 1939 2821.3 1940.3 2824.6L1951.8 2890.3 1916 2920.2 1912.7 2867.9 1876.3 2905.6 1868.5 2860 1919.6 2817.2C1922.2 2815.1 1921.7 2811.1 1920.3 2809.4 1918.2 2806.8 1915 2806.5 1912.5 2808.7L1866.5 2847.2 1860.4 2817.5 1883.4 2798.2C1886 2796.1 1886.3 2792.9 1884.1 2790.4S1878.9 2787.6 1876.3 2789.7L1858.4 2804.7 1851.5 2767C1851.6 2765.4 1850.9 2764.6 1850.2 2763.7 1849.5 2762.9 1847.2 2761.9 1844.8 2762.4 1842.4 2763 1839.8 2765.2 1841.1 2768.4ZM1903.4 2893.1L1905.9 2935.9 1947.6 2945.9 1911.5 2970.3 1923.7 3010.8 1885.1 2992.4 1855.6 3022.9 1853.1 2980.1 1811.4 2970.1 1846.6 2946.4 1835.3 2905.1 1873 2924.3 1903.4 2893.1Z" fill="rgba(13, 188, 218, 1)"></path><path d="M2000.4 1036.8L1951.7 1114.7 1927.2 1121.1 1888.3 1079.8 1895.3 1054.9 1976.8 1011.7C1977.6 1010.9 1977.6 1010.9 1978.4 1010.2 1980 1008.7 1980.9 1006.3 1979.4 1003.1 1977.1 1000.7 1974.8 999.9 1971.6 1001.3L1900.5 1039.3 1911.8 1001.2 1943 984C1943 984 1943.8 983.2 1943.8 983.2 1945.4 981.7 1946.3 979.4 1944.8 976.2 1944.1 973.8 1940.2 972.9 1937 974.4L1916.3 984.8 1924.9 956.7C1925.8 954.4 1924.3 951.2 1921.2 949.6S1914.9 950.9 1913.2 954L1905.4 981.3 1894.1 961.3C1892.7 958.1 1888.8 957.2 1885.6 958.7 1884 960.2 1882.3 963.3 1883.8 966.5L1900.9 997.7 1888.8 1036.6 1850.8 965.6C1849.3 962.4 1845.4 961.5 1843 962.2 1840.6 964.5 1838.9 967.6 1840.4 970.8L1884.4 1051.4 1876.6 1077.1 1822.8 1089.7 1804.5 1070.3 1806.4 978.4C1806.5 975.3 1804.2 972.8 1801.1 972.8S1795.5 974.9 1795.4 978.1L1793.8 1059 1765.6 1029.1 1766.6 994.5C1766.7 991.4 1764.4 989 1760.5 988.1S1755 990.3 1754.9 993.4L1754.9 1017.8 1734.4 995.9C1732.1 993.5 1728.1 994.2 1725.7 996.5 1723.3 998.8 1723.2 1001.9 1725.5 1004.3L1746 1026.2 1722.5 1025.5C1718.6 1024.6 1716.2 1026.9 1716.8 1030.8 1716.7 1033.9 1719 1036.4 1722.2 1036.5L1756.7 1037.5 1784.9 1067.4 1704.1 1064.2C1700.9 1064.1 1697.7 1067.2 1697.6 1070.3S1699.8 1075.9 1702.9 1076L1795.6 1078.7 1813.9 1098.1 1797.4 1151.9 1772.1 1157.4 1694.1 1108.7C1691 1107.1 1687.8 1108.6 1685.4 1110.8 1683.7 1113.9 1685.2 1117.1 1687.5 1119.5L1756.2 1161.7 1717.4 1170.7 1687.3 1151.8C1684.2 1150.1 1681.1 1151.6 1678.6 1153.9 1677.8 1156.2 1678.5 1160.2 1681.5 1161.8L1700.8 1174.2 1672.3 1181.2C1670 1181.9 1668.3 1185 1668.2 1188.2 1669.7 1191.3 1672.8 1193 1675.2 1192.3L1703.7 1185.3 1691.3 1206.1C1690.4 1208.5 1691.1 1212.4 1693.4 1213.3 1695.7 1215.7 1698.1 1215 1700.5 1212.7 1700.5 1212.7 1701.3 1211.9 1701.3 1211.9L1720.3 1181.8 1759 1172.7 1716.9 1241.5C1715.3 1244.6 1715.2 1247.7 1718.3 1249.4 1721.4 1251 1723.8 1250.3 1725.4 1248.8 1726.2 1248 1726.2 1248 1726.2 1248L1774.9 1168.5 1800.2 1162.9 1839.1 1204.2 1831.3 1228.3 1749.8 1273.1C1747.4 1273.8 1746.5 1277.7 1747.2 1280.1 1748.7 1283.3 1752.6 1284.2 1755.8 1282.7L1826.9 1244.7 1815.5 1282.9 1784.4 1300C1781.2 1301.5 1779.5 1304.6 1781.8 1307 1783.3 1310.2 1787.2 1311.1 1789.6 1310.4L1810.4 1298.4 1801.7 1326.5C1801.6 1329.6 1803.1 1332.8 1806.2 1334.5 1807.7 1334.5 1810.1 1333.8 1811.7 1332.3 1812.5 1331.5 1812.5 1331.5 1812.6 1329.9L1821.3 1301.9 1833.2 1322.7C1834.7 1325.9 1837.9 1326 1840.2 1325.2 1841.1 1324.5 1841.1 1324.5 1841.9 1323.7 1843.5 1322.2 1844.3 1319.9 1843.6 1317.5L1826.5 1286.3 1837.8 1248.1 1875.8 1319.2C1878.1 1321.6 1881.2 1323.3 1883.6 1321 1885.2 1321.1 1885.2 1321.1 1886 1320.3 1887.6 1318.8 1887.7 1315.6 1887 1313.3L1842.2 1231.8 1850 1207.6 1904.6 1194.3 1922.1 1212.9 1919.4 1305.6C1919.3 1308.7 1922.4 1311.9 1925.5 1312S1931.9 1309.1 1932 1305.9L1933.6 1225 1961 1254.1 1960.8 1289.5C1960.7 1292.6 1963 1295 1966.1 1295.1 1969.2 1295.2 1971.7 1292.9 1971.8 1289.8L1972.5 1266.2 1993 1288.1C1994.6 1289.7 1998.5 1290.6 2000.9 1288.3 2003.3 1286 2003.5 1281.3 2001.9 1279.7L1981.3 1257.9 2004.9 1258.6C2006.5 1258.6 2008 1258.6 2008.9 1257.9 2010.5 1256.4 2010.5 1254.8 2010.6 1253.2 2010.7 1250.1 2008.4 1247.6 2005.2 1247.6L1969.9 1245.7 1942.5 1216.6 2023.3 1219.8C2024.9 1219.8 2025.7 1219.1 2027.3 1217.5 2028.1 1216.8 2028.9 1216 2029 1214.5 2029.1 1211.3 2026 1208.1 2022.9 1208L1931 1204.5 1913.5 1185.9 1929.2 1132.9 1954.6 1125.8 2033.3 1175.3C2035.6 1176.1 2038.8 1176.2 2040.4 1174.7 2041.2 1173.9 2041.2 1173.9 2040.4 1173.1 2042.8 1170.8 2042.2 1166.9 2039.1 1165.2L1970.4 1123.1 2010 1113.3 2040 1132.2C2042.4 1133.1 2044.8 1132.4 2046.4 1130.9 2046.4 1130.9 2047.2 1130.1 2047.2 1130.1 2049.6 1127.8 2048.9 1123.9 2045.8 1122.2L2025 1109.8 2053.5 1102.8C2055.1 1102.8 2055.9 1102.1 2056.7 1101.3 2058.3 1099.8 2059.1 1097.4 2058.4 1096.6 2057.7 1092.7 2054.6 1091 2051.5 1090.9L2023 1097.9 2035.3 1078.7C2037 1075.6 2036.3 1071.6 2033.2 1070 2030.9 1069.1 2026.9 1069.8 2026.1 1072.1L2007.1 1102.2 1968.4 1111.3 2010.5 1042.6C2012.1 1039.5 2010.6 1036.3 2008.4 1033.9 2006 1033 2002.1 1033.7 2000.4 1036.8ZM1884 1093.1L1913.7 1124.6 1918.3 1129.5 1916.5 1135.7 1904.4 1176.2 1901.8 1183.2 1895.5 1184.6 1854.3 1194.4 1848 1195.8 1843.4 1190.9 1813.7 1159.4 1809.1 1154.6 1810.8 1148.3 1823 1107.8 1824.8 1101.6 1831.9 1099.4 1873.1 1089.6 1879.4 1088.2 1884 1093.1Z" fill="rgba(13, 188, 218, 1)"></path><path d="M967.5 2979.7L914.8 2998.1 920.5 2961.1C921.4 2957.2 918.4 2952.4 913.2 2950.3 908.2 2950.8 903.4 2953.7 902.5 2957.6L894.1 3006.2 845 3023.1 863 2924.4C863.8 2918 860.8 2913.2 855.8 2913.6 850.6 2911.6 845.8 2914.5 845.1 2920.9L825.4 3029.8 781.4 3046.2 698.4 2976.4 705 2935.4 816.5 2896.8C817.7 2895.5 818.8 2894.1 819.9 2892.7 821.1 2891.4 822 2887.5 821.8 2885 820 2878.9 814.8 2876.8 810 2879.7L708.3 2915 717.9 2864.9 769.2 2845.4C770.5 2846.5 771.7 2845.2 772.8 2843.8 775.1 2841.1 776 2837.2 774.5 2833.6 772.9 2829.9 767.7 2827.9 762.7 2828.3L721.2 2844.5 732.2 2781.7C733.1 2777.8 730.1 2773 724.9 2771 719.9 2771.4 715.1 2774.3 714.2 2778.2L704.1 2837.1 675.6 2813.1C671.5 2809.6 665.3 2811.4 663 2814.1 659.6 2818.2 658.9 2824.6 663 2828L699.7 2858.9 690.1 2909 613.9 2844.9C609.9 2841.4 604.9 2841.9 601.4 2845.9 598 2850 598.4 2855 602.5 2858.5L686.8 2929.4 680.5 2972.9 577.6 3009.5 546.4 2983.2 565.8 2871.7C567.9 2866.5 563.6 2860.6 558.6 2861 553.3 2858.9 549.9 2863 547.8 2868.2L530 2969.4 490.6 2936.2 500.2 2886.2C501.1 2882.3 496.8 2876.4 492.9 2875.5S483.1 2878.8 481.1 2884.1L474.3 2922.5 426.7 2882.4C422.6 2879 416.4 2880.8 413 2884.9 410.7 2887.6 410 2894 414.1 2897.4L461.7 2937.5 423.8 2952.1C420.2 2953.7 416.7 2957.7 418.5 2963.9 420.1 2967.5 426.7 2970.8 430.3 2969.2L478 2951.2 517.4 2984.4 420.8 3019.2C416 3022.2 412.5 3026.2 414.3 3032.4 415.9 3036 422.5 3039.3 426.1 3037.7L533.8 2998.1 565.1 3024.5 546.6 3132 504.8 3145.7 420.5 3074.8C416.4 3071.3 411.4 3071.8 408 3075.8 404.5 3079.9 403.8 3086.3 407.9 3089.7L484.1 3153.8 436.4 3171.8 399.7 3140.9C395.6 3137.5 390.6 3137.9 387.2 3142 383.7 3146.1 384.2 3151.1 388.3 3154.5L416.8 3178.5 360.5 3198.5C356.8 3200.1 353.6 3206.7 355.2 3210.3 358.1 3215.1 362.2 3218.6 367 3215.6L425.8 3195.4 418.1 3237.7C418.6 3242.7 421.5 3247.5 425.4 3248.5 429.2 3249.4 432.9 3247.8 435.2 3245.1 435.2 3245.1 436.3 3243.7 436.1 3241.2L446.6 3187.3 494.3 3169.3 476.9 3275.6C474.8 3280.8 477.8 3285.6 484.1 3286.3 486.6 3286.1 489.1 3285.9 491.4 3283.1 492.6 3281.8 493.7 3280.4 494.9 3279.1L513.9 3162.6 553.1 3149.1 636.1 3219 627.4 3265.1 523.4 3303.1C517.3 3304.9 515.2 3310.1 518.1 3314.9 518.6 3319.9 523.8 3322 530 3320.2L624.1 3285.6 615.9 3336.8 569.4 3353.4C565.7 3355 563.7 3360.2 564.1 3365.2 567 3370 571.1 3373.4 575.9 3370.5L611.5 3358.6 602.3 3413.6C600.3 3418.9 604.4 3422.3 609.6 3424.4 612.1 3424.2 615.7 3422.6 618 3419.9 618 3419.9 619.2 3418.5 620.3 3417.1L630.4 3358.2 664.4 3386.9C667.1 3389.1 673.5 3389.9 676.9 3385.8 680.3 3381.7 678.6 3375.5 675.8 3373.3L633.7 3337.8 641.9 3286.6 724.9 3356.4C728.9 3359.9 735.1 3358.1 738.5 3354S741.5 3344.9 737.4 3341.5L646.3 3264.8 654 3222.5 756.9 3185.9 792.2 3215.6 771.6 3328.4C772.1 3333.4 775 3338.2 780.2 3340.3 782.7 3340.1 786.4 3338.5 788.7 3335.8 789.8 3334.4 791 3333.1 790.8 3330.6L808.5 3229.3 848 3262.5 839.8 3313.7C838.8 3317.6 841.8 3322.4 847 3324.5 852 3324 856.8 3321.1 857.7 3317.2L864.3 3276.3 907.8 3312.9C910.6 3315.2 918.1 3314.5 920.4 3311.8 923.8 3307.7 923.2 3300.2 920.4 3297.9L876.9 3261.3 915 3249.2C916.1 3247.8 917.3 3246.5 918.4 3245.1 920.7 3242.4 921.6 3238.5 921.4 3236 918.5 3231.2 913.3 3229.2 908.2 3229.6L860.6 3247.6 821.1 3214.4 917.8 3179.6C924 3177.8 926 3172.5 924.5 3168.9 922.7 3162.7 917.4 3160.7 912.4 3161.1L804.8 3200.6 769.4 3170.9 787.9 3063.3 828.3 3048.5 919.4 3125.2C923.5 3128.6 928.5 3128.2 932 3124.1 935.4 3120 935 3115 930.9 3111.6L847.9 3041.7 896.9 3024.9 939.1 3060.4C941.8 3062.7 949.3 3062 952.8 3058 956.2 3053.9 954.4 3047.7 951.7 3045.4L917.7 3016.8 974 2996.8C975.1 2995.5 975.1 2995.5 976.3 2994.1 978.6 2991.4 979.5 2987.5 979.3 2985 976.4 2980.2 971.1 2978.1 967.5 2979.7ZM753.1 3157.2L750.3 3168.7 740.5 3172.1 657.3 3202 647.5 3205.4 639.3 3198.5 572.7 3142.4 564.5 3135.5 566.2 3125.3 581.4 3038.2 583 3028 594 3023.2 676.1 2994.7 687 2990 695.2 2996.9 761.8 3052.9 770 3059.8 767.2 3071.4 753.1 3157.2Z" fill="rgba(13, 188, 218, 1)"></path><path d="M1250.9 1200.1L1149.4 1168.2 1132.2 1133.4 1166.4 1144.2C1169.8 1146.4 1173 1143.8 1175.2 1140.4 1175.5 1137.4 1173.6 1133 1170.6 1132.7L1123.8 1116.9 1105.8 1083.1 1143.9 1085.4 1177.1 1122.6C1177.1 1122.6 1178.2 1123.3 1178.2 1123.3 1180.5 1124.8 1184.2 1124 1186.7 1122.4 1188.9 1119.1 1189.2 1116.1 1186.6 1112.8L1162.5 1086.2 1200.6 1088.6 1272.6 1166.5C1272.6 1166.5 1273 1168.3 1273 1168.3 1275.2 1169.8 1278.9 1169 1281.4 1167.4 1284.7 1164.8 1284.6 1160 1281.3 1157.8L1219.1 1089.4 1265.7 1090.8 1293.6 1121.4C1293.6 1121.4 1293.6 1121.4 1294.7 1122.1 1297 1123.5 1299.9 1123.9 1302.5 1122.3 1304.7 1119 1305.7 1114.9 1303.1 1111.6L1284.2 1091.6 1318.3 1092.9C1322.4 1093.9 1324.5 1090.5 1324.8 1087.6 1325.9 1083.5 1323.2 1080.2 1318.4 1080.3L1285.1 1077.9 1305.5 1060.9C1307.7 1057.5 1308.7 1053.4 1305.4 1051.3 1302.7 1048 1299.8 1047.7 1296.5 1050.3L1265.9 1078.2 1220 1075.7 1289.2 1012.3C1291.7 1010.8 1291.7 1006 1289 1002.7 1286.8 1001.3 1282.7 1000.3 1279.4 1002.9L1201.5 1074.9 1163.3 1072.5 1189.9 1048.4C1193.2 1045.8 1192.4 1042.1 1189.8 1038.8 1188.2 1036.2 1183.4 1036.3 1180.9 1037.8L1144.8 1071.7 1106 1070.6 1126.9 1038 1174.8 1027.6C1178.5 1026.8 1180.6 1023.4 1179.8 1019.7 1180.1 1016.8 1175.7 1013.9 1172 1014.7L1137 1022.3 1157.9 989.8 1262.2 968.1C1265.8 967.2 1268 963.9 1267.2 960.2 1266.4 956.5 1263 954.4 1259.4 955.2L1168 974.1 1192.5 935.9 1233 927.1C1236.7 926.3 1238.8 923 1238 919.3 1237.2 915.6 1233.9 913.4 1230.2 914.2L1203.3 919.1 1221.3 891.1C1223.4 887.7 1222.6 884 1219.3 881.9 1215.9 879.7 1212.2 880.5 1210.1 883.9L1192.1 911.9 1186.4 886.1C1185.6 882.4 1182.3 880.3 1178.6 881.1S1172.7 885.2 1173.5 888.9L1182 927.6 1156.7 966.9 1137.1 876.6C1136.3 872.9 1132.9 870.7 1129.2 871.6 1125.5 872.4 1123.4 875.7 1124.2 879.4L1146.6 982.6 1125.7 1015.1 1118.1 980.1C1117.3 976.4 1114 974.3 1110.3 975.1 1106.6 975.9 1104.4 979.2 1105.2 982.9L1115.7 1030.8 1095.5 1062.2 1078.6 1029.2 1093.4 981.6C1093.7 978.7 1091.8 974.3 1088.8 973.9 1084.7 972.9 1082.2 974.4 1080 977.8L1069.1 1012 1052.3 979 1084.2 877.5C1085.3 873.4 1083.7 870.8 1080.4 868.7 1076.3 867.6 1073 870.3 1071.6 872.5L1042.7 961.8 1022.1 920 1034 881.7C1036.1 878.3 1033.5 875 1030.1 872.9 1027.2 872.5 1022.8 874.5 1021.7 878.5L1013.6 903.5 997.6 874.1C996.8 870.5 992.7 869.4 988.3 871.3 985.8 872.9 984.7 877 986.2 879.5L1001.5 910 975.5 901.2C971.4 900.1 968.1 902.8 967.8 905.7 965.7 909.1 967.2 911.6 969.4 913.1 970.5 913.8 970.5 913.8 971.7 914.5L1010 926.5 1030.6 968.3 942.5 940.2C939.1 938 935.9 940.7 933.7 944 933.4 947 934.9 949.6 937.1 951 938.3 951.7 938.3 951.7 938.3 951.7L1040.2 985.5 1057 1018.5 1022.8 1007.6C1018.7 1006.6 1016.2 1008.1 1014 1011.5 1013.7 1014.4 1014.5 1018.1 1016.7 1019.5 1017.8 1020.3 1017.8 1020.3 1019 1021L1066.5 1035.7 1083.4 1068.7 1046.4 1067.1 1012.5 1031.1C1009.8 1027.8 1005 1027.9 1002.5 1029.4 1000.3 1032.8 999.3 1036.9 1002.6 1039L1026.7 1065.6 989 1065.1 916.6 985.4C915.1 982.8 910.3 982.9 907.8 984.4 905.6 987.8 904.5 991.9 907.2 995.1L969.4 1063.6 923.5 1061.1 896.7 1031.2C894.1 1027.9 889.3 1028 887.1 1031.4 884.5 1032.9 883.5 1037 886.1 1040.3L905 1060.3 870.9 1059C868 1058.7 864.7 1061.3 863.6 1065.4 864 1067.3 865.6 1069.8 867.8 1071.3 867.8 1071.3 868.9 1072 870 1072.7L904.1 1074 884.1 1092.8C881.5 1094.3 881.6 1099.1 883.1 1101.7 884.2 1102.4 884.2 1102.4 884.2 1102.4 887.6 1104.6 891.3 1103.8 892.7 1101.5L922.6 1074.8 969.2 1076.2 900 1139.5C897.9 1142.9 897.5 1145.8 900.2 1149.1 900.2 1149.1 901.3 1149.8 901.3 1149.8 903.6 1151.3 906.5 1151.6 909.8 1149L988.9 1077.7 1025.9 1079.3 999.3 1103.4C997.1 1106.8 996.1 1110.9 999.4 1113 998.7 1114.2 999.8 1114.9 999.8 1114.9 1002.1 1116.3 1005.8 1115.5 1008.3 1114L1044.4 1080.1 1082.5 1082.4 1062.3 1113.8 1014.4 1124.3C1010.7 1125.1 1007.9 1129.5 1008.7 1133.2 1010.2 1135.8 1013.5 1138 1016.5 1138.3L1052.2 1129.5 1031.3 1162.1 928.2 1184.5C924.5 1185.3 922.3 1188.7 923.1 1192.4 923.9 1196.1 927.3 1198.2 931 1197.4L1021.2 1177.8 996 1217 957.3 1225.5C953.6 1226.3 951.5 1229.6 952.3 1233.3S956.4 1239.2 960.1 1238.3L985.9 1232.7 967.9 1260.8C965.7 1264.1 966.5 1267.8 969.9 1270 973.3 1272.2 977 1271.4 979.1 1268L997.1 1239.9 1003.9 1266.5C1004.3 1268.3 1004.7 1270.1 1005.8 1270.9 1006.9 1271.6 1009.9 1271.9 1011.7 1271.5 1015.4 1270.7 1017.6 1267.3 1016.8 1263.6L1007.2 1224.2 1032.5 1185 1053.2 1276C1053.6 1277.8 1054 1279.7 1055.2 1280.4 1056.3 1281.1 1059.2 1281.4 1061.1 1281 1064.8 1280.2 1066.9 1276.9 1066.1 1273.2L1042.5 1169.3 1063.5 1136.7 1070.3 1172.9C1070.8 1174.7 1073 1176.2 1074.1 1176.9 1075.2 1177.6 1076.4 1178.3 1078.2 1177.9 1081.9 1177.1 1084.8 1172.6 1083.2 1170.1L1073.5 1121 1093.7 1089.6 1111.7 1123.3 1095.8 1170.2C1095.5 1173.2 1096.3 1176.9 1098.6 1178.3 1099.7 1179 1099.7 1179 1100.4 1177.9 1103.8 1180.1 1108.2 1178.1 1109.2 1174.1L1120.1 1139.8 1138 1173.6 1104.3 1275.5C1103.9 1278.4 1105.5 1281 1107.7 1282.5 1108.8 1283.2 1108.8 1283.2 1108.8 1283.2 1112.9 1284.2 1116.6 1283.4 1117.6 1279.3L1146.5 1190.1 1167.1 1231.9 1155.2 1270.2C1154.2 1274.3 1155.7 1276.8 1157.9 1278.3 1157.9 1278.3 1159.1 1279 1159.1 1279 1163.1 1280 1166.4 1277.4 1167.9 1275.1L1175.6 1248.4 1190.9 1278.8C1192 1279.5 1193.1 1280.3 1194.2 1281 1195.4 1281.7 1198.3 1282 1200.2 1281.6 1203.4 1279 1205.6 1275.6 1203 1272.3L1187.7 1241.9 1213.7 1250.7C1217.8 1251.7 1221.1 1249.1 1222.5 1246.9 1223.5 1242.8 1220.9 1239.5 1217.5 1237.3L1179.2 1225.4 1157.8 1184.7 1246 1212.8C1250.1 1213.8 1254.5 1211.9 1254.8 1208.9 1255.8 1204.9 1255 1201.2 1250.9 1200.1Z" fill="rgba(13, 188, 218, 1)"></path><path d="M216.4 3788.4L287.4 3735.3 319.3 3740.6 295.3 3758.4C292.2 3759.6 292.4 3763.1 293.7 3766.2 295.5 3767.9 299.4 3768.7 301.1 3766.9L334.6 3742.9 366.1 3747.1 346 3771.8 304.8 3776.2C304.8 3776.2 303.7 3776.6 303.7 3776.6 301.7 3777.4 300.4 3780.3 300.2 3782.8 301.4 3785.9 303.3 3787.5 306.8 3787.3L336.5 3784 316.4 3808.6 228.6 3819.4C228.6 3819.4 227.2 3818.8 227.2 3818.8 225.1 3819.6 223.9 3822.5 223.7 3825 223.9 3828.5 227.2 3830.8 230.3 3829.5L306.8 3820.8 283.2 3851.6 248.9 3855.6C248.9 3855.6 248.9 3855.6 247.9 3856 245.8 3856.8 244.2 3858.7 244 3861.2 245.2 3864.3 247.4 3867 250.9 3866.8L273.7 3863.8 256.2 3886.2C253.5 3888.4 254.8 3891.5 256.6 3893.2 258.9 3895.9 262.4 3895.7 264.7 3892.4L282.5 3871 284.1 3893.1C285.3 3896.2 287.5 3898.9 290.6 3897.7 294.2 3897.5 295.8 3895.6 295.6 3892.1L291.6 3857.8 315.7 3828 324.9 3905.6C324.6 3908.1 327.9 3910.4 331.4 3910.2 333.5 3909.4 336.2 3907.1 336 3903.6L325.2 3815.9 345.3 3791.2 348.7 3820.9C348.9 3824.4 351.8 3825.7 355.3 3825.5 357.8 3825.7 360.1 3822.4 360.3 3820L354.9 3779.1 374.6 3753.4 386.4 3783.3 370.2 3820.8C368.9 3823.7 370.2 3826.8 373 3828.1 374.9 3829.7 379 3828.1 380.3 3825.2L392.1 3797.8 404 3827.8 368 3908.9C366.7 3911.8 367.9 3914.9 370.8 3916.1 373.7 3917.4 376.8 3916.2 378.1 3913.3L409.7 3842.2 423.6 3877.4 409.9 3909.1C408.6 3912 409.8 3915.1 412.7 3916.3 415.6 3917.6 418.7 3916.3 419.9 3913.5L429.7 3892.9 439.9 3918.7C441.2 3921.8 444.1 3923 447.2 3921.8 450.3 3920.6 451.5 3917.7 450.3 3914.6L440.1 3888.8 460.2 3897.5C463.1 3898.8 466.2 3897.6 467.5 3894.7S467.5 3888.7 464.6 3887.4L434.3 3874.3 420 3838.1 490.7 3868.8C493.6 3870 496.7 3868.8 497.9 3865.9 499.2 3863 498 3859.9 495.1 3858.7L414.3 3823.7 402.5 3793.7 429.9 3805.6C432.8 3806.8 435.9 3805.6 437.1 3802.7 438.4 3799.8 437.1 3796.7 434.2 3795.5L396.8 3779.2 385.3 3750.3 415.8 3755 440.9 3788.1C442.7 3789.8 446.6 3790.6 448.3 3788.7 451 3786.5 451.2 3784 450 3780.9L432.1 3756.9 462.7 3761.6 515.8 3832.6C518.1 3835.2 520.5 3835.5 523.6 3834.2 526.3 3832 526.1 3828.5 525.3 3826.4L478.9 3763.5 517.3 3769.8 537.4 3796.5C538.6 3799.6 542.1 3799.4 545.2 3798.2 546.9 3796.4 547.7 3792.4 545.5 3789.8L532.6 3772.2 560.2 3775.6C563.1 3776.8 565.8 3774.6 566.6 3770.7 566.8 3768.2 564.6 3765.5 562.1 3765.3L534 3760.8 552.7 3747.5C555.4 3745.2 555.2 3741.7 553.3 3740.1 552.1 3737 549.6 3736.7 547.6 3737.6 546.5 3738 546.5 3738 545.5 3738.4L518.8 3758.5 480.4 3752.1 542.3 3706.2C545.4 3705 545.2 3701.4 544 3698.3 542.1 3696.7 539.7 3696.5 537.6 3697.3 536.6 3697.7 536.6 3697.7 536.6 3697.7L464.1 3750.2 433.6 3745.6 457.6 3727.7C460.3 3725.4 460.5 3723 459.3 3719.9 457.5 3718.2 454.6 3717 452.5 3717.8 451.5 3718.2 451.5 3718.2 450.4 3718.6L417.3 3743.6 386.8 3739 405.9 3714.7 446.8 3709.3C450.3 3709.1 452.6 3705.8 452.8 3703.3 451.6 3700.2 449.3 3697.5 446.2 3698.8L416.5 3702.2 435.1 3676.9 524.3 3666.7C526.8 3666.9 529.1 3663.6 529.3 3661.1 528.1 3658 525.8 3655.4 522.3 3655.5L445.7 3664.3 469.8 3634.5 503 3630.9C506.5 3630.7 508.8 3627.4 507.6 3624.3 507.8 3621.9 505.5 3619.2 502 3619.4L479.3 3622.4 496.7 3599.9C498.4 3598.1 498.2 3594.6 495.9 3591.9 494.5 3591.3 492 3591 490 3591.9 490 3591.9 488.9 3592.3 487.9 3592.7L470.5 3615.1 467.5 3592.4C467.7 3589.9 464.4 3587.6 461.9 3587.4 460.9 3587.8 460.9 3587.8 460.9 3587.8 457.8 3589.1 456.5 3591.9 457.3 3594L460.9 3627.2 437.3 3658.1 428.1 3580.5C426.9 3577.4 425 3575.7 421.5 3575.9 421.5 3575.9 420.5 3576.3 420.5 3576.3 418.4 3577.1 416.8 3579 417 3582.5L426.7 3670.6 407.6 3694.9 404.2 3665.2C403 3662.1 400.8 3659.4 397.7 3660.6 397.2 3659.6 396.2 3660 396.2 3660 394.1 3660.8 392.9 3663.7 392.7 3666.2L398.1 3707 378 3731.7 366.5 3702.8 382.8 3665.3C384 3662.4 382.4 3658.3 379.5 3657 377 3656.8 373.9 3658 372.3 3659.9L360.8 3688.3 349 3658.4 384 3577.6C385.2 3574.7 384 3571.6 381.1 3570.4 378.2 3569.1 375.1 3570.4 373.9 3573.2L343.3 3643.9 329 3607.7 342.1 3577.4C343.3 3574.6 342.1 3571.5 339.2 3570.2S333.2 3570.2 332 3573.1L323.2 3593.3 313 3567.4C311.8 3564.3 308.9 3563.1 305.8 3564.3 302.7 3565.5 301.5 3568.4 302.7 3571.5L312.9 3597.3 291.7 3589C290.2 3588.4 288.8 3587.8 287.8 3588.2 286.7 3588.6 285.1 3590.4 284.5 3591.9 283.2 3594.7 284.4 3597.8 287.3 3599.1L318.6 3611.8 332.9 3648 261.2 3617.8C259.8 3617.1 258.4 3616.5 257.3 3616.9 256.3 3617.3 254.6 3619.2 254 3620.6 252.8 3623.5 254 3626.6 256.9 3627.9L338.6 3662.4 350.5 3692.4 322.7 3679.5C321.2 3678.9 319.2 3679.7 318.1 3680.1 317.1 3680.5 316.1 3680.9 315.4 3682.4 314.2 3685.2 315.8 3689.4 318.3 3689.6L356.2 3706.9 367.6 3735.8 336.1 3731.5 312.1 3698C310.2 3696.4 307.3 3695.1 305.3 3695.9 304.2 3696.3 304.2 3696.3 304.7 3697.4 301.6 3698.6 300.7 3702.5 303 3705.2L320.8 3729.2 289.3 3725 236.7 3652.5C234.9 3650.9 232.4 3650.7 230.4 3651.5 229.3 3651.9 229.3 3651.9 229.3 3651.9 226.6 3654.1 225.4 3657 227.6 3659.7L274 3722.6 235.7 3716.3 215.6 3689.6C213.3 3686.9 210.8 3686.7 208.8 3687.5 208.8 3687.5 207.7 3687.9 207.7 3687.9 205 3690.2 205.2 3693.7 206 3695.7L220.4 3714 192.4 3709.5C191.3 3709.9 190.3 3710.3 189.3 3710.7 188.2 3711.1 186.6 3713 185.9 3714.4 186.1 3717.9 187.4 3721 190.9 3720.9L218.9 3725.3 200.3 3738.6C197.6 3740.9 197.8 3744.4 198.6 3746.5 200.9 3749.2 204.4 3749 207.5 3747.7L234.2 3727.6 272.1 3732.9 210.2 3778.9C207.6 3781.2 206.7 3785.1 208.6 3786.7 210.8 3789.4 213.7 3790.7 216.4 3788.4Z" fill="rgba(13, 188, 218, 1)"></path><path d="M751.2 1559.8L681 1549.6 665.9 1528.5 689.6 1532C692 1533.1 693.9 1531 695 1528.5 694.9 1526.6 693.2 1523.9 691.2 1524L658.6 1518.5 643.2 1498.2 668.6 1495.7 694.4 1516.6C694.4 1516.6 695.2 1517 695.2 1517 696.8 1517.7 699.1 1516.8 700.7 1515.5 701.7 1513.1 701.6 1511.1 699.5 1509.2L680.8 1494.3 706.2 1491.7 761.8 1535.4C761.8 1535.4 762.3 1536.5 762.3 1536.5 763.9 1537.2 766.3 1536.3 767.8 1535 769.7 1533 769.1 1529.8 766.7 1528.7L718.4 1490.3 749.3 1486.3 770.9 1503.4C770.9 1503.4 770.9 1503.4 771.7 1503.8 773.3 1504.5 775.3 1504.4 776.8 1503.1 777.9 1500.7 778.2 1497.9 776.1 1496L761.5 1484.8 784.1 1482C786.9 1482.3 788 1479.8 787.9 1477.9 788.1 1475.1 786 1473.2 782.9 1473.7L760.7 1475.7 772.3 1462.4C773.4 1459.9 773.6 1457.1 771.2 1456 769.1 1454.2 767.1 1454.3 765.2 1456.4L748 1478 717.6 1481.2 756.4 1432.1C757.9 1430.9 757.3 1427.7 755.2 1425.8 753.6 1425.1 750.8 1424.9 748.9 1427L705.3 1482.6 680 1485.2 694.9 1466.4C696.8 1464.4 695.9 1462 693.8 1460.1 692.5 1458.6 689.3 1459.2 687.8 1460.5L667.7 1486.6 642 1489.9 652.3 1466.3 682.7 1454.4C685.1 1453.4 686.1 1451 685.2 1448.6 685.1 1446.7 681.8 1445.2 679.5 1446.2L657.3 1454.9 667.6 1431.3 733.9 1405.9C736.2 1405 737.3 1402.5 736.4 1400.2 735.5 1397.8 733 1396.8 730.7 1397.7L672.5 1419.9 684.6 1392.2 710.3 1382C712.7 1381.1 713.7 1378.7 712.8 1376.3 711.9 1374 709.5 1372.9 707.1 1373.8L689.9 1379.9 698.8 1359.6C699.9 1357.1 698.9 1354.8 696.5 1353.7 694.1 1352.6 691.7 1353.6 690.7 1356L681.8 1376.4 675.3 1360C674.4 1357.7 672 1356.6 669.6 1357.5S666.2 1360.9 667.1 1363.2L676.8 1387.8 664.4 1416.3 641.8 1359C640.9 1356.6 638.5 1355.6 636.1 1356.5 633.8 1357.4 632.7 1359.9 633.7 1362.2L659.4 1427.7 649.1 1451.4 640.4 1429.1C639.5 1426.8 637 1425.7 634.7 1426.6 632.3 1427.6 631.3 1430 632.2 1432.3L644.1 1462.8 634.2 1485.6 619.6 1465.7 624.2 1432.8C624.1 1430.8 622.4 1428.1 620.4 1428.2 617.6 1427.9 616.1 1429.2 615 1431.7L611.5 1455.3 596.9 1435.4 607.1 1365.2C607.4 1362.4 606.1 1360.9 603.7 1359.8 600.9 1359.6 599 1361.6 598.3 1363.3L588.8 1425.1 570.8 1399.8 574.5 1373.3C575.6 1370.8 573.5 1369 571.1 1367.9 569.1 1368 566.4 1369.7 566.1 1372.5L563.5 1389.8 549.8 1372.2C548.9 1369.9 546.1 1369.6 543.4 1371.4 541.9 1372.6 541.6 1375.4 542.9 1377L556.2 1395.4 538.1 1392.3C535.3 1392.1 533.4 1394.2 533.5 1396.2 532.5 1398.6 533.8 1400.1 535.4 1400.8 536.2 1401.2 536.2 1401.2 537 1401.5L563.5 1405.3 581.5 1430.6 520.6 1421.5C518.1 1420.5 516.2 1422.5 515.2 1425 515.3 1427 516.5 1428.5 518.2 1429.2 519 1429.6 519 1429.6 519 1429.6L589.6 1441 604.2 1460.9 580.6 1457.4C577.8 1457.1 576.2 1458.4 575.2 1460.8 575.3 1462.8 576.2 1465.2 577.8 1465.9 578.6 1466.2 578.6 1466.2 579.5 1466.6L612.3 1471.2 626.9 1491.1 602.4 1494 576.3 1473.9C574.2 1472 571 1472.6 569.5 1473.9 568.4 1476.3 568.2 1479.1 570.6 1480.2L589.3 1495.1 564.4 1498.8 508.3 1454C507.1 1452.5 503.9 1453.1 502.4 1454.3 501.3 1456.8 501.1 1459.6 503.2 1461.5L551.4 1499.9 520.9 1503.1 500.1 1486.3C498 1484.4 494.8 1485 493.8 1487.4 492.3 1488.7 492 1491.5 494.1 1493.4L508.6 1504.6 486.1 1507.3C484.1 1507.4 482.2 1509.5 482 1512.3 482.4 1513.5 483.7 1515 485.3 1515.7 485.3 1515.7 486.1 1516.1 487 1516.4L509.5 1513.7 498.3 1528.2C496.8 1529.5 497.4 1532.6 498.6 1534.1 499.5 1534.5 499.5 1534.5 499.5 1534.5 501.9 1535.6 504.2 1534.6 504.9 1533L521.8 1512.2 552.6 1508.2 513.8 1557.2C512.7 1559.7 512.8 1561.7 514.9 1563.5 514.9 1563.5 515.7 1563.9 515.7 1563.9 517.4 1564.6 519.3 1564.5 521.2 1562.4L565.7 1507.1 590.2 1504.2 575.3 1522.9C574.2 1525.4 574 1528.2 576.4 1529.2 576 1530.1 576.9 1530.4 576.9 1530.4 578.5 1531.1 580.8 1530.2 582.4 1528.9L602.5 1502.8 627.8 1500.2 617.9 1523.1 587.5 1535C585.1 1535.9 583.7 1539.2 584.6 1541.5 585.9 1543.1 588.3 1544.1 590.3 1544L612.9 1534.5 602.6 1558.1 537.1 1583.9C534.8 1584.8 533.7 1587.2 534.6 1589.6 535.5 1591.9 538 1593 540.3 1592.1L597.6 1569.5 585.2 1598 560.6 1607.7C558.3 1608.6 557.2 1611.1 558.2 1613.4S561.5 1616.8 563.9 1615.9L580.2 1609.4 571.4 1629.8C570.3 1632.3 571.2 1634.6 573.7 1635.7 576.1 1636.7 578.5 1635.8 579.5 1633.4L588.4 1613 595.6 1629.7C596.1 1630.9 596.6 1632.1 597.4 1632.4 598.2 1632.8 600.2 1632.7 601.3 1632.2 603.7 1631.3 604.8 1628.9 603.8 1626.5L593.4 1601.6 605.8 1573.1 629.1 1630.7C629.6 1631.9 630.1 1633.1 630.9 1633.4 631.7 1633.8 633.7 1633.7 634.8 1633.2 637.2 1632.3 638.2 1629.9 637.3 1627.5L610.8 1561.7 621.1 1538 629.4 1561.1C629.9 1562.2 631.5 1562.9 632.3 1563.3 633.2 1563.7 634 1564 635.1 1563.6 637.5 1562.6 638.9 1559.4 637.6 1557.8L626 1526.6 636 1503.8 651.4 1524.1 645.9 1556.6C646 1558.6 646.9 1560.9 648.6 1561.6 649.4 1562 649.4 1562 649.7 1561.2 652.2 1562.3 654.9 1560.5 655.1 1557.7L658.7 1534 674.1 1554.3 662.7 1625C662.8 1627 664 1628.5 665.7 1629.2 666.5 1629.6 666.5 1629.6 666.5 1629.6 669.3 1629.8 671.6 1628.9 671.9 1626.1L681.4 1564.3 699.4 1589.6 695.6 1616.1C695.4 1618.9 696.7 1620.4 698.3 1621.1 698.3 1621.1 699.1 1621.5 699.1 1621.5 701.9 1621.7 703.8 1619.6 704.5 1618L706.7 1599.6 720 1618C720.8 1618.3 721.6 1618.7 722.5 1619 723.3 1619.4 725.3 1619.3 726.4 1618.8 728.3 1616.7 729.4 1614.3 727.3 1612.4L714 1594 732.1 1597C734.8 1597.3 736.7 1595.2 737.4 1593.6 737.7 1590.8 735.6 1588.9 733.2 1587.8L706.7 1584.1 688.3 1559.6 749.3 1568.7C752.1 1568.9 754.8 1567.2 754.6 1565.2 754.9 1562.4 754 1560.1 751.2 1559.8Z" fill="rgba(13, 188, 218, 1)"></path><path d="M1386.6 652.7L1358 565 1395.8 492.1 1440.1 561.2 1419.9 651.1C1419.9 651.1 1419.9 652.2 1419.9 652.2 1420 654.5 1422.3 656.6 1424.6 657.6 1428 658.5 1431.2 656.2 1431.1 652.8L1448.5 574.2 1470.1 607.6 1462.8 642.5C1462.8 642.5 1462.9 643.6 1462.9 643.6 1463 645.8 1465.3 647.9 1467.6 648.9 1471 649.9 1474.2 647.5 1474 644.2L1479.6 620.5 1495.2 645.4C1496.4 647.6 1500.9 648.5 1503.1 647.3 1506.4 646 1506.2 641.5 1505 639.4L1489.3 614.5 1513 620.1C1516.3 621.1 1519.6 618.7 1519.4 615.3 1520.4 612 1518 608.7 1514.7 608.9L1479.8 601.6 1459.4 568.1 1538 585.6C1541.4 586.5 1544.7 584.1 1544.5 580.8 1545.5 577.4 1543.1 574.2 1539.7 574.4L1449.8 554.1 1405.4 485 1488.7 481.1 1557.2 543.5C1559.5 545.6 1562.9 545.5 1565 543.1 1567.1 540.8 1566.9 537.5 1564.6 535.4L1504.2 480.4 1544.2 478.5 1569.7 501.8C1572.1 503.9 1575.4 503.7 1577.5 501.4 1579.6 499.1 1579.5 495.8 1577.1 493.6L1559.7 477.8 1590.8 476.3C1594.2 477.3 1596.2 473.8 1596.1 470.5 1595.9 467.2 1593.6 465.1 1590.3 465.2L1561.4 466.6 1577.3 449.1C1579.4 446.8 1579.3 443.5 1576.9 441.4S1571.3 439.4 1569.2 441.7L1545.9 467.3 1505.9 469.2 1560.9 408.7C1563.1 406.4 1562.9 403.1 1560.6 401 1558.3 398.9 1554.9 399 1552.8 401.3L1490.4 469.9 1408.3 473.7 1446 400.8 1531.5 373.4C1534.8 372.1 1535.7 368.8 1535.6 365.4 1534.3 362.2 1530.9 361.2 1527.6 361.4L1450.9 386.1 1469.3 350.7 1503.2 340.2C1506.5 339 1507.5 335.6 1507.3 332.3 1506.1 329 1502.7 328 1500.5 328.1L1477.5 335.9 1490.7 309.7C1491.7 307.4 1491.5 303 1488.1 302 1484.7 301.1 1481.4 301.2 1480.5 304.6L1467.2 330.8 1459.5 307.8C1458.2 304.5 1454.8 303.6 1452.6 303.7 1450.4 304.9 1448.3 307.2 1448.4 309.4 1448.4 309.4 1448.5 310.5 1448.5 310.5L1459 344.5 1440.6 379.9 1415.9 303.2C1414.6 299.9 1411.2 298.9 1409 299 1406.8 300.2 1404.7 302.6 1404.8 304.8 1404.8 304.8 1404.9 305.9 1404.9 305.9L1433.4 393.6 1395.7 466.5 1351.3 397.4 1371.6 307.5C1372.5 304.1 1370.2 300.8 1366.8 301 1363.4 300 1360.2 302.4 1360.4 305.8L1342.9 384.4 1321.3 351 1328.6 316.1C1329.6 312.8 1327.2 309.5 1323.9 309.7 1320.5 308.7 1317.2 311.1 1317.4 314.4L1311.8 338.1 1296.2 313.2C1295 311 1290.5 310.1 1288.3 311.3 1286.2 312.6 1285.2 314.8 1285.3 317 1285.3 318.2 1285.4 319.3 1286.5 320.3L1302.1 345.2 1278.5 339.6C1275.1 338.6 1271.9 341 1272.1 344.4 1272.1 344.4 1272.1 345.5 1272.1 345.5 1272.2 347.7 1274.6 349.8 1276.8 350.8L1311.6 358.1 1333.2 391.6 1254.6 374.1C1251.2 373.1 1247.9 375.5 1248.1 378.8 1248.1 378.8 1248.2 380 1248.2 380 1248.3 382.2 1250.6 384.3 1252.9 385.3L1342.8 405.6 1387.2 474.7 1305 478.5 1236.5 416.1C1234.2 414 1230.8 414.1 1228.7 416.5 1226.6 418.8 1226.8 422.1 1229.1 424.2L1288.4 479.3 1248.4 481.2 1222.9 457.9C1220.5 455.8 1217.2 455.9 1215.1 458.2S1213.1 463.9 1215.5 466L1232.9 481.9 1204 483.2C1200.7 483.4 1198.6 485.7 1198.7 489 1198.9 492.4 1201.2 494.5 1204.5 494.3L1233.4 493 1217.5 510.4C1216.5 511.6 1215.4 512.7 1215.5 515S1216.8 518.2 1217.9 519.3C1220.3 521.4 1223.6 521.2 1225.7 518.9L1249 493.4 1289 491.5 1233.9 551.9C1232.9 553.1 1231.8 554.2 1231.9 556.5 1232 557.6 1233.2 559.7 1234.3 560.8 1236.7 562.9 1240 562.8 1242.1 560.4L1304.5 491.9 1386.7 488.1 1348.9 561 1261.3 589.6C1259.1 590.8 1257 593.1 1257.1 595.3 1257.1 595.3 1257.1 596.4 1257.1 596.4 1258.4 599.7 1261.8 600.7 1264 600.6L1340.7 575.9 1322.3 611.2 1288.3 621.7C1286.2 622.9 1284.1 625.2 1284.2 627.4 1284.2 627.4 1284.2 628.5 1284.2 628.5 1285.5 631.8 1288.9 632.8 1291.1 632.7L1314.1 624.9 1300.8 651.1C1300.9 652.2 1299.8 653.4 1299.9 654.5 1300 656.7 1301.2 658.9 1303.5 659.9 1306.9 660.9 1310.2 660.7 1311.1 657.3L1324.4 631.1 1332.1 654.1C1333.4 657.4 1336.8 658.3 1339 658.2 1342.3 657 1343.2 653.6 1343.1 651.4L1332.6 617.4 1351 582 1375.7 658.8C1377 662 1380.4 663 1382.6 662.9 1385.8 659.4 1387.8 656 1386.6 652.7Z" fill="rgba(13, 188, 218, 1)"></path></g><defs><mask id="SvgjsMask1117"><rect width="1920" height="4000" fill="#ffffff"></rect></mask><linearGradient x1="-27.08%" y1="13%" x2="127.08%" y2="87%" gradientUnits="userSpaceOnUse" id="SvgjsLinearGradient1118"><stop stop-color="#0e2a47" offset="0"></stop><stop stop-color="#00459e" offset="1"></stop></linearGradient><filter id="SvgjsFilter1119"><feGaussianBlur stdDeviation="1"></feGaussianBlur></filter></defs></svg>