<svg width="19" height="19" viewBox="0 0 19 19" fill="none" xmlns="http://www.w3.org/2000/svg">
<path d="M1 3.25C1 2.65326 1.23705 2.08097 1.65901 1.65901C2.08097 1.23705 2.65326 1 3.25 1H5.5C6.09674 1 6.66903 1.23705 7.09099 1.65901C7.51295 2.08097 7.75 2.65326 7.75 3.25V5.5C7.75 6.09674 7.51295 6.66903 7.09099 7.09099C6.66903 7.51295 6.09674 7.75 5.5 7.75H3.25C2.65326 7.75 2.08097 7.51295 1.65901 7.09099C1.23705 6.66903 1 6.09674 1 5.5V3.25ZM1 13C1 12.4033 1.23705 11.831 1.65901 11.409C2.08097 10.9871 2.65326 10.75 3.25 10.75H5.5C6.09674 10.75 6.66903 10.9871 7.09099 11.409C7.51295 11.831 7.75 12.4033 7.75 13V15.25C7.75 15.8467 7.51295 16.419 7.09099 16.841C6.66903 17.2629 6.09674 17.5 5.5 17.5H3.25C2.65326 17.5 2.08097 17.2629 1.65901 16.841C1.23705 16.419 1 15.8467 1 15.25V13ZM10.75 3.25C10.75 2.65326 10.9871 2.08097 11.409 1.65901C11.831 1.23705 12.4033 1 13 1H15.25C15.8467 1 16.419 1.23705 16.841 1.65901C17.2629 2.08097 17.5 2.65326 17.5 3.25V5.5C17.5 6.09674 17.2629 6.66903 16.841 7.09099C16.419 7.51295 15.8467 7.75 15.25 7.75H13C12.4033 7.75 11.831 7.51295 11.409 7.09099C10.9871 6.66903 10.75 6.09674 10.75 5.5V3.25ZM10.75 13C10.75 12.4033 10.9871 11.831 11.409 11.409C11.831 10.9871 12.4033 10.75 13 10.75H15.25C15.8467 10.75 16.419 10.9871 16.841 11.409C17.2629 11.831 17.5 12.4033 17.5 13V15.25C17.5 15.8467 17.2629 16.419 16.841 16.841C16.419 17.2629 15.8467 17.5 15.25 17.5H13C12.4033 17.5 11.831 17.2629 11.409 16.841C10.9871 16.419 10.75 15.8467 10.75 15.25V13Z" stroke="#0DBCDA" stroke-width="1.5" stroke-linecap="round" stroke-linejoin="round"/>
</svg>
