<svg width="21" height="20" viewBox="0 0 21 20" fill="none" xmlns="http://www.w3.org/2000/svg">
<path d="M14.6496 12.8307L14.1187 13.3636C14.1187 13.3636 12.8552 14.6295 9.40777 11.173C5.96029 7.71651 7.22378 6.45062 7.22378 6.45062L7.55745 6.11414C8.38228 5.28825 8.46044 3.96118 7.74061 2.99177L6.27062 1.01175C5.3793 -0.188261 3.65847 -0.347086 2.63765 0.676452L0.805994 2.51176C0.30083 3.02 -0.0375011 3.67648 0.00333198 4.40589C0.108331 6.27297 0.945992 10.2883 5.61729 14.973C10.5721 19.9401 15.2212 20.1378 17.1217 19.959C17.7237 19.9025 18.2464 19.5943 18.6675 19.1707L20.3242 17.5095C21.4442 16.3883 21.1292 14.4648 19.6965 13.6801L17.4682 12.4577C16.5279 11.9424 15.3846 12.0942 14.6496 12.8307Z" fill="#0DBCDA"/>
</svg>
