<svg width="28" height="44" viewBox="0 0 28 44" fill="none" xmlns="http://www.w3.org/2000/svg">
<path d="M22 2.75C22.7293 2.75 23.4288 3.03973 23.9445 3.55546C24.4603 4.07118 24.75 4.77065 24.75 5.5V38.5C24.75 39.2293 24.4603 39.9288 23.9445 40.4445C23.4288 40.9603 22.7293 41.25 22 41.25H5.5C4.77065 41.25 4.07118 40.9603 3.55546 40.4445C3.03973 39.9288 2.75 39.2293 2.75 38.5V5.5C2.75 4.77065 3.03973 4.07118 3.55546 3.55546C4.07118 3.03973 4.77065 2.75 5.5 2.75H22ZM5.5 0C4.04131 0 2.64236 0.579463 1.61091 1.61091C0.579462 2.64236 0 4.04131 0 5.5V38.5C0 39.9587 0.579462 41.3576 1.61091 42.3891C2.64236 43.4205 4.04131 44 5.5 44H22C23.4587 44 24.8576 43.4205 25.8891 42.3891C26.9205 41.3576 27.5 39.9587 27.5 38.5V5.5C27.5 4.04131 26.9205 2.64236 25.8891 1.61091C24.8576 0.579463 23.4587 0 22 0L5.5 0Z" fill="#0DBCDA"/>
<path d="M13.75 38.5C14.4793 38.5 15.1788 38.2103 15.6945 37.6945C16.2103 37.1788 16.5 36.4793 16.5 35.75C16.5 35.0207 16.2103 34.3212 15.6945 33.8055C15.1788 33.2897 14.4793 33 13.75 33C13.0207 33 12.3212 33.2897 11.8055 33.8055C11.2897 34.3212 11 35.0207 11 35.75C11 36.4793 11.2897 37.1788 11.8055 37.6945C12.3212 38.2103 13.0207 38.5 13.75 38.5Z" fill="#0DBCDA"/>
</svg>
