<svg width="24" height="24" viewBox="0 0 24 24" fill="none" xmlns="http://www.w3.org/2000/svg">
<path d="M18.4641 2.114C18.3026 2.02906 18.1209 1.99003 17.9387 2.00113C17.7566 2.01224 17.581 2.07307 17.4311 2.177L4.43105 11.177C4.29861 11.2694 4.19045 11.3925 4.11576 11.5357C4.04108 11.6789 4.00208 11.838 4.00208 11.9995C4.00208 12.161 4.04108 12.3201 4.11576 12.4633C4.19045 12.6065 4.29861 12.7296 4.43105 12.822L17.4311 21.822C17.5811 21.9258 17.7566 21.9866 17.9387 21.9978C18.1208 22.009 18.3025 21.9701 18.4641 21.8855C18.6257 21.8008 18.7611 21.6735 18.8556 21.5175C18.95 21.3614 19 21.1824 19.0001 21V3C19.0001 2.81746 18.9501 2.6384 18.8557 2.48221C18.7612 2.32603 18.6257 2.19869 18.4641 2.114ZM17.0001 19.091L6.75705 12L17.0001 4.909V19.091Z" fill="white"/>
</svg>
