<svg width="46" height="46" viewBox="0 0 46 46" fill="none" xmlns="http://www.w3.org/2000/svg">
<path d="M40.25 8.625H5.75C4.9875 8.625 4.25623 8.9279 3.71707 9.46707C3.1779 10.0062 2.875 10.7375 2.875 11.5V34.5C2.875 35.2625 3.1779 35.9938 3.71707 36.5329C4.25623 37.0721 4.9875 37.375 5.75 37.375H40.25C41.0125 37.375 41.7438 37.0721 42.2829 36.5329C42.8221 35.9938 43.125 35.2625 43.125 34.5V11.5C43.125 10.7375 42.8221 10.0062 42.2829 9.46707C41.7438 8.9279 41.0125 8.625 40.25 8.625ZM37.0875 11.5L23 21.2462L8.9125 11.5H37.0875ZM5.75 34.5V12.8081L22.1806 24.1787C22.4213 24.3457 22.7071 24.4351 23 24.4351C23.2929 24.4351 23.5787 24.3457 23.8194 24.1787L40.25 12.8081V34.5H5.75Z" fill="#0DBCDA"/>
</svg>
