<?xml version="1.0" encoding="UTF-8"?>
<!DOCTYPE svg PUBLIC "-//W3C//DTD SVG 1.1//EN" "http://www.w3.org/Graphics/SVG/1.1/DTD/svg11.dtd">
<svg xmlns="http://www.w3.org/2000/svg" version="1.1" width="260px" height="260px" style="shape-rendering:geometricPrecision; text-rendering:geometricPrecision; image-rendering:optimizeQuality; fill-rule:evenodd; clip-rule:evenodd" xmlns:xlink="http://www.w3.org/1999/xlink">
<g><path style="opacity:1" fill="#fefefe" d="M -0.5,-0.5 C 86.1667,-0.5 172.833,-0.5 259.5,-0.5C 259.5,86.1667 259.5,172.833 259.5,259.5C 172.833,259.5 86.1667,259.5 -0.5,259.5C -0.5,172.833 -0.5,86.1667 -0.5,-0.5 Z"/></g>
<g><path style="opacity:1" fill="#e8fcfb" d="M 27.5,20.5 C 25.4634,18.4704 23.1301,16.8037 20.5,15.5C 20.1667,16.8333 19.8333,18.1667 19.5,19.5C 20.1699,23.5097 20.8366,27.5097 21.5,31.5C 21.5,32.1667 21.5,32.8333 21.5,33.5C 20.6981,32.0484 20.1981,30.3817 20,28.5C 19,29.1667 18,29.8333 17,30.5C 16.6905,29.2341 16.1905,28.0674 15.5,27C 16.9506,27.2626 18.2839,27.0959 19.5,26.5C 18.7565,23.557 18.2565,20.557 18,17.5C 17.1729,16.3379 16.3396,15.1712 15.5,14C 16.3396,12.8288 17.1729,11.6621 18,10.5C 19.6845,12.7007 21.6845,13.3673 24,12.5C 26.0955,13.7155 25.9288,14.5488 23.5,15C 24.8333,15.3333 26.1667,15.6667 27.5,16C 26.5868,17.4139 26.5868,18.9139 27.5,20.5 Z"/></g>
<g><path style="opacity:1" fill="#21a8e0" d="M 28.5,63.5 C 26.3808,53.4527 24.0475,43.4527 21.5,33.5C 21.5,32.8333 21.5,32.1667 21.5,31.5C 23.0174,31.4894 24.1841,30.8228 25,29.5C 25.3742,30.4162 25.8742,31.2496 26.5,32C 25.5415,33.7073 24.8748,35.5406 24.5,37.5C 26.1989,46.1315 27.5323,54.7982 28.5,63.5 Z"/></g>
<g><path style="opacity:1" fill="#05a7f1" d="M 27.5,20.5 C 37.6058,29.726 47.9391,38.726 58.5,47.5C 70.8081,58.1375 83.1414,68.8042 95.5,79.5C 104.375,87.8745 113.708,95.7079 123.5,103C 148.135,115.4 165.801,108.9 176.5,83.5C 177.651,79.6705 179.984,76.6705 183.5,74.5C 195.085,69.3052 206.751,64.3052 218.5,59.5C 220.048,59.8212 220.715,60.8212 220.5,62.5C 220.5,62.8333 220.5,63.1667 220.5,63.5C 203.53,78.8026 187.197,94.8026 171.5,111.5C 162.173,119.494 153.173,127.827 144.5,136.5C 141.139,137.684 138.139,139.517 135.5,142C 134.167,142.667 134.167,143.333 135.5,144C 133.775,143.591 132.108,143.758 130.5,144.5C 130.846,145.696 131.346,145.696 132,144.5C 132.847,147.49 131.68,148.824 128.5,148.5C 128.5,149.5 128.5,150.5 128.5,151.5C 124.94,153.374 121.607,155.708 118.5,158.5C 119.243,159.182 119.909,159.849 120.5,160.5C 105.86,174.806 91.1934,189.139 76.5,203.5C 75.1779,203.67 74.0113,203.337 73,202.5C 69.7945,206.702 67.2945,206.369 65.5,201.5C 66.1556,199.547 66.4889,197.547 66.5,195.5C 70.1681,187.829 72.8347,179.829 74.5,171.5C 75.963,165.566 76.6297,159.399 76.5,153C 76.4988,148.985 76.1655,145.151 75.5,141.5C 71.1417,114.632 56.6417,95.2984 32,83.5C 30.5086,76.8777 29.3419,70.2111 28.5,63.5C 27.5323,54.7982 26.1989,46.1315 24.5,37.5C 24.8748,35.5406 25.5415,33.7073 26.5,32C 25.8742,31.2496 25.3742,30.4162 25,29.5C 24.1841,30.8228 23.0174,31.4894 21.5,31.5C 20.8366,27.5097 20.1699,23.5097 19.5,19.5C 19.8333,18.1667 20.1667,16.8333 20.5,15.5C 23.1301,16.8037 25.4634,18.4704 27.5,20.5 Z"/></g>
<g><path style="opacity:1" fill="#43a8cc" d="M 220.5,62.5 C 220.715,60.8212 220.048,59.8212 218.5,59.5C 220.044,58.086 221.711,57.7526 223.5,58.5C 222.965,60.261 221.965,61.5943 220.5,62.5 Z"/></g>
<g><path style="opacity:1" fill="#eefcf9" d="M 95.5,79.5 C 83.1414,68.8042 70.8081,58.1375 58.5,47.5C 59.7791,46.032 61.4458,45.3653 63.5,45.5C 63.3398,47.1992 63.5065,48.8659 64,50.5C 66.9707,46.9083 70.304,46.5749 74,49.5C 73.2173,51.3454 72.884,53.3454 73,55.5C 76.715,60.2593 80.8816,64.5926 85.5,68.5C 88.342,65.7167 90.842,66.0501 93,69.5C 95.003,72.4998 95.8364,75.8331 95.5,79.5 Z"/></g>
<g><path style="opacity:1" fill="#d3fdfd" d="M 183.5,74.5 C 179.984,76.6705 177.651,79.6705 176.5,83.5C 176.413,80.2613 177.08,77.2613 178.5,74.5C 180.167,74.5 181.833,74.5 183.5,74.5 Z"/></g>
<g><path style="opacity:1" fill="#f0fdf9" d="M 220.5,63.5 C 220.854,66.4206 219.854,68.7539 217.5,70.5C 219.98,71.4154 220.647,72.9154 219.5,75C 221.223,75.5232 222.556,76.5232 223.5,78C 223.167,78.5 222.833,79 222.5,79.5C 219.843,77.6221 217.343,75.6221 215,73.5C 212.992,76.2729 210.492,77.4396 207.5,77C 206.687,78.3139 205.687,79.4805 204.5,80.5C 204.833,81.1667 205.167,81.8333 205.5,82.5C 203.035,83.0654 200.702,84.232 198.5,86C 199.747,87.4579 199.747,88.9579 198.5,90.5C 202.7,94.0224 202.366,95.3557 197.5,94.5C 197,93.5 196.5,92.5 196,91.5C 194.766,93.7342 192.933,95.2342 190.5,96C 191.753,100.347 190.92,100.514 188,96.5C 184.667,99.8333 181.333,103.167 178,106.5C 177.689,107.742 178.189,108.742 179.5,109.5C 182.212,110.067 184.879,110.401 187.5,110.5C 183.134,112.262 179.301,111.595 176,108.5C 174.871,110.141 173.371,111.141 171.5,111.5C 187.197,94.8026 203.53,78.8026 220.5,63.5 Z"/></g>
<g><path style="opacity:1" fill="#17a9e1" d="M 144.5,136.5 C 136.833,144.833 128.833,152.833 120.5,160.5C 119.909,159.849 119.243,159.182 118.5,158.5C 121.607,155.708 124.94,153.374 128.5,151.5C 128.5,150.5 128.5,149.5 128.5,148.5C 131.68,148.824 132.847,147.49 132,144.5C 131.346,145.696 130.846,145.696 130.5,144.5C 132.108,143.758 133.775,143.591 135.5,144C 134.167,143.333 134.167,142.667 135.5,142C 138.139,139.517 141.139,137.684 144.5,136.5 Z"/></g>
<g><path style="opacity:1" fill="#d8fefe" d="M 75.5,141.5 C 76.1655,145.151 76.4988,148.985 76.5,153C 76.6297,159.399 75.963,165.566 74.5,171.5C 75.055,161.509 75.3883,151.509 75.5,141.5 Z"/></g>
<g><path style="opacity:1" fill="#18a8e7" d="M 66.5,195.5 C 66.4889,197.547 66.1556,199.547 65.5,201.5C 67.2945,206.369 69.7945,206.702 73,202.5C 74.0113,203.337 75.1779,203.67 76.5,203.5C 72.5,208.167 68.1667,212.5 63.5,216.5C 64.038,214.883 64.3713,213.216 64.5,211.5C 65.5,211.5 66.5,211.5 67.5,211.5C 66.9556,209.42 66.1223,207.42 65,205.5C 63.9887,204.663 62.8221,204.33 61.5,204.5C 61.3739,206.2 60.7073,207.7 59.5,209C 60.0223,209.95 60.689,210.784 61.5,211.5C 61,211.833 60.5,212.167 60,212.5C 58.9231,211.571 57.7564,210.904 56.5,210.5C 59.8666,205.477 63.2,200.477 66.5,195.5 Z"/></g>
<g><path style="opacity:1" fill="#0fa8f0" d="M 63.5,216.5 C 60.1778,220.819 56.1778,224.485 51.5,227.5C 50.0222,227.238 48.6888,227.571 47.5,228.5C 46.2101,230.701 44.3768,232.367 42,233.5C 40.2509,233.252 39.4176,232.252 39.5,230.5C 45.1961,223.808 50.8627,217.142 56.5,210.5C 57.7564,210.904 58.9231,211.571 60,212.5C 60.5,212.167 61,211.833 61.5,211.5C 60.689,210.784 60.0223,209.95 59.5,209C 60.7073,207.7 61.3739,206.2 61.5,204.5C 62.8221,204.33 63.9887,204.663 65,205.5C 66.1223,207.42 66.9556,209.42 67.5,211.5C 66.5,211.5 65.5,211.5 64.5,211.5C 64.3713,213.216 64.038,214.883 63.5,216.5 Z"/></g>
<g><path style="opacity:1" fill="#1fa6de" d="M 51.5,227.5 C 48.7866,233.072 44.4533,235.239 38.5,234C 37.2004,232.421 37.5337,231.255 39.5,230.5C 39.4176,232.252 40.2509,233.252 42,233.5C 44.3768,232.367 46.2101,230.701 47.5,228.5C 48.6888,227.571 50.0222,227.238 51.5,227.5 Z"/></g>
</svg>
